<svg width="90" height="90" viewBox="0 0 90 90" fill="none" xmlns="http://www.w3.org/2000/svg">
<mask id="mask0_18_24" style="mask-type:alpha" maskUnits="userSpaceOnUse" x="0" y="0" width="90" height="90">
<rect width="90" height="90" fill="#D9D9D9"/>
</mask>
<g mask="url(#mask0_18_24)">
<rect x="16.25" y="16.25" width="57.5" height="11.5" fill="#CB8263" stroke="black" stroke-width="1.5"/>
<rect x="16.25" y="62.25" width="57.5" height="11.5" fill="#CB8263" stroke="black" stroke-width="1.5"/>
<mask id="path-4-outside-1_18_24" maskUnits="userSpaceOnUse" x="23" y="-2" width="134" height="159" fill="black">
<rect fill="white" x="23" y="-2" width="134" height="159"/>
<path fill-rule="evenodd" clip-rule="evenodd" d="M35 0H25V90C25 125.899 54.1015 155 90 155C125.899 155 155 125.899 155 90C155 54.1015 125.899 25 90 25C81.141 25 72.6959 26.7723 65 29.9816V0H55V35.2182C46.9473 40.3737 40.1065 47.2562 35 55.3431V0ZM55 47.5716C42.785 57.6595 35 72.9206 35 90C35 120.376 59.6243 145 90 145C120.376 145 145 120.376 145 90C145 59.6243 120.376 35 90 35C80.9978 35 72.5007 37.1628 65 40.9971V65.5051C71.3526 59.0223 80.2066 55 90 55C109.33 55 125 70.67 125 90C125 109.33 109.33 125 90 125C70.67 125 55 109.33 55 90V47.5716ZM90 115C76.1929 115 65 103.807 65 90C65 76.1929 76.1929 65 90 65C103.807 65 115 76.1929 115 90C115 103.807 103.807 115 90 115Z"/>
</mask>
<path fill-rule="evenodd" clip-rule="evenodd" d="M35 0H25V90C25 125.899 54.1015 155 90 155C125.899 155 155 125.899 155 90C155 54.1015 125.899 25 90 25C81.141 25 72.6959 26.7723 65 29.9816V0H55V35.2182C46.9473 40.3737 40.1065 47.2562 35 55.3431V0ZM55 47.5716C42.785 57.6595 35 72.9206 35 90C35 120.376 59.6243 145 90 145C120.376 145 145 120.376 145 90C145 59.6243 120.376 35 90 35C80.9978 35 72.5007 37.1628 65 40.9971V65.5051C71.3526 59.0223 80.2066 55 90 55C109.33 55 125 70.67 125 90C125 109.33 109.33 125 90 125C70.67 125 55 109.33 55 90V47.5716ZM90 115C76.1929 115 65 103.807 65 90C65 76.1929 76.1929 65 90 65C103.807 65 115 76.1929 115 90C115 103.807 103.807 115 90 115Z" fill="#E2F5FF"/>
<path d="M25 0V-1.5H23.5V0H25ZM35 0H36.5V-1.5H35V0ZM65 29.9816H63.5V32.2324L65.5773 31.3661L65 29.9816ZM65 0H66.5V-1.5H65V0ZM55 0V-1.5H53.5V0H55ZM55 35.2182L55.8088 36.4815L56.5 36.0389V35.2182H55ZM35 55.3431H33.5V60.5281L36.2683 56.144L35 55.3431ZM55 47.5716H56.5V44.3874L54.0448 46.4151L55 47.5716ZM65 40.9971L64.3172 39.6615L63.5 40.0793V40.9971H65ZM65 65.5051H63.5V69.179L66.0714 66.5549L65 65.5051ZM25 1.5H35V-1.5H25V1.5ZM26.5 90V0H23.5V90H26.5ZM23.5 90C23.5 126.727 53.2731 156.5 90 156.5V153.5C54.9299 153.5 26.5 125.07 26.5 90H23.5ZM90 156.5C126.727 156.5 156.5 126.727 156.5 90H153.5C153.5 125.07 125.07 153.5 90 153.5V156.5ZM156.5 90C156.5 53.2731 126.727 23.5 90 23.5V26.5C125.07 26.5 153.5 54.9299 153.5 90H156.5ZM90 23.5C80.9393 23.5 72.2983 25.3129 64.4227 28.5972L65.5773 31.3661C73.0936 28.2317 81.3427 26.5 90 26.5V23.5ZM63.5 0V29.9816H66.5V0H63.5ZM55 1.5H65V-1.5H55V1.5ZM56.5 35.2182V0H53.5V35.2182H56.5ZM54.1912 33.9549C45.9534 39.229 38.9556 46.2693 33.7317 54.5423L36.2683 56.144C41.2573 48.2431 47.9413 41.5185 55.8088 36.4815L54.1912 33.9549ZM33.5 0V55.3431H36.5V0H33.5ZM54.0448 46.4151C41.4996 56.7757 33.5 72.4543 33.5 90H36.5C36.5 73.387 44.0704 58.5434 55.9552 48.7282L54.0448 46.4151ZM33.5 90C33.5 121.204 58.7959 146.5 90 146.5V143.5C60.4528 143.5 36.5 119.547 36.5 90H33.5ZM90 146.5C121.204 146.5 146.5 121.204 146.5 90H143.5C143.5 119.547 119.547 143.5 90 143.5V146.5ZM146.5 90C146.5 58.7959 121.204 33.5 90 33.5V36.5C119.547 36.5 143.5 60.4528 143.5 90H146.5ZM90 33.5C80.7549 33.5 72.0244 35.7216 64.3172 39.6615L65.6828 42.3327C72.977 38.6039 81.2406 36.5 90 36.5V33.5ZM63.5 40.9971V65.5051H66.5V40.9971H63.5ZM66.0714 66.5549C72.1534 60.3482 80.626 56.5 90 56.5V53.5C79.7872 53.5 70.5517 57.6964 63.9286 64.4552L66.0714 66.5549ZM90 56.5C108.502 56.5 123.5 71.4985 123.5 90H126.5C126.5 69.8416 110.158 53.5 90 53.5V56.5ZM123.5 90C123.5 108.502 108.502 123.5 90 123.5V126.5C110.158 126.5 126.5 110.158 126.5 90H123.5ZM90 123.5C71.4985 123.5 56.5 108.502 56.5 90H53.5C53.5 110.158 69.8416 126.5 90 126.5V123.5ZM56.5 90V47.5716H53.5V90H56.5ZM63.5 90C63.5 104.636 75.3645 116.5 90 116.5V113.5C77.0213 113.5 66.5 102.979 66.5 90H63.5ZM90 63.5C75.3645 63.5 63.5 75.3644 63.5 90H66.5C66.5 77.0213 77.0213 66.5 90 66.5V63.5ZM116.5 90C116.5 75.3644 104.636 63.5 90 63.5V66.5C102.979 66.5 113.5 77.0213 113.5 90H116.5ZM90 116.5C104.636 116.5 116.5 104.636 116.5 90H113.5C113.5 102.979 102.979 113.5 90 113.5V116.5Z" fill="black" mask="url(#path-4-outside-1_18_24)"/>
</g>
</svg>
