<svg width="90" height="90" viewBox="0 0 90 90" fill="none" xmlns="http://www.w3.org/2000/svg">
<mask id="mask0_18_85" style="mask-type:alpha" maskUnits="userSpaceOnUse" x="0" y="0" width="90" height="90">
<rect width="90" height="90" fill="#D9D9D9"/>
</mask>
<g mask="url(#mask0_18_85)">
<rect x="16.25" y="16.25" width="11.5" height="57.5" fill="#CB8263" stroke="black" stroke-width="1.5"/>
<rect x="62.25" y="16.25" width="11.5" height="57.5" fill="#CB8263" stroke="black" stroke-width="1.5"/>
<mask id="path-4-outside-1_18_85" maskUnits="userSpaceOnUse" x="-67" y="23" width="159" height="134" fill="black">
<rect fill="white" x="-67" y="23" width="159" height="134"/>
<path fill-rule="evenodd" clip-rule="evenodd" d="M65 90C65 125.899 35.8985 155 0 155C-35.8985 155 -65 125.899 -65 90C-65 54.1015 -35.8985 25 0 25H90V35H34.6569C42.7438 40.1065 49.6263 46.9473 54.7818 55H90V65H60.0184C63.2277 72.6959 65 81.141 65 90ZM42.4284 55H0C-19.33 55 -35 70.67 -35 90C-35 109.33 -19.33 125 0 125C19.33 125 35 109.33 35 90C35 80.2066 30.9777 71.3526 24.4949 65H49.0029C52.8372 72.5007 55 80.9978 55 90C55 120.376 30.3757 145 0 145C-30.3757 145 -55 120.376 -55 90C-55 59.6243 -30.3757 35 0 35C17.0794 35 32.3405 42.785 42.4284 55ZM-25 90C-25 76.1929 -13.8071 65 0 65C13.8071 65 25 76.1929 25 90C25 103.807 13.8071 115 0 115C-13.8071 115 -25 103.807 -25 90Z"/>
</mask>
<path fill-rule="evenodd" clip-rule="evenodd" d="M65 90C65 125.899 35.8985 155 0 155C-35.8985 155 -65 125.899 -65 90C-65 54.1015 -35.8985 25 0 25H90V35H34.6569C42.7438 40.1065 49.6263 46.9473 54.7818 55H90V65H60.0184C63.2277 72.6959 65 81.141 65 90ZM42.4284 55H0C-19.33 55 -35 70.67 -35 90C-35 109.33 -19.33 125 0 125C19.33 125 35 109.33 35 90C35 80.2066 30.9777 71.3526 24.4949 65H49.0029C52.8372 72.5007 55 80.9978 55 90C55 120.376 30.3757 145 0 145C-30.3757 145 -55 120.376 -55 90C-55 59.6243 -30.3757 35 0 35C17.0794 35 32.3405 42.785 42.4284 55ZM-25 90C-25 76.1929 -13.8071 65 0 65C13.8071 65 25 76.1929 25 90C25 103.807 13.8071 115 0 115C-13.8071 115 -25 103.807 -25 90Z" fill="#E2F5FF"/>
<path d="M90 25H91.5V23.5H90V25ZM90 35V36.5H91.5V35H90ZM34.6569 35V33.5H29.4719L33.856 36.2683L34.6569 35ZM54.7818 55L53.5185 55.8088L53.9611 56.5H54.7818V55ZM90 55H91.5V53.5H90V55ZM90 65V66.5H91.5V65H90ZM60.0184 65V63.5H57.7676L58.6339 65.5773L60.0184 65ZM42.4284 55V56.5H45.6126L43.585 54.0448L42.4284 55ZM24.4949 65V63.5H20.821L23.4451 66.0714L24.4949 65ZM49.0029 65L50.3385 64.3172L49.9207 63.5H49.0029V65ZM0 156.5C36.7269 156.5 66.5 126.727 66.5 90H63.5C63.5 125.07 35.0701 153.5 0 153.5V156.5ZM-66.5 90C-66.5 126.727 -36.7269 156.5 0 156.5V153.5C-35.0701 153.5 -63.5 125.07 -63.5 90H-66.5ZM0 23.5C-36.7269 23.5 -66.5 53.2731 -66.5 90H-63.5C-63.5 54.9299 -35.0701 26.5 0 26.5V23.5ZM0 26.5H90V23.5H0V26.5ZM88.5 25V35H91.5V25H88.5ZM90 33.5H34.6569V36.5H90V33.5ZM56.0451 54.1912C50.771 45.9534 43.7307 38.9556 35.4577 33.7317L33.856 36.2683C41.7569 41.2573 48.4815 47.9413 53.5185 55.8088L56.0451 54.1912ZM54.7818 56.5H90V53.5H54.7818V56.5ZM88.5 55V65H91.5V55H88.5ZM90 63.5H60.0184V66.5H90V63.5ZM66.5 90C66.5 80.9393 64.6871 72.2983 61.4028 64.4227L58.6339 65.5773C61.7683 73.0936 63.5 81.3427 63.5 90H66.5ZM0 56.5H42.4284V53.5H0V56.5ZM-33.5 90C-33.5 71.4985 -18.5015 56.5 0 56.5V53.5C-20.1584 53.5 -36.5 69.8416 -36.5 90H-33.5ZM0 123.5C-18.5015 123.5 -33.5 108.502 -33.5 90H-36.5C-36.5 110.158 -20.1584 126.5 0 126.5V123.5ZM33.5 90C33.5 108.502 18.5015 123.5 0 123.5V126.5C20.1584 126.5 36.5 110.158 36.5 90H33.5ZM23.4451 66.0714C29.6518 72.1534 33.5 80.626 33.5 90H36.5C36.5 79.7872 32.3036 70.5517 25.5448 63.9286L23.4451 66.0714ZM49.0029 63.5H24.4949V66.5H49.0029V63.5ZM56.5 90C56.5 80.7549 54.2784 72.0244 50.3385 64.3172L47.6673 65.6828C51.3961 72.977 53.5 81.2406 53.5 90H56.5ZM0 146.5C31.2041 146.5 56.5 121.204 56.5 90H53.5C53.5 119.547 29.5472 143.5 0 143.5V146.5ZM-56.5 90C-56.5 121.204 -31.2041 146.5 0 146.5V143.5C-29.5472 143.5 -53.5 119.547 -53.5 90H-56.5ZM0 33.5C-31.2041 33.5 -56.5 58.7959 -56.5 90H-53.5C-53.5 60.4528 -29.5472 36.5 0 36.5V33.5ZM43.585 54.0448C33.2243 41.4996 17.5457 33.5 0 33.5V36.5C16.613 36.5 31.4566 44.0704 41.2718 55.9552L43.585 54.0448ZM0 63.5C-14.6355 63.5 -26.5 75.3645 -26.5 90H-23.5C-23.5 77.0213 -12.9787 66.5 0 66.5V63.5ZM26.5 90C26.5 75.3645 14.6355 63.5 0 63.5V66.5C12.9787 66.5 23.5 77.0213 23.5 90H26.5ZM0 116.5C14.6355 116.5 26.5 104.636 26.5 90H23.5C23.5 102.979 12.9787 113.5 0 113.5V116.5ZM-26.5 90C-26.5 104.636 -14.6355 116.5 0 116.5V113.5C-12.9787 113.5 -23.5 102.979 -23.5 90H-26.5Z" fill="black" mask="url(#path-4-outside-1_18_85)"/>
</g>
</svg>
