<svg width="90" height="90" viewBox="0 0 90 90" fill="none" xmlns="http://www.w3.org/2000/svg">
<mask id="mask0_18_37" style="mask-type:alpha" maskUnits="userSpaceOnUse" x="0" y="0" width="90" height="90">
<rect width="90" height="90" fill="#D9D9D9"/>
</mask>
<g mask="url(#mask0_18_37)">
<rect x="16.25" y="16.25" width="57.5" height="11.5" fill="#CB8263" stroke="black" stroke-width="1.5"/>
<rect x="16.25" y="62.25" width="57.5" height="11.5" fill="#CB8263" stroke="black" stroke-width="1.5"/>
<mask id="path-4-outside-1_18_37" maskUnits="userSpaceOnUse" x="23" y="-67" width="134" height="159" fill="black">
<rect fill="white" x="23" y="-67" width="134" height="159"/>
<path fill-rule="evenodd" clip-rule="evenodd" d="M155 0C155 35.8985 125.899 65 90 65C81.141 65 72.6959 63.2277 65 60.0184V90H55V54.7818C46.9473 49.6263 40.1065 42.7438 35 34.6569V90H25V0C25 -35.8985 54.1015 -65 90 -65C125.899 -65 155 -35.8985 155 0ZM35 0C35 -30.3757 59.6243 -55 90 -55C120.376 -55 145 -30.3757 145 0C145 30.3757 120.376 55 90 55C80.9978 55 72.5007 52.8372 65 49.0029V24.4949C71.3526 30.9777 80.2066 35 90 35C109.33 35 125 19.33 125 0C125 -19.33 109.33 -35 90 -35C70.67 -35 55 -19.33 55 0V42.4284C42.785 32.3405 35 17.0794 35 0ZM90 -25C76.1929 -25 65 -13.8071 65 0C65 13.8071 76.1929 25 90 25C103.807 25 115 13.8071 115 0C115 -13.8071 103.807 -25 90 -25Z"/>
</mask>
<path fill-rule="evenodd" clip-rule="evenodd" d="M155 0C155 35.8985 125.899 65 90 65C81.141 65 72.6959 63.2277 65 60.0184V90H55V54.7818C46.9473 49.6263 40.1065 42.7438 35 34.6569V90H25V0C25 -35.8985 54.1015 -65 90 -65C125.899 -65 155 -35.8985 155 0ZM35 0C35 -30.3757 59.6243 -55 90 -55C120.376 -55 145 -30.3757 145 0C145 30.3757 120.376 55 90 55C80.9978 55 72.5007 52.8372 65 49.0029V24.4949C71.3526 30.9777 80.2066 35 90 35C109.33 35 125 19.33 125 0C125 -19.33 109.33 -35 90 -35C70.67 -35 55 -19.33 55 0V42.4284C42.785 32.3405 35 17.0794 35 0ZM90 -25C76.1929 -25 65 -13.8071 65 0C65 13.8071 76.1929 25 90 25C103.807 25 115 13.8071 115 0C115 -13.8071 103.807 -25 90 -25Z" fill="#E2F5FF"/>
<path d="M65 60.0184L65.5773 58.6339L63.5 57.7676V60.0184H65ZM65 90V91.5H66.5V90H65ZM55 90H53.5V91.5H55V90ZM55 54.7818H56.5V53.9611L55.8088 53.5185L55 54.7818ZM35 34.6569L36.2683 33.856L33.5 29.4719V34.6569H35ZM35 90V91.5H36.5V90H35ZM25 90H23.5V91.5H25V90ZM65 49.0029H63.5V49.9207L64.3172 50.3385L65 49.0029ZM65 24.4949L66.0714 23.4451L63.5 20.821V24.4949H65ZM55 42.4284L54.0448 43.585L56.5 45.6126V42.4284H55ZM90 66.5C126.727 66.5 156.5 36.7269 156.5 0H153.5C153.5 35.0701 125.07 63.5 90 63.5V66.5ZM64.4227 61.4028C72.2983 64.6871 80.9393 66.5 90 66.5V63.5C81.3427 63.5 73.0936 61.7683 65.5773 58.6339L64.4227 61.4028ZM63.5 60.0184V90H66.5V60.0184H63.5ZM65 88.5H55V91.5H65V88.5ZM56.5 90V54.7818H53.5V90H56.5ZM33.7317 35.4577C38.9556 43.7307 45.9534 50.771 54.1912 56.0451L55.8088 53.5185C47.9413 48.4815 41.2573 41.7569 36.2683 33.856L33.7317 35.4577ZM33.5 34.6569V90H36.5V34.6569H33.5ZM35 88.5H25V91.5H35V88.5ZM26.5 90V0H23.5V90H26.5ZM90 -66.5C53.2731 -66.5 23.5 -36.7269 23.5 0H26.5C26.5 -35.0701 54.9299 -63.5 90 -63.5V-66.5ZM156.5 0C156.5 -36.7269 126.727 -66.5 90 -66.5V-63.5C125.07 -63.5 153.5 -35.0701 153.5 0H156.5ZM90 -56.5C58.7959 -56.5 33.5 -31.2041 33.5 0H36.5C36.5 -29.5472 60.4528 -53.5 90 -53.5V-56.5ZM146.5 0C146.5 -31.2041 121.204 -56.5 90 -56.5V-53.5C119.547 -53.5 143.5 -29.5472 143.5 0H146.5ZM90 56.5C121.204 56.5 146.5 31.2041 146.5 0H143.5C143.5 29.5472 119.547 53.5 90 53.5V56.5ZM64.3172 50.3385C72.0244 54.2784 80.7549 56.5 90 56.5V53.5C81.2406 53.5 72.977 51.3961 65.6828 47.6673L64.3172 50.3385ZM63.5 24.4949V49.0029H66.5V24.4949H63.5ZM90 33.5C80.626 33.5 72.1534 29.6518 66.0714 23.4451L63.9286 25.5448C70.5517 32.3036 79.7872 36.5 90 36.5V33.5ZM123.5 0C123.5 18.5015 108.502 33.5 90 33.5V36.5C110.158 36.5 126.5 20.1584 126.5 0H123.5ZM90 -33.5C108.502 -33.5 123.5 -18.5015 123.5 0H126.5C126.5 -20.1584 110.158 -36.5 90 -36.5V-33.5ZM56.5 0C56.5 -18.5015 71.4985 -33.5 90 -33.5V-36.5C69.8416 -36.5 53.5 -20.1584 53.5 0H56.5ZM56.5 42.4284V0H53.5V42.4284H56.5ZM33.5 0C33.5 17.5457 41.4996 33.2243 54.0448 43.585L55.9552 41.2718C44.0704 31.4566 36.5 16.613 36.5 0H33.5ZM66.5 0C66.5 -12.9787 77.0213 -23.5 90 -23.5V-26.5C75.3645 -26.5 63.5 -14.6355 63.5 0H66.5ZM90 23.5C77.0213 23.5 66.5 12.9787 66.5 0H63.5C63.5 14.6355 75.3645 26.5 90 26.5V23.5ZM113.5 0C113.5 12.9787 102.979 23.5 90 23.5V26.5C104.636 26.5 116.5 14.6355 116.5 0H113.5ZM90 -23.5C102.979 -23.5 113.5 -12.9787 113.5 0H116.5C116.5 -14.6355 104.636 -26.5 90 -26.5V-23.5Z" fill="black" mask="url(#path-4-outside-1_18_37)"/>
</g>
</svg>
