<svg width="90" height="90" viewBox="0 0 90 90" fill="none" xmlns="http://www.w3.org/2000/svg">
<mask id="mask0_41_231" style="mask-type:alpha" maskUnits="userSpaceOnUse" x="0" y="0" width="90" height="90">
<rect width="90" height="90" fill="#D9D9D9"/>
</mask>
<g mask="url(#mask0_41_231)">
<rect x="15.102" y="25.788" width="61.5" height="17.5" transform="rotate(-1 15.102 25.788)" fill="#8F8555" stroke="black" stroke-width="1.5"/>
<rect x="11.5771" y="1.00767" width="71.5" height="17.5" transform="rotate(2 11.5771 1.00767)" fill="#8F8555" stroke="black" stroke-width="1.5"/>
<rect x="54.25" y="-0.75" width="11.5" height="46.5" fill="#E2F5FF" stroke="black" stroke-width="1.5"/>
<rect x="24.25" y="-0.75" width="11.5" height="46.5" fill="#E2F5FF" stroke="black" stroke-width="1.5"/>
<path d="M58 47H32C20.5731 47 10.5452 41.0107 4.88412 32V47.8841C4.88412 70.0395 22.8446 88 45 88C67.1554 88 85.1159 70.0395 85.1159 47.8841V32C79.4548 41.0107 69.4269 47 58 47Z" fill="white"/>
<path d="M59.4645 30.5355C58.5268 31.4732 57.255 32 55.9289 32H34.0711C32.745 32 31.4732 31.4732 30.5355 30.5355L16.4645 16.4645C15.5268 15.5268 15 14.255 15 12.9289V2L2 2V15C2 21.2463 1.78963 27.0745 4.88412 32C10.5452 41.0107 20.5731 47 32 47H58C69.4269 47 79.4548 41.0107 85.1159 32C88.2104 27.0745 88 21.2463 88 15V2L75 2V12.9289C75 14.255 74.4732 15.5268 73.5355 16.4645L59.4645 30.5355Z" fill="white"/>
<path d="M85.1159 32C88.2104 27.0745 88 21.2463 88 15V2L75 2V12.9289C75 14.255 74.4732 15.5268 73.5355 16.4645L59.4645 30.5355C58.5268 31.4732 57.255 32 55.9289 32H34.0711C32.745 32 31.4732 31.4732 30.5355 30.5355L16.4645 16.4645C15.5268 15.5268 15 14.255 15 12.9289V2L2 2V15C2 21.2463 1.78963 27.0745 4.88412 32M85.1159 32C79.4548 41.0107 69.4269 47 58 47H32C20.5731 47 10.5452 41.0107 4.88412 32M85.1159 32V47.8841C85.1159 70.0395 67.1554 88 45 88V88C22.8446 88 4.88412 70.0395 4.88412 47.8841V32" stroke="black" stroke-width="1.5"/>
</g>
</svg>
