<svg width="90" height="90" viewBox="0 0 90 90" fill="none" xmlns="http://www.w3.org/2000/svg">
<mask id="mask0_41_221" style="mask-type:alpha" maskUnits="userSpaceOnUse" x="0" y="0" width="90" height="90">
<rect width="90" height="90" fill="#D9D9D9"/>
</mask>
<g mask="url(#mask0_41_221)">
<rect x="46.7147" y="15.4074" width="17.5" height="61.5" transform="rotate(-1 46.7147 15.4074)" fill="#8F8555" stroke="black" stroke-width="1.5"/>
<rect x="70.503" y="10.9664" width="17.5" height="71.5" transform="rotate(2 70.503 10.9664)" fill="#8F8555" stroke="black" stroke-width="1.5"/>
<rect x="44.25" y="54.25" width="46.5" height="11.5" fill="#E2F5FF" stroke="black" stroke-width="1.5"/>
<rect x="44.25" y="24.25" width="46.5" height="11.5" fill="#E2F5FF" stroke="black" stroke-width="1.5"/>
<path d="M43 58V32C43 20.5731 48.9893 10.5452 58 4.88412H42.1159C19.9605 4.88412 2 22.8446 2 45C2 67.1554 19.9605 85.1159 42.1159 85.1159H58C48.9893 79.4548 43 69.4269 43 58Z" fill="white"/>
<path d="M59.4645 59.4645C58.5268 58.5268 58 57.255 58 55.9289L58 34.0711C58 32.745 58.5268 31.4732 59.4645 30.5355L73.5355 16.4645C74.4732 15.5268 75.745 15 77.0711 15H88V2H75C68.7537 2 62.9255 1.78963 58 4.88412C48.9893 10.5452 43 20.5731 43 32V58C43 69.4269 48.9893 79.4548 58 85.1159C62.9255 88.2104 68.7537 88 75 88H88V75H77.0711C75.745 75 74.4732 74.4732 73.5355 73.5355L59.4645 59.4645Z" fill="white"/>
<path d="M58 85.1159C62.9255 88.2104 68.7537 88 75 88H88V75H77.0711C75.745 75 74.4732 74.4732 73.5355 73.5355L59.4645 59.4645C58.5268 58.5268 58 57.255 58 55.9289L58 34.0711C58 32.745 58.5268 31.4732 59.4645 30.5355L73.5355 16.4645C74.4732 15.5268 75.745 15 77.0711 15H88V2H75C68.7537 2 62.9255 1.78963 58 4.88412M58 85.1159C48.9893 79.4548 43 69.4269 43 58V32C43 20.5731 48.9893 10.5452 58 4.88412M58 85.1159H42.1159C19.9605 85.1159 2 67.1554 2 45V45C2 22.8446 19.9605 4.88412 42.1159 4.88412H58" stroke="black" stroke-width="1.5"/>
</g>
</svg>
