<svg width="90" height="90" viewBox="0 0 90 90" fill="none" xmlns="http://www.w3.org/2000/svg">
<mask id="mask0_41_204" style="mask-type:alpha" maskUnits="userSpaceOnUse" x="0" y="0" width="90" height="90">
<rect width="90" height="90" fill="#D9D9D9"/>
</mask>
<g mask="url(#mask0_41_204)">
<rect x="15.102" y="69.788" width="61.5" height="17.5" transform="rotate(-1 15.102 69.788)" fill="#8F8555" stroke="black" stroke-width="1.5"/>
<rect x="11.5771" y="46.0077" width="71.5" height="17.5" transform="rotate(2 11.5771 46.0077)" fill="#8F8555" stroke="black" stroke-width="1.5"/>
<rect x="54.25" y="44.25" width="11.5" height="46.5" fill="#E2F5FF" stroke="black" stroke-width="1.5"/>
<rect x="24.25" y="44.25" width="11.5" height="46.5" fill="#E2F5FF" stroke="black" stroke-width="1.5"/>
<path d="M32 43H58C69.4269 43 79.4548 48.9893 85.1159 58V42.1159C85.1159 19.9605 67.1554 2 45 2C22.8446 2 4.88413 19.9605 4.88413 42.1159L4.88413 58C10.5452 48.9893 20.5731 43 32 43Z" fill="white"/>
<path d="M30.5355 59.4645C31.4732 58.5268 32.745 58 34.0711 58H55.9289C57.255 58 58.5268 58.5268 59.4645 59.4645L73.5355 73.5355C74.4732 74.4732 75 75.745 75 77.0711V88H88V75C88 68.7537 88.2104 62.9255 85.1159 58C79.4548 48.9893 69.4269 43 58 43H32C20.5731 43 10.5452 48.9893 4.88413 58C1.78964 62.9255 2 68.7537 2 75L2 88H15V77.0711C15 75.745 15.5268 74.4732 16.4645 73.5355L30.5355 59.4645Z" fill="white"/>
<path d="M4.88413 58C1.78964 62.9255 2 68.7537 2 75L2 88H15V77.0711C15 75.745 15.5268 74.4732 16.4645 73.5355L30.5355 59.4645C31.4732 58.5268 32.745 58 34.0711 58H55.9289C57.255 58 58.5268 58.5268 59.4645 59.4645L73.5355 73.5355C74.4732 74.4732 75 75.745 75 77.0711V88H88V75C88 68.7537 88.2104 62.9255 85.1159 58M4.88413 58C10.5452 48.9893 20.5731 43 32 43H58C69.4269 43 79.4548 48.9893 85.1159 58M4.88413 58L4.88413 42.1159C4.88413 19.9605 22.8446 2 45 2V2C67.1554 2 85.1159 19.9605 85.1159 42.1159V58" stroke="black" stroke-width="1.5"/>
</g>
</svg>
