<svg width="90" height="90" viewBox="0 0 90 90" fill="none" xmlns="http://www.w3.org/2000/svg">
<mask id="mask0_16_68" style="mask-type:alpha" maskUnits="userSpaceOnUse" x="0" y="0" width="90" height="90">
<rect width="90" height="90" fill="#D9D9D9"/>
</mask>
<g mask="url(#mask0_16_68)">
<rect x="64.0426" y="20.73" width="57.5" height="11.5" transform="rotate(65 64.0426 20.73)" fill="#CB8263" stroke="black" stroke-width="1.5"/>
<rect x="25.5896" y="53.6212" width="57.5" height="11.5" transform="rotate(25 25.5896 53.6212)" fill="#CB8263" stroke="black" stroke-width="1.5"/>
<mask id="path-4-outside-1_16_68" maskUnits="userSpaceOnUse" x="53" y="53" width="74" height="74" fill="black">
<rect fill="white" x="53" y="53" width="74" height="74"/>
<path fill-rule="evenodd" clip-rule="evenodd" d="M90 125C109.33 125 125 109.33 125 90C125 70.67 109.33 55 90 55C70.67 55 55 70.67 55 90C55 109.33 70.67 125 90 125ZM90 115C103.807 115 115 103.807 115 90C115 76.1929 103.807 65 90 65C76.1929 65 65 76.1929 65 90C65 103.807 76.1929 115 90 115Z"/>
</mask>
<path fill-rule="evenodd" clip-rule="evenodd" d="M90 125C109.33 125 125 109.33 125 90C125 70.67 109.33 55 90 55C70.67 55 55 70.67 55 90C55 109.33 70.67 125 90 125ZM90 115C103.807 115 115 103.807 115 90C115 76.1929 103.807 65 90 65C76.1929 65 65 76.1929 65 90C65 103.807 76.1929 115 90 115Z" fill="#E2F5FF"/>
<path d="M123.5 90C123.5 108.502 108.502 123.5 90 123.5V126.5C110.158 126.5 126.5 110.158 126.5 90H123.5ZM90 56.5C108.502 56.5 123.5 71.4985 123.5 90H126.5C126.5 69.8416 110.158 53.5 90 53.5V56.5ZM56.5 90C56.5 71.4985 71.4985 56.5 90 56.5V53.5C69.8416 53.5 53.5 69.8416 53.5 90H56.5ZM90 123.5C71.4985 123.5 56.5 108.502 56.5 90H53.5C53.5 110.158 69.8416 126.5 90 126.5V123.5ZM113.5 90C113.5 102.979 102.979 113.5 90 113.5V116.5C104.636 116.5 116.5 104.636 116.5 90H113.5ZM90 66.5C102.979 66.5 113.5 77.0213 113.5 90H116.5C116.5 75.3645 104.636 63.5 90 63.5V66.5ZM66.5 90C66.5 77.0213 77.0213 66.5 90 66.5V63.5C75.3645 63.5 63.5 75.3645 63.5 90H66.5ZM90 113.5C77.0213 113.5 66.5 102.979 66.5 90H63.5C63.5 104.636 75.3645 116.5 90 116.5V113.5Z" fill="black" mask="url(#path-4-outside-1_16_68)"/>
<mask id="path-6-outside-2_16_68" maskUnits="userSpaceOnUse" x="23" y="23" width="134" height="134" fill="black">
<rect fill="white" x="23" y="23" width="134" height="134"/>
<path fill-rule="evenodd" clip-rule="evenodd" d="M90 155C125.899 155 155 125.899 155 90C155 54.1015 125.899 25 90 25C54.1015 25 25 54.1015 25 90C25 125.899 54.1015 155 90 155ZM90 145C120.376 145 145 120.376 145 90C145 59.6243 120.376 35 90 35C59.6243 35 35 59.6243 35 90C35 120.376 59.6243 145 90 145Z"/>
</mask>
<path fill-rule="evenodd" clip-rule="evenodd" d="M90 155C125.899 155 155 125.899 155 90C155 54.1015 125.899 25 90 25C54.1015 25 25 54.1015 25 90C25 125.899 54.1015 155 90 155ZM90 145C120.376 145 145 120.376 145 90C145 59.6243 120.376 35 90 35C59.6243 35 35 59.6243 35 90C35 120.376 59.6243 145 90 145Z" fill="#E2F5FF"/>
<path d="M153.5 90C153.5 125.07 125.07 153.5 90 153.5V156.5C126.727 156.5 156.5 126.727 156.5 90H153.5ZM90 26.5C125.07 26.5 153.5 54.9299 153.5 90H156.5C156.5 53.2731 126.727 23.5 90 23.5V26.5ZM26.5 90C26.5 54.9299 54.9299 26.5 90 26.5V23.5C53.2731 23.5 23.5 53.2731 23.5 90H26.5ZM90 153.5C54.9299 153.5 26.5 125.07 26.5 90H23.5C23.5 126.727 53.2731 156.5 90 156.5V153.5ZM143.5 90C143.5 119.547 119.547 143.5 90 143.5V146.5C121.204 146.5 146.5 121.204 146.5 90H143.5ZM90 36.5C119.547 36.5 143.5 60.4528 143.5 90H146.5C146.5 58.7959 121.204 33.5 90 33.5V36.5ZM36.5 90C36.5 60.4528 60.4528 36.5 90 36.5V33.5C58.7959 33.5 33.5 58.7959 33.5 90H36.5ZM90 143.5C60.4528 143.5 36.5 119.547 36.5 90H33.5C33.5 121.204 58.7959 146.5 90 146.5V143.5Z" fill="black" mask="url(#path-6-outside-2_16_68)"/>
</g>
</svg>
