<svg width="90" height="90" viewBox="0 0 90 90" fill="none" xmlns="http://www.w3.org/2000/svg">
<mask id="mask0_45_581" style="mask-type:alpha" maskUnits="userSpaceOnUse" x="0" y="0" width="90" height="90">
<rect width="90" height="90" fill="#D9D9D9"/>
</mask>
<g mask="url(#mask0_45_581)">
<path fill-rule="evenodd" clip-rule="evenodd" d="M76 67C78.7614 67 81 64.7614 81 62V28C81 25.2386 78.7614 23 76 23H19C16.2386 23 14 25.2386 14 28V45V62C14 64.7614 16.2386 67 19 67H76ZM32.6 52.8C31.9408 53.2944 31 52.824 31 52V38C31 37.176 31.9408 36.7056 32.6 37.2L41.9333 44.2C42.4667 44.6 42.4667 45.4 41.9333 45.8L32.6 52.8Z" fill="#2C59D6"/>
<path d="M32.6 37.2C31.9408 36.7056 31 37.176 31 38V52C31 52.824 31.9408 53.2944 32.6 52.8L41.9333 45.8C42.4667 45.4 42.4667 44.6 41.9333 44.2L32.6 37.2Z" fill="white"/>
<path fill-rule="evenodd" clip-rule="evenodd" d="M76 67C78.7614 67 81 64.7614 81 62V28C81 25.2386 78.7614 23 76 23H19C16.2386 23 14 25.2386 14 28V45V62C14 64.7614 16.2386 67 19 67H76ZM32.6 52.8C31.9408 53.2944 31 52.824 31 52V38C31 37.176 31.9408 36.7056 32.6 37.2L41.9333 44.2C42.4667 44.6 42.4667 45.4 41.9333 45.8L32.6 52.8Z" stroke="black" stroke-width="1.5"/>
<path d="M32.6 37.2C31.9408 36.7056 31 37.176 31 38V52C31 52.824 31.9408 53.2944 32.6 52.8L41.9333 45.8C42.4667 45.4 42.4667 44.6 41.9333 44.2L32.6 37.2Z" stroke="black" stroke-width="1.5"/>
<mask id="path-3-outside-1_45_581" maskUnits="userSpaceOnUse" x="51" y="37" width="21" height="16" fill="black">
<rect fill="white" x="51" y="37" width="21" height="16"/>
<path d="M70.325 39.0898V42.9898H53V39.0898H70.325ZM70.325 47V50.9H53V47H70.325Z"/>
</mask>
<path d="M70.325 39.0898V42.9898H53V39.0898H70.325ZM70.325 47V50.9H53V47H70.325Z" fill="white"/>
<path d="M70.325 39.0898H71.825V37.5898H70.325V39.0898ZM70.325 42.9898V44.4898H71.825V42.9898H70.325ZM53 42.9898H51.5V44.4898H53V42.9898ZM53 39.0898V37.5898H51.5V39.0898H53ZM68.825 39.0898V42.9898H71.825V39.0898H68.825ZM70.325 41.4898H53V44.4898H70.325V41.4898ZM54.5 42.9898V39.0898H51.5V42.9898H54.5ZM53 40.5898H70.325V37.5898H53V40.5898ZM70.325 47H71.825V45.5H70.325V47ZM70.325 50.9V52.4H71.825V50.9H70.325ZM53 50.9H51.5V52.4H53V50.9ZM53 47V45.5H51.5V47H53ZM68.825 47V50.9H71.825V47H68.825ZM70.325 49.4H53V52.4H70.325V49.4ZM54.5 50.9V47H51.5V50.9H54.5ZM53 48.5H70.325V45.5H53V48.5Z" fill="black" mask="url(#path-3-outside-1_45_581)"/>
</g>
</svg>
