<svg width="90" height="90" viewBox="0 0 90 90" fill="none" xmlns="http://www.w3.org/2000/svg">
<mask id="mask0_44_548" style="mask-type:alpha" maskUnits="userSpaceOnUse" x="0" y="0" width="90" height="90">
<rect width="90" height="90" fill="#D9D9D9"/>
</mask>
<g mask="url(#mask0_44_548)">
<path fill-rule="evenodd" clip-rule="evenodd" d="M76 67C78.7614 67 81 64.7614 81 62V28C81 25.2386 78.7614 23 76 23H19C16.2386 23 14 25.2386 14 28V45V62C14 64.7614 16.2386 67 19 67H76ZM32.6 52.8C31.9408 53.2944 31 52.824 31 52V38C31 37.176 31.9408 36.7056 32.6 37.2L41.9333 44.2C42.4667 44.6 42.4667 45.4 41.9333 45.8L32.6 52.8Z" fill="#D6592C"/>
<path d="M32.6 37.2C31.9408 36.7056 31 37.176 31 38V52C31 52.824 31.9408 53.2944 32.6 52.8L41.9333 45.8C42.4667 45.4 42.4667 44.6 41.9333 44.2L32.6 37.2Z" fill="white"/>
<path fill-rule="evenodd" clip-rule="evenodd" d="M76 67C78.7614 67 81 64.7614 81 62V28C81 25.2386 78.7614 23 76 23H19C16.2386 23 14 25.2386 14 28V45V62C14 64.7614 16.2386 67 19 67H76ZM32.6 52.8C31.9408 53.2944 31 52.824 31 52V38C31 37.176 31.9408 36.7056 32.6 37.2L41.9333 44.2C42.4667 44.6 42.4667 45.4 41.9333 45.8L32.6 52.8Z" stroke="black" stroke-width="1.5"/>
<path d="M32.6 37.2C31.9408 36.7056 31 37.176 31 38V52C31 52.824 31.9408 53.2944 32.6 52.8L41.9333 45.8C42.4667 45.4 42.4667 44.6 41.9333 44.2L32.6 37.2Z" stroke="black" stroke-width="1.5"/>
<mask id="path-3-outside-1_44_548" maskUnits="userSpaceOnUse" x="51" y="36" width="21" height="17" fill="black">
<rect fill="white" x="51" y="36" width="21" height="17"/>
<path d="M65.775 45.8705C64.925 45.2205 64 44.5288 63 43.7955C62 43.0622 60.975 42.4455 59.925 41.9455V45.8705H65.775ZM70.325 49.5205H59.925V51.3705H56.875V49.5205H53V45.8705H56.875V38.3955H59.6C60.3333 38.7622 61.1583 39.2205 62.075 39.7705C63.0083 40.3205 63.9583 40.9288 64.925 41.5955C65.9083 42.2788 66.8667 42.9955 67.8 43.7455C68.7333 44.4955 69.575 45.2455 70.325 45.9955V49.5205Z"/>
</mask>
<path d="M65.775 45.8705C64.925 45.2205 64 44.5288 63 43.7955C62 43.0622 60.975 42.4455 59.925 41.9455V45.8705H65.775ZM70.325 49.5205H59.925V51.3705H56.875V49.5205H53V45.8705H56.875V38.3955H59.6C60.3333 38.7622 61.1583 39.2205 62.075 39.7705C63.0083 40.3205 63.9583 40.9288 64.925 41.5955C65.9083 42.2788 66.8667 42.9955 67.8 43.7455C68.7333 44.4955 69.575 45.2455 70.325 45.9955V49.5205Z" fill="white"/>
<path d="M65.775 45.8705V47.3705H70.2059L66.6862 44.679L65.775 45.8705ZM63 43.7955L62.113 45.0051H62.113L63 43.7955ZM59.925 41.9455L60.5699 40.5912L58.425 39.5698V41.9455H59.925ZM59.925 45.8705H58.425V47.3705H59.925V45.8705ZM70.325 49.5205V51.0205H71.825V49.5205H70.325ZM59.925 49.5205V48.0205H58.425V49.5205H59.925ZM59.925 51.3705V52.8705H61.425V51.3705H59.925ZM56.875 51.3705H55.375V52.8705H56.875V51.3705ZM56.875 49.5205H58.375V48.0205H56.875V49.5205ZM53 49.5205H51.5V51.0205H53V49.5205ZM53 45.8705V44.3705H51.5V45.8705H53ZM56.875 45.8705V47.3705H58.375V45.8705H56.875ZM56.875 38.3955V36.8955H55.375V38.3955H56.875ZM59.6 38.3955L60.2708 37.0539L59.9541 36.8955H59.6V38.3955ZM62.075 39.7705L61.3032 41.0568L61.3135 41.0628L62.075 39.7705ZM64.925 41.5955L65.781 40.3637L65.7766 40.3607L64.925 41.5955ZM70.325 45.9955H71.825V45.3742L71.3857 44.9348L70.325 45.9955ZM66.6862 44.679C65.8271 44.022 64.8939 43.3243 63.887 42.5859L62.113 45.0051C63.1061 45.7334 64.0229 46.419 64.8638 47.062L66.6862 44.679ZM63.887 42.5859C62.816 41.8005 61.7104 41.1343 60.5699 40.5912L59.2801 43.2998C60.2396 43.7567 61.184 44.3239 62.113 45.0051L63.887 42.5859ZM58.425 41.9455V45.8705H61.425V41.9455H58.425ZM59.925 47.3705H65.775V44.3705H59.925V47.3705ZM70.325 48.0205H59.925V51.0205H70.325V48.0205ZM58.425 49.5205V51.3705H61.425V49.5205H58.425ZM59.925 49.8705H56.875V52.8705H59.925V49.8705ZM58.375 51.3705V49.5205H55.375V51.3705H58.375ZM56.875 48.0205H53V51.0205H56.875V48.0205ZM54.5 49.5205V45.8705H51.5V49.5205H54.5ZM53 47.3705H56.875V44.3705H53V47.3705ZM58.375 45.8705V38.3955H55.375V45.8705H58.375ZM56.875 39.8955H59.6V36.8955H56.875V39.8955ZM58.9292 39.7371C59.6197 40.0824 60.4102 40.5209 61.3033 41.0567L62.8467 38.4843C61.9064 37.9201 61.047 37.4419 60.2708 37.0539L58.9292 39.7371ZM61.3135 41.0628C62.2137 41.5933 63.1337 42.1822 64.0734 42.8303L65.7766 40.3607C64.783 39.6755 63.803 39.0477 62.8365 38.4782L61.3135 41.0628ZM64.069 42.8273C65.0238 43.4908 65.9542 44.1866 66.8604 44.9148L68.7396 42.5762C67.7791 41.8044 66.7929 41.0669 65.781 40.3637L64.069 42.8273ZM66.8604 44.9148C67.7567 45.635 68.5572 46.349 69.2643 47.0562L71.3857 44.9348C70.5928 44.142 69.7099 43.356 68.7396 42.5762L66.8604 44.9148ZM68.825 45.9955V49.5205H71.825V45.9955H68.825Z" fill="black" mask="url(#path-3-outside-1_44_548)"/>
</g>
</svg>
