<svg width="90" height="90" viewBox="0 0 90 90" fill="none" xmlns="http://www.w3.org/2000/svg">
<mask id="mask0_45_589" style="mask-type:alpha" maskUnits="userSpaceOnUse" x="0" y="0" width="90" height="90">
<rect width="90" height="90" fill="#D9D9D9"/>
</mask>
<g mask="url(#mask0_45_589)">
<path fill-rule="evenodd" clip-rule="evenodd" d="M76 67C78.7614 67 81 64.7614 81 62V28C81 25.2386 78.7614 23 76 23H19C16.2386 23 14 25.2386 14 28V45V62C14 64.7614 16.2386 67 19 67H76ZM32.6 52.8C31.9408 53.2944 31 52.824 31 52V38C31 37.176 31.9408 36.7056 32.6 37.2L41.9333 44.2C42.4667 44.6 42.4667 45.4 41.9333 45.8L32.6 52.8Z" fill="#2C59D6"/>
<path d="M32.6 37.2C31.9408 36.7056 31 37.176 31 38V52C31 52.824 31.9408 53.2944 32.6 52.8L41.9333 45.8C42.4667 45.4 42.4667 44.6 41.9333 44.2L32.6 37.2Z" fill="white"/>
<path fill-rule="evenodd" clip-rule="evenodd" d="M76 67C78.7614 67 81 64.7614 81 62V28C81 25.2386 78.7614 23 76 23H19C16.2386 23 14 25.2386 14 28V45V62C14 64.7614 16.2386 67 19 67H76ZM32.6 52.8C31.9408 53.2944 31 52.824 31 52V38C31 37.176 31.9408 36.7056 32.6 37.2L41.9333 44.2C42.4667 44.6 42.4667 45.4 41.9333 45.8L32.6 52.8Z" stroke="black" stroke-width="1.5"/>
<path d="M32.6 37.2C31.9408 36.7056 31 37.176 31 38V52C31 52.824 31.9408 53.2944 32.6 52.8L41.9333 45.8C42.4667 45.4 42.4667 44.6 41.9333 44.2L32.6 37.2Z" stroke="black" stroke-width="1.5"/>
<mask id="path-3-outside-1_45_589" maskUnits="userSpaceOnUse" x="51" y="29" width="21" height="32" fill="black">
<rect fill="white" x="51" y="29" width="21" height="32"/>
<path d="M70.325 31.1797V35.0797H53V31.1797H70.325ZM70.325 39.0898V42.9898H53V39.0898H70.325ZM70.325 47V50.9H53V47H70.325ZM70.325 54.9102V58.8102H53V54.9102H70.325Z"/>
</mask>
<path d="M70.325 31.1797V35.0797H53V31.1797H70.325ZM70.325 39.0898V42.9898H53V39.0898H70.325ZM70.325 47V50.9H53V47H70.325ZM70.325 54.9102V58.8102H53V54.9102H70.325Z" fill="white"/>
<path d="M70.325 31.1797H71.825V29.6797H70.325V31.1797ZM70.325 35.0797V36.5797H71.825V35.0797H70.325ZM53 35.0797H51.5V36.5797H53V35.0797ZM53 31.1797V29.6797H51.5V31.1797H53ZM70.325 31.1797H68.825V35.0797H70.325H71.825V31.1797H70.325ZM70.325 35.0797V33.5797H53V35.0797V36.5797H70.325V35.0797ZM53 35.0797H54.5V31.1797H53H51.5V35.0797H53ZM53 31.1797V32.6797H70.325V31.1797V29.6797H53V31.1797ZM70.325 39.0898H71.825V37.5898H70.325V39.0898ZM70.325 42.9898V44.4898H71.825V42.9898H70.325ZM53 42.9898H51.5V44.4898H53V42.9898ZM53 39.0898V37.5898H51.5V39.0898H53ZM70.325 39.0898H68.825V42.9898H70.325H71.825V39.0898H70.325ZM70.325 42.9898V41.4898H53V42.9898V44.4898H70.325V42.9898ZM53 42.9898H54.5V39.0898H53H51.5V42.9898H53ZM53 39.0898V40.5898H70.325V39.0898V37.5898H53V39.0898ZM70.325 47H71.825V45.5H70.325V47ZM70.325 50.9V52.4H71.825V50.9H70.325ZM53 50.9H51.5V52.4H53V50.9ZM53 47V45.5H51.5V47H53ZM70.325 47H68.825V50.9H70.325H71.825V47H70.325ZM70.325 50.9V49.4H53V50.9V52.4H70.325V50.9ZM53 50.9H54.5V47H53H51.5V50.9H53ZM53 47V48.5H70.325V47V45.5H53V47ZM70.325 54.9102H71.825V53.4102H70.325V54.9102ZM70.325 58.8102V60.3102H71.825V58.8102H70.325ZM53 58.8102H51.5V60.3102H53V58.8102ZM53 54.9102V53.4102H51.5V54.9102H53ZM70.325 54.9102H68.825V58.8102H70.325H71.825V54.9102H70.325ZM70.325 58.8102V57.3102H53V58.8102V60.3102H70.325V58.8102ZM53 58.8102H54.5V54.9102H53H51.5V58.8102H53ZM53 54.9102V56.4102H70.325V54.9102V53.4102H53V54.9102Z" fill="black" mask="url(#path-3-outside-1_45_589)"/>
</g>
</svg>
