<svg width="90" height="90" viewBox="0 0 90 90" fill="none" xmlns="http://www.w3.org/2000/svg">
<mask id="mask0_44_544" style="mask-type:alpha" maskUnits="userSpaceOnUse" x="0" y="0" width="90" height="90">
<rect width="90" height="90" fill="#D9D9D9"/>
</mask>
<g mask="url(#mask0_44_544)">
<path fill-rule="evenodd" clip-rule="evenodd" d="M76 67C78.7614 67 81 64.7614 81 62V28C81 25.2386 78.7614 23 76 23H19C16.2386 23 14 25.2386 14 28V45V62C14 64.7614 16.2386 67 19 67H76ZM32.6 52.8C31.9408 53.2944 31 52.824 31 52V38C31 37.176 31.9408 36.7056 32.6 37.2L41.9333 44.2C42.4667 44.6 42.4667 45.4 41.9333 45.8L32.6 52.8Z" fill="#D6592C"/>
<path d="M32.6 37.2C31.9408 36.7056 31 37.176 31 38V52C31 52.824 31.9408 53.2944 32.6 52.8L41.9333 45.8C42.4667 45.4 42.4667 44.6 41.9333 44.2L32.6 37.2Z" fill="white"/>
<path fill-rule="evenodd" clip-rule="evenodd" d="M76 67C78.7614 67 81 64.7614 81 62V28C81 25.2386 78.7614 23 76 23H19C16.2386 23 14 25.2386 14 28V45V62C14 64.7614 16.2386 67 19 67H76ZM32.6 52.8C31.9408 53.2944 31 52.824 31 52V38C31 37.176 31.9408 36.7056 32.6 37.2L41.9333 44.2C42.4667 44.6 42.4667 45.4 41.9333 45.8L32.6 52.8Z" stroke="black" stroke-width="1.5"/>
<path d="M32.6 37.2C31.9408 36.7056 31 37.176 31 38V52C31 52.824 31.9408 53.2944 32.6 52.8L41.9333 45.8C42.4667 45.4 42.4667 44.6 41.9333 44.2L32.6 37.2Z" stroke="black" stroke-width="1.5"/>
<mask id="path-3-outside-1_44_544" maskUnits="userSpaceOnUse" x="51" y="36" width="22" height="17" fill="black">
<rect fill="white" x="51" y="36" width="22" height="17"/>
<path d="M52.625 43.5955C52.625 43.1455 52.6583 42.6705 52.725 42.1705C52.775 41.6705 52.85 41.1872 52.95 40.7205C53.05 40.2538 53.1583 39.8288 53.275 39.4455C53.3917 39.0622 53.5 38.7622 53.6 38.5455L56.7 39.2705C56.5167 39.7038 56.3167 40.2538 56.1 40.9205C55.9 41.6038 55.8 42.4455 55.8 43.4455C55.8 44.5955 56.0167 45.4372 56.45 45.9705C56.8833 46.5038 57.4667 46.7705 58.2 46.7705C58.65 46.7705 59.025 46.6705 59.325 46.4705C59.6417 46.2872 59.8917 46.0288 60.075 45.6955C60.275 45.3622 60.4083 44.9622 60.475 44.4955C60.5583 44.0455 60.6 43.5622 60.6 43.0455V41.5955H63.6V43.2455C63.6 43.6122 63.6333 43.9622 63.7 44.2955C63.7667 44.6455 63.875 44.9538 64.025 45.2205C64.1917 45.4872 64.4083 45.6955 64.675 45.8455C64.9583 46.0122 65.3083 46.0955 65.725 46.0955C66.0417 46.0955 66.3167 46.0288 66.55 45.8955C66.7833 45.7622 66.975 45.5872 67.125 45.3705C67.275 45.1705 67.3833 44.9288 67.45 44.6455C67.5333 44.3788 67.575 44.1038 67.575 43.8205C67.575 43.1038 67.4667 42.4372 67.25 41.8205C67.0333 41.2205 66.7667 40.6705 66.45 40.1705L69.175 38.8455C69.3417 39.1122 69.5167 39.4205 69.7 39.7705C69.8833 40.1372 70.05 40.5372 70.2 40.9705C70.35 41.4038 70.475 41.8622 70.575 42.3455C70.675 42.8455 70.725 43.3705 70.725 43.9205C70.725 44.9372 70.6 45.8122 70.35 46.5455C70.1167 47.2955 69.775 47.9122 69.325 48.3955C68.8917 48.8788 68.375 49.2372 67.775 49.4705C67.1917 49.7038 66.55 49.8205 65.85 49.8205C65.1667 49.8205 64.5 49.6288 63.85 49.2455C63.2167 48.8622 62.7333 48.3455 62.4 47.6955C62.0333 48.5955 61.4833 49.2872 60.75 49.7705C60.0333 50.2705 59.1667 50.5205 58.15 50.5205C57.35 50.5205 56.6083 50.3872 55.925 50.1205C55.2583 49.8538 54.675 49.4372 54.175 48.8705C53.6917 48.3038 53.3083 47.5788 53.025 46.6955C52.7583 45.8288 52.625 44.7955 52.625 43.5955Z"/>
</mask>
<path d="M52.625 43.5955C52.625 43.1455 52.6583 42.6705 52.725 42.1705C52.775 41.6705 52.85 41.1872 52.95 40.7205C53.05 40.2538 53.1583 39.8288 53.275 39.4455C53.3917 39.0622 53.5 38.7622 53.6 38.5455L56.7 39.2705C56.5167 39.7038 56.3167 40.2538 56.1 40.9205C55.9 41.6038 55.8 42.4455 55.8 43.4455C55.8 44.5955 56.0167 45.4372 56.45 45.9705C56.8833 46.5038 57.4667 46.7705 58.2 46.7705C58.65 46.7705 59.025 46.6705 59.325 46.4705C59.6417 46.2872 59.8917 46.0288 60.075 45.6955C60.275 45.3622 60.4083 44.9622 60.475 44.4955C60.5583 44.0455 60.6 43.5622 60.6 43.0455V41.5955H63.6V43.2455C63.6 43.6122 63.6333 43.9622 63.7 44.2955C63.7667 44.6455 63.875 44.9538 64.025 45.2205C64.1917 45.4872 64.4083 45.6955 64.675 45.8455C64.9583 46.0122 65.3083 46.0955 65.725 46.0955C66.0417 46.0955 66.3167 46.0288 66.55 45.8955C66.7833 45.7622 66.975 45.5872 67.125 45.3705C67.275 45.1705 67.3833 44.9288 67.45 44.6455C67.5333 44.3788 67.575 44.1038 67.575 43.8205C67.575 43.1038 67.4667 42.4372 67.25 41.8205C67.0333 41.2205 66.7667 40.6705 66.45 40.1705L69.175 38.8455C69.3417 39.1122 69.5167 39.4205 69.7 39.7705C69.8833 40.1372 70.05 40.5372 70.2 40.9705C70.35 41.4038 70.475 41.8622 70.575 42.3455C70.675 42.8455 70.725 43.3705 70.725 43.9205C70.725 44.9372 70.6 45.8122 70.35 46.5455C70.1167 47.2955 69.775 47.9122 69.325 48.3955C68.8917 48.8788 68.375 49.2372 67.775 49.4705C67.1917 49.7038 66.55 49.8205 65.85 49.8205C65.1667 49.8205 64.5 49.6288 63.85 49.2455C63.2167 48.8622 62.7333 48.3455 62.4 47.6955C62.0333 48.5955 61.4833 49.2872 60.75 49.7705C60.0333 50.2705 59.1667 50.5205 58.15 50.5205C57.35 50.5205 56.6083 50.3872 55.925 50.1205C55.2583 49.8538 54.675 49.4372 54.175 48.8705C53.6917 48.3038 53.3083 47.5788 53.025 46.6955C52.7583 45.8288 52.625 44.7955 52.625 43.5955Z" fill="white"/>
<path d="M52.725 42.1705L54.2118 42.3688L54.2151 42.3443L54.2176 42.3198L52.725 42.1705ZM52.95 40.7205L54.4167 41.0348L52.95 40.7205ZM53.275 39.4455L54.71 39.8823V39.8822L53.275 39.4455ZM53.6 38.5455L53.9416 37.0849L52.7506 36.8064L52.2381 37.9169L53.6 38.5455ZM56.7 39.2705L58.0815 39.855L58.7751 38.2153L57.0416 37.8099L56.7 39.2705ZM56.1 40.9205L54.6734 40.4569L54.6666 40.4779L54.6604 40.4992L56.1 40.9205ZM56.45 45.9705L57.6142 45.0246L56.45 45.9705ZM59.325 46.4705L58.5734 45.1724L58.5324 45.1961L58.493 45.2224L59.325 46.4705ZM60.075 45.6955L58.7888 44.9238L58.7743 44.9479L58.7607 44.9726L60.075 45.6955ZM60.475 44.4955L59.0001 44.2224L58.9944 44.2528L58.9901 44.2834L60.475 44.4955ZM60.6 41.5955V40.0955H59.1V41.5955H60.6ZM63.6 41.5955H65.1V40.0955H63.6V41.5955ZM63.7 44.2955L65.1736 44.0148L65.1709 44.0013L63.7 44.2955ZM64.025 45.2205L62.7176 45.9559L62.7346 45.9861L62.753 46.0155L64.025 45.2205ZM64.675 45.8455L65.4355 44.5526L65.423 44.5453L65.4104 44.5381L64.675 45.8455ZM66.55 45.8955L67.2942 47.1979L67.2942 47.1979L66.55 45.8955ZM67.125 45.3705L65.925 44.4705L65.9079 44.4933L65.8917 44.5167L67.125 45.3705ZM67.45 44.6455L66.0183 44.1981L66.0022 44.2495L65.9899 44.3019L67.45 44.6455ZM67.25 41.8205L68.6652 41.3233L68.6608 41.311L67.25 41.8205ZM66.45 40.1705L65.7941 38.8215L64.2849 39.5554L65.1828 40.9731L66.45 40.1705ZM69.175 38.8455L70.447 38.0505L69.7321 36.9067L68.5191 37.4965L69.175 38.8455ZM69.7 39.7705L71.0416 39.0997L71.0353 39.087L71.0287 39.0745L69.7 39.7705ZM70.2 40.9705L71.6175 40.4798L70.2 40.9705ZM70.575 42.3455L72.0459 42.0513L72.0439 42.0416L70.575 42.3455ZM70.35 46.5455L68.9302 46.0615L68.9237 46.0806L68.9177 46.0999L70.35 46.5455ZM69.325 48.3955L68.2272 47.3734L68.2176 47.3837L68.2081 47.3942L69.325 48.3955ZM67.775 49.4705L67.2313 48.0725L67.2246 48.0751L67.2179 48.0778L67.775 49.4705ZM63.85 49.2455L63.0733 50.5288L63.0806 50.5332L63.088 50.5376L63.85 49.2455ZM62.4 47.6955L63.7347 47.011L62.2437 44.1035L61.0109 47.1296L62.4 47.6955ZM60.75 49.7705L59.9245 48.5181L59.908 48.529L59.8917 48.5403L60.75 49.7705ZM55.925 50.1205L55.3679 51.5133L55.3797 51.5179L55.925 50.1205ZM54.175 48.8705L53.0337 49.8439L53.0419 49.8535L53.0502 49.8629L54.175 48.8705ZM53.025 46.6955L51.5913 47.1366L51.594 47.1452L51.5967 47.1537L53.025 46.6955ZM54.125 43.5955C54.125 43.2192 54.1529 42.8108 54.2118 42.3688L51.2382 41.9723C51.1638 42.5302 51.125 43.0718 51.125 43.5955H54.125ZM54.2176 42.3198C54.2623 41.8723 54.329 41.4442 54.4167 41.0348L51.4833 40.4062C51.371 40.9301 51.2877 41.4687 51.2324 42.0213L54.2176 42.3198ZM54.4167 41.0348C54.5095 40.6019 54.6077 40.2185 54.71 39.8823L51.84 39.0088C51.709 39.4392 51.5905 39.9058 51.4833 40.4062L54.4167 41.0348ZM54.71 39.8822C54.8182 39.5269 54.9034 39.3009 54.9619 39.1741L52.2381 37.9169C52.0966 38.2234 51.9652 38.5975 51.84 39.0088L54.71 39.8822ZM53.2584 40.0061L56.3584 40.7311L57.0416 37.8099L53.9416 37.0849L53.2584 40.0061ZM55.3185 38.686C55.1125 39.1731 54.8977 39.767 54.6734 40.4569L57.5266 41.3841C57.7357 40.7407 57.9208 40.2346 58.0815 39.855L55.3185 38.686ZM54.6604 40.4992C54.4078 41.3622 54.3 42.3557 54.3 43.4455H57.3C57.3 42.5353 57.3922 41.8455 57.5396 41.3419L54.6604 40.4992ZM54.3 43.4455C54.3 44.7272 54.531 45.9874 55.2858 46.9164L57.6142 45.0246C57.5023 44.887 57.3 44.4638 57.3 43.4455H54.3ZM55.2858 46.9164C56.0252 47.8264 57.0498 48.2705 58.2 48.2705V45.2705C57.8836 45.2705 57.7414 45.1812 57.6142 45.0246L55.2858 46.9164ZM58.2 48.2705C58.8725 48.2705 59.5558 48.1194 60.1571 47.7186L58.493 45.2224C58.4895 45.2247 58.4734 45.2352 58.4323 45.2462C58.389 45.2577 58.3148 45.2705 58.2 45.2705V48.2705ZM60.0766 47.7686C60.6393 47.4428 61.0798 46.9812 61.3893 46.4184L58.7607 44.9726C58.7036 45.0765 58.644 45.1315 58.5734 45.1724L60.0766 47.7686ZM61.3612 46.4673C61.6835 45.9302 61.8709 45.3311 61.9599 44.7076L58.9901 44.2834C58.9458 44.5932 58.8665 44.7942 58.7888 44.9238L61.3612 46.4673ZM61.9499 44.7686C62.0519 44.2179 62.1 43.6423 62.1 43.0455H59.1C59.1 43.4821 59.0648 43.8731 59.0001 44.2224L61.9499 44.7686ZM62.1 43.0455V41.5955H59.1V43.0455H62.1ZM60.6 43.0955H63.6V40.0955H60.6V43.0955ZM62.1 41.5955V43.2455H65.1V41.5955H62.1ZM62.1 43.2455C62.1 43.7033 62.1416 44.1522 62.2291 44.5897L65.1709 44.0013C65.125 43.7721 65.1 43.5211 65.1 43.2455H62.1ZM62.2265 44.5762C62.3187 45.0601 62.4761 45.5265 62.7176 45.9559L65.3324 44.4851C65.2739 44.3811 65.2147 44.2309 65.1735 44.0148L62.2265 44.5762ZM62.753 46.0155C63.049 46.489 63.4477 46.8762 63.9396 47.1529L65.4104 44.5381C65.3689 44.5148 65.3344 44.4853 65.297 44.4255L62.753 46.0155ZM63.9145 47.1384C64.4823 47.4724 65.1114 47.5955 65.725 47.5955V44.5955C65.6157 44.5955 65.5424 44.5845 65.4974 44.5738C65.454 44.5635 65.437 44.5535 65.4355 44.5526L63.9145 47.1384ZM65.725 47.5955C66.2559 47.5955 66.7968 47.4821 67.2942 47.1979L65.8058 44.5931C65.8178 44.5863 65.8232 44.5858 65.8154 44.5877C65.8063 44.5899 65.7782 44.5955 65.725 44.5955V47.5955ZM67.2942 47.1979C67.718 46.9557 68.0782 46.6289 68.3583 46.2243L65.8917 44.5167C65.8718 44.5455 65.8486 44.5687 65.8058 44.5931L67.2942 47.1979ZM68.325 46.2705C68.6179 45.88 68.8038 45.4411 68.9101 44.9891L65.9899 44.3019C65.9629 44.4166 65.9321 44.461 65.925 44.4705L68.325 46.2705ZM68.8817 45.0929C69.011 44.6794 69.075 44.2534 69.075 43.8205H66.075C66.075 43.9543 66.0557 44.0783 66.0183 44.1981L68.8817 45.0929ZM69.075 43.8205C69.075 42.9508 68.9431 42.1144 68.6652 41.3233L65.8348 42.3177C65.9902 42.76 66.075 43.2569 66.075 43.8205H69.075ZM68.6608 41.311C68.41 40.6163 68.0966 39.967 67.7172 39.3679L65.1828 40.9731C65.4367 41.3741 65.6567 41.8247 65.8392 42.33L68.6608 41.311ZM67.1059 41.5195L69.8309 40.1945L68.5191 37.4965L65.7941 38.8215L67.1059 41.5195ZM67.903 39.6405C68.0452 39.868 68.2013 40.1421 68.3713 40.4665L71.0287 39.0745C70.832 38.6989 70.6382 38.3564 70.447 38.0505L67.903 39.6405ZM68.3584 40.4413C68.5093 40.7433 68.6514 41.0824 68.7825 41.4612L71.6175 40.4798C71.4486 39.992 71.2573 39.5311 71.0416 39.0997L68.3584 40.4413ZM68.7825 41.4612C68.9098 41.829 69.0182 42.2246 69.1061 42.6494L72.0439 42.0416C71.9318 41.4997 71.7902 40.9787 71.6175 40.4798L68.7825 41.4612ZM69.1041 42.6397C69.1833 43.0356 69.225 43.4616 69.225 43.9205H72.225C72.225 43.2794 72.1667 42.6554 72.0459 42.0513L69.1041 42.6397ZM69.225 43.9205C69.225 44.821 69.1135 45.524 68.9302 46.0615L71.7698 47.0295C72.0865 46.1003 72.225 45.0534 72.225 43.9205H69.225ZM68.9177 46.0999C68.7387 46.6754 68.4975 47.083 68.2272 47.3734L70.4228 49.4176C71.0525 48.7413 71.4946 47.9157 71.7823 46.9911L68.9177 46.0999ZM68.2081 47.3942C67.9307 47.7036 67.6099 47.9253 67.2313 48.0725L68.3187 50.8685C69.1401 50.5491 69.8526 50.054 70.4419 49.3968L68.2081 47.3942ZM67.2179 48.0778C66.8309 48.2326 66.3809 48.3205 65.85 48.3205V51.3205C66.7191 51.3205 67.5524 51.1751 68.3321 50.8632L67.2179 48.0778ZM65.85 48.3205C65.462 48.3205 65.0559 48.2152 64.612 47.9535L63.088 50.5376C63.9441 51.0424 64.8713 51.3205 65.85 51.3205V48.3205ZM64.6267 47.9623C64.2279 47.7209 63.9394 47.4101 63.7347 47.011L61.0653 48.38C61.5273 49.2809 62.2054 50.0035 63.0733 50.5288L64.6267 47.9623ZM61.0109 47.1296C60.7458 47.7802 60.3783 48.219 59.9245 48.5181L61.5755 51.0229C62.5884 50.3553 63.3209 49.4108 63.7891 48.2615L61.0109 47.1296ZM59.8917 48.5403C59.4661 48.8373 58.9114 49.0205 58.15 49.0205V52.0205C59.422 52.0205 60.6006 51.7037 61.6083 51.0007L59.8917 48.5403ZM58.15 49.0205C57.5196 49.0205 56.9647 48.9161 56.4703 48.7231L55.3797 51.5179C56.252 51.8583 57.1804 52.0205 58.15 52.0205V49.0205ZM56.4821 48.7278C56.0448 48.5529 55.6528 48.2782 55.2998 47.8781L53.0502 49.8629C53.6972 50.5961 54.4718 51.1548 55.3679 51.5132L56.4821 48.7278ZM55.3162 47.8971C54.9892 47.5136 54.6904 46.9765 54.4533 46.2374L51.5967 47.1537C51.9263 48.1811 52.3941 49.094 53.0337 49.8439L55.3162 47.8971ZM54.4587 46.2544C54.2476 45.5683 54.125 44.6912 54.125 43.5955H51.125C51.125 44.8998 51.2691 46.0894 51.5913 47.1366L54.4587 46.2544Z" fill="black" mask="url(#path-3-outside-1_44_544)"/>
</g>
</svg>
