<svg width="90" height="90" viewBox="0 0 90 90" fill="none" xmlns="http://www.w3.org/2000/svg">
<mask id="mask0_78_15" style="mask-type:alpha" maskUnits="userSpaceOnUse" x="0" y="0" width="90" height="90">
<rect width="90" height="90" fill="#D9D9D9"/>
</mask>
<g mask="url(#mask0_78_15)">
<rect x="1" y="33" width="14" height="8" rx="3" fill="white" stroke="black" stroke-width="2"/>
<rect x="1" y="41" width="88" height="8" rx="3" fill="white" stroke="black" stroke-width="2"/>
<path fill-rule="evenodd" clip-rule="evenodd" d="M60.6491 42H44.8867L48.3508 48H64.1133L60.6491 42ZM73.3509 48H86C87.1046 48 88 47.1046 88 46V44C88 42.8954 87.1046 42 86 42H69.8867L73.3509 48ZM19.8868 42H35.6491L39.1132 48H23.3509L19.8868 42ZM10.6491 42H4C2.89543 42 2 42.8954 2 44V46C2 47.1046 2.89543 48 4 48H14.1132L10.6491 42Z" fill="#00FF00"/>
</g>
</svg>
