<svg fill="none" viewBox="0 0 90 90"><mask id="mask0_2053_8" width="90" height="90" x="0" y="0" maskUnits="userSpaceOnUse" style="mask-type:alpha"><path fill="#D9D9D9" d="M0 0h90v90H0z"/></mask><g mask="url(#mask0_2053_8)"><path fill="#CEA738" fill-rule="evenodd" d="M76 67a5 5 0 0 0 5-5V28a5 5 0 0 0-5-5H19a5 5 0 0 0-5 5v34a5 5 0 0 0 5 5h57Z" clip-rule="evenodd"/><path stroke="#000" stroke-width="1.5" d="M76 67a5 5 0 0 0 5-5V28a5 5 0 0 0-5-5H19a5 5 0 0 0-5 5v34a5 5 0 0 0 5 5h57Z" clip-rule="evenodd"/><path fill="#CEA738" fill-rule="evenodd" d="M76 67a5 5 0 0 0 5-5V28a5 5 0 0 0-5-5H42a5 5 0 0 0-5 5v34a5 5 0 0 0 5 5h34ZM62.6 52.8A1 1 0 0 1 61 52V38a1 1 0 0 1 1.6-.8l9.333 7a1 1 0 0 1 0 1.6l-9.333 7Z" clip-rule="evenodd"/><path fill="#FB2C36" d="M62.6 37.2a1 1 0 0 0-1.6.8v14a1 1 0 0 0 1.6.8l9.333-7a1 1 0 0 0 0-1.6l-9.333-7Z"/><path stroke="#000" stroke-width="1.5" d="M76 67a5 5 0 0 0 5-5V28a5 5 0 0 0-5-5H42a5 5 0 0 0-5 5v34a5 5 0 0 0 5 5h34ZM62.6 52.8A1 1 0 0 1 61 52V38a1 1 0 0 1 1.6-.8l9.333 7a1 1 0 0 1 0 1.6l-9.333 7Z" clip-rule="evenodd"/><path stroke="#000" stroke-width="1.5" d="M62.6 37.2a1 1 0 0 0-1.6.8v14a1 1 0 0 0 1.6.8l9.333-7a1 1 0 0 0 0-1.6l-9.333-7Z"/><path fill="#222" fill-rule="evenodd" stroke="#000" stroke-width="1.5" d="M27 64a5 5 0 0 0 5-5V31a5 5 0 0 0-10 0v28a5 5 0 0 0 5 5Z" clip-rule="evenodd"/><path fill="#CEA738" fill-rule="evenodd" stroke="#000" stroke-width="1.5" d="M19.5 64a2.5 2.5 0 0 0 2.5-2.5v-33a2.5 2.5 0 0 0-5 0v33a2.5 2.5 0 0 0 2.5 2.5Z" clip-rule="evenodd"/></g></svg>