<svg width="27" height="42" viewBox="0 0 27 42" fill="none" xmlns="http://www.w3.org/2000/svg">
<path d="M13.5 41C26 41 26 41 26 21H13.5H1C0.999998 41 1 41 13.5 41Z" fill="#D9D9D9"/>
<path d="M13.5 1C1 1.00001 1 0.999998 1 21H13.5V16H12V6H13.5V1Z" fill="#57DD57"/>
<path d="M26 21C26 0.999994 26 0.999993 13.5 1V6H15V16H13.5V21H26Z" fill="#D9D9D9"/>
<path d="M13.5 16H15V6H13.5H12V16H13.5Z" fill="#D9D9D9"/>
<path d="M13.5 1C1 1.00001 1 0.999998 1 21M13.5 1C26 0.999993 26 0.999994 26 21M13.5 1V6M1 21C0.999998 41 1 41 13.5 41C26 41 26 41 26 21M1 21H13.5M26 21H13.5M13.5 21V16M13.5 6H15V16H13.5M13.5 6H12V16H13.5" stroke="black"/>
</svg>
