<svg width="90" height="90" viewBox="0 0 90 90" fill="none" xmlns="http://www.w3.org/2000/svg">
<mask id="mask0_43_341" style="mask-type:alpha" maskUnits="userSpaceOnUse" x="0" y="0" width="90" height="90">
<rect width="90" height="90" fill="#D9D9D9"/>
</mask>
<g mask="url(#mask0_43_341)">
<rect x="12.3481" y="23.8674" width="47.5" height="11.5" transform="rotate(75 12.3481 23.8674)" fill="#8F8555" stroke="black" stroke-width="1.5"/>
<rect x="12.7279" y="0.353556" width="71.5" height="17.5" transform="rotate(45 12.7279 0.353556)" fill="#8F8555" stroke="black" stroke-width="1.5"/>
<rect x="-50.9117" y="-63.2861" width="71.5" height="17.5" transform="rotate(45 -50.9117 -63.2861)" fill="#8F8555" stroke="black" stroke-width="1.5"/>
<rect x="26.8438" y="1.23993" width="47.5" height="11.5" transform="rotate(15 26.8438 1.23993)" fill="#8F8555" stroke="black" stroke-width="1.5"/>
<mask id="path-6-outside-1_43_341" maskUnits="userSpaceOnUse" x="-37" y="-37" width="74" height="74" fill="black">
<rect fill="white" x="-37" y="-37" width="74" height="74"/>
<path fill-rule="evenodd" clip-rule="evenodd" d="M0 35C19.33 35 35 19.33 35 0C35 -19.33 19.33 -35 0 -35C-19.33 -35 -35 -19.33 -35 0C-35 19.33 -19.33 35 0 35ZM0 25C13.8071 25 25 13.8071 25 0C25 -13.8071 13.8071 -25 0 -25C-13.8071 -25 -25 -13.8071 -25 0C-25 13.8071 -13.8071 25 0 25Z"/>
</mask>
<path fill-rule="evenodd" clip-rule="evenodd" d="M0 35C19.33 35 35 19.33 35 0C35 -19.33 19.33 -35 0 -35C-19.33 -35 -35 -19.33 -35 0C-35 19.33 -19.33 35 0 35ZM0 25C13.8071 25 25 13.8071 25 0C25 -13.8071 13.8071 -25 0 -25C-13.8071 -25 -25 -13.8071 -25 0C-25 13.8071 -13.8071 25 0 25Z" fill="#E2F5FF"/>
<path d="M33.5 0C33.5 18.5015 18.5015 33.5 0 33.5V36.5C20.1584 36.5 36.5 20.1584 36.5 0H33.5ZM0 -33.5C18.5015 -33.5 33.5 -18.5015 33.5 0H36.5C36.5 -20.1584 20.1584 -36.5 0 -36.5V-33.5ZM-33.5 0C-33.5 -18.5015 -18.5015 -33.5 0 -33.5V-36.5C-20.1584 -36.5 -36.5 -20.1584 -36.5 0H-33.5ZM0 33.5C-18.5015 33.5 -33.5 18.5015 -33.5 0H-36.5C-36.5 20.1584 -20.1584 36.5 0 36.5V33.5ZM23.5 0C23.5 12.9787 12.9787 23.5 0 23.5V26.5C14.6355 26.5 26.5 14.6355 26.5 0H23.5ZM0 -23.5C12.9787 -23.5 23.5 -12.9787 23.5 0H26.5C26.5 -14.6355 14.6355 -26.5 0 -26.5V-23.5ZM-23.5 0C-23.5 -12.9787 -12.9787 -23.5 0 -23.5V-26.5C-14.6355 -26.5 -26.5 -14.6355 -26.5 0H-23.5ZM0 23.5C-12.9787 23.5 -23.5 12.9787 -23.5 0H-26.5C-26.5 14.6355 -14.6355 26.5 0 26.5V23.5Z" fill="black" mask="url(#path-6-outside-1_43_341)"/>
<mask id="path-8-outside-2_43_341" maskUnits="userSpaceOnUse" x="-67" y="-67" width="134" height="134" fill="black">
<rect fill="white" x="-67" y="-67" width="134" height="134"/>
<path fill-rule="evenodd" clip-rule="evenodd" d="M0 65C35.8985 65 65 35.8985 65 0C65 -35.8985 35.8985 -65 0 -65C-35.8985 -65 -65 -35.8985 -65 0C-65 35.8985 -35.8985 65 0 65ZM0 55C30.3757 55 55 30.3757 55 0C55 -30.3757 30.3757 -55 0 -55C-30.3757 -55 -55 -30.3757 -55 0C-55 30.3757 -30.3757 55 0 55Z"/>
</mask>
<path fill-rule="evenodd" clip-rule="evenodd" d="M0 65C35.8985 65 65 35.8985 65 0C65 -35.8985 35.8985 -65 0 -65C-35.8985 -65 -65 -35.8985 -65 0C-65 35.8985 -35.8985 65 0 65ZM0 55C30.3757 55 55 30.3757 55 0C55 -30.3757 30.3757 -55 0 -55C-30.3757 -55 -55 -30.3757 -55 0C-55 30.3757 -30.3757 55 0 55Z" fill="#E2F5FF"/>
<path d="M63.5 0C63.5 35.0701 35.0701 63.5 0 63.5V66.5C36.7269 66.5 66.5 36.7269 66.5 0H63.5ZM0 -63.5C35.0701 -63.5 63.5 -35.0701 63.5 0H66.5C66.5 -36.7269 36.7269 -66.5 0 -66.5V-63.5ZM-63.5 0C-63.5 -35.0701 -35.0701 -63.5 0 -63.5V-66.5C-36.7269 -66.5 -66.5 -36.7269 -66.5 0H-63.5ZM0 63.5C-35.0701 63.5 -63.5 35.0701 -63.5 0H-66.5C-66.5 36.7269 -36.7269 66.5 0 66.5V63.5ZM53.5 0C53.5 29.5472 29.5472 53.5 0 53.5V56.5C31.2041 56.5 56.5 31.2041 56.5 0H53.5ZM0 -53.5C29.5472 -53.5 53.5 -29.5472 53.5 0H56.5C56.5 -31.2041 31.2041 -56.5 0 -56.5V-53.5ZM-53.5 0C-53.5 -29.5472 -29.5472 -53.5 0 -53.5V-56.5C-31.2041 -56.5 -56.5 -31.2041 -56.5 0H-53.5ZM0 53.5C-29.5472 53.5 -53.5 29.5472 -53.5 0H-56.5C-56.5 31.2041 -31.2041 56.5 0 56.5V53.5Z" fill="black" mask="url(#path-8-outside-2_43_341)"/>
</g>
</svg>
