<svg width="90" height="90" viewBox="0 0 90 90" fill="none" xmlns="http://www.w3.org/2000/svg">
<mask id="mask0_2571_10" style="mask-type:alpha" maskUnits="userSpaceOnUse" x="0" y="0" width="90" height="90">
<rect width="90" height="90" fill="#D9D9D9"/>
</mask>
<g mask="url(#mask0_2571_10)">
<rect x="1.25" y="18.25" width="87.5" height="53.5" rx="5.75" fill="#E2F5FF" stroke="black" stroke-width="1.5"/>
<rect x="5.25" y="22.25" width="79.5" height="45.5" rx="1.75" fill="#E2F5FF" stroke="black" stroke-width="1.5"/>
<rect x="9.25" y="25.25" width="25.5" height="5.5" rx="1.75" fill="#2C59D6" stroke="black" stroke-width="1.5"/>
<path d="M59.087 24.25C69.4423 24.25 77.837 32.6447 77.837 43C77.837 53.3553 69.4423 61.75 59.087 61.75C48.7316 61.75 40.337 53.3553 40.337 43C40.337 32.6447 48.7316 24.25 59.087 24.25Z" fill="#2C59D6" stroke="black" stroke-width="1.5"/>
<mask id="path-6-outside-1_2571_10" maskUnits="userSpaceOnUse" x="48.3261" y="35" width="22" height="16" fill="black">
<rect fill="white" x="48.3261" y="35" width="22" height="16"/>
<path d="M50.6079 36.526H53.4159V49H50.6079V36.526ZM58.1032 36.526H60.9112V49H58.1032V36.526ZM65.5985 36.526H68.4065V49H65.5985V36.526Z"/>
</mask>
<path d="M50.6079 36.526H53.4159V49H50.6079V36.526ZM58.1032 36.526H60.9112V49H58.1032V36.526ZM65.5985 36.526H68.4065V49H65.5985V36.526Z" fill="white"/>
<path d="M50.6079 36.526V35.026H49.1079V36.526H50.6079ZM53.4159 36.526H54.9159V35.026H53.4159V36.526ZM53.4159 49V50.5H54.9159V49H53.4159ZM50.6079 49H49.1079V50.5H50.6079V49ZM50.6079 36.526V38.026H53.4159V36.526V35.026H50.6079V36.526ZM53.4159 36.526H51.9159V49H53.4159H54.9159V36.526H53.4159ZM53.4159 49V47.5H50.6079V49V50.5H53.4159V49ZM50.6079 49H52.1079V36.526H50.6079H49.1079V49H50.6079ZM58.1032 36.526V35.026H56.6032V36.526H58.1032ZM60.9112 36.526H62.4112V35.026H60.9112V36.526ZM60.9112 49V50.5H62.4112V49H60.9112ZM58.1032 49H56.6032V50.5H58.1032V49ZM58.1032 36.526V38.026H60.9112V36.526V35.026H58.1032V36.526ZM60.9112 36.526H59.4112V49H60.9112H62.4112V36.526H60.9112ZM60.9112 49V47.5H58.1032V49V50.5H60.9112V49ZM58.1032 49H59.6032V36.526H58.1032H56.6032V49H58.1032ZM65.5985 36.526V35.026H64.0985V36.526H65.5985ZM68.4065 36.526H69.9065V35.026H68.4065V36.526ZM68.4065 49V50.5H69.9065V49H68.4065ZM65.5985 49H64.0985V50.5H65.5985V49ZM65.5985 36.526V38.026H68.4065V36.526V35.026H65.5985V36.526ZM68.4065 36.526H66.9065V49H68.4065H69.9065V36.526H68.4065ZM68.4065 49V47.5H65.5985V49V50.5H68.4065V49ZM65.5985 49H67.0985V36.526H65.5985H64.0985V49H65.5985Z" fill="black" mask="url(#path-6-outside-1_2571_10)"/>
</g>
</svg>
