<svg width="90" height="90" viewBox="0 0 90 90" fill="none" xmlns="http://www.w3.org/2000/svg">
<mask id="mask0_2571_10" style="mask-type:alpha" maskUnits="userSpaceOnUse" x="0" y="0" width="90" height="90">
<rect width="90" height="90" fill="#D9D9D9"/>
</mask>
<g mask="url(#mask0_2571_10)">
<rect x="1.25" y="18.25" width="87.5" height="53.5" rx="5.75" fill="#E2F5FF" stroke="black" stroke-width="1.5"/>
<rect x="5.25" y="22.25" width="79.5" height="45.5" rx="1.75" fill="#E2F5FF" stroke="black" stroke-width="1.5"/>
<rect x="9.25" y="25.25" width="25.5" height="5.5" rx="1.75" fill="#2C59D6" stroke="black" stroke-width="1.5"/>
<path d="M59.087 24.25C69.4423 24.25 77.837 32.6447 77.837 43C77.837 53.3553 69.4423 61.75 59.087 61.75C48.7316 61.75 40.337 53.3553 40.337 43C40.337 32.6447 48.7316 24.25 59.087 24.25Z" fill="#2C59D6" stroke="black" stroke-width="1.5"/>
<mask id="path-6-outside-1_2571_10" maskUnits="userSpaceOnUse" x="56.3261" y="35" width="7" height="16" fill="black">
<rect fill="white" x="56.3261" y="35" width="7" height="16"/>
<path d="M58.1032 36.526H60.9112V49H58.1032V36.526Z"/>
</mask>
<path d="M58.1032 36.526H60.9112V49H58.1032V36.526Z" fill="white"/>
<path d="M58.1032 36.526V35.026H56.6032V36.526H58.1032ZM60.9112 36.526H62.4112V35.026H60.9112V36.526ZM60.9112 49V50.5H62.4112V49H60.9112ZM58.1032 49H56.6032V50.5H58.1032V49ZM58.1032 36.526V38.026H60.9112V36.526V35.026H58.1032V36.526ZM60.9112 36.526H59.4112V49H60.9112H62.4112V36.526H60.9112ZM60.9112 49V47.5H58.1032V49V50.5H60.9112V49ZM58.1032 49H59.6032V36.526H58.1032H56.6032V49H58.1032Z" fill="black" mask="url(#path-6-outside-1_2571_10)"/>
</g>
</svg>
