<svg width="90" height="90" viewBox="0 0 90 90" fill="none" xmlns="http://www.w3.org/2000/svg">
<mask id="mask0_2571_10" style="mask-type:alpha" maskUnits="userSpaceOnUse" x="0" y="0" width="90" height="90">
<rect width="90" height="90" fill="#D9D9D9"/>
</mask>
<g mask="url(#mask0_2571_10)">
<rect x="1.25" y="18.25" width="87.5" height="53.5" rx="5.75" fill="#E2F5FF" stroke="black" stroke-width="1.5"/>
<rect x="5.25" y="22.25" width="79.5" height="45.5" rx="1.75" fill="#E2F5FF" stroke="black" stroke-width="1.5"/>
<rect x="9.25" y="25.25" width="25.5" height="5.5" rx="1.75" fill="#2C59D6" stroke="black" stroke-width="1.5"/>
<path d="M59.087 24.25C69.4423 24.25 77.837 32.6447 77.837 43C77.837 53.3553 69.4423 61.75 59.087 61.75C48.7316 61.75 40.337 53.3553 40.337 43C40.337 32.6447 48.7316 24.25 59.087 24.25Z" fill="#2C59D6" stroke="black" stroke-width="1.5"/>
<mask id="path-6-outside-1_2571_10" maskUnits="userSpaceOnUse" x="45.3261" y="35" width="29" height="16" fill="black">
<rect fill="white" x="45.3261" y="35" width="29" height="16"/>
<path d="M46.8602 36.526H49.6682V49H46.8602V36.526ZM54.3556 36.526H57.1636V49H54.3556V36.526ZM61.8509 36.526H64.6589V49H61.8509V36.526ZM69.3462 36.526H72.1542V49H69.3462V36.526Z"/>
</mask>
<path d="M46.8602 36.526H49.6682V49H46.8602V36.526ZM54.3556 36.526H57.1636V49H54.3556V36.526ZM61.8509 36.526H64.6589V49H61.8509V36.526ZM69.3462 36.526H72.1542V49H69.3462V36.526Z" fill="white"/>
<path d="M46.8602 36.526V35.026H45.3602V36.526H46.8602ZM49.6682 36.526H51.1682V35.026H49.6682V36.526ZM49.6682 49V50.5H51.1682V49H49.6682ZM46.8602 49H45.3602V50.5H46.8602V49ZM46.8602 36.526V38.026H49.6682V36.526V35.026H46.8602V36.526ZM49.6682 36.526H48.1682V49H49.6682H51.1682V36.526H49.6682ZM49.6682 49V47.5H46.8602V49V50.5H49.6682V49ZM46.8602 49H48.3602V36.526H46.8602H45.3602V49H46.8602ZM54.3556 36.526V35.026H52.8556V36.526H54.3556ZM57.1636 36.526H58.6636V35.026H57.1636V36.526ZM57.1636 49V50.5H58.6636V49H57.1636ZM54.3556 49H52.8556V50.5H54.3556V49ZM54.3556 36.526V38.026H57.1636V36.526V35.026H54.3556V36.526ZM57.1636 36.526H55.6636V49H57.1636H58.6636V36.526H57.1636ZM57.1636 49V47.5H54.3556V49V50.5H57.1636V49ZM54.3556 49H55.8556V36.526H54.3556H52.8556V49H54.3556ZM61.8509 36.526V35.026H60.3509V36.526H61.8509ZM64.6589 36.526H66.1589V35.026H64.6589V36.526ZM64.6589 49V50.5H66.1589V49H64.6589ZM61.8509 49H60.3509V50.5H61.8509V49ZM61.8509 36.526V38.026H64.6589V36.526V35.026H61.8509V36.526ZM64.6589 36.526H63.1589V49H64.6589H66.1589V36.526H64.6589ZM64.6589 49V47.5H61.8509V49V50.5H64.6589V49ZM61.8509 49H63.3509V36.526H61.8509H60.3509V49H61.8509ZM69.3462 36.526V35.026H67.8462V36.526H69.3462ZM72.1542 36.526H73.6542V35.026H72.1542V36.526ZM72.1542 49V50.5H73.6542V49H72.1542ZM69.3462 49H67.8462V50.5H69.3462V49ZM69.3462 36.526V38.026H72.1542V36.526V35.026H69.3462V36.526ZM72.1542 36.526H70.6542V49H72.1542H73.6542V36.526H72.1542ZM72.1542 49V47.5H69.3462V49V50.5H72.1542V49ZM69.3462 49H70.8462V36.526H69.3462H67.8462V49H69.3462Z" fill="black" mask="url(#path-6-outside-1_2571_10)"/>
</g>
</svg>
