<svg width="90" height="90" viewBox="0 0 90 90" fill="none" xmlns="http://www.w3.org/2000/svg">
<mask id="mask0_80_90" style="mask-type:alpha" maskUnits="userSpaceOnUse" x="0" y="0" width="90" height="90">
<rect x="90" width="90" height="90" transform="rotate(90 90 0)" fill="#D9D9D9"/>
</mask>
<g mask="url(#mask0_80_90)">
<rect x="57" y="1" width="14" height="8" rx="3" transform="rotate(90 57 1)" fill="#FFFF5B" stroke="black" stroke-width="2"/>
<rect x="49" y="1" width="14" height="8" rx="3" transform="rotate(90 49 1)" fill="#FFFF5B" stroke="black" stroke-width="2"/>
<rect x="49" y="1" width="56" height="8" rx="3" transform="rotate(90 49 1)" fill="black" stroke="black" stroke-width="2"/>
<path fill-rule="evenodd" clip-rule="evenodd" d="M48 32.185V23.3509L42 26.815V35.6491L48 32.185ZM42 51.815V54C42 55.1046 42.8954 56 44 56H46C47.1046 56 48 55.1046 48 54V48.3509L42 51.815ZM48 4V7.18504L42 10.6491V4C42 2.89543 42.8954 2 44 2L46 2C47.1046 2 48 2.89543 48 4Z" fill="#FFFF5B"/>
<rect x="65" y="64" width="10" height="6" rx="3" transform="rotate(90 65 64)" fill="#FF3939" stroke="black" stroke-width="2"/>
<rect x="65" y="78" width="10" height="6" rx="3" transform="rotate(90 65 78)" fill="#FF3939" stroke="black" stroke-width="2"/>
<rect x="61" y="63" width="26" height="8" rx="3" transform="rotate(90 61 63)" fill="#66503D" stroke="black" stroke-width="2"/>
</g>
</svg>
