<svg width="90" height="90" viewBox="0 0 90 90" fill="none" xmlns="http://www.w3.org/2000/svg">
<mask id="mask0_80_90" style="mask-type:alpha" maskUnits="userSpaceOnUse" x="0" y="0" width="90" height="90">
<rect width="90" height="90" fill="#D9D9D9"/>
</mask>
<g mask="url(#mask0_80_90)">
<rect x="1" y="33" width="14" height="8" rx="3" fill="#FFFF5B" stroke="black" stroke-width="2"/>
<rect x="1" y="41" width="56" height="8" rx="3" fill="black" stroke="black" stroke-width="2"/>
<path fill-rule="evenodd" clip-rule="evenodd" d="M32.185 42H23.3509L26.815 48H35.6491L32.185 42ZM51.815 48H54C55.1046 48 56 47.1046 56 46V44C56 42.8954 55.1046 42 54 42H48.3509L51.815 48ZM4 42H7.18504L10.6491 48H4C2.89543 48 2 47.1046 2 46V44C2 42.8954 2.89543 42 4 42Z" fill="#FFFF5B"/>
<rect x="64" y="25" width="10" height="6" rx="3" fill="#FF3939" stroke="black" stroke-width="2"/>
<rect x="78" y="25" width="10" height="6" rx="3" fill="#FF3939" stroke="black" stroke-width="2"/>
<rect x="63" y="29" width="26" height="8" rx="3" fill="#66503D" stroke="black" stroke-width="2"/>
</g>
</svg>
