<svg width="90" height="90" viewBox="0 0 90 90" fill="none" xmlns="http://www.w3.org/2000/svg">
<mask id="mask0_2084_71" style="mask-type:alpha" maskUnits="userSpaceOnUse" x="0" y="0" width="90" height="90">
<rect width="90" height="90" fill="#D9D9D9"/>
</mask>
<g mask="url(#mask0_2084_71)">
<rect x="1.25" y="18.25" width="87.5" height="53.5" rx="5.75" fill="#E2F5FF" stroke="black" stroke-width="1.5"/>
<rect x="5.25" y="22.25" width="79.5" height="45.5" rx="1.75" fill="#E2F5FF" stroke="black" stroke-width="1.5"/>
<rect x="9.25" y="25.25" width="25.5" height="5.5" rx="1.75" fill="#D6592C" stroke="black" stroke-width="1.5"/>
<rect x="38.25" y="24.25" width="43.5" height="31.5" rx="1.75" fill="#D6592C" stroke="black" stroke-width="1.5"/>
<mask id="path-6-outside-1_2084_71" maskUnits="userSpaceOnUse" x="53" y="32" width="13" height="17" fill="black">
<rect fill="white" x="53" y="32" width="13" height="17"/>
<path d="M63.8128 37.802C63.8128 38.258 63.7228 38.696 63.5428 39.116C63.3628 39.536 63.1288 39.944 62.8408 40.34C62.5528 40.724 62.2288 41.096 61.8688 41.456C61.5088 41.816 61.1548 42.158 60.8068 42.482C60.6268 42.65 60.4288 42.842 60.2128 43.058C60.0088 43.262 59.8108 43.472 59.6188 43.688C59.4268 43.904 59.2528 44.108 59.0968 44.3C58.9528 44.48 58.8628 44.63 58.8268 44.75H64.1908V47H55.8748C55.8508 46.868 55.8388 46.7 55.8388 46.496C55.8388 46.292 55.8388 46.148 55.8388 46.064C55.8388 45.488 55.9288 44.96 56.1088 44.48C56.3008 44 56.5468 43.556 56.8468 43.148C57.1468 42.728 57.4828 42.338 57.8548 41.978C58.2388 41.618 58.6168 41.258 58.9888 40.898C59.2768 40.622 59.5468 40.364 59.7988 40.124C60.0508 39.872 60.2728 39.632 60.4648 39.404C60.6568 39.164 60.8068 38.93 60.9148 38.702C61.0228 38.462 61.0768 38.222 61.0768 37.982C61.0768 37.454 60.9268 37.082 60.6268 36.866C60.3268 36.65 59.9548 36.542 59.5108 36.542C59.1868 36.542 58.8808 36.596 58.5928 36.704C58.3168 36.8 58.0588 36.92 57.8188 37.064C57.5908 37.196 57.3928 37.334 57.2248 37.478C57.0568 37.61 56.9308 37.718 56.8468 37.802L55.5148 35.93C56.0428 35.438 56.6548 35.036 57.3508 34.724C58.0588 34.4 58.8148 34.238 59.6188 34.238C60.3508 34.238 60.9808 34.322 61.5088 34.49C62.0368 34.658 62.4688 34.898 62.8048 35.21C63.1528 35.51 63.4048 35.882 63.5608 36.326C63.7288 36.758 63.8128 37.25 63.8128 37.802Z"/>
</mask>
<path d="M63.8128 37.802C63.8128 38.258 63.7228 38.696 63.5428 39.116C63.3628 39.536 63.1288 39.944 62.8408 40.34C62.5528 40.724 62.2288 41.096 61.8688 41.456C61.5088 41.816 61.1548 42.158 60.8068 42.482C60.6268 42.65 60.4288 42.842 60.2128 43.058C60.0088 43.262 59.8108 43.472 59.6188 43.688C59.4268 43.904 59.2528 44.108 59.0968 44.3C58.9528 44.48 58.8628 44.63 58.8268 44.75H64.1908V47H55.8748C55.8508 46.868 55.8388 46.7 55.8388 46.496C55.8388 46.292 55.8388 46.148 55.8388 46.064C55.8388 45.488 55.9288 44.96 56.1088 44.48C56.3008 44 56.5468 43.556 56.8468 43.148C57.1468 42.728 57.4828 42.338 57.8548 41.978C58.2388 41.618 58.6168 41.258 58.9888 40.898C59.2768 40.622 59.5468 40.364 59.7988 40.124C60.0508 39.872 60.2728 39.632 60.4648 39.404C60.6568 39.164 60.8068 38.93 60.9148 38.702C61.0228 38.462 61.0768 38.222 61.0768 37.982C61.0768 37.454 60.9268 37.082 60.6268 36.866C60.3268 36.65 59.9548 36.542 59.5108 36.542C59.1868 36.542 58.8808 36.596 58.5928 36.704C58.3168 36.8 58.0588 36.92 57.8188 37.064C57.5908 37.196 57.3928 37.334 57.2248 37.478C57.0568 37.61 56.9308 37.718 56.8468 37.802L55.5148 35.93C56.0428 35.438 56.6548 35.036 57.3508 34.724C58.0588 34.4 58.8148 34.238 59.6188 34.238C60.3508 34.238 60.9808 34.322 61.5088 34.49C62.0368 34.658 62.4688 34.898 62.8048 35.21C63.1528 35.51 63.4048 35.882 63.5608 36.326C63.7288 36.758 63.8128 37.25 63.8128 37.802Z" fill="white"/>
<path d="M63.5428 39.116L64.9215 39.7069L64.9215 39.7069L63.5428 39.116ZM62.8408 40.34L64.0408 41.24L64.0474 41.2312L64.0539 41.2223L62.8408 40.34ZM60.8068 42.482L59.7846 41.3842L59.7833 41.3854L60.8068 42.482ZM60.2128 43.058L59.1521 41.9973L59.1521 41.9973L60.2128 43.058ZM59.6188 43.688L58.4977 42.6915L58.4977 42.6915L59.6188 43.688ZM59.0968 44.3L57.9326 43.3541L57.9255 43.363L59.0968 44.3ZM58.8268 44.75L57.39 44.319L56.8107 46.25H58.8268V44.75ZM64.1908 44.75H65.6908V43.25H64.1908V44.75ZM64.1908 47V48.5H65.6908V47H64.1908ZM55.8748 47L54.399 47.2683L54.6229 48.5H55.8748V47ZM56.1088 44.48L54.7161 43.9229L54.71 43.9381L54.7043 43.9533L56.1088 44.48ZM56.8468 43.148L58.0552 44.0366L58.0614 44.0283L58.0674 44.0199L56.8468 43.148ZM57.8548 41.978L56.8289 40.8837L56.8202 40.8918L56.8116 40.9001L57.8548 41.978ZM58.9888 40.898L57.9509 39.815L57.9456 39.8201L58.9888 40.898ZM59.7988 40.124L60.8332 41.2102L60.8465 41.1976L60.8594 41.1847L59.7988 40.124ZM60.4648 39.404L61.6121 40.3702L61.6243 40.3558L61.6361 40.341L60.4648 39.404ZM60.9148 38.702L62.2704 39.3441L62.2766 39.3309L62.2826 39.3175L60.9148 38.702ZM58.5928 36.704L59.0855 38.1207L59.1026 38.1148L59.1195 38.1085L58.5928 36.704ZM57.8188 37.064L58.5703 38.3621L58.5805 38.3563L58.5905 38.3502L57.8188 37.064ZM57.2248 37.478L58.1515 38.6575L58.1767 38.6377L58.201 38.6169L57.2248 37.478ZM56.8468 37.802L55.6246 38.6716L56.653 40.117L57.9074 38.8627L56.8468 37.802ZM55.5148 35.93L54.4922 34.8326L53.5305 35.7287L54.2926 36.7996L55.5148 35.93ZM57.3508 34.724L57.9644 36.0928L57.975 36.088L57.3508 34.724ZM61.5088 34.49L61.9636 33.0606L61.9636 33.0606L61.5088 34.49ZM62.8048 35.21L61.7841 36.3092L61.8044 36.328L61.8254 36.3461L62.8048 35.21ZM63.5608 36.326L62.1456 36.8232L62.1538 36.8466L62.1628 36.8697L63.5608 36.326ZM63.8128 37.802H62.3128C62.3128 38.0544 62.2642 38.2914 62.164 38.5251L63.5428 39.116L64.9215 39.7069C65.1813 39.1006 65.3128 38.4616 65.3128 37.802H63.8128ZM63.5428 39.116L62.164 38.5251C62.0312 38.8351 61.8544 39.1459 61.6277 39.4577L62.8408 40.34L64.0539 41.2223C64.4031 40.7421 64.6943 40.2369 64.9215 39.7069L63.5428 39.116ZM62.8408 40.34L61.6408 39.44C61.3978 39.7639 61.1209 40.0825 60.8081 40.3953L61.8688 41.456L62.9294 42.5167C63.3366 42.1095 63.7077 41.6841 64.0408 41.24L62.8408 40.34ZM61.8688 41.456L60.8081 40.3953C60.4598 40.7436 60.1187 41.0731 59.7846 41.3842L60.8068 42.482L61.8289 43.5798C62.1908 43.2429 62.5577 42.8884 62.9294 42.5167L61.8688 41.456ZM60.8068 42.482L59.7833 41.3854C59.5881 41.5676 59.3775 41.7719 59.1521 41.9973L60.2128 43.058L61.2734 44.1187C61.48 43.9121 61.6654 43.7324 61.8302 43.5786L60.8068 42.482ZM60.2128 43.058L59.1521 41.9973C58.9273 42.2222 58.7091 42.4535 58.4977 42.6915L59.6188 43.688L60.7399 44.6845C60.9124 44.4905 61.0902 44.3018 61.2734 44.1187L60.2128 43.058ZM59.6188 43.688L58.4977 42.6915C58.2933 42.9213 58.1047 43.1423 57.9326 43.3541L59.0968 44.3L60.2609 45.2459C60.4009 45.0737 60.5602 44.8867 60.7399 44.6845L59.6188 43.688ZM59.0968 44.3L57.9255 43.363C57.7451 43.5885 57.5098 43.9196 57.39 44.319L58.8268 44.75L60.2635 45.181C60.2482 45.2321 60.2326 45.2686 60.2232 45.2887C60.2182 45.2993 60.2142 45.307 60.2116 45.3118C60.2091 45.3167 60.2076 45.3192 60.2075 45.3192C60.2074 45.3193 60.2086 45.3175 60.2111 45.3136C60.2136 45.3098 60.2174 45.3042 60.2225 45.297C60.2329 45.2824 60.2477 45.2625 60.2681 45.237L59.0968 44.3ZM58.8268 44.75V46.25H64.1908V44.75V43.25H58.8268V44.75ZM64.1908 44.75H62.6908V47H64.1908H65.6908V44.75H64.1908ZM64.1908 47V45.5H55.8748V47V48.5H64.1908V47ZM55.8748 47L57.3506 46.7317C57.3506 46.7318 57.3497 46.7267 57.3483 46.7155C57.347 46.7044 57.3454 46.6888 57.344 46.6681C57.341 46.6262 57.3388 46.5695 57.3388 46.496H55.8388H54.3388C54.3388 46.7487 54.3529 47.0148 54.399 47.2683L55.8748 47ZM55.8388 46.496H57.3388C57.3388 46.4956 57.3388 46.4952 57.3388 46.4948C57.3388 46.4944 57.3388 46.494 57.3388 46.4936C57.3388 46.4932 57.3388 46.4928 57.3388 46.4924C57.3388 46.492 57.3388 46.4916 57.3388 46.4912C57.3388 46.4908 57.3388 46.4904 57.3388 46.49C57.3388 46.4896 57.3388 46.4892 57.3388 46.4889C57.3388 46.4885 57.3388 46.4881 57.3388 46.4877C57.3388 46.4873 57.3388 46.4869 57.3388 46.4865C57.3388 46.4861 57.3388 46.4857 57.3388 46.4853C57.3388 46.4849 57.3388 46.4845 57.3388 46.4841C57.3388 46.4837 57.3388 46.4833 57.3388 46.4829C57.3388 46.4825 57.3388 46.4821 57.3388 46.4818C57.3388 46.4814 57.3388 46.481 57.3388 46.4806C57.3388 46.4802 57.3388 46.4798 57.3388 46.4794C57.3388 46.479 57.3388 46.4786 57.3388 46.4782C57.3388 46.4778 57.3388 46.4774 57.3388 46.4771C57.3388 46.4767 57.3388 46.4763 57.3388 46.4759C57.3388 46.4755 57.3388 46.4751 57.3388 46.4747C57.3388 46.4743 57.3388 46.4739 57.3388 46.4735C57.3388 46.4731 57.3388 46.4728 57.3388 46.4724C57.3388 46.472 57.3388 46.4716 57.3388 46.4712C57.3388 46.4708 57.3388 46.4704 57.3388 46.47C57.3388 46.4696 57.3388 46.4693 57.3388 46.4689C57.3388 46.4685 57.3388 46.4681 57.3388 46.4677C57.3388 46.4673 57.3388 46.4669 57.3388 46.4665C57.3388 46.4662 57.3388 46.4658 57.3388 46.4654C57.3388 46.465 57.3388 46.4646 57.3388 46.4642C57.3388 46.4638 57.3388 46.4635 57.3388 46.4631C57.3388 46.4627 57.3388 46.4623 57.3388 46.4619C57.3388 46.4615 57.3388 46.4611 57.3388 46.4608C57.3388 46.4604 57.3388 46.46 57.3388 46.4596C57.3388 46.4592 57.3388 46.4588 57.3388 46.4585C57.3388 46.4581 57.3388 46.4577 57.3388 46.4573C57.3388 46.4569 57.3388 46.4565 57.3388 46.4562C57.3388 46.4558 57.3388 46.4554 57.3388 46.455C57.3388 46.4546 57.3388 46.4542 57.3388 46.4539C57.3388 46.4535 57.3388 46.4531 57.3388 46.4527C57.3388 46.4523 57.3388 46.452 57.3388 46.4516C57.3388 46.4512 57.3388 46.4508 57.3388 46.4504C57.3388 46.45 57.3388 46.4497 57.3388 46.4493C57.3388 46.4489 57.3388 46.4485 57.3388 46.4481C57.3388 46.4478 57.3388 46.4474 57.3388 46.447C57.3388 46.4466 57.3388 46.4462 57.3388 46.4459C57.3388 46.4455 57.3388 46.4451 57.3388 46.4447C57.3388 46.4444 57.3388 46.444 57.3388 46.4436C57.3388 46.4432 57.3388 46.4428 57.3388 46.4425C57.3388 46.4421 57.3388 46.4417 57.3388 46.4413C57.3388 46.441 57.3388 46.4406 57.3388 46.4402C57.3388 46.4398 57.3388 46.4395 57.3388 46.4391C57.3388 46.4387 57.3388 46.4383 57.3388 46.438C57.3388 46.4376 57.3388 46.4372 57.3388 46.4368C57.3388 46.4364 57.3388 46.4361 57.3388 46.4357C57.3388 46.4353 57.3388 46.435 57.3388 46.4346C57.3388 46.4342 57.3388 46.4338 57.3388 46.4335C57.3388 46.4331 57.3388 46.4327 57.3388 46.4323C57.3388 46.432 57.3388 46.4316 57.3388 46.4312C57.3388 46.4308 57.3388 46.4305 57.3388 46.4301C57.3388 46.4297 57.3388 46.4294 57.3388 46.429C57.3388 46.4286 57.3388 46.4282 57.3388 46.4279C57.3388 46.4275 57.3388 46.4271 57.3388 46.4268C57.3388 46.4264 57.3388 46.426 57.3388 46.4256C57.3388 46.4253 57.3388 46.4249 57.3388 46.4245C57.3388 46.4242 57.3388 46.4238 57.3388 46.4234C57.3388 46.4231 57.3388 46.4227 57.3388 46.4223C57.3388 46.4219 57.3388 46.4216 57.3388 46.4212C57.3388 46.4208 57.3388 46.4205 57.3388 46.4201C57.3388 46.4197 57.3388 46.4194 57.3388 46.419C57.3388 46.4186 57.3388 46.4183 57.3388 46.4179C57.3388 46.4175 57.3388 46.4172 57.3388 46.4168C57.3388 46.4164 57.3388 46.4161 57.3388 46.4157C57.3388 46.4153 57.3388 46.415 57.3388 46.4146C57.3388 46.4142 57.3388 46.4139 57.3388 46.4135C57.3388 46.4131 57.3388 46.4128 57.3388 46.4124C57.3388 46.412 57.3388 46.4117 57.3388 46.4113C57.3388 46.4109 57.3388 46.4106 57.3388 46.4102C57.3388 46.4098 57.3388 46.4095 57.3388 46.4091C57.3388 46.4088 57.3388 46.4084 57.3388 46.408C57.3388 46.4077 57.3388 46.4073 57.3388 46.4069C57.3388 46.4066 57.3388 46.4062 57.3388 46.4059C57.3388 46.4055 57.3388 46.4051 57.3388 46.4048C57.3388 46.4044 57.3388 46.404 57.3388 46.4037C57.3388 46.4033 57.3388 46.403 57.3388 46.4026C57.3388 46.4022 57.3388 46.4019 57.3388 46.4015C57.3388 46.4012 57.3388 46.4008 57.3388 46.4004C57.3388 46.4001 57.3388 46.3997 57.3388 46.3994C57.3388 46.399 57.3388 46.3986 57.3388 46.3983C57.3388 46.3979 57.3388 46.3976 57.3388 46.3972C57.3388 46.3968 57.3388 46.3965 57.3388 46.3961C57.3388 46.3958 57.3388 46.3954 57.3388 46.3951C57.3388 46.3947 57.3388 46.3943 57.3388 46.394C57.3388 46.3936 57.3388 46.3933 57.3388 46.3929C57.3388 46.3926 57.3388 46.3922 57.3388 46.3918C57.3388 46.3915 57.3388 46.3911 57.3388 46.3908C57.3388 46.3904 57.3388 46.3901 57.3388 46.3897C57.3388 46.3894 57.3388 46.389 57.3388 46.3886C57.3388 46.3883 57.3388 46.3879 57.3388 46.3876C57.3388 46.3872 57.3388 46.3869 57.3388 46.3865C57.3388 46.3862 57.3388 46.3858 57.3388 46.3855C57.3388 46.3851 57.3388 46.3847 57.3388 46.3844C57.3388 46.384 57.3388 46.3837 57.3388 46.3833C57.3388 46.383 57.3388 46.3826 57.3388 46.3823C57.3388 46.3819 57.3388 46.3816 57.3388 46.3812C57.3388 46.3809 57.3388 46.3805 57.3388 46.3802C57.3388 46.3798 57.3388 46.3795 57.3388 46.3791C57.3388 46.3788 57.3388 46.3784 57.3388 46.3781C57.3388 46.3777 57.3388 46.3774 57.3388 46.377C57.3388 46.3767 57.3388 46.3763 57.3388 46.376C57.3388 46.3756 57.3388 46.3753 57.3388 46.3749C57.3388 46.3746 57.3388 46.3742 57.3388 46.3739C57.3388 46.3735 57.3388 46.3732 57.3388 46.3728C57.3388 46.3725 57.3388 46.3721 57.3388 46.3718C57.3388 46.3714 57.3388 46.3711 57.3388 46.3707C57.3388 46.3704 57.3388 46.37 57.3388 46.3697C57.3388 46.3694 57.3388 46.369 57.3388 46.3687C57.3388 46.3683 57.3388 46.368 57.3388 46.3676C57.3388 46.3673 57.3388 46.3669 57.3388 46.3666C57.3388 46.3662 57.3388 46.3659 57.3388 46.3655C57.3388 46.3652 57.3388 46.3649 57.3388 46.3645C57.3388 46.3642 57.3388 46.3638 57.3388 46.3635C57.3388 46.3631 57.3388 46.3628 57.3388 46.3625C57.3388 46.3621 57.3388 46.3618 57.3388 46.3614C57.3388 46.3611 57.3388 46.3607 57.3388 46.3604C57.3388 46.36 57.3388 46.3597 57.3388 46.3594C57.3388 46.359 57.3388 46.3587 57.3388 46.3583C57.3388 46.358 57.3388 46.3577 57.3388 46.3573C57.3388 46.357 57.3388 46.3566 57.3388 46.3563C57.3388 46.356 57.3388 46.3556 57.3388 46.3553C57.3388 46.3549 57.3388 46.3546 57.3388 46.3542C57.3388 46.3539 57.3388 46.3536 57.3388 46.3532C57.3388 46.3529 57.3388 46.3526 57.3388 46.3522C57.3388 46.3519 57.3388 46.3515 57.3388 46.3512C57.3388 46.3509 57.3388 46.3505 57.3388 46.3502C57.3388 46.3498 57.3388 46.3495 57.3388 46.3492C57.3388 46.3488 57.3388 46.3485 57.3388 46.3482C57.3388 46.3478 57.3388 46.3475 57.3388 46.3471C57.3388 46.3468 57.3388 46.3465 57.3388 46.3461C57.3388 46.3458 57.3388 46.3455 57.3388 46.3451C57.3388 46.3448 57.3388 46.3445 57.3388 46.3441C57.3388 46.3438 57.3388 46.3435 57.3388 46.3431C57.3388 46.3428 57.3388 46.3424 57.3388 46.3421C57.3388 46.3418 57.3388 46.3414 57.3388 46.3411C57.3388 46.3408 57.3388 46.3404 57.3388 46.3401C57.3388 46.3398 57.3388 46.3394 57.3388 46.3391C57.3388 46.3388 57.3388 46.3384 57.3388 46.3381C57.3388 46.3378 57.3388 46.3374 57.3388 46.3371C57.3388 46.3368 57.3388 46.3365 57.3388 46.3361C57.3388 46.3358 57.3388 46.3355 57.3388 46.3351C57.3388 46.3348 57.3388 46.3345 57.3388 46.3341C57.3388 46.3338 57.3388 46.3335 57.3388 46.3331C57.3388 46.3328 57.3388 46.3325 57.3388 46.3322C57.3388 46.3318 57.3388 46.3315 57.3388 46.3312C57.3388 46.3308 57.3388 46.3305 57.3388 46.3302C57.3388 46.3298 57.3388 46.3295 57.3388 46.3292C57.3388 46.3289 57.3388 46.3285 57.3388 46.3282C57.3388 46.3279 57.3388 46.3276 57.3388 46.3272C57.3388 46.3269 57.3388 46.3266 57.3388 46.3262C57.3388 46.3259 57.3388 46.3256 57.3388 46.3253C57.3388 46.3249 57.3388 46.3246 57.3388 46.3243C57.3388 46.324 57.3388 46.3236 57.3388 46.3233C57.3388 46.323 57.3388 46.3227 57.3388 46.3223C57.3388 46.322 57.3388 46.3217 57.3388 46.3214C57.3388 46.321 57.3388 46.3207 57.3388 46.3204C57.3388 46.3201 57.3388 46.3197 57.3388 46.3194C57.3388 46.3191 57.3388 46.3188 57.3388 46.3184C57.3388 46.3181 57.3388 46.3178 57.3388 46.3175C57.3388 46.3171 57.3388 46.3168 57.3388 46.3165C57.3388 46.3162 57.3388 46.3159 57.3388 46.3155C57.3388 46.3152 57.3388 46.3149 57.3388 46.3146C57.3388 46.3142 57.3388 46.3139 57.3388 46.3136C57.3388 46.3133 57.3388 46.313 57.3388 46.3126C57.3388 46.3123 57.3388 46.312 57.3388 46.3117C57.3388 46.3114 57.3388 46.311 57.3388 46.3107C57.3388 46.3104 57.3388 46.3101 57.3388 46.3098C57.3388 46.3094 57.3388 46.3091 57.3388 46.3088C57.3388 46.3085 57.3388 46.3082 57.3388 46.3078C57.3388 46.3075 57.3388 46.3072 57.3388 46.3069C57.3388 46.3066 57.3388 46.3063 57.3388 46.3059C57.3388 46.3056 57.3388 46.3053 57.3388 46.305C57.3388 46.3047 57.3388 46.3044 57.3388 46.304C57.3388 46.3037 57.3388 46.3034 57.3388 46.3031C57.3388 46.3028 57.3388 46.3025 57.3388 46.3021C57.3388 46.3018 57.3388 46.3015 57.3388 46.3012C57.3388 46.3009 57.3388 46.3006 57.3388 46.3003C57.3388 46.2999 57.3388 46.2996 57.3388 46.2993C57.3388 46.299 57.3388 46.2987 57.3388 46.2984C57.3388 46.2981 57.3388 46.2977 57.3388 46.2974C57.3388 46.2971 57.3388 46.2968 57.3388 46.2965C57.3388 46.2962 57.3388 46.2959 57.3388 46.2956C57.3388 46.2952 57.3388 46.2949 57.3388 46.2946C57.3388 46.2943 57.3388 46.294 57.3388 46.2937C57.3388 46.2934 57.3388 46.2931 57.3388 46.2927C57.3388 46.2924 57.3388 46.2921 57.3388 46.2918C57.3388 46.2915 57.3388 46.2912 57.3388 46.2909C57.3388 46.2906 57.3388 46.2903 57.3388 46.29C57.3388 46.2896 57.3388 46.2893 57.3388 46.289C57.3388 46.2887 57.3388 46.2884 57.3388 46.2881C57.3388 46.2878 57.3388 46.2875 57.3388 46.2872C57.3388 46.2869 57.3388 46.2866 57.3388 46.2862C57.3388 46.2859 57.3388 46.2856 57.3388 46.2853C57.3388 46.285 57.3388 46.2847 57.3388 46.2844C57.3388 46.2841 57.3388 46.2838 57.3388 46.2835C57.3388 46.2832 57.3388 46.2829 57.3388 46.2826C57.3388 46.2823 57.3388 46.282 57.3388 46.2816C57.3388 46.2813 57.3388 46.281 57.3388 46.2807C57.3388 46.2804 57.3388 46.2801 57.3388 46.2798C57.3388 46.2795 57.3388 46.2792 57.3388 46.2789C57.3388 46.2786 57.3388 46.2783 57.3388 46.278C57.3388 46.2777 57.3388 46.2774 57.3388 46.2771C57.3388 46.2768 57.3388 46.2765 57.3388 46.2762C57.3388 46.2759 57.3388 46.2756 57.3388 46.2753C57.3388 46.275 57.3388 46.2747 57.3388 46.2744C57.3388 46.2741 57.3388 46.2738 57.3388 46.2735C57.3388 46.2732 57.3388 46.2729 57.3388 46.2726C57.3388 46.2722 57.3388 46.2719 57.3388 46.2716C57.3388 46.2713 57.3388 46.271 57.3388 46.2707C57.3388 46.2704 57.3388 46.2701 57.3388 46.2698C57.3388 46.2695 57.3388 46.2692 57.3388 46.269C57.3388 46.2687 57.3388 46.2684 57.3388 46.2681C57.3388 46.2678 57.3388 46.2675 57.3388 46.2672C57.3388 46.2669 57.3388 46.2666 57.3388 46.2663C57.3388 46.266 57.3388 46.2657 57.3388 46.2654C57.3388 46.2651 57.3388 46.2648 57.3388 46.2645C57.3388 46.2642 57.3388 46.2639 57.3388 46.2636C57.3388 46.2633 57.3388 46.263 57.3388 46.2627C57.3388 46.2624 57.3388 46.2621 57.3388 46.2618C57.3388 46.2615 57.3388 46.2612 57.3388 46.2609C57.3388 46.2606 57.3388 46.2603 57.3388 46.26C57.3388 46.2598 57.3388 46.2595 57.3388 46.2592C57.3388 46.2589 57.3388 46.2586 57.3388 46.2583C57.3388 46.258 57.3388 46.2577 57.3388 46.2574C57.3388 46.2571 57.3388 46.2568 57.3388 46.2565C57.3388 46.2562 57.3388 46.2559 57.3388 46.2556C57.3388 46.2554 57.3388 46.2551 57.3388 46.2548C57.3388 46.2545 57.3388 46.2542 57.3388 46.2539C57.3388 46.2536 57.3388 46.2533 57.3388 46.253C57.3388 46.2527 57.3388 46.2524 57.3388 46.2521C57.3388 46.2519 57.3388 46.2516 57.3388 46.2513C57.3388 46.251 57.3388 46.2507 57.3388 46.2504C57.3388 46.2501 57.3388 46.2498 57.3388 46.2495C57.3388 46.2493 57.3388 46.249 57.3388 46.2487C57.3388 46.2484 57.3388 46.2481 57.3388 46.2478C57.3388 46.2475 57.3388 46.2472 57.3388 46.2469C57.3388 46.2467 57.3388 46.2464 57.3388 46.2461C57.3388 46.2458 57.3388 46.2455 57.3388 46.2452C57.3388 46.2449 57.3388 46.2447 57.3388 46.2444C57.3388 46.2441 57.3388 46.2438 57.3388 46.2435C57.3388 46.2432 57.3388 46.2429 57.3388 46.2426C57.3388 46.2424 57.3388 46.2421 57.3388 46.2418C57.3388 46.2415 57.3388 46.2412 57.3388 46.2409C57.3388 46.2407 57.3388 46.2404 57.3388 46.2401C57.3388 46.2398 57.3388 46.2395 57.3388 46.2392C57.3388 46.239 57.3388 46.2387 57.3388 46.2384C57.3388 46.2381 57.3388 46.2378 57.3388 46.2375C57.3388 46.2373 57.3388 46.237 57.3388 46.2367C57.3388 46.2364 57.3388 46.2361 57.3388 46.2358C57.3388 46.2356 57.3388 46.2353 57.3388 46.235C57.3388 46.2347 57.3388 46.2344 57.3388 46.2342C57.3388 46.2339 57.3388 46.2336 57.3388 46.2333C57.3388 46.233 57.3388 46.2328 57.3388 46.2325C57.3388 46.2322 57.3388 46.2319 57.3388 46.2316C57.3388 46.2314 57.3388 46.2311 57.3388 46.2308C57.3388 46.2305 57.3388 46.2302 57.3388 46.23C57.3388 46.2297 57.3388 46.2294 57.3388 46.2291C57.3388 46.2288 57.3388 46.2286 57.3388 46.2283C57.3388 46.228 57.3388 46.2277 57.3388 46.2275C57.3388 46.2272 57.3388 46.2269 57.3388 46.2266C57.3388 46.2264 57.3388 46.2261 57.3388 46.2258C57.3388 46.2255 57.3388 46.2252 57.3388 46.225C57.3388 46.2247 57.3388 46.2244 57.3388 46.2241C57.3388 46.2239 57.3388 46.2236 57.3388 46.2233C57.3388 46.223 57.3388 46.2228 57.3388 46.2225C57.3388 46.2222 57.3388 46.2219 57.3388 46.2217C57.3388 46.2214 57.3388 46.2211 57.3388 46.2209C57.3388 46.2206 57.3388 46.2203 57.3388 46.22C57.3388 46.2198 57.3388 46.2195 57.3388 46.2192C57.3388 46.2189 57.3388 46.2187 57.3388 46.2184C57.3388 46.2181 57.3388 46.2179 57.3388 46.2176C57.3388 46.2173 57.3388 46.217 57.3388 46.2168C57.3388 46.2165 57.3388 46.2162 57.3388 46.216C57.3388 46.2157 57.3388 46.2154 57.3388 46.2151C57.3388 46.2149 57.3388 46.2146 57.3388 46.2143C57.3388 46.2141 57.3388 46.2138 57.3388 46.2135C57.3388 46.2133 57.3388 46.213 57.3388 46.2127C57.3388 46.2125 57.3388 46.2122 57.3388 46.2119C57.3388 46.2116 57.3388 46.2114 57.3388 46.2111C57.3388 46.2108 57.3388 46.2106 57.3388 46.2103C57.3388 46.21 57.3388 46.2098 57.3388 46.2095C57.3388 46.2092 57.3388 46.209 57.3388 46.2087C57.3388 46.2084 57.3388 46.2082 57.3388 46.2079C57.3388 46.2076 57.3388 46.2074 57.3388 46.2071C57.3388 46.2068 57.3388 46.2066 57.3388 46.2063C57.3388 46.206 57.3388 46.2058 57.3388 46.2055C57.3388 46.2053 57.3388 46.205 57.3388 46.2047C57.3388 46.2045 57.3388 46.2042 57.3388 46.2039C57.3388 46.2037 57.3388 46.2034 57.3388 46.2031C57.3388 46.2029 57.3388 46.2026 57.3388 46.2023C57.3388 46.2021 57.3388 46.2018 57.3388 46.2016C57.3388 46.2013 57.3388 46.201 57.3388 46.2008C57.3388 46.2005 57.3388 46.2002 57.3388 46.2C57.3388 46.1997 57.3388 46.1995 57.3388 46.1992C57.3388 46.1989 57.3388 46.1987 57.3388 46.1984C57.3388 46.1982 57.3388 46.1979 57.3388 46.1976C57.3388 46.1974 57.3388 46.1971 57.3388 46.1969C57.3388 46.1966 57.3388 46.1963 57.3388 46.1961C57.3388 46.1958 57.3388 46.1956 57.3388 46.1953C57.3388 46.195 57.3388 46.1948 57.3388 46.1945C57.3388 46.1943 57.3388 46.194 57.3388 46.1938C57.3388 46.1935 57.3388 46.1932 57.3388 46.193C57.3388 46.1927 57.3388 46.1925 57.3388 46.1922C57.3388 46.192 57.3388 46.1917 57.3388 46.1914C57.3388 46.1912 57.3388 46.1909 57.3388 46.1907C57.3388 46.1904 57.3388 46.1902 57.3388 46.1899C57.3388 46.1896 57.3388 46.1894 57.3388 46.1891C57.3388 46.1889 57.3388 46.1886 57.3388 46.1884C57.3388 46.1881 57.3388 46.1879 57.3388 46.1876C57.3388 46.1874 57.3388 46.1871 57.3388 46.1868C57.3388 46.1866 57.3388 46.1863 57.3388 46.1861C57.3388 46.1858 57.3388 46.1856 57.3388 46.1853C57.3388 46.1851 57.3388 46.1848 57.3388 46.1846C57.3388 46.1843 57.3388 46.1841 57.3388 46.1838C57.3388 46.1836 57.3388 46.1833 57.3388 46.1831C57.3388 46.1828 57.3388 46.1826 57.3388 46.1823C57.3388 46.1821 57.3388 46.1818 57.3388 46.1816C57.3388 46.1813 57.3388 46.1811 57.3388 46.1808C57.3388 46.1805 57.3388 46.1803 57.3388 46.1801C57.3388 46.1798 57.3388 46.1796 57.3388 46.1793C57.3388 46.1791 57.3388 46.1788 57.3388 46.1786C57.3388 46.1783 57.3388 46.1781 57.3388 46.1778C57.3388 46.1776 57.3388 46.1773 57.3388 46.1771C57.3388 46.1768 57.3388 46.1766 57.3388 46.1763C57.3388 46.1761 57.3388 46.1758 57.3388 46.1756C57.3388 46.1753 57.3388 46.1751 57.3388 46.1748C57.3388 46.1746 57.3388 46.1743 57.3388 46.1741C57.3388 46.1739 57.3388 46.1736 57.3388 46.1734C57.3388 46.1731 57.3388 46.1729 57.3388 46.1726C57.3388 46.1724 57.3388 46.1721 57.3388 46.1719C57.3388 46.1716 57.3388 46.1714 57.3388 46.1712C57.3388 46.1709 57.3388 46.1707 57.3388 46.1704C57.3388 46.1702 57.3388 46.1699 57.3388 46.1697C57.3388 46.1695 57.3388 46.1692 57.3388 46.169C57.3388 46.1687 57.3388 46.1685 57.3388 46.1682C57.3388 46.168 57.3388 46.1678 57.3388 46.1675C57.3388 46.1673 57.3388 46.167 57.3388 46.1668C57.3388 46.1665 57.3388 46.1663 57.3388 46.1661C57.3388 46.1658 57.3388 46.1656 57.3388 46.1653C57.3388 46.1651 57.3388 46.1649 57.3388 46.1646C57.3388 46.1644 57.3388 46.1641 57.3388 46.1639C57.3388 46.1637 57.3388 46.1634 57.3388 46.1632C57.3388 46.1629 57.3388 46.1627 57.3388 46.1625C57.3388 46.1622 57.3388 46.162 57.3388 46.1618C57.3388 46.1615 57.3388 46.1613 57.3388 46.161C57.3388 46.1608 57.3388 46.1606 57.3388 46.1603C57.3388 46.1601 57.3388 46.1599 57.3388 46.1596C57.3388 46.1594 57.3388 46.1591 57.3388 46.1589C57.3388 46.1587 57.3388 46.1584 57.3388 46.1582C57.3388 46.158 57.3388 46.1577 57.3388 46.1575C57.3388 46.1573 57.3388 46.157 57.3388 46.1568C57.3388 46.1566 57.3388 46.1563 57.3388 46.1561C57.3388 46.1558 57.3388 46.1556 57.3388 46.1554C57.3388 46.1551 57.3388 46.1549 57.3388 46.1547C57.3388 46.1544 57.3388 46.1542 57.3388 46.154C57.3388 46.1537 57.3388 46.1535 57.3388 46.1533C57.3388 46.153 57.3388 46.1528 57.3388 46.1526C57.3388 46.1523 57.3388 46.1521 57.3388 46.1519C57.3388 46.1517 57.3388 46.1514 57.3388 46.1512C57.3388 46.151 57.3388 46.1507 57.3388 46.1505C57.3388 46.1503 57.3388 46.15 57.3388 46.1498C57.3388 46.1496 57.3388 46.1493 57.3388 46.1491C57.3388 46.1489 57.3388 46.1487 57.3388 46.1484C57.3388 46.1482 57.3388 46.148 57.3388 46.1477C57.3388 46.1475 57.3388 46.1473 57.3388 46.147C57.3388 46.1468 57.3388 46.1466 57.3388 46.1464C57.3388 46.1461 57.3388 46.1459 57.3388 46.1457C57.3388 46.1455 57.3388 46.1452 57.3388 46.145C57.3388 46.1448 57.3388 46.1445 57.3388 46.1443C57.3388 46.1441 57.3388 46.1439 57.3388 46.1436C57.3388 46.1434 57.3388 46.1432 57.3388 46.143C57.3388 46.1427 57.3388 46.1425 57.3388 46.1423C57.3388 46.1421 57.3388 46.1418 57.3388 46.1416C57.3388 46.1414 57.3388 46.1412 57.3388 46.1409C57.3388 46.1407 57.3388 46.1405 57.3388 46.1403C57.3388 46.14 57.3388 46.1398 57.3388 46.1396C57.3388 46.1394 57.3388 46.1391 57.3388 46.1389C57.3388 46.1387 57.3388 46.1385 57.3388 46.1382C57.3388 46.138 57.3388 46.1378 57.3388 46.1376C57.3388 46.1374 57.3388 46.1371 57.3388 46.1369C57.3388 46.1367 57.3388 46.1365 57.3388 46.1363C57.3388 46.136 57.3388 46.1358 57.3388 46.1356C57.3388 46.1354 57.3388 46.1351 57.3388 46.1349C57.3388 46.1347 57.3388 46.1345 57.3388 46.1343C57.3388 46.134 57.3388 46.1338 57.3388 46.1336C57.3388 46.1334 57.3388 46.1332 57.3388 46.133C57.3388 46.1327 57.3388 46.1325 57.3388 46.1323C57.3388 46.1321 57.3388 46.1319 57.3388 46.1316C57.3388 46.1314 57.3388 46.1312 57.3388 46.131C57.3388 46.1308 57.3388 46.1306 57.3388 46.1303C57.3388 46.1301 57.3388 46.1299 57.3388 46.1297C57.3388 46.1295 57.3388 46.1292 57.3388 46.129C57.3388 46.1288 57.3388 46.1286 57.3388 46.1284C57.3388 46.1282 57.3388 46.128 57.3388 46.1277C57.3388 46.1275 57.3388 46.1273 57.3388 46.1271C57.3388 46.1269 57.3388 46.1267 57.3388 46.1264C57.3388 46.1262 57.3388 46.126 57.3388 46.1258C57.3388 46.1256 57.3388 46.1254 57.3388 46.1252C57.3388 46.125 57.3388 46.1247 57.3388 46.1245C57.3388 46.1243 57.3388 46.1241 57.3388 46.1239C57.3388 46.1237 57.3388 46.1235 57.3388 46.1232C57.3388 46.123 57.3388 46.1228 57.3388 46.1226C57.3388 46.1224 57.3388 46.1222 57.3388 46.122C57.3388 46.1218 57.3388 46.1216 57.3388 46.1213C57.3388 46.1211 57.3388 46.1209 57.3388 46.1207C57.3388 46.1205 57.3388 46.1203 57.3388 46.1201C57.3388 46.1199 57.3388 46.1197 57.3388 46.1195C57.3388 46.1192 57.3388 46.119 57.3388 46.1188C57.3388 46.1186 57.3388 46.1184 57.3388 46.1182C57.3388 46.118 57.3388 46.1178 57.3388 46.1176C57.3388 46.1174 57.3388 46.1172 57.3388 46.117C57.3388 46.1167 57.3388 46.1165 57.3388 46.1163C57.3388 46.1161 57.3388 46.1159 57.3388 46.1157C57.3388 46.1155 57.3388 46.1153 57.3388 46.1151C57.3388 46.1149 57.3388 46.1147 57.3388 46.1145C57.3388 46.1143 57.3388 46.1141 57.3388 46.1139C57.3388 46.1137 57.3388 46.1134 57.3388 46.1132C57.3388 46.113 57.3388 46.1128 57.3388 46.1126C57.3388 46.1124 57.3388 46.1122 57.3388 46.112C57.3388 46.1118 57.3388 46.1116 57.3388 46.1114C57.3388 46.1112 57.3388 46.111 57.3388 46.1108C57.3388 46.1106 57.3388 46.1104 57.3388 46.1102C57.3388 46.11 57.3388 46.1098 57.3388 46.1096C57.3388 46.1094 57.3388 46.1092 57.3388 46.109C57.3388 46.1088 57.3388 46.1086 57.3388 46.1084C57.3388 46.1082 57.3388 46.108 57.3388 46.1078C57.3388 46.1076 57.3388 46.1074 57.3388 46.1072C57.3388 46.107 57.3388 46.1068 57.3388 46.1066C57.3388 46.1064 57.3388 46.1062 57.3388 46.106C57.3388 46.1058 57.3388 46.1056 57.3388 46.1054C57.3388 46.1052 57.3388 46.105 57.3388 46.1048C57.3388 46.1046 57.3388 46.1044 57.3388 46.1042C57.3388 46.104 57.3388 46.1038 57.3388 46.1036C57.3388 46.1034 57.3388 46.1032 57.3388 46.103C57.3388 46.1028 57.3388 46.1026 57.3388 46.1024C57.3388 46.1022 57.3388 46.102 57.3388 46.1018C57.3388 46.1016 57.3388 46.1014 57.3388 46.1012C57.3388 46.101 57.3388 46.1008 57.3388 46.1006C57.3388 46.1004 57.3388 46.1003 57.3388 46.1001C57.3388 46.0999 57.3388 46.0997 57.3388 46.0995C57.3388 46.0993 57.3388 46.0991 57.3388 46.0989C57.3388 46.0987 57.3388 46.0985 57.3388 46.0983C57.3388 46.0981 57.3388 46.0979 57.3388 46.0977C57.3388 46.0975 57.3388 46.0973 57.3388 46.0972C57.3388 46.097 57.3388 46.0968 57.3388 46.0966C57.3388 46.0964 57.3388 46.0962 57.3388 46.096C57.3388 46.0958 57.3388 46.0956 57.3388 46.0954C57.3388 46.0952 57.3388 46.095 57.3388 46.0949C57.3388 46.0947 57.3388 46.0945 57.3388 46.0943C57.3388 46.0941 57.3388 46.0939 57.3388 46.0937C57.3388 46.0935 57.3388 46.0933 57.3388 46.0931C57.3388 46.093 57.3388 46.0928 57.3388 46.0926C57.3388 46.0924 57.3388 46.0922 57.3388 46.092C57.3388 46.0918 57.3388 46.0916 57.3388 46.0915C57.3388 46.0913 57.3388 46.0911 57.3388 46.0909C57.3388 46.0907 57.3388 46.0905 57.3388 46.0903C57.3388 46.0901 57.3388 46.09 57.3388 46.0898C57.3388 46.0896 57.3388 46.0894 57.3388 46.0892C57.3388 46.089 57.3388 46.0888 57.3388 46.0886C57.3388 46.0885 57.3388 46.0883 57.3388 46.0881C57.3388 46.0879 57.3388 46.0877 57.3388 46.0875C57.3388 46.0874 57.3388 46.0872 57.3388 46.087C57.3388 46.0868 57.3388 46.0866 57.3388 46.0864C57.3388 46.0862 57.3388 46.0861 57.3388 46.0859C57.3388 46.0857 57.3388 46.0855 57.3388 46.0853C57.3388 46.0852 57.3388 46.085 57.3388 46.0848C57.3388 46.0846 57.3388 46.0844 57.3388 46.0842C57.3388 46.0841 57.3388 46.0839 57.3388 46.0837C57.3388 46.0835 57.3388 46.0833 57.3388 46.0832C57.3388 46.083 57.3388 46.0828 57.3388 46.0826C57.3388 46.0824 57.3388 46.0822 57.3388 46.0821C57.3388 46.0819 57.3388 46.0817 57.3388 46.0815C57.3388 46.0813 57.3388 46.0812 57.3388 46.081C57.3388 46.0808 57.3388 46.0806 57.3388 46.0805C57.3388 46.0803 57.3388 46.0801 57.3388 46.0799C57.3388 46.0797 57.3388 46.0796 57.3388 46.0794C57.3388 46.0792 57.3388 46.079 57.3388 46.0789C57.3388 46.0787 57.3388 46.0785 57.3388 46.0783C57.3388 46.0781 57.3388 46.078 57.3388 46.0778C57.3388 46.0776 57.3388 46.0774 57.3388 46.0773C57.3388 46.0771 57.3388 46.0769 57.3388 46.0767C57.3388 46.0766 57.3388 46.0764 57.3388 46.0762C57.3388 46.076 57.3388 46.0759 57.3388 46.0757C57.3388 46.0755 57.3388 46.0753 57.3388 46.0752C57.3388 46.075 57.3388 46.0748 57.3388 46.0746C57.3388 46.0745 57.3388 46.0743 57.3388 46.0741C57.3388 46.0739 57.3388 46.0738 57.3388 46.0736C57.3388 46.0734 57.3388 46.0733 57.3388 46.0731C57.3388 46.0729 57.3388 46.0727 57.3388 46.0726C57.3388 46.0724 57.3388 46.0722 57.3388 46.0721C57.3388 46.0719 57.3388 46.0717 57.3388 46.0715C57.3388 46.0714 57.3388 46.0712 57.3388 46.071C57.3388 46.0709 57.3388 46.0707 57.3388 46.0705C57.3388 46.0703 57.3388 46.0702 57.3388 46.07C57.3388 46.0698 57.3388 46.0697 57.3388 46.0695C57.3388 46.0693 57.3388 46.0692 57.3388 46.069C57.3388 46.0688 57.3388 46.0687 57.3388 46.0685C57.3388 46.0683 57.3388 46.0681 57.3388 46.068C57.3388 46.0678 57.3388 46.0676 57.3388 46.0675C57.3388 46.0673 57.3388 46.0671 57.3388 46.067C57.3388 46.0668 57.3388 46.0666 57.3388 46.0665C57.3388 46.0663 57.3388 46.0661 57.3388 46.066C57.3388 46.0658 57.3388 46.0656 57.3388 46.0655C57.3388 46.0653 57.3388 46.0652 57.3388 46.065C57.3388 46.0648 57.3388 46.0647 57.3388 46.0645C57.3388 46.0643 57.3388 46.0642 57.3388 46.064H55.8388H54.3388C54.3388 46.0642 54.3388 46.0643 54.3388 46.0645C54.3388 46.0647 54.3388 46.0648 54.3388 46.065C54.3388 46.0652 54.3388 46.0653 54.3388 46.0655C54.3388 46.0656 54.3388 46.0658 54.3388 46.066C54.3388 46.0661 54.3388 46.0663 54.3388 46.0665C54.3388 46.0666 54.3388 46.0668 54.3388 46.067C54.3388 46.0671 54.3388 46.0673 54.3388 46.0675C54.3388 46.0676 54.3388 46.0678 54.3388 46.068C54.3388 46.0681 54.3388 46.0683 54.3388 46.0685C54.3388 46.0687 54.3388 46.0688 54.3388 46.069C54.3388 46.0692 54.3388 46.0693 54.3388 46.0695C54.3388 46.0697 54.3388 46.0698 54.3388 46.07C54.3388 46.0702 54.3388 46.0703 54.3388 46.0705C54.3388 46.0707 54.3388 46.0709 54.3388 46.071C54.3388 46.0712 54.3388 46.0714 54.3388 46.0715C54.3388 46.0717 54.3388 46.0719 54.3388 46.0721C54.3388 46.0722 54.3388 46.0724 54.3388 46.0726C54.3388 46.0727 54.3388 46.0729 54.3388 46.0731C54.3388 46.0733 54.3388 46.0734 54.3388 46.0736C54.3388 46.0738 54.3388 46.0739 54.3388 46.0741C54.3388 46.0743 54.3388 46.0745 54.3388 46.0746C54.3388 46.0748 54.3388 46.075 54.3388 46.0752C54.3388 46.0753 54.3388 46.0755 54.3388 46.0757C54.3388 46.0759 54.3388 46.076 54.3388 46.0762C54.3388 46.0764 54.3388 46.0766 54.3388 46.0767C54.3388 46.0769 54.3388 46.0771 54.3388 46.0773C54.3388 46.0774 54.3388 46.0776 54.3388 46.0778C54.3388 46.078 54.3388 46.0781 54.3388 46.0783C54.3388 46.0785 54.3388 46.0787 54.3388 46.0789C54.3388 46.079 54.3388 46.0792 54.3388 46.0794C54.3388 46.0796 54.3388 46.0797 54.3388 46.0799C54.3388 46.0801 54.3388 46.0803 54.3388 46.0805C54.3388 46.0806 54.3388 46.0808 54.3388 46.081C54.3388 46.0812 54.3388 46.0813 54.3388 46.0815C54.3388 46.0817 54.3388 46.0819 54.3388 46.0821C54.3388 46.0822 54.3388 46.0824 54.3388 46.0826C54.3388 46.0828 54.3388 46.083 54.3388 46.0832C54.3388 46.0833 54.3388 46.0835 54.3388 46.0837C54.3388 46.0839 54.3388 46.0841 54.3388 46.0842C54.3388 46.0844 54.3388 46.0846 54.3388 46.0848C54.3388 46.085 54.3388 46.0852 54.3388 46.0853C54.3388 46.0855 54.3388 46.0857 54.3388 46.0859C54.3388 46.0861 54.3388 46.0862 54.3388 46.0864C54.3388 46.0866 54.3388 46.0868 54.3388 46.087C54.3388 46.0872 54.3388 46.0874 54.3388 46.0875C54.3388 46.0877 54.3388 46.0879 54.3388 46.0881C54.3388 46.0883 54.3388 46.0885 54.3388 46.0886C54.3388 46.0888 54.3388 46.089 54.3388 46.0892C54.3388 46.0894 54.3388 46.0896 54.3388 46.0898C54.3388 46.09 54.3388 46.0901 54.3388 46.0903C54.3388 46.0905 54.3388 46.0907 54.3388 46.0909C54.3388 46.0911 54.3388 46.0913 54.3388 46.0915C54.3388 46.0916 54.3388 46.0918 54.3388 46.092C54.3388 46.0922 54.3388 46.0924 54.3388 46.0926C54.3388 46.0928 54.3388 46.093 54.3388 46.0931C54.3388 46.0933 54.3388 46.0935 54.3388 46.0937C54.3388 46.0939 54.3388 46.0941 54.3388 46.0943C54.3388 46.0945 54.3388 46.0947 54.3388 46.0949C54.3388 46.095 54.3388 46.0952 54.3388 46.0954C54.3388 46.0956 54.3388 46.0958 54.3388 46.096C54.3388 46.0962 54.3388 46.0964 54.3388 46.0966C54.3388 46.0968 54.3388 46.097 54.3388 46.0972C54.3388 46.0973 54.3388 46.0975 54.3388 46.0977C54.3388 46.0979 54.3388 46.0981 54.3388 46.0983C54.3388 46.0985 54.3388 46.0987 54.3388 46.0989C54.3388 46.0991 54.3388 46.0993 54.3388 46.0995C54.3388 46.0997 54.3388 46.0999 54.3388 46.1001C54.3388 46.1003 54.3388 46.1004 54.3388 46.1006C54.3388 46.1008 54.3388 46.101 54.3388 46.1012C54.3388 46.1014 54.3388 46.1016 54.3388 46.1018C54.3388 46.102 54.3388 46.1022 54.3388 46.1024C54.3388 46.1026 54.3388 46.1028 54.3388 46.103C54.3388 46.1032 54.3388 46.1034 54.3388 46.1036C54.3388 46.1038 54.3388 46.104 54.3388 46.1042C54.3388 46.1044 54.3388 46.1046 54.3388 46.1048C54.3388 46.105 54.3388 46.1052 54.3388 46.1054C54.3388 46.1056 54.3388 46.1058 54.3388 46.106C54.3388 46.1062 54.3388 46.1064 54.3388 46.1066C54.3388 46.1068 54.3388 46.107 54.3388 46.1072C54.3388 46.1074 54.3388 46.1076 54.3388 46.1078C54.3388 46.108 54.3388 46.1082 54.3388 46.1084C54.3388 46.1086 54.3388 46.1088 54.3388 46.109C54.3388 46.1092 54.3388 46.1094 54.3388 46.1096C54.3388 46.1098 54.3388 46.11 54.3388 46.1102C54.3388 46.1104 54.3388 46.1106 54.3388 46.1108C54.3388 46.111 54.3388 46.1112 54.3388 46.1114C54.3388 46.1116 54.3388 46.1118 54.3388 46.112C54.3388 46.1122 54.3388 46.1124 54.3388 46.1126C54.3388 46.1128 54.3388 46.113 54.3388 46.1132C54.3388 46.1134 54.3388 46.1137 54.3388 46.1139C54.3388 46.1141 54.3388 46.1143 54.3388 46.1145C54.3388 46.1147 54.3388 46.1149 54.3388 46.1151C54.3388 46.1153 54.3388 46.1155 54.3388 46.1157C54.3388 46.1159 54.3388 46.1161 54.3388 46.1163C54.3388 46.1165 54.3388 46.1167 54.3388 46.117C54.3388 46.1172 54.3388 46.1174 54.3388 46.1176C54.3388 46.1178 54.3388 46.118 54.3388 46.1182C54.3388 46.1184 54.3388 46.1186 54.3388 46.1188C54.3388 46.119 54.3388 46.1192 54.3388 46.1195C54.3388 46.1197 54.3388 46.1199 54.3388 46.1201C54.3388 46.1203 54.3388 46.1205 54.3388 46.1207C54.3388 46.1209 54.3388 46.1211 54.3388 46.1213C54.3388 46.1216 54.3388 46.1218 54.3388 46.122C54.3388 46.1222 54.3388 46.1224 54.3388 46.1226C54.3388 46.1228 54.3388 46.123 54.3388 46.1232C54.3388 46.1235 54.3388 46.1237 54.3388 46.1239C54.3388 46.1241 54.3388 46.1243 54.3388 46.1245C54.3388 46.1247 54.3388 46.125 54.3388 46.1252C54.3388 46.1254 54.3388 46.1256 54.3388 46.1258C54.3388 46.126 54.3388 46.1262 54.3388 46.1264C54.3388 46.1267 54.3388 46.1269 54.3388 46.1271C54.3388 46.1273 54.3388 46.1275 54.3388 46.1277C54.3388 46.128 54.3388 46.1282 54.3388 46.1284C54.3388 46.1286 54.3388 46.1288 54.3388 46.129C54.3388 46.1292 54.3388 46.1295 54.3388 46.1297C54.3388 46.1299 54.3388 46.1301 54.3388 46.1303C54.3388 46.1306 54.3388 46.1308 54.3388 46.131C54.3388 46.1312 54.3388 46.1314 54.3388 46.1316C54.3388 46.1319 54.3388 46.1321 54.3388 46.1323C54.3388 46.1325 54.3388 46.1327 54.3388 46.133C54.3388 46.1332 54.3388 46.1334 54.3388 46.1336C54.3388 46.1338 54.3388 46.134 54.3388 46.1343C54.3388 46.1345 54.3388 46.1347 54.3388 46.1349C54.3388 46.1351 54.3388 46.1354 54.3388 46.1356C54.3388 46.1358 54.3388 46.136 54.3388 46.1363C54.3388 46.1365 54.3388 46.1367 54.3388 46.1369C54.3388 46.1371 54.3388 46.1374 54.3388 46.1376C54.3388 46.1378 54.3388 46.138 54.3388 46.1382C54.3388 46.1385 54.3388 46.1387 54.3388 46.1389C54.3388 46.1391 54.3388 46.1394 54.3388 46.1396C54.3388 46.1398 54.3388 46.14 54.3388 46.1403C54.3388 46.1405 54.3388 46.1407 54.3388 46.1409C54.3388 46.1412 54.3388 46.1414 54.3388 46.1416C54.3388 46.1418 54.3388 46.1421 54.3388 46.1423C54.3388 46.1425 54.3388 46.1427 54.3388 46.143C54.3388 46.1432 54.3388 46.1434 54.3388 46.1436C54.3388 46.1439 54.3388 46.1441 54.3388 46.1443C54.3388 46.1445 54.3388 46.1448 54.3388 46.145C54.3388 46.1452 54.3388 46.1455 54.3388 46.1457C54.3388 46.1459 54.3388 46.1461 54.3388 46.1464C54.3388 46.1466 54.3388 46.1468 54.3388 46.147C54.3388 46.1473 54.3388 46.1475 54.3388 46.1477C54.3388 46.148 54.3388 46.1482 54.3388 46.1484C54.3388 46.1487 54.3388 46.1489 54.3388 46.1491C54.3388 46.1493 54.3388 46.1496 54.3388 46.1498C54.3388 46.15 54.3388 46.1503 54.3388 46.1505C54.3388 46.1507 54.3388 46.151 54.3388 46.1512C54.3388 46.1514 54.3388 46.1517 54.3388 46.1519C54.3388 46.1521 54.3388 46.1523 54.3388 46.1526C54.3388 46.1528 54.3388 46.153 54.3388 46.1533C54.3388 46.1535 54.3388 46.1537 54.3388 46.154C54.3388 46.1542 54.3388 46.1544 54.3388 46.1547C54.3388 46.1549 54.3388 46.1551 54.3388 46.1554C54.3388 46.1556 54.3388 46.1558 54.3388 46.1561C54.3388 46.1563 54.3388 46.1566 54.3388 46.1568C54.3388 46.157 54.3388 46.1573 54.3388 46.1575C54.3388 46.1577 54.3388 46.158 54.3388 46.1582C54.3388 46.1584 54.3388 46.1587 54.3388 46.1589C54.3388 46.1591 54.3388 46.1594 54.3388 46.1596C54.3388 46.1599 54.3388 46.1601 54.3388 46.1603C54.3388 46.1606 54.3388 46.1608 54.3388 46.161C54.3388 46.1613 54.3388 46.1615 54.3388 46.1618C54.3388 46.162 54.3388 46.1622 54.3388 46.1625C54.3388 46.1627 54.3388 46.1629 54.3388 46.1632C54.3388 46.1634 54.3388 46.1637 54.3388 46.1639C54.3388 46.1641 54.3388 46.1644 54.3388 46.1646C54.3388 46.1649 54.3388 46.1651 54.3388 46.1653C54.3388 46.1656 54.3388 46.1658 54.3388 46.1661C54.3388 46.1663 54.3388 46.1665 54.3388 46.1668C54.3388 46.167 54.3388 46.1673 54.3388 46.1675C54.3388 46.1678 54.3388 46.168 54.3388 46.1682C54.3388 46.1685 54.3388 46.1687 54.3388 46.169C54.3388 46.1692 54.3388 46.1695 54.3388 46.1697C54.3388 46.1699 54.3388 46.1702 54.3388 46.1704C54.3388 46.1707 54.3388 46.1709 54.3388 46.1712C54.3388 46.1714 54.3388 46.1716 54.3388 46.1719C54.3388 46.1721 54.3388 46.1724 54.3388 46.1726C54.3388 46.1729 54.3388 46.1731 54.3388 46.1734C54.3388 46.1736 54.3388 46.1739 54.3388 46.1741C54.3388 46.1743 54.3388 46.1746 54.3388 46.1748C54.3388 46.1751 54.3388 46.1753 54.3388 46.1756C54.3388 46.1758 54.3388 46.1761 54.3388 46.1763C54.3388 46.1766 54.3388 46.1768 54.3388 46.1771C54.3388 46.1773 54.3388 46.1776 54.3388 46.1778C54.3388 46.1781 54.3388 46.1783 54.3388 46.1786C54.3388 46.1788 54.3388 46.1791 54.3388 46.1793C54.3388 46.1796 54.3388 46.1798 54.3388 46.1801C54.3388 46.1803 54.3388 46.1805 54.3388 46.1808C54.3388 46.1811 54.3388 46.1813 54.3388 46.1816C54.3388 46.1818 54.3388 46.1821 54.3388 46.1823C54.3388 46.1826 54.3388 46.1828 54.3388 46.1831C54.3388 46.1833 54.3388 46.1836 54.3388 46.1838C54.3388 46.1841 54.3388 46.1843 54.3388 46.1846C54.3388 46.1848 54.3388 46.1851 54.3388 46.1853C54.3388 46.1856 54.3388 46.1858 54.3388 46.1861C54.3388 46.1863 54.3388 46.1866 54.3388 46.1868C54.3388 46.1871 54.3388 46.1874 54.3388 46.1876C54.3388 46.1879 54.3388 46.1881 54.3388 46.1884C54.3388 46.1886 54.3388 46.1889 54.3388 46.1891C54.3388 46.1894 54.3388 46.1896 54.3388 46.1899C54.3388 46.1902 54.3388 46.1904 54.3388 46.1907C54.3388 46.1909 54.3388 46.1912 54.3388 46.1914C54.3388 46.1917 54.3388 46.192 54.3388 46.1922C54.3388 46.1925 54.3388 46.1927 54.3388 46.193C54.3388 46.1932 54.3388 46.1935 54.3388 46.1938C54.3388 46.194 54.3388 46.1943 54.3388 46.1945C54.3388 46.1948 54.3388 46.195 54.3388 46.1953C54.3388 46.1956 54.3388 46.1958 54.3388 46.1961C54.3388 46.1963 54.3388 46.1966 54.3388 46.1969C54.3388 46.1971 54.3388 46.1974 54.3388 46.1976C54.3388 46.1979 54.3388 46.1982 54.3388 46.1984C54.3388 46.1987 54.3388 46.1989 54.3388 46.1992C54.3388 46.1995 54.3388 46.1997 54.3388 46.2C54.3388 46.2002 54.3388 46.2005 54.3388 46.2008C54.3388 46.201 54.3388 46.2013 54.3388 46.2016C54.3388 46.2018 54.3388 46.2021 54.3388 46.2023C54.3388 46.2026 54.3388 46.2029 54.3388 46.2031C54.3388 46.2034 54.3388 46.2037 54.3388 46.2039C54.3388 46.2042 54.3388 46.2045 54.3388 46.2047C54.3388 46.205 54.3388 46.2053 54.3388 46.2055C54.3388 46.2058 54.3388 46.206 54.3388 46.2063C54.3388 46.2066 54.3388 46.2068 54.3388 46.2071C54.3388 46.2074 54.3388 46.2076 54.3388 46.2079C54.3388 46.2082 54.3388 46.2084 54.3388 46.2087C54.3388 46.209 54.3388 46.2092 54.3388 46.2095C54.3388 46.2098 54.3388 46.21 54.3388 46.2103C54.3388 46.2106 54.3388 46.2108 54.3388 46.2111C54.3388 46.2114 54.3388 46.2116 54.3388 46.2119C54.3388 46.2122 54.3388 46.2125 54.3388 46.2127C54.3388 46.213 54.3388 46.2133 54.3388 46.2135C54.3388 46.2138 54.3388 46.2141 54.3388 46.2143C54.3388 46.2146 54.3388 46.2149 54.3388 46.2151C54.3388 46.2154 54.3388 46.2157 54.3388 46.216C54.3388 46.2162 54.3388 46.2165 54.3388 46.2168C54.3388 46.217 54.3388 46.2173 54.3388 46.2176C54.3388 46.2179 54.3388 46.2181 54.3388 46.2184C54.3388 46.2187 54.3388 46.2189 54.3388 46.2192C54.3388 46.2195 54.3388 46.2198 54.3388 46.22C54.3388 46.2203 54.3388 46.2206 54.3388 46.2209C54.3388 46.2211 54.3388 46.2214 54.3388 46.2217C54.3388 46.2219 54.3388 46.2222 54.3388 46.2225C54.3388 46.2228 54.3388 46.223 54.3388 46.2233C54.3388 46.2236 54.3388 46.2239 54.3388 46.2241C54.3388 46.2244 54.3388 46.2247 54.3388 46.225C54.3388 46.2252 54.3388 46.2255 54.3388 46.2258C54.3388 46.2261 54.3388 46.2264 54.3388 46.2266C54.3388 46.2269 54.3388 46.2272 54.3388 46.2275C54.3388 46.2277 54.3388 46.228 54.3388 46.2283C54.3388 46.2286 54.3388 46.2288 54.3388 46.2291C54.3388 46.2294 54.3388 46.2297 54.3388 46.23C54.3388 46.2302 54.3388 46.2305 54.3388 46.2308C54.3388 46.2311 54.3388 46.2314 54.3388 46.2316C54.3388 46.2319 54.3388 46.2322 54.3388 46.2325C54.3388 46.2328 54.3388 46.233 54.3388 46.2333C54.3388 46.2336 54.3388 46.2339 54.3388 46.2342C54.3388 46.2344 54.3388 46.2347 54.3388 46.235C54.3388 46.2353 54.3388 46.2356 54.3388 46.2358C54.3388 46.2361 54.3388 46.2364 54.3388 46.2367C54.3388 46.237 54.3388 46.2373 54.3388 46.2375C54.3388 46.2378 54.3388 46.2381 54.3388 46.2384C54.3388 46.2387 54.3388 46.239 54.3388 46.2392C54.3388 46.2395 54.3388 46.2398 54.3388 46.2401C54.3388 46.2404 54.3388 46.2407 54.3388 46.2409C54.3388 46.2412 54.3388 46.2415 54.3388 46.2418C54.3388 46.2421 54.3388 46.2424 54.3388 46.2426C54.3388 46.2429 54.3388 46.2432 54.3388 46.2435C54.3388 46.2438 54.3388 46.2441 54.3388 46.2444C54.3388 46.2447 54.3388 46.2449 54.3388 46.2452C54.3388 46.2455 54.3388 46.2458 54.3388 46.2461C54.3388 46.2464 54.3388 46.2467 54.3388 46.2469C54.3388 46.2472 54.3388 46.2475 54.3388 46.2478C54.3388 46.2481 54.3388 46.2484 54.3388 46.2487C54.3388 46.249 54.3388 46.2493 54.3388 46.2495C54.3388 46.2498 54.3388 46.2501 54.3388 46.2504C54.3388 46.2507 54.3388 46.251 54.3388 46.2513C54.3388 46.2516 54.3388 46.2519 54.3388 46.2521C54.3388 46.2524 54.3388 46.2527 54.3388 46.253C54.3388 46.2533 54.3388 46.2536 54.3388 46.2539C54.3388 46.2542 54.3388 46.2545 54.3388 46.2548C54.3388 46.2551 54.3388 46.2554 54.3388 46.2556C54.3388 46.2559 54.3388 46.2562 54.3388 46.2565C54.3388 46.2568 54.3388 46.2571 54.3388 46.2574C54.3388 46.2577 54.3388 46.258 54.3388 46.2583C54.3388 46.2586 54.3388 46.2589 54.3388 46.2592C54.3388 46.2595 54.3388 46.2598 54.3388 46.26C54.3388 46.2603 54.3388 46.2606 54.3388 46.2609C54.3388 46.2612 54.3388 46.2615 54.3388 46.2618C54.3388 46.2621 54.3388 46.2624 54.3388 46.2627C54.3388 46.263 54.3388 46.2633 54.3388 46.2636C54.3388 46.2639 54.3388 46.2642 54.3388 46.2645C54.3388 46.2648 54.3388 46.2651 54.3388 46.2654C54.3388 46.2657 54.3388 46.266 54.3388 46.2663C54.3388 46.2666 54.3388 46.2669 54.3388 46.2672C54.3388 46.2675 54.3388 46.2678 54.3388 46.2681C54.3388 46.2684 54.3388 46.2687 54.3388 46.269C54.3388 46.2692 54.3388 46.2695 54.3388 46.2698C54.3388 46.2701 54.3388 46.2704 54.3388 46.2707C54.3388 46.271 54.3388 46.2713 54.3388 46.2716C54.3388 46.2719 54.3388 46.2722 54.3388 46.2726C54.3388 46.2729 54.3388 46.2732 54.3388 46.2735C54.3388 46.2738 54.3388 46.2741 54.3388 46.2744C54.3388 46.2747 54.3388 46.275 54.3388 46.2753C54.3388 46.2756 54.3388 46.2759 54.3388 46.2762C54.3388 46.2765 54.3388 46.2768 54.3388 46.2771C54.3388 46.2774 54.3388 46.2777 54.3388 46.278C54.3388 46.2783 54.3388 46.2786 54.3388 46.2789C54.3388 46.2792 54.3388 46.2795 54.3388 46.2798C54.3388 46.2801 54.3388 46.2804 54.3388 46.2807C54.3388 46.281 54.3388 46.2813 54.3388 46.2816C54.3388 46.282 54.3388 46.2823 54.3388 46.2826C54.3388 46.2829 54.3388 46.2832 54.3388 46.2835C54.3388 46.2838 54.3388 46.2841 54.3388 46.2844C54.3388 46.2847 54.3388 46.285 54.3388 46.2853C54.3388 46.2856 54.3388 46.2859 54.3388 46.2862C54.3388 46.2866 54.3388 46.2869 54.3388 46.2872C54.3388 46.2875 54.3388 46.2878 54.3388 46.2881C54.3388 46.2884 54.3388 46.2887 54.3388 46.289C54.3388 46.2893 54.3388 46.2896 54.3388 46.29C54.3388 46.2903 54.3388 46.2906 54.3388 46.2909C54.3388 46.2912 54.3388 46.2915 54.3388 46.2918C54.3388 46.2921 54.3388 46.2924 54.3388 46.2927C54.3388 46.2931 54.3388 46.2934 54.3388 46.2937C54.3388 46.294 54.3388 46.2943 54.3388 46.2946C54.3388 46.2949 54.3388 46.2952 54.3388 46.2956C54.3388 46.2959 54.3388 46.2962 54.3388 46.2965C54.3388 46.2968 54.3388 46.2971 54.3388 46.2974C54.3388 46.2977 54.3388 46.2981 54.3388 46.2984C54.3388 46.2987 54.3388 46.299 54.3388 46.2993C54.3388 46.2996 54.3388 46.2999 54.3388 46.3003C54.3388 46.3006 54.3388 46.3009 54.3388 46.3012C54.3388 46.3015 54.3388 46.3018 54.3388 46.3021C54.3388 46.3025 54.3388 46.3028 54.3388 46.3031C54.3388 46.3034 54.3388 46.3037 54.3388 46.304C54.3388 46.3044 54.3388 46.3047 54.3388 46.305C54.3388 46.3053 54.3388 46.3056 54.3388 46.3059C54.3388 46.3063 54.3388 46.3066 54.3388 46.3069C54.3388 46.3072 54.3388 46.3075 54.3388 46.3078C54.3388 46.3082 54.3388 46.3085 54.3388 46.3088C54.3388 46.3091 54.3388 46.3094 54.3388 46.3098C54.3388 46.3101 54.3388 46.3104 54.3388 46.3107C54.3388 46.311 54.3388 46.3114 54.3388 46.3117C54.3388 46.312 54.3388 46.3123 54.3388 46.3126C54.3388 46.313 54.3388 46.3133 54.3388 46.3136C54.3388 46.3139 54.3388 46.3142 54.3388 46.3146C54.3388 46.3149 54.3388 46.3152 54.3388 46.3155C54.3388 46.3159 54.3388 46.3162 54.3388 46.3165C54.3388 46.3168 54.3388 46.3171 54.3388 46.3175C54.3388 46.3178 54.3388 46.3181 54.3388 46.3184C54.3388 46.3188 54.3388 46.3191 54.3388 46.3194C54.3388 46.3197 54.3388 46.3201 54.3388 46.3204C54.3388 46.3207 54.3388 46.321 54.3388 46.3214C54.3388 46.3217 54.3388 46.322 54.3388 46.3223C54.3388 46.3227 54.3388 46.323 54.3388 46.3233C54.3388 46.3236 54.3388 46.324 54.3388 46.3243C54.3388 46.3246 54.3388 46.3249 54.3388 46.3253C54.3388 46.3256 54.3388 46.3259 54.3388 46.3262C54.3388 46.3266 54.3388 46.3269 54.3388 46.3272C54.3388 46.3276 54.3388 46.3279 54.3388 46.3282C54.3388 46.3285 54.3388 46.3289 54.3388 46.3292C54.3388 46.3295 54.3388 46.3298 54.3388 46.3302C54.3388 46.3305 54.3388 46.3308 54.3388 46.3312C54.3388 46.3315 54.3388 46.3318 54.3388 46.3322C54.3388 46.3325 54.3388 46.3328 54.3388 46.3331C54.3388 46.3335 54.3388 46.3338 54.3388 46.3341C54.3388 46.3345 54.3388 46.3348 54.3388 46.3351C54.3388 46.3355 54.3388 46.3358 54.3388 46.3361C54.3388 46.3365 54.3388 46.3368 54.3388 46.3371C54.3388 46.3374 54.3388 46.3378 54.3388 46.3381C54.3388 46.3384 54.3388 46.3388 54.3388 46.3391C54.3388 46.3394 54.3388 46.3398 54.3388 46.3401C54.3388 46.3404 54.3388 46.3408 54.3388 46.3411C54.3388 46.3414 54.3388 46.3418 54.3388 46.3421C54.3388 46.3424 54.3388 46.3428 54.3388 46.3431C54.3388 46.3435 54.3388 46.3438 54.3388 46.3441C54.3388 46.3445 54.3388 46.3448 54.3388 46.3451C54.3388 46.3455 54.3388 46.3458 54.3388 46.3461C54.3388 46.3465 54.3388 46.3468 54.3388 46.3471C54.3388 46.3475 54.3388 46.3478 54.3388 46.3482C54.3388 46.3485 54.3388 46.3488 54.3388 46.3492C54.3388 46.3495 54.3388 46.3498 54.3388 46.3502C54.3388 46.3505 54.3388 46.3509 54.3388 46.3512C54.3388 46.3515 54.3388 46.3519 54.3388 46.3522C54.3388 46.3526 54.3388 46.3529 54.3388 46.3532C54.3388 46.3536 54.3388 46.3539 54.3388 46.3542C54.3388 46.3546 54.3388 46.3549 54.3388 46.3553C54.3388 46.3556 54.3388 46.356 54.3388 46.3563C54.3388 46.3566 54.3388 46.357 54.3388 46.3573C54.3388 46.3577 54.3388 46.358 54.3388 46.3583C54.3388 46.3587 54.3388 46.359 54.3388 46.3594C54.3388 46.3597 54.3388 46.36 54.3388 46.3604C54.3388 46.3607 54.3388 46.3611 54.3388 46.3614C54.3388 46.3618 54.3388 46.3621 54.3388 46.3625C54.3388 46.3628 54.3388 46.3631 54.3388 46.3635C54.3388 46.3638 54.3388 46.3642 54.3388 46.3645C54.3388 46.3649 54.3388 46.3652 54.3388 46.3655C54.3388 46.3659 54.3388 46.3662 54.3388 46.3666C54.3388 46.3669 54.3388 46.3673 54.3388 46.3676C54.3388 46.368 54.3388 46.3683 54.3388 46.3687C54.3388 46.369 54.3388 46.3694 54.3388 46.3697C54.3388 46.37 54.3388 46.3704 54.3388 46.3707C54.3388 46.3711 54.3388 46.3714 54.3388 46.3718C54.3388 46.3721 54.3388 46.3725 54.3388 46.3728C54.3388 46.3732 54.3388 46.3735 54.3388 46.3739C54.3388 46.3742 54.3388 46.3746 54.3388 46.3749C54.3388 46.3753 54.3388 46.3756 54.3388 46.376C54.3388 46.3763 54.3388 46.3767 54.3388 46.377C54.3388 46.3774 54.3388 46.3777 54.3388 46.3781C54.3388 46.3784 54.3388 46.3788 54.3388 46.3791C54.3388 46.3795 54.3388 46.3798 54.3388 46.3802C54.3388 46.3805 54.3388 46.3809 54.3388 46.3812C54.3388 46.3816 54.3388 46.3819 54.3388 46.3823C54.3388 46.3826 54.3388 46.383 54.3388 46.3833C54.3388 46.3837 54.3388 46.384 54.3388 46.3844C54.3388 46.3847 54.3388 46.3851 54.3388 46.3855C54.3388 46.3858 54.3388 46.3862 54.3388 46.3865C54.3388 46.3869 54.3388 46.3872 54.3388 46.3876C54.3388 46.3879 54.3388 46.3883 54.3388 46.3886C54.3388 46.389 54.3388 46.3894 54.3388 46.3897C54.3388 46.3901 54.3388 46.3904 54.3388 46.3908C54.3388 46.3911 54.3388 46.3915 54.3388 46.3918C54.3388 46.3922 54.3388 46.3926 54.3388 46.3929C54.3388 46.3933 54.3388 46.3936 54.3388 46.394C54.3388 46.3943 54.3388 46.3947 54.3388 46.3951C54.3388 46.3954 54.3388 46.3958 54.3388 46.3961C54.3388 46.3965 54.3388 46.3968 54.3388 46.3972C54.3388 46.3976 54.3388 46.3979 54.3388 46.3983C54.3388 46.3986 54.3388 46.399 54.3388 46.3994C54.3388 46.3997 54.3388 46.4001 54.3388 46.4004C54.3388 46.4008 54.3388 46.4012 54.3388 46.4015C54.3388 46.4019 54.3388 46.4022 54.3388 46.4026C54.3388 46.403 54.3388 46.4033 54.3388 46.4037C54.3388 46.404 54.3388 46.4044 54.3388 46.4048C54.3388 46.4051 54.3388 46.4055 54.3388 46.4059C54.3388 46.4062 54.3388 46.4066 54.3388 46.4069C54.3388 46.4073 54.3388 46.4077 54.3388 46.408C54.3388 46.4084 54.3388 46.4088 54.3388 46.4091C54.3388 46.4095 54.3388 46.4098 54.3388 46.4102C54.3388 46.4106 54.3388 46.4109 54.3388 46.4113C54.3388 46.4117 54.3388 46.412 54.3388 46.4124C54.3388 46.4128 54.3388 46.4131 54.3388 46.4135C54.3388 46.4139 54.3388 46.4142 54.3388 46.4146C54.3388 46.415 54.3388 46.4153 54.3388 46.4157C54.3388 46.4161 54.3388 46.4164 54.3388 46.4168C54.3388 46.4172 54.3388 46.4175 54.3388 46.4179C54.3388 46.4183 54.3388 46.4186 54.3388 46.419C54.3388 46.4194 54.3388 46.4197 54.3388 46.4201C54.3388 46.4205 54.3388 46.4208 54.3388 46.4212C54.3388 46.4216 54.3388 46.4219 54.3388 46.4223C54.3388 46.4227 54.3388 46.4231 54.3388 46.4234C54.3388 46.4238 54.3388 46.4242 54.3388 46.4245C54.3388 46.4249 54.3388 46.4253 54.3388 46.4256C54.3388 46.426 54.3388 46.4264 54.3388 46.4268C54.3388 46.4271 54.3388 46.4275 54.3388 46.4279C54.3388 46.4282 54.3388 46.4286 54.3388 46.429C54.3388 46.4294 54.3388 46.4297 54.3388 46.4301C54.3388 46.4305 54.3388 46.4308 54.3388 46.4312C54.3388 46.4316 54.3388 46.432 54.3388 46.4323C54.3388 46.4327 54.3388 46.4331 54.3388 46.4335C54.3388 46.4338 54.3388 46.4342 54.3388 46.4346C54.3388 46.435 54.3388 46.4353 54.3388 46.4357C54.3388 46.4361 54.3388 46.4364 54.3388 46.4368C54.3388 46.4372 54.3388 46.4376 54.3388 46.438C54.3388 46.4383 54.3388 46.4387 54.3388 46.4391C54.3388 46.4395 54.3388 46.4398 54.3388 46.4402C54.3388 46.4406 54.3388 46.441 54.3388 46.4413C54.3388 46.4417 54.3388 46.4421 54.3388 46.4425C54.3388 46.4428 54.3388 46.4432 54.3388 46.4436C54.3388 46.444 54.3388 46.4444 54.3388 46.4447C54.3388 46.4451 54.3388 46.4455 54.3388 46.4459C54.3388 46.4462 54.3388 46.4466 54.3388 46.447C54.3388 46.4474 54.3388 46.4478 54.3388 46.4481C54.3388 46.4485 54.3388 46.4489 54.3388 46.4493C54.3388 46.4497 54.3388 46.45 54.3388 46.4504C54.3388 46.4508 54.3388 46.4512 54.3388 46.4516C54.3388 46.452 54.3388 46.4523 54.3388 46.4527C54.3388 46.4531 54.3388 46.4535 54.3388 46.4539C54.3388 46.4542 54.3388 46.4546 54.3388 46.455C54.3388 46.4554 54.3388 46.4558 54.3388 46.4562C54.3388 46.4565 54.3388 46.4569 54.3388 46.4573C54.3388 46.4577 54.3388 46.4581 54.3388 46.4585C54.3388 46.4588 54.3388 46.4592 54.3388 46.4596C54.3388 46.46 54.3388 46.4604 54.3388 46.4608C54.3388 46.4611 54.3388 46.4615 54.3388 46.4619C54.3388 46.4623 54.3388 46.4627 54.3388 46.4631C54.3388 46.4635 54.3388 46.4638 54.3388 46.4642C54.3388 46.4646 54.3388 46.465 54.3388 46.4654C54.3388 46.4658 54.3388 46.4662 54.3388 46.4665C54.3388 46.4669 54.3388 46.4673 54.3388 46.4677C54.3388 46.4681 54.3388 46.4685 54.3388 46.4689C54.3388 46.4693 54.3388 46.4696 54.3388 46.47C54.3388 46.4704 54.3388 46.4708 54.3388 46.4712C54.3388 46.4716 54.3388 46.472 54.3388 46.4724C54.3388 46.4728 54.3388 46.4731 54.3388 46.4735C54.3388 46.4739 54.3388 46.4743 54.3388 46.4747C54.3388 46.4751 54.3388 46.4755 54.3388 46.4759C54.3388 46.4763 54.3388 46.4767 54.3388 46.4771C54.3388 46.4774 54.3388 46.4778 54.3388 46.4782C54.3388 46.4786 54.3388 46.479 54.3388 46.4794C54.3388 46.4798 54.3388 46.4802 54.3388 46.4806C54.3388 46.481 54.3388 46.4814 54.3388 46.4818C54.3388 46.4821 54.3388 46.4825 54.3388 46.4829C54.3388 46.4833 54.3388 46.4837 54.3388 46.4841C54.3388 46.4845 54.3388 46.4849 54.3388 46.4853C54.3388 46.4857 54.3388 46.4861 54.3388 46.4865C54.3388 46.4869 54.3388 46.4873 54.3388 46.4877C54.3388 46.4881 54.3388 46.4885 54.3388 46.4889C54.3388 46.4892 54.3388 46.4896 54.3388 46.49C54.3388 46.4904 54.3388 46.4908 54.3388 46.4912C54.3388 46.4916 54.3388 46.492 54.3388 46.4924C54.3388 46.4928 54.3388 46.4932 54.3388 46.4936C54.3388 46.494 54.3388 46.4944 54.3388 46.4948C54.3388 46.4952 54.3388 46.4956 54.3388 46.496H55.8388ZM55.8388 46.064H57.3388C57.3388 45.6458 57.4037 45.2988 57.5133 45.0067L56.1088 44.48L54.7043 43.9533C54.4538 44.6212 54.3388 45.3302 54.3388 46.064H55.8388ZM56.1088 44.48L57.5015 45.0371C57.6473 44.6725 57.832 44.3402 58.0552 44.0366L56.8468 43.148L55.6383 42.2594C55.2615 42.7718 54.9542 43.3275 54.7161 43.9229L56.1088 44.48ZM56.8468 43.148L58.0674 44.0199C58.3144 43.674 58.591 43.3529 58.8979 43.0559L57.8548 41.978L56.8116 40.9001C56.3746 41.3231 55.9791 41.782 55.6262 42.2761L56.8468 43.148ZM57.8548 41.978L58.8807 43.0723C59.2704 42.707 59.6541 42.3415 60.0319 41.9759L58.9888 40.898L57.9456 39.8201C57.5794 40.1745 57.2072 40.529 56.8289 40.8837L57.8548 41.978ZM58.9888 40.898L60.0266 41.981C60.3137 41.7059 60.5825 41.449 60.8332 41.2102L59.7988 40.124L58.7643 39.0378C58.511 39.279 58.2399 39.5381 57.9509 39.815L58.9888 40.898ZM59.7988 40.124L60.8594 41.1847C61.136 40.9081 61.3879 40.6365 61.6121 40.3702L60.4648 39.404L59.3174 38.4378C59.1576 38.6275 58.9655 38.8359 58.7381 39.0633L59.7988 40.124ZM60.4648 39.404L61.6361 40.341C61.8856 40.0292 62.1032 39.6971 62.2704 39.3441L60.9148 38.702L59.5592 38.0599C59.5104 38.1629 59.428 38.2988 59.2935 38.467L60.4648 39.404ZM60.9148 38.702L62.2826 39.3175C62.4692 38.9029 62.5768 38.454 62.5768 37.982H61.0768H59.5768C59.5768 37.99 59.5763 38.0211 59.5469 38.0865L60.9148 38.702ZM61.0768 37.982H62.5768C62.5768 37.1916 62.3444 36.2543 61.5032 35.6487L60.6268 36.866L59.7503 38.0833C59.7058 38.0513 59.6654 38.012 59.6324 37.9689C59.6 37.9265 59.582 37.8899 59.5731 37.868C59.5574 37.829 59.5768 37.8526 59.5768 37.982H61.0768ZM60.6268 36.866L61.5032 35.6487C60.9 35.2144 60.2046 35.042 59.5108 35.042V36.542V38.042C59.6115 38.042 59.6726 38.0542 59.7046 38.0635C59.7341 38.0721 59.7458 38.08 59.7503 38.0833L60.6268 36.866ZM59.5108 36.542V35.042C59.0166 35.042 58.5313 35.125 58.0661 35.2995L58.5928 36.704L59.1195 38.1085C59.2302 38.067 59.3569 38.042 59.5108 38.042V36.542ZM58.5928 36.704L58.1 35.2873C57.731 35.4156 57.3791 35.5785 57.047 35.7778L57.8188 37.064L58.5905 38.3502C58.7385 38.2615 58.9025 38.1844 59.0855 38.1207L58.5928 36.704ZM57.8188 37.064L57.0672 35.7659C56.7742 35.9355 56.4981 36.1252 56.2486 36.3391L57.2248 37.478L58.201 38.6169C58.2874 38.5428 58.4074 38.4565 58.5703 38.3621L57.8188 37.064ZM57.2248 37.478L56.298 36.2985C56.1138 36.4433 55.9331 36.5944 55.7861 36.7413L56.8468 37.802L57.9074 38.8627C57.9285 38.8416 57.9998 38.7767 58.1515 38.6575L57.2248 37.478ZM56.8468 37.802L58.069 36.9324L56.737 35.0604L55.5148 35.93L54.2926 36.7996L55.6246 38.6716L56.8468 37.802ZM55.5148 35.93L56.5374 37.0274C56.9381 36.654 57.4101 36.3412 57.9644 36.0928L57.3508 34.724L56.7372 33.3552C55.8995 33.7308 55.1474 34.222 54.4922 34.8326L55.5148 35.93ZM57.3508 34.724L57.975 36.088C58.4806 35.8566 59.023 35.738 59.6188 35.738V34.238V32.738C58.6066 32.738 57.6369 32.9434 56.7266 33.36L57.3508 34.724ZM59.6188 34.238V35.738C60.2429 35.738 60.7116 35.8104 61.054 35.9194L61.5088 34.49L61.9636 33.0606C61.25 32.8336 60.4586 32.738 59.6188 32.738V34.238ZM61.5088 34.49L61.054 35.9194C61.4145 36.0341 61.6403 36.1757 61.7841 36.3092L62.8048 35.21L63.8254 34.1108C63.2972 33.6203 62.659 33.2819 61.9636 33.0606L61.5088 34.49ZM62.8048 35.21L61.8254 36.3461C61.9698 36.4706 62.0743 36.6203 62.1456 36.8232L63.5608 36.326L64.976 35.8288C64.7352 35.1437 64.3358 34.5494 63.7842 34.0739L62.8048 35.21ZM63.5608 36.326L62.1628 36.8697C62.2518 37.0987 62.3128 37.4013 62.3128 37.802H63.8128H65.3128C65.3128 37.0987 65.2057 36.4173 64.9588 35.7823L63.5608 36.326Z" fill="black" mask="url(#path-6-outside-1_2084_71)"/>
</g>
</svg>
