<svg width="90" height="90" viewBox="0 0 90 90" fill="none" xmlns="http://www.w3.org/2000/svg">
<mask id="mask0_2084_71" style="mask-type:alpha" maskUnits="userSpaceOnUse" x="0" y="0" width="90" height="90">
<rect width="90" height="90" fill="#D9D9D9"/>
</mask>
<g mask="url(#mask0_2084_71)">
<rect x="1.25" y="18.25" width="87.5" height="53.5" rx="5.75" fill="#E2F5FF" stroke="black" stroke-width="1.5"/>
<rect x="5.25" y="22.25" width="79.5" height="45.5" rx="1.75" fill="#E2F5FF" stroke="black" stroke-width="1.5"/>
<rect x="9.25" y="25.25" width="25.5" height="5.5" rx="1.75" fill="#D6592C" stroke="black" stroke-width="1.5"/>
<rect x="38.25" y="24.25" width="43.5" height="31.5" rx="1.75" fill="#D6592C" stroke="black" stroke-width="1.5"/>
<mask id="path-6-outside-1_2084_71" maskUnits="userSpaceOnUse" x="53" y="33" width="14" height="16" fill="black">
<rect fill="white" x="53" y="33" width="14" height="16"/>
<path d="M60.6268 37.802C60.1588 38.414 59.6608 39.08 59.1328 39.8C58.6048 40.52 58.1608 41.258 57.8008 42.014H60.6268V37.802ZM63.2548 34.526V42.014H64.5868V44.21H63.2548V47H60.6268V44.21H55.2448V42.248C55.5088 41.72 55.8388 41.126 56.2348 40.466C56.6308 39.794 57.0688 39.11 57.5488 38.414C58.0408 37.706 58.5568 37.016 59.0968 36.344C59.6368 35.672 60.1768 35.066 60.7168 34.526H63.2548Z"/>
</mask>
<path d="M60.6268 37.802C60.1588 38.414 59.6608 39.08 59.1328 39.8C58.6048 40.52 58.1608 41.258 57.8008 42.014H60.6268V37.802ZM63.2548 34.526V42.014H64.5868V44.21H63.2548V47H60.6268V44.21H55.2448V42.248C55.5088 41.72 55.8388 41.126 56.2348 40.466C56.6308 39.794 57.0688 39.11 57.5488 38.414C58.0408 37.706 58.5568 37.016 59.0968 36.344C59.6368 35.672 60.1768 35.066 60.7168 34.526H63.2548Z" fill="white"/>
<path d="M60.6268 37.802H62.1268V33.3711L59.4352 36.8908L60.6268 37.802ZM59.1328 39.8L60.3424 40.687L60.3424 40.687L59.1328 39.8ZM57.8008 42.014L56.4465 41.3691L55.4251 43.514H57.8008V42.014ZM60.6268 42.014V43.514H62.1268V42.014H60.6268ZM63.2548 34.526H64.7548V33.026H63.2548V34.526ZM63.2548 42.014H61.7548V43.514H63.2548V42.014ZM64.5868 42.014H66.0868V40.514H64.5868V42.014ZM64.5868 44.21V45.71H66.0868V44.21H64.5868ZM63.2548 44.21V42.71H61.7548V44.21H63.2548ZM63.2548 47V48.5H64.7548V47H63.2548ZM60.6268 47H59.1268V48.5H60.6268V47ZM60.6268 44.21H62.1268V42.71H60.6268V44.21ZM55.2448 44.21H53.7448V45.71H55.2448V44.21ZM55.2448 42.248L53.9031 41.5772L53.7448 41.8939V42.248H55.2448ZM56.2348 40.466L57.521 41.2378L57.5271 41.2275L56.2348 40.466ZM57.5488 38.414L56.317 37.558L56.3139 37.5624L57.5488 38.414ZM60.7168 34.526V33.026H60.0954L59.6561 33.4653L60.7168 34.526ZM60.6268 37.802L59.4352 36.8908C58.9603 37.5119 58.4562 38.1861 57.9232 38.913L59.1328 39.8L60.3424 40.687C60.8653 39.9739 61.3573 39.3161 61.8183 38.7132L60.6268 37.802ZM59.1328 39.8L57.9232 38.913C57.3431 39.704 56.8496 40.5226 56.4465 41.3691L57.8008 42.014L59.1551 42.6589C59.472 41.9934 59.8664 41.336 60.3424 40.687L59.1328 39.8ZM57.8008 42.014V43.514H60.6268V42.014V40.514H57.8008V42.014ZM60.6268 42.014H62.1268V37.802H60.6268H59.1268V42.014H60.6268ZM63.2548 34.526H61.7548V42.014H63.2548H64.7548V34.526H63.2548ZM63.2548 42.014V43.514H64.5868V42.014V40.514H63.2548V42.014ZM64.5868 42.014H63.0868V44.21H64.5868H66.0868V42.014H64.5868ZM64.5868 44.21V42.71H63.2548V44.21V45.71H64.5868V44.21ZM63.2548 44.21H61.7548V47H63.2548H64.7548V44.21H63.2548ZM63.2548 47V45.5H60.6268V47V48.5H63.2548V47ZM60.6268 47H62.1268V44.21H60.6268H59.1268V47H60.6268ZM60.6268 44.21V42.71H55.2448V44.21V45.71H60.6268V44.21ZM55.2448 44.21H56.7448V42.248H55.2448H53.7448V44.21H55.2448ZM55.2448 42.248L56.5864 42.9188C56.829 42.4336 57.1392 41.8741 57.521 41.2377L56.2348 40.466L54.9485 39.6943C54.5383 40.3779 54.1885 41.0064 53.9031 41.5772L55.2448 42.248ZM56.2348 40.466L57.5271 41.2275C57.9036 40.5887 58.3221 39.9347 58.7836 39.2656L57.5488 38.414L56.3139 37.5624C55.8154 38.2853 55.358 38.9993 54.9425 39.7045L56.2348 40.466ZM57.5488 38.414L58.7805 39.27C59.2527 38.5906 59.7478 37.9285 60.266 37.2836L59.0968 36.344L57.9275 35.4044C57.3657 36.1035 56.8288 36.8214 56.317 37.558L57.5488 38.414ZM59.0968 36.344L60.266 37.2836C60.7763 36.6486 61.2803 36.0838 61.7774 35.5867L60.7168 34.526L59.6561 33.4653C59.0732 34.0482 58.4972 34.6954 57.9275 35.4044L59.0968 36.344ZM60.7168 34.526V36.026H63.2548V34.526V33.026H60.7168V34.526Z" fill="black" mask="url(#path-6-outside-1_2084_71)"/>
</g>
</svg>
