<svg width="90" height="90" viewBox="0 0 90 90" fill="none" xmlns="http://www.w3.org/2000/svg">
<mask id="mask0_2084_71" style="mask-type:alpha" maskUnits="userSpaceOnUse" x="0" y="0" width="90" height="90">
<rect width="90" height="90" fill="#D9D9D9"/>
</mask>
<g mask="url(#mask0_2084_71)">
<rect x="1.25" y="18.25" width="87.5" height="53.5" rx="5.75" fill="#E2F5FF" stroke="black" stroke-width="1.5"/>
<rect x="5.25" y="22.25" width="79.5" height="45.5" rx="1.75" fill="#E2F5FF" stroke="black" stroke-width="1.5"/>
<rect x="9.25" y="25.25" width="25.5" height="5.5" rx="1.75" fill="#D6592C" stroke="black" stroke-width="1.5"/>
<rect x="38.25" y="24.25" width="43.5" height="31.5" rx="1.75" fill="#D6592C" stroke="black" stroke-width="1.5"/>
<mask id="path-6-outside-1_2084_71" maskUnits="userSpaceOnUse" x="53" y="32" width="13" height="17" fill="black">
<rect fill="white" x="53" y="32" width="13" height="17"/>
<path d="M58.9888 47.27C58.6648 47.27 58.3228 47.246 57.9628 47.198C57.6028 47.162 57.2548 47.108 56.9188 47.036C56.5828 46.964 56.2768 46.886 56.0008 46.802C55.7248 46.718 55.5088 46.64 55.3528 46.568L55.8748 44.336C56.1868 44.468 56.5828 44.612 57.0628 44.768C57.5548 44.912 58.1608 44.984 58.8808 44.984C59.7088 44.984 60.3148 44.828 60.6988 44.516C61.0828 44.204 61.2748 43.784 61.2748 43.256C61.2748 42.932 61.2028 42.662 61.0588 42.446C60.9268 42.218 60.7408 42.038 60.5008 41.906C60.2608 41.762 59.9728 41.666 59.6368 41.618C59.3128 41.558 58.9648 41.528 58.5928 41.528H57.5488V39.368H58.7368C59.0008 39.368 59.2528 39.344 59.4928 39.296C59.7448 39.248 59.9668 39.17 60.1588 39.062C60.3508 38.942 60.5008 38.786 60.6088 38.594C60.7288 38.39 60.7888 38.138 60.7888 37.838C60.7888 37.61 60.7408 37.412 60.6448 37.244C60.5488 37.076 60.4228 36.938 60.2668 36.83C60.1228 36.722 59.9488 36.644 59.7448 36.596C59.5528 36.536 59.3548 36.506 59.1508 36.506C58.6348 36.506 58.1548 36.584 57.7108 36.74C57.2788 36.896 56.8828 37.088 56.5228 37.316L55.5688 35.354C55.7608 35.234 55.9828 35.108 56.2348 34.976C56.4988 34.844 56.7868 34.724 57.0988 34.616C57.4108 34.508 57.7408 34.418 58.0888 34.346C58.4488 34.274 58.8268 34.238 59.2228 34.238C59.9548 34.238 60.5848 34.328 61.1128 34.508C61.6528 34.676 62.0968 34.922 62.4448 35.246C62.7928 35.558 63.0508 35.93 63.2188 36.362C63.3868 36.782 63.4708 37.244 63.4708 37.748C63.4708 38.24 63.3328 38.72 63.0568 39.188C62.7808 39.644 62.4088 39.992 61.9408 40.232C62.5888 40.496 63.0868 40.892 63.4348 41.42C63.7948 41.936 63.9748 42.56 63.9748 43.292C63.9748 43.868 63.8788 44.402 63.6868 44.894C63.4948 45.374 63.1948 45.794 62.7868 46.154C62.3788 46.502 61.8568 46.778 61.2208 46.982C60.5968 47.174 59.8528 47.27 58.9888 47.27Z"/>
</mask>
<path d="M58.9888 47.27C58.6648 47.27 58.3228 47.246 57.9628 47.198C57.6028 47.162 57.2548 47.108 56.9188 47.036C56.5828 46.964 56.2768 46.886 56.0008 46.802C55.7248 46.718 55.5088 46.64 55.3528 46.568L55.8748 44.336C56.1868 44.468 56.5828 44.612 57.0628 44.768C57.5548 44.912 58.1608 44.984 58.8808 44.984C59.7088 44.984 60.3148 44.828 60.6988 44.516C61.0828 44.204 61.2748 43.784 61.2748 43.256C61.2748 42.932 61.2028 42.662 61.0588 42.446C60.9268 42.218 60.7408 42.038 60.5008 41.906C60.2608 41.762 59.9728 41.666 59.6368 41.618C59.3128 41.558 58.9648 41.528 58.5928 41.528H57.5488V39.368H58.7368C59.0008 39.368 59.2528 39.344 59.4928 39.296C59.7448 39.248 59.9668 39.17 60.1588 39.062C60.3508 38.942 60.5008 38.786 60.6088 38.594C60.7288 38.39 60.7888 38.138 60.7888 37.838C60.7888 37.61 60.7408 37.412 60.6448 37.244C60.5488 37.076 60.4228 36.938 60.2668 36.83C60.1228 36.722 59.9488 36.644 59.7448 36.596C59.5528 36.536 59.3548 36.506 59.1508 36.506C58.6348 36.506 58.1548 36.584 57.7108 36.74C57.2788 36.896 56.8828 37.088 56.5228 37.316L55.5688 35.354C55.7608 35.234 55.9828 35.108 56.2348 34.976C56.4988 34.844 56.7868 34.724 57.0988 34.616C57.4108 34.508 57.7408 34.418 58.0888 34.346C58.4488 34.274 58.8268 34.238 59.2228 34.238C59.9548 34.238 60.5848 34.328 61.1128 34.508C61.6528 34.676 62.0968 34.922 62.4448 35.246C62.7928 35.558 63.0508 35.93 63.2188 36.362C63.3868 36.782 63.4708 37.244 63.4708 37.748C63.4708 38.24 63.3328 38.72 63.0568 39.188C62.7808 39.644 62.4088 39.992 61.9408 40.232C62.5888 40.496 63.0868 40.892 63.4348 41.42C63.7948 41.936 63.9748 42.56 63.9748 43.292C63.9748 43.868 63.8788 44.402 63.6868 44.894C63.4948 45.374 63.1948 45.794 62.7868 46.154C62.3788 46.502 61.8568 46.778 61.2208 46.982C60.5968 47.174 59.8528 47.27 58.9888 47.27Z" fill="white"/>
<path d="M57.9628 47.198L58.161 45.7112L58.1366 45.7079L58.112 45.7054L57.9628 47.198ZM56.9188 47.036L57.2331 45.5693L57.2331 45.5693L56.9188 47.036ZM56.0008 46.802L56.4375 45.367L56.4375 45.367L56.0008 46.802ZM55.3528 46.568L53.8922 46.2264L53.6136 47.4174L54.7242 47.9299L55.3528 46.568ZM55.8748 44.336L56.4592 42.9545L54.8196 42.2609L54.4142 43.9944L55.8748 44.336ZM57.0628 44.768L56.5991 46.1946L56.6202 46.2014L56.6414 46.2076L57.0628 44.768ZM60.6988 44.516L59.7529 43.3518L59.7529 43.3518L60.6988 44.516ZM61.0588 42.446L59.7606 43.1976L59.7844 43.2386L59.8107 43.278L61.0588 42.446ZM60.5008 41.906L59.729 43.1922L59.7532 43.2067L59.7779 43.2203L60.5008 41.906ZM59.6368 41.618L59.3636 43.0929L59.394 43.0986L59.4246 43.1029L59.6368 41.618ZM57.5488 41.528H56.0488V43.028H57.5488V41.528ZM57.5488 39.368V37.868H56.0488V39.368H57.5488ZM59.4928 39.296L59.2121 37.8224L59.1986 37.8251L59.4928 39.296ZM60.1588 39.062L60.8942 40.3694L60.9244 40.3524L60.9538 40.334L60.1588 39.062ZM60.6088 38.594L59.3159 37.8335L59.3085 37.846L59.3014 37.8586L60.6088 38.594ZM60.6448 37.244L61.9471 36.4998L61.9471 36.4998L60.6448 37.244ZM60.2668 36.83L59.3668 38.03L59.3895 38.0471L59.413 38.0633L60.2668 36.83ZM59.7448 36.596L59.2974 38.0277L59.3488 38.0438L59.4012 38.0561L59.7448 36.596ZM57.7108 36.74L57.2135 35.3248L57.2013 35.3292L57.7108 36.74ZM56.5228 37.316L55.1738 37.9719L55.9076 39.4811L57.3253 38.5832L56.5228 37.316ZM55.5688 35.354L54.7738 34.082L53.63 34.7969L54.2198 36.0099L55.5688 35.354ZM56.2348 34.976L55.5639 33.6344L55.5513 33.6407L55.5388 33.6473L56.2348 34.976ZM58.0888 34.346L57.7946 32.8751L57.7849 32.8771L58.0888 34.346ZM61.1128 34.508L60.6288 35.9278L60.6479 35.9343L60.6672 35.9403L61.1128 34.508ZM62.4448 35.246L61.4226 36.3438L61.433 36.3534L61.4434 36.3629L62.4448 35.246ZM63.2188 36.362L61.8208 36.9057L61.8234 36.9124L61.8261 36.9191L63.2188 36.362ZM63.0568 39.188L64.34 39.9647L64.3445 39.9574L64.3488 39.95L63.0568 39.188ZM61.9408 40.232L61.2563 38.8973L58.3488 40.3883L61.3748 41.6211L61.9408 40.232ZM63.4348 41.42L62.1823 42.2455L62.1932 42.262L62.2046 42.2783L63.4348 41.42ZM63.6868 44.894L65.0795 45.4511L65.0841 45.4393L63.6868 44.894ZM62.7868 46.154L63.7602 47.2953L63.7698 47.2871L63.7792 47.2788L62.7868 46.154ZM61.2208 46.982L61.6619 48.4157L61.6704 48.413L61.6789 48.4103L61.2208 46.982ZM58.9888 47.27V45.77C58.7384 45.77 58.463 45.7514 58.161 45.7112L57.9628 47.198L57.7645 48.6848C58.1825 48.7406 58.5911 48.77 58.9888 48.77V47.27ZM57.9628 47.198L58.112 45.7054C57.8046 45.6747 57.5118 45.629 57.2331 45.5693L56.9188 47.036L56.6045 48.5027C56.9977 48.587 57.401 48.6493 57.8135 48.6906L57.9628 47.198ZM56.9188 47.036L57.2331 45.5693C56.9308 45.5045 56.6664 45.4367 56.4375 45.367L56.0008 46.802L55.564 48.237C55.8871 48.3353 56.2347 48.4235 56.6045 48.5027L56.9188 47.036ZM56.0008 46.802L56.4375 45.367C56.1895 45.2915 56.0475 45.2366 55.9814 45.2061L55.3528 46.568L54.7242 47.9299C54.97 48.0434 55.26 48.1445 55.564 48.237L56.0008 46.802ZM55.3528 46.568L56.8134 46.9096L57.3354 44.6776L55.8748 44.336L54.4142 43.9944L53.8922 46.2264L55.3528 46.568ZM55.8748 44.336L55.2903 45.7175C55.656 45.8722 56.0959 46.031 56.5991 46.1946L57.0628 44.768L57.5264 43.3414C57.0696 43.193 56.7175 43.0638 56.4592 42.9545L55.8748 44.336ZM57.0628 44.768L56.6414 46.2076C57.3131 46.4042 58.071 46.484 58.8808 46.484V44.984V43.484C58.2506 43.484 57.7964 43.4198 57.4841 43.3284L57.0628 44.768ZM58.8808 44.984V46.484C59.8404 46.484 60.865 46.3137 61.6447 45.6802L60.6988 44.516L59.7529 43.3518C59.7667 43.3406 59.7297 43.3764 59.5823 43.4144C59.4335 43.4527 59.2066 43.484 58.8808 43.484V44.984ZM60.6988 44.516L61.6447 45.6802C62.4054 45.0621 62.7748 44.2009 62.7748 43.256H61.2748H59.7748C59.7748 43.297 59.771 43.322 59.7686 43.334C59.7663 43.3455 59.7647 43.3474 59.7666 43.3434C59.7685 43.3391 59.7709 43.3355 59.772 43.3342C59.7727 43.3332 59.7681 43.3395 59.7529 43.3518L60.6988 44.516ZM61.2748 43.256H62.7748C62.7748 42.7095 62.6517 42.1312 62.3068 41.6139L61.0588 42.446L59.8107 43.278C59.7984 43.2597 59.7892 43.2423 59.7825 43.2273C59.7759 43.2125 59.7727 43.2018 59.7714 43.197C59.7689 43.1877 59.7748 43.2042 59.7748 43.256H61.2748ZM61.0588 42.446L62.3569 41.6944C62.0824 41.2203 61.6931 40.8499 61.2236 40.5917L60.5008 41.906L59.7779 43.2203C59.7833 43.2233 59.7852 43.2248 59.7843 43.2241C59.7835 43.2235 59.7808 43.2215 59.7771 43.2179C59.7734 43.2143 59.7698 43.2103 59.7666 43.2061C59.7633 43.202 59.7614 43.1989 59.7606 43.1976L61.0588 42.446ZM60.5008 41.906L61.2725 40.6198C60.8288 40.3535 60.3417 40.2035 59.8489 40.1331L59.6368 41.618L59.4246 43.1029C59.6038 43.1285 59.6928 43.1705 59.729 43.1922L60.5008 41.906ZM59.6368 41.618L59.9099 40.1431C59.4852 40.0644 59.0449 40.028 58.5928 40.028V41.528V43.028C58.8847 43.028 59.1404 43.0516 59.3636 43.0929L59.6368 41.618ZM58.5928 41.528V40.028H57.5488V41.528V43.028H58.5928V41.528ZM57.5488 41.528H59.0488V39.368H57.5488H56.0488V41.528H57.5488ZM57.5488 39.368V40.868H58.7368V39.368V37.868H57.5488V39.368ZM58.7368 39.368V40.868C59.0919 40.868 59.4428 40.8357 59.7869 40.7669L59.4928 39.296L59.1986 37.8251C59.0627 37.8523 58.9097 37.868 58.7368 37.868V39.368ZM59.4928 39.296L59.7734 40.7695C60.1593 40.696 60.5395 40.5689 60.8942 40.3694L60.1588 39.062L59.4234 37.7546C59.3941 37.7711 59.3302 37.8 59.2121 37.8225L59.4928 39.296ZM60.1588 39.062L60.9538 40.334C61.3526 40.0847 61.6815 39.7466 61.9161 39.3294L60.6088 38.594L59.3014 37.8586C59.3085 37.846 59.3195 37.8304 59.334 37.8153C59.3484 37.8004 59.36 37.7924 59.3638 37.79L60.1588 39.062ZM60.6088 38.594L61.9017 39.3545C62.189 38.866 62.2888 38.3349 62.2888 37.838H60.7888H59.2888C59.2888 37.8889 59.2836 37.9086 59.2846 37.9046C59.2851 37.9023 59.2872 37.894 59.2923 37.8813C59.2974 37.8683 59.305 37.852 59.3159 37.8335L60.6088 38.594ZM60.7888 37.838H62.2888C62.2888 37.3958 62.194 36.9319 61.9471 36.4998L60.6448 37.244L59.3424 37.9882C59.3169 37.9436 59.3024 37.9026 59.295 37.8719C59.2878 37.8424 59.2888 37.8292 59.2888 37.838H60.7888ZM60.6448 37.244L61.9471 36.4998C61.7423 36.1413 61.4645 35.8348 61.1206 35.5967L60.2668 36.83L59.413 38.0633C59.3997 38.0541 59.3847 38.0415 59.3705 38.0259C59.3564 38.0104 59.3473 37.9968 59.3424 37.9882L60.6448 37.244ZM60.2668 36.83L61.1668 35.63C60.8322 35.3791 60.461 35.2236 60.0883 35.1359L59.7448 36.596L59.4012 38.0561C59.4195 38.0604 59.4226 38.0628 59.4147 38.0593C59.4062 38.0555 59.3888 38.0465 59.3668 38.03L60.2668 36.83ZM59.7448 36.596L60.1922 35.1643C59.8533 35.0584 59.5043 35.006 59.1508 35.006V36.506V38.006C59.2052 38.006 59.2522 38.0136 59.2974 38.0277L59.7448 36.596ZM59.1508 36.506V35.006C58.4817 35.006 57.832 35.1075 57.2135 35.3248L57.7108 36.74L58.208 38.1552C58.4776 38.0605 58.7878 38.006 59.1508 38.006V36.506ZM57.7108 36.74L57.2013 35.3292C56.6746 35.5194 56.1792 35.7581 55.7202 36.0488L56.5228 37.316L57.3253 38.5832C57.5863 38.4179 57.883 38.2726 58.2202 38.1508L57.7108 36.74ZM56.5228 37.316L57.8717 36.6601L56.9177 34.6981L55.5688 35.354L54.2198 36.0099L55.1738 37.9719L56.5228 37.316ZM55.5688 35.354L56.3638 36.626C56.5166 36.5305 56.7044 36.4233 56.9308 36.3047L56.2348 34.976L55.5388 33.6473C55.2612 33.7927 55.005 33.9375 54.7738 34.082L55.5688 35.354ZM56.2348 34.976L56.9056 36.3176C57.1049 36.218 57.332 36.1226 57.5894 36.0335L57.0988 34.616L56.6081 33.1985C56.2416 33.3254 55.8927 33.47 55.5639 33.6344L56.2348 34.976ZM57.0988 34.616L57.5894 36.0335C57.8359 35.9482 58.1032 35.8748 58.3927 35.8149L58.0888 34.346L57.7849 32.8771C57.3783 32.9612 56.9856 33.0678 56.6081 33.1985L57.0988 34.616ZM58.0888 34.346L58.3829 35.8169C58.6388 35.7657 58.9179 35.738 59.2228 35.738V34.238V32.738C58.7357 32.738 58.2587 32.7823 57.7946 32.8751L58.0888 34.346ZM59.2228 34.238V35.738C59.8385 35.738 60.2966 35.8145 60.6288 35.9278L61.1128 34.508L61.5968 33.0882C60.8729 32.8415 60.071 32.738 59.2228 32.738V34.238ZM61.1128 34.508L60.6672 35.9403C61.0326 36.054 61.2676 36.1995 61.4226 36.3438L62.4448 35.246L63.4669 34.1482C62.9259 33.6445 62.2729 33.298 61.5584 33.0757L61.1128 34.508ZM62.4448 35.246L61.4434 36.3629C61.6176 36.519 61.7389 36.6951 61.8208 36.9057L63.2188 36.362L64.6168 35.8183C64.3627 35.1649 63.968 34.597 63.4461 34.1291L62.4448 35.246ZM63.2188 36.362L61.8261 36.9191C61.9155 37.1428 61.9708 37.4131 61.9708 37.748H63.4708H64.9708C64.9708 37.0749 64.858 36.4212 64.6115 35.8049L63.2188 36.362ZM63.4708 37.748H61.9708C61.9708 37.9446 61.9192 38.1641 61.7647 38.426L63.0568 39.188L64.3488 39.95C64.7464 39.2759 64.9708 38.5354 64.9708 37.748H63.4708ZM63.0568 39.188L61.7735 38.4113C61.6395 38.6328 61.4733 38.786 61.2563 38.8973L61.9408 40.232L62.6252 41.5667C63.3442 41.198 63.9221 40.6552 64.34 39.9647L63.0568 39.188ZM61.9408 40.232L61.3748 41.6211C61.7735 41.7836 62.0186 41.9971 62.1823 42.2455L63.4348 41.42L64.6872 40.5945C64.1549 39.7869 63.404 39.2084 62.5067 38.8429L61.9408 40.232ZM63.4348 41.42L62.2046 42.2783C62.3615 42.5032 62.4748 42.8153 62.4748 43.292H63.9748H65.4748C65.4748 42.3047 65.228 41.3688 64.665 40.5617L63.4348 41.42ZM63.9748 43.292H62.4748C62.4748 43.6984 62.4077 44.0456 62.2894 44.3487L63.6868 44.894L65.0841 45.4393C65.3499 44.7584 65.4748 44.0376 65.4748 43.292H63.9748ZM63.6868 44.894L62.2941 44.3369C62.1938 44.5875 62.0358 44.8162 61.7943 45.0292L62.7868 46.154L63.7792 47.2788C64.3537 46.7718 64.7957 46.1605 65.0795 45.4511L63.6868 44.894ZM62.7868 46.154L61.8133 45.0127C61.5886 45.2045 61.2545 45.3959 60.7626 45.5537L61.2208 46.982L61.6789 48.4103C62.4591 48.1601 63.169 47.7995 63.7602 47.2953L62.7868 46.154ZM61.2208 46.982L60.7796 45.5483C60.3362 45.6848 59.7485 45.77 58.9888 45.77V47.27V48.77C59.957 48.77 60.8573 48.6632 61.6619 48.4157L61.2208 46.982Z" fill="black" mask="url(#path-6-outside-1_2084_71)"/>
</g>
</svg>
