<svg width="90" height="90" viewBox="0 0 90 90" fill="none" xmlns="http://www.w3.org/2000/svg">
<mask id="mask0_2056_33" style="mask-type:alpha" maskUnits="userSpaceOnUse" x="0" y="0" width="90" height="90">
<rect width="90" height="90" fill="#D9D9D9"/>
</mask>
<g mask="url(#mask0_2056_33)">
<path fill-rule="evenodd" clip-rule="evenodd" d="M0 25H90V35H34.6569C42.7438 40.1065 49.6263 46.9473 54.7818 55H90V65H60.0184C63.2277 72.6959 65 81.141 65 90C65 125.899 35.8985 155 0 155C-35.8985 155 -65 125.899 -65 90C-65 54.1015 -35.8985 25 0 25ZM42.4284 55H0C-19.33 55 -35 70.67 -35 90C-35 109.33 -19.33 125 0 125C19.33 125 35 109.33 35 90C35 80.2066 30.9777 71.3526 24.4949 65H49.0029C52.8372 72.5007 55 80.9978 55 90C55 120.376 30.3757 145 0 145C-30.3757 145 -55 120.376 -55 90C-55 59.6243 -30.3757 35 0 35C17.0794 35 32.3405 42.785 42.4284 55ZM-25 90C-25 76.1929 -13.8071 65 0 65C13.8071 65 25 76.1929 25 90C25 103.807 13.8071 115 0 115C-13.8071 115 -25 103.807 -25 90Z" fill="#00FF00"/>
</g>
</svg>
