<svg width="90" height="90" viewBox="0 0 90 90" fill="none" xmlns="http://www.w3.org/2000/svg">
<mask id="mask0_2056_16" style="mask-type:alpha" maskUnits="userSpaceOnUse" x="0" y="0" width="90" height="90">
<rect width="90" height="90" fill="#D9D9D9"/>
</mask>
<g mask="url(#mask0_2056_16)">
<path fill-rule="evenodd" clip-rule="evenodd" d="M90 25H0V35H55.3431C47.2562 40.1065 40.3737 46.9473 35.2182 55H0V65H29.9816C26.7723 72.6959 25 81.141 25 90C25 125.899 54.1015 155 90 155C125.899 155 155 125.899 155 90C155 54.1015 125.899 25 90 25ZM40.9971 65C37.1628 72.5007 35 80.9978 35 90C35 120.376 59.6243 145 90 145C120.376 145 145 120.376 145 90C145 59.6243 120.376 35 90 35C72.9206 35 57.6595 42.785 47.5716 55H90C109.33 55 125 70.67 125 90C125 109.33 109.33 125 90 125C70.67 125 55 109.33 55 90C55 80.2066 59.0223 71.3526 65.5051 65H40.9971ZM65 90C65 76.1929 76.1929 65 90 65C103.807 65 115 76.1929 115 90C115 103.807 103.807 115 90 115C76.1929 115 65 103.807 65 90Z" fill="#00FF00"/>
</g>
</svg>
