<svg width="90" height="90" viewBox="0 0 90 90" fill="none" xmlns="http://www.w3.org/2000/svg">
<mask id="mask0_41_204" style="mask-type:alpha" maskUnits="userSpaceOnUse" x="0" y="0" width="90" height="90">
<rect width="90" height="90" fill="#D9D9D9"/>
</mask>
<g mask="url(#mask0_41_204)">
<path d="M32 43H58C69.4269 43 79.4548 48.9894 85.1159 58V42.1159C85.1159 19.9605 67.1554 2 45 2V2C22.8446 2 4.88412 19.9605 4.88412 42.1159L4.88412 58C10.5452 48.9894 20.5731 43 32 43Z" fill="#00FF00"/>
<path d="M32 58H58C58 58 75 58 75 75C75 92 75 88 75 88H88V75C88 68.7538 88.2104 62.9255 85.1159 58C79.4548 48.9894 69.4269 43 58 43H32C20.5731 43 10.5452 48.9894 4.88412 58C1.78963 62.9255 1.99999 68.7538 1.99999 75L1.99999 88H15C15 88 15 92 15 75C15 58 32 58 32 58Z" fill="#00FF00"/>
<path d="M4.88412 58C1.78963 62.9255 1.99999 68.7538 1.99999 75L1.99999 88H15C15 88 15 92 15 75C15 58 32 58 32 58H58C58 58 75 58 75 75C75 92 75 88 75 88H88V75C88 68.7538 88.2104 62.9255 85.1159 58M4.88412 58C10.5452 48.9894 20.5731 43 32 43H58C69.4269 43 79.4548 48.9894 85.1159 58M4.88412 58L4.88412 42.1159C4.88412 19.9605 22.8446 2 45 2V2C67.1554 2 85.1159 19.9605 85.1159 42.1159V58" stroke="black" stroke-width="1.5"/>
</g>
</svg>
