<svg width="90" height="90" viewBox="0 0 90 90" fill="none" xmlns="http://www.w3.org/2000/svg">
<mask id="mask0_21_138" style="mask-type:alpha" maskUnits="userSpaceOnUse" x="0" y="0" width="90" height="90">
<rect width="90" height="90" fill="#D9D9D9"/>
</mask>
<g mask="url(#mask0_21_138)">
<rect x="1.71467" y="15.4074" width="17.5" height="61.5" transform="rotate(-1 1.71467 15.4074)" fill="#8F8555" stroke="black" stroke-width="1.5"/>
<rect x="26.503" y="10.9664" width="17.5" height="71.5" transform="rotate(2 26.503 10.9664)" fill="#8F8555" stroke="black" stroke-width="1.5"/>
<rect x="-0.75" y="54.25" width="46.5" height="11.5" fill="#E2F5FF" stroke="black" stroke-width="1.5"/>
<rect x="-0.75" y="24.25" width="46.5" height="11.5" fill="#E2F5FF" stroke="black" stroke-width="1.5"/>
<path d="M47 32V58C47 69.4269 41.0107 79.4548 32 85.1159H47.8841C70.0395 85.1159 88 67.1554 88 45C88 22.8446 70.0395 4.88413 47.8841 4.88413H32C41.0107 10.5452 47 20.5731 47 32Z" fill="white"/>
<path d="M30.5355 30.5355C31.4732 31.4732 32 32.745 32 34.0711V55.9289C32 57.255 31.4732 58.5268 30.5355 59.4645L16.4645 73.5355C15.5268 74.4732 14.255 75 12.9289 75H2V88H15C21.2463 88 27.0745 88.2104 32 85.1159C41.0107 79.4548 47 69.4269 47 58V32C47 20.5731 41.0107 10.5452 32 4.88413C27.0745 1.78964 21.2463 2 15 2H2V15H12.9289C14.255 15 15.5268 15.5268 16.4645 16.4645L30.5355 30.5355Z" fill="white"/>
<path d="M32 4.88413C27.0745 1.78964 21.2463 2 15 2H2V15H12.9289C14.255 15 15.5268 15.5268 16.4645 16.4645L30.5355 30.5355C31.4732 31.4732 32 32.745 32 34.0711V55.9289C32 57.255 31.4732 58.5268 30.5355 59.4645L16.4645 73.5355C15.5268 74.4732 14.255 75 12.9289 75H2V88H15C21.2463 88 27.0745 88.2104 32 85.1159M32 4.88413C41.0107 10.5452 47 20.5731 47 32V58C47 69.4269 41.0107 79.4548 32 85.1159M32 4.88413H47.8841C70.0395 4.88413 88 22.8446 88 45V45C88 67.1554 70.0395 85.1159 47.8841 85.1159H32" stroke="black" stroke-width="1.5"/>
</g>
</svg>
