<svg width="90" height="90" viewBox="0 0 90 90" fill="none" xmlns="http://www.w3.org/2000/svg">
<mask id="mask0_43_267" style="mask-type:alpha" maskUnits="userSpaceOnUse" x="0" y="0" width="90" height="90">
<rect width="90" height="90" fill="#D9D9D9"/>
</mask>
<g mask="url(#mask0_43_267)">
<rect x="1.71467" y="15.4074" width="17.5" height="61.5" transform="rotate(-1 1.71467 15.4074)" fill="#8F8555" stroke="black" stroke-width="1.5"/>
<rect x="26.503" y="10.9664" width="17.5" height="71.5" transform="rotate(2 26.503 10.9664)" fill="#8F8555" stroke="black" stroke-width="1.5"/>
<rect x="46.7147" y="15.4074" width="17.5" height="61.5" transform="rotate(-1 46.7147 15.4074)" fill="#8F8555" stroke="black" stroke-width="1.5"/>
<rect x="70.503" y="10.9664" width="17.5" height="71.5" transform="rotate(2 70.503 10.9664)" fill="#8F8555" stroke="black" stroke-width="1.5"/>
<rect x="-0.75" y="54.25" width="91.5" height="11.5" fill="#E2F5FF" stroke="black" stroke-width="1.5"/>
<rect x="-0.75" y="24.25" width="91.5" height="11.5" fill="#E2F5FF" stroke="black" stroke-width="1.5"/>
<path fill-rule="evenodd" clip-rule="evenodd" d="M59 44.917V31.1826C59 30.0832 59.896 28.9834 61 28.9834H81C82.1041 28.9834 83.0001 30.0832 83.0001 31.1826V44.917H59ZM78.968 51.1153V51.0831C78.968 49.9916 79.858 49.1075 80.954 49.1075H80.9841C82.0801 49.1075 82.9681 49.9916 82.9681 51.0831V51.1153C82.9681 52.2067 82.0801 53.0909 80.9841 53.0909H80.954C79.858 53.0909 78.968 52.2067 78.968 51.1153ZM61.016 53.0909H60.984C59.888 53.0909 59 52.2067 59 51.1153C59 50.0238 59.888 49.1397 60.984 49.1397H61.016C62.112 49.1397 63 50.0238 63 51.1153C63 52.2067 62.112 53.0909 61.016 53.0909ZM59 25C56.79 25 55 26.9916 55 29.1904V45.1241V53.0909C55 55.2917 56.79 56.8672 59 56.8672H63.712L61.626 62.0714C61.136 63.0732 61 64.3328 63 64.8028V64.8282C63 65.2883 64.742 64.7827 65.22 63.8067L68.164 56.8672H73.904L77.918 63.8448C78.404 64.8048 79 65.2569 81 64.8028V64.8282C81 64.3542 81.9961 63.04 81.486 62.0362L78.384 56.8672H83.0001C85.2101 56.8672 87.0001 55.2917 87.0001 53.0909V45.1241V29.1904C87.0001 26.9916 85.2101 25 83.0001 25H59Z" fill="white" stroke="black" stroke-width="1.5"/>
<mask id="path-9-outside-1_43_267" maskUnits="userSpaceOnUse" x="63" y="30" width="16" height="15" fill="black">
<rect fill="white" x="63" y="30" width="16" height="15"/>
<path d="M64.6863 31.912H67.1823V43H64.6863V31.912ZM69.7488 31.912H72.2448V43H69.7488V31.912ZM74.8113 31.912H77.3073V43H74.8113V31.912Z"/>
</mask>
<path d="M64.6863 31.912H67.1823V43H64.6863V31.912ZM69.7488 31.912H72.2448V43H69.7488V31.912ZM74.8113 31.912H77.3073V43H74.8113V31.912Z" fill="white"/>
<path d="M64.6863 31.912V30.412H63.1863V31.912H64.6863ZM67.1823 31.912H68.6823V30.412H67.1823V31.912ZM67.1823 43V44.5H68.6823V43H67.1823ZM64.6863 43H63.1863V44.5H64.6863V43ZM64.6863 33.412H67.1823V30.412H64.6863V33.412ZM65.6823 31.912V43H68.6823V31.912H65.6823ZM67.1823 41.5H64.6863V44.5H67.1823V41.5ZM66.1863 43V31.912H63.1863V43H66.1863ZM69.7487 31.912V30.412H68.2487V31.912H69.7487ZM72.2448 31.912H73.7448V30.412H72.2448V31.912ZM72.2448 43V44.5H73.7448V43H72.2448ZM69.7487 43H68.2487V44.5H69.7487V43ZM69.7487 33.412H72.2448V30.412H69.7487V33.412ZM70.7448 31.912V43H73.7448V31.912H70.7448ZM72.2448 41.5H69.7487V44.5H72.2448V41.5ZM71.2487 43V31.912H68.2487V43H71.2487ZM74.8112 31.912V30.412H73.3112V31.912H74.8112ZM77.3073 31.912H78.8073V30.412H77.3073V31.912ZM77.3073 43V44.5H78.8073V43H77.3073ZM74.8112 43H73.3112V44.5H74.8112V43ZM74.8112 33.412H77.3073V30.412H74.8112V33.412ZM75.8073 31.912V43H78.8073V31.912H75.8073ZM77.3073 41.5H74.8112V44.5H77.3073V41.5ZM76.3113 43V31.912H73.3112V43H76.3113Z" fill="black" mask="url(#path-9-outside-1_43_267)"/>
<path d="M40 50.1079V38.8921C40 38.0887 40.8995 37.6133 41.5633 38.0659L49.7882 43.6738C50.3704 44.0707 50.3704 44.9293 49.7882 45.3262L41.5633 50.9341C40.8995 51.3867 40 50.9113 40 50.1079Z" fill="white" stroke="black" stroke-width="1.5"/>
<path d="M30 50.1079V38.8921C30 38.0887 30.8995 37.6133 31.5633 38.0659L39.7882 43.6738C40.3704 44.0707 40.3704 44.9293 39.7882 45.3262L31.5633 50.9341C30.8995 51.3867 30 50.9113 30 50.1079Z" fill="white" stroke="black" stroke-width="1.5"/>
<path d="M20 50.1079V38.8921C20 38.0887 20.8995 37.6133 21.5633 38.0659L29.7882 43.6738C30.3704 44.0707 30.3704 44.9293 29.7882 45.3262L21.5633 50.9341C20.8995 51.3867 20 50.9113 20 50.1079Z" fill="white" stroke="black" stroke-width="1.5"/>
</g>
</svg>
