<svg width="90" height="90" viewBox="0 0 90 90" fill="none" xmlns="http://www.w3.org/2000/svg">
<mask id="mask0_43_282" style="mask-type:alpha" maskUnits="userSpaceOnUse" x="0" y="0" width="90" height="90">
<rect width="90" height="90" fill="#D9D9D9"/>
</mask>
<g mask="url(#mask0_43_282)">
<rect x="1.71467" y="15.4074" width="17.5" height="61.5" transform="rotate(-1 1.71467 15.4074)" fill="#8F8555" stroke="black" stroke-width="1.5"/>
<rect x="26.503" y="10.9664" width="17.5" height="71.5" transform="rotate(2 26.503 10.9664)" fill="#8F8555" stroke="black" stroke-width="1.5"/>
<rect x="46.7147" y="15.4074" width="17.5" height="61.5" transform="rotate(-1 46.7147 15.4074)" fill="#8F8555" stroke="black" stroke-width="1.5"/>
<rect x="70.503" y="10.9664" width="17.5" height="71.5" transform="rotate(2 70.503 10.9664)" fill="#8F8555" stroke="black" stroke-width="1.5"/>
<rect x="-0.75" y="54.25" width="91.5" height="11.5" fill="#E2F5FF" stroke="black" stroke-width="1.5"/>
<rect x="-0.75" y="24.25" width="91.5" height="11.5" fill="#E2F5FF" stroke="black" stroke-width="1.5"/>
<path fill-rule="evenodd" clip-rule="evenodd" d="M30 44.917V31.1826C30 30.0832 29.104 28.9834 28 28.9834H7.99995C6.89595 28.9834 5.99995 30.0832 5.99995 31.1826V44.917H30ZM10.032 51.1153V51.0831C10.032 49.9916 9.14195 49.1075 8.04595 49.1075H8.01595C6.91995 49.1075 6.03195 49.9916 6.03195 51.0831V51.1153C6.03195 52.2067 6.91995 53.0909 8.01595 53.0909H8.04595C9.14195 53.0909 10.032 52.2067 10.032 51.1153ZM27.984 53.0909H28.016C29.112 53.0909 30 52.2067 30 51.1153C30 50.0238 29.112 49.1397 28.016 49.1397H27.984C26.888 49.1397 26 50.0238 26 51.1153C26 52.2067 26.888 53.0909 27.984 53.0909ZM30 25C32.21 25 34 26.9916 34 29.1904V45.1241V53.0909C34 55.2917 32.21 56.8672 30 56.8672H25.288L27.374 62.0714C27.864 63.0732 28 64.3328 26 64.8028V64.8282C26 65.2883 24.258 64.7827 23.78 63.8067L20.836 56.8672H15.096L11.082 63.8448C10.596 64.8048 9.99995 65.2569 7.99995 64.8028V64.8282C7.99995 64.3542 7.00395 63.04 7.51395 62.0362L10.616 56.8672H5.99995C3.78994 56.8672 1.99994 55.2917 1.99994 53.0909V45.1241V29.1904C1.99994 26.9916 3.78994 25 5.99995 25H30Z" fill="white" stroke="black" stroke-width="1.5"/>
<mask id="path-9-outside-1_43_282" maskUnits="userSpaceOnUse" x="10" y="30" width="16" height="15" fill="black">
<rect fill="white" x="10" y="30" width="16" height="15"/>
<path d="M24.3137 31.912H21.8177V43H24.3137V31.912ZM19.2512 31.912H16.7552V43H19.2512V31.912ZM14.1887 31.912H11.6927V43H14.1887V31.912Z"/>
</mask>
<path d="M24.3137 31.912H21.8177V43H24.3137V31.912ZM19.2512 31.912H16.7552V43H19.2512V31.912ZM14.1887 31.912H11.6927V43H14.1887V31.912Z" fill="white"/>
<path d="M24.3137 31.912V30.412H25.8137V31.912H24.3137ZM21.8177 31.912H20.3177V30.412H21.8177V31.912ZM21.8177 43V44.5H20.3177V43H21.8177ZM24.3137 43H25.8137V44.5H24.3137V43ZM24.3137 33.412H21.8177V30.412H24.3137V33.412ZM23.3177 31.912V43H20.3177V31.912H23.3177ZM21.8177 41.5H24.3137V44.5H21.8177V41.5ZM22.8137 43V31.912H25.8137V43H22.8137ZM19.2513 31.912V30.412H20.7513V31.912H19.2513ZM16.7552 31.912H15.2552V30.412H16.7552V31.912ZM16.7552 43V44.5H15.2552V43H16.7552ZM19.2513 43H20.7513V44.5H19.2513V43ZM19.2513 33.412H16.7552V30.412H19.2513V33.412ZM18.2552 31.912V43H15.2552V31.912H18.2552ZM16.7552 41.5H19.2513V44.5H16.7552V41.5ZM17.7513 43V31.912H20.7513V43H17.7513ZM14.1888 31.912V30.412H15.6888V31.912H14.1888ZM11.6927 31.912H10.1927V30.412H11.6927V31.912ZM11.6927 43V44.5H10.1927V43H11.6927ZM14.1888 43H15.6888V44.5H14.1888V43ZM14.1888 33.412H11.6927V30.412H14.1888V33.412ZM13.1927 31.912V43H10.1927V31.912H13.1927ZM11.6927 41.5H14.1888V44.5H11.6927V41.5ZM12.6887 43V31.912H15.6888V43H12.6887Z" fill="black" mask="url(#path-9-outside-1_43_282)"/>
<path d="M49 50.1079V38.8921C49 38.0887 48.1005 37.6133 47.4367 38.0659L39.2118 43.6738C38.6296 44.0707 38.6296 44.9293 39.2118 45.3262L47.4367 50.9341C48.1005 51.3867 49 50.9113 49 50.1079Z" fill="white" stroke="black" stroke-width="1.5"/>
<path d="M59 50.1079V38.8921C59 38.0887 58.1005 37.6133 57.4367 38.0659L49.2118 43.6738C48.6296 44.0707 48.6296 44.9293 49.2118 45.3262L57.4367 50.9341C58.1005 51.3867 59 50.9113 59 50.1079Z" fill="white" stroke="black" stroke-width="1.5"/>
<path d="M69 50.1079V38.8921C69 38.0887 68.1005 37.6133 67.4367 38.0659L59.2118 43.6738C58.6296 44.0707 58.6296 44.9293 59.2118 45.3262L67.4367 50.9341C68.1005 51.3867 69 50.9113 69 50.1079Z" fill="white" stroke="black" stroke-width="1.5"/>
</g>
</svg>
