<svg width="90" height="90" viewBox="0 0 90 90" fill="none" xmlns="http://www.w3.org/2000/svg">
<mask id="mask0_2007_143" style="mask-type:alpha" maskUnits="userSpaceOnUse" x="0" y="0" width="90" height="90">
<rect width="90" height="90" fill="#D9D9D9"/>
</mask>
<g mask="url(#mask0_2007_143)">
<rect x="1.71467" y="15.4074" width="17.5" height="61.5" transform="rotate(-1 1.71467 15.4074)" fill="#8F8555" stroke="black" stroke-width="1.5"/>
<rect x="26.503" y="10.9664" width="17.5" height="71.5" transform="rotate(2 26.503 10.9664)" fill="#8F8555" stroke="black" stroke-width="1.5"/>
<rect x="46.7147" y="15.4074" width="17.5" height="61.5" transform="rotate(-1 46.7147 15.4074)" fill="#8F8555" stroke="black" stroke-width="1.5"/>
<rect x="70.503" y="10.9664" width="17.5" height="71.5" transform="rotate(2 70.503 10.9664)" fill="#8F8555" stroke="black" stroke-width="1.5"/>
<rect x="-0.75" y="54.25" width="91.5" height="11.5" fill="#E2F5FF" stroke="black" stroke-width="1.5"/>
<rect x="-0.75" y="24.25" width="91.5" height="11.5" fill="#E2F5FF" stroke="black" stroke-width="1.5"/>
<path fill-rule="evenodd" clip-rule="evenodd" d="M30 44.917V31.1826C30 30.0832 29.104 28.9834 28 28.9834H7.99995C6.89595 28.9834 5.99995 30.0832 5.99995 31.1826V44.917H30ZM10.032 51.1153V51.0831C10.032 49.9916 9.14195 49.1075 8.04595 49.1075H8.01595C6.91995 49.1075 6.03195 49.9916 6.03195 51.0831V51.1153C6.03195 52.2067 6.91995 53.0909 8.01595 53.0909H8.04595C9.14195 53.0909 10.032 52.2067 10.032 51.1153ZM27.984 53.0909H28.016C29.112 53.0909 30 52.2067 30 51.1153C30 50.0238 29.112 49.1397 28.016 49.1397H27.984C26.888 49.1397 26 50.0238 26 51.1153C26 52.2067 26.888 53.0909 27.984 53.0909ZM30 25C32.21 25 34 26.9916 34 29.1904V45.1241V53.0909C34 55.2917 32.21 56.8672 30 56.8672H25.288L27.374 62.0714C27.864 63.0732 28 64.3328 26 64.8028V64.8282C26 65.2883 24.258 64.7827 23.78 63.8067L20.836 56.8672H15.096L11.082 63.8448C10.596 64.8048 9.99995 65.2569 7.99995 64.8028V64.8282C7.99995 64.3542 7.00395 63.04 7.51395 62.0362L10.616 56.8672H5.99995C3.78994 56.8672 1.99994 55.2917 1.99994 53.0909V45.1241V29.1904C1.99994 26.9916 3.78994 25 5.99995 25H30Z" fill="white" stroke="black" stroke-width="1.5"/>
<mask id="path-9-outside-1_2007_143" maskUnits="userSpaceOnUse" x="8" y="30" width="20" height="15" fill="black">
<rect fill="white" x="8" y="30" width="20" height="15"/>
<path d="M10.0263 34.216C10.3356 34.088 10.6556 33.944 10.9863 33.784C11.3276 33.6133 11.6583 33.432 11.9783 33.24C12.2983 33.0373 12.6023 32.8293 12.8903 32.616C13.1889 32.392 13.4556 32.1573 13.6903 31.912H15.3543V43H12.9703V35.016C12.6503 35.2293 12.2929 35.4267 11.8983 35.608C11.5036 35.7787 11.1196 35.928 10.7463 36.056L10.0263 34.216ZM25.936 34.824C25.936 35.2293 25.856 35.6187 25.696 35.992C25.536 36.3653 25.328 36.728 25.072 37.08C24.816 37.4213 24.528 37.752 24.208 38.072C23.888 38.392 23.5733 38.696 23.264 38.984C23.104 39.1333 22.928 39.304 22.736 39.496C22.5547 39.6773 22.3787 39.864 22.208 40.056C22.0373 40.248 21.8827 40.4293 21.744 40.6C21.616 40.76 21.536 40.8933 21.504 41H26.272V43H18.88C18.8587 42.8827 18.848 42.7333 18.848 42.552C18.848 42.3707 18.848 42.2427 18.848 42.168C18.848 41.656 18.928 41.1867 19.088 40.76C19.2587 40.3333 19.4773 39.9387 19.744 39.576C20.0107 39.2027 20.3093 38.856 20.64 38.536C20.9813 38.216 21.3173 37.896 21.648 37.576C21.904 37.3307 22.144 37.1013 22.368 36.888C22.592 36.664 22.7893 36.4507 22.96 36.248C23.1307 36.0347 23.264 35.8267 23.36 35.624C23.456 35.4107 23.504 35.1973 23.504 34.984C23.504 34.5147 23.3707 34.184 23.104 33.992C22.8373 33.8 22.5067 33.704 22.112 33.704C21.824 33.704 21.552 33.752 21.296 33.848C21.0507 33.9333 20.8213 34.04 20.608 34.168C20.4053 34.2853 20.2293 34.408 20.08 34.536C19.9307 34.6533 19.8187 34.7493 19.744 34.824L18.56 33.16C19.0293 32.7227 19.5733 32.3653 20.192 32.088C20.8213 31.8 21.4933 31.656 22.208 31.656C22.8587 31.656 23.4187 31.7307 23.888 31.88C24.3573 32.0293 24.7413 32.2427 25.04 32.52C25.3493 32.7867 25.5733 33.1173 25.712 33.512C25.8613 33.896 25.936 34.3333 25.936 34.824Z"/>
</mask>
<path d="M10.0263 34.216C10.3356 34.088 10.6556 33.944 10.9863 33.784C11.3276 33.6133 11.6583 33.432 11.9783 33.24C12.2983 33.0373 12.6023 32.8293 12.8903 32.616C13.1889 32.392 13.4556 32.1573 13.6903 31.912H15.3543V43H12.9703V35.016C12.6503 35.2293 12.2929 35.4267 11.8983 35.608C11.5036 35.7787 11.1196 35.928 10.7463 36.056L10.0263 34.216ZM25.936 34.824C25.936 35.2293 25.856 35.6187 25.696 35.992C25.536 36.3653 25.328 36.728 25.072 37.08C24.816 37.4213 24.528 37.752 24.208 38.072C23.888 38.392 23.5733 38.696 23.264 38.984C23.104 39.1333 22.928 39.304 22.736 39.496C22.5547 39.6773 22.3787 39.864 22.208 40.056C22.0373 40.248 21.8827 40.4293 21.744 40.6C21.616 40.76 21.536 40.8933 21.504 41H26.272V43H18.88C18.8587 42.8827 18.848 42.7333 18.848 42.552C18.848 42.3707 18.848 42.2427 18.848 42.168C18.848 41.656 18.928 41.1867 19.088 40.76C19.2587 40.3333 19.4773 39.9387 19.744 39.576C20.0107 39.2027 20.3093 38.856 20.64 38.536C20.9813 38.216 21.3173 37.896 21.648 37.576C21.904 37.3307 22.144 37.1013 22.368 36.888C22.592 36.664 22.7893 36.4507 22.96 36.248C23.1307 36.0347 23.264 35.8267 23.36 35.624C23.456 35.4107 23.504 35.1973 23.504 34.984C23.504 34.5147 23.3707 34.184 23.104 33.992C22.8373 33.8 22.5067 33.704 22.112 33.704C21.824 33.704 21.552 33.752 21.296 33.848C21.0507 33.9333 20.8213 34.04 20.608 34.168C20.4053 34.2853 20.2293 34.408 20.08 34.536C19.9307 34.6533 19.8187 34.7493 19.744 34.824L18.56 33.16C19.0293 32.7227 19.5733 32.3653 20.192 32.088C20.8213 31.8 21.4933 31.656 22.208 31.656C22.8587 31.656 23.4187 31.7307 23.888 31.88C24.3573 32.0293 24.7413 32.2427 25.04 32.52C25.3493 32.7867 25.5733 33.1173 25.712 33.512C25.8613 33.896 25.936 34.3333 25.936 34.824Z" fill="white"/>
<path d="M10.0263 34.216L9.45272 32.83L8.09326 33.3925L8.62939 34.7626L10.0263 34.216ZM10.9863 33.784L11.6396 35.1342L11.6484 35.13L11.6571 35.1256L10.9863 33.784ZM11.9783 33.24L12.75 34.5262L12.7655 34.5169L12.7808 34.5072L11.9783 33.24ZM12.8903 32.616L13.7831 33.8214L13.7902 33.816L12.8903 32.616ZM13.6903 31.912V30.412H13.0493L12.6063 30.8752L13.6903 31.912ZM15.3543 31.912H16.8543V30.412H15.3543V31.912ZM15.3543 43V44.5H16.8543V43H15.3543ZM12.9703 43H11.4703V44.5H12.9703V43ZM12.9703 35.016H14.4703V32.2132L12.1382 33.7679L12.9703 35.016ZM11.8983 35.608L12.4936 36.9848L12.5091 36.9781L12.5245 36.971L11.8983 35.608ZM10.7463 36.056L9.34939 36.6026L9.87313 37.9411L11.2327 37.4749L10.7463 36.056ZM10.0263 34.216L10.5998 35.602C10.9385 35.4619 11.2852 35.3057 11.6396 35.1342L10.9863 33.784L10.3329 32.4338C10.026 32.5823 9.73266 32.7141 9.45272 32.83L10.0263 34.216ZM10.9863 33.784L11.6571 35.1256C12.032 34.9382 12.3963 34.7384 12.75 34.5262L11.9783 33.24L11.2065 31.9538C10.9202 32.1256 10.6232 32.2885 10.3154 32.4424L10.9863 33.784ZM11.9783 33.24L12.7808 34.5072C13.1299 34.2861 13.4642 34.0576 13.7831 33.8213L12.8903 32.616L11.9974 31.4107C11.7403 31.6011 11.4666 31.7885 11.1757 31.9728L11.9783 33.24ZM12.8903 32.616L13.7902 33.816C14.1482 33.5475 14.4775 33.259 14.7742 32.9488L13.6903 31.912L12.6063 30.8752C12.4337 31.0556 12.2297 31.2364 11.9903 31.416L12.8903 32.616ZM13.6903 31.912V33.412H15.3543V31.912V30.412H13.6903V31.912ZM15.3543 31.912H13.8543V43H15.3543H16.8543V31.912H15.3543ZM15.3543 43V41.5H12.9703V43V44.5H15.3543V43ZM12.9703 43H14.4703V35.016H12.9703H11.4703V43H12.9703ZM12.9703 35.016L12.1382 33.7679C11.8914 33.9324 11.6041 34.0924 11.272 34.245L11.8983 35.608L12.5245 36.971C12.9817 36.761 13.4091 36.5262 13.8023 36.2641L12.9703 35.016ZM11.8983 35.608L11.3029 34.2312C10.9408 34.3878 10.5932 34.5228 10.2598 34.6371L10.7463 36.056L11.2327 37.4749C11.646 37.3332 12.0663 37.1696 12.4936 36.9848L11.8983 35.608ZM10.7463 36.056L12.1431 35.5094L11.4231 33.6694L10.0263 34.216L8.62939 34.7626L9.34939 36.6026L10.7463 36.056ZM25.696 35.992L27.0747 36.5829L27.0747 36.5829L25.696 35.992ZM25.072 37.08L26.272 37.98L26.2786 37.9712L26.2851 37.9623L25.072 37.08ZM23.264 38.984L22.2419 37.8862L22.2405 37.8874L23.264 38.984ZM22.736 39.496L21.6753 38.4353L21.6753 38.4353L22.736 39.496ZM22.208 40.056L21.0869 39.0595L21.0869 39.0595L22.208 40.056ZM21.744 40.6L20.5798 39.6541L20.5727 39.663L21.744 40.6ZM21.504 41L20.0673 40.569L19.488 42.5H21.504V41ZM26.272 41H27.772V39.5H26.272V41ZM26.272 43V44.5H27.772V43H26.272ZM18.88 43L17.4042 43.2683L17.6281 44.5H18.88V43ZM19.088 40.76L17.6953 40.2029L17.6892 40.2181L17.6835 40.2333L19.088 40.76ZM19.744 39.576L20.9525 40.4646L20.9586 40.4563L20.9646 40.4479L19.744 39.576ZM20.64 38.536L19.6141 37.4417L19.6054 37.4498L19.5969 37.4581L20.64 38.536ZM21.648 37.576L20.6101 36.493L20.6049 36.4981L21.648 37.576ZM22.368 36.888L23.4025 37.9742L23.4157 37.9616L23.4287 37.9487L22.368 36.888ZM22.96 36.248L24.1074 37.2142L24.1195 37.1998L24.1313 37.185L22.96 36.248ZM23.36 35.624L24.7156 36.2661L24.7219 36.2529L24.7279 36.2395L23.36 35.624ZM21.296 33.848L21.7888 35.2647L21.8058 35.2588L21.8227 35.2525L21.296 33.848ZM20.608 34.168L21.3596 35.4661L21.3697 35.4603L21.3797 35.4542L20.608 34.168ZM20.08 34.536L21.0067 35.7155L21.0319 35.6957L21.0562 35.6749L20.08 34.536ZM19.744 34.824L18.5218 35.6936L19.5503 37.139L20.8047 35.8847L19.744 34.824ZM18.56 33.16L17.5374 32.0626L16.5758 32.9587L17.3378 34.0296L18.56 33.16ZM20.192 32.088L20.8056 33.4568L20.8162 33.452L20.192 32.088ZM23.888 31.88L24.3428 30.4506L24.3428 30.4506L23.888 31.88ZM25.04 32.52L24.0193 33.6192L24.0396 33.638L24.0606 33.6561L25.04 32.52ZM25.712 33.512L24.2968 34.0092L24.305 34.0326L24.314 34.0557L25.712 33.512ZM25.936 34.824H24.436C24.436 35.0258 24.3974 35.2141 24.3173 35.4011L25.696 35.992L27.0747 36.5829C27.3146 36.0232 27.436 35.4329 27.436 34.824H25.936ZM25.696 35.992L24.3173 35.4011C24.2045 35.6644 24.0537 35.9299 23.8589 36.1977L25.072 37.08L26.2851 37.9623C26.6023 37.5261 26.8675 37.0663 27.0747 36.5829L25.696 35.992ZM25.072 37.08L23.872 36.18C23.6611 36.4612 23.4202 36.7385 23.1473 37.0113L24.208 38.072L25.2687 39.1327C25.6358 38.7655 25.9709 38.3814 26.272 37.98L25.072 37.08ZM24.208 38.072L23.1473 37.0113C22.8391 37.3196 22.5373 37.6111 22.2419 37.8862L23.264 38.984L24.2861 40.0818C24.6094 39.7809 24.9369 39.4644 25.2687 39.1327L24.208 38.072ZM23.264 38.984L22.2405 37.8874C22.0654 38.0509 21.8768 38.2339 21.6753 38.4353L22.736 39.496L23.7967 40.5567C23.9792 40.3741 24.1426 40.2158 24.2875 40.0806L23.264 38.984ZM22.736 39.496L21.6753 38.4353C21.4732 38.6375 21.277 38.8455 21.0869 39.0595L22.208 40.056L23.3291 41.0525C23.4803 40.8825 23.6361 40.7172 23.7967 40.5567L22.736 39.496ZM22.208 40.056L21.0869 39.0595C20.9039 39.2653 20.7346 39.4637 20.5798 39.6541L21.744 40.6L22.9082 41.5459C23.0308 41.395 23.1708 41.2307 23.3291 41.0525L22.208 40.056ZM21.744 40.6L20.5727 39.663C20.4083 39.8685 20.1831 40.1829 20.0673 40.569L21.504 41L22.9407 41.431C22.9244 41.4855 22.9074 41.5254 22.8963 41.5493C22.8849 41.5736 22.8765 41.588 22.8742 41.5917C22.8708 41.5975 22.8809 41.58 22.9153 41.537L21.744 40.6ZM21.504 41V42.5H26.272V41V39.5H21.504V41ZM26.272 41H24.772V43H26.272H27.772V41H26.272ZM26.272 43V41.5H18.88V43V44.5H26.272V43ZM18.88 43L20.3558 42.7317C20.3569 42.7379 20.3546 42.7266 20.3522 42.6931C20.3499 42.6605 20.348 42.6142 20.348 42.552H18.848H17.348C17.348 42.7821 17.3608 43.0295 17.4042 43.2683L18.88 43ZM18.848 42.552H20.348C20.348 42.5516 20.348 42.5513 20.348 42.5509C20.348 42.5506 20.348 42.5502 20.348 42.5499C20.348 42.5495 20.348 42.5492 20.348 42.5488C20.348 42.5485 20.348 42.5481 20.348 42.5478C20.348 42.5474 20.348 42.5471 20.348 42.5467C20.348 42.5464 20.348 42.546 20.348 42.5456C20.348 42.5453 20.348 42.5449 20.348 42.5446C20.348 42.5442 20.348 42.5439 20.348 42.5435C20.348 42.5432 20.348 42.5428 20.348 42.5425C20.348 42.5421 20.348 42.5418 20.348 42.5414C20.348 42.5411 20.348 42.5407 20.348 42.5404C20.348 42.54 20.348 42.5397 20.348 42.5393C20.348 42.539 20.348 42.5386 20.348 42.5383C20.348 42.5379 20.348 42.5376 20.348 42.5372C20.348 42.5369 20.348 42.5365 20.348 42.5362C20.348 42.5359 20.348 42.5355 20.348 42.5352C20.348 42.5348 20.348 42.5345 20.348 42.5341C20.348 42.5338 20.348 42.5334 20.348 42.5331C20.348 42.5327 20.348 42.5324 20.348 42.532C20.348 42.5317 20.348 42.5313 20.348 42.531C20.348 42.5306 20.348 42.5303 20.348 42.53C20.348 42.5296 20.348 42.5293 20.348 42.5289C20.348 42.5286 20.348 42.5282 20.348 42.5279C20.348 42.5275 20.348 42.5272 20.348 42.5269C20.348 42.5265 20.348 42.5262 20.348 42.5258C20.348 42.5255 20.348 42.5251 20.348 42.5248C20.348 42.5244 20.348 42.5241 20.348 42.5238C20.348 42.5234 20.348 42.5231 20.348 42.5227C20.348 42.5224 20.348 42.522 20.348 42.5217C20.348 42.5214 20.348 42.521 20.348 42.5207C20.348 42.5203 20.348 42.52 20.348 42.5196C20.348 42.5193 20.348 42.519 20.348 42.5186C20.348 42.5183 20.348 42.5179 20.348 42.5176C20.348 42.5173 20.348 42.5169 20.348 42.5166C20.348 42.5162 20.348 42.5159 20.348 42.5156C20.348 42.5152 20.348 42.5149 20.348 42.5145C20.348 42.5142 20.348 42.5139 20.348 42.5135C20.348 42.5132 20.348 42.5128 20.348 42.5125C20.348 42.5122 20.348 42.5118 20.348 42.5115C20.348 42.5112 20.348 42.5108 20.348 42.5105C20.348 42.5101 20.348 42.5098 20.348 42.5095C20.348 42.5091 20.348 42.5088 20.348 42.5085C20.348 42.5081 20.348 42.5078 20.348 42.5074C20.348 42.5071 20.348 42.5068 20.348 42.5064C20.348 42.5061 20.348 42.5058 20.348 42.5054C20.348 42.5051 20.348 42.5048 20.348 42.5044C20.348 42.5041 20.348 42.5037 20.348 42.5034C20.348 42.5031 20.348 42.5027 20.348 42.5024C20.348 42.5021 20.348 42.5017 20.348 42.5014C20.348 42.5011 20.348 42.5007 20.348 42.5004C20.348 42.5001 20.348 42.4997 20.348 42.4994C20.348 42.4991 20.348 42.4987 20.348 42.4984C20.348 42.4981 20.348 42.4977 20.348 42.4974C20.348 42.4971 20.348 42.4967 20.348 42.4964C20.348 42.4961 20.348 42.4957 20.348 42.4954C20.348 42.4951 20.348 42.4947 20.348 42.4944C20.348 42.4941 20.348 42.4938 20.348 42.4934C20.348 42.4931 20.348 42.4928 20.348 42.4924C20.348 42.4921 20.348 42.4918 20.348 42.4914C20.348 42.4911 20.348 42.4908 20.348 42.4904C20.348 42.4901 20.348 42.4898 20.348 42.4895C20.348 42.4891 20.348 42.4888 20.348 42.4885C20.348 42.4881 20.348 42.4878 20.348 42.4875C20.348 42.4872 20.348 42.4868 20.348 42.4865C20.348 42.4862 20.348 42.4858 20.348 42.4855C20.348 42.4852 20.348 42.4849 20.348 42.4845C20.348 42.4842 20.348 42.4839 20.348 42.4836C20.348 42.4832 20.348 42.4829 20.348 42.4826C20.348 42.4822 20.348 42.4819 20.348 42.4816C20.348 42.4813 20.348 42.4809 20.348 42.4806C20.348 42.4803 20.348 42.48 20.348 42.4796C20.348 42.4793 20.348 42.479 20.348 42.4787C20.348 42.4783 20.348 42.478 20.348 42.4777C20.348 42.4774 20.348 42.477 20.348 42.4767C20.348 42.4764 20.348 42.4761 20.348 42.4757C20.348 42.4754 20.348 42.4751 20.348 42.4748C20.348 42.4745 20.348 42.4741 20.348 42.4738C20.348 42.4735 20.348 42.4732 20.348 42.4728C20.348 42.4725 20.348 42.4722 20.348 42.4719C20.348 42.4715 20.348 42.4712 20.348 42.4709C20.348 42.4706 20.348 42.4703 20.348 42.4699C20.348 42.4696 20.348 42.4693 20.348 42.469C20.348 42.4687 20.348 42.4683 20.348 42.468C20.348 42.4677 20.348 42.4674 20.348 42.4671C20.348 42.4667 20.348 42.4664 20.348 42.4661C20.348 42.4658 20.348 42.4655 20.348 42.4651C20.348 42.4648 20.348 42.4645 20.348 42.4642C20.348 42.4639 20.348 42.4635 20.348 42.4632C20.348 42.4629 20.348 42.4626 20.348 42.4623C20.348 42.462 20.348 42.4616 20.348 42.4613C20.348 42.461 20.348 42.4607 20.348 42.4604C20.348 42.46 20.348 42.4597 20.348 42.4594C20.348 42.4591 20.348 42.4588 20.348 42.4585C20.348 42.4582 20.348 42.4578 20.348 42.4575C20.348 42.4572 20.348 42.4569 20.348 42.4566C20.348 42.4563 20.348 42.4559 20.348 42.4556C20.348 42.4553 20.348 42.455 20.348 42.4547C20.348 42.4544 20.348 42.4541 20.348 42.4537C20.348 42.4534 20.348 42.4531 20.348 42.4528C20.348 42.4525 20.348 42.4522 20.348 42.4519C20.348 42.4515 20.348 42.4512 20.348 42.4509C20.348 42.4506 20.348 42.4503 20.348 42.45C20.348 42.4497 20.348 42.4493 20.348 42.449C20.348 42.4487 20.348 42.4484 20.348 42.4481C20.348 42.4478 20.348 42.4475 20.348 42.4472C20.348 42.4469 20.348 42.4465 20.348 42.4462C20.348 42.4459 20.348 42.4456 20.348 42.4453C20.348 42.445 20.348 42.4447 20.348 42.4444C20.348 42.4441 20.348 42.4437 20.348 42.4434C20.348 42.4431 20.348 42.4428 20.348 42.4425C20.348 42.4422 20.348 42.4419 20.348 42.4416C20.348 42.4413 20.348 42.441 20.348 42.4407C20.348 42.4403 20.348 42.44 20.348 42.4397C20.348 42.4394 20.348 42.4391 20.348 42.4388C20.348 42.4385 20.348 42.4382 20.348 42.4379C20.348 42.4376 20.348 42.4373 20.348 42.437C20.348 42.4367 20.348 42.4363 20.348 42.436C20.348 42.4357 20.348 42.4354 20.348 42.4351C20.348 42.4348 20.348 42.4345 20.348 42.4342C20.348 42.4339 20.348 42.4336 20.348 42.4333C20.348 42.433 20.348 42.4327 20.348 42.4324C20.348 42.4321 20.348 42.4318 20.348 42.4315C20.348 42.4312 20.348 42.4309 20.348 42.4305C20.348 42.4302 20.348 42.4299 20.348 42.4296C20.348 42.4293 20.348 42.429 20.348 42.4287C20.348 42.4284 20.348 42.4281 20.348 42.4278C20.348 42.4275 20.348 42.4272 20.348 42.4269C20.348 42.4266 20.348 42.4263 20.348 42.426C20.348 42.4257 20.348 42.4254 20.348 42.4251C20.348 42.4248 20.348 42.4245 20.348 42.4242C20.348 42.4239 20.348 42.4236 20.348 42.4233C20.348 42.423 20.348 42.4227 20.348 42.4224C20.348 42.4221 20.348 42.4218 20.348 42.4215C20.348 42.4212 20.348 42.4209 20.348 42.4206C20.348 42.4203 20.348 42.42 20.348 42.4197C20.348 42.4194 20.348 42.4191 20.348 42.4188C20.348 42.4185 20.348 42.4182 20.348 42.4179C20.348 42.4176 20.348 42.4173 20.348 42.417C20.348 42.4167 20.348 42.4164 20.348 42.4161C20.348 42.4158 20.348 42.4155 20.348 42.4152C20.348 42.4149 20.348 42.4146 20.348 42.4143C20.348 42.414 20.348 42.4137 20.348 42.4134C20.348 42.4131 20.348 42.4128 20.348 42.4125C20.348 42.4122 20.348 42.412 20.348 42.4117C20.348 42.4114 20.348 42.4111 20.348 42.4108C20.348 42.4105 20.348 42.4102 20.348 42.4099C20.348 42.4096 20.348 42.4093 20.348 42.409C20.348 42.4087 20.348 42.4084 20.348 42.4081C20.348 42.4078 20.348 42.4075 20.348 42.4072C20.348 42.4069 20.348 42.4067 20.348 42.4064C20.348 42.4061 20.348 42.4058 20.348 42.4055C20.348 42.4052 20.348 42.4049 20.348 42.4046C20.348 42.4043 20.348 42.404 20.348 42.4037C20.348 42.4034 20.348 42.4031 20.348 42.4029C20.348 42.4026 20.348 42.4023 20.348 42.402C20.348 42.4017 20.348 42.4014 20.348 42.4011C20.348 42.4008 20.348 42.4005 20.348 42.4002C20.348 42.3999 20.348 42.3997 20.348 42.3994C20.348 42.3991 20.348 42.3988 20.348 42.3985C20.348 42.3982 20.348 42.3979 20.348 42.3976C20.348 42.3973 20.348 42.397 20.348 42.3968C20.348 42.3965 20.348 42.3962 20.348 42.3959C20.348 42.3956 20.348 42.3953 20.348 42.395C20.348 42.3947 20.348 42.3945 20.348 42.3942C20.348 42.3939 20.348 42.3936 20.348 42.3933C20.348 42.393 20.348 42.3927 20.348 42.3924C20.348 42.3922 20.348 42.3919 20.348 42.3916C20.348 42.3913 20.348 42.391 20.348 42.3907C20.348 42.3904 20.348 42.3902 20.348 42.3899C20.348 42.3896 20.348 42.3893 20.348 42.389C20.348 42.3887 20.348 42.3884 20.348 42.3882C20.348 42.3879 20.348 42.3876 20.348 42.3873C20.348 42.387 20.348 42.3867 20.348 42.3865C20.348 42.3862 20.348 42.3859 20.348 42.3856C20.348 42.3853 20.348 42.385 20.348 42.3848C20.348 42.3845 20.348 42.3842 20.348 42.3839C20.348 42.3836 20.348 42.3833 20.348 42.3831C20.348 42.3828 20.348 42.3825 20.348 42.3822C20.348 42.3819 20.348 42.3817 20.348 42.3814C20.348 42.3811 20.348 42.3808 20.348 42.3805C20.348 42.3802 20.348 42.38 20.348 42.3797C20.348 42.3794 20.348 42.3791 20.348 42.3788C20.348 42.3786 20.348 42.3783 20.348 42.378C20.348 42.3777 20.348 42.3774 20.348 42.3772C20.348 42.3769 20.348 42.3766 20.348 42.3763C20.348 42.376 20.348 42.3758 20.348 42.3755C20.348 42.3752 20.348 42.3749 20.348 42.3747C20.348 42.3744 20.348 42.3741 20.348 42.3738C20.348 42.3735 20.348 42.3733 20.348 42.373C20.348 42.3727 20.348 42.3724 20.348 42.3722C20.348 42.3719 20.348 42.3716 20.348 42.3713C20.348 42.3711 20.348 42.3708 20.348 42.3705C20.348 42.3702 20.348 42.3699 20.348 42.3697C20.348 42.3694 20.348 42.3691 20.348 42.3688C20.348 42.3686 20.348 42.3683 20.348 42.368C20.348 42.3677 20.348 42.3675 20.348 42.3672C20.348 42.3669 20.348 42.3666 20.348 42.3664C20.348 42.3661 20.348 42.3658 20.348 42.3656C20.348 42.3653 20.348 42.365 20.348 42.3647C20.348 42.3645 20.348 42.3642 20.348 42.3639C20.348 42.3636 20.348 42.3634 20.348 42.3631C20.348 42.3628 20.348 42.3626 20.348 42.3623C20.348 42.362 20.348 42.3617 20.348 42.3615C20.348 42.3612 20.348 42.3609 20.348 42.3607C20.348 42.3604 20.348 42.3601 20.348 42.3598C20.348 42.3596 20.348 42.3593 20.348 42.359C20.348 42.3588 20.348 42.3585 20.348 42.3582C20.348 42.3579 20.348 42.3577 20.348 42.3574C20.348 42.3571 20.348 42.3569 20.348 42.3566C20.348 42.3563 20.348 42.3561 20.348 42.3558C20.348 42.3555 20.348 42.3553 20.348 42.355C20.348 42.3547 20.348 42.3544 20.348 42.3542C20.348 42.3539 20.348 42.3536 20.348 42.3534C20.348 42.3531 20.348 42.3528 20.348 42.3526C20.348 42.3523 20.348 42.352 20.348 42.3518C20.348 42.3515 20.348 42.3512 20.348 42.351C20.348 42.3507 20.348 42.3504 20.348 42.3502C20.348 42.3499 20.348 42.3496 20.348 42.3494C20.348 42.3491 20.348 42.3489 20.348 42.3486C20.348 42.3483 20.348 42.3481 20.348 42.3478C20.348 42.3475 20.348 42.3473 20.348 42.347C20.348 42.3467 20.348 42.3465 20.348 42.3462C20.348 42.3459 20.348 42.3457 20.348 42.3454C20.348 42.3452 20.348 42.3449 20.348 42.3446C20.348 42.3444 20.348 42.3441 20.348 42.3438C20.348 42.3436 20.348 42.3433 20.348 42.343C20.348 42.3428 20.348 42.3425 20.348 42.3423C20.348 42.342 20.348 42.3417 20.348 42.3415C20.348 42.3412 20.348 42.341 20.348 42.3407C20.348 42.3404 20.348 42.3402 20.348 42.3399C20.348 42.3397 20.348 42.3394 20.348 42.3391C20.348 42.3389 20.348 42.3386 20.348 42.3384C20.348 42.3381 20.348 42.3378 20.348 42.3376C20.348 42.3373 20.348 42.3371 20.348 42.3368C20.348 42.3365 20.348 42.3363 20.348 42.336C20.348 42.3358 20.348 42.3355 20.348 42.3352C20.348 42.335 20.348 42.3347 20.348 42.3345C20.348 42.3342 20.348 42.334 20.348 42.3337C20.348 42.3334 20.348 42.3332 20.348 42.3329C20.348 42.3327 20.348 42.3324 20.348 42.3322C20.348 42.3319 20.348 42.3316 20.348 42.3314C20.348 42.3311 20.348 42.3309 20.348 42.3306C20.348 42.3304 20.348 42.3301 20.348 42.3299C20.348 42.3296 20.348 42.3293 20.348 42.3291C20.348 42.3288 20.348 42.3286 20.348 42.3283C20.348 42.3281 20.348 42.3278 20.348 42.3276C20.348 42.3273 20.348 42.3271 20.348 42.3268C20.348 42.3265 20.348 42.3263 20.348 42.326C20.348 42.3258 20.348 42.3255 20.348 42.3253C20.348 42.325 20.348 42.3248 20.348 42.3245C20.348 42.3243 20.348 42.324 20.348 42.3238C20.348 42.3235 20.348 42.3233 20.348 42.323C20.348 42.3228 20.348 42.3225 20.348 42.3223C20.348 42.322 20.348 42.3218 20.348 42.3215C20.348 42.3213 20.348 42.321 20.348 42.3208C20.348 42.3205 20.348 42.3202 20.348 42.32C20.348 42.3197 20.348 42.3195 20.348 42.3193C20.348 42.319 20.348 42.3188 20.348 42.3185C20.348 42.3183 20.348 42.318 20.348 42.3178C20.348 42.3175 20.348 42.3173 20.348 42.317C20.348 42.3168 20.348 42.3165 20.348 42.3163C20.348 42.316 20.348 42.3158 20.348 42.3155C20.348 42.3153 20.348 42.315 20.348 42.3148C20.348 42.3145 20.348 42.3143 20.348 42.314C20.348 42.3138 20.348 42.3135 20.348 42.3133C20.348 42.3131 20.348 42.3128 20.348 42.3126C20.348 42.3123 20.348 42.3121 20.348 42.3118C20.348 42.3116 20.348 42.3113 20.348 42.3111C20.348 42.3108 20.348 42.3106 20.348 42.3104C20.348 42.3101 20.348 42.3099 20.348 42.3096C20.348 42.3094 20.348 42.3091 20.348 42.3089C20.348 42.3086 20.348 42.3084 20.348 42.3082C20.348 42.3079 20.348 42.3077 20.348 42.3074C20.348 42.3072 20.348 42.3069 20.348 42.3067C20.348 42.3065 20.348 42.3062 20.348 42.306C20.348 42.3057 20.348 42.3055 20.348 42.3052C20.348 42.305 20.348 42.3048 20.348 42.3045C20.348 42.3043 20.348 42.304 20.348 42.3038C20.348 42.3036 20.348 42.3033 20.348 42.3031C20.348 42.3028 20.348 42.3026 20.348 42.3024C20.348 42.3021 20.348 42.3019 20.348 42.3016C20.348 42.3014 20.348 42.3012 20.348 42.3009C20.348 42.3007 20.348 42.3004 20.348 42.3002C20.348 42.3 20.348 42.2997 20.348 42.2995C20.348 42.2992 20.348 42.299 20.348 42.2988C20.348 42.2985 20.348 42.2983 20.348 42.298C20.348 42.2978 20.348 42.2976 20.348 42.2973C20.348 42.2971 20.348 42.2969 20.348 42.2966C20.348 42.2964 20.348 42.2962 20.348 42.2959C20.348 42.2957 20.348 42.2954 20.348 42.2952C20.348 42.295 20.348 42.2947 20.348 42.2945C20.348 42.2943 20.348 42.294 20.348 42.2938C20.348 42.2936 20.348 42.2933 20.348 42.2931C20.348 42.2929 20.348 42.2926 20.348 42.2924C20.348 42.2921 20.348 42.2919 20.348 42.2917C20.348 42.2914 20.348 42.2912 20.348 42.291C20.348 42.2907 20.348 42.2905 20.348 42.2903C20.348 42.29 20.348 42.2898 20.348 42.2896C20.348 42.2893 20.348 42.2891 20.348 42.2889C20.348 42.2886 20.348 42.2884 20.348 42.2882C20.348 42.2879 20.348 42.2877 20.348 42.2875C20.348 42.2873 20.348 42.287 20.348 42.2868C20.348 42.2866 20.348 42.2863 20.348 42.2861C20.348 42.2859 20.348 42.2856 20.348 42.2854C20.348 42.2852 20.348 42.2849 20.348 42.2847C20.348 42.2845 20.348 42.2843 20.348 42.284C20.348 42.2838 20.348 42.2836 20.348 42.2833C20.348 42.2831 20.348 42.2829 20.348 42.2827C20.348 42.2824 20.348 42.2822 20.348 42.282C20.348 42.2817 20.348 42.2815 20.348 42.2813C20.348 42.2811 20.348 42.2808 20.348 42.2806C20.348 42.2804 20.348 42.2801 20.348 42.2799C20.348 42.2797 20.348 42.2795 20.348 42.2792C20.348 42.279 20.348 42.2788 20.348 42.2786C20.348 42.2783 20.348 42.2781 20.348 42.2779C20.348 42.2776 20.348 42.2774 20.348 42.2772C20.348 42.277 20.348 42.2767 20.348 42.2765C20.348 42.2763 20.348 42.2761 20.348 42.2758C20.348 42.2756 20.348 42.2754 20.348 42.2752C20.348 42.2749 20.348 42.2747 20.348 42.2745C20.348 42.2743 20.348 42.2741 20.348 42.2738C20.348 42.2736 20.348 42.2734 20.348 42.2732C20.348 42.2729 20.348 42.2727 20.348 42.2725C20.348 42.2723 20.348 42.272 20.348 42.2718C20.348 42.2716 20.348 42.2714 20.348 42.2712C20.348 42.2709 20.348 42.2707 20.348 42.2705C20.348 42.2703 20.348 42.27 20.348 42.2698C20.348 42.2696 20.348 42.2694 20.348 42.2692C20.348 42.2689 20.348 42.2687 20.348 42.2685C20.348 42.2683 20.348 42.2681 20.348 42.2678C20.348 42.2676 20.348 42.2674 20.348 42.2672C20.348 42.267 20.348 42.2667 20.348 42.2665C20.348 42.2663 20.348 42.2661 20.348 42.2659C20.348 42.2657 20.348 42.2654 20.348 42.2652C20.348 42.265 20.348 42.2648 20.348 42.2646C20.348 42.2643 20.348 42.2641 20.348 42.2639C20.348 42.2637 20.348 42.2635 20.348 42.2633C20.348 42.263 20.348 42.2628 20.348 42.2626C20.348 42.2624 20.348 42.2622 20.348 42.262C20.348 42.2617 20.348 42.2615 20.348 42.2613C20.348 42.2611 20.348 42.2609 20.348 42.2607C20.348 42.2604 20.348 42.2602 20.348 42.26C20.348 42.2598 20.348 42.2596 20.348 42.2594C20.348 42.2592 20.348 42.2589 20.348 42.2587C20.348 42.2585 20.348 42.2583 20.348 42.2581C20.348 42.2579 20.348 42.2577 20.348 42.2574C20.348 42.2572 20.348 42.257 20.348 42.2568C20.348 42.2566 20.348 42.2564 20.348 42.2562C20.348 42.256 20.348 42.2557 20.348 42.2555C20.348 42.2553 20.348 42.2551 20.348 42.2549C20.348 42.2547 20.348 42.2545 20.348 42.2543C20.348 42.254 20.348 42.2538 20.348 42.2536C20.348 42.2534 20.348 42.2532 20.348 42.253C20.348 42.2528 20.348 42.2526 20.348 42.2524C20.348 42.2522 20.348 42.2519 20.348 42.2517C20.348 42.2515 20.348 42.2513 20.348 42.2511C20.348 42.2509 20.348 42.2507 20.348 42.2505C20.348 42.2503 20.348 42.2501 20.348 42.2499C20.348 42.2496 20.348 42.2494 20.348 42.2492C20.348 42.249 20.348 42.2488 20.348 42.2486C20.348 42.2484 20.348 42.2482 20.348 42.248C20.348 42.2478 20.348 42.2476 20.348 42.2474C20.348 42.2472 20.348 42.2469 20.348 42.2467C20.348 42.2465 20.348 42.2463 20.348 42.2461C20.348 42.2459 20.348 42.2457 20.348 42.2455C20.348 42.2453 20.348 42.2451 20.348 42.2449C20.348 42.2447 20.348 42.2445 20.348 42.2443C20.348 42.2441 20.348 42.2439 20.348 42.2437C20.348 42.2435 20.348 42.2432 20.348 42.243C20.348 42.2428 20.348 42.2426 20.348 42.2424C20.348 42.2422 20.348 42.242 20.348 42.2418C20.348 42.2416 20.348 42.2414 20.348 42.2412C20.348 42.241 20.348 42.2408 20.348 42.2406C20.348 42.2404 20.348 42.2402 20.348 42.24C20.348 42.2398 20.348 42.2396 20.348 42.2394C20.348 42.2392 20.348 42.239 20.348 42.2388C20.348 42.2386 20.348 42.2384 20.348 42.2382C20.348 42.238 20.348 42.2378 20.348 42.2376C20.348 42.2374 20.348 42.2372 20.348 42.237C20.348 42.2368 20.348 42.2366 20.348 42.2364C20.348 42.2362 20.348 42.236 20.348 42.2358C20.348 42.2356 20.348 42.2354 20.348 42.2352C20.348 42.235 20.348 42.2348 20.348 42.2346C20.348 42.2344 20.348 42.2342 20.348 42.234C20.348 42.2338 20.348 42.2336 20.348 42.2334C20.348 42.2332 20.348 42.233 20.348 42.2328C20.348 42.2326 20.348 42.2324 20.348 42.2322C20.348 42.232 20.348 42.2318 20.348 42.2316C20.348 42.2314 20.348 42.2312 20.348 42.231C20.348 42.2309 20.348 42.2307 20.348 42.2305C20.348 42.2303 20.348 42.2301 20.348 42.2299C20.348 42.2297 20.348 42.2295 20.348 42.2293C20.348 42.2291 20.348 42.2289 20.348 42.2287C20.348 42.2285 20.348 42.2283 20.348 42.2281C20.348 42.2279 20.348 42.2277 20.348 42.2275C20.348 42.2273 20.348 42.2272 20.348 42.227C20.348 42.2268 20.348 42.2266 20.348 42.2264C20.348 42.2262 20.348 42.226 20.348 42.2258C20.348 42.2256 20.348 42.2254 20.348 42.2252C20.348 42.225 20.348 42.2248 20.348 42.2247C20.348 42.2245 20.348 42.2243 20.348 42.2241C20.348 42.2239 20.348 42.2237 20.348 42.2235C20.348 42.2233 20.348 42.2231 20.348 42.2229C20.348 42.2227 20.348 42.2226 20.348 42.2224C20.348 42.2222 20.348 42.222 20.348 42.2218C20.348 42.2216 20.348 42.2214 20.348 42.2212C20.348 42.221 20.348 42.2209 20.348 42.2207C20.348 42.2205 20.348 42.2203 20.348 42.2201C20.348 42.2199 20.348 42.2197 20.348 42.2195C20.348 42.2193 20.348 42.2192 20.348 42.219C20.348 42.2188 20.348 42.2186 20.348 42.2184C20.348 42.2182 20.348 42.218 20.348 42.2179C20.348 42.2177 20.348 42.2175 20.348 42.2173C20.348 42.2171 20.348 42.2169 20.348 42.2167C20.348 42.2166 20.348 42.2164 20.348 42.2162C20.348 42.216 20.348 42.2158 20.348 42.2156C20.348 42.2154 20.348 42.2153 20.348 42.2151C20.348 42.2149 20.348 42.2147 20.348 42.2145C20.348 42.2143 20.348 42.2142 20.348 42.214C20.348 42.2138 20.348 42.2136 20.348 42.2134C20.348 42.2132 20.348 42.213 20.348 42.2129C20.348 42.2127 20.348 42.2125 20.348 42.2123C20.348 42.2121 20.348 42.212 20.348 42.2118C20.348 42.2116 20.348 42.2114 20.348 42.2112C20.348 42.211 20.348 42.2109 20.348 42.2107C20.348 42.2105 20.348 42.2103 20.348 42.2101C20.348 42.21 20.348 42.2098 20.348 42.2096C20.348 42.2094 20.348 42.2092 20.348 42.2091C20.348 42.2089 20.348 42.2087 20.348 42.2085C20.348 42.2083 20.348 42.2082 20.348 42.208C20.348 42.2078 20.348 42.2076 20.348 42.2074C20.348 42.2073 20.348 42.2071 20.348 42.2069C20.348 42.2067 20.348 42.2065 20.348 42.2064C20.348 42.2062 20.348 42.206 20.348 42.2058C20.348 42.2057 20.348 42.2055 20.348 42.2053C20.348 42.2051 20.348 42.205 20.348 42.2048C20.348 42.2046 20.348 42.2044 20.348 42.2042C20.348 42.2041 20.348 42.2039 20.348 42.2037C20.348 42.2035 20.348 42.2034 20.348 42.2032C20.348 42.203 20.348 42.2028 20.348 42.2027C20.348 42.2025 20.348 42.2023 20.348 42.2021C20.348 42.202 20.348 42.2018 20.348 42.2016C20.348 42.2014 20.348 42.2013 20.348 42.2011C20.348 42.2009 20.348 42.2007 20.348 42.2006C20.348 42.2004 20.348 42.2002 20.348 42.2001C20.348 42.1999 20.348 42.1997 20.348 42.1995C20.348 42.1994 20.348 42.1992 20.348 42.199C20.348 42.1988 20.348 42.1987 20.348 42.1985C20.348 42.1983 20.348 42.1982 20.348 42.198C20.348 42.1978 20.348 42.1976 20.348 42.1975C20.348 42.1973 20.348 42.1971 20.348 42.197C20.348 42.1968 20.348 42.1966 20.348 42.1964C20.348 42.1963 20.348 42.1961 20.348 42.1959C20.348 42.1958 20.348 42.1956 20.348 42.1954C20.348 42.1953 20.348 42.1951 20.348 42.1949C20.348 42.1948 20.348 42.1946 20.348 42.1944C20.348 42.1942 20.348 42.1941 20.348 42.1939C20.348 42.1937 20.348 42.1936 20.348 42.1934C20.348 42.1932 20.348 42.1931 20.348 42.1929C20.348 42.1927 20.348 42.1926 20.348 42.1924C20.348 42.1922 20.348 42.1921 20.348 42.1919C20.348 42.1917 20.348 42.1916 20.348 42.1914C20.348 42.1912 20.348 42.1911 20.348 42.1909C20.348 42.1907 20.348 42.1906 20.348 42.1904C20.348 42.1902 20.348 42.1901 20.348 42.1899C20.348 42.1897 20.348 42.1896 20.348 42.1894C20.348 42.1893 20.348 42.1891 20.348 42.1889C20.348 42.1888 20.348 42.1886 20.348 42.1884C20.348 42.1883 20.348 42.1881 20.348 42.1879C20.348 42.1878 20.348 42.1876 20.348 42.1875C20.348 42.1873 20.348 42.1871 20.348 42.187C20.348 42.1868 20.348 42.1866 20.348 42.1865C20.348 42.1863 20.348 42.1862 20.348 42.186C20.348 42.1858 20.348 42.1857 20.348 42.1855C20.348 42.1853 20.348 42.1852 20.348 42.185C20.348 42.1849 20.348 42.1847 20.348 42.1845C20.348 42.1844 20.348 42.1842 20.348 42.1841C20.348 42.1839 20.348 42.1837 20.348 42.1836C20.348 42.1834 20.348 42.1833 20.348 42.1831C20.348 42.1829 20.348 42.1828 20.348 42.1826C20.348 42.1825 20.348 42.1823 20.348 42.1821C20.348 42.182 20.348 42.1818 20.348 42.1817C20.348 42.1815 20.348 42.1814 20.348 42.1812C20.348 42.181 20.348 42.1809 20.348 42.1807C20.348 42.1806 20.348 42.1804 20.348 42.1803C20.348 42.1801 20.348 42.1799 20.348 42.1798C20.348 42.1796 20.348 42.1795 20.348 42.1793C20.348 42.1792 20.348 42.179 20.348 42.1789C20.348 42.1787 20.348 42.1785 20.348 42.1784C20.348 42.1782 20.348 42.1781 20.348 42.1779C20.348 42.1778 20.348 42.1776 20.348 42.1775C20.348 42.1773 20.348 42.1771 20.348 42.177C20.348 42.1768 20.348 42.1767 20.348 42.1765C20.348 42.1764 20.348 42.1762 20.348 42.1761C20.348 42.1759 20.348 42.1758 20.348 42.1756C20.348 42.1755 20.348 42.1753 20.348 42.1752C20.348 42.175 20.348 42.1749 20.348 42.1747C20.348 42.1745 20.348 42.1744 20.348 42.1742C20.348 42.1741 20.348 42.1739 20.348 42.1738C20.348 42.1736 20.348 42.1735 20.348 42.1733C20.348 42.1732 20.348 42.173 20.348 42.1729C20.348 42.1727 20.348 42.1726 20.348 42.1724C20.348 42.1723 20.348 42.1721 20.348 42.172C20.348 42.1718 20.348 42.1717 20.348 42.1715C20.348 42.1714 20.348 42.1712 20.348 42.1711C20.348 42.1709 20.348 42.1708 20.348 42.1706C20.348 42.1705 20.348 42.1704 20.348 42.1702C20.348 42.1701 20.348 42.1699 20.348 42.1698C20.348 42.1696 20.348 42.1695 20.348 42.1693C20.348 42.1692 20.348 42.169 20.348 42.1689C20.348 42.1687 20.348 42.1686 20.348 42.1684C20.348 42.1683 20.348 42.1681 20.348 42.168H18.848H17.348C17.348 42.1681 17.348 42.1683 17.348 42.1684C17.348 42.1686 17.348 42.1687 17.348 42.1689C17.348 42.169 17.348 42.1692 17.348 42.1693C17.348 42.1695 17.348 42.1696 17.348 42.1698C17.348 42.1699 17.348 42.1701 17.348 42.1702C17.348 42.1704 17.348 42.1705 17.348 42.1706C17.348 42.1708 17.348 42.1709 17.348 42.1711C17.348 42.1712 17.348 42.1714 17.348 42.1715C17.348 42.1717 17.348 42.1718 17.348 42.172C17.348 42.1721 17.348 42.1723 17.348 42.1724C17.348 42.1726 17.348 42.1727 17.348 42.1729C17.348 42.173 17.348 42.1732 17.348 42.1733C17.348 42.1735 17.348 42.1736 17.348 42.1738C17.348 42.1739 17.348 42.1741 17.348 42.1742C17.348 42.1744 17.348 42.1745 17.348 42.1747C17.348 42.1749 17.348 42.175 17.348 42.1752C17.348 42.1753 17.348 42.1755 17.348 42.1756C17.348 42.1758 17.348 42.1759 17.348 42.1761C17.348 42.1762 17.348 42.1764 17.348 42.1765C17.348 42.1767 17.348 42.1768 17.348 42.177C17.348 42.1771 17.348 42.1773 17.348 42.1775C17.348 42.1776 17.348 42.1778 17.348 42.1779C17.348 42.1781 17.348 42.1782 17.348 42.1784C17.348 42.1785 17.348 42.1787 17.348 42.1789C17.348 42.179 17.348 42.1792 17.348 42.1793C17.348 42.1795 17.348 42.1796 17.348 42.1798C17.348 42.1799 17.348 42.1801 17.348 42.1803C17.348 42.1804 17.348 42.1806 17.348 42.1807C17.348 42.1809 17.348 42.181 17.348 42.1812C17.348 42.1814 17.348 42.1815 17.348 42.1817C17.348 42.1818 17.348 42.182 17.348 42.1821C17.348 42.1823 17.348 42.1825 17.348 42.1826C17.348 42.1828 17.348 42.1829 17.348 42.1831C17.348 42.1833 17.348 42.1834 17.348 42.1836C17.348 42.1837 17.348 42.1839 17.348 42.1841C17.348 42.1842 17.348 42.1844 17.348 42.1845C17.348 42.1847 17.348 42.1849 17.348 42.185C17.348 42.1852 17.348 42.1853 17.348 42.1855C17.348 42.1857 17.348 42.1858 17.348 42.186C17.348 42.1862 17.348 42.1863 17.348 42.1865C17.348 42.1866 17.348 42.1868 17.348 42.187C17.348 42.1871 17.348 42.1873 17.348 42.1875C17.348 42.1876 17.348 42.1878 17.348 42.1879C17.348 42.1881 17.348 42.1883 17.348 42.1884C17.348 42.1886 17.348 42.1888 17.348 42.1889C17.348 42.1891 17.348 42.1893 17.348 42.1894C17.348 42.1896 17.348 42.1897 17.348 42.1899C17.348 42.1901 17.348 42.1902 17.348 42.1904C17.348 42.1906 17.348 42.1907 17.348 42.1909C17.348 42.1911 17.348 42.1912 17.348 42.1914C17.348 42.1916 17.348 42.1917 17.348 42.1919C17.348 42.1921 17.348 42.1922 17.348 42.1924C17.348 42.1926 17.348 42.1927 17.348 42.1929C17.348 42.1931 17.348 42.1932 17.348 42.1934C17.348 42.1936 17.348 42.1937 17.348 42.1939C17.348 42.1941 17.348 42.1942 17.348 42.1944C17.348 42.1946 17.348 42.1948 17.348 42.1949C17.348 42.1951 17.348 42.1953 17.348 42.1954C17.348 42.1956 17.348 42.1958 17.348 42.1959C17.348 42.1961 17.348 42.1963 17.348 42.1964C17.348 42.1966 17.348 42.1968 17.348 42.197C17.348 42.1971 17.348 42.1973 17.348 42.1975C17.348 42.1976 17.348 42.1978 17.348 42.198C17.348 42.1982 17.348 42.1983 17.348 42.1985C17.348 42.1987 17.348 42.1988 17.348 42.199C17.348 42.1992 17.348 42.1994 17.348 42.1995C17.348 42.1997 17.348 42.1999 17.348 42.2001C17.348 42.2002 17.348 42.2004 17.348 42.2006C17.348 42.2007 17.348 42.2009 17.348 42.2011C17.348 42.2013 17.348 42.2014 17.348 42.2016C17.348 42.2018 17.348 42.202 17.348 42.2021C17.348 42.2023 17.348 42.2025 17.348 42.2027C17.348 42.2028 17.348 42.203 17.348 42.2032C17.348 42.2034 17.348 42.2035 17.348 42.2037C17.348 42.2039 17.348 42.2041 17.348 42.2042C17.348 42.2044 17.348 42.2046 17.348 42.2048C17.348 42.205 17.348 42.2051 17.348 42.2053C17.348 42.2055 17.348 42.2057 17.348 42.2058C17.348 42.206 17.348 42.2062 17.348 42.2064C17.348 42.2065 17.348 42.2067 17.348 42.2069C17.348 42.2071 17.348 42.2073 17.348 42.2074C17.348 42.2076 17.348 42.2078 17.348 42.208C17.348 42.2082 17.348 42.2083 17.348 42.2085C17.348 42.2087 17.348 42.2089 17.348 42.2091C17.348 42.2092 17.348 42.2094 17.348 42.2096C17.348 42.2098 17.348 42.21 17.348 42.2101C17.348 42.2103 17.348 42.2105 17.348 42.2107C17.348 42.2109 17.348 42.211 17.348 42.2112C17.348 42.2114 17.348 42.2116 17.348 42.2118C17.348 42.212 17.348 42.2121 17.348 42.2123C17.348 42.2125 17.348 42.2127 17.348 42.2129C17.348 42.213 17.348 42.2132 17.348 42.2134C17.348 42.2136 17.348 42.2138 17.348 42.214C17.348 42.2142 17.348 42.2143 17.348 42.2145C17.348 42.2147 17.348 42.2149 17.348 42.2151C17.348 42.2153 17.348 42.2154 17.348 42.2156C17.348 42.2158 17.348 42.216 17.348 42.2162C17.348 42.2164 17.348 42.2166 17.348 42.2167C17.348 42.2169 17.348 42.2171 17.348 42.2173C17.348 42.2175 17.348 42.2177 17.348 42.2179C17.348 42.218 17.348 42.2182 17.348 42.2184C17.348 42.2186 17.348 42.2188 17.348 42.219C17.348 42.2192 17.348 42.2193 17.348 42.2195C17.348 42.2197 17.348 42.2199 17.348 42.2201C17.348 42.2203 17.348 42.2205 17.348 42.2207C17.348 42.2209 17.348 42.221 17.348 42.2212C17.348 42.2214 17.348 42.2216 17.348 42.2218C17.348 42.222 17.348 42.2222 17.348 42.2224C17.348 42.2226 17.348 42.2227 17.348 42.2229C17.348 42.2231 17.348 42.2233 17.348 42.2235C17.348 42.2237 17.348 42.2239 17.348 42.2241C17.348 42.2243 17.348 42.2245 17.348 42.2247C17.348 42.2248 17.348 42.225 17.348 42.2252C17.348 42.2254 17.348 42.2256 17.348 42.2258C17.348 42.226 17.348 42.2262 17.348 42.2264C17.348 42.2266 17.348 42.2268 17.348 42.227C17.348 42.2272 17.348 42.2273 17.348 42.2275C17.348 42.2277 17.348 42.2279 17.348 42.2281C17.348 42.2283 17.348 42.2285 17.348 42.2287C17.348 42.2289 17.348 42.2291 17.348 42.2293C17.348 42.2295 17.348 42.2297 17.348 42.2299C17.348 42.2301 17.348 42.2303 17.348 42.2305C17.348 42.2307 17.348 42.2309 17.348 42.231C17.348 42.2312 17.348 42.2314 17.348 42.2316C17.348 42.2318 17.348 42.232 17.348 42.2322C17.348 42.2324 17.348 42.2326 17.348 42.2328C17.348 42.233 17.348 42.2332 17.348 42.2334C17.348 42.2336 17.348 42.2338 17.348 42.234C17.348 42.2342 17.348 42.2344 17.348 42.2346C17.348 42.2348 17.348 42.235 17.348 42.2352C17.348 42.2354 17.348 42.2356 17.348 42.2358C17.348 42.236 17.348 42.2362 17.348 42.2364C17.348 42.2366 17.348 42.2368 17.348 42.237C17.348 42.2372 17.348 42.2374 17.348 42.2376C17.348 42.2378 17.348 42.238 17.348 42.2382C17.348 42.2384 17.348 42.2386 17.348 42.2388C17.348 42.239 17.348 42.2392 17.348 42.2394C17.348 42.2396 17.348 42.2398 17.348 42.24C17.348 42.2402 17.348 42.2404 17.348 42.2406C17.348 42.2408 17.348 42.241 17.348 42.2412C17.348 42.2414 17.348 42.2416 17.348 42.2418C17.348 42.242 17.348 42.2422 17.348 42.2424C17.348 42.2426 17.348 42.2428 17.348 42.243C17.348 42.2432 17.348 42.2435 17.348 42.2437C17.348 42.2439 17.348 42.2441 17.348 42.2443C17.348 42.2445 17.348 42.2447 17.348 42.2449C17.348 42.2451 17.348 42.2453 17.348 42.2455C17.348 42.2457 17.348 42.2459 17.348 42.2461C17.348 42.2463 17.348 42.2465 17.348 42.2467C17.348 42.2469 17.348 42.2472 17.348 42.2474C17.348 42.2476 17.348 42.2478 17.348 42.248C17.348 42.2482 17.348 42.2484 17.348 42.2486C17.348 42.2488 17.348 42.249 17.348 42.2492C17.348 42.2494 17.348 42.2496 17.348 42.2499C17.348 42.2501 17.348 42.2503 17.348 42.2505C17.348 42.2507 17.348 42.2509 17.348 42.2511C17.348 42.2513 17.348 42.2515 17.348 42.2517C17.348 42.2519 17.348 42.2522 17.348 42.2524C17.348 42.2526 17.348 42.2528 17.348 42.253C17.348 42.2532 17.348 42.2534 17.348 42.2536C17.348 42.2538 17.348 42.254 17.348 42.2543C17.348 42.2545 17.348 42.2547 17.348 42.2549C17.348 42.2551 17.348 42.2553 17.348 42.2555C17.348 42.2557 17.348 42.256 17.348 42.2562C17.348 42.2564 17.348 42.2566 17.348 42.2568C17.348 42.257 17.348 42.2572 17.348 42.2574C17.348 42.2577 17.348 42.2579 17.348 42.2581C17.348 42.2583 17.348 42.2585 17.348 42.2587C17.348 42.2589 17.348 42.2592 17.348 42.2594C17.348 42.2596 17.348 42.2598 17.348 42.26C17.348 42.2602 17.348 42.2604 17.348 42.2607C17.348 42.2609 17.348 42.2611 17.348 42.2613C17.348 42.2615 17.348 42.2617 17.348 42.262C17.348 42.2622 17.348 42.2624 17.348 42.2626C17.348 42.2628 17.348 42.263 17.348 42.2633C17.348 42.2635 17.348 42.2637 17.348 42.2639C17.348 42.2641 17.348 42.2643 17.348 42.2646C17.348 42.2648 17.348 42.265 17.348 42.2652C17.348 42.2654 17.348 42.2657 17.348 42.2659C17.348 42.2661 17.348 42.2663 17.348 42.2665C17.348 42.2667 17.348 42.267 17.348 42.2672C17.348 42.2674 17.348 42.2676 17.348 42.2678C17.348 42.2681 17.348 42.2683 17.348 42.2685C17.348 42.2687 17.348 42.2689 17.348 42.2692C17.348 42.2694 17.348 42.2696 17.348 42.2698C17.348 42.27 17.348 42.2703 17.348 42.2705C17.348 42.2707 17.348 42.2709 17.348 42.2712C17.348 42.2714 17.348 42.2716 17.348 42.2718C17.348 42.272 17.348 42.2723 17.348 42.2725C17.348 42.2727 17.348 42.2729 17.348 42.2732C17.348 42.2734 17.348 42.2736 17.348 42.2738C17.348 42.2741 17.348 42.2743 17.348 42.2745C17.348 42.2747 17.348 42.2749 17.348 42.2752C17.348 42.2754 17.348 42.2756 17.348 42.2758C17.348 42.2761 17.348 42.2763 17.348 42.2765C17.348 42.2767 17.348 42.277 17.348 42.2772C17.348 42.2774 17.348 42.2776 17.348 42.2779C17.348 42.2781 17.348 42.2783 17.348 42.2786C17.348 42.2788 17.348 42.279 17.348 42.2792C17.348 42.2795 17.348 42.2797 17.348 42.2799C17.348 42.2801 17.348 42.2804 17.348 42.2806C17.348 42.2808 17.348 42.2811 17.348 42.2813C17.348 42.2815 17.348 42.2817 17.348 42.282C17.348 42.2822 17.348 42.2824 17.348 42.2827C17.348 42.2829 17.348 42.2831 17.348 42.2833C17.348 42.2836 17.348 42.2838 17.348 42.284C17.348 42.2843 17.348 42.2845 17.348 42.2847C17.348 42.2849 17.348 42.2852 17.348 42.2854C17.348 42.2856 17.348 42.2859 17.348 42.2861C17.348 42.2863 17.348 42.2866 17.348 42.2868C17.348 42.287 17.348 42.2873 17.348 42.2875C17.348 42.2877 17.348 42.2879 17.348 42.2882C17.348 42.2884 17.348 42.2886 17.348 42.2889C17.348 42.2891 17.348 42.2893 17.348 42.2896C17.348 42.2898 17.348 42.29 17.348 42.2903C17.348 42.2905 17.348 42.2907 17.348 42.291C17.348 42.2912 17.348 42.2914 17.348 42.2917C17.348 42.2919 17.348 42.2921 17.348 42.2924C17.348 42.2926 17.348 42.2929 17.348 42.2931C17.348 42.2933 17.348 42.2936 17.348 42.2938C17.348 42.294 17.348 42.2943 17.348 42.2945C17.348 42.2947 17.348 42.295 17.348 42.2952C17.348 42.2954 17.348 42.2957 17.348 42.2959C17.348 42.2962 17.348 42.2964 17.348 42.2966C17.348 42.2969 17.348 42.2971 17.348 42.2973C17.348 42.2976 17.348 42.2978 17.348 42.298C17.348 42.2983 17.348 42.2985 17.348 42.2988C17.348 42.299 17.348 42.2992 17.348 42.2995C17.348 42.2997 17.348 42.3 17.348 42.3002C17.348 42.3004 17.348 42.3007 17.348 42.3009C17.348 42.3012 17.348 42.3014 17.348 42.3016C17.348 42.3019 17.348 42.3021 17.348 42.3024C17.348 42.3026 17.348 42.3028 17.348 42.3031C17.348 42.3033 17.348 42.3036 17.348 42.3038C17.348 42.304 17.348 42.3043 17.348 42.3045C17.348 42.3048 17.348 42.305 17.348 42.3052C17.348 42.3055 17.348 42.3057 17.348 42.306C17.348 42.3062 17.348 42.3065 17.348 42.3067C17.348 42.3069 17.348 42.3072 17.348 42.3074C17.348 42.3077 17.348 42.3079 17.348 42.3082C17.348 42.3084 17.348 42.3086 17.348 42.3089C17.348 42.3091 17.348 42.3094 17.348 42.3096C17.348 42.3099 17.348 42.3101 17.348 42.3104C17.348 42.3106 17.348 42.3108 17.348 42.3111C17.348 42.3113 17.348 42.3116 17.348 42.3118C17.348 42.3121 17.348 42.3123 17.348 42.3126C17.348 42.3128 17.348 42.3131 17.348 42.3133C17.348 42.3135 17.348 42.3138 17.348 42.314C17.348 42.3143 17.348 42.3145 17.348 42.3148C17.348 42.315 17.348 42.3153 17.348 42.3155C17.348 42.3158 17.348 42.316 17.348 42.3163C17.348 42.3165 17.348 42.3168 17.348 42.317C17.348 42.3173 17.348 42.3175 17.348 42.3178C17.348 42.318 17.348 42.3183 17.348 42.3185C17.348 42.3188 17.348 42.319 17.348 42.3193C17.348 42.3195 17.348 42.3197 17.348 42.32C17.348 42.3202 17.348 42.3205 17.348 42.3208C17.348 42.321 17.348 42.3213 17.348 42.3215C17.348 42.3218 17.348 42.322 17.348 42.3223C17.348 42.3225 17.348 42.3228 17.348 42.323C17.348 42.3233 17.348 42.3235 17.348 42.3238C17.348 42.324 17.348 42.3243 17.348 42.3245C17.348 42.3248 17.348 42.325 17.348 42.3253C17.348 42.3255 17.348 42.3258 17.348 42.326C17.348 42.3263 17.348 42.3265 17.348 42.3268C17.348 42.3271 17.348 42.3273 17.348 42.3276C17.348 42.3278 17.348 42.3281 17.348 42.3283C17.348 42.3286 17.348 42.3288 17.348 42.3291C17.348 42.3293 17.348 42.3296 17.348 42.3299C17.348 42.3301 17.348 42.3304 17.348 42.3306C17.348 42.3309 17.348 42.3311 17.348 42.3314C17.348 42.3316 17.348 42.3319 17.348 42.3322C17.348 42.3324 17.348 42.3327 17.348 42.3329C17.348 42.3332 17.348 42.3334 17.348 42.3337C17.348 42.334 17.348 42.3342 17.348 42.3345C17.348 42.3347 17.348 42.335 17.348 42.3352C17.348 42.3355 17.348 42.3358 17.348 42.336C17.348 42.3363 17.348 42.3365 17.348 42.3368C17.348 42.3371 17.348 42.3373 17.348 42.3376C17.348 42.3378 17.348 42.3381 17.348 42.3384C17.348 42.3386 17.348 42.3389 17.348 42.3391C17.348 42.3394 17.348 42.3397 17.348 42.3399C17.348 42.3402 17.348 42.3404 17.348 42.3407C17.348 42.341 17.348 42.3412 17.348 42.3415C17.348 42.3417 17.348 42.342 17.348 42.3423C17.348 42.3425 17.348 42.3428 17.348 42.343C17.348 42.3433 17.348 42.3436 17.348 42.3438C17.348 42.3441 17.348 42.3444 17.348 42.3446C17.348 42.3449 17.348 42.3452 17.348 42.3454C17.348 42.3457 17.348 42.3459 17.348 42.3462C17.348 42.3465 17.348 42.3467 17.348 42.347C17.348 42.3473 17.348 42.3475 17.348 42.3478C17.348 42.3481 17.348 42.3483 17.348 42.3486C17.348 42.3489 17.348 42.3491 17.348 42.3494C17.348 42.3496 17.348 42.3499 17.348 42.3502C17.348 42.3504 17.348 42.3507 17.348 42.351C17.348 42.3512 17.348 42.3515 17.348 42.3518C17.348 42.352 17.348 42.3523 17.348 42.3526C17.348 42.3528 17.348 42.3531 17.348 42.3534C17.348 42.3536 17.348 42.3539 17.348 42.3542C17.348 42.3544 17.348 42.3547 17.348 42.355C17.348 42.3553 17.348 42.3555 17.348 42.3558C17.348 42.3561 17.348 42.3563 17.348 42.3566C17.348 42.3569 17.348 42.3571 17.348 42.3574C17.348 42.3577 17.348 42.3579 17.348 42.3582C17.348 42.3585 17.348 42.3588 17.348 42.359C17.348 42.3593 17.348 42.3596 17.348 42.3598C17.348 42.3601 17.348 42.3604 17.348 42.3607C17.348 42.3609 17.348 42.3612 17.348 42.3615C17.348 42.3617 17.348 42.362 17.348 42.3623C17.348 42.3626 17.348 42.3628 17.348 42.3631C17.348 42.3634 17.348 42.3636 17.348 42.3639C17.348 42.3642 17.348 42.3645 17.348 42.3647C17.348 42.365 17.348 42.3653 17.348 42.3656C17.348 42.3658 17.348 42.3661 17.348 42.3664C17.348 42.3666 17.348 42.3669 17.348 42.3672C17.348 42.3675 17.348 42.3677 17.348 42.368C17.348 42.3683 17.348 42.3686 17.348 42.3688C17.348 42.3691 17.348 42.3694 17.348 42.3697C17.348 42.3699 17.348 42.3702 17.348 42.3705C17.348 42.3708 17.348 42.3711 17.348 42.3713C17.348 42.3716 17.348 42.3719 17.348 42.3722C17.348 42.3724 17.348 42.3727 17.348 42.373C17.348 42.3733 17.348 42.3735 17.348 42.3738C17.348 42.3741 17.348 42.3744 17.348 42.3747C17.348 42.3749 17.348 42.3752 17.348 42.3755C17.348 42.3758 17.348 42.376 17.348 42.3763C17.348 42.3766 17.348 42.3769 17.348 42.3772C17.348 42.3774 17.348 42.3777 17.348 42.378C17.348 42.3783 17.348 42.3786 17.348 42.3788C17.348 42.3791 17.348 42.3794 17.348 42.3797C17.348 42.38 17.348 42.3802 17.348 42.3805C17.348 42.3808 17.348 42.3811 17.348 42.3814C17.348 42.3817 17.348 42.3819 17.348 42.3822C17.348 42.3825 17.348 42.3828 17.348 42.3831C17.348 42.3833 17.348 42.3836 17.348 42.3839C17.348 42.3842 17.348 42.3845 17.348 42.3848C17.348 42.385 17.348 42.3853 17.348 42.3856C17.348 42.3859 17.348 42.3862 17.348 42.3865C17.348 42.3867 17.348 42.387 17.348 42.3873C17.348 42.3876 17.348 42.3879 17.348 42.3882C17.348 42.3884 17.348 42.3887 17.348 42.389C17.348 42.3893 17.348 42.3896 17.348 42.3899C17.348 42.3902 17.348 42.3904 17.348 42.3907C17.348 42.391 17.348 42.3913 17.348 42.3916C17.348 42.3919 17.348 42.3922 17.348 42.3924C17.348 42.3927 17.348 42.393 17.348 42.3933C17.348 42.3936 17.348 42.3939 17.348 42.3942C17.348 42.3945 17.348 42.3947 17.348 42.395C17.348 42.3953 17.348 42.3956 17.348 42.3959C17.348 42.3962 17.348 42.3965 17.348 42.3968C17.348 42.397 17.348 42.3973 17.348 42.3976C17.348 42.3979 17.348 42.3982 17.348 42.3985C17.348 42.3988 17.348 42.3991 17.348 42.3994C17.348 42.3997 17.348 42.3999 17.348 42.4002C17.348 42.4005 17.348 42.4008 17.348 42.4011C17.348 42.4014 17.348 42.4017 17.348 42.402C17.348 42.4023 17.348 42.4026 17.348 42.4029C17.348 42.4031 17.348 42.4034 17.348 42.4037C17.348 42.404 17.348 42.4043 17.348 42.4046C17.348 42.4049 17.348 42.4052 17.348 42.4055C17.348 42.4058 17.348 42.4061 17.348 42.4064C17.348 42.4067 17.348 42.4069 17.348 42.4072C17.348 42.4075 17.348 42.4078 17.348 42.4081C17.348 42.4084 17.348 42.4087 17.348 42.409C17.348 42.4093 17.348 42.4096 17.348 42.4099C17.348 42.4102 17.348 42.4105 17.348 42.4108C17.348 42.4111 17.348 42.4114 17.348 42.4117C17.348 42.412 17.348 42.4122 17.348 42.4125C17.348 42.4128 17.348 42.4131 17.348 42.4134C17.348 42.4137 17.348 42.414 17.348 42.4143C17.348 42.4146 17.348 42.4149 17.348 42.4152C17.348 42.4155 17.348 42.4158 17.348 42.4161C17.348 42.4164 17.348 42.4167 17.348 42.417C17.348 42.4173 17.348 42.4176 17.348 42.4179C17.348 42.4182 17.348 42.4185 17.348 42.4188C17.348 42.4191 17.348 42.4194 17.348 42.4197C17.348 42.42 17.348 42.4203 17.348 42.4206C17.348 42.4209 17.348 42.4212 17.348 42.4215C17.348 42.4218 17.348 42.4221 17.348 42.4224C17.348 42.4227 17.348 42.423 17.348 42.4233C17.348 42.4236 17.348 42.4239 17.348 42.4242C17.348 42.4245 17.348 42.4248 17.348 42.4251C17.348 42.4254 17.348 42.4257 17.348 42.426C17.348 42.4263 17.348 42.4266 17.348 42.4269C17.348 42.4272 17.348 42.4275 17.348 42.4278C17.348 42.4281 17.348 42.4284 17.348 42.4287C17.348 42.429 17.348 42.4293 17.348 42.4296C17.348 42.4299 17.348 42.4302 17.348 42.4305C17.348 42.4309 17.348 42.4312 17.348 42.4315C17.348 42.4318 17.348 42.4321 17.348 42.4324C17.348 42.4327 17.348 42.433 17.348 42.4333C17.348 42.4336 17.348 42.4339 17.348 42.4342C17.348 42.4345 17.348 42.4348 17.348 42.4351C17.348 42.4354 17.348 42.4357 17.348 42.436C17.348 42.4363 17.348 42.4367 17.348 42.437C17.348 42.4373 17.348 42.4376 17.348 42.4379C17.348 42.4382 17.348 42.4385 17.348 42.4388C17.348 42.4391 17.348 42.4394 17.348 42.4397C17.348 42.44 17.348 42.4403 17.348 42.4407C17.348 42.441 17.348 42.4413 17.348 42.4416C17.348 42.4419 17.348 42.4422 17.348 42.4425C17.348 42.4428 17.348 42.4431 17.348 42.4434C17.348 42.4437 17.348 42.4441 17.348 42.4444C17.348 42.4447 17.348 42.445 17.348 42.4453C17.348 42.4456 17.348 42.4459 17.348 42.4462C17.348 42.4465 17.348 42.4469 17.348 42.4472C17.348 42.4475 17.348 42.4478 17.348 42.4481C17.348 42.4484 17.348 42.4487 17.348 42.449C17.348 42.4493 17.348 42.4497 17.348 42.45C17.348 42.4503 17.348 42.4506 17.348 42.4509C17.348 42.4512 17.348 42.4515 17.348 42.4519C17.348 42.4522 17.348 42.4525 17.348 42.4528C17.348 42.4531 17.348 42.4534 17.348 42.4537C17.348 42.4541 17.348 42.4544 17.348 42.4547C17.348 42.455 17.348 42.4553 17.348 42.4556C17.348 42.4559 17.348 42.4563 17.348 42.4566C17.348 42.4569 17.348 42.4572 17.348 42.4575C17.348 42.4578 17.348 42.4582 17.348 42.4585C17.348 42.4588 17.348 42.4591 17.348 42.4594C17.348 42.4597 17.348 42.46 17.348 42.4604C17.348 42.4607 17.348 42.461 17.348 42.4613C17.348 42.4616 17.348 42.462 17.348 42.4623C17.348 42.4626 17.348 42.4629 17.348 42.4632C17.348 42.4635 17.348 42.4639 17.348 42.4642C17.348 42.4645 17.348 42.4648 17.348 42.4651C17.348 42.4655 17.348 42.4658 17.348 42.4661C17.348 42.4664 17.348 42.4667 17.348 42.4671C17.348 42.4674 17.348 42.4677 17.348 42.468C17.348 42.4683 17.348 42.4687 17.348 42.469C17.348 42.4693 17.348 42.4696 17.348 42.4699C17.348 42.4703 17.348 42.4706 17.348 42.4709C17.348 42.4712 17.348 42.4715 17.348 42.4719C17.348 42.4722 17.348 42.4725 17.348 42.4728C17.348 42.4732 17.348 42.4735 17.348 42.4738C17.348 42.4741 17.348 42.4745 17.348 42.4748C17.348 42.4751 17.348 42.4754 17.348 42.4757C17.348 42.4761 17.348 42.4764 17.348 42.4767C17.348 42.477 17.348 42.4774 17.348 42.4777C17.348 42.478 17.348 42.4783 17.348 42.4787C17.348 42.479 17.348 42.4793 17.348 42.4796C17.348 42.48 17.348 42.4803 17.348 42.4806C17.348 42.4809 17.348 42.4813 17.348 42.4816C17.348 42.4819 17.348 42.4822 17.348 42.4826C17.348 42.4829 17.348 42.4832 17.348 42.4836C17.348 42.4839 17.348 42.4842 17.348 42.4845C17.348 42.4849 17.348 42.4852 17.348 42.4855C17.348 42.4858 17.348 42.4862 17.348 42.4865C17.348 42.4868 17.348 42.4872 17.348 42.4875C17.348 42.4878 17.348 42.4881 17.348 42.4885C17.348 42.4888 17.348 42.4891 17.348 42.4895C17.348 42.4898 17.348 42.4901 17.348 42.4904C17.348 42.4908 17.348 42.4911 17.348 42.4914C17.348 42.4918 17.348 42.4921 17.348 42.4924C17.348 42.4928 17.348 42.4931 17.348 42.4934C17.348 42.4938 17.348 42.4941 17.348 42.4944C17.348 42.4947 17.348 42.4951 17.348 42.4954C17.348 42.4957 17.348 42.4961 17.348 42.4964C17.348 42.4967 17.348 42.4971 17.348 42.4974C17.348 42.4977 17.348 42.4981 17.348 42.4984C17.348 42.4987 17.348 42.4991 17.348 42.4994C17.348 42.4997 17.348 42.5001 17.348 42.5004C17.348 42.5007 17.348 42.5011 17.348 42.5014C17.348 42.5017 17.348 42.5021 17.348 42.5024C17.348 42.5027 17.348 42.5031 17.348 42.5034C17.348 42.5037 17.348 42.5041 17.348 42.5044C17.348 42.5048 17.348 42.5051 17.348 42.5054C17.348 42.5058 17.348 42.5061 17.348 42.5064C17.348 42.5068 17.348 42.5071 17.348 42.5074C17.348 42.5078 17.348 42.5081 17.348 42.5085C17.348 42.5088 17.348 42.5091 17.348 42.5095C17.348 42.5098 17.348 42.5101 17.348 42.5105C17.348 42.5108 17.348 42.5112 17.348 42.5115C17.348 42.5118 17.348 42.5122 17.348 42.5125C17.348 42.5128 17.348 42.5132 17.348 42.5135C17.348 42.5139 17.348 42.5142 17.348 42.5145C17.348 42.5149 17.348 42.5152 17.348 42.5156C17.348 42.5159 17.348 42.5162 17.348 42.5166C17.348 42.5169 17.348 42.5173 17.348 42.5176C17.348 42.5179 17.348 42.5183 17.348 42.5186C17.348 42.519 17.348 42.5193 17.348 42.5196C17.348 42.52 17.348 42.5203 17.348 42.5207C17.348 42.521 17.348 42.5214 17.348 42.5217C17.348 42.522 17.348 42.5224 17.348 42.5227C17.348 42.5231 17.348 42.5234 17.348 42.5238C17.348 42.5241 17.348 42.5244 17.348 42.5248C17.348 42.5251 17.348 42.5255 17.348 42.5258C17.348 42.5262 17.348 42.5265 17.348 42.5269C17.348 42.5272 17.348 42.5275 17.348 42.5279C17.348 42.5282 17.348 42.5286 17.348 42.5289C17.348 42.5293 17.348 42.5296 17.348 42.53C17.348 42.5303 17.348 42.5306 17.348 42.531C17.348 42.5313 17.348 42.5317 17.348 42.532C17.348 42.5324 17.348 42.5327 17.348 42.5331C17.348 42.5334 17.348 42.5338 17.348 42.5341C17.348 42.5345 17.348 42.5348 17.348 42.5352C17.348 42.5355 17.348 42.5359 17.348 42.5362C17.348 42.5365 17.348 42.5369 17.348 42.5372C17.348 42.5376 17.348 42.5379 17.348 42.5383C17.348 42.5386 17.348 42.539 17.348 42.5393C17.348 42.5397 17.348 42.54 17.348 42.5404C17.348 42.5407 17.348 42.5411 17.348 42.5414C17.348 42.5418 17.348 42.5421 17.348 42.5425C17.348 42.5428 17.348 42.5432 17.348 42.5435C17.348 42.5439 17.348 42.5442 17.348 42.5446C17.348 42.5449 17.348 42.5453 17.348 42.5456C17.348 42.546 17.348 42.5464 17.348 42.5467C17.348 42.5471 17.348 42.5474 17.348 42.5478C17.348 42.5481 17.348 42.5485 17.348 42.5488C17.348 42.5492 17.348 42.5495 17.348 42.5499C17.348 42.5502 17.348 42.5506 17.348 42.5509C17.348 42.5513 17.348 42.5516 17.348 42.552H18.848ZM18.848 42.168H20.348C20.348 41.8138 20.403 41.5254 20.4925 41.2867L19.088 40.76L17.6835 40.2333C17.453 40.8479 17.348 41.4982 17.348 42.168H18.848ZM19.088 40.76L20.4807 41.3171C20.6052 41.0058 20.7626 40.7229 20.9525 40.4646L19.744 39.576L18.5355 38.6874C18.1921 39.1545 17.9121 39.6609 17.6953 40.2029L19.088 40.76ZM19.744 39.576L20.9646 40.4479C21.1783 40.1487 21.4175 39.8709 21.6831 39.6139L20.64 38.536L19.5969 37.4581C19.2011 37.8411 18.843 38.2567 18.5234 38.7041L19.744 39.576ZM20.64 38.536L21.6659 39.6303C22.0129 39.305 22.3547 38.9795 22.6911 38.6539L21.648 37.576L20.6049 36.4981C20.28 36.8125 19.9497 37.127 19.6141 37.4417L20.64 38.536ZM21.648 37.576L22.6859 38.659C22.9409 38.4146 23.1798 38.1863 23.4025 37.9742L22.368 36.888L21.3335 35.8018C21.1082 36.0163 20.8671 36.2468 20.6101 36.493L21.648 37.576ZM22.368 36.888L23.4287 37.9487C23.6773 37.7001 23.9045 37.4552 24.1074 37.2142L22.96 36.248L21.8126 35.2818C21.6742 35.4462 21.5067 35.6279 21.3073 35.8273L22.368 36.888ZM22.96 36.248L24.1313 37.185C24.3595 36.8998 24.5604 36.5938 24.7156 36.2661L23.36 35.624L22.0044 34.9819C21.9676 35.0596 21.9019 35.1695 21.7887 35.311L22.96 36.248ZM23.36 35.624L24.7279 36.2395C24.9025 35.8516 25.004 35.4293 25.004 34.984H23.504H22.004C22.004 34.9772 22.0049 34.9734 22.0046 34.9747C22.0042 34.9764 22.0016 34.9874 21.9921 35.0085L23.36 35.624ZM23.504 34.984H25.004C25.004 34.2522 24.7883 33.3563 23.9805 32.7747L23.104 33.992L22.2275 35.2093C22.1747 35.1713 22.127 35.1249 22.0878 35.0736C22.0491 35.0231 22.0259 34.9773 22.0128 34.945C21.9888 34.8854 22.004 34.8839 22.004 34.984H23.504ZM23.104 33.992L23.9805 32.7747C23.4106 32.3644 22.7565 32.204 22.112 32.204V33.704V35.204C22.1881 35.204 22.2265 35.2132 22.2378 35.2165C22.2467 35.2191 22.2397 35.218 22.2275 35.2093L23.104 33.992ZM22.112 33.704V32.204C21.6538 32.204 21.2026 32.281 20.7693 32.4435L21.296 33.848L21.8227 35.2525C21.9014 35.223 21.9942 35.204 22.112 35.204V33.704ZM21.296 33.848L20.8032 32.4313C20.4649 32.5489 20.1416 32.6985 19.8363 32.8818L20.608 34.168L21.3797 35.4542C21.501 35.3815 21.6364 35.3177 21.7888 35.2647L21.296 33.848ZM20.608 34.168L19.8564 32.8699C19.5887 33.0249 19.3347 33.1992 19.1038 33.3971L20.08 34.536L21.0562 35.6749C21.124 35.6168 21.2219 35.5458 21.3596 35.4661L20.608 34.168ZM20.08 34.536L19.1533 33.3565C18.9877 33.4866 18.821 33.6257 18.6833 33.7633L19.744 34.824L20.8047 35.8847C20.8046 35.8847 20.8057 35.8836 20.8082 35.8812C20.8107 35.8788 20.8143 35.8754 20.8192 35.871C20.8289 35.8621 20.8424 35.8501 20.8602 35.8349C20.8962 35.804 20.9444 35.7645 21.0067 35.7155L20.08 34.536ZM19.744 34.824L20.9662 33.9544L19.7822 32.2904L18.56 33.16L17.3378 34.0296L18.5218 35.6936L19.744 34.824ZM18.56 33.16L19.5826 34.2574C19.9247 33.9386 20.3286 33.6706 20.8056 33.4568L20.192 32.088L19.5784 30.7192C18.818 31.0601 18.134 31.5067 17.5374 32.0626L18.56 33.16ZM20.192 32.088L20.8162 33.452C21.2432 33.2566 21.7015 33.156 22.208 33.156V31.656V30.156C21.2851 30.156 20.3995 30.3434 19.5678 30.724L20.192 32.088ZM22.208 31.656V33.156C22.7508 33.156 23.1495 33.2191 23.4332 33.3094L23.888 31.88L24.3428 30.4506C23.6879 30.2422 22.9665 30.156 22.208 30.156V31.656ZM23.888 31.88L23.4332 33.3094C23.7351 33.4054 23.9129 33.5203 24.0193 33.6192L25.04 32.52L26.0607 31.4208C25.5698 30.965 24.9796 30.6532 24.3428 30.4506L23.888 31.88ZM25.04 32.52L24.0606 33.6561C24.1663 33.7473 24.2429 33.8557 24.2968 34.0092L25.712 33.512L27.1272 33.0148C26.9038 32.379 26.5323 31.8261 26.0194 31.3839L25.04 32.52ZM25.712 33.512L24.314 34.0557C24.3844 34.2367 24.436 34.4846 24.436 34.824H25.936H27.436C27.436 34.1821 27.3383 33.5553 27.11 32.9683L25.712 33.512Z" fill="black" mask="url(#path-9-outside-1_2007_143)"/>
<path d="M49 50.1079V38.8921C49 38.0887 48.1005 37.6133 47.4367 38.0659L39.2118 43.6738C38.6296 44.0707 38.6296 44.9293 39.2118 45.3262L47.4367 50.9341C48.1005 51.3867 49 50.9113 49 50.1079Z" fill="white" stroke="black" stroke-width="1.5"/>
<path d="M59 50.1079V38.8921C59 38.0887 58.1005 37.6133 57.4367 38.0659L49.2118 43.6738C48.6296 44.0707 48.6296 44.9293 49.2118 45.3262L57.4367 50.9341C58.1005 51.3867 59 50.9113 59 50.1079Z" fill="white" stroke="black" stroke-width="1.5"/>
<path d="M69 50.1079V38.8921C69 38.0887 68.1005 37.6133 67.4367 38.0659L59.2118 43.6738C58.6296 44.0707 58.6296 44.9293 59.2118 45.3262L67.4367 50.9341C68.1005 51.3867 69 50.9113 69 50.1079Z" fill="white" stroke="black" stroke-width="1.5"/>
</g>
</svg>
