<svg width="90" height="90" viewBox="0 0 90 90" fill="none" xmlns="http://www.w3.org/2000/svg">
<mask id="mask0_18_124" style="mask-type:alpha" maskUnits="userSpaceOnUse" x="0" y="0" width="90" height="90">
<rect width="90" height="90" fill="#D9D9D9"/>
</mask>
<g mask="url(#mask0_18_124)">
<rect x="1.71467" y="15.4074" width="17.5" height="61.5" transform="rotate(-1 1.71467 15.4074)" fill="#8F8555" stroke="black" stroke-width="1.5"/>
<rect x="26.503" y="10.9664" width="17.5" height="71.5" transform="rotate(2 26.503 10.9664)" fill="#8F8555" stroke="black" stroke-width="1.5"/>
<rect x="46.7147" y="15.4074" width="17.5" height="61.5" transform="rotate(-1 46.7147 15.4074)" fill="#8F8555" stroke="black" stroke-width="1.5"/>
<rect x="70.503" y="10.9664" width="17.5" height="71.5" transform="rotate(2 70.503 10.9664)" fill="#8F8555" stroke="black" stroke-width="1.5"/>
<rect x="-0.75" y="54.25" width="91.5" height="11.5" fill="#E2F5FF" stroke="black" stroke-width="1.5"/>
<rect x="-0.75" y="24.25" width="91.5" height="11.5" fill="#E2F5FF" stroke="black" stroke-width="1.5"/>
<path fill-rule="evenodd" clip-rule="evenodd" d="M59 44.917V31.1826C59 30.0832 59.896 28.9834 61 28.9834H81C82.1041 28.9834 83.0001 30.0832 83.0001 31.1826V44.917H59ZM78.968 51.1153V51.0831C78.968 49.9916 79.858 49.1075 80.954 49.1075H80.9841C82.0801 49.1075 82.9681 49.9916 82.9681 51.0831V51.1153C82.9681 52.2067 82.0801 53.0909 80.9841 53.0909H80.954C79.858 53.0909 78.968 52.2067 78.968 51.1153ZM61.016 53.0909H60.984C59.888 53.0909 59 52.2067 59 51.1153C59 50.0238 59.888 49.1397 60.984 49.1397H61.016C62.112 49.1397 63 50.0238 63 51.1153C63 52.2067 62.112 53.0909 61.016 53.0909ZM59 25C56.79 25 55 26.9916 55 29.1904V45.1241V53.0909C55 55.2917 56.79 56.8672 59 56.8672H63.712L61.626 62.0714C61.136 63.0732 61 64.3328 63 64.8028V64.8282C63 65.2883 64.742 64.7827 65.22 63.8067L68.164 56.8672H73.904L77.918 63.8448C78.404 64.8048 79 65.2569 81 64.8028V64.8282C81 64.3542 81.9961 63.04 81.486 62.0362L78.384 56.8672H83.0001C85.2101 56.8672 87.0001 55.2917 87.0001 53.0909V45.1241V29.1904C87.0001 26.9916 85.2101 25 83.0001 25H59Z" fill="white" stroke="black" stroke-width="1.5"/>
<mask id="path-9-outside-1_18_124" maskUnits="userSpaceOnUse" x="61" y="30" width="20" height="15" fill="black">
<rect fill="white" x="61" y="30" width="20" height="15"/>
<path d="M63.0263 34.216C63.3356 34.088 63.6556 33.944 63.9863 33.784C64.3276 33.6133 64.6583 33.432 64.9783 33.24C65.2983 33.0373 65.6023 32.8293 65.8903 32.616C66.1889 32.392 66.4556 32.1573 66.6903 31.912H68.3543V43H65.9703V35.016C65.6503 35.2293 65.2929 35.4267 64.8983 35.608C64.5036 35.7787 64.1196 35.928 63.7463 36.056L63.0263 34.216ZM78.936 34.824C78.936 35.2293 78.856 35.6187 78.696 35.992C78.536 36.3653 78.328 36.728 78.072 37.08C77.816 37.4213 77.528 37.752 77.208 38.072C76.888 38.392 76.5733 38.696 76.264 38.984C76.104 39.1333 75.928 39.304 75.736 39.496C75.5547 39.6773 75.3787 39.864 75.208 40.056C75.0373 40.248 74.8827 40.4293 74.744 40.6C74.616 40.76 74.536 40.8933 74.504 41H79.272V43H71.88C71.8587 42.8827 71.848 42.7333 71.848 42.552C71.848 42.3707 71.848 42.2427 71.848 42.168C71.848 41.656 71.928 41.1867 72.088 40.76C72.2587 40.3333 72.4773 39.9387 72.744 39.576C73.0107 39.2027 73.3093 38.856 73.64 38.536C73.9813 38.216 74.3173 37.896 74.648 37.576C74.904 37.3307 75.144 37.1013 75.368 36.888C75.592 36.664 75.7893 36.4507 75.96 36.248C76.1307 36.0347 76.264 35.8267 76.36 35.624C76.456 35.4107 76.504 35.1973 76.504 34.984C76.504 34.5147 76.3707 34.184 76.104 33.992C75.8373 33.8 75.5067 33.704 75.112 33.704C74.824 33.704 74.552 33.752 74.296 33.848C74.0507 33.9333 73.8213 34.04 73.608 34.168C73.4053 34.2853 73.2293 34.408 73.08 34.536C72.9307 34.6533 72.8187 34.7493 72.744 34.824L71.56 33.16C72.0293 32.7227 72.5733 32.3653 73.192 32.088C73.8213 31.8 74.4933 31.656 75.208 31.656C75.8587 31.656 76.4187 31.7307 76.888 31.88C77.3573 32.0293 77.7413 32.2427 78.04 32.52C78.3493 32.7867 78.5733 33.1173 78.712 33.512C78.8613 33.896 78.936 34.3333 78.936 34.824Z"/>
</mask>
<path d="M63.0263 34.216C63.3356 34.088 63.6556 33.944 63.9863 33.784C64.3276 33.6133 64.6583 33.432 64.9783 33.24C65.2983 33.0373 65.6023 32.8293 65.8903 32.616C66.1889 32.392 66.4556 32.1573 66.6903 31.912H68.3543V43H65.9703V35.016C65.6503 35.2293 65.2929 35.4267 64.8983 35.608C64.5036 35.7787 64.1196 35.928 63.7463 36.056L63.0263 34.216ZM78.936 34.824C78.936 35.2293 78.856 35.6187 78.696 35.992C78.536 36.3653 78.328 36.728 78.072 37.08C77.816 37.4213 77.528 37.752 77.208 38.072C76.888 38.392 76.5733 38.696 76.264 38.984C76.104 39.1333 75.928 39.304 75.736 39.496C75.5547 39.6773 75.3787 39.864 75.208 40.056C75.0373 40.248 74.8827 40.4293 74.744 40.6C74.616 40.76 74.536 40.8933 74.504 41H79.272V43H71.88C71.8587 42.8827 71.848 42.7333 71.848 42.552C71.848 42.3707 71.848 42.2427 71.848 42.168C71.848 41.656 71.928 41.1867 72.088 40.76C72.2587 40.3333 72.4773 39.9387 72.744 39.576C73.0107 39.2027 73.3093 38.856 73.64 38.536C73.9813 38.216 74.3173 37.896 74.648 37.576C74.904 37.3307 75.144 37.1013 75.368 36.888C75.592 36.664 75.7893 36.4507 75.96 36.248C76.1307 36.0347 76.264 35.8267 76.36 35.624C76.456 35.4107 76.504 35.1973 76.504 34.984C76.504 34.5147 76.3707 34.184 76.104 33.992C75.8373 33.8 75.5067 33.704 75.112 33.704C74.824 33.704 74.552 33.752 74.296 33.848C74.0507 33.9333 73.8213 34.04 73.608 34.168C73.4053 34.2853 73.2293 34.408 73.08 34.536C72.9307 34.6533 72.8187 34.7493 72.744 34.824L71.56 33.16C72.0293 32.7227 72.5733 32.3653 73.192 32.088C73.8213 31.8 74.4933 31.656 75.208 31.656C75.8587 31.656 76.4187 31.7307 76.888 31.88C77.3573 32.0293 77.7413 32.2427 78.04 32.52C78.3493 32.7867 78.5733 33.1173 78.712 33.512C78.8613 33.896 78.936 34.3333 78.936 34.824Z" fill="white"/>
<path d="M63.0262 34.216L62.4527 32.83L61.0933 33.3925L61.6294 34.7626L63.0262 34.216ZM63.9863 33.784L64.6396 35.1342L64.6484 35.13L64.6571 35.1256L63.9863 33.784ZM64.9783 33.24L65.75 34.5262L65.7655 34.5169L65.7808 34.5072L64.9783 33.24ZM65.8903 32.616L66.7831 33.8214L66.7902 33.816L65.8903 32.616ZM66.6903 31.912V30.412H66.0493L65.6063 30.8752L66.6903 31.912ZM68.3542 31.912H69.8542V30.412H68.3542V31.912ZM68.3542 43V44.5H69.8542V43H68.3542ZM65.9703 43H64.4703V44.5H65.9703V43ZM65.9703 35.016H67.4703V32.2132L65.1382 33.7679L65.9703 35.016ZM64.8983 35.608L65.4936 36.9848L65.5091 36.9781L65.5245 36.971L64.8983 35.608ZM63.7463 36.056L62.3494 36.6026L62.8731 37.9411L64.2327 37.4749L63.7463 36.056ZM63.5998 35.602C63.9385 35.4619 64.2852 35.3057 64.6396 35.1342L63.3329 32.4338C63.026 32.5823 62.7327 32.7141 62.4527 32.83L63.5998 35.602ZM64.6571 35.1256C65.032 34.9382 65.3963 34.7384 65.75 34.5262L64.2065 31.9538C63.9202 32.1256 63.6232 32.2885 63.3154 32.4424L64.6571 35.1256ZM65.7808 34.5072C66.1299 34.2861 66.4642 34.0576 66.7831 33.8213L64.9974 31.4107C64.7403 31.6011 64.4666 31.7885 64.1757 31.9728L65.7808 34.5072ZM66.7902 33.816C67.1482 33.5475 67.4775 33.259 67.7742 32.9488L65.6063 30.8752C65.4337 31.0556 65.2297 31.2364 64.9903 31.416L66.7902 33.816ZM66.6903 33.412H68.3542V30.412H66.6903V33.412ZM66.8543 31.912V43H69.8542V31.912H66.8543ZM68.3542 41.5H65.9703V44.5H68.3542V41.5ZM67.4703 43V35.016H64.4703V43H67.4703ZM65.1382 33.7679C64.8914 33.9324 64.6041 34.0924 64.272 34.245L65.5245 36.971C65.9817 36.761 66.4091 36.5262 66.8023 36.2641L65.1382 33.7679ZM64.3029 34.2312C63.9408 34.3878 63.5932 34.5228 63.2598 34.6371L64.2327 37.4749C64.646 37.3332 65.0663 37.1696 65.4936 36.9848L64.3029 34.2312ZM65.1431 35.5094L64.4231 33.6694L61.6294 34.7626L62.3494 36.6026L65.1431 35.5094ZM78.696 35.992L80.0747 36.5829V36.5829L78.696 35.992ZM78.072 37.08L79.272 37.98L79.2786 37.9712L79.2851 37.9623L78.072 37.08ZM76.264 38.984L75.2419 37.8862L75.2405 37.8874L76.264 38.984ZM75.736 39.496L74.6753 38.4353L75.736 39.496ZM75.208 40.056L74.0869 39.0595L75.208 40.056ZM74.744 40.6L73.5798 39.6541L73.5727 39.663L74.744 40.6ZM74.504 41L73.0673 40.569L72.488 42.5H74.504V41ZM79.272 41H80.772V39.5H79.272V41ZM79.272 43V44.5H80.772V43H79.272ZM71.88 43L70.4042 43.2683L70.6281 44.5H71.88V43ZM72.088 40.76L70.6953 40.2029L70.6892 40.2181L70.6835 40.2333L72.088 40.76ZM72.744 39.576L73.9525 40.4646L73.9586 40.4563L73.9646 40.4479L72.744 39.576ZM73.64 38.536L72.6141 37.4417L72.6054 37.4498L72.5969 37.4581L73.64 38.536ZM74.648 37.576L73.6101 36.493L73.6049 36.4981L74.648 37.576ZM75.368 36.888L76.4025 37.9742L76.4157 37.9616L76.4287 37.9487L75.368 36.888ZM75.96 36.248L77.1074 37.2142L77.1195 37.1998L77.1313 37.185L75.96 36.248ZM76.36 35.624L77.7156 36.2661L77.7219 36.2529L77.7279 36.2395L76.36 35.624ZM74.296 33.848L74.7888 35.2647L74.8058 35.2588L74.8227 35.2525L74.296 33.848ZM73.608 34.168L74.3596 35.4661L74.3697 35.4603L74.3797 35.4542L73.608 34.168ZM73.08 34.536L74.0067 35.7155L74.0319 35.6957L74.0562 35.6749L73.08 34.536ZM72.744 34.824L71.5218 35.6936L72.5503 37.139L73.8047 35.8847L72.744 34.824ZM71.56 33.16L70.5374 32.0626L69.5758 32.9587L70.3378 34.0296L71.56 33.16ZM73.192 32.088L73.8056 33.4568L73.8162 33.452L73.192 32.088ZM76.888 31.88L77.3428 30.4506V30.4506L76.888 31.88ZM78.04 32.52L77.0193 33.6192L77.0396 33.638L77.0606 33.6561L78.04 32.52ZM78.712 33.512L77.2968 34.0092L77.305 34.0326L77.314 34.0557L78.712 33.512ZM77.436 34.824C77.436 35.0258 77.3974 35.2141 77.3173 35.4011L80.0747 36.5829C80.3146 36.0232 80.436 35.4329 80.436 34.824H77.436ZM77.3173 35.4011C77.2045 35.6644 77.0537 35.9299 76.8589 36.1977L79.2851 37.9623C79.6023 37.5261 79.8675 37.0663 80.0747 36.5829L77.3173 35.4011ZM76.872 36.18C76.6611 36.4612 76.4202 36.7385 76.1473 37.0113L78.2687 39.1327C78.6358 38.7655 78.9709 38.3814 79.272 37.98L76.872 36.18ZM76.1473 37.0113C75.8391 37.3196 75.5373 37.6111 75.2419 37.8862L77.2861 40.0818C77.6094 39.7809 77.9369 39.4644 78.2687 39.1327L76.1473 37.0113ZM75.2405 37.8874C75.0654 38.0509 74.8768 38.2339 74.6753 38.4353L76.7967 40.5567C76.9792 40.3741 77.1426 40.2158 77.2875 40.0806L75.2405 37.8874ZM74.6753 38.4353C74.4732 38.6375 74.277 38.8455 74.0869 39.0595L76.3291 41.0525C76.4803 40.8825 76.6361 40.7172 76.7967 40.5567L74.6753 38.4353ZM74.0869 39.0595C73.9039 39.2653 73.7346 39.4637 73.5798 39.6541L75.9082 41.5459C76.0308 41.395 76.1708 41.2307 76.3291 41.0525L74.0869 39.0595ZM73.5727 39.663C73.4083 39.8685 73.1831 40.1829 73.0673 40.569L75.9407 41.431C75.9244 41.4855 75.9074 41.5254 75.8963 41.5493C75.8849 41.5736 75.8765 41.588 75.8742 41.5917C75.8708 41.5975 75.8809 41.58 75.9153 41.537L73.5727 39.663ZM74.504 42.5H79.272V39.5H74.504V42.5ZM77.772 41V43H80.772V41H77.772ZM79.272 41.5H71.88V44.5H79.272V41.5ZM73.3558 42.7317C73.3569 42.7379 73.3546 42.7266 73.3522 42.6931C73.3499 42.6605 73.348 42.6142 73.348 42.552H70.348C70.348 42.7821 70.3608 43.0295 70.4042 43.2683L73.3558 42.7317ZM73.348 42.552C73.348 42.5516 73.348 42.5513 73.348 42.5509C73.348 42.5506 73.348 42.5502 73.348 42.5499C73.348 42.5495 73.348 42.5492 73.348 42.5488C73.348 42.5485 73.348 42.5481 73.348 42.5478C73.348 42.5474 73.348 42.5471 73.348 42.5467C73.348 42.5464 73.348 42.546 73.348 42.5456C73.348 42.5453 73.348 42.5449 73.348 42.5446C73.348 42.5442 73.348 42.5439 73.348 42.5435C73.348 42.5432 73.348 42.5428 73.348 42.5425C73.348 42.5421 73.348 42.5418 73.348 42.5414C73.348 42.5411 73.348 42.5407 73.348 42.5404C73.348 42.54 73.348 42.5397 73.348 42.5393C73.348 42.539 73.348 42.5386 73.348 42.5383C73.348 42.5379 73.348 42.5376 73.348 42.5372C73.348 42.5369 73.348 42.5365 73.348 42.5362C73.348 42.5359 73.348 42.5355 73.348 42.5352C73.348 42.5348 73.348 42.5345 73.348 42.5341C73.348 42.5338 73.348 42.5334 73.348 42.5331C73.348 42.5327 73.348 42.5324 73.348 42.532C73.348 42.5317 73.348 42.5313 73.348 42.531C73.348 42.5306 73.348 42.5303 73.348 42.53C73.348 42.5296 73.348 42.5293 73.348 42.5289C73.348 42.5286 73.348 42.5282 73.348 42.5279C73.348 42.5275 73.348 42.5272 73.348 42.5269C73.348 42.5265 73.348 42.5262 73.348 42.5258C73.348 42.5255 73.348 42.5251 73.348 42.5248C73.348 42.5244 73.348 42.5241 73.348 42.5238C73.348 42.5234 73.348 42.5231 73.348 42.5227C73.348 42.5224 73.348 42.522 73.348 42.5217C73.348 42.5214 73.348 42.521 73.348 42.5207C73.348 42.5203 73.348 42.52 73.348 42.5196C73.348 42.5193 73.348 42.519 73.348 42.5186C73.348 42.5183 73.348 42.5179 73.348 42.5176C73.348 42.5173 73.348 42.5169 73.348 42.5166C73.348 42.5162 73.348 42.5159 73.348 42.5156C73.348 42.5152 73.348 42.5149 73.348 42.5145C73.348 42.5142 73.348 42.5139 73.348 42.5135C73.348 42.5132 73.348 42.5128 73.348 42.5125C73.348 42.5122 73.348 42.5118 73.348 42.5115C73.348 42.5112 73.348 42.5108 73.348 42.5105C73.348 42.5101 73.348 42.5098 73.348 42.5095C73.348 42.5091 73.348 42.5088 73.348 42.5085C73.348 42.5081 73.348 42.5078 73.348 42.5074C73.348 42.5071 73.348 42.5068 73.348 42.5064C73.348 42.5061 73.348 42.5058 73.348 42.5054C73.348 42.5051 73.348 42.5048 73.348 42.5044C73.348 42.5041 73.348 42.5037 73.348 42.5034C73.348 42.5031 73.348 42.5027 73.348 42.5024C73.348 42.5021 73.348 42.5017 73.348 42.5014C73.348 42.5011 73.348 42.5007 73.348 42.5004C73.348 42.5001 73.348 42.4997 73.348 42.4994C73.348 42.4991 73.348 42.4987 73.348 42.4984C73.348 42.4981 73.348 42.4977 73.348 42.4974C73.348 42.4971 73.348 42.4967 73.348 42.4964C73.348 42.4961 73.348 42.4957 73.348 42.4954C73.348 42.4951 73.348 42.4947 73.348 42.4944C73.348 42.4941 73.348 42.4938 73.348 42.4934C73.348 42.4931 73.348 42.4928 73.348 42.4924C73.348 42.4921 73.348 42.4918 73.348 42.4914C73.348 42.4911 73.348 42.4908 73.348 42.4904C73.348 42.4901 73.348 42.4898 73.348 42.4895C73.348 42.4891 73.348 42.4888 73.348 42.4885C73.348 42.4881 73.348 42.4878 73.348 42.4875C73.348 42.4872 73.348 42.4868 73.348 42.4865C73.348 42.4862 73.348 42.4858 73.348 42.4855C73.348 42.4852 73.348 42.4849 73.348 42.4845C73.348 42.4842 73.348 42.4839 73.348 42.4836C73.348 42.4832 73.348 42.4829 73.348 42.4826C73.348 42.4822 73.348 42.4819 73.348 42.4816C73.348 42.4813 73.348 42.4809 73.348 42.4806C73.348 42.4803 73.348 42.48 73.348 42.4796C73.348 42.4793 73.348 42.479 73.348 42.4787C73.348 42.4783 73.348 42.478 73.348 42.4777C73.348 42.4774 73.348 42.477 73.348 42.4767C73.348 42.4764 73.348 42.4761 73.348 42.4757C73.348 42.4754 73.348 42.4751 73.348 42.4748C73.348 42.4745 73.348 42.4741 73.348 42.4738C73.348 42.4735 73.348 42.4732 73.348 42.4728C73.348 42.4725 73.348 42.4722 73.348 42.4719C73.348 42.4715 73.348 42.4712 73.348 42.4709C73.348 42.4706 73.348 42.4703 73.348 42.4699C73.348 42.4696 73.348 42.4693 73.348 42.469C73.348 42.4687 73.348 42.4683 73.348 42.468C73.348 42.4677 73.348 42.4674 73.348 42.4671C73.348 42.4667 73.348 42.4664 73.348 42.4661C73.348 42.4658 73.348 42.4655 73.348 42.4651C73.348 42.4648 73.348 42.4645 73.348 42.4642C73.348 42.4639 73.348 42.4635 73.348 42.4632C73.348 42.4629 73.348 42.4626 73.348 42.4623C73.348 42.462 73.348 42.4616 73.348 42.4613C73.348 42.461 73.348 42.4607 73.348 42.4604C73.348 42.46 73.348 42.4597 73.348 42.4594C73.348 42.4591 73.348 42.4588 73.348 42.4585C73.348 42.4581 73.348 42.4578 73.348 42.4575C73.348 42.4572 73.348 42.4569 73.348 42.4566C73.348 42.4563 73.348 42.4559 73.348 42.4556C73.348 42.4553 73.348 42.455 73.348 42.4547C73.348 42.4544 73.348 42.4541 73.348 42.4537C73.348 42.4534 73.348 42.4531 73.348 42.4528C73.348 42.4525 73.348 42.4522 73.348 42.4519C73.348 42.4515 73.348 42.4512 73.348 42.4509C73.348 42.4506 73.348 42.4503 73.348 42.45C73.348 42.4497 73.348 42.4494 73.348 42.449C73.348 42.4487 73.348 42.4484 73.348 42.4481C73.348 42.4478 73.348 42.4475 73.348 42.4472C73.348 42.4469 73.348 42.4465 73.348 42.4462C73.348 42.4459 73.348 42.4456 73.348 42.4453C73.348 42.445 73.348 42.4447 73.348 42.4444C73.348 42.4441 73.348 42.4437 73.348 42.4434C73.348 42.4431 73.348 42.4428 73.348 42.4425C73.348 42.4422 73.348 42.4419 73.348 42.4416C73.348 42.4413 73.348 42.441 73.348 42.4407C73.348 42.4403 73.348 42.44 73.348 42.4397C73.348 42.4394 73.348 42.4391 73.348 42.4388C73.348 42.4385 73.348 42.4382 73.348 42.4379C73.348 42.4376 73.348 42.4373 73.348 42.437C73.348 42.4367 73.348 42.4363 73.348 42.436C73.348 42.4357 73.348 42.4354 73.348 42.4351C73.348 42.4348 73.348 42.4345 73.348 42.4342C73.348 42.4339 73.348 42.4336 73.348 42.4333C73.348 42.433 73.348 42.4327 73.348 42.4324C73.348 42.4321 73.348 42.4318 73.348 42.4315C73.348 42.4312 73.348 42.4309 73.348 42.4305C73.348 42.4302 73.348 42.4299 73.348 42.4296C73.348 42.4293 73.348 42.429 73.348 42.4287C73.348 42.4284 73.348 42.4281 73.348 42.4278C73.348 42.4275 73.348 42.4272 73.348 42.4269C73.348 42.4266 73.348 42.4263 73.348 42.426C73.348 42.4257 73.348 42.4254 73.348 42.4251C73.348 42.4248 73.348 42.4245 73.348 42.4242C73.348 42.4239 73.348 42.4236 73.348 42.4233C73.348 42.423 73.348 42.4227 73.348 42.4224C73.348 42.4221 73.348 42.4218 73.348 42.4215C73.348 42.4212 73.348 42.4209 73.348 42.4206C73.348 42.4203 73.348 42.42 73.348 42.4197C73.348 42.4194 73.348 42.4191 73.348 42.4188C73.348 42.4185 73.348 42.4182 73.348 42.4179C73.348 42.4176 73.348 42.4173 73.348 42.417C73.348 42.4167 73.348 42.4164 73.348 42.4161C73.348 42.4158 73.348 42.4155 73.348 42.4152C73.348 42.4149 73.348 42.4146 73.348 42.4143C73.348 42.414 73.348 42.4137 73.348 42.4134C73.348 42.4131 73.348 42.4128 73.348 42.4125C73.348 42.4122 73.348 42.412 73.348 42.4117C73.348 42.4114 73.348 42.4111 73.348 42.4108C73.348 42.4105 73.348 42.4102 73.348 42.4099C73.348 42.4096 73.348 42.4093 73.348 42.409C73.348 42.4087 73.348 42.4084 73.348 42.4081C73.348 42.4078 73.348 42.4075 73.348 42.4072C73.348 42.4069 73.348 42.4067 73.348 42.4064C73.348 42.4061 73.348 42.4058 73.348 42.4055C73.348 42.4052 73.348 42.4049 73.348 42.4046C73.348 42.4043 73.348 42.404 73.348 42.4037C73.348 42.4034 73.348 42.4031 73.348 42.4029C73.348 42.4026 73.348 42.4023 73.348 42.402C73.348 42.4017 73.348 42.4014 73.348 42.4011C73.348 42.4008 73.348 42.4005 73.348 42.4002C73.348 42.3999 73.348 42.3997 73.348 42.3994C73.348 42.3991 73.348 42.3988 73.348 42.3985C73.348 42.3982 73.348 42.3979 73.348 42.3976C73.348 42.3973 73.348 42.397 73.348 42.3968C73.348 42.3965 73.348 42.3962 73.348 42.3959C73.348 42.3956 73.348 42.3953 73.348 42.395C73.348 42.3947 73.348 42.3945 73.348 42.3942C73.348 42.3939 73.348 42.3936 73.348 42.3933C73.348 42.393 73.348 42.3927 73.348 42.3924C73.348 42.3922 73.348 42.3919 73.348 42.3916C73.348 42.3913 73.348 42.391 73.348 42.3907C73.348 42.3904 73.348 42.3902 73.348 42.3899C73.348 42.3896 73.348 42.3893 73.348 42.389C73.348 42.3887 73.348 42.3884 73.348 42.3882C73.348 42.3879 73.348 42.3876 73.348 42.3873C73.348 42.387 73.348 42.3867 73.348 42.3865C73.348 42.3862 73.348 42.3859 73.348 42.3856C73.348 42.3853 73.348 42.385 73.348 42.3848C73.348 42.3845 73.348 42.3842 73.348 42.3839C73.348 42.3836 73.348 42.3833 73.348 42.3831C73.348 42.3828 73.348 42.3825 73.348 42.3822C73.348 42.3819 73.348 42.3816 73.348 42.3814C73.348 42.3811 73.348 42.3808 73.348 42.3805C73.348 42.3802 73.348 42.38 73.348 42.3797C73.348 42.3794 73.348 42.3791 73.348 42.3788C73.348 42.3786 73.348 42.3783 73.348 42.378C73.348 42.3777 73.348 42.3774 73.348 42.3772C73.348 42.3769 73.348 42.3766 73.348 42.3763C73.348 42.376 73.348 42.3758 73.348 42.3755C73.348 42.3752 73.348 42.3749 73.348 42.3747C73.348 42.3744 73.348 42.3741 73.348 42.3738C73.348 42.3735 73.348 42.3733 73.348 42.373C73.348 42.3727 73.348 42.3724 73.348 42.3722C73.348 42.3719 73.348 42.3716 73.348 42.3713C73.348 42.3711 73.348 42.3708 73.348 42.3705C73.348 42.3702 73.348 42.3699 73.348 42.3697C73.348 42.3694 73.348 42.3691 73.348 42.3688C73.348 42.3686 73.348 42.3683 73.348 42.368C73.348 42.3677 73.348 42.3675 73.348 42.3672C73.348 42.3669 73.348 42.3666 73.348 42.3664C73.348 42.3661 73.348 42.3658 73.348 42.3656C73.348 42.3653 73.348 42.365 73.348 42.3647C73.348 42.3645 73.348 42.3642 73.348 42.3639C73.348 42.3636 73.348 42.3634 73.348 42.3631C73.348 42.3628 73.348 42.3626 73.348 42.3623C73.348 42.362 73.348 42.3617 73.348 42.3615C73.348 42.3612 73.348 42.3609 73.348 42.3607C73.348 42.3604 73.348 42.3601 73.348 42.3598C73.348 42.3596 73.348 42.3593 73.348 42.359C73.348 42.3588 73.348 42.3585 73.348 42.3582C73.348 42.3579 73.348 42.3577 73.348 42.3574C73.348 42.3571 73.348 42.3569 73.348 42.3566C73.348 42.3563 73.348 42.3561 73.348 42.3558C73.348 42.3555 73.348 42.3553 73.348 42.355C73.348 42.3547 73.348 42.3544 73.348 42.3542C73.348 42.3539 73.348 42.3536 73.348 42.3534C73.348 42.3531 73.348 42.3528 73.348 42.3526C73.348 42.3523 73.348 42.352 73.348 42.3518C73.348 42.3515 73.348 42.3512 73.348 42.351C73.348 42.3507 73.348 42.3504 73.348 42.3502C73.348 42.3499 73.348 42.3496 73.348 42.3494C73.348 42.3491 73.348 42.3489 73.348 42.3486C73.348 42.3483 73.348 42.3481 73.348 42.3478C73.348 42.3475 73.348 42.3473 73.348 42.347C73.348 42.3467 73.348 42.3465 73.348 42.3462C73.348 42.3459 73.348 42.3457 73.348 42.3454C73.348 42.3452 73.348 42.3449 73.348 42.3446C73.348 42.3444 73.348 42.3441 73.348 42.3438C73.348 42.3436 73.348 42.3433 73.348 42.343C73.348 42.3428 73.348 42.3425 73.348 42.3423C73.348 42.342 73.348 42.3417 73.348 42.3415C73.348 42.3412 73.348 42.341 73.348 42.3407C73.348 42.3404 73.348 42.3402 73.348 42.3399C73.348 42.3397 73.348 42.3394 73.348 42.3391C73.348 42.3389 73.348 42.3386 73.348 42.3384C73.348 42.3381 73.348 42.3378 73.348 42.3376C73.348 42.3373 73.348 42.3371 73.348 42.3368C73.348 42.3365 73.348 42.3363 73.348 42.336C73.348 42.3358 73.348 42.3355 73.348 42.3352C73.348 42.335 73.348 42.3347 73.348 42.3345C73.348 42.3342 73.348 42.334 73.348 42.3337C73.348 42.3334 73.348 42.3332 73.348 42.3329C73.348 42.3327 73.348 42.3324 73.348 42.3322C73.348 42.3319 73.348 42.3316 73.348 42.3314C73.348 42.3311 73.348 42.3309 73.348 42.3306C73.348 42.3304 73.348 42.3301 73.348 42.3299C73.348 42.3296 73.348 42.3293 73.348 42.3291C73.348 42.3288 73.348 42.3286 73.348 42.3283C73.348 42.3281 73.348 42.3278 73.348 42.3276C73.348 42.3273 73.348 42.3271 73.348 42.3268C73.348 42.3265 73.348 42.3263 73.348 42.326C73.348 42.3258 73.348 42.3255 73.348 42.3253C73.348 42.325 73.348 42.3248 73.348 42.3245C73.348 42.3243 73.348 42.324 73.348 42.3238C73.348 42.3235 73.348 42.3233 73.348 42.323C73.348 42.3228 73.348 42.3225 73.348 42.3223C73.348 42.322 73.348 42.3218 73.348 42.3215C73.348 42.3213 73.348 42.321 73.348 42.3208C73.348 42.3205 73.348 42.3202 73.348 42.32C73.348 42.3197 73.348 42.3195 73.348 42.3193C73.348 42.319 73.348 42.3188 73.348 42.3185C73.348 42.3183 73.348 42.318 73.348 42.3178C73.348 42.3175 73.348 42.3173 73.348 42.317C73.348 42.3168 73.348 42.3165 73.348 42.3163C73.348 42.316 73.348 42.3158 73.348 42.3155C73.348 42.3153 73.348 42.315 73.348 42.3148C73.348 42.3145 73.348 42.3143 73.348 42.314C73.348 42.3138 73.348 42.3135 73.348 42.3133C73.348 42.3131 73.348 42.3128 73.348 42.3126C73.348 42.3123 73.348 42.3121 73.348 42.3118C73.348 42.3116 73.348 42.3113 73.348 42.3111C73.348 42.3108 73.348 42.3106 73.348 42.3104C73.348 42.3101 73.348 42.3099 73.348 42.3096C73.348 42.3094 73.348 42.3091 73.348 42.3089C73.348 42.3086 73.348 42.3084 73.348 42.3082C73.348 42.3079 73.348 42.3077 73.348 42.3074C73.348 42.3072 73.348 42.3069 73.348 42.3067C73.348 42.3065 73.348 42.3062 73.348 42.306C73.348 42.3057 73.348 42.3055 73.348 42.3052C73.348 42.305 73.348 42.3048 73.348 42.3045C73.348 42.3043 73.348 42.304 73.348 42.3038C73.348 42.3036 73.348 42.3033 73.348 42.3031C73.348 42.3028 73.348 42.3026 73.348 42.3024C73.348 42.3021 73.348 42.3019 73.348 42.3016C73.348 42.3014 73.348 42.3012 73.348 42.3009C73.348 42.3007 73.348 42.3004 73.348 42.3002C73.348 42.3 73.348 42.2997 73.348 42.2995C73.348 42.2992 73.348 42.299 73.348 42.2988C73.348 42.2985 73.348 42.2983 73.348 42.298C73.348 42.2978 73.348 42.2976 73.348 42.2973C73.348 42.2971 73.348 42.2969 73.348 42.2966C73.348 42.2964 73.348 42.2962 73.348 42.2959C73.348 42.2957 73.348 42.2954 73.348 42.2952C73.348 42.295 73.348 42.2947 73.348 42.2945C73.348 42.2943 73.348 42.294 73.348 42.2938C73.348 42.2936 73.348 42.2933 73.348 42.2931C73.348 42.2929 73.348 42.2926 73.348 42.2924C73.348 42.2921 73.348 42.2919 73.348 42.2917C73.348 42.2914 73.348 42.2912 73.348 42.291C73.348 42.2907 73.348 42.2905 73.348 42.2903C73.348 42.29 73.348 42.2898 73.348 42.2896C73.348 42.2893 73.348 42.2891 73.348 42.2889C73.348 42.2886 73.348 42.2884 73.348 42.2882C73.348 42.2879 73.348 42.2877 73.348 42.2875C73.348 42.2873 73.348 42.287 73.348 42.2868C73.348 42.2866 73.348 42.2863 73.348 42.2861C73.348 42.2859 73.348 42.2856 73.348 42.2854C73.348 42.2852 73.348 42.2849 73.348 42.2847C73.348 42.2845 73.348 42.2843 73.348 42.284C73.348 42.2838 73.348 42.2836 73.348 42.2833C73.348 42.2831 73.348 42.2829 73.348 42.2826C73.348 42.2824 73.348 42.2822 73.348 42.282C73.348 42.2817 73.348 42.2815 73.348 42.2813C73.348 42.2811 73.348 42.2808 73.348 42.2806C73.348 42.2804 73.348 42.2801 73.348 42.2799C73.348 42.2797 73.348 42.2795 73.348 42.2792C73.348 42.279 73.348 42.2788 73.348 42.2786C73.348 42.2783 73.348 42.2781 73.348 42.2779C73.348 42.2776 73.348 42.2774 73.348 42.2772C73.348 42.277 73.348 42.2767 73.348 42.2765C73.348 42.2763 73.348 42.2761 73.348 42.2758C73.348 42.2756 73.348 42.2754 73.348 42.2752C73.348 42.2749 73.348 42.2747 73.348 42.2745C73.348 42.2743 73.348 42.2741 73.348 42.2738C73.348 42.2736 73.348 42.2734 73.348 42.2732C73.348 42.2729 73.348 42.2727 73.348 42.2725C73.348 42.2723 73.348 42.272 73.348 42.2718C73.348 42.2716 73.348 42.2714 73.348 42.2712C73.348 42.2709 73.348 42.2707 73.348 42.2705C73.348 42.2703 73.348 42.27 73.348 42.2698C73.348 42.2696 73.348 42.2694 73.348 42.2692C73.348 42.2689 73.348 42.2687 73.348 42.2685C73.348 42.2683 73.348 42.2681 73.348 42.2678C73.348 42.2676 73.348 42.2674 73.348 42.2672C73.348 42.267 73.348 42.2667 73.348 42.2665C73.348 42.2663 73.348 42.2661 73.348 42.2659C73.348 42.2656 73.348 42.2654 73.348 42.2652C73.348 42.265 73.348 42.2648 73.348 42.2646C73.348 42.2643 73.348 42.2641 73.348 42.2639C73.348 42.2637 73.348 42.2635 73.348 42.2633C73.348 42.263 73.348 42.2628 73.348 42.2626C73.348 42.2624 73.348 42.2622 73.348 42.262C73.348 42.2617 73.348 42.2615 73.348 42.2613C73.348 42.2611 73.348 42.2609 73.348 42.2607C73.348 42.2604 73.348 42.2602 73.348 42.26C73.348 42.2598 73.348 42.2596 73.348 42.2594C73.348 42.2592 73.348 42.2589 73.348 42.2587C73.348 42.2585 73.348 42.2583 73.348 42.2581C73.348 42.2579 73.348 42.2577 73.348 42.2574C73.348 42.2572 73.348 42.257 73.348 42.2568C73.348 42.2566 73.348 42.2564 73.348 42.2562C73.348 42.256 73.348 42.2557 73.348 42.2555C73.348 42.2553 73.348 42.2551 73.348 42.2549C73.348 42.2547 73.348 42.2545 73.348 42.2543C73.348 42.254 73.348 42.2538 73.348 42.2536C73.348 42.2534 73.348 42.2532 73.348 42.253C73.348 42.2528 73.348 42.2526 73.348 42.2524C73.348 42.2522 73.348 42.2519 73.348 42.2517C73.348 42.2515 73.348 42.2513 73.348 42.2511C73.348 42.2509 73.348 42.2507 73.348 42.2505C73.348 42.2503 73.348 42.2501 73.348 42.2499C73.348 42.2496 73.348 42.2494 73.348 42.2492C73.348 42.249 73.348 42.2488 73.348 42.2486C73.348 42.2484 73.348 42.2482 73.348 42.248C73.348 42.2478 73.348 42.2476 73.348 42.2474C73.348 42.2472 73.348 42.2469 73.348 42.2467C73.348 42.2465 73.348 42.2463 73.348 42.2461C73.348 42.2459 73.348 42.2457 73.348 42.2455C73.348 42.2453 73.348 42.2451 73.348 42.2449C73.348 42.2447 73.348 42.2445 73.348 42.2443C73.348 42.2441 73.348 42.2439 73.348 42.2437C73.348 42.2435 73.348 42.2432 73.348 42.243C73.348 42.2428 73.348 42.2426 73.348 42.2424C73.348 42.2422 73.348 42.242 73.348 42.2418C73.348 42.2416 73.348 42.2414 73.348 42.2412C73.348 42.241 73.348 42.2408 73.348 42.2406C73.348 42.2404 73.348 42.2402 73.348 42.24C73.348 42.2398 73.348 42.2396 73.348 42.2394C73.348 42.2392 73.348 42.239 73.348 42.2388C73.348 42.2386 73.348 42.2384 73.348 42.2382C73.348 42.238 73.348 42.2378 73.348 42.2376C73.348 42.2374 73.348 42.2372 73.348 42.237C73.348 42.2368 73.348 42.2366 73.348 42.2364C73.348 42.2362 73.348 42.236 73.348 42.2358C73.348 42.2356 73.348 42.2354 73.348 42.2352C73.348 42.235 73.348 42.2348 73.348 42.2346C73.348 42.2344 73.348 42.2342 73.348 42.234C73.348 42.2338 73.348 42.2336 73.348 42.2334C73.348 42.2332 73.348 42.233 73.348 42.2328C73.348 42.2326 73.348 42.2324 73.348 42.2322C73.348 42.232 73.348 42.2318 73.348 42.2316C73.348 42.2314 73.348 42.2312 73.348 42.231C73.348 42.2309 73.348 42.2307 73.348 42.2305C73.348 42.2303 73.348 42.2301 73.348 42.2299C73.348 42.2297 73.348 42.2295 73.348 42.2293C73.348 42.2291 73.348 42.2289 73.348 42.2287C73.348 42.2285 73.348 42.2283 73.348 42.2281C73.348 42.2279 73.348 42.2277 73.348 42.2275C73.348 42.2273 73.348 42.2272 73.348 42.227C73.348 42.2268 73.348 42.2266 73.348 42.2264C73.348 42.2262 73.348 42.226 73.348 42.2258C73.348 42.2256 73.348 42.2254 73.348 42.2252C73.348 42.225 73.348 42.2248 73.348 42.2247C73.348 42.2245 73.348 42.2243 73.348 42.2241C73.348 42.2239 73.348 42.2237 73.348 42.2235C73.348 42.2233 73.348 42.2231 73.348 42.2229C73.348 42.2227 73.348 42.2226 73.348 42.2224C73.348 42.2222 73.348 42.222 73.348 42.2218C73.348 42.2216 73.348 42.2214 73.348 42.2212C73.348 42.221 73.348 42.2209 73.348 42.2207C73.348 42.2205 73.348 42.2203 73.348 42.2201C73.348 42.2199 73.348 42.2197 73.348 42.2195C73.348 42.2193 73.348 42.2192 73.348 42.219C73.348 42.2188 73.348 42.2186 73.348 42.2184C73.348 42.2182 73.348 42.218 73.348 42.2179C73.348 42.2177 73.348 42.2175 73.348 42.2173C73.348 42.2171 73.348 42.2169 73.348 42.2167C73.348 42.2166 73.348 42.2164 73.348 42.2162C73.348 42.216 73.348 42.2158 73.348 42.2156C73.348 42.2154 73.348 42.2153 73.348 42.2151C73.348 42.2149 73.348 42.2147 73.348 42.2145C73.348 42.2143 73.348 42.2142 73.348 42.214C73.348 42.2138 73.348 42.2136 73.348 42.2134C73.348 42.2132 73.348 42.213 73.348 42.2129C73.348 42.2127 73.348 42.2125 73.348 42.2123C73.348 42.2121 73.348 42.212 73.348 42.2118C73.348 42.2116 73.348 42.2114 73.348 42.2112C73.348 42.211 73.348 42.2109 73.348 42.2107C73.348 42.2105 73.348 42.2103 73.348 42.2101C73.348 42.21 73.348 42.2098 73.348 42.2096C73.348 42.2094 73.348 42.2092 73.348 42.2091C73.348 42.2089 73.348 42.2087 73.348 42.2085C73.348 42.2083 73.348 42.2082 73.348 42.208C73.348 42.2078 73.348 42.2076 73.348 42.2074C73.348 42.2073 73.348 42.2071 73.348 42.2069C73.348 42.2067 73.348 42.2065 73.348 42.2064C73.348 42.2062 73.348 42.206 73.348 42.2058C73.348 42.2057 73.348 42.2055 73.348 42.2053C73.348 42.2051 73.348 42.205 73.348 42.2048C73.348 42.2046 73.348 42.2044 73.348 42.2042C73.348 42.2041 73.348 42.2039 73.348 42.2037C73.348 42.2035 73.348 42.2034 73.348 42.2032C73.348 42.203 73.348 42.2028 73.348 42.2027C73.348 42.2025 73.348 42.2023 73.348 42.2021C73.348 42.202 73.348 42.2018 73.348 42.2016C73.348 42.2014 73.348 42.2013 73.348 42.2011C73.348 42.2009 73.348 42.2007 73.348 42.2006C73.348 42.2004 73.348 42.2002 73.348 42.2001C73.348 42.1999 73.348 42.1997 73.348 42.1995C73.348 42.1994 73.348 42.1992 73.348 42.199C73.348 42.1988 73.348 42.1987 73.348 42.1985C73.348 42.1983 73.348 42.1982 73.348 42.198C73.348 42.1978 73.348 42.1976 73.348 42.1975C73.348 42.1973 73.348 42.1971 73.348 42.197C73.348 42.1968 73.348 42.1966 73.348 42.1964C73.348 42.1963 73.348 42.1961 73.348 42.1959C73.348 42.1958 73.348 42.1956 73.348 42.1954C73.348 42.1953 73.348 42.1951 73.348 42.1949C73.348 42.1948 73.348 42.1946 73.348 42.1944C73.348 42.1942 73.348 42.1941 73.348 42.1939C73.348 42.1937 73.348 42.1936 73.348 42.1934C73.348 42.1932 73.348 42.1931 73.348 42.1929C73.348 42.1927 73.348 42.1926 73.348 42.1924C73.348 42.1922 73.348 42.1921 73.348 42.1919C73.348 42.1917 73.348 42.1916 73.348 42.1914C73.348 42.1912 73.348 42.1911 73.348 42.1909C73.348 42.1907 73.348 42.1906 73.348 42.1904C73.348 42.1902 73.348 42.1901 73.348 42.1899C73.348 42.1897 73.348 42.1896 73.348 42.1894C73.348 42.1893 73.348 42.1891 73.348 42.1889C73.348 42.1888 73.348 42.1886 73.348 42.1884C73.348 42.1883 73.348 42.1881 73.348 42.1879C73.348 42.1878 73.348 42.1876 73.348 42.1875C73.348 42.1873 73.348 42.1871 73.348 42.187C73.348 42.1868 73.348 42.1866 73.348 42.1865C73.348 42.1863 73.348 42.1862 73.348 42.186C73.348 42.1858 73.348 42.1857 73.348 42.1855C73.348 42.1853 73.348 42.1852 73.348 42.185C73.348 42.1849 73.348 42.1847 73.348 42.1845C73.348 42.1844 73.348 42.1842 73.348 42.1841C73.348 42.1839 73.348 42.1837 73.348 42.1836C73.348 42.1834 73.348 42.1833 73.348 42.1831C73.348 42.1829 73.348 42.1828 73.348 42.1826C73.348 42.1825 73.348 42.1823 73.348 42.1821C73.348 42.182 73.348 42.1818 73.348 42.1817C73.348 42.1815 73.348 42.1814 73.348 42.1812C73.348 42.181 73.348 42.1809 73.348 42.1807C73.348 42.1806 73.348 42.1804 73.348 42.1803C73.348 42.1801 73.348 42.1799 73.348 42.1798C73.348 42.1796 73.348 42.1795 73.348 42.1793C73.348 42.1792 73.348 42.179 73.348 42.1789C73.348 42.1787 73.348 42.1785 73.348 42.1784C73.348 42.1782 73.348 42.1781 73.348 42.1779C73.348 42.1778 73.348 42.1776 73.348 42.1775C73.348 42.1773 73.348 42.1771 73.348 42.177C73.348 42.1768 73.348 42.1767 73.348 42.1765C73.348 42.1764 73.348 42.1762 73.348 42.1761C73.348 42.1759 73.348 42.1758 73.348 42.1756C73.348 42.1755 73.348 42.1753 73.348 42.1752C73.348 42.175 73.348 42.1749 73.348 42.1747C73.348 42.1745 73.348 42.1744 73.348 42.1742C73.348 42.1741 73.348 42.1739 73.348 42.1738C73.348 42.1736 73.348 42.1735 73.348 42.1733C73.348 42.1732 73.348 42.173 73.348 42.1729C73.348 42.1727 73.348 42.1726 73.348 42.1724C73.348 42.1723 73.348 42.1721 73.348 42.172C73.348 42.1718 73.348 42.1717 73.348 42.1715C73.348 42.1714 73.348 42.1712 73.348 42.1711C73.348 42.1709 73.348 42.1708 73.348 42.1706C73.348 42.1705 73.348 42.1704 73.348 42.1702C73.348 42.1701 73.348 42.1699 73.348 42.1698C73.348 42.1696 73.348 42.1695 73.348 42.1693C73.348 42.1692 73.348 42.169 73.348 42.1689C73.348 42.1687 73.348 42.1686 73.348 42.1684C73.348 42.1683 73.348 42.1681 73.348 42.168H70.348C70.348 42.1681 70.348 42.1683 70.348 42.1684C70.348 42.1686 70.348 42.1687 70.348 42.1689C70.348 42.169 70.348 42.1692 70.348 42.1693C70.348 42.1695 70.348 42.1696 70.348 42.1698C70.348 42.1699 70.348 42.1701 70.348 42.1702C70.348 42.1704 70.348 42.1705 70.348 42.1706C70.348 42.1708 70.348 42.1709 70.348 42.1711C70.348 42.1712 70.348 42.1714 70.348 42.1715C70.348 42.1717 70.348 42.1718 70.348 42.172C70.348 42.1721 70.348 42.1723 70.348 42.1724C70.348 42.1726 70.348 42.1727 70.348 42.1729C70.348 42.173 70.348 42.1732 70.348 42.1733C70.348 42.1735 70.348 42.1736 70.348 42.1738C70.348 42.1739 70.348 42.1741 70.348 42.1742C70.348 42.1744 70.348 42.1745 70.348 42.1747C70.348 42.1749 70.348 42.175 70.348 42.1752C70.348 42.1753 70.348 42.1755 70.348 42.1756C70.348 42.1758 70.348 42.1759 70.348 42.1761C70.348 42.1762 70.348 42.1764 70.348 42.1765C70.348 42.1767 70.348 42.1768 70.348 42.177C70.348 42.1771 70.348 42.1773 70.348 42.1775C70.348 42.1776 70.348 42.1778 70.348 42.1779C70.348 42.1781 70.348 42.1782 70.348 42.1784C70.348 42.1785 70.348 42.1787 70.348 42.1789C70.348 42.179 70.348 42.1792 70.348 42.1793C70.348 42.1795 70.348 42.1796 70.348 42.1798C70.348 42.1799 70.348 42.1801 70.348 42.1803C70.348 42.1804 70.348 42.1806 70.348 42.1807C70.348 42.1809 70.348 42.181 70.348 42.1812C70.348 42.1814 70.348 42.1815 70.348 42.1817C70.348 42.1818 70.348 42.182 70.348 42.1821C70.348 42.1823 70.348 42.1825 70.348 42.1826C70.348 42.1828 70.348 42.1829 70.348 42.1831C70.348 42.1833 70.348 42.1834 70.348 42.1836C70.348 42.1837 70.348 42.1839 70.348 42.1841C70.348 42.1842 70.348 42.1844 70.348 42.1845C70.348 42.1847 70.348 42.1849 70.348 42.185C70.348 42.1852 70.348 42.1853 70.348 42.1855C70.348 42.1857 70.348 42.1858 70.348 42.186C70.348 42.1862 70.348 42.1863 70.348 42.1865C70.348 42.1866 70.348 42.1868 70.348 42.187C70.348 42.1871 70.348 42.1873 70.348 42.1875C70.348 42.1876 70.348 42.1878 70.348 42.1879C70.348 42.1881 70.348 42.1883 70.348 42.1884C70.348 42.1886 70.348 42.1888 70.348 42.1889C70.348 42.1891 70.348 42.1893 70.348 42.1894C70.348 42.1896 70.348 42.1897 70.348 42.1899C70.348 42.1901 70.348 42.1902 70.348 42.1904C70.348 42.1906 70.348 42.1907 70.348 42.1909C70.348 42.1911 70.348 42.1912 70.348 42.1914C70.348 42.1916 70.348 42.1917 70.348 42.1919C70.348 42.1921 70.348 42.1922 70.348 42.1924C70.348 42.1926 70.348 42.1927 70.348 42.1929C70.348 42.1931 70.348 42.1932 70.348 42.1934C70.348 42.1936 70.348 42.1937 70.348 42.1939C70.348 42.1941 70.348 42.1942 70.348 42.1944C70.348 42.1946 70.348 42.1948 70.348 42.1949C70.348 42.1951 70.348 42.1953 70.348 42.1954C70.348 42.1956 70.348 42.1958 70.348 42.1959C70.348 42.1961 70.348 42.1963 70.348 42.1964C70.348 42.1966 70.348 42.1968 70.348 42.197C70.348 42.1971 70.348 42.1973 70.348 42.1975C70.348 42.1976 70.348 42.1978 70.348 42.198C70.348 42.1982 70.348 42.1983 70.348 42.1985C70.348 42.1987 70.348 42.1988 70.348 42.199C70.348 42.1992 70.348 42.1994 70.348 42.1995C70.348 42.1997 70.348 42.1999 70.348 42.2001C70.348 42.2002 70.348 42.2004 70.348 42.2006C70.348 42.2007 70.348 42.2009 70.348 42.2011C70.348 42.2013 70.348 42.2014 70.348 42.2016C70.348 42.2018 70.348 42.202 70.348 42.2021C70.348 42.2023 70.348 42.2025 70.348 42.2027C70.348 42.2028 70.348 42.203 70.348 42.2032C70.348 42.2034 70.348 42.2035 70.348 42.2037C70.348 42.2039 70.348 42.2041 70.348 42.2042C70.348 42.2044 70.348 42.2046 70.348 42.2048C70.348 42.205 70.348 42.2051 70.348 42.2053C70.348 42.2055 70.348 42.2057 70.348 42.2058C70.348 42.206 70.348 42.2062 70.348 42.2064C70.348 42.2065 70.348 42.2067 70.348 42.2069C70.348 42.2071 70.348 42.2073 70.348 42.2074C70.348 42.2076 70.348 42.2078 70.348 42.208C70.348 42.2082 70.348 42.2083 70.348 42.2085C70.348 42.2087 70.348 42.2089 70.348 42.2091C70.348 42.2092 70.348 42.2094 70.348 42.2096C70.348 42.2098 70.348 42.21 70.348 42.2101C70.348 42.2103 70.348 42.2105 70.348 42.2107C70.348 42.2109 70.348 42.211 70.348 42.2112C70.348 42.2114 70.348 42.2116 70.348 42.2118C70.348 42.212 70.348 42.2121 70.348 42.2123C70.348 42.2125 70.348 42.2127 70.348 42.2129C70.348 42.213 70.348 42.2132 70.348 42.2134C70.348 42.2136 70.348 42.2138 70.348 42.214C70.348 42.2142 70.348 42.2143 70.348 42.2145C70.348 42.2147 70.348 42.2149 70.348 42.2151C70.348 42.2153 70.348 42.2154 70.348 42.2156C70.348 42.2158 70.348 42.216 70.348 42.2162C70.348 42.2164 70.348 42.2166 70.348 42.2167C70.348 42.2169 70.348 42.2171 70.348 42.2173C70.348 42.2175 70.348 42.2177 70.348 42.2179C70.348 42.218 70.348 42.2182 70.348 42.2184C70.348 42.2186 70.348 42.2188 70.348 42.219C70.348 42.2192 70.348 42.2193 70.348 42.2195C70.348 42.2197 70.348 42.2199 70.348 42.2201C70.348 42.2203 70.348 42.2205 70.348 42.2207C70.348 42.2209 70.348 42.221 70.348 42.2212C70.348 42.2214 70.348 42.2216 70.348 42.2218C70.348 42.222 70.348 42.2222 70.348 42.2224C70.348 42.2226 70.348 42.2227 70.348 42.2229C70.348 42.2231 70.348 42.2233 70.348 42.2235C70.348 42.2237 70.348 42.2239 70.348 42.2241C70.348 42.2243 70.348 42.2245 70.348 42.2247C70.348 42.2248 70.348 42.225 70.348 42.2252C70.348 42.2254 70.348 42.2256 70.348 42.2258C70.348 42.226 70.348 42.2262 70.348 42.2264C70.348 42.2266 70.348 42.2268 70.348 42.227C70.348 42.2272 70.348 42.2273 70.348 42.2275C70.348 42.2277 70.348 42.2279 70.348 42.2281C70.348 42.2283 70.348 42.2285 70.348 42.2287C70.348 42.2289 70.348 42.2291 70.348 42.2293C70.348 42.2295 70.348 42.2297 70.348 42.2299C70.348 42.2301 70.348 42.2303 70.348 42.2305C70.348 42.2307 70.348 42.2309 70.348 42.231C70.348 42.2312 70.348 42.2314 70.348 42.2316C70.348 42.2318 70.348 42.232 70.348 42.2322C70.348 42.2324 70.348 42.2326 70.348 42.2328C70.348 42.233 70.348 42.2332 70.348 42.2334C70.348 42.2336 70.348 42.2338 70.348 42.234C70.348 42.2342 70.348 42.2344 70.348 42.2346C70.348 42.2348 70.348 42.235 70.348 42.2352C70.348 42.2354 70.348 42.2356 70.348 42.2358C70.348 42.236 70.348 42.2362 70.348 42.2364C70.348 42.2366 70.348 42.2368 70.348 42.237C70.348 42.2372 70.348 42.2374 70.348 42.2376C70.348 42.2378 70.348 42.238 70.348 42.2382C70.348 42.2384 70.348 42.2386 70.348 42.2388C70.348 42.239 70.348 42.2392 70.348 42.2394C70.348 42.2396 70.348 42.2398 70.348 42.24C70.348 42.2402 70.348 42.2404 70.348 42.2406C70.348 42.2408 70.348 42.241 70.348 42.2412C70.348 42.2414 70.348 42.2416 70.348 42.2418C70.348 42.242 70.348 42.2422 70.348 42.2424C70.348 42.2426 70.348 42.2428 70.348 42.243C70.348 42.2432 70.348 42.2435 70.348 42.2437C70.348 42.2439 70.348 42.2441 70.348 42.2443C70.348 42.2445 70.348 42.2447 70.348 42.2449C70.348 42.2451 70.348 42.2453 70.348 42.2455C70.348 42.2457 70.348 42.2459 70.348 42.2461C70.348 42.2463 70.348 42.2465 70.348 42.2467C70.348 42.2469 70.348 42.2472 70.348 42.2474C70.348 42.2476 70.348 42.2478 70.348 42.248C70.348 42.2482 70.348 42.2484 70.348 42.2486C70.348 42.2488 70.348 42.249 70.348 42.2492C70.348 42.2494 70.348 42.2496 70.348 42.2499C70.348 42.2501 70.348 42.2503 70.348 42.2505C70.348 42.2507 70.348 42.2509 70.348 42.2511C70.348 42.2513 70.348 42.2515 70.348 42.2517C70.348 42.2519 70.348 42.2522 70.348 42.2524C70.348 42.2526 70.348 42.2528 70.348 42.253C70.348 42.2532 70.348 42.2534 70.348 42.2536C70.348 42.2538 70.348 42.254 70.348 42.2543C70.348 42.2545 70.348 42.2547 70.348 42.2549C70.348 42.2551 70.348 42.2553 70.348 42.2555C70.348 42.2557 70.348 42.256 70.348 42.2562C70.348 42.2564 70.348 42.2566 70.348 42.2568C70.348 42.257 70.348 42.2572 70.348 42.2574C70.348 42.2577 70.348 42.2579 70.348 42.2581C70.348 42.2583 70.348 42.2585 70.348 42.2587C70.348 42.2589 70.348 42.2592 70.348 42.2594C70.348 42.2596 70.348 42.2598 70.348 42.26C70.348 42.2602 70.348 42.2604 70.348 42.2607C70.348 42.2609 70.348 42.2611 70.348 42.2613C70.348 42.2615 70.348 42.2617 70.348 42.262C70.348 42.2622 70.348 42.2624 70.348 42.2626C70.348 42.2628 70.348 42.263 70.348 42.2633C70.348 42.2635 70.348 42.2637 70.348 42.2639C70.348 42.2641 70.348 42.2643 70.348 42.2646C70.348 42.2648 70.348 42.265 70.348 42.2652C70.348 42.2654 70.348 42.2656 70.348 42.2659C70.348 42.2661 70.348 42.2663 70.348 42.2665C70.348 42.2667 70.348 42.267 70.348 42.2672C70.348 42.2674 70.348 42.2676 70.348 42.2678C70.348 42.2681 70.348 42.2683 70.348 42.2685C70.348 42.2687 70.348 42.2689 70.348 42.2692C70.348 42.2694 70.348 42.2696 70.348 42.2698C70.348 42.27 70.348 42.2703 70.348 42.2705C70.348 42.2707 70.348 42.2709 70.348 42.2712C70.348 42.2714 70.348 42.2716 70.348 42.2718C70.348 42.272 70.348 42.2723 70.348 42.2725C70.348 42.2727 70.348 42.2729 70.348 42.2732C70.348 42.2734 70.348 42.2736 70.348 42.2738C70.348 42.2741 70.348 42.2743 70.348 42.2745C70.348 42.2747 70.348 42.2749 70.348 42.2752C70.348 42.2754 70.348 42.2756 70.348 42.2758C70.348 42.2761 70.348 42.2763 70.348 42.2765C70.348 42.2767 70.348 42.277 70.348 42.2772C70.348 42.2774 70.348 42.2776 70.348 42.2779C70.348 42.2781 70.348 42.2783 70.348 42.2786C70.348 42.2788 70.348 42.279 70.348 42.2792C70.348 42.2795 70.348 42.2797 70.348 42.2799C70.348 42.2801 70.348 42.2804 70.348 42.2806C70.348 42.2808 70.348 42.2811 70.348 42.2813C70.348 42.2815 70.348 42.2817 70.348 42.282C70.348 42.2822 70.348 42.2824 70.348 42.2826C70.348 42.2829 70.348 42.2831 70.348 42.2833C70.348 42.2836 70.348 42.2838 70.348 42.284C70.348 42.2843 70.348 42.2845 70.348 42.2847C70.348 42.2849 70.348 42.2852 70.348 42.2854C70.348 42.2856 70.348 42.2859 70.348 42.2861C70.348 42.2863 70.348 42.2866 70.348 42.2868C70.348 42.287 70.348 42.2873 70.348 42.2875C70.348 42.2877 70.348 42.2879 70.348 42.2882C70.348 42.2884 70.348 42.2886 70.348 42.2889C70.348 42.2891 70.348 42.2893 70.348 42.2896C70.348 42.2898 70.348 42.29 70.348 42.2903C70.348 42.2905 70.348 42.2907 70.348 42.291C70.348 42.2912 70.348 42.2914 70.348 42.2917C70.348 42.2919 70.348 42.2921 70.348 42.2924C70.348 42.2926 70.348 42.2929 70.348 42.2931C70.348 42.2933 70.348 42.2936 70.348 42.2938C70.348 42.294 70.348 42.2943 70.348 42.2945C70.348 42.2947 70.348 42.295 70.348 42.2952C70.348 42.2954 70.348 42.2957 70.348 42.2959C70.348 42.2962 70.348 42.2964 70.348 42.2966C70.348 42.2969 70.348 42.2971 70.348 42.2973C70.348 42.2976 70.348 42.2978 70.348 42.298C70.348 42.2983 70.348 42.2985 70.348 42.2988C70.348 42.299 70.348 42.2992 70.348 42.2995C70.348 42.2997 70.348 42.3 70.348 42.3002C70.348 42.3004 70.348 42.3007 70.348 42.3009C70.348 42.3012 70.348 42.3014 70.348 42.3016C70.348 42.3019 70.348 42.3021 70.348 42.3024C70.348 42.3026 70.348 42.3028 70.348 42.3031C70.348 42.3033 70.348 42.3036 70.348 42.3038C70.348 42.304 70.348 42.3043 70.348 42.3045C70.348 42.3048 70.348 42.305 70.348 42.3052C70.348 42.3055 70.348 42.3057 70.348 42.306C70.348 42.3062 70.348 42.3065 70.348 42.3067C70.348 42.3069 70.348 42.3072 70.348 42.3074C70.348 42.3077 70.348 42.3079 70.348 42.3082C70.348 42.3084 70.348 42.3086 70.348 42.3089C70.348 42.3091 70.348 42.3094 70.348 42.3096C70.348 42.3099 70.348 42.3101 70.348 42.3104C70.348 42.3106 70.348 42.3108 70.348 42.3111C70.348 42.3113 70.348 42.3116 70.348 42.3118C70.348 42.3121 70.348 42.3123 70.348 42.3126C70.348 42.3128 70.348 42.3131 70.348 42.3133C70.348 42.3135 70.348 42.3138 70.348 42.314C70.348 42.3143 70.348 42.3145 70.348 42.3148C70.348 42.315 70.348 42.3153 70.348 42.3155C70.348 42.3158 70.348 42.316 70.348 42.3163C70.348 42.3165 70.348 42.3168 70.348 42.317C70.348 42.3173 70.348 42.3175 70.348 42.3178C70.348 42.318 70.348 42.3183 70.348 42.3185C70.348 42.3188 70.348 42.319 70.348 42.3193C70.348 42.3195 70.348 42.3197 70.348 42.32C70.348 42.3202 70.348 42.3205 70.348 42.3208C70.348 42.321 70.348 42.3213 70.348 42.3215C70.348 42.3218 70.348 42.322 70.348 42.3223C70.348 42.3225 70.348 42.3228 70.348 42.323C70.348 42.3233 70.348 42.3235 70.348 42.3238C70.348 42.324 70.348 42.3243 70.348 42.3245C70.348 42.3248 70.348 42.325 70.348 42.3253C70.348 42.3255 70.348 42.3258 70.348 42.326C70.348 42.3263 70.348 42.3265 70.348 42.3268C70.348 42.3271 70.348 42.3273 70.348 42.3276C70.348 42.3278 70.348 42.3281 70.348 42.3283C70.348 42.3286 70.348 42.3288 70.348 42.3291C70.348 42.3293 70.348 42.3296 70.348 42.3299C70.348 42.3301 70.348 42.3304 70.348 42.3306C70.348 42.3309 70.348 42.3311 70.348 42.3314C70.348 42.3316 70.348 42.3319 70.348 42.3322C70.348 42.3324 70.348 42.3327 70.348 42.3329C70.348 42.3332 70.348 42.3334 70.348 42.3337C70.348 42.334 70.348 42.3342 70.348 42.3345C70.348 42.3347 70.348 42.335 70.348 42.3352C70.348 42.3355 70.348 42.3358 70.348 42.336C70.348 42.3363 70.348 42.3365 70.348 42.3368C70.348 42.3371 70.348 42.3373 70.348 42.3376C70.348 42.3378 70.348 42.3381 70.348 42.3384C70.348 42.3386 70.348 42.3389 70.348 42.3391C70.348 42.3394 70.348 42.3397 70.348 42.3399C70.348 42.3402 70.348 42.3404 70.348 42.3407C70.348 42.341 70.348 42.3412 70.348 42.3415C70.348 42.3417 70.348 42.342 70.348 42.3423C70.348 42.3425 70.348 42.3428 70.348 42.343C70.348 42.3433 70.348 42.3436 70.348 42.3438C70.348 42.3441 70.348 42.3444 70.348 42.3446C70.348 42.3449 70.348 42.3452 70.348 42.3454C70.348 42.3457 70.348 42.3459 70.348 42.3462C70.348 42.3465 70.348 42.3467 70.348 42.347C70.348 42.3473 70.348 42.3475 70.348 42.3478C70.348 42.3481 70.348 42.3483 70.348 42.3486C70.348 42.3489 70.348 42.3491 70.348 42.3494C70.348 42.3496 70.348 42.3499 70.348 42.3502C70.348 42.3504 70.348 42.3507 70.348 42.351C70.348 42.3512 70.348 42.3515 70.348 42.3518C70.348 42.352 70.348 42.3523 70.348 42.3526C70.348 42.3528 70.348 42.3531 70.348 42.3534C70.348 42.3536 70.348 42.3539 70.348 42.3542C70.348 42.3544 70.348 42.3547 70.348 42.355C70.348 42.3553 70.348 42.3555 70.348 42.3558C70.348 42.3561 70.348 42.3563 70.348 42.3566C70.348 42.3569 70.348 42.3571 70.348 42.3574C70.348 42.3577 70.348 42.3579 70.348 42.3582C70.348 42.3585 70.348 42.3588 70.348 42.359C70.348 42.3593 70.348 42.3596 70.348 42.3598C70.348 42.3601 70.348 42.3604 70.348 42.3607C70.348 42.3609 70.348 42.3612 70.348 42.3615C70.348 42.3617 70.348 42.362 70.348 42.3623C70.348 42.3626 70.348 42.3628 70.348 42.3631C70.348 42.3634 70.348 42.3636 70.348 42.3639C70.348 42.3642 70.348 42.3645 70.348 42.3647C70.348 42.365 70.348 42.3653 70.348 42.3656C70.348 42.3658 70.348 42.3661 70.348 42.3664C70.348 42.3666 70.348 42.3669 70.348 42.3672C70.348 42.3675 70.348 42.3677 70.348 42.368C70.348 42.3683 70.348 42.3686 70.348 42.3688C70.348 42.3691 70.348 42.3694 70.348 42.3697C70.348 42.3699 70.348 42.3702 70.348 42.3705C70.348 42.3708 70.348 42.3711 70.348 42.3713C70.348 42.3716 70.348 42.3719 70.348 42.3722C70.348 42.3724 70.348 42.3727 70.348 42.373C70.348 42.3733 70.348 42.3735 70.348 42.3738C70.348 42.3741 70.348 42.3744 70.348 42.3747C70.348 42.3749 70.348 42.3752 70.348 42.3755C70.348 42.3758 70.348 42.376 70.348 42.3763C70.348 42.3766 70.348 42.3769 70.348 42.3772C70.348 42.3774 70.348 42.3777 70.348 42.378C70.348 42.3783 70.348 42.3786 70.348 42.3788C70.348 42.3791 70.348 42.3794 70.348 42.3797C70.348 42.38 70.348 42.3802 70.348 42.3805C70.348 42.3808 70.348 42.3811 70.348 42.3814C70.348 42.3816 70.348 42.3819 70.348 42.3822C70.348 42.3825 70.348 42.3828 70.348 42.3831C70.348 42.3833 70.348 42.3836 70.348 42.3839C70.348 42.3842 70.348 42.3845 70.348 42.3848C70.348 42.385 70.348 42.3853 70.348 42.3856C70.348 42.3859 70.348 42.3862 70.348 42.3865C70.348 42.3867 70.348 42.387 70.348 42.3873C70.348 42.3876 70.348 42.3879 70.348 42.3882C70.348 42.3884 70.348 42.3887 70.348 42.389C70.348 42.3893 70.348 42.3896 70.348 42.3899C70.348 42.3902 70.348 42.3904 70.348 42.3907C70.348 42.391 70.348 42.3913 70.348 42.3916C70.348 42.3919 70.348 42.3922 70.348 42.3924C70.348 42.3927 70.348 42.393 70.348 42.3933C70.348 42.3936 70.348 42.3939 70.348 42.3942C70.348 42.3945 70.348 42.3947 70.348 42.395C70.348 42.3953 70.348 42.3956 70.348 42.3959C70.348 42.3962 70.348 42.3965 70.348 42.3968C70.348 42.397 70.348 42.3973 70.348 42.3976C70.348 42.3979 70.348 42.3982 70.348 42.3985C70.348 42.3988 70.348 42.3991 70.348 42.3994C70.348 42.3997 70.348 42.3999 70.348 42.4002C70.348 42.4005 70.348 42.4008 70.348 42.4011C70.348 42.4014 70.348 42.4017 70.348 42.402C70.348 42.4023 70.348 42.4026 70.348 42.4029C70.348 42.4031 70.348 42.4034 70.348 42.4037C70.348 42.404 70.348 42.4043 70.348 42.4046C70.348 42.4049 70.348 42.4052 70.348 42.4055C70.348 42.4058 70.348 42.4061 70.348 42.4064C70.348 42.4067 70.348 42.4069 70.348 42.4072C70.348 42.4075 70.348 42.4078 70.348 42.4081C70.348 42.4084 70.348 42.4087 70.348 42.409C70.348 42.4093 70.348 42.4096 70.348 42.4099C70.348 42.4102 70.348 42.4105 70.348 42.4108C70.348 42.4111 70.348 42.4114 70.348 42.4117C70.348 42.412 70.348 42.4122 70.348 42.4125C70.348 42.4128 70.348 42.4131 70.348 42.4134C70.348 42.4137 70.348 42.414 70.348 42.4143C70.348 42.4146 70.348 42.4149 70.348 42.4152C70.348 42.4155 70.348 42.4158 70.348 42.4161C70.348 42.4164 70.348 42.4167 70.348 42.417C70.348 42.4173 70.348 42.4176 70.348 42.4179C70.348 42.4182 70.348 42.4185 70.348 42.4188C70.348 42.4191 70.348 42.4194 70.348 42.4197C70.348 42.42 70.348 42.4203 70.348 42.4206C70.348 42.4209 70.348 42.4212 70.348 42.4215C70.348 42.4218 70.348 42.4221 70.348 42.4224C70.348 42.4227 70.348 42.423 70.348 42.4233C70.348 42.4236 70.348 42.4239 70.348 42.4242C70.348 42.4245 70.348 42.4248 70.348 42.4251C70.348 42.4254 70.348 42.4257 70.348 42.426C70.348 42.4263 70.348 42.4266 70.348 42.4269C70.348 42.4272 70.348 42.4275 70.348 42.4278C70.348 42.4281 70.348 42.4284 70.348 42.4287C70.348 42.429 70.348 42.4293 70.348 42.4296C70.348 42.4299 70.348 42.4302 70.348 42.4305C70.348 42.4309 70.348 42.4312 70.348 42.4315C70.348 42.4318 70.348 42.4321 70.348 42.4324C70.348 42.4327 70.348 42.433 70.348 42.4333C70.348 42.4336 70.348 42.4339 70.348 42.4342C70.348 42.4345 70.348 42.4348 70.348 42.4351C70.348 42.4354 70.348 42.4357 70.348 42.436C70.348 42.4363 70.348 42.4367 70.348 42.437C70.348 42.4373 70.348 42.4376 70.348 42.4379C70.348 42.4382 70.348 42.4385 70.348 42.4388C70.348 42.4391 70.348 42.4394 70.348 42.4397C70.348 42.44 70.348 42.4403 70.348 42.4407C70.348 42.441 70.348 42.4413 70.348 42.4416C70.348 42.4419 70.348 42.4422 70.348 42.4425C70.348 42.4428 70.348 42.4431 70.348 42.4434C70.348 42.4437 70.348 42.4441 70.348 42.4444C70.348 42.4447 70.348 42.445 70.348 42.4453C70.348 42.4456 70.348 42.4459 70.348 42.4462C70.348 42.4465 70.348 42.4469 70.348 42.4472C70.348 42.4475 70.348 42.4478 70.348 42.4481C70.348 42.4484 70.348 42.4487 70.348 42.449C70.348 42.4494 70.348 42.4497 70.348 42.45C70.348 42.4503 70.348 42.4506 70.348 42.4509C70.348 42.4512 70.348 42.4515 70.348 42.4519C70.348 42.4522 70.348 42.4525 70.348 42.4528C70.348 42.4531 70.348 42.4534 70.348 42.4537C70.348 42.4541 70.348 42.4544 70.348 42.4547C70.348 42.455 70.348 42.4553 70.348 42.4556C70.348 42.4559 70.348 42.4563 70.348 42.4566C70.348 42.4569 70.348 42.4572 70.348 42.4575C70.348 42.4578 70.348 42.4581 70.348 42.4585C70.348 42.4588 70.348 42.4591 70.348 42.4594C70.348 42.4597 70.348 42.46 70.348 42.4604C70.348 42.4607 70.348 42.461 70.348 42.4613C70.348 42.4616 70.348 42.462 70.348 42.4623C70.348 42.4626 70.348 42.4629 70.348 42.4632C70.348 42.4635 70.348 42.4639 70.348 42.4642C70.348 42.4645 70.348 42.4648 70.348 42.4651C70.348 42.4655 70.348 42.4658 70.348 42.4661C70.348 42.4664 70.348 42.4667 70.348 42.4671C70.348 42.4674 70.348 42.4677 70.348 42.468C70.348 42.4683 70.348 42.4687 70.348 42.469C70.348 42.4693 70.348 42.4696 70.348 42.4699C70.348 42.4703 70.348 42.4706 70.348 42.4709C70.348 42.4712 70.348 42.4715 70.348 42.4719C70.348 42.4722 70.348 42.4725 70.348 42.4728C70.348 42.4732 70.348 42.4735 70.348 42.4738C70.348 42.4741 70.348 42.4745 70.348 42.4748C70.348 42.4751 70.348 42.4754 70.348 42.4757C70.348 42.4761 70.348 42.4764 70.348 42.4767C70.348 42.477 70.348 42.4774 70.348 42.4777C70.348 42.478 70.348 42.4783 70.348 42.4787C70.348 42.479 70.348 42.4793 70.348 42.4796C70.348 42.48 70.348 42.4803 70.348 42.4806C70.348 42.4809 70.348 42.4813 70.348 42.4816C70.348 42.4819 70.348 42.4822 70.348 42.4826C70.348 42.4829 70.348 42.4832 70.348 42.4836C70.348 42.4839 70.348 42.4842 70.348 42.4845C70.348 42.4849 70.348 42.4852 70.348 42.4855C70.348 42.4858 70.348 42.4862 70.348 42.4865C70.348 42.4868 70.348 42.4872 70.348 42.4875C70.348 42.4878 70.348 42.4881 70.348 42.4885C70.348 42.4888 70.348 42.4891 70.348 42.4895C70.348 42.4898 70.348 42.4901 70.348 42.4904C70.348 42.4908 70.348 42.4911 70.348 42.4914C70.348 42.4918 70.348 42.4921 70.348 42.4924C70.348 42.4928 70.348 42.4931 70.348 42.4934C70.348 42.4938 70.348 42.4941 70.348 42.4944C70.348 42.4947 70.348 42.4951 70.348 42.4954C70.348 42.4957 70.348 42.4961 70.348 42.4964C70.348 42.4967 70.348 42.4971 70.348 42.4974C70.348 42.4977 70.348 42.4981 70.348 42.4984C70.348 42.4987 70.348 42.4991 70.348 42.4994C70.348 42.4997 70.348 42.5001 70.348 42.5004C70.348 42.5007 70.348 42.5011 70.348 42.5014C70.348 42.5017 70.348 42.5021 70.348 42.5024C70.348 42.5027 70.348 42.5031 70.348 42.5034C70.348 42.5037 70.348 42.5041 70.348 42.5044C70.348 42.5048 70.348 42.5051 70.348 42.5054C70.348 42.5058 70.348 42.5061 70.348 42.5064C70.348 42.5068 70.348 42.5071 70.348 42.5074C70.348 42.5078 70.348 42.5081 70.348 42.5085C70.348 42.5088 70.348 42.5091 70.348 42.5095C70.348 42.5098 70.348 42.5101 70.348 42.5105C70.348 42.5108 70.348 42.5112 70.348 42.5115C70.348 42.5118 70.348 42.5122 70.348 42.5125C70.348 42.5128 70.348 42.5132 70.348 42.5135C70.348 42.5139 70.348 42.5142 70.348 42.5145C70.348 42.5149 70.348 42.5152 70.348 42.5156C70.348 42.5159 70.348 42.5162 70.348 42.5166C70.348 42.5169 70.348 42.5173 70.348 42.5176C70.348 42.5179 70.348 42.5183 70.348 42.5186C70.348 42.519 70.348 42.5193 70.348 42.5196C70.348 42.52 70.348 42.5203 70.348 42.5207C70.348 42.521 70.348 42.5214 70.348 42.5217C70.348 42.522 70.348 42.5224 70.348 42.5227C70.348 42.5231 70.348 42.5234 70.348 42.5238C70.348 42.5241 70.348 42.5244 70.348 42.5248C70.348 42.5251 70.348 42.5255 70.348 42.5258C70.348 42.5262 70.348 42.5265 70.348 42.5269C70.348 42.5272 70.348 42.5275 70.348 42.5279C70.348 42.5282 70.348 42.5286 70.348 42.5289C70.348 42.5293 70.348 42.5296 70.348 42.53C70.348 42.5303 70.348 42.5306 70.348 42.531C70.348 42.5313 70.348 42.5317 70.348 42.532C70.348 42.5324 70.348 42.5327 70.348 42.5331C70.348 42.5334 70.348 42.5338 70.348 42.5341C70.348 42.5345 70.348 42.5348 70.348 42.5352C70.348 42.5355 70.348 42.5359 70.348 42.5362C70.348 42.5365 70.348 42.5369 70.348 42.5372C70.348 42.5376 70.348 42.5379 70.348 42.5383C70.348 42.5386 70.348 42.539 70.348 42.5393C70.348 42.5397 70.348 42.54 70.348 42.5404C70.348 42.5407 70.348 42.5411 70.348 42.5414C70.348 42.5418 70.348 42.5421 70.348 42.5425C70.348 42.5428 70.348 42.5432 70.348 42.5435C70.348 42.5439 70.348 42.5442 70.348 42.5446C70.348 42.5449 70.348 42.5453 70.348 42.5456C70.348 42.546 70.348 42.5464 70.348 42.5467C70.348 42.5471 70.348 42.5474 70.348 42.5478C70.348 42.5481 70.348 42.5485 70.348 42.5488C70.348 42.5492 70.348 42.5495 70.348 42.5499C70.348 42.5502 70.348 42.5506 70.348 42.5509C70.348 42.5513 70.348 42.5516 70.348 42.552H73.348ZM73.348 42.168C73.348 41.8138 73.403 41.5254 73.4925 41.2867L70.6835 40.2333C70.453 40.8479 70.348 41.4982 70.348 42.168H73.348ZM73.4807 41.3171C73.6052 41.0058 73.7626 40.7229 73.9525 40.4646L71.5355 38.6874C71.1921 39.1545 70.9121 39.6609 70.6953 40.2029L73.4807 41.3171ZM73.9646 40.4479C74.1783 40.1487 74.4175 39.8709 74.6831 39.6139L72.5969 37.4581C72.2011 37.8411 71.843 38.2567 71.5234 38.7041L73.9646 40.4479ZM74.6659 39.6303C75.0129 39.305 75.3547 38.9795 75.6911 38.6539L73.6049 36.4981C73.28 36.8125 72.9497 37.127 72.6141 37.4417L74.6659 39.6303ZM75.6859 38.659C75.9409 38.4146 76.1798 38.1863 76.4025 37.9742L74.3335 35.8018C74.1082 36.0163 73.8671 36.2468 73.6101 36.493L75.6859 38.659ZM76.4287 37.9487C76.6773 37.7001 76.9045 37.4552 77.1074 37.2142L74.8126 35.2818C74.6742 35.4462 74.5067 35.6279 74.3073 35.8273L76.4287 37.9487ZM77.1313 37.185C77.3595 36.8998 77.5604 36.5938 77.7156 36.2661L75.0044 34.9819C74.9676 35.0596 74.9019 35.1695 74.7887 35.311L77.1313 37.185ZM77.7279 36.2395C77.9025 35.8516 78.004 35.4293 78.004 34.984H75.004C75.004 34.9772 75.0049 34.9734 75.0046 34.9747C75.0042 34.9764 75.0016 34.9874 74.9921 35.0085L77.7279 36.2395ZM78.004 34.984C78.004 34.2522 77.7883 33.3563 76.9805 32.7747L75.2275 35.2093C75.1747 35.1713 75.127 35.1249 75.0878 35.0736C75.0491 35.0231 75.0259 34.9773 75.0128 34.945C74.9888 34.8854 75.004 34.8839 75.004 34.984H78.004ZM76.9805 32.7747C76.4106 32.3644 75.7565 32.204 75.112 32.204V35.204C75.1881 35.204 75.2265 35.2132 75.2378 35.2165C75.2467 35.2191 75.2397 35.218 75.2275 35.2093L76.9805 32.7747ZM75.112 32.204C74.6538 32.204 74.2026 32.281 73.7693 32.4435L74.8227 35.2525C74.9014 35.223 74.9942 35.204 75.112 35.204V32.204ZM73.8032 32.4313C73.4649 32.5489 73.1416 32.6985 72.8363 32.8818L74.3797 35.4542C74.501 35.3815 74.6364 35.3177 74.7888 35.2647L73.8032 32.4313ZM72.8564 32.8699C72.5887 33.0249 72.3347 33.1992 72.1038 33.3971L74.0562 35.6749C74.124 35.6168 74.2219 35.5458 74.3596 35.4661L72.8564 32.8699ZM72.1533 33.3565C71.9877 33.4866 71.821 33.6257 71.6833 33.7633L73.8047 35.8847C73.8046 35.8847 73.8057 35.8836 73.8082 35.8812C73.8107 35.8788 73.8143 35.8754 73.8192 35.871C73.8289 35.8621 73.8424 35.8501 73.8602 35.8349C73.8962 35.804 73.9444 35.7645 74.0067 35.7155L72.1533 33.3565ZM73.9662 33.9544L72.7822 32.2904L70.3378 34.0296L71.5218 35.6936L73.9662 33.9544ZM72.5826 34.2574C72.9247 33.9386 73.3286 33.6706 73.8056 33.4568L72.5784 30.7192C71.818 31.0601 71.134 31.5067 70.5374 32.0626L72.5826 34.2574ZM73.8162 33.452C74.2432 33.2566 74.7015 33.156 75.208 33.156V30.156C74.2851 30.156 73.3995 30.3434 72.5678 30.724L73.8162 33.452ZM75.208 33.156C75.7508 33.156 76.1495 33.2191 76.4332 33.3094L77.3428 30.4506C76.6879 30.2422 75.9665 30.156 75.208 30.156V33.156ZM76.4332 33.3094C76.7351 33.4054 76.9129 33.5203 77.0193 33.6192L79.0607 31.4208C78.5698 30.965 77.9796 30.6532 77.3428 30.4506L76.4332 33.3094ZM77.0606 33.6561C77.1663 33.7473 77.2429 33.8557 77.2968 34.0092L80.1272 33.0148C79.9038 32.379 79.5323 31.8261 79.0194 31.3839L77.0606 33.6561ZM77.314 34.0557C77.3844 34.2367 77.436 34.4846 77.436 34.824H80.436C80.436 34.1821 80.3383 33.5553 80.11 32.9683L77.314 34.0557Z" fill="black" mask="url(#path-9-outside-1_18_124)"/>
<path d="M40 50.1079V38.8921C40 38.0887 40.8995 37.6133 41.5633 38.0659L49.7882 43.6738C50.3704 44.0707 50.3704 44.9293 49.7882 45.3262L41.5633 50.9341C40.8995 51.3867 40 50.9113 40 50.1079Z" fill="white" stroke="black" stroke-width="1.5"/>
<path d="M30 50.1079V38.8921C30 38.0887 30.8995 37.6133 31.5633 38.0659L39.7882 43.6738C40.3704 44.0707 40.3704 44.9293 39.7882 45.3262L31.5633 50.9341C30.8995 51.3867 30 50.9113 30 50.1079Z" fill="white" stroke="black" stroke-width="1.5"/>
<path d="M20 50.1079V38.8921C20 38.0887 20.8995 37.6133 21.5633 38.0659L29.7882 43.6738C30.3704 44.0707 30.3704 44.9293 29.7882 45.3262L21.5633 50.9341C20.8995 51.3867 20 50.9113 20 50.1079Z" fill="white" stroke="black" stroke-width="1.5"/>
</g>
</svg>
