<svg width="90" height="90" viewBox="0 0 90 90" fill="none" xmlns="http://www.w3.org/2000/svg">
<mask id="mask0_2007_113" style="mask-type:alpha" maskUnits="userSpaceOnUse" x="0" y="0" width="90" height="90">
<rect width="90" height="90" fill="#D9D9D9"/>
</mask>
<g mask="url(#mask0_2007_113)">
<rect x="15.102" y="69.788" width="61.5" height="17.5" transform="rotate(-1 15.102 69.788)" fill="#8F8555" stroke="black" stroke-width="1.5"/>
<rect x="11.5771" y="46.0077" width="71.5" height="17.5" transform="rotate(2 11.5771 46.0077)" fill="#8F8555" stroke="black" stroke-width="1.5"/>
<rect x="15.102" y="25.788" width="61.5" height="17.5" transform="rotate(-1 15.102 25.788)" fill="#8F8555" stroke="black" stroke-width="1.5"/>
<rect x="11.5771" y="1.00767" width="71.5" height="17.5" transform="rotate(2 11.5771 1.00767)" fill="#8F8555" stroke="black" stroke-width="1.5"/>
<rect x="54.25" y="-0.75" width="11.5" height="91.5" fill="#E2F5FF" stroke="black" stroke-width="1.5"/>
<rect x="24.25" y="-0.75" width="11.5" height="91.5" fill="#E2F5FF" stroke="black" stroke-width="1.5"/>
<path fill-rule="evenodd" clip-rule="evenodd" d="M57.0001 68.917V55.1826C57.0001 54.0832 56.1041 52.9834 55 52.9834H35C33.896 52.9834 33 54.0832 33 55.1826V68.917H57.0001ZM37.032 75.1153V75.0831C37.032 73.9916 36.142 73.1075 35.046 73.1075H35.016C33.92 73.1075 33.032 73.9916 33.032 75.0831V75.1153C33.032 76.2067 33.92 77.0909 35.016 77.0909H35.046C36.142 77.0909 37.032 76.2067 37.032 75.1153ZM54.984 77.0909H55.0161C56.1121 77.0909 57.0001 76.2067 57.0001 75.1153C57.0001 74.0238 56.1121 73.1397 55.0161 73.1397H54.984C53.888 73.1397 53 74.0238 53 75.1153C53 76.2067 53.888 77.0909 54.984 77.0909ZM57.0001 49C59.2101 49 61.0001 50.9916 61.0001 53.1904V69.1241V77.0909C61.0001 79.2917 59.2101 80.8672 57.0001 80.8672H52.288L54.374 86.0714C54.864 87.0732 55 88.3328 53 88.8028V88.8282C53 89.2883 51.258 88.7827 50.78 87.8067L47.836 80.8672H42.096L38.082 87.8448C37.596 88.8048 37 89.2569 35 88.8028V88.8282C35 88.3542 34.004 87.04 34.514 86.0362L37.616 80.8672H33C30.79 80.8672 29 79.2917 29 77.0909V69.1241V53.1904C29 50.9916 30.79 49 33 49H57.0001Z" fill="white" stroke="black" stroke-width="1.5"/>
<mask id="path-9-outside-1_2007_113" maskUnits="userSpaceOnUse" x="35" y="54" width="20" height="15" fill="black">
<rect fill="white" x="35" y="54" width="20" height="15"/>
<path d="M37.0263 58.216C37.3356 58.088 37.6556 57.944 37.9863 57.784C38.3276 57.6133 38.6583 57.432 38.9783 57.24C39.2983 57.0373 39.6023 56.8293 39.8903 56.616C40.1889 56.392 40.4556 56.1573 40.6903 55.912H42.3543V67H39.9703V59.016C39.6503 59.2293 39.2929 59.4267 38.8983 59.608C38.5036 59.7787 38.1196 59.928 37.7463 60.056L37.0263 58.216ZM52.936 58.824C52.936 59.2293 52.856 59.6187 52.696 59.992C52.536 60.3653 52.328 60.728 52.072 61.08C51.816 61.4213 51.528 61.752 51.208 62.072C50.888 62.392 50.5733 62.696 50.264 62.984C50.104 63.1333 49.928 63.304 49.736 63.496C49.5547 63.6773 49.3787 63.864 49.208 64.056C49.0373 64.248 48.8827 64.4293 48.744 64.6C48.616 64.76 48.536 64.8933 48.504 65H53.272V67H45.88C45.8587 66.8827 45.848 66.7333 45.848 66.552C45.848 66.3707 45.848 66.2427 45.848 66.168C45.848 65.656 45.928 65.1867 46.088 64.76C46.2587 64.3333 46.4773 63.9387 46.744 63.576C47.0107 63.2027 47.3093 62.856 47.64 62.536C47.9813 62.216 48.3173 61.896 48.648 61.576C48.904 61.3307 49.144 61.1013 49.368 60.888C49.592 60.664 49.7893 60.4507 49.96 60.248C50.1307 60.0347 50.264 59.8267 50.36 59.624C50.456 59.4107 50.504 59.1973 50.504 58.984C50.504 58.5147 50.3707 58.184 50.104 57.992C49.8373 57.8 49.5067 57.704 49.112 57.704C48.824 57.704 48.552 57.752 48.296 57.848C48.0507 57.9333 47.8213 58.04 47.608 58.168C47.4053 58.2853 47.2293 58.408 47.08 58.536C46.9307 58.6533 46.8187 58.7493 46.744 58.824L45.56 57.16C46.0293 56.7227 46.5733 56.3653 47.192 56.088C47.8213 55.8 48.4933 55.656 49.208 55.656C49.8587 55.656 50.4187 55.7307 50.888 55.88C51.3573 56.0293 51.7413 56.2427 52.04 56.52C52.3493 56.7867 52.5733 57.1173 52.712 57.512C52.8613 57.896 52.936 58.3333 52.936 58.824Z"/>
</mask>
<path d="M37.0263 58.216C37.3356 58.088 37.6556 57.944 37.9863 57.784C38.3276 57.6133 38.6583 57.432 38.9783 57.24C39.2983 57.0373 39.6023 56.8293 39.8903 56.616C40.1889 56.392 40.4556 56.1573 40.6903 55.912H42.3543V67H39.9703V59.016C39.6503 59.2293 39.2929 59.4267 38.8983 59.608C38.5036 59.7787 38.1196 59.928 37.7463 60.056L37.0263 58.216ZM52.936 58.824C52.936 59.2293 52.856 59.6187 52.696 59.992C52.536 60.3653 52.328 60.728 52.072 61.08C51.816 61.4213 51.528 61.752 51.208 62.072C50.888 62.392 50.5733 62.696 50.264 62.984C50.104 63.1333 49.928 63.304 49.736 63.496C49.5547 63.6773 49.3787 63.864 49.208 64.056C49.0373 64.248 48.8827 64.4293 48.744 64.6C48.616 64.76 48.536 64.8933 48.504 65H53.272V67H45.88C45.8587 66.8827 45.848 66.7333 45.848 66.552C45.848 66.3707 45.848 66.2427 45.848 66.168C45.848 65.656 45.928 65.1867 46.088 64.76C46.2587 64.3333 46.4773 63.9387 46.744 63.576C47.0107 63.2027 47.3093 62.856 47.64 62.536C47.9813 62.216 48.3173 61.896 48.648 61.576C48.904 61.3307 49.144 61.1013 49.368 60.888C49.592 60.664 49.7893 60.4507 49.96 60.248C50.1307 60.0347 50.264 59.8267 50.36 59.624C50.456 59.4107 50.504 59.1973 50.504 58.984C50.504 58.5147 50.3707 58.184 50.104 57.992C49.8373 57.8 49.5067 57.704 49.112 57.704C48.824 57.704 48.552 57.752 48.296 57.848C48.0507 57.9333 47.8213 58.04 47.608 58.168C47.4053 58.2853 47.2293 58.408 47.08 58.536C46.9307 58.6533 46.8187 58.7493 46.744 58.824L45.56 57.16C46.0293 56.7227 46.5733 56.3653 47.192 56.088C47.8213 55.8 48.4933 55.656 49.208 55.656C49.8587 55.656 50.4187 55.7307 50.888 55.88C51.3573 56.0293 51.7413 56.2427 52.04 56.52C52.3493 56.7867 52.5733 57.1173 52.712 57.512C52.8613 57.896 52.936 58.3333 52.936 58.824Z" fill="white"/>
<path d="M37.0263 58.216L36.4527 56.83L35.0933 57.3925L35.6294 58.7626L37.0263 58.216ZM37.9863 57.784L38.6396 59.1342L38.6484 59.13L38.6571 59.1256L37.9863 57.784ZM38.9783 57.24L39.75 58.5262L39.7655 58.5169L39.7808 58.5072L38.9783 57.24ZM39.8903 56.616L40.7831 57.8214L40.7902 57.816L39.8903 56.616ZM40.6903 55.912V54.412H40.0493L39.6063 54.8752L40.6903 55.912ZM42.3543 55.912H43.8543V54.412H42.3543V55.912ZM42.3543 67V68.5H43.8543V67H42.3543ZM39.9703 67H38.4703V68.5H39.9703V67ZM39.9703 59.016H41.4703V56.2132L39.1382 57.7679L39.9703 59.016ZM38.8983 59.608L39.4936 60.9848L39.5091 60.9781L39.5245 60.971L38.8983 59.608ZM37.7463 60.056L36.3494 60.6026L36.8731 61.9411L38.2327 61.4749L37.7463 60.056ZM37.0263 58.216L37.5998 59.602C37.9385 59.4619 38.2852 59.3057 38.6396 59.1342L37.9863 57.784L37.3329 56.4338C37.026 56.5823 36.7327 56.7141 36.4527 56.83L37.0263 58.216ZM37.9863 57.784L38.6571 59.1256C39.032 58.9382 39.3963 58.7384 39.75 58.5262L38.9783 57.24L38.2065 55.9538C37.9202 56.1256 37.6232 56.2885 37.3154 56.4424L37.9863 57.784ZM38.9783 57.24L39.7808 58.5072C40.1299 58.2861 40.4642 58.0576 40.7831 57.8213L39.8903 56.616L38.9974 55.4107C38.7403 55.6011 38.4666 55.7885 38.1757 55.9728L38.9783 57.24ZM39.8903 56.616L40.7902 57.816C41.1482 57.5475 41.4775 57.259 41.7742 56.9488L40.6903 55.912L39.6063 54.8752C39.4337 55.0556 39.2297 55.2364 38.9903 55.416L39.8903 56.616ZM40.6903 55.912V57.412H42.3543V55.912V54.412H40.6903V55.912ZM42.3543 55.912H40.8543V67H42.3543H43.8543V55.912H42.3543ZM42.3543 67V65.5H39.9703V67V68.5H42.3543V67ZM39.9703 67H41.4703V59.016H39.9703H38.4703V67H39.9703ZM39.9703 59.016L39.1382 57.7679C38.8914 57.9324 38.6041 58.0924 38.272 58.245L38.8983 59.608L39.5245 60.971C39.9817 60.761 40.4091 60.5262 40.8023 60.2641L39.9703 59.016ZM38.8983 59.608L38.3029 58.2312C37.9408 58.3878 37.5932 58.5228 37.2598 58.6371L37.7463 60.056L38.2327 61.4749C38.646 61.3332 39.0663 61.1696 39.4936 60.9848L38.8983 59.608ZM37.7463 60.056L39.1431 59.5094L38.4231 57.6694L37.0263 58.216L35.6294 58.7626L36.3494 60.6026L37.7463 60.056ZM52.696 59.992L54.0747 60.5829L54.0747 60.5829L52.696 59.992ZM52.072 61.08L53.272 61.98L53.2786 61.9712L53.2851 61.9623L52.072 61.08ZM50.264 62.984L49.2419 61.8862L49.2405 61.8874L50.264 62.984ZM49.736 63.496L48.6753 62.4353L48.6753 62.4353L49.736 63.496ZM49.208 64.056L48.0869 63.0595L48.0869 63.0595L49.208 64.056ZM48.744 64.6L47.5798 63.6541L47.5727 63.663L48.744 64.6ZM48.504 65L47.0673 64.569L46.488 66.5H48.504V65ZM53.272 65H54.772V63.5H53.272V65ZM53.272 67V68.5H54.772V67H53.272ZM45.88 67L44.4042 67.2683L44.6281 68.5H45.88V67ZM46.088 64.76L44.6953 64.2029L44.6892 64.2181L44.6835 64.2333L46.088 64.76ZM46.744 63.576L47.9525 64.4646L47.9586 64.4563L47.9646 64.4479L46.744 63.576ZM47.64 62.536L46.6141 61.4417L46.6054 61.4498L46.5969 61.4581L47.64 62.536ZM48.648 61.576L47.6101 60.493L47.6049 60.4981L48.648 61.576ZM49.368 60.888L50.4025 61.9742L50.4157 61.9616L50.4287 61.9487L49.368 60.888ZM49.96 60.248L51.1074 61.2142L51.1195 61.1998L51.1313 61.185L49.96 60.248ZM50.36 59.624L51.7156 60.2661L51.7219 60.2529L51.7279 60.2395L50.36 59.624ZM48.296 57.848L48.7888 59.2647L48.8058 59.2588L48.8227 59.2525L48.296 57.848ZM47.608 58.168L48.3596 59.4661L48.3697 59.4603L48.3797 59.4542L47.608 58.168ZM47.08 58.536L48.0067 59.7155L48.0319 59.6957L48.0562 59.6749L47.08 58.536ZM46.744 58.824L45.5218 59.6936L46.5503 61.139L47.8047 59.8847L46.744 58.824ZM45.56 57.16L44.5374 56.0626L43.5758 56.9587L44.3378 58.0296L45.56 57.16ZM47.192 56.088L47.8056 57.4568L47.8162 57.452L47.192 56.088ZM50.888 55.88L51.3428 54.4506L51.3428 54.4506L50.888 55.88ZM52.04 56.52L51.0193 57.6192L51.0396 57.638L51.0606 57.6561L52.04 56.52ZM52.712 57.512L51.2968 58.0092L51.305 58.0326L51.314 58.0557L52.712 57.512ZM52.936 58.824H51.436C51.436 59.0258 51.3974 59.2141 51.3173 59.4011L52.696 59.992L54.0747 60.5829C54.3146 60.0232 54.436 59.4329 54.436 58.824H52.936ZM52.696 59.992L51.3173 59.4011C51.2045 59.6644 51.0537 59.9299 50.8589 60.1977L52.072 61.08L53.2851 61.9623C53.6023 61.5261 53.8675 61.0663 54.0747 60.5829L52.696 59.992ZM52.072 61.08L50.872 60.18C50.6611 60.4612 50.4202 60.7385 50.1473 61.0113L51.208 62.072L52.2687 63.1327C52.6358 62.7655 52.9709 62.3814 53.272 61.98L52.072 61.08ZM51.208 62.072L50.1473 61.0113C49.8391 61.3196 49.5373 61.6111 49.2419 61.8862L50.264 62.984L51.2861 64.0818C51.6094 63.7809 51.9369 63.4644 52.2687 63.1327L51.208 62.072ZM50.264 62.984L49.2405 61.8874C49.0654 62.0509 48.8768 62.2339 48.6753 62.4353L49.736 63.496L50.7967 64.5567C50.9792 64.3741 51.1426 64.2158 51.2875 64.0806L50.264 62.984ZM49.736 63.496L48.6753 62.4353C48.4732 62.6375 48.277 62.8455 48.0869 63.0595L49.208 64.056L50.3291 65.0525C50.4803 64.8825 50.6361 64.7172 50.7967 64.5567L49.736 63.496ZM49.208 64.056L48.0869 63.0595C47.9039 63.2653 47.7346 63.4637 47.5798 63.6541L48.744 64.6L49.9082 65.5459C50.0308 65.395 50.1708 65.2307 50.3291 65.0525L49.208 64.056ZM48.744 64.6L47.5727 63.663C47.4083 63.8685 47.1831 64.1829 47.0673 64.569L48.504 65L49.9407 65.431C49.9244 65.4855 49.9074 65.5254 49.8963 65.5493C49.8849 65.5736 49.8765 65.588 49.8742 65.5917C49.8708 65.5975 49.8809 65.58 49.9153 65.537L48.744 64.6ZM48.504 65V66.5H53.272V65V63.5H48.504V65ZM53.272 65H51.772V67H53.272H54.772V65H53.272ZM53.272 67V65.5H45.88V67V68.5H53.272V67ZM45.88 67L47.3558 66.7317C47.3569 66.7379 47.3546 66.7266 47.3522 66.6931C47.3499 66.6605 47.348 66.6142 47.348 66.552H45.848H44.348C44.348 66.7821 44.3608 67.0295 44.4042 67.2683L45.88 67ZM45.848 66.552H47.348C47.348 66.5516 47.348 66.5513 47.348 66.5509C47.348 66.5506 47.348 66.5502 47.348 66.5499C47.348 66.5495 47.348 66.5492 47.348 66.5488C47.348 66.5485 47.348 66.5481 47.348 66.5478C47.348 66.5474 47.348 66.5471 47.348 66.5467C47.348 66.5464 47.348 66.546 47.348 66.5456C47.348 66.5453 47.348 66.5449 47.348 66.5446C47.348 66.5442 47.348 66.5439 47.348 66.5435C47.348 66.5432 47.348 66.5428 47.348 66.5425C47.348 66.5421 47.348 66.5418 47.348 66.5414C47.348 66.5411 47.348 66.5407 47.348 66.5404C47.348 66.54 47.348 66.5397 47.348 66.5393C47.348 66.539 47.348 66.5386 47.348 66.5383C47.348 66.5379 47.348 66.5376 47.348 66.5372C47.348 66.5369 47.348 66.5365 47.348 66.5362C47.348 66.5359 47.348 66.5355 47.348 66.5352C47.348 66.5348 47.348 66.5345 47.348 66.5341C47.348 66.5338 47.348 66.5334 47.348 66.5331C47.348 66.5327 47.348 66.5324 47.348 66.532C47.348 66.5317 47.348 66.5313 47.348 66.531C47.348 66.5306 47.348 66.5303 47.348 66.53C47.348 66.5296 47.348 66.5293 47.348 66.5289C47.348 66.5286 47.348 66.5282 47.348 66.5279C47.348 66.5275 47.348 66.5272 47.348 66.5269C47.348 66.5265 47.348 66.5262 47.348 66.5258C47.348 66.5255 47.348 66.5251 47.348 66.5248C47.348 66.5244 47.348 66.5241 47.348 66.5238C47.348 66.5234 47.348 66.5231 47.348 66.5227C47.348 66.5224 47.348 66.522 47.348 66.5217C47.348 66.5214 47.348 66.521 47.348 66.5207C47.348 66.5203 47.348 66.52 47.348 66.5196C47.348 66.5193 47.348 66.519 47.348 66.5186C47.348 66.5183 47.348 66.5179 47.348 66.5176C47.348 66.5173 47.348 66.5169 47.348 66.5166C47.348 66.5162 47.348 66.5159 47.348 66.5156C47.348 66.5152 47.348 66.5149 47.348 66.5145C47.348 66.5142 47.348 66.5139 47.348 66.5135C47.348 66.5132 47.348 66.5128 47.348 66.5125C47.348 66.5122 47.348 66.5118 47.348 66.5115C47.348 66.5112 47.348 66.5108 47.348 66.5105C47.348 66.5101 47.348 66.5098 47.348 66.5095C47.348 66.5091 47.348 66.5088 47.348 66.5085C47.348 66.5081 47.348 66.5078 47.348 66.5074C47.348 66.5071 47.348 66.5068 47.348 66.5064C47.348 66.5061 47.348 66.5058 47.348 66.5054C47.348 66.5051 47.348 66.5048 47.348 66.5044C47.348 66.5041 47.348 66.5037 47.348 66.5034C47.348 66.5031 47.348 66.5027 47.348 66.5024C47.348 66.5021 47.348 66.5017 47.348 66.5014C47.348 66.5011 47.348 66.5007 47.348 66.5004C47.348 66.5001 47.348 66.4997 47.348 66.4994C47.348 66.4991 47.348 66.4987 47.348 66.4984C47.348 66.4981 47.348 66.4977 47.348 66.4974C47.348 66.4971 47.348 66.4967 47.348 66.4964C47.348 66.4961 47.348 66.4957 47.348 66.4954C47.348 66.4951 47.348 66.4947 47.348 66.4944C47.348 66.4941 47.348 66.4938 47.348 66.4934C47.348 66.4931 47.348 66.4928 47.348 66.4924C47.348 66.4921 47.348 66.4918 47.348 66.4914C47.348 66.4911 47.348 66.4908 47.348 66.4904C47.348 66.4901 47.348 66.4898 47.348 66.4895C47.348 66.4891 47.348 66.4888 47.348 66.4885C47.348 66.4881 47.348 66.4878 47.348 66.4875C47.348 66.4872 47.348 66.4868 47.348 66.4865C47.348 66.4862 47.348 66.4858 47.348 66.4855C47.348 66.4852 47.348 66.4849 47.348 66.4845C47.348 66.4842 47.348 66.4839 47.348 66.4836C47.348 66.4832 47.348 66.4829 47.348 66.4826C47.348 66.4822 47.348 66.4819 47.348 66.4816C47.348 66.4813 47.348 66.4809 47.348 66.4806C47.348 66.4803 47.348 66.48 47.348 66.4796C47.348 66.4793 47.348 66.479 47.348 66.4787C47.348 66.4783 47.348 66.478 47.348 66.4777C47.348 66.4774 47.348 66.477 47.348 66.4767C47.348 66.4764 47.348 66.4761 47.348 66.4757C47.348 66.4754 47.348 66.4751 47.348 66.4748C47.348 66.4745 47.348 66.4741 47.348 66.4738C47.348 66.4735 47.348 66.4732 47.348 66.4728C47.348 66.4725 47.348 66.4722 47.348 66.4719C47.348 66.4715 47.348 66.4712 47.348 66.4709C47.348 66.4706 47.348 66.4703 47.348 66.4699C47.348 66.4696 47.348 66.4693 47.348 66.469C47.348 66.4687 47.348 66.4683 47.348 66.468C47.348 66.4677 47.348 66.4674 47.348 66.4671C47.348 66.4667 47.348 66.4664 47.348 66.4661C47.348 66.4658 47.348 66.4655 47.348 66.4651C47.348 66.4648 47.348 66.4645 47.348 66.4642C47.348 66.4639 47.348 66.4635 47.348 66.4632C47.348 66.4629 47.348 66.4626 47.348 66.4623C47.348 66.462 47.348 66.4616 47.348 66.4613C47.348 66.461 47.348 66.4607 47.348 66.4604C47.348 66.46 47.348 66.4597 47.348 66.4594C47.348 66.4591 47.348 66.4588 47.348 66.4585C47.348 66.4582 47.348 66.4578 47.348 66.4575C47.348 66.4572 47.348 66.4569 47.348 66.4566C47.348 66.4563 47.348 66.4559 47.348 66.4556C47.348 66.4553 47.348 66.455 47.348 66.4547C47.348 66.4544 47.348 66.4541 47.348 66.4537C47.348 66.4534 47.348 66.4531 47.348 66.4528C47.348 66.4525 47.348 66.4522 47.348 66.4519C47.348 66.4515 47.348 66.4512 47.348 66.4509C47.348 66.4506 47.348 66.4503 47.348 66.45C47.348 66.4497 47.348 66.4493 47.348 66.449C47.348 66.4487 47.348 66.4484 47.348 66.4481C47.348 66.4478 47.348 66.4475 47.348 66.4472C47.348 66.4469 47.348 66.4465 47.348 66.4462C47.348 66.4459 47.348 66.4456 47.348 66.4453C47.348 66.445 47.348 66.4447 47.348 66.4444C47.348 66.4441 47.348 66.4437 47.348 66.4434C47.348 66.4431 47.348 66.4428 47.348 66.4425C47.348 66.4422 47.348 66.4419 47.348 66.4416C47.348 66.4413 47.348 66.441 47.348 66.4407C47.348 66.4403 47.348 66.44 47.348 66.4397C47.348 66.4394 47.348 66.4391 47.348 66.4388C47.348 66.4385 47.348 66.4382 47.348 66.4379C47.348 66.4376 47.348 66.4373 47.348 66.437C47.348 66.4367 47.348 66.4363 47.348 66.436C47.348 66.4357 47.348 66.4354 47.348 66.4351C47.348 66.4348 47.348 66.4345 47.348 66.4342C47.348 66.4339 47.348 66.4336 47.348 66.4333C47.348 66.433 47.348 66.4327 47.348 66.4324C47.348 66.4321 47.348 66.4318 47.348 66.4315C47.348 66.4312 47.348 66.4309 47.348 66.4305C47.348 66.4302 47.348 66.4299 47.348 66.4296C47.348 66.4293 47.348 66.429 47.348 66.4287C47.348 66.4284 47.348 66.4281 47.348 66.4278C47.348 66.4275 47.348 66.4272 47.348 66.4269C47.348 66.4266 47.348 66.4263 47.348 66.426C47.348 66.4257 47.348 66.4254 47.348 66.4251C47.348 66.4248 47.348 66.4245 47.348 66.4242C47.348 66.4239 47.348 66.4236 47.348 66.4233C47.348 66.423 47.348 66.4227 47.348 66.4224C47.348 66.4221 47.348 66.4218 47.348 66.4215C47.348 66.4212 47.348 66.4209 47.348 66.4206C47.348 66.4203 47.348 66.42 47.348 66.4197C47.348 66.4194 47.348 66.4191 47.348 66.4188C47.348 66.4185 47.348 66.4182 47.348 66.4179C47.348 66.4176 47.348 66.4173 47.348 66.417C47.348 66.4167 47.348 66.4164 47.348 66.4161C47.348 66.4158 47.348 66.4155 47.348 66.4152C47.348 66.4149 47.348 66.4146 47.348 66.4143C47.348 66.414 47.348 66.4137 47.348 66.4134C47.348 66.4131 47.348 66.4128 47.348 66.4125C47.348 66.4122 47.348 66.412 47.348 66.4117C47.348 66.4114 47.348 66.4111 47.348 66.4108C47.348 66.4105 47.348 66.4102 47.348 66.4099C47.348 66.4096 47.348 66.4093 47.348 66.409C47.348 66.4087 47.348 66.4084 47.348 66.4081C47.348 66.4078 47.348 66.4075 47.348 66.4072C47.348 66.4069 47.348 66.4067 47.348 66.4064C47.348 66.4061 47.348 66.4058 47.348 66.4055C47.348 66.4052 47.348 66.4049 47.348 66.4046C47.348 66.4043 47.348 66.404 47.348 66.4037C47.348 66.4034 47.348 66.4031 47.348 66.4029C47.348 66.4026 47.348 66.4023 47.348 66.402C47.348 66.4017 47.348 66.4014 47.348 66.4011C47.348 66.4008 47.348 66.4005 47.348 66.4002C47.348 66.3999 47.348 66.3997 47.348 66.3994C47.348 66.3991 47.348 66.3988 47.348 66.3985C47.348 66.3982 47.348 66.3979 47.348 66.3976C47.348 66.3973 47.348 66.397 47.348 66.3968C47.348 66.3965 47.348 66.3962 47.348 66.3959C47.348 66.3956 47.348 66.3953 47.348 66.395C47.348 66.3947 47.348 66.3945 47.348 66.3942C47.348 66.3939 47.348 66.3936 47.348 66.3933C47.348 66.393 47.348 66.3927 47.348 66.3924C47.348 66.3922 47.348 66.3919 47.348 66.3916C47.348 66.3913 47.348 66.391 47.348 66.3907C47.348 66.3904 47.348 66.3902 47.348 66.3899C47.348 66.3896 47.348 66.3893 47.348 66.389C47.348 66.3887 47.348 66.3884 47.348 66.3882C47.348 66.3879 47.348 66.3876 47.348 66.3873C47.348 66.387 47.348 66.3867 47.348 66.3865C47.348 66.3862 47.348 66.3859 47.348 66.3856C47.348 66.3853 47.348 66.385 47.348 66.3848C47.348 66.3845 47.348 66.3842 47.348 66.3839C47.348 66.3836 47.348 66.3833 47.348 66.3831C47.348 66.3828 47.348 66.3825 47.348 66.3822C47.348 66.3819 47.348 66.3817 47.348 66.3814C47.348 66.3811 47.348 66.3808 47.348 66.3805C47.348 66.3802 47.348 66.38 47.348 66.3797C47.348 66.3794 47.348 66.3791 47.348 66.3788C47.348 66.3786 47.348 66.3783 47.348 66.378C47.348 66.3777 47.348 66.3774 47.348 66.3772C47.348 66.3769 47.348 66.3766 47.348 66.3763C47.348 66.376 47.348 66.3758 47.348 66.3755C47.348 66.3752 47.348 66.3749 47.348 66.3747C47.348 66.3744 47.348 66.3741 47.348 66.3738C47.348 66.3735 47.348 66.3733 47.348 66.373C47.348 66.3727 47.348 66.3724 47.348 66.3722C47.348 66.3719 47.348 66.3716 47.348 66.3713C47.348 66.3711 47.348 66.3708 47.348 66.3705C47.348 66.3702 47.348 66.3699 47.348 66.3697C47.348 66.3694 47.348 66.3691 47.348 66.3688C47.348 66.3686 47.348 66.3683 47.348 66.368C47.348 66.3677 47.348 66.3675 47.348 66.3672C47.348 66.3669 47.348 66.3666 47.348 66.3664C47.348 66.3661 47.348 66.3658 47.348 66.3656C47.348 66.3653 47.348 66.365 47.348 66.3647C47.348 66.3645 47.348 66.3642 47.348 66.3639C47.348 66.3636 47.348 66.3634 47.348 66.3631C47.348 66.3628 47.348 66.3626 47.348 66.3623C47.348 66.362 47.348 66.3617 47.348 66.3615C47.348 66.3612 47.348 66.3609 47.348 66.3607C47.348 66.3604 47.348 66.3601 47.348 66.3598C47.348 66.3596 47.348 66.3593 47.348 66.359C47.348 66.3588 47.348 66.3585 47.348 66.3582C47.348 66.3579 47.348 66.3577 47.348 66.3574C47.348 66.3571 47.348 66.3569 47.348 66.3566C47.348 66.3563 47.348 66.3561 47.348 66.3558C47.348 66.3555 47.348 66.3553 47.348 66.355C47.348 66.3547 47.348 66.3544 47.348 66.3542C47.348 66.3539 47.348 66.3536 47.348 66.3534C47.348 66.3531 47.348 66.3528 47.348 66.3526C47.348 66.3523 47.348 66.352 47.348 66.3518C47.348 66.3515 47.348 66.3512 47.348 66.351C47.348 66.3507 47.348 66.3504 47.348 66.3502C47.348 66.3499 47.348 66.3496 47.348 66.3494C47.348 66.3491 47.348 66.3489 47.348 66.3486C47.348 66.3483 47.348 66.3481 47.348 66.3478C47.348 66.3475 47.348 66.3473 47.348 66.347C47.348 66.3467 47.348 66.3465 47.348 66.3462C47.348 66.3459 47.348 66.3457 47.348 66.3454C47.348 66.3452 47.348 66.3449 47.348 66.3446C47.348 66.3444 47.348 66.3441 47.348 66.3438C47.348 66.3436 47.348 66.3433 47.348 66.343C47.348 66.3428 47.348 66.3425 47.348 66.3423C47.348 66.342 47.348 66.3417 47.348 66.3415C47.348 66.3412 47.348 66.341 47.348 66.3407C47.348 66.3404 47.348 66.3402 47.348 66.3399C47.348 66.3397 47.348 66.3394 47.348 66.3391C47.348 66.3389 47.348 66.3386 47.348 66.3384C47.348 66.3381 47.348 66.3378 47.348 66.3376C47.348 66.3373 47.348 66.3371 47.348 66.3368C47.348 66.3365 47.348 66.3363 47.348 66.336C47.348 66.3358 47.348 66.3355 47.348 66.3352C47.348 66.335 47.348 66.3347 47.348 66.3345C47.348 66.3342 47.348 66.334 47.348 66.3337C47.348 66.3334 47.348 66.3332 47.348 66.3329C47.348 66.3327 47.348 66.3324 47.348 66.3322C47.348 66.3319 47.348 66.3316 47.348 66.3314C47.348 66.3311 47.348 66.3309 47.348 66.3306C47.348 66.3304 47.348 66.3301 47.348 66.3299C47.348 66.3296 47.348 66.3293 47.348 66.3291C47.348 66.3288 47.348 66.3286 47.348 66.3283C47.348 66.3281 47.348 66.3278 47.348 66.3276C47.348 66.3273 47.348 66.3271 47.348 66.3268C47.348 66.3265 47.348 66.3263 47.348 66.326C47.348 66.3258 47.348 66.3255 47.348 66.3253C47.348 66.325 47.348 66.3248 47.348 66.3245C47.348 66.3243 47.348 66.324 47.348 66.3238C47.348 66.3235 47.348 66.3233 47.348 66.323C47.348 66.3228 47.348 66.3225 47.348 66.3223C47.348 66.322 47.348 66.3218 47.348 66.3215C47.348 66.3213 47.348 66.321 47.348 66.3208C47.348 66.3205 47.348 66.3202 47.348 66.32C47.348 66.3197 47.348 66.3195 47.348 66.3193C47.348 66.319 47.348 66.3188 47.348 66.3185C47.348 66.3183 47.348 66.318 47.348 66.3178C47.348 66.3175 47.348 66.3173 47.348 66.317C47.348 66.3168 47.348 66.3165 47.348 66.3163C47.348 66.316 47.348 66.3158 47.348 66.3155C47.348 66.3153 47.348 66.315 47.348 66.3148C47.348 66.3145 47.348 66.3143 47.348 66.314C47.348 66.3138 47.348 66.3135 47.348 66.3133C47.348 66.3131 47.348 66.3128 47.348 66.3126C47.348 66.3123 47.348 66.3121 47.348 66.3118C47.348 66.3116 47.348 66.3113 47.348 66.3111C47.348 66.3108 47.348 66.3106 47.348 66.3104C47.348 66.3101 47.348 66.3099 47.348 66.3096C47.348 66.3094 47.348 66.3091 47.348 66.3089C47.348 66.3086 47.348 66.3084 47.348 66.3082C47.348 66.3079 47.348 66.3077 47.348 66.3074C47.348 66.3072 47.348 66.3069 47.348 66.3067C47.348 66.3065 47.348 66.3062 47.348 66.306C47.348 66.3057 47.348 66.3055 47.348 66.3052C47.348 66.305 47.348 66.3048 47.348 66.3045C47.348 66.3043 47.348 66.304 47.348 66.3038C47.348 66.3036 47.348 66.3033 47.348 66.3031C47.348 66.3028 47.348 66.3026 47.348 66.3024C47.348 66.3021 47.348 66.3019 47.348 66.3016C47.348 66.3014 47.348 66.3012 47.348 66.3009C47.348 66.3007 47.348 66.3004 47.348 66.3002C47.348 66.3 47.348 66.2997 47.348 66.2995C47.348 66.2992 47.348 66.299 47.348 66.2988C47.348 66.2985 47.348 66.2983 47.348 66.298C47.348 66.2978 47.348 66.2976 47.348 66.2973C47.348 66.2971 47.348 66.2969 47.348 66.2966C47.348 66.2964 47.348 66.2962 47.348 66.2959C47.348 66.2957 47.348 66.2954 47.348 66.2952C47.348 66.295 47.348 66.2947 47.348 66.2945C47.348 66.2943 47.348 66.294 47.348 66.2938C47.348 66.2936 47.348 66.2933 47.348 66.2931C47.348 66.2929 47.348 66.2926 47.348 66.2924C47.348 66.2921 47.348 66.2919 47.348 66.2917C47.348 66.2914 47.348 66.2912 47.348 66.291C47.348 66.2907 47.348 66.2905 47.348 66.2903C47.348 66.29 47.348 66.2898 47.348 66.2896C47.348 66.2893 47.348 66.2891 47.348 66.2889C47.348 66.2886 47.348 66.2884 47.348 66.2882C47.348 66.2879 47.348 66.2877 47.348 66.2875C47.348 66.2873 47.348 66.287 47.348 66.2868C47.348 66.2866 47.348 66.2863 47.348 66.2861C47.348 66.2859 47.348 66.2856 47.348 66.2854C47.348 66.2852 47.348 66.2849 47.348 66.2847C47.348 66.2845 47.348 66.2843 47.348 66.284C47.348 66.2838 47.348 66.2836 47.348 66.2833C47.348 66.2831 47.348 66.2829 47.348 66.2827C47.348 66.2824 47.348 66.2822 47.348 66.282C47.348 66.2817 47.348 66.2815 47.348 66.2813C47.348 66.2811 47.348 66.2808 47.348 66.2806C47.348 66.2804 47.348 66.2801 47.348 66.2799C47.348 66.2797 47.348 66.2795 47.348 66.2792C47.348 66.279 47.348 66.2788 47.348 66.2786C47.348 66.2783 47.348 66.2781 47.348 66.2779C47.348 66.2776 47.348 66.2774 47.348 66.2772C47.348 66.277 47.348 66.2767 47.348 66.2765C47.348 66.2763 47.348 66.2761 47.348 66.2758C47.348 66.2756 47.348 66.2754 47.348 66.2752C47.348 66.2749 47.348 66.2747 47.348 66.2745C47.348 66.2743 47.348 66.2741 47.348 66.2738C47.348 66.2736 47.348 66.2734 47.348 66.2732C47.348 66.2729 47.348 66.2727 47.348 66.2725C47.348 66.2723 47.348 66.272 47.348 66.2718C47.348 66.2716 47.348 66.2714 47.348 66.2712C47.348 66.2709 47.348 66.2707 47.348 66.2705C47.348 66.2703 47.348 66.27 47.348 66.2698C47.348 66.2696 47.348 66.2694 47.348 66.2692C47.348 66.2689 47.348 66.2687 47.348 66.2685C47.348 66.2683 47.348 66.2681 47.348 66.2678C47.348 66.2676 47.348 66.2674 47.348 66.2672C47.348 66.267 47.348 66.2667 47.348 66.2665C47.348 66.2663 47.348 66.2661 47.348 66.2659C47.348 66.2657 47.348 66.2654 47.348 66.2652C47.348 66.265 47.348 66.2648 47.348 66.2646C47.348 66.2643 47.348 66.2641 47.348 66.2639C47.348 66.2637 47.348 66.2635 47.348 66.2633C47.348 66.263 47.348 66.2628 47.348 66.2626C47.348 66.2624 47.348 66.2622 47.348 66.262C47.348 66.2617 47.348 66.2615 47.348 66.2613C47.348 66.2611 47.348 66.2609 47.348 66.2607C47.348 66.2604 47.348 66.2602 47.348 66.26C47.348 66.2598 47.348 66.2596 47.348 66.2594C47.348 66.2592 47.348 66.2589 47.348 66.2587C47.348 66.2585 47.348 66.2583 47.348 66.2581C47.348 66.2579 47.348 66.2577 47.348 66.2574C47.348 66.2572 47.348 66.257 47.348 66.2568C47.348 66.2566 47.348 66.2564 47.348 66.2562C47.348 66.256 47.348 66.2557 47.348 66.2555C47.348 66.2553 47.348 66.2551 47.348 66.2549C47.348 66.2547 47.348 66.2545 47.348 66.2543C47.348 66.254 47.348 66.2538 47.348 66.2536C47.348 66.2534 47.348 66.2532 47.348 66.253C47.348 66.2528 47.348 66.2526 47.348 66.2524C47.348 66.2522 47.348 66.2519 47.348 66.2517C47.348 66.2515 47.348 66.2513 47.348 66.2511C47.348 66.2509 47.348 66.2507 47.348 66.2505C47.348 66.2503 47.348 66.2501 47.348 66.2499C47.348 66.2496 47.348 66.2494 47.348 66.2492C47.348 66.249 47.348 66.2488 47.348 66.2486C47.348 66.2484 47.348 66.2482 47.348 66.248C47.348 66.2478 47.348 66.2476 47.348 66.2474C47.348 66.2472 47.348 66.2469 47.348 66.2467C47.348 66.2465 47.348 66.2463 47.348 66.2461C47.348 66.2459 47.348 66.2457 47.348 66.2455C47.348 66.2453 47.348 66.2451 47.348 66.2449C47.348 66.2447 47.348 66.2445 47.348 66.2443C47.348 66.2441 47.348 66.2439 47.348 66.2437C47.348 66.2435 47.348 66.2432 47.348 66.243C47.348 66.2428 47.348 66.2426 47.348 66.2424C47.348 66.2422 47.348 66.242 47.348 66.2418C47.348 66.2416 47.348 66.2414 47.348 66.2412C47.348 66.241 47.348 66.2408 47.348 66.2406C47.348 66.2404 47.348 66.2402 47.348 66.24C47.348 66.2398 47.348 66.2396 47.348 66.2394C47.348 66.2392 47.348 66.239 47.348 66.2388C47.348 66.2386 47.348 66.2384 47.348 66.2382C47.348 66.238 47.348 66.2378 47.348 66.2376C47.348 66.2374 47.348 66.2372 47.348 66.237C47.348 66.2368 47.348 66.2366 47.348 66.2364C47.348 66.2362 47.348 66.236 47.348 66.2358C47.348 66.2356 47.348 66.2354 47.348 66.2352C47.348 66.235 47.348 66.2348 47.348 66.2346C47.348 66.2344 47.348 66.2342 47.348 66.234C47.348 66.2338 47.348 66.2336 47.348 66.2334C47.348 66.2332 47.348 66.233 47.348 66.2328C47.348 66.2326 47.348 66.2324 47.348 66.2322C47.348 66.232 47.348 66.2318 47.348 66.2316C47.348 66.2314 47.348 66.2312 47.348 66.231C47.348 66.2309 47.348 66.2307 47.348 66.2305C47.348 66.2303 47.348 66.2301 47.348 66.2299C47.348 66.2297 47.348 66.2295 47.348 66.2293C47.348 66.2291 47.348 66.2289 47.348 66.2287C47.348 66.2285 47.348 66.2283 47.348 66.2281C47.348 66.2279 47.348 66.2277 47.348 66.2275C47.348 66.2273 47.348 66.2272 47.348 66.227C47.348 66.2268 47.348 66.2266 47.348 66.2264C47.348 66.2262 47.348 66.226 47.348 66.2258C47.348 66.2256 47.348 66.2254 47.348 66.2252C47.348 66.225 47.348 66.2248 47.348 66.2247C47.348 66.2245 47.348 66.2243 47.348 66.2241C47.348 66.2239 47.348 66.2237 47.348 66.2235C47.348 66.2233 47.348 66.2231 47.348 66.2229C47.348 66.2227 47.348 66.2226 47.348 66.2224C47.348 66.2222 47.348 66.222 47.348 66.2218C47.348 66.2216 47.348 66.2214 47.348 66.2212C47.348 66.221 47.348 66.2209 47.348 66.2207C47.348 66.2205 47.348 66.2203 47.348 66.2201C47.348 66.2199 47.348 66.2197 47.348 66.2195C47.348 66.2193 47.348 66.2192 47.348 66.219C47.348 66.2188 47.348 66.2186 47.348 66.2184C47.348 66.2182 47.348 66.218 47.348 66.2179C47.348 66.2177 47.348 66.2175 47.348 66.2173C47.348 66.2171 47.348 66.2169 47.348 66.2167C47.348 66.2166 47.348 66.2164 47.348 66.2162C47.348 66.216 47.348 66.2158 47.348 66.2156C47.348 66.2154 47.348 66.2153 47.348 66.2151C47.348 66.2149 47.348 66.2147 47.348 66.2145C47.348 66.2143 47.348 66.2142 47.348 66.214C47.348 66.2138 47.348 66.2136 47.348 66.2134C47.348 66.2132 47.348 66.213 47.348 66.2129C47.348 66.2127 47.348 66.2125 47.348 66.2123C47.348 66.2121 47.348 66.212 47.348 66.2118C47.348 66.2116 47.348 66.2114 47.348 66.2112C47.348 66.211 47.348 66.2109 47.348 66.2107C47.348 66.2105 47.348 66.2103 47.348 66.2101C47.348 66.21 47.348 66.2098 47.348 66.2096C47.348 66.2094 47.348 66.2092 47.348 66.2091C47.348 66.2089 47.348 66.2087 47.348 66.2085C47.348 66.2083 47.348 66.2082 47.348 66.208C47.348 66.2078 47.348 66.2076 47.348 66.2074C47.348 66.2073 47.348 66.2071 47.348 66.2069C47.348 66.2067 47.348 66.2065 47.348 66.2064C47.348 66.2062 47.348 66.206 47.348 66.2058C47.348 66.2057 47.348 66.2055 47.348 66.2053C47.348 66.2051 47.348 66.205 47.348 66.2048C47.348 66.2046 47.348 66.2044 47.348 66.2042C47.348 66.2041 47.348 66.2039 47.348 66.2037C47.348 66.2035 47.348 66.2034 47.348 66.2032C47.348 66.203 47.348 66.2028 47.348 66.2027C47.348 66.2025 47.348 66.2023 47.348 66.2021C47.348 66.202 47.348 66.2018 47.348 66.2016C47.348 66.2014 47.348 66.2013 47.348 66.2011C47.348 66.2009 47.348 66.2007 47.348 66.2006C47.348 66.2004 47.348 66.2002 47.348 66.2001C47.348 66.1999 47.348 66.1997 47.348 66.1995C47.348 66.1994 47.348 66.1992 47.348 66.199C47.348 66.1988 47.348 66.1987 47.348 66.1985C47.348 66.1983 47.348 66.1982 47.348 66.198C47.348 66.1978 47.348 66.1976 47.348 66.1975C47.348 66.1973 47.348 66.1971 47.348 66.197C47.348 66.1968 47.348 66.1966 47.348 66.1964C47.348 66.1963 47.348 66.1961 47.348 66.1959C47.348 66.1958 47.348 66.1956 47.348 66.1954C47.348 66.1953 47.348 66.1951 47.348 66.1949C47.348 66.1948 47.348 66.1946 47.348 66.1944C47.348 66.1942 47.348 66.1941 47.348 66.1939C47.348 66.1937 47.348 66.1936 47.348 66.1934C47.348 66.1932 47.348 66.1931 47.348 66.1929C47.348 66.1927 47.348 66.1926 47.348 66.1924C47.348 66.1922 47.348 66.1921 47.348 66.1919C47.348 66.1917 47.348 66.1916 47.348 66.1914C47.348 66.1912 47.348 66.1911 47.348 66.1909C47.348 66.1907 47.348 66.1906 47.348 66.1904C47.348 66.1902 47.348 66.1901 47.348 66.1899C47.348 66.1897 47.348 66.1896 47.348 66.1894C47.348 66.1893 47.348 66.1891 47.348 66.1889C47.348 66.1888 47.348 66.1886 47.348 66.1884C47.348 66.1883 47.348 66.1881 47.348 66.1879C47.348 66.1878 47.348 66.1876 47.348 66.1875C47.348 66.1873 47.348 66.1871 47.348 66.187C47.348 66.1868 47.348 66.1866 47.348 66.1865C47.348 66.1863 47.348 66.1862 47.348 66.186C47.348 66.1858 47.348 66.1857 47.348 66.1855C47.348 66.1853 47.348 66.1852 47.348 66.185C47.348 66.1849 47.348 66.1847 47.348 66.1845C47.348 66.1844 47.348 66.1842 47.348 66.1841C47.348 66.1839 47.348 66.1837 47.348 66.1836C47.348 66.1834 47.348 66.1833 47.348 66.1831C47.348 66.1829 47.348 66.1828 47.348 66.1826C47.348 66.1825 47.348 66.1823 47.348 66.1821C47.348 66.182 47.348 66.1818 47.348 66.1817C47.348 66.1815 47.348 66.1814 47.348 66.1812C47.348 66.181 47.348 66.1809 47.348 66.1807C47.348 66.1806 47.348 66.1804 47.348 66.1803C47.348 66.1801 47.348 66.1799 47.348 66.1798C47.348 66.1796 47.348 66.1795 47.348 66.1793C47.348 66.1792 47.348 66.179 47.348 66.1789C47.348 66.1787 47.348 66.1785 47.348 66.1784C47.348 66.1782 47.348 66.1781 47.348 66.1779C47.348 66.1778 47.348 66.1776 47.348 66.1775C47.348 66.1773 47.348 66.1771 47.348 66.177C47.348 66.1768 47.348 66.1767 47.348 66.1765C47.348 66.1764 47.348 66.1762 47.348 66.1761C47.348 66.1759 47.348 66.1758 47.348 66.1756C47.348 66.1755 47.348 66.1753 47.348 66.1752C47.348 66.175 47.348 66.1749 47.348 66.1747C47.348 66.1745 47.348 66.1744 47.348 66.1742C47.348 66.1741 47.348 66.1739 47.348 66.1738C47.348 66.1736 47.348 66.1735 47.348 66.1733C47.348 66.1732 47.348 66.173 47.348 66.1729C47.348 66.1727 47.348 66.1726 47.348 66.1724C47.348 66.1723 47.348 66.1721 47.348 66.172C47.348 66.1718 47.348 66.1717 47.348 66.1715C47.348 66.1714 47.348 66.1712 47.348 66.1711C47.348 66.1709 47.348 66.1708 47.348 66.1706C47.348 66.1705 47.348 66.1704 47.348 66.1702C47.348 66.1701 47.348 66.1699 47.348 66.1698C47.348 66.1696 47.348 66.1695 47.348 66.1693C47.348 66.1692 47.348 66.169 47.348 66.1689C47.348 66.1687 47.348 66.1686 47.348 66.1684C47.348 66.1683 47.348 66.1681 47.348 66.168H45.848H44.348C44.348 66.1681 44.348 66.1683 44.348 66.1684C44.348 66.1686 44.348 66.1687 44.348 66.1689C44.348 66.169 44.348 66.1692 44.348 66.1693C44.348 66.1695 44.348 66.1696 44.348 66.1698C44.348 66.1699 44.348 66.1701 44.348 66.1702C44.348 66.1704 44.348 66.1705 44.348 66.1706C44.348 66.1708 44.348 66.1709 44.348 66.1711C44.348 66.1712 44.348 66.1714 44.348 66.1715C44.348 66.1717 44.348 66.1718 44.348 66.172C44.348 66.1721 44.348 66.1723 44.348 66.1724C44.348 66.1726 44.348 66.1727 44.348 66.1729C44.348 66.173 44.348 66.1732 44.348 66.1733C44.348 66.1735 44.348 66.1736 44.348 66.1738C44.348 66.1739 44.348 66.1741 44.348 66.1742C44.348 66.1744 44.348 66.1745 44.348 66.1747C44.348 66.1749 44.348 66.175 44.348 66.1752C44.348 66.1753 44.348 66.1755 44.348 66.1756C44.348 66.1758 44.348 66.1759 44.348 66.1761C44.348 66.1762 44.348 66.1764 44.348 66.1765C44.348 66.1767 44.348 66.1768 44.348 66.177C44.348 66.1771 44.348 66.1773 44.348 66.1775C44.348 66.1776 44.348 66.1778 44.348 66.1779C44.348 66.1781 44.348 66.1782 44.348 66.1784C44.348 66.1785 44.348 66.1787 44.348 66.1789C44.348 66.179 44.348 66.1792 44.348 66.1793C44.348 66.1795 44.348 66.1796 44.348 66.1798C44.348 66.1799 44.348 66.1801 44.348 66.1803C44.348 66.1804 44.348 66.1806 44.348 66.1807C44.348 66.1809 44.348 66.181 44.348 66.1812C44.348 66.1814 44.348 66.1815 44.348 66.1817C44.348 66.1818 44.348 66.182 44.348 66.1821C44.348 66.1823 44.348 66.1825 44.348 66.1826C44.348 66.1828 44.348 66.1829 44.348 66.1831C44.348 66.1833 44.348 66.1834 44.348 66.1836C44.348 66.1837 44.348 66.1839 44.348 66.1841C44.348 66.1842 44.348 66.1844 44.348 66.1845C44.348 66.1847 44.348 66.1849 44.348 66.185C44.348 66.1852 44.348 66.1853 44.348 66.1855C44.348 66.1857 44.348 66.1858 44.348 66.186C44.348 66.1862 44.348 66.1863 44.348 66.1865C44.348 66.1866 44.348 66.1868 44.348 66.187C44.348 66.1871 44.348 66.1873 44.348 66.1875C44.348 66.1876 44.348 66.1878 44.348 66.1879C44.348 66.1881 44.348 66.1883 44.348 66.1884C44.348 66.1886 44.348 66.1888 44.348 66.1889C44.348 66.1891 44.348 66.1893 44.348 66.1894C44.348 66.1896 44.348 66.1897 44.348 66.1899C44.348 66.1901 44.348 66.1902 44.348 66.1904C44.348 66.1906 44.348 66.1907 44.348 66.1909C44.348 66.1911 44.348 66.1912 44.348 66.1914C44.348 66.1916 44.348 66.1917 44.348 66.1919C44.348 66.1921 44.348 66.1922 44.348 66.1924C44.348 66.1926 44.348 66.1927 44.348 66.1929C44.348 66.1931 44.348 66.1932 44.348 66.1934C44.348 66.1936 44.348 66.1937 44.348 66.1939C44.348 66.1941 44.348 66.1942 44.348 66.1944C44.348 66.1946 44.348 66.1948 44.348 66.1949C44.348 66.1951 44.348 66.1953 44.348 66.1954C44.348 66.1956 44.348 66.1958 44.348 66.1959C44.348 66.1961 44.348 66.1963 44.348 66.1964C44.348 66.1966 44.348 66.1968 44.348 66.197C44.348 66.1971 44.348 66.1973 44.348 66.1975C44.348 66.1976 44.348 66.1978 44.348 66.198C44.348 66.1982 44.348 66.1983 44.348 66.1985C44.348 66.1987 44.348 66.1988 44.348 66.199C44.348 66.1992 44.348 66.1994 44.348 66.1995C44.348 66.1997 44.348 66.1999 44.348 66.2001C44.348 66.2002 44.348 66.2004 44.348 66.2006C44.348 66.2007 44.348 66.2009 44.348 66.2011C44.348 66.2013 44.348 66.2014 44.348 66.2016C44.348 66.2018 44.348 66.202 44.348 66.2021C44.348 66.2023 44.348 66.2025 44.348 66.2027C44.348 66.2028 44.348 66.203 44.348 66.2032C44.348 66.2034 44.348 66.2035 44.348 66.2037C44.348 66.2039 44.348 66.2041 44.348 66.2042C44.348 66.2044 44.348 66.2046 44.348 66.2048C44.348 66.205 44.348 66.2051 44.348 66.2053C44.348 66.2055 44.348 66.2057 44.348 66.2058C44.348 66.206 44.348 66.2062 44.348 66.2064C44.348 66.2065 44.348 66.2067 44.348 66.2069C44.348 66.2071 44.348 66.2073 44.348 66.2074C44.348 66.2076 44.348 66.2078 44.348 66.208C44.348 66.2082 44.348 66.2083 44.348 66.2085C44.348 66.2087 44.348 66.2089 44.348 66.2091C44.348 66.2092 44.348 66.2094 44.348 66.2096C44.348 66.2098 44.348 66.21 44.348 66.2101C44.348 66.2103 44.348 66.2105 44.348 66.2107C44.348 66.2109 44.348 66.211 44.348 66.2112C44.348 66.2114 44.348 66.2116 44.348 66.2118C44.348 66.212 44.348 66.2121 44.348 66.2123C44.348 66.2125 44.348 66.2127 44.348 66.2129C44.348 66.213 44.348 66.2132 44.348 66.2134C44.348 66.2136 44.348 66.2138 44.348 66.214C44.348 66.2142 44.348 66.2143 44.348 66.2145C44.348 66.2147 44.348 66.2149 44.348 66.2151C44.348 66.2153 44.348 66.2154 44.348 66.2156C44.348 66.2158 44.348 66.216 44.348 66.2162C44.348 66.2164 44.348 66.2166 44.348 66.2167C44.348 66.2169 44.348 66.2171 44.348 66.2173C44.348 66.2175 44.348 66.2177 44.348 66.2179C44.348 66.218 44.348 66.2182 44.348 66.2184C44.348 66.2186 44.348 66.2188 44.348 66.219C44.348 66.2192 44.348 66.2193 44.348 66.2195C44.348 66.2197 44.348 66.2199 44.348 66.2201C44.348 66.2203 44.348 66.2205 44.348 66.2207C44.348 66.2209 44.348 66.221 44.348 66.2212C44.348 66.2214 44.348 66.2216 44.348 66.2218C44.348 66.222 44.348 66.2222 44.348 66.2224C44.348 66.2226 44.348 66.2227 44.348 66.2229C44.348 66.2231 44.348 66.2233 44.348 66.2235C44.348 66.2237 44.348 66.2239 44.348 66.2241C44.348 66.2243 44.348 66.2245 44.348 66.2247C44.348 66.2248 44.348 66.225 44.348 66.2252C44.348 66.2254 44.348 66.2256 44.348 66.2258C44.348 66.226 44.348 66.2262 44.348 66.2264C44.348 66.2266 44.348 66.2268 44.348 66.227C44.348 66.2272 44.348 66.2273 44.348 66.2275C44.348 66.2277 44.348 66.2279 44.348 66.2281C44.348 66.2283 44.348 66.2285 44.348 66.2287C44.348 66.2289 44.348 66.2291 44.348 66.2293C44.348 66.2295 44.348 66.2297 44.348 66.2299C44.348 66.2301 44.348 66.2303 44.348 66.2305C44.348 66.2307 44.348 66.2309 44.348 66.231C44.348 66.2312 44.348 66.2314 44.348 66.2316C44.348 66.2318 44.348 66.232 44.348 66.2322C44.348 66.2324 44.348 66.2326 44.348 66.2328C44.348 66.233 44.348 66.2332 44.348 66.2334C44.348 66.2336 44.348 66.2338 44.348 66.234C44.348 66.2342 44.348 66.2344 44.348 66.2346C44.348 66.2348 44.348 66.235 44.348 66.2352C44.348 66.2354 44.348 66.2356 44.348 66.2358C44.348 66.236 44.348 66.2362 44.348 66.2364C44.348 66.2366 44.348 66.2368 44.348 66.237C44.348 66.2372 44.348 66.2374 44.348 66.2376C44.348 66.2378 44.348 66.238 44.348 66.2382C44.348 66.2384 44.348 66.2386 44.348 66.2388C44.348 66.239 44.348 66.2392 44.348 66.2394C44.348 66.2396 44.348 66.2398 44.348 66.24C44.348 66.2402 44.348 66.2404 44.348 66.2406C44.348 66.2408 44.348 66.241 44.348 66.2412C44.348 66.2414 44.348 66.2416 44.348 66.2418C44.348 66.242 44.348 66.2422 44.348 66.2424C44.348 66.2426 44.348 66.2428 44.348 66.243C44.348 66.2432 44.348 66.2435 44.348 66.2437C44.348 66.2439 44.348 66.2441 44.348 66.2443C44.348 66.2445 44.348 66.2447 44.348 66.2449C44.348 66.2451 44.348 66.2453 44.348 66.2455C44.348 66.2457 44.348 66.2459 44.348 66.2461C44.348 66.2463 44.348 66.2465 44.348 66.2467C44.348 66.2469 44.348 66.2472 44.348 66.2474C44.348 66.2476 44.348 66.2478 44.348 66.248C44.348 66.2482 44.348 66.2484 44.348 66.2486C44.348 66.2488 44.348 66.249 44.348 66.2492C44.348 66.2494 44.348 66.2496 44.348 66.2499C44.348 66.2501 44.348 66.2503 44.348 66.2505C44.348 66.2507 44.348 66.2509 44.348 66.2511C44.348 66.2513 44.348 66.2515 44.348 66.2517C44.348 66.2519 44.348 66.2522 44.348 66.2524C44.348 66.2526 44.348 66.2528 44.348 66.253C44.348 66.2532 44.348 66.2534 44.348 66.2536C44.348 66.2538 44.348 66.254 44.348 66.2543C44.348 66.2545 44.348 66.2547 44.348 66.2549C44.348 66.2551 44.348 66.2553 44.348 66.2555C44.348 66.2557 44.348 66.256 44.348 66.2562C44.348 66.2564 44.348 66.2566 44.348 66.2568C44.348 66.257 44.348 66.2572 44.348 66.2574C44.348 66.2577 44.348 66.2579 44.348 66.2581C44.348 66.2583 44.348 66.2585 44.348 66.2587C44.348 66.2589 44.348 66.2592 44.348 66.2594C44.348 66.2596 44.348 66.2598 44.348 66.26C44.348 66.2602 44.348 66.2604 44.348 66.2607C44.348 66.2609 44.348 66.2611 44.348 66.2613C44.348 66.2615 44.348 66.2617 44.348 66.262C44.348 66.2622 44.348 66.2624 44.348 66.2626C44.348 66.2628 44.348 66.263 44.348 66.2633C44.348 66.2635 44.348 66.2637 44.348 66.2639C44.348 66.2641 44.348 66.2643 44.348 66.2646C44.348 66.2648 44.348 66.265 44.348 66.2652C44.348 66.2654 44.348 66.2657 44.348 66.2659C44.348 66.2661 44.348 66.2663 44.348 66.2665C44.348 66.2667 44.348 66.267 44.348 66.2672C44.348 66.2674 44.348 66.2676 44.348 66.2678C44.348 66.2681 44.348 66.2683 44.348 66.2685C44.348 66.2687 44.348 66.2689 44.348 66.2692C44.348 66.2694 44.348 66.2696 44.348 66.2698C44.348 66.27 44.348 66.2703 44.348 66.2705C44.348 66.2707 44.348 66.2709 44.348 66.2712C44.348 66.2714 44.348 66.2716 44.348 66.2718C44.348 66.272 44.348 66.2723 44.348 66.2725C44.348 66.2727 44.348 66.2729 44.348 66.2732C44.348 66.2734 44.348 66.2736 44.348 66.2738C44.348 66.2741 44.348 66.2743 44.348 66.2745C44.348 66.2747 44.348 66.2749 44.348 66.2752C44.348 66.2754 44.348 66.2756 44.348 66.2758C44.348 66.2761 44.348 66.2763 44.348 66.2765C44.348 66.2767 44.348 66.277 44.348 66.2772C44.348 66.2774 44.348 66.2776 44.348 66.2779C44.348 66.2781 44.348 66.2783 44.348 66.2786C44.348 66.2788 44.348 66.279 44.348 66.2792C44.348 66.2795 44.348 66.2797 44.348 66.2799C44.348 66.2801 44.348 66.2804 44.348 66.2806C44.348 66.2808 44.348 66.2811 44.348 66.2813C44.348 66.2815 44.348 66.2817 44.348 66.282C44.348 66.2822 44.348 66.2824 44.348 66.2827C44.348 66.2829 44.348 66.2831 44.348 66.2833C44.348 66.2836 44.348 66.2838 44.348 66.284C44.348 66.2843 44.348 66.2845 44.348 66.2847C44.348 66.2849 44.348 66.2852 44.348 66.2854C44.348 66.2856 44.348 66.2859 44.348 66.2861C44.348 66.2863 44.348 66.2866 44.348 66.2868C44.348 66.287 44.348 66.2873 44.348 66.2875C44.348 66.2877 44.348 66.2879 44.348 66.2882C44.348 66.2884 44.348 66.2886 44.348 66.2889C44.348 66.2891 44.348 66.2893 44.348 66.2896C44.348 66.2898 44.348 66.29 44.348 66.2903C44.348 66.2905 44.348 66.2907 44.348 66.291C44.348 66.2912 44.348 66.2914 44.348 66.2917C44.348 66.2919 44.348 66.2921 44.348 66.2924C44.348 66.2926 44.348 66.2929 44.348 66.2931C44.348 66.2933 44.348 66.2936 44.348 66.2938C44.348 66.294 44.348 66.2943 44.348 66.2945C44.348 66.2947 44.348 66.295 44.348 66.2952C44.348 66.2954 44.348 66.2957 44.348 66.2959C44.348 66.2962 44.348 66.2964 44.348 66.2966C44.348 66.2969 44.348 66.2971 44.348 66.2973C44.348 66.2976 44.348 66.2978 44.348 66.298C44.348 66.2983 44.348 66.2985 44.348 66.2988C44.348 66.299 44.348 66.2992 44.348 66.2995C44.348 66.2997 44.348 66.3 44.348 66.3002C44.348 66.3004 44.348 66.3007 44.348 66.3009C44.348 66.3012 44.348 66.3014 44.348 66.3016C44.348 66.3019 44.348 66.3021 44.348 66.3024C44.348 66.3026 44.348 66.3028 44.348 66.3031C44.348 66.3033 44.348 66.3036 44.348 66.3038C44.348 66.304 44.348 66.3043 44.348 66.3045C44.348 66.3048 44.348 66.305 44.348 66.3052C44.348 66.3055 44.348 66.3057 44.348 66.306C44.348 66.3062 44.348 66.3065 44.348 66.3067C44.348 66.3069 44.348 66.3072 44.348 66.3074C44.348 66.3077 44.348 66.3079 44.348 66.3082C44.348 66.3084 44.348 66.3086 44.348 66.3089C44.348 66.3091 44.348 66.3094 44.348 66.3096C44.348 66.3099 44.348 66.3101 44.348 66.3104C44.348 66.3106 44.348 66.3108 44.348 66.3111C44.348 66.3113 44.348 66.3116 44.348 66.3118C44.348 66.3121 44.348 66.3123 44.348 66.3126C44.348 66.3128 44.348 66.3131 44.348 66.3133C44.348 66.3135 44.348 66.3138 44.348 66.314C44.348 66.3143 44.348 66.3145 44.348 66.3148C44.348 66.315 44.348 66.3153 44.348 66.3155C44.348 66.3158 44.348 66.316 44.348 66.3163C44.348 66.3165 44.348 66.3168 44.348 66.317C44.348 66.3173 44.348 66.3175 44.348 66.3178C44.348 66.318 44.348 66.3183 44.348 66.3185C44.348 66.3188 44.348 66.319 44.348 66.3193C44.348 66.3195 44.348 66.3197 44.348 66.32C44.348 66.3202 44.348 66.3205 44.348 66.3208C44.348 66.321 44.348 66.3213 44.348 66.3215C44.348 66.3218 44.348 66.322 44.348 66.3223C44.348 66.3225 44.348 66.3228 44.348 66.323C44.348 66.3233 44.348 66.3235 44.348 66.3238C44.348 66.324 44.348 66.3243 44.348 66.3245C44.348 66.3248 44.348 66.325 44.348 66.3253C44.348 66.3255 44.348 66.3258 44.348 66.326C44.348 66.3263 44.348 66.3265 44.348 66.3268C44.348 66.3271 44.348 66.3273 44.348 66.3276C44.348 66.3278 44.348 66.3281 44.348 66.3283C44.348 66.3286 44.348 66.3288 44.348 66.3291C44.348 66.3293 44.348 66.3296 44.348 66.3299C44.348 66.3301 44.348 66.3304 44.348 66.3306C44.348 66.3309 44.348 66.3311 44.348 66.3314C44.348 66.3316 44.348 66.3319 44.348 66.3322C44.348 66.3324 44.348 66.3327 44.348 66.3329C44.348 66.3332 44.348 66.3334 44.348 66.3337C44.348 66.334 44.348 66.3342 44.348 66.3345C44.348 66.3347 44.348 66.335 44.348 66.3352C44.348 66.3355 44.348 66.3358 44.348 66.336C44.348 66.3363 44.348 66.3365 44.348 66.3368C44.348 66.3371 44.348 66.3373 44.348 66.3376C44.348 66.3378 44.348 66.3381 44.348 66.3384C44.348 66.3386 44.348 66.3389 44.348 66.3391C44.348 66.3394 44.348 66.3397 44.348 66.3399C44.348 66.3402 44.348 66.3404 44.348 66.3407C44.348 66.341 44.348 66.3412 44.348 66.3415C44.348 66.3417 44.348 66.342 44.348 66.3423C44.348 66.3425 44.348 66.3428 44.348 66.343C44.348 66.3433 44.348 66.3436 44.348 66.3438C44.348 66.3441 44.348 66.3444 44.348 66.3446C44.348 66.3449 44.348 66.3452 44.348 66.3454C44.348 66.3457 44.348 66.3459 44.348 66.3462C44.348 66.3465 44.348 66.3467 44.348 66.347C44.348 66.3473 44.348 66.3475 44.348 66.3478C44.348 66.3481 44.348 66.3483 44.348 66.3486C44.348 66.3489 44.348 66.3491 44.348 66.3494C44.348 66.3496 44.348 66.3499 44.348 66.3502C44.348 66.3504 44.348 66.3507 44.348 66.351C44.348 66.3512 44.348 66.3515 44.348 66.3518C44.348 66.352 44.348 66.3523 44.348 66.3526C44.348 66.3528 44.348 66.3531 44.348 66.3534C44.348 66.3536 44.348 66.3539 44.348 66.3542C44.348 66.3544 44.348 66.3547 44.348 66.355C44.348 66.3553 44.348 66.3555 44.348 66.3558C44.348 66.3561 44.348 66.3563 44.348 66.3566C44.348 66.3569 44.348 66.3571 44.348 66.3574C44.348 66.3577 44.348 66.3579 44.348 66.3582C44.348 66.3585 44.348 66.3588 44.348 66.359C44.348 66.3593 44.348 66.3596 44.348 66.3598C44.348 66.3601 44.348 66.3604 44.348 66.3607C44.348 66.3609 44.348 66.3612 44.348 66.3615C44.348 66.3617 44.348 66.362 44.348 66.3623C44.348 66.3626 44.348 66.3628 44.348 66.3631C44.348 66.3634 44.348 66.3636 44.348 66.3639C44.348 66.3642 44.348 66.3645 44.348 66.3647C44.348 66.365 44.348 66.3653 44.348 66.3656C44.348 66.3658 44.348 66.3661 44.348 66.3664C44.348 66.3666 44.348 66.3669 44.348 66.3672C44.348 66.3675 44.348 66.3677 44.348 66.368C44.348 66.3683 44.348 66.3686 44.348 66.3688C44.348 66.3691 44.348 66.3694 44.348 66.3697C44.348 66.3699 44.348 66.3702 44.348 66.3705C44.348 66.3708 44.348 66.3711 44.348 66.3713C44.348 66.3716 44.348 66.3719 44.348 66.3722C44.348 66.3724 44.348 66.3727 44.348 66.373C44.348 66.3733 44.348 66.3735 44.348 66.3738C44.348 66.3741 44.348 66.3744 44.348 66.3747C44.348 66.3749 44.348 66.3752 44.348 66.3755C44.348 66.3758 44.348 66.376 44.348 66.3763C44.348 66.3766 44.348 66.3769 44.348 66.3772C44.348 66.3774 44.348 66.3777 44.348 66.378C44.348 66.3783 44.348 66.3786 44.348 66.3788C44.348 66.3791 44.348 66.3794 44.348 66.3797C44.348 66.38 44.348 66.3802 44.348 66.3805C44.348 66.3808 44.348 66.3811 44.348 66.3814C44.348 66.3817 44.348 66.3819 44.348 66.3822C44.348 66.3825 44.348 66.3828 44.348 66.3831C44.348 66.3833 44.348 66.3836 44.348 66.3839C44.348 66.3842 44.348 66.3845 44.348 66.3848C44.348 66.385 44.348 66.3853 44.348 66.3856C44.348 66.3859 44.348 66.3862 44.348 66.3865C44.348 66.3867 44.348 66.387 44.348 66.3873C44.348 66.3876 44.348 66.3879 44.348 66.3882C44.348 66.3884 44.348 66.3887 44.348 66.389C44.348 66.3893 44.348 66.3896 44.348 66.3899C44.348 66.3902 44.348 66.3904 44.348 66.3907C44.348 66.391 44.348 66.3913 44.348 66.3916C44.348 66.3919 44.348 66.3922 44.348 66.3924C44.348 66.3927 44.348 66.393 44.348 66.3933C44.348 66.3936 44.348 66.3939 44.348 66.3942C44.348 66.3945 44.348 66.3947 44.348 66.395C44.348 66.3953 44.348 66.3956 44.348 66.3959C44.348 66.3962 44.348 66.3965 44.348 66.3968C44.348 66.397 44.348 66.3973 44.348 66.3976C44.348 66.3979 44.348 66.3982 44.348 66.3985C44.348 66.3988 44.348 66.3991 44.348 66.3994C44.348 66.3997 44.348 66.3999 44.348 66.4002C44.348 66.4005 44.348 66.4008 44.348 66.4011C44.348 66.4014 44.348 66.4017 44.348 66.402C44.348 66.4023 44.348 66.4026 44.348 66.4029C44.348 66.4031 44.348 66.4034 44.348 66.4037C44.348 66.404 44.348 66.4043 44.348 66.4046C44.348 66.4049 44.348 66.4052 44.348 66.4055C44.348 66.4058 44.348 66.4061 44.348 66.4064C44.348 66.4067 44.348 66.4069 44.348 66.4072C44.348 66.4075 44.348 66.4078 44.348 66.4081C44.348 66.4084 44.348 66.4087 44.348 66.409C44.348 66.4093 44.348 66.4096 44.348 66.4099C44.348 66.4102 44.348 66.4105 44.348 66.4108C44.348 66.4111 44.348 66.4114 44.348 66.4117C44.348 66.412 44.348 66.4122 44.348 66.4125C44.348 66.4128 44.348 66.4131 44.348 66.4134C44.348 66.4137 44.348 66.414 44.348 66.4143C44.348 66.4146 44.348 66.4149 44.348 66.4152C44.348 66.4155 44.348 66.4158 44.348 66.4161C44.348 66.4164 44.348 66.4167 44.348 66.417C44.348 66.4173 44.348 66.4176 44.348 66.4179C44.348 66.4182 44.348 66.4185 44.348 66.4188C44.348 66.4191 44.348 66.4194 44.348 66.4197C44.348 66.42 44.348 66.4203 44.348 66.4206C44.348 66.4209 44.348 66.4212 44.348 66.4215C44.348 66.4218 44.348 66.4221 44.348 66.4224C44.348 66.4227 44.348 66.423 44.348 66.4233C44.348 66.4236 44.348 66.4239 44.348 66.4242C44.348 66.4245 44.348 66.4248 44.348 66.4251C44.348 66.4254 44.348 66.4257 44.348 66.426C44.348 66.4263 44.348 66.4266 44.348 66.4269C44.348 66.4272 44.348 66.4275 44.348 66.4278C44.348 66.4281 44.348 66.4284 44.348 66.4287C44.348 66.429 44.348 66.4293 44.348 66.4296C44.348 66.4299 44.348 66.4302 44.348 66.4305C44.348 66.4309 44.348 66.4312 44.348 66.4315C44.348 66.4318 44.348 66.4321 44.348 66.4324C44.348 66.4327 44.348 66.433 44.348 66.4333C44.348 66.4336 44.348 66.4339 44.348 66.4342C44.348 66.4345 44.348 66.4348 44.348 66.4351C44.348 66.4354 44.348 66.4357 44.348 66.436C44.348 66.4363 44.348 66.4367 44.348 66.437C44.348 66.4373 44.348 66.4376 44.348 66.4379C44.348 66.4382 44.348 66.4385 44.348 66.4388C44.348 66.4391 44.348 66.4394 44.348 66.4397C44.348 66.44 44.348 66.4403 44.348 66.4407C44.348 66.441 44.348 66.4413 44.348 66.4416C44.348 66.4419 44.348 66.4422 44.348 66.4425C44.348 66.4428 44.348 66.4431 44.348 66.4434C44.348 66.4437 44.348 66.4441 44.348 66.4444C44.348 66.4447 44.348 66.445 44.348 66.4453C44.348 66.4456 44.348 66.4459 44.348 66.4462C44.348 66.4465 44.348 66.4469 44.348 66.4472C44.348 66.4475 44.348 66.4478 44.348 66.4481C44.348 66.4484 44.348 66.4487 44.348 66.449C44.348 66.4493 44.348 66.4497 44.348 66.45C44.348 66.4503 44.348 66.4506 44.348 66.4509C44.348 66.4512 44.348 66.4515 44.348 66.4519C44.348 66.4522 44.348 66.4525 44.348 66.4528C44.348 66.4531 44.348 66.4534 44.348 66.4537C44.348 66.4541 44.348 66.4544 44.348 66.4547C44.348 66.455 44.348 66.4553 44.348 66.4556C44.348 66.4559 44.348 66.4563 44.348 66.4566C44.348 66.4569 44.348 66.4572 44.348 66.4575C44.348 66.4578 44.348 66.4582 44.348 66.4585C44.348 66.4588 44.348 66.4591 44.348 66.4594C44.348 66.4597 44.348 66.46 44.348 66.4604C44.348 66.4607 44.348 66.461 44.348 66.4613C44.348 66.4616 44.348 66.462 44.348 66.4623C44.348 66.4626 44.348 66.4629 44.348 66.4632C44.348 66.4635 44.348 66.4639 44.348 66.4642C44.348 66.4645 44.348 66.4648 44.348 66.4651C44.348 66.4655 44.348 66.4658 44.348 66.4661C44.348 66.4664 44.348 66.4667 44.348 66.4671C44.348 66.4674 44.348 66.4677 44.348 66.468C44.348 66.4683 44.348 66.4687 44.348 66.469C44.348 66.4693 44.348 66.4696 44.348 66.4699C44.348 66.4703 44.348 66.4706 44.348 66.4709C44.348 66.4712 44.348 66.4715 44.348 66.4719C44.348 66.4722 44.348 66.4725 44.348 66.4728C44.348 66.4732 44.348 66.4735 44.348 66.4738C44.348 66.4741 44.348 66.4745 44.348 66.4748C44.348 66.4751 44.348 66.4754 44.348 66.4757C44.348 66.4761 44.348 66.4764 44.348 66.4767C44.348 66.477 44.348 66.4774 44.348 66.4777C44.348 66.478 44.348 66.4783 44.348 66.4787C44.348 66.479 44.348 66.4793 44.348 66.4796C44.348 66.48 44.348 66.4803 44.348 66.4806C44.348 66.4809 44.348 66.4813 44.348 66.4816C44.348 66.4819 44.348 66.4822 44.348 66.4826C44.348 66.4829 44.348 66.4832 44.348 66.4836C44.348 66.4839 44.348 66.4842 44.348 66.4845C44.348 66.4849 44.348 66.4852 44.348 66.4855C44.348 66.4858 44.348 66.4862 44.348 66.4865C44.348 66.4868 44.348 66.4872 44.348 66.4875C44.348 66.4878 44.348 66.4881 44.348 66.4885C44.348 66.4888 44.348 66.4891 44.348 66.4895C44.348 66.4898 44.348 66.4901 44.348 66.4904C44.348 66.4908 44.348 66.4911 44.348 66.4914C44.348 66.4918 44.348 66.4921 44.348 66.4924C44.348 66.4928 44.348 66.4931 44.348 66.4934C44.348 66.4938 44.348 66.4941 44.348 66.4944C44.348 66.4947 44.348 66.4951 44.348 66.4954C44.348 66.4957 44.348 66.4961 44.348 66.4964C44.348 66.4967 44.348 66.4971 44.348 66.4974C44.348 66.4977 44.348 66.4981 44.348 66.4984C44.348 66.4987 44.348 66.4991 44.348 66.4994C44.348 66.4997 44.348 66.5001 44.348 66.5004C44.348 66.5007 44.348 66.5011 44.348 66.5014C44.348 66.5017 44.348 66.5021 44.348 66.5024C44.348 66.5027 44.348 66.5031 44.348 66.5034C44.348 66.5037 44.348 66.5041 44.348 66.5044C44.348 66.5048 44.348 66.5051 44.348 66.5054C44.348 66.5058 44.348 66.5061 44.348 66.5064C44.348 66.5068 44.348 66.5071 44.348 66.5074C44.348 66.5078 44.348 66.5081 44.348 66.5085C44.348 66.5088 44.348 66.5091 44.348 66.5095C44.348 66.5098 44.348 66.5101 44.348 66.5105C44.348 66.5108 44.348 66.5112 44.348 66.5115C44.348 66.5118 44.348 66.5122 44.348 66.5125C44.348 66.5128 44.348 66.5132 44.348 66.5135C44.348 66.5139 44.348 66.5142 44.348 66.5145C44.348 66.5149 44.348 66.5152 44.348 66.5156C44.348 66.5159 44.348 66.5162 44.348 66.5166C44.348 66.5169 44.348 66.5173 44.348 66.5176C44.348 66.5179 44.348 66.5183 44.348 66.5186C44.348 66.519 44.348 66.5193 44.348 66.5196C44.348 66.52 44.348 66.5203 44.348 66.5207C44.348 66.521 44.348 66.5214 44.348 66.5217C44.348 66.522 44.348 66.5224 44.348 66.5227C44.348 66.5231 44.348 66.5234 44.348 66.5238C44.348 66.5241 44.348 66.5244 44.348 66.5248C44.348 66.5251 44.348 66.5255 44.348 66.5258C44.348 66.5262 44.348 66.5265 44.348 66.5269C44.348 66.5272 44.348 66.5275 44.348 66.5279C44.348 66.5282 44.348 66.5286 44.348 66.5289C44.348 66.5293 44.348 66.5296 44.348 66.53C44.348 66.5303 44.348 66.5306 44.348 66.531C44.348 66.5313 44.348 66.5317 44.348 66.532C44.348 66.5324 44.348 66.5327 44.348 66.5331C44.348 66.5334 44.348 66.5338 44.348 66.5341C44.348 66.5345 44.348 66.5348 44.348 66.5352C44.348 66.5355 44.348 66.5359 44.348 66.5362C44.348 66.5365 44.348 66.5369 44.348 66.5372C44.348 66.5376 44.348 66.5379 44.348 66.5383C44.348 66.5386 44.348 66.539 44.348 66.5393C44.348 66.5397 44.348 66.54 44.348 66.5404C44.348 66.5407 44.348 66.5411 44.348 66.5414C44.348 66.5418 44.348 66.5421 44.348 66.5425C44.348 66.5428 44.348 66.5432 44.348 66.5435C44.348 66.5439 44.348 66.5442 44.348 66.5446C44.348 66.5449 44.348 66.5453 44.348 66.5456C44.348 66.546 44.348 66.5464 44.348 66.5467C44.348 66.5471 44.348 66.5474 44.348 66.5478C44.348 66.5481 44.348 66.5485 44.348 66.5488C44.348 66.5492 44.348 66.5495 44.348 66.5499C44.348 66.5502 44.348 66.5506 44.348 66.5509C44.348 66.5513 44.348 66.5516 44.348 66.552H45.848ZM45.848 66.168H47.348C47.348 65.8138 47.403 65.5254 47.4925 65.2867L46.088 64.76L44.6835 64.2333C44.453 64.8479 44.348 65.4982 44.348 66.168H45.848ZM46.088 64.76L47.4807 65.3171C47.6052 65.0058 47.7626 64.7229 47.9525 64.4646L46.744 63.576L45.5355 62.6874C45.1921 63.1545 44.9121 63.6609 44.6953 64.2029L46.088 64.76ZM46.744 63.576L47.9646 64.4479C48.1783 64.1487 48.4175 63.8709 48.6831 63.6139L47.64 62.536L46.5969 61.4581C46.2011 61.8411 45.843 62.2567 45.5234 62.7041L46.744 63.576ZM47.64 62.536L48.6659 63.6303C49.0129 63.305 49.3547 62.9795 49.6911 62.6539L48.648 61.576L47.6049 60.4981C47.28 60.8125 46.9497 61.127 46.6141 61.4417L47.64 62.536ZM48.648 61.576L49.6859 62.659C49.9409 62.4146 50.1798 62.1863 50.4025 61.9742L49.368 60.888L48.3335 59.8018C48.1082 60.0163 47.8671 60.2468 47.6101 60.493L48.648 61.576ZM49.368 60.888L50.4287 61.9487C50.6773 61.7001 50.9045 61.4552 51.1074 61.2142L49.96 60.248L48.8126 59.2818C48.6742 59.4462 48.5067 59.6279 48.3073 59.8273L49.368 60.888ZM49.96 60.248L51.1313 61.185C51.3595 60.8998 51.5604 60.5938 51.7156 60.2661L50.36 59.624L49.0044 58.9819C48.9676 59.0596 48.9019 59.1695 48.7887 59.311L49.96 60.248ZM50.36 59.624L51.7279 60.2395C51.9025 59.8516 52.004 59.4293 52.004 58.984H50.504H49.004C49.004 58.9772 49.0049 58.9734 49.0046 58.9747C49.0042 58.9764 49.0016 58.9874 48.9921 59.0085L50.36 59.624ZM50.504 58.984H52.004C52.004 58.2522 51.7883 57.3563 50.9805 56.7747L50.104 57.992L49.2275 59.2093C49.1747 59.1713 49.127 59.1249 49.0878 59.0736C49.0491 59.0231 49.0259 58.9773 49.0128 58.945C48.9888 58.8854 49.004 58.8839 49.004 58.984H50.504ZM50.104 57.992L50.9805 56.7747C50.4106 56.3644 49.7565 56.204 49.112 56.204V57.704V59.204C49.1881 59.204 49.2265 59.2132 49.2378 59.2165C49.2467 59.2191 49.2397 59.218 49.2275 59.2093L50.104 57.992ZM49.112 57.704V56.204C48.6538 56.204 48.2026 56.281 47.7693 56.4435L48.296 57.848L48.8227 59.2525C48.9014 59.223 48.9942 59.204 49.112 59.204V57.704ZM48.296 57.848L47.8032 56.4313C47.4649 56.5489 47.1416 56.6985 46.8363 56.8818L47.608 58.168L48.3797 59.4542C48.501 59.3815 48.6364 59.3177 48.7888 59.2647L48.296 57.848ZM47.608 58.168L46.8564 56.8699C46.5887 57.0249 46.3347 57.1992 46.1038 57.3971L47.08 58.536L48.0562 59.6749C48.124 59.6168 48.2219 59.5458 48.3596 59.4661L47.608 58.168ZM47.08 58.536L46.1533 57.3565C45.9877 57.4866 45.821 57.6257 45.6833 57.7633L46.744 58.824L47.8047 59.8847C47.8046 59.8847 47.8057 59.8836 47.8082 59.8812C47.8107 59.8788 47.8143 59.8754 47.8192 59.871C47.8289 59.8621 47.8424 59.8501 47.8602 59.8349C47.8962 59.804 47.9444 59.7645 48.0067 59.7155L47.08 58.536ZM46.744 58.824L47.9662 57.9544L46.7822 56.2904L45.56 57.16L44.3378 58.0296L45.5218 59.6936L46.744 58.824ZM45.56 57.16L46.5826 58.2574C46.9247 57.9386 47.3286 57.6706 47.8056 57.4568L47.192 56.088L46.5784 54.7192C45.818 55.0601 45.134 55.5067 44.5374 56.0626L45.56 57.16ZM47.192 56.088L47.8162 57.452C48.2432 57.2566 48.7015 57.156 49.208 57.156V55.656V54.156C48.2851 54.156 47.3995 54.3434 46.5678 54.724L47.192 56.088ZM49.208 55.656V57.156C49.7508 57.156 50.1495 57.2191 50.4332 57.3094L50.888 55.88L51.3428 54.4506C50.6879 54.2422 49.9665 54.156 49.208 54.156V55.656ZM50.888 55.88L50.4332 57.3094C50.7351 57.4054 50.9129 57.5203 51.0193 57.6192L52.04 56.52L53.0607 55.4208C52.5698 54.965 51.9796 54.6532 51.3428 54.4506L50.888 55.88ZM52.04 56.52L51.0606 57.6561C51.1663 57.7473 51.2429 57.8557 51.2968 58.0092L52.712 57.512L54.1272 57.0148C53.9038 56.379 53.5323 55.8261 53.0194 55.3839L52.04 56.52ZM52.712 57.512L51.314 58.0557C51.3844 58.2367 51.436 58.4846 51.436 58.824H52.936H54.436C54.436 58.1821 54.3383 57.5553 54.11 56.9683L52.712 57.512Z" fill="black" mask="url(#path-9-outside-1_2007_113)"/>
<path d="M50.6079 39H39.3921C38.5887 39 38.1133 39.8995 38.5659 40.5633L44.1738 48.7882C44.5707 49.3704 45.4293 49.3704 45.8262 48.7882L51.4341 40.5633C51.8867 39.8995 51.4113 39 50.6079 39Z" fill="white" stroke="black" stroke-width="1.5"/>
<path d="M50.6079 19H39.3921C38.5887 19 38.1133 19.8995 38.5659 20.5633L44.1738 28.7882C44.5707 29.3704 45.4293 29.3704 45.8262 28.7882L51.4341 20.5633C51.8867 19.8995 51.4113 19 50.6079 19Z" fill="white" stroke="black" stroke-width="1.5"/>
<path d="M50.6079 29H39.3921C38.5887 29 38.1133 29.8995 38.5659 30.5633L44.1738 38.7882C44.5707 39.3704 45.4293 39.3704 45.8262 38.7882L51.4341 30.5633C51.8867 29.8995 51.4113 29 50.6079 29Z" fill="white" stroke="black" stroke-width="1.5"/>
</g>
</svg>
