<svg width="90" height="90" viewBox="0 0 90 90" fill="none" xmlns="http://www.w3.org/2000/svg">
<mask id="mask0_2007_128" style="mask-type:alpha" maskUnits="userSpaceOnUse" x="0" y="0" width="90" height="90">
<rect width="90" height="90" fill="#D9D9D9"/>
</mask>
<g mask="url(#mask0_2007_128)">
<rect x="15.102" y="69.788" width="61.5" height="17.5" transform="rotate(-1 15.102 69.788)" fill="#8F8555" stroke="black" stroke-width="1.5"/>
<rect x="11.5771" y="46.0077" width="71.5" height="17.5" transform="rotate(2 11.5771 46.0077)" fill="#8F8555" stroke="black" stroke-width="1.5"/>
<rect x="15.102" y="25.788" width="61.5" height="17.5" transform="rotate(-1 15.102 25.788)" fill="#8F8555" stroke="black" stroke-width="1.5"/>
<rect x="11.5771" y="1.00767" width="71.5" height="17.5" transform="rotate(2 11.5771 1.00767)" fill="#8F8555" stroke="black" stroke-width="1.5"/>
<rect x="54.25" y="-0.75" width="11.5" height="91.5" fill="#E2F5FF" stroke="black" stroke-width="1.5"/>
<rect x="24.25" y="-0.75" width="11.5" height="91.5" fill="#E2F5FF" stroke="black" stroke-width="1.5"/>
<path fill-rule="evenodd" clip-rule="evenodd" d="M57.0001 20.917V7.18263C57.0001 6.08319 56.1041 4.98341 55 4.98341H35C33.896 4.98341 33 6.08319 33 7.18263V20.917H57.0001ZM37.032 27.1153V27.0831C37.032 25.9916 36.142 25.1075 35.046 25.1075H35.016C33.92 25.1075 33.032 25.9916 33.032 27.0831V27.1153C33.032 28.2067 33.92 29.0909 35.016 29.0909H35.046C36.142 29.0909 37.032 28.2067 37.032 27.1153ZM54.984 29.0909H55.0161C56.1121 29.0909 57.0001 28.2067 57.0001 27.1153C57.0001 26.0238 56.1121 25.1397 55.0161 25.1397H54.984C53.888 25.1397 53 26.0238 53 27.1153C53 28.2067 53.888 29.0909 54.984 29.0909ZM57.0001 1C59.2101 1 61.0001 2.99159 61.0001 5.19044V21.1241V29.0909C61.0001 31.2917 59.2101 32.8672 57.0001 32.8672H52.288L54.374 38.0714C54.864 39.0732 55 40.3328 53 40.8028V40.8282C53 41.2883 51.258 40.7827 50.78 39.8067L47.836 32.8672H42.096L38.082 39.8448C37.596 40.8048 37 41.2569 35 40.8028V40.8282C35 40.3542 34.004 39.04 34.514 38.0362L37.616 32.8672H33C30.79 32.8672 29 31.2917 29 29.0909V21.1241V5.19044C29 2.99159 30.79 1 33 1H57.0001Z" fill="white" stroke="black" stroke-width="1.5"/>
<mask id="path-9-outside-1_2007_128" maskUnits="userSpaceOnUse" x="35" y="6" width="20" height="15" fill="black">
<rect fill="white" x="35" y="6" width="20" height="15"/>
<path d="M37.0263 10.216C37.3356 10.088 37.6556 9.944 37.9863 9.784C38.3276 9.61333 38.6583 9.432 38.9783 9.24C39.2983 9.03733 39.6023 8.82933 39.8903 8.616C40.1889 8.392 40.4556 8.15733 40.6903 7.912H42.3543V19H39.9703V11.016C39.6503 11.2293 39.2929 11.4267 38.8983 11.608C38.5036 11.7787 38.1196 11.928 37.7463 12.056L37.0263 10.216ZM52.936 10.824C52.936 11.2293 52.856 11.6187 52.696 11.992C52.536 12.3653 52.328 12.728 52.072 13.08C51.816 13.4213 51.528 13.752 51.208 14.072C50.888 14.392 50.5733 14.696 50.264 14.984C50.104 15.1333 49.928 15.304 49.736 15.496C49.5547 15.6773 49.3787 15.864 49.208 16.056C49.0373 16.248 48.8827 16.4293 48.744 16.6C48.616 16.76 48.536 16.8933 48.504 17H53.272V19H45.88C45.8587 18.8827 45.848 18.7333 45.848 18.552C45.848 18.3707 45.848 18.2427 45.848 18.168C45.848 17.656 45.928 17.1867 46.088 16.76C46.2587 16.3333 46.4773 15.9387 46.744 15.576C47.0107 15.2027 47.3093 14.856 47.64 14.536C47.9813 14.216 48.3173 13.896 48.648 13.576C48.904 13.3307 49.144 13.1013 49.368 12.888C49.592 12.664 49.7893 12.4507 49.96 12.248C50.1307 12.0347 50.264 11.8267 50.36 11.624C50.456 11.4107 50.504 11.1973 50.504 10.984C50.504 10.5147 50.3707 10.184 50.104 9.992C49.8373 9.8 49.5067 9.704 49.112 9.704C48.824 9.704 48.552 9.752 48.296 9.848C48.0507 9.93333 47.8213 10.04 47.608 10.168C47.4053 10.2853 47.2293 10.408 47.08 10.536C46.9307 10.6533 46.8187 10.7493 46.744 10.824L45.56 9.16C46.0293 8.72267 46.5733 8.36533 47.192 8.088C47.8213 7.8 48.4933 7.656 49.208 7.656C49.8587 7.656 50.4187 7.73067 50.888 7.88C51.3573 8.02933 51.7413 8.24267 52.04 8.52C52.3493 8.78667 52.5733 9.11733 52.712 9.512C52.8613 9.896 52.936 10.3333 52.936 10.824Z"/>
</mask>
<path d="M37.0263 10.216C37.3356 10.088 37.6556 9.944 37.9863 9.784C38.3276 9.61333 38.6583 9.432 38.9783 9.24C39.2983 9.03733 39.6023 8.82933 39.8903 8.616C40.1889 8.392 40.4556 8.15733 40.6903 7.912H42.3543V19H39.9703V11.016C39.6503 11.2293 39.2929 11.4267 38.8983 11.608C38.5036 11.7787 38.1196 11.928 37.7463 12.056L37.0263 10.216ZM52.936 10.824C52.936 11.2293 52.856 11.6187 52.696 11.992C52.536 12.3653 52.328 12.728 52.072 13.08C51.816 13.4213 51.528 13.752 51.208 14.072C50.888 14.392 50.5733 14.696 50.264 14.984C50.104 15.1333 49.928 15.304 49.736 15.496C49.5547 15.6773 49.3787 15.864 49.208 16.056C49.0373 16.248 48.8827 16.4293 48.744 16.6C48.616 16.76 48.536 16.8933 48.504 17H53.272V19H45.88C45.8587 18.8827 45.848 18.7333 45.848 18.552C45.848 18.3707 45.848 18.2427 45.848 18.168C45.848 17.656 45.928 17.1867 46.088 16.76C46.2587 16.3333 46.4773 15.9387 46.744 15.576C47.0107 15.2027 47.3093 14.856 47.64 14.536C47.9813 14.216 48.3173 13.896 48.648 13.576C48.904 13.3307 49.144 13.1013 49.368 12.888C49.592 12.664 49.7893 12.4507 49.96 12.248C50.1307 12.0347 50.264 11.8267 50.36 11.624C50.456 11.4107 50.504 11.1973 50.504 10.984C50.504 10.5147 50.3707 10.184 50.104 9.992C49.8373 9.8 49.5067 9.704 49.112 9.704C48.824 9.704 48.552 9.752 48.296 9.848C48.0507 9.93333 47.8213 10.04 47.608 10.168C47.4053 10.2853 47.2293 10.408 47.08 10.536C46.9307 10.6533 46.8187 10.7493 46.744 10.824L45.56 9.16C46.0293 8.72267 46.5733 8.36533 47.192 8.088C47.8213 7.8 48.4933 7.656 49.208 7.656C49.8587 7.656 50.4187 7.73067 50.888 7.88C51.3573 8.02933 51.7413 8.24267 52.04 8.52C52.3493 8.78667 52.5733 9.11733 52.712 9.512C52.8613 9.896 52.936 10.3333 52.936 10.824Z" fill="white"/>
<path d="M37.0263 10.216L36.4527 8.82997L35.0933 9.39251L35.6294 10.7626L37.0263 10.216ZM37.9863 9.784L38.6396 11.1342L38.6484 11.13L38.6571 11.1256L37.9863 9.784ZM38.9783 9.24L39.75 10.5262L39.7655 10.5169L39.7808 10.5072L38.9783 9.24ZM39.8903 8.616L40.7831 9.82136L40.7902 9.816L39.8903 8.616ZM40.6903 7.912V6.412H40.0493L39.6063 6.87517L40.6903 7.912ZM42.3543 7.912H43.8543V6.412H42.3543V7.912ZM42.3543 19V20.5H43.8543V19H42.3543ZM39.9703 19H38.4703V20.5H39.9703V19ZM39.9703 11.016H41.4703V8.21323L39.1382 9.76792L39.9703 11.016ZM38.8983 11.608L39.4936 12.9848L39.5091 12.9781L39.5245 12.971L38.8983 11.608ZM37.7463 12.056L36.3494 12.6026L36.8731 13.9411L38.2327 13.4749L37.7463 12.056ZM37.0263 10.216L37.5998 11.602C37.9385 11.4619 38.2852 11.3057 38.6396 11.1342L37.9863 9.784L37.3329 8.43376C37.026 8.58226 36.7327 8.71414 36.4527 8.82997L37.0263 10.216ZM37.9863 9.784L38.6571 11.1256C39.032 10.9382 39.3963 10.7384 39.75 10.5262L38.9783 9.24L38.2065 7.95376C37.9202 8.12557 37.6232 8.28847 37.3154 8.44236L37.9863 9.784ZM38.9783 9.24L39.7808 10.5072C40.1299 10.2861 40.4642 10.0576 40.7831 9.82133L39.8903 8.616L38.9974 7.41066C38.7403 7.60109 38.4666 7.78854 38.1757 7.97277L38.9783 9.24ZM39.8903 8.616L40.7902 9.816C41.1482 9.54755 41.4775 9.25903 41.7742 8.94883L40.6903 7.912L39.6063 6.87517C39.4337 7.05564 39.2297 7.23645 38.9903 7.416L39.8903 8.616ZM40.6903 7.912V9.412H42.3543V7.912V6.412H40.6903V7.912ZM42.3543 7.912H40.8543V19H42.3543H43.8543V7.912H42.3543ZM42.3543 19V17.5H39.9703V19V20.5H42.3543V19ZM39.9703 19H41.4703V11.016H39.9703H38.4703V19H39.9703ZM39.9703 11.016L39.1382 9.76792C38.8914 9.93244 38.6041 10.0924 38.272 10.245L38.8983 11.608L39.5245 12.971C39.9817 12.761 40.4091 12.5262 40.8023 12.2641L39.9703 11.016ZM38.8983 11.608L38.3029 10.2312C37.9408 10.3878 37.5932 10.5228 37.2598 10.6371L37.7463 12.056L38.2327 13.4749C38.646 13.3332 39.0663 13.1696 39.4936 12.9848L38.8983 11.608ZM37.7463 12.056L39.1431 11.5094L38.4231 9.6694L37.0263 10.216L35.6294 10.7626L36.3494 12.6026L37.7463 12.056ZM52.696 11.992L54.0747 12.5829L54.0747 12.5829L52.696 11.992ZM52.072 13.08L53.272 13.98L53.2786 13.9712L53.2851 13.9623L52.072 13.08ZM50.264 14.984L49.2419 13.8862L49.2405 13.8874L50.264 14.984ZM49.736 15.496L48.6753 14.4353L48.6753 14.4353L49.736 15.496ZM49.208 16.056L48.0869 15.0595L48.0869 15.0595L49.208 16.056ZM48.744 16.6L47.5798 15.6541L47.5727 15.663L48.744 16.6ZM48.504 17L47.0673 16.569L46.488 18.5H48.504V17ZM53.272 17H54.772V15.5H53.272V17ZM53.272 19V20.5H54.772V19H53.272ZM45.88 19L44.4042 19.2683L44.6281 20.5H45.88V19ZM46.088 16.76L44.6953 16.2029L44.6892 16.2181L44.6835 16.2333L46.088 16.76ZM46.744 15.576L47.9525 16.4646L47.9586 16.4563L47.9646 16.4479L46.744 15.576ZM47.64 14.536L46.6141 13.4417L46.6054 13.4498L46.5969 13.4581L47.64 14.536ZM48.648 13.576L47.6101 12.493L47.6049 12.4981L48.648 13.576ZM49.368 12.888L50.4025 13.9742L50.4157 13.9616L50.4287 13.9487L49.368 12.888ZM49.96 12.248L51.1074 13.2142L51.1195 13.1998L51.1313 13.185L49.96 12.248ZM50.36 11.624L51.7156 12.2661L51.7219 12.2529L51.7279 12.2395L50.36 11.624ZM48.296 9.848L48.7888 11.2647L48.8058 11.2588L48.8227 11.2525L48.296 9.848ZM47.608 10.168L48.3596 11.4661L48.3697 11.4603L48.3797 11.4542L47.608 10.168ZM47.08 10.536L48.0067 11.7155L48.0319 11.6957L48.0562 11.6749L47.08 10.536ZM46.744 10.824L45.5218 11.6936L46.5503 13.139L47.8047 11.8847L46.744 10.824ZM45.56 9.16L44.5374 8.06259L43.5758 8.95866L44.3378 10.0296L45.56 9.16ZM47.192 8.088L47.8056 9.4568L47.8162 9.45196L47.192 8.088ZM50.888 7.88L51.3428 6.45061L51.3428 6.45061L50.888 7.88ZM52.04 8.52L51.0193 9.61919L51.0396 9.63803L51.0606 9.65611L52.04 8.52ZM52.712 9.512L51.2968 10.0092L51.305 10.0326L51.314 10.0557L52.712 9.512ZM52.936 10.824H51.436C51.436 11.0258 51.3974 11.2141 51.3173 11.4011L52.696 11.992L54.0747 12.5829C54.3146 12.0232 54.436 11.4329 54.436 10.824H52.936ZM52.696 11.992L51.3173 11.4011C51.2045 11.6644 51.0537 11.9299 50.8589 12.1977L52.072 13.08L53.2851 13.9623C53.6023 13.5261 53.8675 13.0663 54.0747 12.5829L52.696 11.992ZM52.072 13.08L50.872 12.18C50.6611 12.4612 50.4202 12.7385 50.1473 13.0113L51.208 14.072L52.2687 15.1327C52.6358 14.7655 52.9709 14.3814 53.272 13.98L52.072 13.08ZM51.208 14.072L50.1473 13.0113C49.8391 13.3196 49.5373 13.6111 49.2419 13.8862L50.264 14.984L51.2861 16.0818C51.6094 15.7809 51.9369 15.4644 52.2687 15.1327L51.208 14.072ZM50.264 14.984L49.2405 13.8874C49.0654 14.0509 48.8768 14.2339 48.6753 14.4353L49.736 15.496L50.7967 16.5567C50.9792 16.3741 51.1426 16.2158 51.2875 16.0806L50.264 14.984ZM49.736 15.496L48.6753 14.4353C48.4732 14.6375 48.277 14.8455 48.0869 15.0595L49.208 16.056L50.3291 17.0525C50.4803 16.8825 50.6361 16.7172 50.7967 16.5567L49.736 15.496ZM49.208 16.056L48.0869 15.0595C47.9039 15.2653 47.7346 15.4637 47.5798 15.6541L48.744 16.6L49.9082 17.5459C50.0308 17.395 50.1708 17.2307 50.3291 17.0525L49.208 16.056ZM48.744 16.6L47.5727 15.663C47.4083 15.8685 47.1831 16.1829 47.0673 16.569L48.504 17L49.9407 17.431C49.9244 17.4855 49.9074 17.5254 49.8963 17.5493C49.8849 17.5736 49.8765 17.588 49.8742 17.5917C49.8708 17.5975 49.8809 17.58 49.9153 17.537L48.744 16.6ZM48.504 17V18.5H53.272V17V15.5H48.504V17ZM53.272 17H51.772V19H53.272H54.772V17H53.272ZM53.272 19V17.5H45.88V19V20.5H53.272V19ZM45.88 19L47.3558 18.7317C47.3569 18.7379 47.3546 18.7266 47.3522 18.6931C47.3499 18.6605 47.348 18.6142 47.348 18.552H45.848H44.348C44.348 18.7821 44.3608 19.0295 44.4042 19.2683L45.88 19ZM45.848 18.552H47.348C47.348 18.5516 47.348 18.5513 47.348 18.5509C47.348 18.5506 47.348 18.5502 47.348 18.5499C47.348 18.5495 47.348 18.5492 47.348 18.5488C47.348 18.5485 47.348 18.5481 47.348 18.5478C47.348 18.5474 47.348 18.5471 47.348 18.5467C47.348 18.5464 47.348 18.546 47.348 18.5456C47.348 18.5453 47.348 18.5449 47.348 18.5446C47.348 18.5442 47.348 18.5439 47.348 18.5435C47.348 18.5432 47.348 18.5428 47.348 18.5425C47.348 18.5421 47.348 18.5418 47.348 18.5414C47.348 18.5411 47.348 18.5407 47.348 18.5404C47.348 18.54 47.348 18.5397 47.348 18.5393C47.348 18.539 47.348 18.5386 47.348 18.5383C47.348 18.5379 47.348 18.5376 47.348 18.5372C47.348 18.5369 47.348 18.5365 47.348 18.5362C47.348 18.5359 47.348 18.5355 47.348 18.5352C47.348 18.5348 47.348 18.5345 47.348 18.5341C47.348 18.5338 47.348 18.5334 47.348 18.5331C47.348 18.5327 47.348 18.5324 47.348 18.532C47.348 18.5317 47.348 18.5313 47.348 18.531C47.348 18.5306 47.348 18.5303 47.348 18.53C47.348 18.5296 47.348 18.5293 47.348 18.5289C47.348 18.5286 47.348 18.5282 47.348 18.5279C47.348 18.5275 47.348 18.5272 47.348 18.5269C47.348 18.5265 47.348 18.5262 47.348 18.5258C47.348 18.5255 47.348 18.5251 47.348 18.5248C47.348 18.5244 47.348 18.5241 47.348 18.5238C47.348 18.5234 47.348 18.5231 47.348 18.5227C47.348 18.5224 47.348 18.522 47.348 18.5217C47.348 18.5214 47.348 18.521 47.348 18.5207C47.348 18.5203 47.348 18.52 47.348 18.5196C47.348 18.5193 47.348 18.519 47.348 18.5186C47.348 18.5183 47.348 18.5179 47.348 18.5176C47.348 18.5173 47.348 18.5169 47.348 18.5166C47.348 18.5162 47.348 18.5159 47.348 18.5156C47.348 18.5152 47.348 18.5149 47.348 18.5145C47.348 18.5142 47.348 18.5139 47.348 18.5135C47.348 18.5132 47.348 18.5128 47.348 18.5125C47.348 18.5122 47.348 18.5118 47.348 18.5115C47.348 18.5112 47.348 18.5108 47.348 18.5105C47.348 18.5101 47.348 18.5098 47.348 18.5095C47.348 18.5091 47.348 18.5088 47.348 18.5085C47.348 18.5081 47.348 18.5078 47.348 18.5074C47.348 18.5071 47.348 18.5068 47.348 18.5064C47.348 18.5061 47.348 18.5058 47.348 18.5054C47.348 18.5051 47.348 18.5048 47.348 18.5044C47.348 18.5041 47.348 18.5037 47.348 18.5034C47.348 18.5031 47.348 18.5027 47.348 18.5024C47.348 18.5021 47.348 18.5017 47.348 18.5014C47.348 18.5011 47.348 18.5007 47.348 18.5004C47.348 18.5001 47.348 18.4997 47.348 18.4994C47.348 18.4991 47.348 18.4987 47.348 18.4984C47.348 18.4981 47.348 18.4977 47.348 18.4974C47.348 18.4971 47.348 18.4967 47.348 18.4964C47.348 18.4961 47.348 18.4957 47.348 18.4954C47.348 18.4951 47.348 18.4947 47.348 18.4944C47.348 18.4941 47.348 18.4938 47.348 18.4934C47.348 18.4931 47.348 18.4928 47.348 18.4924C47.348 18.4921 47.348 18.4918 47.348 18.4914C47.348 18.4911 47.348 18.4908 47.348 18.4904C47.348 18.4901 47.348 18.4898 47.348 18.4895C47.348 18.4891 47.348 18.4888 47.348 18.4885C47.348 18.4881 47.348 18.4878 47.348 18.4875C47.348 18.4872 47.348 18.4868 47.348 18.4865C47.348 18.4862 47.348 18.4858 47.348 18.4855C47.348 18.4852 47.348 18.4849 47.348 18.4845C47.348 18.4842 47.348 18.4839 47.348 18.4836C47.348 18.4832 47.348 18.4829 47.348 18.4826C47.348 18.4822 47.348 18.4819 47.348 18.4816C47.348 18.4813 47.348 18.4809 47.348 18.4806C47.348 18.4803 47.348 18.48 47.348 18.4796C47.348 18.4793 47.348 18.479 47.348 18.4787C47.348 18.4783 47.348 18.478 47.348 18.4777C47.348 18.4774 47.348 18.477 47.348 18.4767C47.348 18.4764 47.348 18.4761 47.348 18.4757C47.348 18.4754 47.348 18.4751 47.348 18.4748C47.348 18.4745 47.348 18.4741 47.348 18.4738C47.348 18.4735 47.348 18.4732 47.348 18.4728C47.348 18.4725 47.348 18.4722 47.348 18.4719C47.348 18.4715 47.348 18.4712 47.348 18.4709C47.348 18.4706 47.348 18.4703 47.348 18.4699C47.348 18.4696 47.348 18.4693 47.348 18.469C47.348 18.4687 47.348 18.4683 47.348 18.468C47.348 18.4677 47.348 18.4674 47.348 18.4671C47.348 18.4667 47.348 18.4664 47.348 18.4661C47.348 18.4658 47.348 18.4655 47.348 18.4651C47.348 18.4648 47.348 18.4645 47.348 18.4642C47.348 18.4639 47.348 18.4635 47.348 18.4632C47.348 18.4629 47.348 18.4626 47.348 18.4623C47.348 18.462 47.348 18.4616 47.348 18.4613C47.348 18.461 47.348 18.4607 47.348 18.4604C47.348 18.46 47.348 18.4597 47.348 18.4594C47.348 18.4591 47.348 18.4588 47.348 18.4585C47.348 18.4582 47.348 18.4578 47.348 18.4575C47.348 18.4572 47.348 18.4569 47.348 18.4566C47.348 18.4563 47.348 18.4559 47.348 18.4556C47.348 18.4553 47.348 18.455 47.348 18.4547C47.348 18.4544 47.348 18.4541 47.348 18.4537C47.348 18.4534 47.348 18.4531 47.348 18.4528C47.348 18.4525 47.348 18.4522 47.348 18.4519C47.348 18.4515 47.348 18.4512 47.348 18.4509C47.348 18.4506 47.348 18.4503 47.348 18.45C47.348 18.4497 47.348 18.4493 47.348 18.449C47.348 18.4487 47.348 18.4484 47.348 18.4481C47.348 18.4478 47.348 18.4475 47.348 18.4472C47.348 18.4469 47.348 18.4465 47.348 18.4462C47.348 18.4459 47.348 18.4456 47.348 18.4453C47.348 18.445 47.348 18.4447 47.348 18.4444C47.348 18.4441 47.348 18.4437 47.348 18.4434C47.348 18.4431 47.348 18.4428 47.348 18.4425C47.348 18.4422 47.348 18.4419 47.348 18.4416C47.348 18.4413 47.348 18.441 47.348 18.4407C47.348 18.4403 47.348 18.44 47.348 18.4397C47.348 18.4394 47.348 18.4391 47.348 18.4388C47.348 18.4385 47.348 18.4382 47.348 18.4379C47.348 18.4376 47.348 18.4373 47.348 18.437C47.348 18.4367 47.348 18.4363 47.348 18.436C47.348 18.4357 47.348 18.4354 47.348 18.4351C47.348 18.4348 47.348 18.4345 47.348 18.4342C47.348 18.4339 47.348 18.4336 47.348 18.4333C47.348 18.433 47.348 18.4327 47.348 18.4324C47.348 18.4321 47.348 18.4318 47.348 18.4315C47.348 18.4312 47.348 18.4309 47.348 18.4305C47.348 18.4302 47.348 18.4299 47.348 18.4296C47.348 18.4293 47.348 18.429 47.348 18.4287C47.348 18.4284 47.348 18.4281 47.348 18.4278C47.348 18.4275 47.348 18.4272 47.348 18.4269C47.348 18.4266 47.348 18.4263 47.348 18.426C47.348 18.4257 47.348 18.4254 47.348 18.4251C47.348 18.4248 47.348 18.4245 47.348 18.4242C47.348 18.4239 47.348 18.4236 47.348 18.4233C47.348 18.423 47.348 18.4227 47.348 18.4224C47.348 18.4221 47.348 18.4218 47.348 18.4215C47.348 18.4212 47.348 18.4209 47.348 18.4206C47.348 18.4203 47.348 18.42 47.348 18.4197C47.348 18.4194 47.348 18.4191 47.348 18.4188C47.348 18.4185 47.348 18.4182 47.348 18.4179C47.348 18.4176 47.348 18.4173 47.348 18.417C47.348 18.4167 47.348 18.4164 47.348 18.4161C47.348 18.4158 47.348 18.4155 47.348 18.4152C47.348 18.4149 47.348 18.4146 47.348 18.4143C47.348 18.414 47.348 18.4137 47.348 18.4134C47.348 18.4131 47.348 18.4128 47.348 18.4125C47.348 18.4122 47.348 18.412 47.348 18.4117C47.348 18.4114 47.348 18.4111 47.348 18.4108C47.348 18.4105 47.348 18.4102 47.348 18.4099C47.348 18.4096 47.348 18.4093 47.348 18.409C47.348 18.4087 47.348 18.4084 47.348 18.4081C47.348 18.4078 47.348 18.4075 47.348 18.4072C47.348 18.4069 47.348 18.4067 47.348 18.4064C47.348 18.4061 47.348 18.4058 47.348 18.4055C47.348 18.4052 47.348 18.4049 47.348 18.4046C47.348 18.4043 47.348 18.404 47.348 18.4037C47.348 18.4034 47.348 18.4031 47.348 18.4029C47.348 18.4026 47.348 18.4023 47.348 18.402C47.348 18.4017 47.348 18.4014 47.348 18.4011C47.348 18.4008 47.348 18.4005 47.348 18.4002C47.348 18.3999 47.348 18.3997 47.348 18.3994C47.348 18.3991 47.348 18.3988 47.348 18.3985C47.348 18.3982 47.348 18.3979 47.348 18.3976C47.348 18.3973 47.348 18.397 47.348 18.3968C47.348 18.3965 47.348 18.3962 47.348 18.3959C47.348 18.3956 47.348 18.3953 47.348 18.395C47.348 18.3947 47.348 18.3945 47.348 18.3942C47.348 18.3939 47.348 18.3936 47.348 18.3933C47.348 18.393 47.348 18.3927 47.348 18.3924C47.348 18.3922 47.348 18.3919 47.348 18.3916C47.348 18.3913 47.348 18.391 47.348 18.3907C47.348 18.3904 47.348 18.3902 47.348 18.3899C47.348 18.3896 47.348 18.3893 47.348 18.389C47.348 18.3887 47.348 18.3884 47.348 18.3882C47.348 18.3879 47.348 18.3876 47.348 18.3873C47.348 18.387 47.348 18.3867 47.348 18.3865C47.348 18.3862 47.348 18.3859 47.348 18.3856C47.348 18.3853 47.348 18.385 47.348 18.3848C47.348 18.3845 47.348 18.3842 47.348 18.3839C47.348 18.3836 47.348 18.3833 47.348 18.3831C47.348 18.3828 47.348 18.3825 47.348 18.3822C47.348 18.3819 47.348 18.3817 47.348 18.3814C47.348 18.3811 47.348 18.3808 47.348 18.3805C47.348 18.3802 47.348 18.38 47.348 18.3797C47.348 18.3794 47.348 18.3791 47.348 18.3788C47.348 18.3786 47.348 18.3783 47.348 18.378C47.348 18.3777 47.348 18.3774 47.348 18.3772C47.348 18.3769 47.348 18.3766 47.348 18.3763C47.348 18.376 47.348 18.3758 47.348 18.3755C47.348 18.3752 47.348 18.3749 47.348 18.3747C47.348 18.3744 47.348 18.3741 47.348 18.3738C47.348 18.3735 47.348 18.3733 47.348 18.373C47.348 18.3727 47.348 18.3724 47.348 18.3722C47.348 18.3719 47.348 18.3716 47.348 18.3713C47.348 18.3711 47.348 18.3708 47.348 18.3705C47.348 18.3702 47.348 18.3699 47.348 18.3697C47.348 18.3694 47.348 18.3691 47.348 18.3688C47.348 18.3686 47.348 18.3683 47.348 18.368C47.348 18.3677 47.348 18.3675 47.348 18.3672C47.348 18.3669 47.348 18.3666 47.348 18.3664C47.348 18.3661 47.348 18.3658 47.348 18.3656C47.348 18.3653 47.348 18.365 47.348 18.3647C47.348 18.3645 47.348 18.3642 47.348 18.3639C47.348 18.3636 47.348 18.3634 47.348 18.3631C47.348 18.3628 47.348 18.3626 47.348 18.3623C47.348 18.362 47.348 18.3617 47.348 18.3615C47.348 18.3612 47.348 18.3609 47.348 18.3607C47.348 18.3604 47.348 18.3601 47.348 18.3598C47.348 18.3596 47.348 18.3593 47.348 18.359C47.348 18.3588 47.348 18.3585 47.348 18.3582C47.348 18.3579 47.348 18.3577 47.348 18.3574C47.348 18.3571 47.348 18.3569 47.348 18.3566C47.348 18.3563 47.348 18.3561 47.348 18.3558C47.348 18.3555 47.348 18.3553 47.348 18.355C47.348 18.3547 47.348 18.3544 47.348 18.3542C47.348 18.3539 47.348 18.3536 47.348 18.3534C47.348 18.3531 47.348 18.3528 47.348 18.3526C47.348 18.3523 47.348 18.352 47.348 18.3518C47.348 18.3515 47.348 18.3512 47.348 18.351C47.348 18.3507 47.348 18.3504 47.348 18.3502C47.348 18.3499 47.348 18.3496 47.348 18.3494C47.348 18.3491 47.348 18.3489 47.348 18.3486C47.348 18.3483 47.348 18.3481 47.348 18.3478C47.348 18.3475 47.348 18.3473 47.348 18.347C47.348 18.3467 47.348 18.3465 47.348 18.3462C47.348 18.3459 47.348 18.3457 47.348 18.3454C47.348 18.3452 47.348 18.3449 47.348 18.3446C47.348 18.3444 47.348 18.3441 47.348 18.3438C47.348 18.3436 47.348 18.3433 47.348 18.343C47.348 18.3428 47.348 18.3425 47.348 18.3423C47.348 18.342 47.348 18.3417 47.348 18.3415C47.348 18.3412 47.348 18.341 47.348 18.3407C47.348 18.3404 47.348 18.3402 47.348 18.3399C47.348 18.3397 47.348 18.3394 47.348 18.3391C47.348 18.3389 47.348 18.3386 47.348 18.3384C47.348 18.3381 47.348 18.3378 47.348 18.3376C47.348 18.3373 47.348 18.3371 47.348 18.3368C47.348 18.3365 47.348 18.3363 47.348 18.336C47.348 18.3358 47.348 18.3355 47.348 18.3352C47.348 18.335 47.348 18.3347 47.348 18.3345C47.348 18.3342 47.348 18.334 47.348 18.3337C47.348 18.3334 47.348 18.3332 47.348 18.3329C47.348 18.3327 47.348 18.3324 47.348 18.3322C47.348 18.3319 47.348 18.3316 47.348 18.3314C47.348 18.3311 47.348 18.3309 47.348 18.3306C47.348 18.3304 47.348 18.3301 47.348 18.3299C47.348 18.3296 47.348 18.3293 47.348 18.3291C47.348 18.3288 47.348 18.3286 47.348 18.3283C47.348 18.3281 47.348 18.3278 47.348 18.3276C47.348 18.3273 47.348 18.3271 47.348 18.3268C47.348 18.3265 47.348 18.3263 47.348 18.326C47.348 18.3258 47.348 18.3255 47.348 18.3253C47.348 18.325 47.348 18.3248 47.348 18.3245C47.348 18.3243 47.348 18.324 47.348 18.3238C47.348 18.3235 47.348 18.3233 47.348 18.323C47.348 18.3228 47.348 18.3225 47.348 18.3223C47.348 18.322 47.348 18.3218 47.348 18.3215C47.348 18.3213 47.348 18.321 47.348 18.3208C47.348 18.3205 47.348 18.3202 47.348 18.32C47.348 18.3197 47.348 18.3195 47.348 18.3193C47.348 18.319 47.348 18.3188 47.348 18.3185C47.348 18.3183 47.348 18.318 47.348 18.3178C47.348 18.3175 47.348 18.3173 47.348 18.317C47.348 18.3168 47.348 18.3165 47.348 18.3163C47.348 18.316 47.348 18.3158 47.348 18.3155C47.348 18.3153 47.348 18.315 47.348 18.3148C47.348 18.3145 47.348 18.3143 47.348 18.314C47.348 18.3138 47.348 18.3135 47.348 18.3133C47.348 18.3131 47.348 18.3128 47.348 18.3126C47.348 18.3123 47.348 18.3121 47.348 18.3118C47.348 18.3116 47.348 18.3113 47.348 18.3111C47.348 18.3108 47.348 18.3106 47.348 18.3104C47.348 18.3101 47.348 18.3099 47.348 18.3096C47.348 18.3094 47.348 18.3091 47.348 18.3089C47.348 18.3086 47.348 18.3084 47.348 18.3082C47.348 18.3079 47.348 18.3077 47.348 18.3074C47.348 18.3072 47.348 18.3069 47.348 18.3067C47.348 18.3065 47.348 18.3062 47.348 18.306C47.348 18.3057 47.348 18.3055 47.348 18.3052C47.348 18.305 47.348 18.3048 47.348 18.3045C47.348 18.3043 47.348 18.304 47.348 18.3038C47.348 18.3036 47.348 18.3033 47.348 18.3031C47.348 18.3028 47.348 18.3026 47.348 18.3024C47.348 18.3021 47.348 18.3019 47.348 18.3016C47.348 18.3014 47.348 18.3012 47.348 18.3009C47.348 18.3007 47.348 18.3004 47.348 18.3002C47.348 18.3 47.348 18.2997 47.348 18.2995C47.348 18.2992 47.348 18.299 47.348 18.2988C47.348 18.2985 47.348 18.2983 47.348 18.298C47.348 18.2978 47.348 18.2976 47.348 18.2973C47.348 18.2971 47.348 18.2969 47.348 18.2966C47.348 18.2964 47.348 18.2962 47.348 18.2959C47.348 18.2957 47.348 18.2954 47.348 18.2952C47.348 18.295 47.348 18.2947 47.348 18.2945C47.348 18.2943 47.348 18.294 47.348 18.2938C47.348 18.2936 47.348 18.2933 47.348 18.2931C47.348 18.2929 47.348 18.2926 47.348 18.2924C47.348 18.2921 47.348 18.2919 47.348 18.2917C47.348 18.2914 47.348 18.2912 47.348 18.291C47.348 18.2907 47.348 18.2905 47.348 18.2903C47.348 18.29 47.348 18.2898 47.348 18.2896C47.348 18.2893 47.348 18.2891 47.348 18.2889C47.348 18.2886 47.348 18.2884 47.348 18.2882C47.348 18.2879 47.348 18.2877 47.348 18.2875C47.348 18.2873 47.348 18.287 47.348 18.2868C47.348 18.2866 47.348 18.2863 47.348 18.2861C47.348 18.2859 47.348 18.2856 47.348 18.2854C47.348 18.2852 47.348 18.2849 47.348 18.2847C47.348 18.2845 47.348 18.2843 47.348 18.284C47.348 18.2838 47.348 18.2836 47.348 18.2833C47.348 18.2831 47.348 18.2829 47.348 18.2827C47.348 18.2824 47.348 18.2822 47.348 18.282C47.348 18.2817 47.348 18.2815 47.348 18.2813C47.348 18.2811 47.348 18.2808 47.348 18.2806C47.348 18.2804 47.348 18.2801 47.348 18.2799C47.348 18.2797 47.348 18.2795 47.348 18.2792C47.348 18.279 47.348 18.2788 47.348 18.2786C47.348 18.2783 47.348 18.2781 47.348 18.2779C47.348 18.2776 47.348 18.2774 47.348 18.2772C47.348 18.277 47.348 18.2767 47.348 18.2765C47.348 18.2763 47.348 18.2761 47.348 18.2758C47.348 18.2756 47.348 18.2754 47.348 18.2752C47.348 18.2749 47.348 18.2747 47.348 18.2745C47.348 18.2743 47.348 18.2741 47.348 18.2738C47.348 18.2736 47.348 18.2734 47.348 18.2732C47.348 18.2729 47.348 18.2727 47.348 18.2725C47.348 18.2723 47.348 18.272 47.348 18.2718C47.348 18.2716 47.348 18.2714 47.348 18.2712C47.348 18.2709 47.348 18.2707 47.348 18.2705C47.348 18.2703 47.348 18.27 47.348 18.2698C47.348 18.2696 47.348 18.2694 47.348 18.2692C47.348 18.2689 47.348 18.2687 47.348 18.2685C47.348 18.2683 47.348 18.2681 47.348 18.2678C47.348 18.2676 47.348 18.2674 47.348 18.2672C47.348 18.267 47.348 18.2667 47.348 18.2665C47.348 18.2663 47.348 18.2661 47.348 18.2659C47.348 18.2657 47.348 18.2654 47.348 18.2652C47.348 18.265 47.348 18.2648 47.348 18.2646C47.348 18.2643 47.348 18.2641 47.348 18.2639C47.348 18.2637 47.348 18.2635 47.348 18.2633C47.348 18.263 47.348 18.2628 47.348 18.2626C47.348 18.2624 47.348 18.2622 47.348 18.262C47.348 18.2617 47.348 18.2615 47.348 18.2613C47.348 18.2611 47.348 18.2609 47.348 18.2607C47.348 18.2604 47.348 18.2602 47.348 18.26C47.348 18.2598 47.348 18.2596 47.348 18.2594C47.348 18.2592 47.348 18.2589 47.348 18.2587C47.348 18.2585 47.348 18.2583 47.348 18.2581C47.348 18.2579 47.348 18.2577 47.348 18.2574C47.348 18.2572 47.348 18.257 47.348 18.2568C47.348 18.2566 47.348 18.2564 47.348 18.2562C47.348 18.256 47.348 18.2557 47.348 18.2555C47.348 18.2553 47.348 18.2551 47.348 18.2549C47.348 18.2547 47.348 18.2545 47.348 18.2543C47.348 18.254 47.348 18.2538 47.348 18.2536C47.348 18.2534 47.348 18.2532 47.348 18.253C47.348 18.2528 47.348 18.2526 47.348 18.2524C47.348 18.2522 47.348 18.2519 47.348 18.2517C47.348 18.2515 47.348 18.2513 47.348 18.2511C47.348 18.2509 47.348 18.2507 47.348 18.2505C47.348 18.2503 47.348 18.2501 47.348 18.2499C47.348 18.2496 47.348 18.2494 47.348 18.2492C47.348 18.249 47.348 18.2488 47.348 18.2486C47.348 18.2484 47.348 18.2482 47.348 18.248C47.348 18.2478 47.348 18.2476 47.348 18.2474C47.348 18.2472 47.348 18.2469 47.348 18.2467C47.348 18.2465 47.348 18.2463 47.348 18.2461C47.348 18.2459 47.348 18.2457 47.348 18.2455C47.348 18.2453 47.348 18.2451 47.348 18.2449C47.348 18.2447 47.348 18.2445 47.348 18.2443C47.348 18.2441 47.348 18.2439 47.348 18.2437C47.348 18.2435 47.348 18.2432 47.348 18.243C47.348 18.2428 47.348 18.2426 47.348 18.2424C47.348 18.2422 47.348 18.242 47.348 18.2418C47.348 18.2416 47.348 18.2414 47.348 18.2412C47.348 18.241 47.348 18.2408 47.348 18.2406C47.348 18.2404 47.348 18.2402 47.348 18.24C47.348 18.2398 47.348 18.2396 47.348 18.2394C47.348 18.2392 47.348 18.239 47.348 18.2388C47.348 18.2386 47.348 18.2384 47.348 18.2382C47.348 18.238 47.348 18.2378 47.348 18.2376C47.348 18.2374 47.348 18.2372 47.348 18.237C47.348 18.2368 47.348 18.2366 47.348 18.2364C47.348 18.2362 47.348 18.236 47.348 18.2358C47.348 18.2356 47.348 18.2354 47.348 18.2352C47.348 18.235 47.348 18.2348 47.348 18.2346C47.348 18.2344 47.348 18.2342 47.348 18.234C47.348 18.2338 47.348 18.2336 47.348 18.2334C47.348 18.2332 47.348 18.233 47.348 18.2328C47.348 18.2326 47.348 18.2324 47.348 18.2322C47.348 18.232 47.348 18.2318 47.348 18.2316C47.348 18.2314 47.348 18.2312 47.348 18.231C47.348 18.2309 47.348 18.2307 47.348 18.2305C47.348 18.2303 47.348 18.2301 47.348 18.2299C47.348 18.2297 47.348 18.2295 47.348 18.2293C47.348 18.2291 47.348 18.2289 47.348 18.2287C47.348 18.2285 47.348 18.2283 47.348 18.2281C47.348 18.2279 47.348 18.2277 47.348 18.2275C47.348 18.2273 47.348 18.2272 47.348 18.227C47.348 18.2268 47.348 18.2266 47.348 18.2264C47.348 18.2262 47.348 18.226 47.348 18.2258C47.348 18.2256 47.348 18.2254 47.348 18.2252C47.348 18.225 47.348 18.2248 47.348 18.2247C47.348 18.2245 47.348 18.2243 47.348 18.2241C47.348 18.2239 47.348 18.2237 47.348 18.2235C47.348 18.2233 47.348 18.2231 47.348 18.2229C47.348 18.2227 47.348 18.2226 47.348 18.2224C47.348 18.2222 47.348 18.222 47.348 18.2218C47.348 18.2216 47.348 18.2214 47.348 18.2212C47.348 18.221 47.348 18.2209 47.348 18.2207C47.348 18.2205 47.348 18.2203 47.348 18.2201C47.348 18.2199 47.348 18.2197 47.348 18.2195C47.348 18.2193 47.348 18.2192 47.348 18.219C47.348 18.2188 47.348 18.2186 47.348 18.2184C47.348 18.2182 47.348 18.218 47.348 18.2179C47.348 18.2177 47.348 18.2175 47.348 18.2173C47.348 18.2171 47.348 18.2169 47.348 18.2167C47.348 18.2166 47.348 18.2164 47.348 18.2162C47.348 18.216 47.348 18.2158 47.348 18.2156C47.348 18.2154 47.348 18.2153 47.348 18.2151C47.348 18.2149 47.348 18.2147 47.348 18.2145C47.348 18.2143 47.348 18.2142 47.348 18.214C47.348 18.2138 47.348 18.2136 47.348 18.2134C47.348 18.2132 47.348 18.213 47.348 18.2129C47.348 18.2127 47.348 18.2125 47.348 18.2123C47.348 18.2121 47.348 18.212 47.348 18.2118C47.348 18.2116 47.348 18.2114 47.348 18.2112C47.348 18.211 47.348 18.2109 47.348 18.2107C47.348 18.2105 47.348 18.2103 47.348 18.2101C47.348 18.21 47.348 18.2098 47.348 18.2096C47.348 18.2094 47.348 18.2092 47.348 18.2091C47.348 18.2089 47.348 18.2087 47.348 18.2085C47.348 18.2083 47.348 18.2082 47.348 18.208C47.348 18.2078 47.348 18.2076 47.348 18.2074C47.348 18.2073 47.348 18.2071 47.348 18.2069C47.348 18.2067 47.348 18.2065 47.348 18.2064C47.348 18.2062 47.348 18.206 47.348 18.2058C47.348 18.2057 47.348 18.2055 47.348 18.2053C47.348 18.2051 47.348 18.205 47.348 18.2048C47.348 18.2046 47.348 18.2044 47.348 18.2042C47.348 18.2041 47.348 18.2039 47.348 18.2037C47.348 18.2035 47.348 18.2034 47.348 18.2032C47.348 18.203 47.348 18.2028 47.348 18.2027C47.348 18.2025 47.348 18.2023 47.348 18.2021C47.348 18.202 47.348 18.2018 47.348 18.2016C47.348 18.2014 47.348 18.2013 47.348 18.2011C47.348 18.2009 47.348 18.2007 47.348 18.2006C47.348 18.2004 47.348 18.2002 47.348 18.2001C47.348 18.1999 47.348 18.1997 47.348 18.1995C47.348 18.1994 47.348 18.1992 47.348 18.199C47.348 18.1988 47.348 18.1987 47.348 18.1985C47.348 18.1983 47.348 18.1982 47.348 18.198C47.348 18.1978 47.348 18.1976 47.348 18.1975C47.348 18.1973 47.348 18.1971 47.348 18.197C47.348 18.1968 47.348 18.1966 47.348 18.1964C47.348 18.1963 47.348 18.1961 47.348 18.1959C47.348 18.1958 47.348 18.1956 47.348 18.1954C47.348 18.1953 47.348 18.1951 47.348 18.1949C47.348 18.1948 47.348 18.1946 47.348 18.1944C47.348 18.1942 47.348 18.1941 47.348 18.1939C47.348 18.1937 47.348 18.1936 47.348 18.1934C47.348 18.1932 47.348 18.1931 47.348 18.1929C47.348 18.1927 47.348 18.1926 47.348 18.1924C47.348 18.1922 47.348 18.1921 47.348 18.1919C47.348 18.1917 47.348 18.1916 47.348 18.1914C47.348 18.1912 47.348 18.1911 47.348 18.1909C47.348 18.1907 47.348 18.1906 47.348 18.1904C47.348 18.1902 47.348 18.1901 47.348 18.1899C47.348 18.1897 47.348 18.1896 47.348 18.1894C47.348 18.1893 47.348 18.1891 47.348 18.1889C47.348 18.1888 47.348 18.1886 47.348 18.1884C47.348 18.1883 47.348 18.1881 47.348 18.1879C47.348 18.1878 47.348 18.1876 47.348 18.1875C47.348 18.1873 47.348 18.1871 47.348 18.187C47.348 18.1868 47.348 18.1866 47.348 18.1865C47.348 18.1863 47.348 18.1862 47.348 18.186C47.348 18.1858 47.348 18.1857 47.348 18.1855C47.348 18.1853 47.348 18.1852 47.348 18.185C47.348 18.1849 47.348 18.1847 47.348 18.1845C47.348 18.1844 47.348 18.1842 47.348 18.1841C47.348 18.1839 47.348 18.1837 47.348 18.1836C47.348 18.1834 47.348 18.1833 47.348 18.1831C47.348 18.1829 47.348 18.1828 47.348 18.1826C47.348 18.1825 47.348 18.1823 47.348 18.1821C47.348 18.182 47.348 18.1818 47.348 18.1817C47.348 18.1815 47.348 18.1814 47.348 18.1812C47.348 18.181 47.348 18.1809 47.348 18.1807C47.348 18.1806 47.348 18.1804 47.348 18.1803C47.348 18.1801 47.348 18.1799 47.348 18.1798C47.348 18.1796 47.348 18.1795 47.348 18.1793C47.348 18.1792 47.348 18.179 47.348 18.1789C47.348 18.1787 47.348 18.1785 47.348 18.1784C47.348 18.1782 47.348 18.1781 47.348 18.1779C47.348 18.1778 47.348 18.1776 47.348 18.1775C47.348 18.1773 47.348 18.1771 47.348 18.177C47.348 18.1768 47.348 18.1767 47.348 18.1765C47.348 18.1764 47.348 18.1762 47.348 18.1761C47.348 18.1759 47.348 18.1758 47.348 18.1756C47.348 18.1755 47.348 18.1753 47.348 18.1752C47.348 18.175 47.348 18.1749 47.348 18.1747C47.348 18.1745 47.348 18.1744 47.348 18.1742C47.348 18.1741 47.348 18.1739 47.348 18.1738C47.348 18.1736 47.348 18.1735 47.348 18.1733C47.348 18.1732 47.348 18.173 47.348 18.1729C47.348 18.1727 47.348 18.1726 47.348 18.1724C47.348 18.1723 47.348 18.1721 47.348 18.172C47.348 18.1718 47.348 18.1717 47.348 18.1715C47.348 18.1714 47.348 18.1712 47.348 18.1711C47.348 18.1709 47.348 18.1708 47.348 18.1706C47.348 18.1705 47.348 18.1704 47.348 18.1702C47.348 18.1701 47.348 18.1699 47.348 18.1698C47.348 18.1696 47.348 18.1695 47.348 18.1693C47.348 18.1692 47.348 18.169 47.348 18.1689C47.348 18.1687 47.348 18.1686 47.348 18.1684C47.348 18.1683 47.348 18.1681 47.348 18.168H45.848H44.348C44.348 18.1681 44.348 18.1683 44.348 18.1684C44.348 18.1686 44.348 18.1687 44.348 18.1689C44.348 18.169 44.348 18.1692 44.348 18.1693C44.348 18.1695 44.348 18.1696 44.348 18.1698C44.348 18.1699 44.348 18.1701 44.348 18.1702C44.348 18.1704 44.348 18.1705 44.348 18.1706C44.348 18.1708 44.348 18.1709 44.348 18.1711C44.348 18.1712 44.348 18.1714 44.348 18.1715C44.348 18.1717 44.348 18.1718 44.348 18.172C44.348 18.1721 44.348 18.1723 44.348 18.1724C44.348 18.1726 44.348 18.1727 44.348 18.1729C44.348 18.173 44.348 18.1732 44.348 18.1733C44.348 18.1735 44.348 18.1736 44.348 18.1738C44.348 18.1739 44.348 18.1741 44.348 18.1742C44.348 18.1744 44.348 18.1745 44.348 18.1747C44.348 18.1749 44.348 18.175 44.348 18.1752C44.348 18.1753 44.348 18.1755 44.348 18.1756C44.348 18.1758 44.348 18.1759 44.348 18.1761C44.348 18.1762 44.348 18.1764 44.348 18.1765C44.348 18.1767 44.348 18.1768 44.348 18.177C44.348 18.1771 44.348 18.1773 44.348 18.1775C44.348 18.1776 44.348 18.1778 44.348 18.1779C44.348 18.1781 44.348 18.1782 44.348 18.1784C44.348 18.1785 44.348 18.1787 44.348 18.1789C44.348 18.179 44.348 18.1792 44.348 18.1793C44.348 18.1795 44.348 18.1796 44.348 18.1798C44.348 18.1799 44.348 18.1801 44.348 18.1803C44.348 18.1804 44.348 18.1806 44.348 18.1807C44.348 18.1809 44.348 18.181 44.348 18.1812C44.348 18.1814 44.348 18.1815 44.348 18.1817C44.348 18.1818 44.348 18.182 44.348 18.1821C44.348 18.1823 44.348 18.1825 44.348 18.1826C44.348 18.1828 44.348 18.1829 44.348 18.1831C44.348 18.1833 44.348 18.1834 44.348 18.1836C44.348 18.1837 44.348 18.1839 44.348 18.1841C44.348 18.1842 44.348 18.1844 44.348 18.1845C44.348 18.1847 44.348 18.1849 44.348 18.185C44.348 18.1852 44.348 18.1853 44.348 18.1855C44.348 18.1857 44.348 18.1858 44.348 18.186C44.348 18.1862 44.348 18.1863 44.348 18.1865C44.348 18.1866 44.348 18.1868 44.348 18.187C44.348 18.1871 44.348 18.1873 44.348 18.1875C44.348 18.1876 44.348 18.1878 44.348 18.1879C44.348 18.1881 44.348 18.1883 44.348 18.1884C44.348 18.1886 44.348 18.1888 44.348 18.1889C44.348 18.1891 44.348 18.1893 44.348 18.1894C44.348 18.1896 44.348 18.1897 44.348 18.1899C44.348 18.1901 44.348 18.1902 44.348 18.1904C44.348 18.1906 44.348 18.1907 44.348 18.1909C44.348 18.1911 44.348 18.1912 44.348 18.1914C44.348 18.1916 44.348 18.1917 44.348 18.1919C44.348 18.1921 44.348 18.1922 44.348 18.1924C44.348 18.1926 44.348 18.1927 44.348 18.1929C44.348 18.1931 44.348 18.1932 44.348 18.1934C44.348 18.1936 44.348 18.1937 44.348 18.1939C44.348 18.1941 44.348 18.1942 44.348 18.1944C44.348 18.1946 44.348 18.1948 44.348 18.1949C44.348 18.1951 44.348 18.1953 44.348 18.1954C44.348 18.1956 44.348 18.1958 44.348 18.1959C44.348 18.1961 44.348 18.1963 44.348 18.1964C44.348 18.1966 44.348 18.1968 44.348 18.197C44.348 18.1971 44.348 18.1973 44.348 18.1975C44.348 18.1976 44.348 18.1978 44.348 18.198C44.348 18.1982 44.348 18.1983 44.348 18.1985C44.348 18.1987 44.348 18.1988 44.348 18.199C44.348 18.1992 44.348 18.1994 44.348 18.1995C44.348 18.1997 44.348 18.1999 44.348 18.2001C44.348 18.2002 44.348 18.2004 44.348 18.2006C44.348 18.2007 44.348 18.2009 44.348 18.2011C44.348 18.2013 44.348 18.2014 44.348 18.2016C44.348 18.2018 44.348 18.202 44.348 18.2021C44.348 18.2023 44.348 18.2025 44.348 18.2027C44.348 18.2028 44.348 18.203 44.348 18.2032C44.348 18.2034 44.348 18.2035 44.348 18.2037C44.348 18.2039 44.348 18.2041 44.348 18.2042C44.348 18.2044 44.348 18.2046 44.348 18.2048C44.348 18.205 44.348 18.2051 44.348 18.2053C44.348 18.2055 44.348 18.2057 44.348 18.2058C44.348 18.206 44.348 18.2062 44.348 18.2064C44.348 18.2065 44.348 18.2067 44.348 18.2069C44.348 18.2071 44.348 18.2073 44.348 18.2074C44.348 18.2076 44.348 18.2078 44.348 18.208C44.348 18.2082 44.348 18.2083 44.348 18.2085C44.348 18.2087 44.348 18.2089 44.348 18.2091C44.348 18.2092 44.348 18.2094 44.348 18.2096C44.348 18.2098 44.348 18.21 44.348 18.2101C44.348 18.2103 44.348 18.2105 44.348 18.2107C44.348 18.2109 44.348 18.211 44.348 18.2112C44.348 18.2114 44.348 18.2116 44.348 18.2118C44.348 18.212 44.348 18.2121 44.348 18.2123C44.348 18.2125 44.348 18.2127 44.348 18.2129C44.348 18.213 44.348 18.2132 44.348 18.2134C44.348 18.2136 44.348 18.2138 44.348 18.214C44.348 18.2142 44.348 18.2143 44.348 18.2145C44.348 18.2147 44.348 18.2149 44.348 18.2151C44.348 18.2153 44.348 18.2154 44.348 18.2156C44.348 18.2158 44.348 18.216 44.348 18.2162C44.348 18.2164 44.348 18.2166 44.348 18.2167C44.348 18.2169 44.348 18.2171 44.348 18.2173C44.348 18.2175 44.348 18.2177 44.348 18.2179C44.348 18.218 44.348 18.2182 44.348 18.2184C44.348 18.2186 44.348 18.2188 44.348 18.219C44.348 18.2192 44.348 18.2193 44.348 18.2195C44.348 18.2197 44.348 18.2199 44.348 18.2201C44.348 18.2203 44.348 18.2205 44.348 18.2207C44.348 18.2209 44.348 18.221 44.348 18.2212C44.348 18.2214 44.348 18.2216 44.348 18.2218C44.348 18.222 44.348 18.2222 44.348 18.2224C44.348 18.2226 44.348 18.2227 44.348 18.2229C44.348 18.2231 44.348 18.2233 44.348 18.2235C44.348 18.2237 44.348 18.2239 44.348 18.2241C44.348 18.2243 44.348 18.2245 44.348 18.2247C44.348 18.2248 44.348 18.225 44.348 18.2252C44.348 18.2254 44.348 18.2256 44.348 18.2258C44.348 18.226 44.348 18.2262 44.348 18.2264C44.348 18.2266 44.348 18.2268 44.348 18.227C44.348 18.2272 44.348 18.2273 44.348 18.2275C44.348 18.2277 44.348 18.2279 44.348 18.2281C44.348 18.2283 44.348 18.2285 44.348 18.2287C44.348 18.2289 44.348 18.2291 44.348 18.2293C44.348 18.2295 44.348 18.2297 44.348 18.2299C44.348 18.2301 44.348 18.2303 44.348 18.2305C44.348 18.2307 44.348 18.2309 44.348 18.231C44.348 18.2312 44.348 18.2314 44.348 18.2316C44.348 18.2318 44.348 18.232 44.348 18.2322C44.348 18.2324 44.348 18.2326 44.348 18.2328C44.348 18.233 44.348 18.2332 44.348 18.2334C44.348 18.2336 44.348 18.2338 44.348 18.234C44.348 18.2342 44.348 18.2344 44.348 18.2346C44.348 18.2348 44.348 18.235 44.348 18.2352C44.348 18.2354 44.348 18.2356 44.348 18.2358C44.348 18.236 44.348 18.2362 44.348 18.2364C44.348 18.2366 44.348 18.2368 44.348 18.237C44.348 18.2372 44.348 18.2374 44.348 18.2376C44.348 18.2378 44.348 18.238 44.348 18.2382C44.348 18.2384 44.348 18.2386 44.348 18.2388C44.348 18.239 44.348 18.2392 44.348 18.2394C44.348 18.2396 44.348 18.2398 44.348 18.24C44.348 18.2402 44.348 18.2404 44.348 18.2406C44.348 18.2408 44.348 18.241 44.348 18.2412C44.348 18.2414 44.348 18.2416 44.348 18.2418C44.348 18.242 44.348 18.2422 44.348 18.2424C44.348 18.2426 44.348 18.2428 44.348 18.243C44.348 18.2432 44.348 18.2435 44.348 18.2437C44.348 18.2439 44.348 18.2441 44.348 18.2443C44.348 18.2445 44.348 18.2447 44.348 18.2449C44.348 18.2451 44.348 18.2453 44.348 18.2455C44.348 18.2457 44.348 18.2459 44.348 18.2461C44.348 18.2463 44.348 18.2465 44.348 18.2467C44.348 18.2469 44.348 18.2472 44.348 18.2474C44.348 18.2476 44.348 18.2478 44.348 18.248C44.348 18.2482 44.348 18.2484 44.348 18.2486C44.348 18.2488 44.348 18.249 44.348 18.2492C44.348 18.2494 44.348 18.2496 44.348 18.2499C44.348 18.2501 44.348 18.2503 44.348 18.2505C44.348 18.2507 44.348 18.2509 44.348 18.2511C44.348 18.2513 44.348 18.2515 44.348 18.2517C44.348 18.2519 44.348 18.2522 44.348 18.2524C44.348 18.2526 44.348 18.2528 44.348 18.253C44.348 18.2532 44.348 18.2534 44.348 18.2536C44.348 18.2538 44.348 18.254 44.348 18.2543C44.348 18.2545 44.348 18.2547 44.348 18.2549C44.348 18.2551 44.348 18.2553 44.348 18.2555C44.348 18.2557 44.348 18.256 44.348 18.2562C44.348 18.2564 44.348 18.2566 44.348 18.2568C44.348 18.257 44.348 18.2572 44.348 18.2574C44.348 18.2577 44.348 18.2579 44.348 18.2581C44.348 18.2583 44.348 18.2585 44.348 18.2587C44.348 18.2589 44.348 18.2592 44.348 18.2594C44.348 18.2596 44.348 18.2598 44.348 18.26C44.348 18.2602 44.348 18.2604 44.348 18.2607C44.348 18.2609 44.348 18.2611 44.348 18.2613C44.348 18.2615 44.348 18.2617 44.348 18.262C44.348 18.2622 44.348 18.2624 44.348 18.2626C44.348 18.2628 44.348 18.263 44.348 18.2633C44.348 18.2635 44.348 18.2637 44.348 18.2639C44.348 18.2641 44.348 18.2643 44.348 18.2646C44.348 18.2648 44.348 18.265 44.348 18.2652C44.348 18.2654 44.348 18.2657 44.348 18.2659C44.348 18.2661 44.348 18.2663 44.348 18.2665C44.348 18.2667 44.348 18.267 44.348 18.2672C44.348 18.2674 44.348 18.2676 44.348 18.2678C44.348 18.2681 44.348 18.2683 44.348 18.2685C44.348 18.2687 44.348 18.2689 44.348 18.2692C44.348 18.2694 44.348 18.2696 44.348 18.2698C44.348 18.27 44.348 18.2703 44.348 18.2705C44.348 18.2707 44.348 18.2709 44.348 18.2712C44.348 18.2714 44.348 18.2716 44.348 18.2718C44.348 18.272 44.348 18.2723 44.348 18.2725C44.348 18.2727 44.348 18.2729 44.348 18.2732C44.348 18.2734 44.348 18.2736 44.348 18.2738C44.348 18.2741 44.348 18.2743 44.348 18.2745C44.348 18.2747 44.348 18.2749 44.348 18.2752C44.348 18.2754 44.348 18.2756 44.348 18.2758C44.348 18.2761 44.348 18.2763 44.348 18.2765C44.348 18.2767 44.348 18.277 44.348 18.2772C44.348 18.2774 44.348 18.2776 44.348 18.2779C44.348 18.2781 44.348 18.2783 44.348 18.2786C44.348 18.2788 44.348 18.279 44.348 18.2792C44.348 18.2795 44.348 18.2797 44.348 18.2799C44.348 18.2801 44.348 18.2804 44.348 18.2806C44.348 18.2808 44.348 18.2811 44.348 18.2813C44.348 18.2815 44.348 18.2817 44.348 18.282C44.348 18.2822 44.348 18.2824 44.348 18.2827C44.348 18.2829 44.348 18.2831 44.348 18.2833C44.348 18.2836 44.348 18.2838 44.348 18.284C44.348 18.2843 44.348 18.2845 44.348 18.2847C44.348 18.2849 44.348 18.2852 44.348 18.2854C44.348 18.2856 44.348 18.2859 44.348 18.2861C44.348 18.2863 44.348 18.2866 44.348 18.2868C44.348 18.287 44.348 18.2873 44.348 18.2875C44.348 18.2877 44.348 18.2879 44.348 18.2882C44.348 18.2884 44.348 18.2886 44.348 18.2889C44.348 18.2891 44.348 18.2893 44.348 18.2896C44.348 18.2898 44.348 18.29 44.348 18.2903C44.348 18.2905 44.348 18.2907 44.348 18.291C44.348 18.2912 44.348 18.2914 44.348 18.2917C44.348 18.2919 44.348 18.2921 44.348 18.2924C44.348 18.2926 44.348 18.2929 44.348 18.2931C44.348 18.2933 44.348 18.2936 44.348 18.2938C44.348 18.294 44.348 18.2943 44.348 18.2945C44.348 18.2947 44.348 18.295 44.348 18.2952C44.348 18.2954 44.348 18.2957 44.348 18.2959C44.348 18.2962 44.348 18.2964 44.348 18.2966C44.348 18.2969 44.348 18.2971 44.348 18.2973C44.348 18.2976 44.348 18.2978 44.348 18.298C44.348 18.2983 44.348 18.2985 44.348 18.2988C44.348 18.299 44.348 18.2992 44.348 18.2995C44.348 18.2997 44.348 18.3 44.348 18.3002C44.348 18.3004 44.348 18.3007 44.348 18.3009C44.348 18.3012 44.348 18.3014 44.348 18.3016C44.348 18.3019 44.348 18.3021 44.348 18.3024C44.348 18.3026 44.348 18.3028 44.348 18.3031C44.348 18.3033 44.348 18.3036 44.348 18.3038C44.348 18.304 44.348 18.3043 44.348 18.3045C44.348 18.3048 44.348 18.305 44.348 18.3052C44.348 18.3055 44.348 18.3057 44.348 18.306C44.348 18.3062 44.348 18.3065 44.348 18.3067C44.348 18.3069 44.348 18.3072 44.348 18.3074C44.348 18.3077 44.348 18.3079 44.348 18.3082C44.348 18.3084 44.348 18.3086 44.348 18.3089C44.348 18.3091 44.348 18.3094 44.348 18.3096C44.348 18.3099 44.348 18.3101 44.348 18.3104C44.348 18.3106 44.348 18.3108 44.348 18.3111C44.348 18.3113 44.348 18.3116 44.348 18.3118C44.348 18.3121 44.348 18.3123 44.348 18.3126C44.348 18.3128 44.348 18.3131 44.348 18.3133C44.348 18.3135 44.348 18.3138 44.348 18.314C44.348 18.3143 44.348 18.3145 44.348 18.3148C44.348 18.315 44.348 18.3153 44.348 18.3155C44.348 18.3158 44.348 18.316 44.348 18.3163C44.348 18.3165 44.348 18.3168 44.348 18.317C44.348 18.3173 44.348 18.3175 44.348 18.3178C44.348 18.318 44.348 18.3183 44.348 18.3185C44.348 18.3188 44.348 18.319 44.348 18.3193C44.348 18.3195 44.348 18.3197 44.348 18.32C44.348 18.3202 44.348 18.3205 44.348 18.3208C44.348 18.321 44.348 18.3213 44.348 18.3215C44.348 18.3218 44.348 18.322 44.348 18.3223C44.348 18.3225 44.348 18.3228 44.348 18.323C44.348 18.3233 44.348 18.3235 44.348 18.3238C44.348 18.324 44.348 18.3243 44.348 18.3245C44.348 18.3248 44.348 18.325 44.348 18.3253C44.348 18.3255 44.348 18.3258 44.348 18.326C44.348 18.3263 44.348 18.3265 44.348 18.3268C44.348 18.3271 44.348 18.3273 44.348 18.3276C44.348 18.3278 44.348 18.3281 44.348 18.3283C44.348 18.3286 44.348 18.3288 44.348 18.3291C44.348 18.3293 44.348 18.3296 44.348 18.3299C44.348 18.3301 44.348 18.3304 44.348 18.3306C44.348 18.3309 44.348 18.3311 44.348 18.3314C44.348 18.3316 44.348 18.3319 44.348 18.3322C44.348 18.3324 44.348 18.3327 44.348 18.3329C44.348 18.3332 44.348 18.3334 44.348 18.3337C44.348 18.334 44.348 18.3342 44.348 18.3345C44.348 18.3347 44.348 18.335 44.348 18.3352C44.348 18.3355 44.348 18.3358 44.348 18.336C44.348 18.3363 44.348 18.3365 44.348 18.3368C44.348 18.3371 44.348 18.3373 44.348 18.3376C44.348 18.3378 44.348 18.3381 44.348 18.3384C44.348 18.3386 44.348 18.3389 44.348 18.3391C44.348 18.3394 44.348 18.3397 44.348 18.3399C44.348 18.3402 44.348 18.3404 44.348 18.3407C44.348 18.341 44.348 18.3412 44.348 18.3415C44.348 18.3417 44.348 18.342 44.348 18.3423C44.348 18.3425 44.348 18.3428 44.348 18.343C44.348 18.3433 44.348 18.3436 44.348 18.3438C44.348 18.3441 44.348 18.3444 44.348 18.3446C44.348 18.3449 44.348 18.3452 44.348 18.3454C44.348 18.3457 44.348 18.3459 44.348 18.3462C44.348 18.3465 44.348 18.3467 44.348 18.347C44.348 18.3473 44.348 18.3475 44.348 18.3478C44.348 18.3481 44.348 18.3483 44.348 18.3486C44.348 18.3489 44.348 18.3491 44.348 18.3494C44.348 18.3496 44.348 18.3499 44.348 18.3502C44.348 18.3504 44.348 18.3507 44.348 18.351C44.348 18.3512 44.348 18.3515 44.348 18.3518C44.348 18.352 44.348 18.3523 44.348 18.3526C44.348 18.3528 44.348 18.3531 44.348 18.3534C44.348 18.3536 44.348 18.3539 44.348 18.3542C44.348 18.3544 44.348 18.3547 44.348 18.355C44.348 18.3553 44.348 18.3555 44.348 18.3558C44.348 18.3561 44.348 18.3563 44.348 18.3566C44.348 18.3569 44.348 18.3571 44.348 18.3574C44.348 18.3577 44.348 18.3579 44.348 18.3582C44.348 18.3585 44.348 18.3588 44.348 18.359C44.348 18.3593 44.348 18.3596 44.348 18.3598C44.348 18.3601 44.348 18.3604 44.348 18.3607C44.348 18.3609 44.348 18.3612 44.348 18.3615C44.348 18.3617 44.348 18.362 44.348 18.3623C44.348 18.3626 44.348 18.3628 44.348 18.3631C44.348 18.3634 44.348 18.3636 44.348 18.3639C44.348 18.3642 44.348 18.3645 44.348 18.3647C44.348 18.365 44.348 18.3653 44.348 18.3656C44.348 18.3658 44.348 18.3661 44.348 18.3664C44.348 18.3666 44.348 18.3669 44.348 18.3672C44.348 18.3675 44.348 18.3677 44.348 18.368C44.348 18.3683 44.348 18.3686 44.348 18.3688C44.348 18.3691 44.348 18.3694 44.348 18.3697C44.348 18.3699 44.348 18.3702 44.348 18.3705C44.348 18.3708 44.348 18.3711 44.348 18.3713C44.348 18.3716 44.348 18.3719 44.348 18.3722C44.348 18.3724 44.348 18.3727 44.348 18.373C44.348 18.3733 44.348 18.3735 44.348 18.3738C44.348 18.3741 44.348 18.3744 44.348 18.3747C44.348 18.3749 44.348 18.3752 44.348 18.3755C44.348 18.3758 44.348 18.376 44.348 18.3763C44.348 18.3766 44.348 18.3769 44.348 18.3772C44.348 18.3774 44.348 18.3777 44.348 18.378C44.348 18.3783 44.348 18.3786 44.348 18.3788C44.348 18.3791 44.348 18.3794 44.348 18.3797C44.348 18.38 44.348 18.3802 44.348 18.3805C44.348 18.3808 44.348 18.3811 44.348 18.3814C44.348 18.3817 44.348 18.3819 44.348 18.3822C44.348 18.3825 44.348 18.3828 44.348 18.3831C44.348 18.3833 44.348 18.3836 44.348 18.3839C44.348 18.3842 44.348 18.3845 44.348 18.3848C44.348 18.385 44.348 18.3853 44.348 18.3856C44.348 18.3859 44.348 18.3862 44.348 18.3865C44.348 18.3867 44.348 18.387 44.348 18.3873C44.348 18.3876 44.348 18.3879 44.348 18.3882C44.348 18.3884 44.348 18.3887 44.348 18.389C44.348 18.3893 44.348 18.3896 44.348 18.3899C44.348 18.3902 44.348 18.3904 44.348 18.3907C44.348 18.391 44.348 18.3913 44.348 18.3916C44.348 18.3919 44.348 18.3922 44.348 18.3924C44.348 18.3927 44.348 18.393 44.348 18.3933C44.348 18.3936 44.348 18.3939 44.348 18.3942C44.348 18.3945 44.348 18.3947 44.348 18.395C44.348 18.3953 44.348 18.3956 44.348 18.3959C44.348 18.3962 44.348 18.3965 44.348 18.3968C44.348 18.397 44.348 18.3973 44.348 18.3976C44.348 18.3979 44.348 18.3982 44.348 18.3985C44.348 18.3988 44.348 18.3991 44.348 18.3994C44.348 18.3997 44.348 18.3999 44.348 18.4002C44.348 18.4005 44.348 18.4008 44.348 18.4011C44.348 18.4014 44.348 18.4017 44.348 18.402C44.348 18.4023 44.348 18.4026 44.348 18.4029C44.348 18.4031 44.348 18.4034 44.348 18.4037C44.348 18.404 44.348 18.4043 44.348 18.4046C44.348 18.4049 44.348 18.4052 44.348 18.4055C44.348 18.4058 44.348 18.4061 44.348 18.4064C44.348 18.4067 44.348 18.4069 44.348 18.4072C44.348 18.4075 44.348 18.4078 44.348 18.4081C44.348 18.4084 44.348 18.4087 44.348 18.409C44.348 18.4093 44.348 18.4096 44.348 18.4099C44.348 18.4102 44.348 18.4105 44.348 18.4108C44.348 18.4111 44.348 18.4114 44.348 18.4117C44.348 18.412 44.348 18.4122 44.348 18.4125C44.348 18.4128 44.348 18.4131 44.348 18.4134C44.348 18.4137 44.348 18.414 44.348 18.4143C44.348 18.4146 44.348 18.4149 44.348 18.4152C44.348 18.4155 44.348 18.4158 44.348 18.4161C44.348 18.4164 44.348 18.4167 44.348 18.417C44.348 18.4173 44.348 18.4176 44.348 18.4179C44.348 18.4182 44.348 18.4185 44.348 18.4188C44.348 18.4191 44.348 18.4194 44.348 18.4197C44.348 18.42 44.348 18.4203 44.348 18.4206C44.348 18.4209 44.348 18.4212 44.348 18.4215C44.348 18.4218 44.348 18.4221 44.348 18.4224C44.348 18.4227 44.348 18.423 44.348 18.4233C44.348 18.4236 44.348 18.4239 44.348 18.4242C44.348 18.4245 44.348 18.4248 44.348 18.4251C44.348 18.4254 44.348 18.4257 44.348 18.426C44.348 18.4263 44.348 18.4266 44.348 18.4269C44.348 18.4272 44.348 18.4275 44.348 18.4278C44.348 18.4281 44.348 18.4284 44.348 18.4287C44.348 18.429 44.348 18.4293 44.348 18.4296C44.348 18.4299 44.348 18.4302 44.348 18.4305C44.348 18.4309 44.348 18.4312 44.348 18.4315C44.348 18.4318 44.348 18.4321 44.348 18.4324C44.348 18.4327 44.348 18.433 44.348 18.4333C44.348 18.4336 44.348 18.4339 44.348 18.4342C44.348 18.4345 44.348 18.4348 44.348 18.4351C44.348 18.4354 44.348 18.4357 44.348 18.436C44.348 18.4363 44.348 18.4367 44.348 18.437C44.348 18.4373 44.348 18.4376 44.348 18.4379C44.348 18.4382 44.348 18.4385 44.348 18.4388C44.348 18.4391 44.348 18.4394 44.348 18.4397C44.348 18.44 44.348 18.4403 44.348 18.4407C44.348 18.441 44.348 18.4413 44.348 18.4416C44.348 18.4419 44.348 18.4422 44.348 18.4425C44.348 18.4428 44.348 18.4431 44.348 18.4434C44.348 18.4437 44.348 18.4441 44.348 18.4444C44.348 18.4447 44.348 18.445 44.348 18.4453C44.348 18.4456 44.348 18.4459 44.348 18.4462C44.348 18.4465 44.348 18.4469 44.348 18.4472C44.348 18.4475 44.348 18.4478 44.348 18.4481C44.348 18.4484 44.348 18.4487 44.348 18.449C44.348 18.4493 44.348 18.4497 44.348 18.45C44.348 18.4503 44.348 18.4506 44.348 18.4509C44.348 18.4512 44.348 18.4515 44.348 18.4519C44.348 18.4522 44.348 18.4525 44.348 18.4528C44.348 18.4531 44.348 18.4534 44.348 18.4537C44.348 18.4541 44.348 18.4544 44.348 18.4547C44.348 18.455 44.348 18.4553 44.348 18.4556C44.348 18.4559 44.348 18.4563 44.348 18.4566C44.348 18.4569 44.348 18.4572 44.348 18.4575C44.348 18.4578 44.348 18.4582 44.348 18.4585C44.348 18.4588 44.348 18.4591 44.348 18.4594C44.348 18.4597 44.348 18.46 44.348 18.4604C44.348 18.4607 44.348 18.461 44.348 18.4613C44.348 18.4616 44.348 18.462 44.348 18.4623C44.348 18.4626 44.348 18.4629 44.348 18.4632C44.348 18.4635 44.348 18.4639 44.348 18.4642C44.348 18.4645 44.348 18.4648 44.348 18.4651C44.348 18.4655 44.348 18.4658 44.348 18.4661C44.348 18.4664 44.348 18.4667 44.348 18.4671C44.348 18.4674 44.348 18.4677 44.348 18.468C44.348 18.4683 44.348 18.4687 44.348 18.469C44.348 18.4693 44.348 18.4696 44.348 18.4699C44.348 18.4703 44.348 18.4706 44.348 18.4709C44.348 18.4712 44.348 18.4715 44.348 18.4719C44.348 18.4722 44.348 18.4725 44.348 18.4728C44.348 18.4732 44.348 18.4735 44.348 18.4738C44.348 18.4741 44.348 18.4745 44.348 18.4748C44.348 18.4751 44.348 18.4754 44.348 18.4757C44.348 18.4761 44.348 18.4764 44.348 18.4767C44.348 18.477 44.348 18.4774 44.348 18.4777C44.348 18.478 44.348 18.4783 44.348 18.4787C44.348 18.479 44.348 18.4793 44.348 18.4796C44.348 18.48 44.348 18.4803 44.348 18.4806C44.348 18.4809 44.348 18.4813 44.348 18.4816C44.348 18.4819 44.348 18.4822 44.348 18.4826C44.348 18.4829 44.348 18.4832 44.348 18.4836C44.348 18.4839 44.348 18.4842 44.348 18.4845C44.348 18.4849 44.348 18.4852 44.348 18.4855C44.348 18.4858 44.348 18.4862 44.348 18.4865C44.348 18.4868 44.348 18.4872 44.348 18.4875C44.348 18.4878 44.348 18.4881 44.348 18.4885C44.348 18.4888 44.348 18.4891 44.348 18.4895C44.348 18.4898 44.348 18.4901 44.348 18.4904C44.348 18.4908 44.348 18.4911 44.348 18.4914C44.348 18.4918 44.348 18.4921 44.348 18.4924C44.348 18.4928 44.348 18.4931 44.348 18.4934C44.348 18.4938 44.348 18.4941 44.348 18.4944C44.348 18.4947 44.348 18.4951 44.348 18.4954C44.348 18.4957 44.348 18.4961 44.348 18.4964C44.348 18.4967 44.348 18.4971 44.348 18.4974C44.348 18.4977 44.348 18.4981 44.348 18.4984C44.348 18.4987 44.348 18.4991 44.348 18.4994C44.348 18.4997 44.348 18.5001 44.348 18.5004C44.348 18.5007 44.348 18.5011 44.348 18.5014C44.348 18.5017 44.348 18.5021 44.348 18.5024C44.348 18.5027 44.348 18.5031 44.348 18.5034C44.348 18.5037 44.348 18.5041 44.348 18.5044C44.348 18.5048 44.348 18.5051 44.348 18.5054C44.348 18.5058 44.348 18.5061 44.348 18.5064C44.348 18.5068 44.348 18.5071 44.348 18.5074C44.348 18.5078 44.348 18.5081 44.348 18.5085C44.348 18.5088 44.348 18.5091 44.348 18.5095C44.348 18.5098 44.348 18.5101 44.348 18.5105C44.348 18.5108 44.348 18.5112 44.348 18.5115C44.348 18.5118 44.348 18.5122 44.348 18.5125C44.348 18.5128 44.348 18.5132 44.348 18.5135C44.348 18.5139 44.348 18.5142 44.348 18.5145C44.348 18.5149 44.348 18.5152 44.348 18.5156C44.348 18.5159 44.348 18.5162 44.348 18.5166C44.348 18.5169 44.348 18.5173 44.348 18.5176C44.348 18.5179 44.348 18.5183 44.348 18.5186C44.348 18.519 44.348 18.5193 44.348 18.5196C44.348 18.52 44.348 18.5203 44.348 18.5207C44.348 18.521 44.348 18.5214 44.348 18.5217C44.348 18.522 44.348 18.5224 44.348 18.5227C44.348 18.5231 44.348 18.5234 44.348 18.5238C44.348 18.5241 44.348 18.5244 44.348 18.5248C44.348 18.5251 44.348 18.5255 44.348 18.5258C44.348 18.5262 44.348 18.5265 44.348 18.5269C44.348 18.5272 44.348 18.5275 44.348 18.5279C44.348 18.5282 44.348 18.5286 44.348 18.5289C44.348 18.5293 44.348 18.5296 44.348 18.53C44.348 18.5303 44.348 18.5306 44.348 18.531C44.348 18.5313 44.348 18.5317 44.348 18.532C44.348 18.5324 44.348 18.5327 44.348 18.5331C44.348 18.5334 44.348 18.5338 44.348 18.5341C44.348 18.5345 44.348 18.5348 44.348 18.5352C44.348 18.5355 44.348 18.5359 44.348 18.5362C44.348 18.5365 44.348 18.5369 44.348 18.5372C44.348 18.5376 44.348 18.5379 44.348 18.5383C44.348 18.5386 44.348 18.539 44.348 18.5393C44.348 18.5397 44.348 18.54 44.348 18.5404C44.348 18.5407 44.348 18.5411 44.348 18.5414C44.348 18.5418 44.348 18.5421 44.348 18.5425C44.348 18.5428 44.348 18.5432 44.348 18.5435C44.348 18.5439 44.348 18.5442 44.348 18.5446C44.348 18.5449 44.348 18.5453 44.348 18.5456C44.348 18.546 44.348 18.5464 44.348 18.5467C44.348 18.5471 44.348 18.5474 44.348 18.5478C44.348 18.5481 44.348 18.5485 44.348 18.5488C44.348 18.5492 44.348 18.5495 44.348 18.5499C44.348 18.5502 44.348 18.5506 44.348 18.5509C44.348 18.5513 44.348 18.5516 44.348 18.552H45.848ZM45.848 18.168H47.348C47.348 17.8138 47.403 17.5254 47.4925 17.2867L46.088 16.76L44.6835 16.2333C44.453 16.8479 44.348 17.4982 44.348 18.168H45.848ZM46.088 16.76L47.4807 17.3171C47.6052 17.0058 47.7626 16.7229 47.9525 16.4646L46.744 15.576L45.5355 14.6874C45.1921 15.1545 44.9121 15.6609 44.6953 16.2029L46.088 16.76ZM46.744 15.576L47.9646 16.4479C48.1783 16.1487 48.4175 15.8709 48.6831 15.6139L47.64 14.536L46.5969 13.4581C46.2011 13.8411 45.843 14.2567 45.5234 14.7041L46.744 15.576ZM47.64 14.536L48.6659 15.6303C49.0129 15.305 49.3547 14.9795 49.6911 14.6539L48.648 13.576L47.6049 12.4981C47.28 12.8125 46.9497 13.127 46.6141 13.4417L47.64 14.536ZM48.648 13.576L49.6859 14.659C49.9409 14.4146 50.1798 14.1863 50.4025 13.9742L49.368 12.888L48.3335 11.8018C48.1082 12.0163 47.8671 12.2468 47.6101 12.493L48.648 13.576ZM49.368 12.888L50.4287 13.9487C50.6773 13.7001 50.9045 13.4552 51.1074 13.2142L49.96 12.248L48.8126 11.2818C48.6742 11.4462 48.5067 11.6279 48.3073 11.8273L49.368 12.888ZM49.96 12.248L51.1313 13.185C51.3595 12.8998 51.5604 12.5938 51.7156 12.2661L50.36 11.624L49.0044 10.9819C48.9676 11.0596 48.9019 11.1695 48.7887 11.311L49.96 12.248ZM50.36 11.624L51.7279 12.2395C51.9025 11.8516 52.004 11.4293 52.004 10.984H50.504H49.004C49.004 10.9772 49.0049 10.9734 49.0046 10.9747C49.0042 10.9764 49.0016 10.9874 48.9921 11.0085L50.36 11.624ZM50.504 10.984H52.004C52.004 10.2522 51.7883 9.35633 50.9805 8.7747L50.104 9.992L49.2275 11.2093C49.1747 11.1713 49.127 11.1249 49.0878 11.0736C49.0491 11.0231 49.0259 10.9773 49.0128 10.945C48.9888 10.8854 49.004 10.8839 49.004 10.984H50.504ZM50.104 9.992L50.9805 8.7747C50.4106 8.36438 49.7565 8.204 49.112 8.204V9.704V11.204C49.1881 11.204 49.2265 11.2132 49.2378 11.2165C49.2467 11.2191 49.2397 11.218 49.2275 11.2093L50.104 9.992ZM49.112 9.704V8.204C48.6538 8.204 48.2026 8.28103 47.7693 8.44351L48.296 9.848L48.8227 11.2525C48.9014 11.223 48.9942 11.204 49.112 11.204V9.704ZM48.296 9.848L47.8032 8.43125C47.4649 8.54892 47.1416 8.69852 46.8363 8.88176L47.608 10.168L48.3797 11.4542C48.501 11.3815 48.6364 11.3177 48.7888 11.2647L48.296 9.848ZM47.608 10.168L46.8564 8.86986C46.5887 9.02486 46.3347 9.19923 46.1038 9.39711L47.08 10.536L48.0562 11.6749C48.124 11.6168 48.2219 11.5458 48.3596 11.4661L47.608 10.168ZM47.08 10.536L46.1533 9.35652C45.9877 9.48663 45.821 9.62572 45.6833 9.76334L46.744 10.824L47.8047 11.8847C47.8046 11.8847 47.8057 11.8836 47.8082 11.8812C47.8107 11.8788 47.8143 11.8754 47.8192 11.871C47.8289 11.8621 47.8424 11.8501 47.8602 11.8349C47.8962 11.804 47.9444 11.7645 48.0067 11.7155L47.08 10.536ZM46.744 10.824L47.9662 9.95437L46.7822 8.29037L45.56 9.16L44.3378 10.0296L45.5218 11.6936L46.744 10.824ZM45.56 9.16L46.5826 10.2574C46.9247 9.93862 47.3286 9.67057 47.8056 9.45676L47.192 8.088L46.5784 6.71924C45.818 7.06009 45.134 7.50671 44.5374 8.06259L45.56 9.16ZM47.192 8.088L47.8162 9.45196C48.2432 9.25655 48.7015 9.156 49.208 9.156V7.656V6.156C48.2851 6.156 47.3995 6.34344 46.5678 6.72404L47.192 8.088ZM49.208 7.656V9.156C49.7508 9.156 50.1495 9.21911 50.4332 9.30939L50.888 7.88L51.3428 6.45061C50.6879 6.24222 49.9665 6.156 49.208 6.156V7.656ZM50.888 7.88L50.4332 9.30939C50.7351 9.40544 50.9129 9.52033 51.0193 9.61919L52.04 8.52L53.0607 7.42081C52.5698 6.965 51.9796 6.65323 51.3428 6.45061L50.888 7.88ZM52.04 8.52L51.0606 9.65611C51.1663 9.74727 51.2429 9.85567 51.2968 10.0092L52.712 9.512L54.1272 9.01477C53.9038 8.37899 53.5323 7.82606 53.0194 7.38388L52.04 8.52ZM52.712 9.512L51.314 10.0557C51.3844 10.2367 51.436 10.4846 51.436 10.824H52.936H54.436C54.436 10.1821 54.3383 9.55531 54.11 8.96833L52.712 9.512Z" fill="black" mask="url(#path-9-outside-1_2007_128)"/>
<path d="M39.3921 50H50.6079C51.4113 50 51.8867 49.1005 51.4341 48.4367L45.8262 40.2118C45.4293 39.6296 44.5707 39.6296 44.1738 40.2118L38.5659 48.4367C38.1133 49.1005 38.5887 50 39.3921 50Z" fill="white" stroke="black" stroke-width="1.5"/>
<path d="M39.3921 60H50.6079C51.4113 60 51.8867 59.1005 51.4341 58.4367L45.8262 50.2118C45.4293 49.6296 44.5707 49.6296 44.1738 50.2118L38.5659 58.4367C38.1133 59.1005 38.5887 60 39.3921 60Z" fill="white" stroke="black" stroke-width="1.5"/>
<path d="M39.3921 70H50.6079C51.4113 70 51.8867 69.1005 51.4341 68.4367L45.8262 60.2118C45.4293 59.6296 44.5707 59.6296 44.1738 60.2118L38.5659 68.4367C38.1133 69.1005 38.5887 70 39.3921 70Z" fill="white" stroke="black" stroke-width="1.5"/>
</g>
</svg>
