<svg width="90" height="90" viewBox="0 0 90 90" fill="none" xmlns="http://www.w3.org/2000/svg">
<mask id="mask0_2007_38" style="mask-type:alpha" maskUnits="userSpaceOnUse" x="0" y="0" width="90" height="90">
<rect width="90" height="90" fill="#D9D9D9"/>
</mask>
<g mask="url(#mask0_2007_38)">
<rect x="15.102" y="69.788" width="61.5" height="17.5" transform="rotate(-1 15.102 69.788)" fill="#8F8555" stroke="black" stroke-width="1.5"/>
<rect x="11.5771" y="46.0077" width="71.5" height="17.5" transform="rotate(2 11.5771 46.0077)" fill="#8F8555" stroke="black" stroke-width="1.5"/>
<rect x="15.102" y="25.788" width="61.5" height="17.5" transform="rotate(-1 15.102 25.788)" fill="#8F8555" stroke="black" stroke-width="1.5"/>
<rect x="11.5771" y="1.00767" width="71.5" height="17.5" transform="rotate(2 11.5771 1.00767)" fill="#8F8555" stroke="black" stroke-width="1.5"/>
<rect x="54.25" y="-0.75" width="11.5" height="91.5" fill="#E2F5FF" stroke="black" stroke-width="1.5"/>
<rect x="24.25" y="-0.75" width="11.5" height="91.5" fill="#E2F5FF" stroke="black" stroke-width="1.5"/>
<path fill-rule="evenodd" clip-rule="evenodd" d="M57.0001 68.917V55.1826C57.0001 54.0832 56.1041 52.9834 55 52.9834H35C33.896 52.9834 33 54.0832 33 55.1826V68.917H57.0001ZM37.032 75.1153V75.0831C37.032 73.9916 36.142 73.1075 35.046 73.1075H35.016C33.92 73.1075 33.032 73.9916 33.032 75.0831V75.1153C33.032 76.2067 33.92 77.0909 35.016 77.0909H35.046C36.142 77.0909 37.032 76.2067 37.032 75.1153ZM54.984 77.0909H55.0161C56.1121 77.0909 57.0001 76.2067 57.0001 75.1153C57.0001 74.0238 56.1121 73.1397 55.0161 73.1397H54.984C53.888 73.1397 53 74.0238 53 75.1153C53 76.2067 53.888 77.0909 54.984 77.0909ZM57.0001 49C59.2101 49 61.0001 50.9916 61.0001 53.1904V69.1241V77.0909C61.0001 79.2917 59.2101 80.8672 57.0001 80.8672H52.288L54.374 86.0714C54.864 87.0732 55 88.3328 53 88.8028V88.8282C53 89.2883 51.258 88.7827 50.78 87.8067L47.836 80.8672H42.096L38.082 87.8448C37.596 88.8048 37 89.2569 35 88.8028V88.8282C35 88.3542 34.004 87.04 34.514 86.0362L37.616 80.8672H33C30.79 80.8672 29 79.2917 29 77.0909V69.1241V53.1904C29 50.9916 30.79 49 33 49H57.0001Z" fill="white" stroke="black" stroke-width="1.5"/>
<mask id="path-9-outside-1_2007_38" maskUnits="userSpaceOnUse" x="37" y="54" width="16" height="15" fill="black">
<rect fill="white" x="37" y="54" width="16" height="15"/>
<path d="M51.3137 55.912H48.8177V67H51.3137V55.912ZM46.2512 55.912H43.7552V67H46.2512V55.912ZM41.1887 55.912H38.6927V67H41.1887V55.912Z"/>
</mask>
<path d="M51.3137 55.912H48.8177V67H51.3137V55.912ZM46.2512 55.912H43.7552V67H46.2512V55.912ZM41.1887 55.912H38.6927V67H41.1887V55.912Z" fill="white"/>
<path d="M51.3137 55.912V54.412H52.8137V55.912H51.3137ZM48.8177 55.912H47.3177V54.412H48.8177V55.912ZM48.8177 67V68.5H47.3177V67H48.8177ZM51.3137 67H52.8137V68.5H51.3137V67ZM51.3137 55.912V57.412H48.8177V55.912V54.412H51.3137V55.912ZM48.8177 55.912H50.3177V67H48.8177H47.3177V55.912H48.8177ZM48.8177 67V65.5H51.3137V67V68.5H48.8177V67ZM51.3137 67H49.8137V55.912H51.3137H52.8137V67H51.3137ZM46.2512 55.912V54.412H47.7512V55.912H46.2512ZM43.7552 55.912H42.2552V54.412H43.7552V55.912ZM43.7552 67V68.5H42.2552V67H43.7552ZM46.2512 67H47.7512V68.5H46.2512V67ZM46.2512 55.912V57.412H43.7552V55.912V54.412H46.2512V55.912ZM43.7552 55.912H45.2552V67H43.7552H42.2552V55.912H43.7552ZM43.7552 67V65.5H46.2512V67V68.5H43.7552V67ZM46.2512 67H44.7512V55.912H46.2512H47.7512V67H46.2512ZM41.1887 55.912V54.412H42.6887V55.912H41.1887ZM38.6927 55.912H37.1927V54.412H38.6927V55.912ZM38.6927 67V68.5H37.1927V67H38.6927ZM41.1887 67H42.6887V68.5H41.1887V67ZM41.1887 55.912V57.412H38.6927V55.912V54.412H41.1887V55.912ZM38.6927 55.912H40.1927V67H38.6927H37.1927V55.912H38.6927ZM38.6927 67V65.5H41.1887V67V68.5H38.6927V67ZM41.1887 67H39.6887V55.912H41.1887H42.6887V67H41.1887Z" fill="black" mask="url(#path-9-outside-1_2007_38)"/>
<path d="M50.6079 39H39.3921C38.5887 39 38.1133 39.8995 38.5659 40.5633L44.1738 48.7882C44.5707 49.3704 45.4293 49.3704 45.8262 48.7882L51.4341 40.5633C51.8867 39.8995 51.4113 39 50.6079 39Z" fill="white" stroke="black" stroke-width="1.5"/>
<path d="M50.6079 19H39.3921C38.5887 19 38.1133 19.8995 38.5659 20.5633L44.1738 28.7882C44.5707 29.3704 45.4293 29.3704 45.8262 28.7882L51.4341 20.5633C51.8867 19.8995 51.4113 19 50.6079 19Z" fill="white" stroke="black" stroke-width="1.5"/>
<path d="M50.6079 29H39.3921C38.5887 29 38.1133 29.8995 38.5659 30.5633L44.1738 38.7882C44.5707 39.3704 45.4293 39.3704 45.8262 38.7882L51.4341 30.5633C51.8867 29.8995 51.4113 29 50.6079 29Z" fill="white" stroke="black" stroke-width="1.5"/>
</g>
</svg>
