<svg width="90" height="90" viewBox="0 0 90 90" fill="none" xmlns="http://www.w3.org/2000/svg">
<mask id="mask0_2007_98" style="mask-type:alpha" maskUnits="userSpaceOnUse" x="0" y="0" width="90" height="90">
<rect width="90" height="90" fill="#D9D9D9"/>
</mask>
<g mask="url(#mask0_2007_98)">
<rect x="15.102" y="69.788" width="61.5" height="17.5" transform="rotate(-1 15.102 69.788)" fill="#8F8555" stroke="black" stroke-width="1.5"/>
<rect x="11.5771" y="46.0077" width="71.5" height="17.5" transform="rotate(2 11.5771 46.0077)" fill="#8F8555" stroke="black" stroke-width="1.5"/>
<rect x="15.102" y="25.788" width="61.5" height="17.5" transform="rotate(-1 15.102 25.788)" fill="#8F8555" stroke="black" stroke-width="1.5"/>
<rect x="11.5771" y="1.00767" width="71.5" height="17.5" transform="rotate(2 11.5771 1.00767)" fill="#8F8555" stroke="black" stroke-width="1.5"/>
<rect x="54.25" y="-0.75" width="11.5" height="91.5" fill="#E2F5FF" stroke="black" stroke-width="1.5"/>
<rect x="24.25" y="-0.75" width="11.5" height="91.5" fill="#E2F5FF" stroke="black" stroke-width="1.5"/>
<path fill-rule="evenodd" clip-rule="evenodd" d="M57.0001 20.917V7.18263C57.0001 6.08319 56.1041 4.98341 55 4.98341H35C33.896 4.98341 33 6.08319 33 7.18263V20.917H57.0001ZM37.032 27.1153V27.0831C37.032 25.9916 36.142 25.1075 35.046 25.1075H35.016C33.92 25.1075 33.032 25.9916 33.032 27.0831V27.1153C33.032 28.2067 33.92 29.0909 35.016 29.0909H35.046C36.142 29.0909 37.032 28.2067 37.032 27.1153ZM54.984 29.0909H55.0161C56.1121 29.0909 57.0001 28.2067 57.0001 27.1153C57.0001 26.0238 56.1121 25.1397 55.0161 25.1397H54.984C53.888 25.1397 53 26.0238 53 27.1153C53 28.2067 53.888 29.0909 54.984 29.0909ZM57.0001 1C59.2101 1 61.0001 2.99159 61.0001 5.19044V21.1241V29.0909C61.0001 31.2917 59.2101 32.8672 57.0001 32.8672H52.288L54.374 38.0714C54.864 39.0732 55 40.3328 53 40.8028V40.8282C53 41.2883 51.258 40.7827 50.78 39.8067L47.836 32.8672H42.096L38.082 39.8448C37.596 40.8048 37 41.2569 35 40.8028V40.8282C35 40.3542 34.004 39.04 34.514 38.0362L37.616 32.8672H33C30.79 32.8672 29 31.2917 29 29.0909V21.1241V5.19044C29 2.99159 30.79 1 33 1H57.0001Z" fill="white" stroke="black" stroke-width="1.5"/>
<mask id="path-9-outside-1_2007_98" maskUnits="userSpaceOnUse" x="37" y="6" width="16" height="15" fill="black">
<rect fill="white" x="37" y="6" width="16" height="15"/>
<path d="M51.3137 7.912H48.8177V19H51.3137V7.912ZM46.2512 7.912H43.7552V19H46.2512V7.912ZM41.1887 7.912H38.6927V19H41.1887V7.912Z"/>
</mask>
<path d="M51.3137 7.912H48.8177V19H51.3137V7.912ZM46.2512 7.912H43.7552V19H46.2512V7.912ZM41.1887 7.912H38.6927V19H41.1887V7.912Z" fill="white"/>
<path d="M51.3137 7.912V6.412H52.8137V7.912H51.3137ZM48.8177 7.912H47.3177V6.412H48.8177V7.912ZM48.8177 19V20.5H47.3177V19H48.8177ZM51.3137 19H52.8137V20.5H51.3137V19ZM51.3137 7.912V9.412H48.8177V7.912V6.412H51.3137V7.912ZM48.8177 7.912H50.3177V19H48.8177H47.3177V7.912H48.8177ZM48.8177 19V17.5H51.3137V19V20.5H48.8177V19ZM51.3137 19H49.8137V7.912H51.3137H52.8137V19H51.3137ZM46.2512 7.912V6.412H47.7512V7.912H46.2512ZM43.7552 7.912H42.2552V6.412H43.7552V7.912ZM43.7552 19V20.5H42.2552V19H43.7552ZM46.2512 19H47.7512V20.5H46.2512V19ZM46.2512 7.912V9.412H43.7552V7.912V6.412H46.2512V7.912ZM43.7552 7.912H45.2552V19H43.7552H42.2552V7.912H43.7552ZM43.7552 19V17.5H46.2512V19V20.5H43.7552V19ZM46.2512 19H44.7512V7.912H46.2512H47.7512V19H46.2512ZM41.1887 7.912V6.412H42.6887V7.912H41.1887ZM38.6927 7.912H37.1927V6.412H38.6927V7.912ZM38.6927 19V20.5H37.1927V19H38.6927ZM41.1887 19H42.6887V20.5H41.1887V19ZM41.1887 7.912V9.412H38.6927V7.912V6.412H41.1887V7.912ZM38.6927 7.912H40.1927V19H38.6927H37.1927V7.912H38.6927ZM38.6927 19V17.5H41.1887V19V20.5H38.6927V19ZM41.1887 19H39.6887V7.912H41.1887H42.6887V19H41.1887Z" fill="black" mask="url(#path-9-outside-1_2007_98)"/>
<path d="M39.3921 50H50.6079C51.4113 50 51.8867 49.1005 51.4341 48.4367L45.8262 40.2118C45.4293 39.6296 44.5707 39.6296 44.1738 40.2118L38.5659 48.4367C38.1133 49.1005 38.5887 50 39.3921 50Z" fill="white" stroke="black" stroke-width="1.5"/>
<path d="M39.3921 60H50.6079C51.4113 60 51.8867 59.1005 51.4341 58.4367L45.8262 50.2118C45.4293 49.6296 44.5707 49.6296 44.1738 50.2118L38.5659 58.4367C38.1133 59.1005 38.5887 60 39.3921 60Z" fill="white" stroke="black" stroke-width="1.5"/>
<path d="M39.3921 70H50.6079C51.4113 70 51.8867 69.1005 51.4341 68.4367L45.8262 60.2118C45.4293 59.6296 44.5707 59.6296 44.1738 60.2118L38.5659 68.4367C38.1133 69.1005 38.5887 70 39.3921 70Z" fill="white" stroke="black" stroke-width="1.5"/>
</g>
</svg>
