<svg width="90" height="90" viewBox="0 0 90 90" fill="none" xmlns="http://www.w3.org/2000/svg">
<mask id="mask0_16_108" style="mask-type:alpha" maskUnits="userSpaceOnUse" x="0" y="0" width="90" height="90">
<rect width="90" height="90" fill="#D9D9D9"/>
</mask>
<g mask="url(#mask0_16_108)">
<rect x="53.6212" y="64.4104" width="57.5" height="11.5" transform="rotate(-65 53.6212 64.4104)" fill="#CB8263" stroke="black" stroke-width="1.5"/>
<rect x="20.73" y="25.9574" width="57.5" height="11.5" transform="rotate(-25 20.73 25.9574)" fill="#CB8263" stroke="black" stroke-width="1.5"/>
<mask id="path-4-outside-1_16_108" maskUnits="userSpaceOnUse" x="53" y="-37" width="74" height="74" fill="black">
<rect fill="white" x="53" y="-37" width="74" height="74"/>
<path fill-rule="evenodd" clip-rule="evenodd" d="M90 35C109.33 35 125 19.33 125 0C125 -19.33 109.33 -35 90 -35C70.67 -35 55 -19.33 55 0C55 19.33 70.67 35 90 35ZM90 25C103.807 25 115 13.8071 115 0C115 -13.8071 103.807 -25 90 -25C76.1929 -25 65 -13.8071 65 0C65 13.8071 76.1929 25 90 25Z"/>
</mask>
<path fill-rule="evenodd" clip-rule="evenodd" d="M90 35C109.33 35 125 19.33 125 0C125 -19.33 109.33 -35 90 -35C70.67 -35 55 -19.33 55 0C55 19.33 70.67 35 90 35ZM90 25C103.807 25 115 13.8071 115 0C115 -13.8071 103.807 -25 90 -25C76.1929 -25 65 -13.8071 65 0C65 13.8071 76.1929 25 90 25Z" fill="#E2F5FF"/>
<path d="M123.5 0C123.5 18.5015 108.502 33.5 90 33.5V36.5C110.158 36.5 126.5 20.1584 126.5 0H123.5ZM90 -33.5C108.502 -33.5 123.5 -18.5015 123.5 0H126.5C126.5 -20.1584 110.158 -36.5 90 -36.5V-33.5ZM56.5 0C56.5 -18.5015 71.4985 -33.5 90 -33.5V-36.5C69.8416 -36.5 53.5 -20.1584 53.5 0H56.5ZM90 33.5C71.4985 33.5 56.5 18.5015 56.5 0H53.5C53.5 20.1584 69.8416 36.5 90 36.5V33.5ZM113.5 0C113.5 12.9787 102.979 23.5 90 23.5V26.5C104.636 26.5 116.5 14.6355 116.5 0H113.5ZM90 -23.5C102.979 -23.5 113.5 -12.9787 113.5 0H116.5C116.5 -14.6355 104.636 -26.5 90 -26.5V-23.5ZM66.5 0C66.5 -12.9787 77.0213 -23.5 90 -23.5V-26.5C75.3645 -26.5 63.5 -14.6355 63.5 0H66.5ZM90 23.5C77.0213 23.5 66.5 12.9787 66.5 0H63.5C63.5 14.6355 75.3645 26.5 90 26.5V23.5Z" fill="black" mask="url(#path-4-outside-1_16_108)"/>
<mask id="path-6-outside-2_16_108" maskUnits="userSpaceOnUse" x="23" y="-67" width="134" height="134" fill="black">
<rect fill="white" x="23" y="-67" width="134" height="134"/>
<path fill-rule="evenodd" clip-rule="evenodd" d="M90 65C125.899 65 155 35.8985 155 0C155 -35.8985 125.899 -65 90 -65C54.1015 -65 25 -35.8985 25 0C25 35.8985 54.1015 65 90 65ZM90 55C120.376 55 145 30.3757 145 0C145 -30.3757 120.376 -55 90 -55C59.6243 -55 35 -30.3757 35 0C35 30.3757 59.6243 55 90 55Z"/>
</mask>
<path fill-rule="evenodd" clip-rule="evenodd" d="M90 65C125.899 65 155 35.8985 155 0C155 -35.8985 125.899 -65 90 -65C54.1015 -65 25 -35.8985 25 0C25 35.8985 54.1015 65 90 65ZM90 55C120.376 55 145 30.3757 145 0C145 -30.3757 120.376 -55 90 -55C59.6243 -55 35 -30.3757 35 0C35 30.3757 59.6243 55 90 55Z" fill="#E2F5FF"/>
<path d="M153.5 0C153.5 35.0701 125.07 63.5 90 63.5V66.5C126.727 66.5 156.5 36.7269 156.5 0H153.5ZM90 -63.5C125.07 -63.5 153.5 -35.0701 153.5 0H156.5C156.5 -36.7269 126.727 -66.5 90 -66.5V-63.5ZM26.5 0C26.5 -35.0701 54.9299 -63.5 90 -63.5V-66.5C53.2731 -66.5 23.5 -36.7269 23.5 0H26.5ZM90 63.5C54.9299 63.5 26.5 35.0701 26.5 0H23.5C23.5 36.7269 53.2731 66.5 90 66.5V63.5ZM143.5 0C143.5 29.5472 119.547 53.5 90 53.5V56.5C121.204 56.5 146.5 31.2041 146.5 0H143.5ZM90 -53.5C119.547 -53.5 143.5 -29.5472 143.5 0H146.5C146.5 -31.2041 121.204 -56.5 90 -56.5V-53.5ZM36.5 0C36.5 -29.5472 60.4528 -53.5 90 -53.5V-56.5C58.7959 -56.5 33.5 -31.2041 33.5 0H36.5ZM90 53.5C60.4528 53.5 36.5 29.5472 36.5 0H33.5C33.5 31.2041 58.7959 56.5 90 56.5V53.5Z" fill="black" mask="url(#path-6-outside-2_16_108)"/>
</g>
</svg>
