<svg width="90" height="90" viewBox="0 0 90 90" fill="none" xmlns="http://www.w3.org/2000/svg">
  <mask id="mask0_8_116" style="mask-type:alpha" maskUnits="userSpaceOnUse" x="0" y="0" width="90" height="90">
    <rect width="90" height="90" fill="#D9D9D9" />
  </mask>
  <g mask="url(#mask0_8_116)">
    <path fill-rule="evenodd" clip-rule="evenodd" d="M76 67C78.7614 67 81 64.7614 81 62V28C81 25.2386 78.7614 23 76 23H19C16.2386 23 14 25.2386 14 28V45V62C14 64.7614 16.2386 67 19 67H76ZM32.6 52.8C31.9408 53.2944 31 52.824 31 52V38C31 37.176 31.9408 36.7056 32.6 37.2L41.9333 44.2C42.4667 44.6 42.4667 45.4 41.9333 45.8L32.6 52.8Z" fill="#D6592C" />
    <path d="M32.6 37.2C31.9408 36.7056 31 37.176 31 38V52C31 52.824 31.9408 53.2944 32.6 52.8L41.9333 45.8C42.4667 45.4 42.4667 44.6 41.9333 44.2L32.6 37.2Z" fill="white" />
    <path fill-rule="evenodd" clip-rule="evenodd" d="M76 67C78.7614 67 81 64.7614 81 62V28C81 25.2386 78.7614 23 76 23H19C16.2386 23 14 25.2386 14 28V45V62C14 64.7614 16.2386 67 19 67H76ZM32.6 52.8C31.9408 53.2944 31 52.824 31 52V38C31 37.176 31.9408 36.7056 32.6 37.2L41.9333 44.2C42.4667 44.6 42.4667 45.4 41.9333 45.8L32.6 52.8Z" stroke="black" stroke-width="1.5" />    <path d="M32.6 37.2C31.9408 36.7056 31 37.176 31 38V52C31 52.824 31.9408 53.2944 32.6 52.8L41.9333 45.8C42.4667 45.4 42.4667 44.6 41.9333 44.2L32.6 37.2Z" stroke="black" stroke-width="1.5" />
    <text x="60" y="55" font-family="monospace" font-size="22" font-weight="bold" text-anchor="middle" fill="white" stroke="black" stroke-width="1.5" transform="rotate(90 61.5 46)">VI</text>
  </g>
</svg>