<svg width="90" height="90" viewBox="0 0 90 90" fill="none" xmlns="http://www.w3.org/2000/svg">
<mask id="mask0_2048_64" style="mask-type:alpha" maskUnits="userSpaceOnUse" x="0" y="0" width="90" height="90">
<rect width="90" height="90" fill="#D9D9D9"/>
</mask>
<g mask="url(#mask0_2048_64)">
<rect x="1.71467" y="15.4074" width="17.5" height="61.5" transform="rotate(-1 1.71467 15.4074)" fill="#8F8555" stroke="black" stroke-width="1.5"/>
<rect x="26.503" y="10.9664" width="17.5" height="71.5" transform="rotate(2 26.503 10.9664)" fill="#8F8555" stroke="black" stroke-width="1.5"/>
<rect x="46.7147" y="15.4074" width="17.5" height="61.5" transform="rotate(-1 46.7147 15.4074)" fill="#8F8555" stroke="black" stroke-width="1.5"/>
<rect x="70.503" y="10.9664" width="17.5" height="71.5" transform="rotate(2 70.503 10.9664)" fill="#8F8555" stroke="black" stroke-width="1.5"/>
<rect x="-0.75" y="54.25" width="91.5" height="11.5" fill="#E2F5FF" stroke="black" stroke-width="1.5"/>
<rect x="-0.75" y="24.25" width="91.5" height="11.5" fill="#E2F5FF" stroke="black" stroke-width="1.5"/>
<g opacity="0.9">
<mask id="path-8-outside-1_2048_64" maskUnits="userSpaceOnUse" x="9" y="16" width="76" height="46" fill="black">
<rect fill="white" x="9" y="16" width="76" height="46"/>
<path d="M47 18C47.5523 18 48 18.4477 48 19V22C48 22.5177 47.6067 22.9438 47.1025 22.9951L46.8975 23.0049C46.3933 23.0562 46 23.4823 46 24V40.5C46 41.0523 46.4477 41.5 47 41.5C47.5523 41.5 48 41.0523 48 40.5V40C48 39.4477 48.4477 39 49 39H66C66.5523 39 67 38.5523 67 38V29C67 28.4823 66.6067 28.0562 66.1025 28.0049L65.8975 27.9951C65.3933 27.9438 65 27.5177 65 27V22C65 21.4477 65.4477 21 66 21H75.5C76.0523 21 76.5 21.4477 76.5 22V27C76.5 27.5177 76.1067 27.9438 75.6025 27.9951L75.3975 28.0049C74.8933 28.0562 74.5 28.4823 74.5 29V38C74.5 38.5523 74.9477 39 75.5 39H82C82.5523 39 83 39.4477 83 40V59C83 59.5523 82.5523 60 82 60H81.3984C80.4879 58.2196 78.637 57 76.5 57C74.363 57 72.5121 58.2196 71.6016 60H70.3984C69.4879 58.2196 67.637 57 65.5 57C63.363 57 61.5121 58.2196 60.6016 60H52.9434C52.9797 59.6716 53 59.3381 53 59C53 54.0294 48.9706 50 44 50C39.0294 50 35 54.0294 35 59C35 59.3381 35.0203 59.6716 35.0566 60H33.9434C33.9797 59.6716 34 59.3381 34 59C34 54.0294 29.9706 50 25 50C20.0294 50 16 54.0294 16 59C16 59.3381 16.0203 59.6716 16.0566 60H14C13.4477 60 13 59.5523 13 59V24C13 23.4823 12.6067 23.0562 12.1025 23.0049L11.8975 22.9951C11.3933 22.9438 11 22.5177 11 22V19C11 18.4477 11.4477 18 12 18H47ZM20 25V42H39V25H20Z"/>
</mask>
<path d="M47 18C47.5523 18 48 18.4477 48 19V22C48 22.5177 47.6067 22.9438 47.1025 22.9951L46.8975 23.0049C46.3933 23.0562 46 23.4823 46 24V40.5C46 41.0523 46.4477 41.5 47 41.5C47.5523 41.5 48 41.0523 48 40.5V40C48 39.4477 48.4477 39 49 39H66C66.5523 39 67 38.5523 67 38V29C67 28.4823 66.6067 28.0562 66.1025 28.0049L65.8975 27.9951C65.3933 27.9438 65 27.5177 65 27V22C65 21.4477 65.4477 21 66 21H75.5C76.0523 21 76.5 21.4477 76.5 22V27C76.5 27.5177 76.1067 27.9438 75.6025 27.9951L75.3975 28.0049C74.8933 28.0562 74.5 28.4823 74.5 29V38C74.5 38.5523 74.9477 39 75.5 39H82C82.5523 39 83 39.4477 83 40V59C83 59.5523 82.5523 60 82 60H81.3984C80.4879 58.2196 78.637 57 76.5 57C74.363 57 72.5121 58.2196 71.6016 60H70.3984C69.4879 58.2196 67.637 57 65.5 57C63.363 57 61.5121 58.2196 60.6016 60H52.9434C52.9797 59.6716 53 59.3381 53 59C53 54.0294 48.9706 50 44 50C39.0294 50 35 54.0294 35 59C35 59.3381 35.0203 59.6716 35.0566 60H33.9434C33.9797 59.6716 34 59.3381 34 59C34 54.0294 29.9706 50 25 50C20.0294 50 16 54.0294 16 59C16 59.3381 16.0203 59.6716 16.0566 60H14C13.4477 60 13 59.5523 13 59V24C13 23.4823 12.6067 23.0562 12.1025 23.0049L11.8975 22.9951C11.3933 22.9438 11 22.5177 11 22V19C11 18.4477 11.4477 18 12 18H47ZM20 25V42H39V25H20Z" fill="white"/>
<path d="M48 19L49.5 19V19L48 19ZM47.1025 22.9951L47.1739 24.4934L47.2143 24.4915L47.2545 24.4874L47.1025 22.9951ZM46.8975 23.0049L46.8261 21.5066L46.7857 21.5085L46.7455 21.5126L46.8975 23.0049ZM46 40.5L44.5 40.5L44.5 40.5L46 40.5ZM48 40.5L49.5 40.5V40.5H48ZM49 39L49 37.5L49 39ZM67 38L68.5 38V38H67ZM66.1025 28.0049L66.2545 26.5126L66.2143 26.5085L66.1739 26.5066L66.1025 28.0049ZM65.8975 27.9951L65.7455 29.4874L65.7857 29.4915L65.8261 29.4934L65.8975 27.9951ZM65 27L63.5 27V27L65 27ZM66 21L66 19.5H66L66 21ZM76.5 22L78 22V22L76.5 22ZM75.6025 27.9951L75.6739 29.4934L75.7143 29.4915L75.7545 29.4874L75.6025 27.9951ZM75.3975 28.0049L75.3261 26.5066L75.2857 26.5085L75.2455 26.5126L75.3975 28.0049ZM74.5 29L73 29V29H74.5ZM75.5 39V40.5V39ZM83 40L84.5 40V40L83 40ZM82 60L82 61.5L82 60ZM81.3984 60L80.0629 60.683L80.4808 61.5H81.3984V60ZM71.6016 60V61.5H72.5192L72.9371 60.683L71.6016 60ZM70.3984 60L69.0629 60.683L69.4808 61.5H70.3984V60ZM60.6016 60V61.5H61.5192L61.9371 60.683L60.6016 60ZM52.9434 60L51.4524 59.8352L51.2684 61.5H52.9434V60ZM35.0566 60V61.5H36.7316L36.5476 59.8352L35.0566 60ZM33.9434 60L32.4524 59.8352L32.2684 61.5H33.9434V60ZM16.0566 60V61.5H17.7316L17.5476 59.8352L16.0566 60ZM13 59L11.5 59V59L13 59ZM12.1025 23.0049L12.2545 21.5126L12.2143 21.5085L12.1739 21.5066L12.1025 23.0049ZM11.8975 22.9951L11.7455 24.4874L11.7857 24.4915L11.8261 24.4934L11.8975 22.9951ZM11 22L9.5 22L11 22ZM12 18L12 16.5H12L12 18ZM20 25V23.5H18.5V25H20ZM20 42H18.5V43.5H20V42ZM39 42V43.5H40.5V42H39ZM39 25H40.5V23.5H39V25ZM47 18V19.5C46.7239 19.5 46.5 19.2761 46.5 19L48 19L49.5 19C49.5 17.6193 48.3807 16.5 47 16.5V18ZM48 19H46.5V22H48H49.5V19H48ZM48 22H46.5C46.5 21.7409 46.6963 21.5287 46.9506 21.5028L47.1025 22.9951L47.2545 24.4874C48.5171 24.3588 49.5 23.2945 49.5 22H48ZM47.1025 22.9951L47.0312 21.4968L46.8261 21.5066L46.8975 23.0049L46.9688 24.5032L47.1739 24.4934L47.1025 22.9951ZM46.8975 23.0049L46.7455 21.5126C45.4829 21.6412 44.5 22.7055 44.5 24H46H47.5C47.5 24.2591 47.3037 24.4713 47.0494 24.4972L46.8975 23.0049ZM46 24H44.5V40.5H46H47.5V24H46ZM46 40.5L44.5 40.5C44.5 41.8807 45.6193 43 47 43V41.5V40C47.2761 40 47.5 40.2239 47.5 40.5L46 40.5ZM47 41.5V43C48.3807 43 49.5 41.8807 49.5 40.5L48 40.5L46.5 40.5C46.5 40.2239 46.7239 40 47 40V41.5ZM48 40.5H49.5V40H48H46.5V40.5H48ZM48 40H49.5C49.5 40.2761 49.2761 40.5 49 40.5L49 39L49 37.5C47.6193 37.5 46.5 38.6193 46.5 40H48ZM49 39V40.5H66V39V37.5H49V39ZM66 39V40.5C67.3807 40.5 68.5 39.3807 68.5 38L67 38L65.5 38C65.5 37.7239 65.7239 37.5 66 37.5V39ZM67 38H68.5V29H67H65.5V38H67ZM67 29H68.5C68.5 27.7055 67.5171 26.6412 66.2545 26.5126L66.1025 28.0049L65.9506 29.4972C65.6963 29.4713 65.5 29.2591 65.5 29H67ZM66.1025 28.0049L66.1739 26.5066L65.9688 26.4968L65.8975 27.9951L65.8261 29.4934L66.0312 29.5032L66.1025 28.0049ZM65.8975 27.9951L66.0494 26.5028C66.3037 26.5287 66.5 26.7409 66.5 27L65 27L63.5 27C63.5 28.2945 64.4829 29.3588 65.7455 29.4874L65.8975 27.9951ZM65 27H66.5V22H65H63.5V27H65ZM65 22H66.5C66.5 22.2761 66.2761 22.5 66 22.5L66 21L66 19.5C64.6193 19.5 63.5 20.6193 63.5 22H65ZM66 21V22.5H75.5V21V19.5H66V21ZM75.5 21V22.5C75.2239 22.5 75 22.2761 75 22L76.5 22L78 22C78 20.6193 76.8807 19.5 75.5 19.5V21ZM76.5 22H75V27H76.5H78V22H76.5ZM76.5 27H75C75 26.7409 75.1963 26.5287 75.4506 26.5028L75.6025 27.9951L75.7545 29.4874C77.0171 29.3588 78 28.2945 78 27H76.5ZM75.6025 27.9951L75.5312 26.4968L75.3261 26.5066L75.3975 28.0049L75.4688 29.5032L75.6739 29.4934L75.6025 27.9951ZM75.3975 28.0049L75.2455 26.5126C73.9829 26.6412 73 27.7055 73 29L74.5 29L76 29C76 29.2591 75.8037 29.4713 75.5494 29.4972L75.3975 28.0049ZM74.5 29H73V38H74.5H76V29H74.5ZM74.5 38H73C73 39.3807 74.1193 40.5 75.5 40.5L75.5 39L75.5 37.5C75.7761 37.5 76 37.7239 76 38H74.5ZM75.5 39V40.5H82V39V37.5H75.5V39ZM82 39V40.5C81.7239 40.5 81.5 40.2761 81.5 40L83 40L84.5 40C84.5 38.6193 83.3807 37.5 82 37.5V39ZM83 40H81.5V59H83H84.5V40H83ZM83 59H81.5C81.5 58.7239 81.7239 58.5 82 58.5L82 60L82 61.5C83.3807 61.5 84.5 60.3807 84.5 59H83ZM82 60V58.5H81.3984V60V61.5H82V60ZM81.3984 60L82.7339 59.317C81.5774 57.0555 79.2228 55.5 76.5 55.5V57V58.5C78.0512 58.5 79.3985 59.3836 80.0629 60.683L81.3984 60ZM76.5 57V55.5C73.7772 55.5 71.4226 57.0555 70.2661 59.317L71.6016 60L72.9371 60.683C73.6015 59.3836 74.9488 58.5 76.5 58.5V57ZM71.6016 60V58.5H70.3984V60V61.5H71.6016V60ZM70.3984 60L71.7339 59.317C70.5774 57.0555 68.2228 55.5 65.5 55.5V57V58.5C67.0512 58.5 68.3985 59.3836 69.0629 60.683L70.3984 60ZM65.5 57V55.5C62.7772 55.5 60.4226 57.0555 59.2661 59.317L60.6016 60L61.9371 60.683C62.6015 59.3836 63.9488 58.5 65.5 58.5V57ZM60.6016 60V58.5H52.9434V60V61.5H60.6016V60ZM52.9434 60L54.4343 60.1648C54.4761 59.787 54.5 59.3982 54.5 59H53H51.5C51.5 59.2779 51.4833 59.5562 51.4524 59.8352L52.9434 60ZM53 59H54.5C54.5 53.201 49.799 48.5 44 48.5V50V51.5C48.1421 51.5 51.5 54.8579 51.5 59H53ZM44 50V48.5C38.201 48.5 33.5 53.201 33.5 59H35H36.5C36.5 54.8579 39.8579 51.5 44 51.5V50ZM35 59H33.5C33.5 59.3982 33.5239 59.787 33.5657 60.1648L35.0566 60L36.5476 59.8352C36.5167 59.5562 36.5 59.2779 36.5 59H35ZM35.0566 60V58.5H33.9434V60V61.5H35.0566V60ZM33.9434 60L35.4343 60.1648C35.4761 59.787 35.5 59.3982 35.5 59H34H32.5C32.5 59.2779 32.4833 59.5562 32.4524 59.8352L33.9434 60ZM34 59H35.5C35.5 53.201 30.799 48.5 25 48.5V50V51.5C29.1421 51.5 32.5 54.8579 32.5 59H34ZM25 50V48.5C19.201 48.5 14.5 53.201 14.5 59H16H17.5C17.5 54.8579 20.8579 51.5 25 51.5V50ZM16 59H14.5C14.5 59.3982 14.5239 59.787 14.5657 60.1648L16.0566 60L17.5476 59.8352C17.5167 59.5562 17.5 59.2779 17.5 59H16ZM16.0566 60V58.5H14V60V61.5H16.0566V60ZM14 60V58.5C14.2761 58.5 14.5 58.7239 14.5 59L13 59L11.5 59C11.5 60.3807 12.6193 61.5 14 61.5V60ZM13 59H14.5V24H13H11.5V59H13ZM13 24H14.5C14.5 22.7055 13.5171 21.6412 12.2545 21.5126L12.1025 23.0049L11.9506 24.4972C11.6963 24.4713 11.5 24.2591 11.5 24H13ZM12.1025 23.0049L12.1739 21.5066L11.9688 21.4968L11.8975 22.9951L11.8261 24.4934L12.0312 24.5032L12.1025 23.0049ZM11.8975 22.9951L12.0494 21.5028C12.3037 21.5287 12.5 21.7409 12.5 22L11 22L9.5 22C9.5 23.2945 10.4829 24.3588 11.7455 24.4874L11.8975 22.9951ZM11 22H12.5V19H11H9.5V22H11ZM11 19H12.5C12.5 19.2761 12.2761 19.5 12 19.5L12 18L12 16.5C10.6193 16.5 9.5 17.6193 9.5 19H11ZM12 18V19.5H47V18V16.5H12V18ZM20 25H18.5V42H20H21.5V25H20ZM20 42V43.5H39V42V40.5H20V42ZM39 42H40.5V25H39H37.5V42H39ZM39 25V23.5H20V25V26.5H39V25Z" fill="black" mask="url(#path-8-outside-1_2048_64)"/>
</g>
<path opacity="0.9" d="M25 50.75C29.5563 50.75 33.25 54.4437 33.25 59C33.25 63.5563 29.5563 67.25 25 67.25C20.4437 67.25 16.75 63.5563 16.75 59C16.75 54.4437 20.4437 50.75 25 50.75ZM44 50.75C48.5563 50.75 52.25 54.4437 52.25 59C52.25 63.5563 48.5563 67.25 44 67.25C39.4437 67.25 35.75 63.5563 35.75 59C35.75 54.4437 39.4437 50.75 44 50.75ZM65.5 57.75C68.1234 57.75 70.25 59.8766 70.25 62.5C70.25 65.1234 68.1234 67.25 65.5 67.25C62.8766 67.25 60.75 65.1234 60.75 62.5C60.75 59.8766 62.8766 57.75 65.5 57.75ZM76.5 57.75C79.1234 57.75 81.25 59.8766 81.25 62.5C81.25 65.1234 79.1234 67.25 76.5 67.25C73.8766 67.25 71.75 65.1234 71.75 62.5C71.75 59.8766 73.8766 57.75 76.5 57.75Z" fill="white" stroke="black" stroke-width="1.5"/>
</g>
</svg>
