<svg width="90" height="90" viewBox="0 0 90 90" fill="none" xmlns="http://www.w3.org/2000/svg">
<mask id="mask0_44_475" style="mask-type:alpha" maskUnits="userSpaceOnUse" x="0" y="0" width="90" height="90">
<rect width="90" height="90" fill="#D9D9D9"/>
</mask>
<g mask="url(#mask0_44_475)">
<rect x="23.1014" y="69.7182" width="53.5" height="17.5" transform="rotate(-1 23.1014 69.7182)" fill="#8F8555" stroke="black" stroke-width="1.5"/>
<rect x="23.5735" y="46.2171" width="59.5" height="17.5" transform="rotate(2 23.5735 46.2171)" fill="#8F8555" stroke="black" stroke-width="1.5"/>
<rect x="23.1014" y="25.7182" width="53.5" height="17.5" transform="rotate(-1 23.1014 25.7182)" fill="#8F8555" stroke="black" stroke-width="1.5"/>
<rect x="23.5735" y="1.21707" width="59.5" height="17.5" transform="rotate(2 23.5735 1.21707)" fill="#8F8555" stroke="black" stroke-width="1.5"/>
<rect x="5.50299" y="8.96641" width="17.5" height="71.5" transform="rotate(2 5.50299 8.96641)" fill="#8F8555" stroke="black" stroke-width="1.5"/>
<mask id="path-7-outside-1_44_475" maskUnits="userSpaceOnUse" x="-67" y="-2" width="134" height="159" fill="black">
<rect fill="white" x="-67" y="-2" width="134" height="159"/>
<path fill-rule="evenodd" clip-rule="evenodd" d="M35 0H25V29.9816C17.3041 26.7723 8.85901 25 0 25C-35.8985 25 -65 54.1015 -65 90C-65 125.899 -35.8985 155 0 155C35.8985 155 65 125.899 65 90V0H55V55.3431C49.8935 47.2562 43.0527 40.3737 35 35.2182V0ZM25 40.9971V65.5051C18.6474 59.0223 9.79344 55 0 55C-19.33 55 -35 70.67 -35 90C-35 109.33 -19.33 125 0 125C19.33 125 35 109.33 35 90V47.5716C47.215 57.6595 55 72.9206 55 90C55 120.376 30.3757 145 0 145C-30.3757 145 -55 120.376 -55 90C-55 59.6243 -30.3757 35 0 35C9.00224 35 17.4993 37.1628 25 40.9971ZM0 65C13.8071 65 25 76.1929 25 90C25 103.807 13.8071 115 0 115C-13.8071 115 -25 103.807 -25 90C-25 76.1929 -13.8071 65 0 65Z"/>
</mask>
<path fill-rule="evenodd" clip-rule="evenodd" d="M35 0H25V29.9816C17.3041 26.7723 8.85901 25 0 25C-35.8985 25 -65 54.1015 -65 90C-65 125.899 -35.8985 155 0 155C35.8985 155 65 125.899 65 90V0H55V55.3431C49.8935 47.2562 43.0527 40.3737 35 35.2182V0ZM25 40.9971V65.5051C18.6474 59.0223 9.79344 55 0 55C-19.33 55 -35 70.67 -35 90C-35 109.33 -19.33 125 0 125C19.33 125 35 109.33 35 90V47.5716C47.215 57.6595 55 72.9206 55 90C55 120.376 30.3757 145 0 145C-30.3757 145 -55 120.376 -55 90C-55 59.6243 -30.3757 35 0 35C9.00224 35 17.4993 37.1628 25 40.9971ZM0 65C13.8071 65 25 76.1929 25 90C25 103.807 13.8071 115 0 115C-13.8071 115 -25 103.807 -25 90C-25 76.1929 -13.8071 65 0 65Z" fill="#E2F5FF"/>
<path d="M25 0V-1.5H23.5V0H25ZM35 0H36.5V-1.5H35V0ZM25 29.9816L24.4227 31.3661L26.5 32.2324V29.9816H25ZM65 0H66.5V-1.5H65V0ZM55 0V-1.5H53.5V0H55ZM55 55.3431L53.7317 56.144L56.5 60.5281V55.3431H55ZM35 35.2182H33.5V36.0389L34.1912 36.4815L35 35.2182ZM25 65.5051L23.9286 66.5549L26.5 69.179V65.5051H25ZM25 40.9971H26.5V40.0793L25.6828 39.6615L25 40.9971ZM35 47.5716L35.9552 46.4151L33.5 44.3874V47.5716H35ZM25 1.5H35V-1.5H25V1.5ZM26.5 29.9816V0H23.5V29.9816H26.5ZM25.5773 28.5972C17.7017 25.3129 9.06068 23.5 0 23.5V26.5C8.65733 26.5 16.9064 28.2317 24.4227 31.3661L25.5773 28.5972ZM0 23.5C-36.7269 23.5 -66.5 53.2731 -66.5 90H-63.5C-63.5 54.9299 -35.0701 26.5 0 26.5V23.5ZM-66.5 90C-66.5 126.727 -36.7269 156.5 0 156.5V153.5C-35.0701 153.5 -63.5 125.07 -63.5 90H-66.5ZM0 156.5C36.7269 156.5 66.5 126.727 66.5 90H63.5C63.5 125.07 35.0701 153.5 0 153.5V156.5ZM63.5 0V90H66.5V0H63.5ZM55 1.5H65V-1.5H55V1.5ZM56.5 55.3431V0H53.5V55.3431H56.5ZM56.2683 54.5423C51.0444 46.2693 44.0466 39.229 35.8088 33.9549L34.1912 36.4815C42.0587 41.5185 48.7427 48.2431 53.7317 56.144L56.2683 54.5423ZM33.5 0V35.2182H36.5V0H33.5ZM26.5 65.5051V40.9971H23.5V65.5051H26.5ZM0 56.5C9.37404 56.5 17.8466 60.3482 23.9286 66.5549L26.0714 64.4552C19.4483 57.6964 10.2128 53.5 0 53.5V56.5ZM-33.5 90C-33.5 71.4985 -18.5015 56.5 0 56.5V53.5C-20.1584 53.5 -36.5 69.8416 -36.5 90H-33.5ZM0 123.5C-18.5015 123.5 -33.5 108.502 -33.5 90H-36.5C-36.5 110.158 -20.1584 126.5 0 126.5V123.5ZM33.5 90C33.5 108.502 18.5015 123.5 0 123.5V126.5C20.1584 126.5 36.5 110.158 36.5 90H33.5ZM33.5 47.5716V90H36.5V47.5716H33.5ZM56.5 90C56.5 72.4543 48.5004 56.7757 35.9552 46.4151L34.0448 48.7282C45.9296 58.5434 53.5 73.387 53.5 90H56.5ZM0 146.5C31.2041 146.5 56.5 121.204 56.5 90H53.5C53.5 119.547 29.5472 143.5 0 143.5V146.5ZM-56.5 90C-56.5 121.204 -31.2041 146.5 0 146.5V143.5C-29.5472 143.5 -53.5 119.547 -53.5 90H-56.5ZM0 33.5C-31.2041 33.5 -56.5 58.7959 -56.5 90H-53.5C-53.5 60.4528 -29.5472 36.5 0 36.5V33.5ZM25.6828 39.6615C17.9756 35.7216 9.24507 33.5 0 33.5V36.5C8.7594 36.5 17.023 38.6039 24.3172 42.3327L25.6828 39.6615ZM26.5 90C26.5 75.3644 14.6355 63.5 0 63.5V66.5C12.9787 66.5 23.5 77.0213 23.5 90H26.5ZM0 116.5C14.6355 116.5 26.5 104.636 26.5 90H23.5C23.5 102.979 12.9787 113.5 0 113.5V116.5ZM-26.5 90C-26.5 104.636 -14.6355 116.5 0 116.5V113.5C-12.9787 113.5 -23.5 102.979 -23.5 90H-26.5ZM0 63.5C-14.6355 63.5 -26.5 75.3644 -26.5 90H-23.5C-23.5 77.0213 -12.9787 66.5 0 66.5V63.5Z" fill="black" mask="url(#path-7-outside-1_44_475)"/>
</g>
</svg>
