<svg width="90" height="90" viewBox="0 0 90 90" fill="none" xmlns="http://www.w3.org/2000/svg">
<mask id="mask0_43_437" style="mask-type:alpha" maskUnits="userSpaceOnUse" x="0" y="0" width="90" height="90">
<rect width="90" height="90" fill="#D9D9D9"/>
</mask>
<g mask="url(#mask0_43_437)">
<rect x="3.18889" y="22.9609" width="17.5" height="53.5" transform="rotate(2 3.18889 22.9609)" fill="#8F8555" stroke="black" stroke-width="1.5"/>
<rect x="24.7321" y="23.4072" width="17.5" height="59.5" transform="rotate(-1 24.7321 23.4072)" fill="#8F8555" stroke="black" stroke-width="1.5"/>
<rect x="48.1889" y="22.9609" width="17.5" height="53.5" transform="rotate(2 48.1889 22.9609)" fill="#8F8555" stroke="black" stroke-width="1.5"/>
<rect x="68.7321" y="23.4072" width="17.5" height="59.5" transform="rotate(-1 68.7321 23.4072)" fill="#8F8555" stroke="black" stroke-width="1.5"/>
<rect x="9.57715" y="3.00767" width="71.5" height="17.5" transform="rotate(2 9.57715 3.00767)" fill="#8F8555" stroke="black" stroke-width="1.5"/>
<mask id="path-7-outside-1_43_437" maskUnits="userSpaceOnUse" x="-67" y="-67" width="159" height="134" fill="black">
<rect fill="white" x="-67" y="-67" width="159" height="134"/>
<path fill-rule="evenodd" clip-rule="evenodd" d="M0 65C-35.8985 65 -65 35.8985 -65 0C-65 -35.8985 -35.8985 -65 0 -65C35.8985 -65 65 -35.8985 65 0C65 8.85901 63.2277 17.3041 60.0184 25H90V35H54.7818C49.6263 43.0527 42.7438 49.8935 34.6569 55H90V65H0ZM0 55C17.0794 55 32.3405 47.215 42.4284 35H0C-19.33 35 -35 19.33 -35 0C-35 -19.33 -19.33 -35 0 -35C19.33 -35 35 -19.33 35 0C35 9.79344 30.9777 18.6474 24.4949 25H49.0029C52.8372 17.4993 55 9.00224 55 0C55 -30.3757 30.3757 -55 0 -55C-30.3757 -55 -55 -30.3757 -55 0C-55 30.3757 -30.3757 55 0 55ZM25 0C25 13.8071 13.8071 25 0 25C-13.8071 25 -25 13.8071 -25 0C-25 -13.8071 -13.8071 -25 0 -25C13.8071 -25 25 -13.8071 25 0Z"/>
</mask>
<path fill-rule="evenodd" clip-rule="evenodd" d="M0 65C-35.8985 65 -65 35.8985 -65 0C-65 -35.8985 -35.8985 -65 0 -65C35.8985 -65 65 -35.8985 65 0C65 8.85901 63.2277 17.3041 60.0184 25H90V35H54.7818C49.6263 43.0527 42.7438 49.8935 34.6569 55H90V65H0ZM0 55C17.0794 55 32.3405 47.215 42.4284 35H0C-19.33 35 -35 19.33 -35 0C-35 -19.33 -19.33 -35 0 -35C19.33 -35 35 -19.33 35 0C35 9.79344 30.9777 18.6474 24.4949 25H49.0029C52.8372 17.4993 55 9.00224 55 0C55 -30.3757 30.3757 -55 0 -55C-30.3757 -55 -55 -30.3757 -55 0C-55 30.3757 -30.3757 55 0 55ZM25 0C25 13.8071 13.8071 25 0 25C-13.8071 25 -25 13.8071 -25 0C-25 -13.8071 -13.8071 -25 0 -25C13.8071 -25 25 -13.8071 25 0Z" fill="#E2F5FF"/>
<path d="M60.0184 25L58.6339 24.4227L57.7676 26.5H60.0184V25ZM90 25H91.5V23.5H90V25ZM90 35V36.5H91.5V35H90ZM54.7818 35V33.5H53.9611L53.5185 34.1912L54.7818 35ZM34.6569 55L33.856 53.7317L29.4719 56.5H34.6569V55ZM90 55H91.5V53.5H90V55ZM90 65V66.5H91.5V65H90ZM42.4284 35L43.585 35.9552L45.6126 33.5H42.4284V35ZM24.4949 25L23.4451 23.9286L20.821 26.5H24.4949V25ZM49.0029 25V26.5H49.9207L50.3385 25.6828L49.0029 25ZM-66.5 0C-66.5 36.7269 -36.7269 66.5 0 66.5V63.5C-35.0701 63.5 -63.5 35.0701 -63.5 0H-66.5ZM0 -66.5C-36.7269 -66.5 -66.5 -36.7269 -66.5 0H-63.5C-63.5 -35.0701 -35.0701 -63.5 0 -63.5V-66.5ZM66.5 0C66.5 -36.7269 36.7269 -66.5 0 -66.5V-63.5C35.0701 -63.5 63.5 -35.0701 63.5 0H66.5ZM61.4028 25.5773C64.6871 17.7017 66.5 9.06068 66.5 0H63.5C63.5 8.65733 61.7683 16.9064 58.6339 24.4227L61.4028 25.5773ZM60.0184 26.5H90V23.5H60.0184V26.5ZM88.5 25V35H91.5V25H88.5ZM90 33.5H54.7818V36.5H90V33.5ZM35.4577 56.2683C43.7307 51.0444 50.771 44.0466 56.0451 35.8088L53.5185 34.1912C48.4815 42.0587 41.7569 48.7427 33.856 53.7317L35.4577 56.2683ZM34.6569 56.5H90V53.5H34.6569V56.5ZM88.5 55V65H91.5V55H88.5ZM90 63.5H0V66.5H90V63.5ZM0 56.5C17.5457 56.5 33.2243 48.5004 43.585 35.9552L41.2718 34.0448C31.4566 45.9296 16.613 53.5 0 53.5V56.5ZM42.4284 33.5H0V36.5H42.4284V33.5ZM0 33.5C-18.5015 33.5 -33.5 18.5015 -33.5 0H-36.5C-36.5 20.1584 -20.1584 36.5 0 36.5V33.5ZM-33.5 0C-33.5 -18.5015 -18.5015 -33.5 0 -33.5V-36.5C-20.1584 -36.5 -36.5 -20.1584 -36.5 0H-33.5ZM0 -33.5C18.5015 -33.5 33.5 -18.5015 33.5 0H36.5C36.5 -20.1584 20.1584 -36.5 0 -36.5V-33.5ZM33.5 0C33.5 9.37404 29.6518 17.8466 23.4451 23.9286L25.5448 26.0714C32.3036 19.4483 36.5 10.2128 36.5 0H33.5ZM24.4949 26.5H49.0029V23.5H24.4949V26.5ZM50.3385 25.6828C54.2784 17.9756 56.5 9.24507 56.5 0H53.5C53.5 8.7594 51.3961 17.023 47.6673 24.3172L50.3385 25.6828ZM56.5 0C56.5 -31.2041 31.2041 -56.5 0 -56.5V-53.5C29.5472 -53.5 53.5 -29.5472 53.5 0H56.5ZM0 -56.5C-31.2041 -56.5 -56.5 -31.2041 -56.5 0H-53.5C-53.5 -29.5472 -29.5472 -53.5 0 -53.5V-56.5ZM-56.5 0C-56.5 31.2041 -31.2041 56.5 0 56.5V53.5C-29.5472 53.5 -53.5 29.5472 -53.5 0H-56.5ZM0 26.5C14.6355 26.5 26.5 14.6355 26.5 0H23.5C23.5 12.9787 12.9787 23.5 0 23.5V26.5ZM-26.5 0C-26.5 14.6355 -14.6355 26.5 0 26.5V23.5C-12.9787 23.5 -23.5 12.9787 -23.5 0H-26.5ZM0 -26.5C-14.6355 -26.5 -26.5 -14.6355 -26.5 0H-23.5C-23.5 -12.9787 -12.9787 -23.5 0 -23.5V-26.5ZM26.5 0C26.5 -14.6355 14.6355 -26.5 0 -26.5V-23.5C12.9787 -23.5 23.5 -12.9787 23.5 0H26.5Z" fill="black" mask="url(#path-7-outside-1_43_437)"/>
</g>
</svg>
