<svg width="90" height="90" viewBox="0 0 90 90" fill="none" xmlns="http://www.w3.org/2000/svg">
<mask id="mask0_43_301" style="mask-type:alpha" maskUnits="userSpaceOnUse" x="0" y="0" width="90" height="90">
<rect width="90" height="90" fill="#D9D9D9"/>
</mask>
<g mask="url(#mask0_43_301)">
<rect x="1.23992" y="63.1562" width="47.5" height="11.5" transform="rotate(-75 1.23992 63.1562)" fill="#8F8555" stroke="black" stroke-width="1.5"/>
<rect x="0.353556" y="77.2721" width="71.5" height="17.5" transform="rotate(-45 0.353556 77.2721)" fill="#8F8555" stroke="black" stroke-width="1.5"/>
<rect x="-63.2861" y="140.912" width="71.5" height="17.5" transform="rotate(-45 -63.2861 140.912)" fill="#8F8555" stroke="black" stroke-width="1.5"/>
<rect x="23.8673" y="77.6519" width="47.5" height="11.5" transform="rotate(-15 23.8673 77.6519)" fill="#8F8555" stroke="black" stroke-width="1.5"/>
<mask id="path-6-outside-1_43_301" maskUnits="userSpaceOnUse" x="-37" y="53" width="74" height="74" fill="black">
<rect fill="white" x="-37" y="53" width="74" height="74"/>
<path fill-rule="evenodd" clip-rule="evenodd" d="M0 125C19.33 125 35 109.33 35 90C35 70.67 19.33 55 0 55C-19.33 55 -35 70.67 -35 90C-35 109.33 -19.33 125 0 125ZM0 115C13.8071 115 25 103.807 25 90C25 76.1929 13.8071 65 0 65C-13.8071 65 -25 76.1929 -25 90C-25 103.807 -13.8071 115 0 115Z"/>
</mask>
<path fill-rule="evenodd" clip-rule="evenodd" d="M0 125C19.33 125 35 109.33 35 90C35 70.67 19.33 55 0 55C-19.33 55 -35 70.67 -35 90C-35 109.33 -19.33 125 0 125ZM0 115C13.8071 115 25 103.807 25 90C25 76.1929 13.8071 65 0 65C-13.8071 65 -25 76.1929 -25 90C-25 103.807 -13.8071 115 0 115Z" fill="#E2F5FF"/>
<path d="M33.5 90C33.5 108.502 18.5015 123.5 0 123.5V126.5C20.1584 126.5 36.5 110.158 36.5 90H33.5ZM0 56.5C18.5015 56.5 33.5 71.4985 33.5 90H36.5C36.5 69.8416 20.1584 53.5 0 53.5V56.5ZM-33.5 90C-33.5 71.4985 -18.5015 56.5 0 56.5V53.5C-20.1584 53.5 -36.5 69.8416 -36.5 90H-33.5ZM0 123.5C-18.5015 123.5 -33.5 108.502 -33.5 90H-36.5C-36.5 110.158 -20.1584 126.5 0 126.5V123.5ZM23.5 90C23.5 102.979 12.9787 113.5 0 113.5V116.5C14.6355 116.5 26.5 104.636 26.5 90H23.5ZM0 66.5C12.9787 66.5 23.5 77.0213 23.5 90H26.5C26.5 75.3645 14.6355 63.5 0 63.5V66.5ZM-23.5 90C-23.5 77.0213 -12.9787 66.5 0 66.5V63.5C-14.6355 63.5 -26.5 75.3645 -26.5 90H-23.5ZM0 113.5C-12.9787 113.5 -23.5 102.979 -23.5 90H-26.5C-26.5 104.636 -14.6355 116.5 0 116.5V113.5Z" fill="black" mask="url(#path-6-outside-1_43_301)"/>
<mask id="path-8-outside-2_43_301" maskUnits="userSpaceOnUse" x="-67" y="23" width="134" height="134" fill="black">
<rect fill="white" x="-67" y="23" width="134" height="134"/>
<path fill-rule="evenodd" clip-rule="evenodd" d="M0 155C35.8985 155 65 125.899 65 90C65 54.1015 35.8985 25 0 25C-35.8985 25 -65 54.1015 -65 90C-65 125.899 -35.8985 155 0 155ZM0 145C30.3757 145 55 120.376 55 90C55 59.6243 30.3757 35 0 35C-30.3757 35 -55 59.6243 -55 90C-55 120.376 -30.3757 145 0 145Z"/>
</mask>
<path fill-rule="evenodd" clip-rule="evenodd" d="M0 155C35.8985 155 65 125.899 65 90C65 54.1015 35.8985 25 0 25C-35.8985 25 -65 54.1015 -65 90C-65 125.899 -35.8985 155 0 155ZM0 145C30.3757 145 55 120.376 55 90C55 59.6243 30.3757 35 0 35C-30.3757 35 -55 59.6243 -55 90C-55 120.376 -30.3757 145 0 145Z" fill="#E2F5FF"/>
<path d="M63.5 90C63.5 125.07 35.0701 153.5 0 153.5V156.5C36.7269 156.5 66.5 126.727 66.5 90H63.5ZM0 26.5C35.0701 26.5 63.5 54.9299 63.5 90H66.5C66.5 53.2731 36.7269 23.5 0 23.5V26.5ZM-63.5 90C-63.5 54.9299 -35.0701 26.5 0 26.5V23.5C-36.7269 23.5 -66.5 53.2731 -66.5 90H-63.5ZM0 153.5C-35.0701 153.5 -63.5 125.07 -63.5 90H-66.5C-66.5 126.727 -36.7269 156.5 0 156.5V153.5ZM53.5 90C53.5 119.547 29.5472 143.5 0 143.5V146.5C31.2041 146.5 56.5 121.204 56.5 90H53.5ZM0 36.5C29.5472 36.5 53.5 60.4528 53.5 90H56.5C56.5 58.7959 31.2041 33.5 0 33.5V36.5ZM-53.5 90C-53.5 60.4528 -29.5472 36.5 0 36.5V33.5C-31.2041 33.5 -56.5 58.7959 -56.5 90H-53.5ZM0 143.5C-29.5472 143.5 -53.5 119.547 -53.5 90H-56.5C-56.5 121.204 -31.2041 146.5 0 146.5V143.5Z" fill="black" mask="url(#path-8-outside-2_43_301)"/>
</g>
</svg>
