<svg width="90" height="90" viewBox="0 0 90 90" fill="none" xmlns="http://www.w3.org/2000/svg">
<mask id="mask0_80_37" style="mask-type:alpha" maskUnits="userSpaceOnUse" x="0" y="0" width="90" height="90">
<rect width="90" height="90" fill="#D9D9D9"/>
</mask>
<g mask="url(#mask0_80_37)">
<rect x="1.25" y="18.25" width="87.5" height="53.5" rx="5.75" fill="#E2F5FF" stroke="black" stroke-width="1.5"/>
<rect x="5.25" y="22.25" width="79.5" height="45.5" rx="1.75" fill="#E2F5FF" stroke="black" stroke-width="1.5"/>
<rect x="9.25" y="25.25" width="25.5" height="5.5" rx="1.75" fill="#00FF00" stroke="black" stroke-width="1.5"/>
<rect x="38.25" y="24.25" width="43.5" height="31.5" rx="1.75" fill="#00FF00" stroke="black" stroke-width="1.5"/>
<mask id="path-6-outside-1_80_37" maskUnits="userSpaceOnUse" x="54" y="33" width="10" height="16" fill="black">
<rect fill="white" x="54" y="33" width="10" height="16"/>
<path d="M56.1448 37.118C56.4928 36.974 56.8528 36.812 57.2248 36.632C57.6088 36.44 57.9808 36.236 58.3408 36.02C58.7008 35.792 59.0428 35.558 59.3668 35.318C59.7028 35.066 60.0028 34.802 60.2668 34.526H62.1388V47H59.4568V38.018C59.0968 38.258 58.6948 38.48 58.2508 38.684C57.8068 38.876 57.3748 39.044 56.9548 39.188L56.1448 37.118Z"/>
</mask>
<path d="M56.1448 37.118C56.4928 36.974 56.8528 36.812 57.2248 36.632C57.6088 36.44 57.9808 36.236 58.3408 36.02C58.7008 35.792 59.0428 35.558 59.3668 35.318C59.7028 35.066 60.0028 34.802 60.2668 34.526H62.1388V47H59.4568V38.018C59.0968 38.258 58.6948 38.48 58.2508 38.684C57.8068 38.876 57.3748 39.044 56.9548 39.188L56.1448 37.118Z" fill="white"/>
<path d="M56.1448 37.118L55.5712 35.732L54.2118 36.2945L54.7479 37.6646L56.1448 37.118ZM57.2248 36.632L57.8781 37.9822L57.8869 37.978L57.8956 37.9736L57.2248 36.632ZM58.3408 36.02L59.1125 37.3062L59.128 37.2969L59.1433 37.2872L58.3408 36.02ZM59.3668 35.318L60.2596 36.5234L60.2668 36.518L59.3668 35.318ZM60.2668 34.526V33.026H59.6258L59.1828 33.4892L60.2668 34.526ZM62.1388 34.526H63.6388V33.026H62.1388V34.526ZM62.1388 47V48.5H63.6388V47H62.1388ZM59.4568 47H57.9568V48.5H59.4568V47ZM59.4568 38.018H60.9568V35.2152L58.6247 36.7699L59.4568 38.018ZM58.2508 38.684L58.8461 40.0608L58.8617 40.0541L58.877 40.047L58.2508 38.684ZM56.9548 39.188L55.5579 39.7346L56.0817 41.0731L57.4413 40.6069L56.9548 39.188ZM56.7183 38.504C57.0957 38.3479 57.4823 38.1737 57.8781 37.9822L56.5714 35.2818C56.2232 35.4503 55.8898 35.6001 55.5712 35.732L56.7183 38.504ZM57.8956 37.9736C58.3132 37.7649 58.7189 37.5424 59.1125 37.3062L57.569 34.7338C57.2427 34.9296 56.9044 35.1151 56.5539 35.2904L57.8956 37.9736ZM59.1433 37.2872C59.5324 37.0408 59.9047 36.7862 60.2596 36.5233L58.4739 34.1127C58.1808 34.3298 57.8691 34.5432 57.5382 34.7528L59.1433 37.2872ZM60.2668 36.518C60.662 36.2215 61.0247 35.9037 61.3507 35.5628L59.1828 33.4892C58.9808 33.7003 58.7435 33.9104 58.4668 34.118L60.2668 36.518ZM60.2668 36.026H62.1388V33.026H60.2668V36.026ZM60.6388 34.526V47H63.6388V34.526H60.6388ZM62.1388 45.5H59.4568V48.5H62.1388V45.5ZM60.9568 47V38.018H57.9568V47H60.9568ZM58.6247 36.7699C58.3379 36.9611 58.006 37.1457 57.6245 37.321L58.877 40.047C59.3835 39.8143 59.8556 39.5549 60.2888 39.2661L58.6247 36.7699ZM57.6554 37.3072C57.244 37.4851 56.8484 37.6388 56.4683 37.7691L57.4413 40.6069C57.9012 40.4492 58.3695 40.2669 58.8461 40.0608L57.6554 37.3072ZM58.3516 38.6414L57.5416 36.5714L54.7479 37.6646L55.5579 39.7346L58.3516 38.6414Z" fill="black" mask="url(#path-6-outside-1_80_37)"/>
</g>
</svg>
