<svg width="90" height="90" viewBox="0 0 90 90" fill="none" xmlns="http://www.w3.org/2000/svg">
<mask id="mask0_18_63" style="mask-type:alpha" maskUnits="userSpaceOnUse" x="0" y="0" width="90" height="90">
<rect width="90" height="90" fill="#D9D9D9"/>
</mask>
<g mask="url(#mask0_18_63)">
<rect x="16.25" y="16.25" width="11.5" height="57.5" fill="#CB8263" stroke="black" stroke-width="1.5"/>
<rect x="62.25" y="16.25" width="11.5" height="57.5" fill="#CB8263" stroke="black" stroke-width="1.5"/>
<mask id="path-4-outside-1_18_63" maskUnits="userSpaceOnUse" x="-2" y="23" width="159" height="134" fill="black">
<rect fill="white" x="-2" y="23" width="159" height="134"/>
<path fill-rule="evenodd" clip-rule="evenodd" d="M90 25H0V35H55.3431C47.2562 40.1065 40.3737 46.9473 35.2182 55H0V65H29.9816C26.7723 72.6959 25 81.141 25 90C25 125.899 54.1015 155 90 155C125.899 155 155 125.899 155 90C155 54.1015 125.899 25 90 25ZM40.9971 65C37.1628 72.5007 35 80.9978 35 90C35 120.376 59.6243 145 90 145C120.376 145 145 120.376 145 90C145 59.6243 120.376 35 90 35C72.9206 35 57.6595 42.785 47.5716 55H90C109.33 55 125 70.67 125 90C125 109.33 109.33 125 90 125C70.67 125 55 109.33 55 90C55 80.2066 59.0223 71.3526 65.5051 65H40.9971ZM65 90C65 76.1929 76.1929 65 90 65C103.807 65 115 76.1929 115 90C115 103.807 103.807 115 90 115C76.1929 115 65 103.807 65 90Z"/>
</mask>
<path fill-rule="evenodd" clip-rule="evenodd" d="M90 25H0V35H55.3431C47.2562 40.1065 40.3737 46.9473 35.2182 55H0V65H29.9816C26.7723 72.6959 25 81.141 25 90C25 125.899 54.1015 155 90 155C125.899 155 155 125.899 155 90C155 54.1015 125.899 25 90 25ZM40.9971 65C37.1628 72.5007 35 80.9978 35 90C35 120.376 59.6243 145 90 145C120.376 145 145 120.376 145 90C145 59.6243 120.376 35 90 35C72.9206 35 57.6595 42.785 47.5716 55H90C109.33 55 125 70.67 125 90C125 109.33 109.33 125 90 125C70.67 125 55 109.33 55 90C55 80.2066 59.0223 71.3526 65.5051 65H40.9971ZM65 90C65 76.1929 76.1929 65 90 65C103.807 65 115 76.1929 115 90C115 103.807 103.807 115 90 115C76.1929 115 65 103.807 65 90Z" fill="#E2F5FF"/>
<path d="M0 25V23.5H-1.5V25H0ZM0 35H-1.5V36.5H0V35ZM55.3431 35L56.144 36.2683L60.5281 33.5H55.3431V35ZM35.2182 55V56.5H36.0389L36.4815 55.8088L35.2182 55ZM0 55V53.5H-1.5V55H0ZM0 65H-1.5V66.5H0V65ZM29.9816 65L31.3661 65.5773L32.2324 63.5H29.9816V65ZM40.9971 65V63.5H40.0793L39.6615 64.3172L40.9971 65ZM47.5716 55L46.4151 54.0448L44.3874 56.5H47.5716V55ZM65.5051 65L66.5549 66.0714L69.179 63.5H65.5051V65ZM0 26.5H90V23.5H0V26.5ZM1.5 35V25H-1.5V35H1.5ZM55.3431 33.5H0V36.5H55.3431V33.5ZM54.5423 33.7317C46.2693 38.9556 39.229 45.9534 33.9549 54.1912L36.4815 55.8088C41.5185 47.9413 48.2431 41.2573 56.144 36.2683L54.5423 33.7317ZM0 56.5H35.2182V53.5H0V56.5ZM1.5 65V55H-1.5V65H1.5ZM29.9816 63.5H0V66.5H29.9816V63.5ZM28.5972 64.4227C25.3129 72.2983 23.5 80.9393 23.5 90H26.5C26.5 81.3427 28.2317 73.0936 31.3661 65.5773L28.5972 64.4227ZM23.5 90C23.5 126.727 53.2731 156.5 90 156.5V153.5C54.9299 153.5 26.5 125.07 26.5 90H23.5ZM90 156.5C126.727 156.5 156.5 126.727 156.5 90H153.5C153.5 125.07 125.07 153.5 90 153.5V156.5ZM156.5 90C156.5 53.2731 126.727 23.5 90 23.5V26.5C125.07 26.5 153.5 54.9299 153.5 90H156.5ZM39.6615 64.3172C35.7216 72.0244 33.5 80.7549 33.5 90H36.5C36.5 81.2406 38.6039 72.977 42.3327 65.6828L39.6615 64.3172ZM33.5 90C33.5 121.204 58.7959 146.5 90 146.5V143.5C60.4528 143.5 36.5 119.547 36.5 90H33.5ZM90 146.5C121.204 146.5 146.5 121.204 146.5 90H143.5C143.5 119.547 119.547 143.5 90 143.5V146.5ZM146.5 90C146.5 58.7959 121.204 33.5 90 33.5V36.5C119.547 36.5 143.5 60.4528 143.5 90H146.5ZM90 33.5C72.4543 33.5 56.7757 41.4996 46.4151 54.0448L48.7282 55.9552C58.5434 44.0704 73.387 36.5 90 36.5V33.5ZM47.5716 56.5H90V53.5H47.5716V56.5ZM90 56.5C108.502 56.5 123.5 71.4985 123.5 90H126.5C126.5 69.8416 110.158 53.5 90 53.5V56.5ZM123.5 90C123.5 108.502 108.502 123.5 90 123.5V126.5C110.158 126.5 126.5 110.158 126.5 90H123.5ZM90 123.5C71.4985 123.5 56.5 108.502 56.5 90H53.5C53.5 110.158 69.8416 126.5 90 126.5V123.5ZM56.5 90C56.5 80.626 60.3482 72.1534 66.5549 66.0714L64.4552 63.9286C57.6964 70.5517 53.5 79.7872 53.5 90H56.5ZM65.5051 63.5H40.9971V66.5H65.5051V63.5ZM90 63.5C75.3644 63.5 63.5 75.3645 63.5 90H66.5C66.5 77.0213 77.0213 66.5 90 66.5V63.5ZM116.5 90C116.5 75.3645 104.636 63.5 90 63.5V66.5C102.979 66.5 113.5 77.0213 113.5 90H116.5ZM90 116.5C104.636 116.5 116.5 104.636 116.5 90H113.5C113.5 102.979 102.979 113.5 90 113.5V116.5ZM63.5 90C63.5 104.636 75.3644 116.5 90 116.5V113.5C77.0213 113.5 66.5 102.979 66.5 90H63.5Z" fill="black" mask="url(#path-4-outside-1_18_63)"/>
</g>
</svg>
