<svg width="90" height="90" viewBox="0 0 90 90" fill="none" xmlns="http://www.w3.org/2000/svg">
<mask id="mask0_44_552" style="mask-type:alpha" maskUnits="userSpaceOnUse" x="0" y="0" width="90" height="90">
<rect width="90" height="90" fill="#D9D9D9"/>
</mask>
<g mask="url(#mask0_44_552)">
<path fill-rule="evenodd" clip-rule="evenodd" d="M76 67C78.7614 67 81 64.7614 81 62V28C81 25.2386 78.7614 23 76 23H19C16.2386 23 14 25.2386 14 28V45V62C14 64.7614 16.2386 67 19 67H76ZM32.6 52.8C31.9408 53.2944 31 52.824 31 52V38C31 37.176 31.9408 36.7056 32.6 37.2L41.9333 44.2C42.4667 44.6 42.4667 45.4 41.9333 45.8L32.6 52.8Z" fill="#D6592C"/>
<path d="M32.6 37.2C31.9408 36.7056 31 37.176 31 38V52C31 52.824 31.9408 53.2944 32.6 52.8L41.9333 45.8C42.4667 45.4 42.4667 44.6 41.9333 44.2L32.6 37.2Z" fill="white"/>
<path fill-rule="evenodd" clip-rule="evenodd" d="M76 67C78.7614 67 81 64.7614 81 62V28C81 25.2386 78.7614 23 76 23H19C16.2386 23 14 25.2386 14 28V45V62C14 64.7614 16.2386 67 19 67H76ZM32.6 52.8C31.9408 53.2944 31 52.824 31 52V38C31 37.176 31.9408 36.7056 32.6 37.2L41.9333 44.2C42.4667 44.6 42.4667 45.4 41.9333 45.8L32.6 52.8Z" stroke="black" stroke-width="1.5"/>
<path d="M32.6 37.2C31.9408 36.7056 31 37.176 31 38V52C31 52.824 31.9408 53.2944 32.6 52.8L41.9333 45.8C42.4667 45.4 42.4667 44.6 41.9333 44.2L32.6 37.2Z" stroke="black" stroke-width="1.5"/>
<mask id="path-3-outside-1_44_552" maskUnits="userSpaceOnUse" x="51" y="37" width="21" height="16" fill="black">
<rect fill="white" x="51" y="37" width="21" height="16"/>
<path d="M58.1 46.8955C58.5833 46.8955 59.0083 46.7872 59.375 46.5705C59.7583 46.3538 60.075 45.9788 60.325 45.4455C60.575 44.9122 60.7667 44.1955 60.9 43.2955C61.0333 42.3955 61.1 41.2622 61.1 39.8955C62.65 40.0788 64.225 40.2288 65.825 40.3455C67.425 40.4622 68.925 40.5538 70.325 40.6205V49.9955H67.2V43.7455C66.6 43.7122 66.0167 43.6705 65.45 43.6205C64.9 43.5872 64.4167 43.5455 64 43.4955C63.8333 45.9288 63.2583 47.7205 62.275 48.8705C61.3083 50.0372 59.9583 50.6205 58.225 50.6205C57.425 50.6205 56.6833 50.4788 56 50.1955C55.3167 49.9122 54.725 49.4872 54.225 48.9205C53.725 48.3538 53.3333 47.6372 53.05 46.7705C52.7667 45.9205 52.625 44.9205 52.625 43.7705C52.625 43.3205 52.6583 42.8455 52.725 42.3455C52.775 41.8622 52.85 41.3872 52.95 40.9205C53.0333 40.4705 53.125 40.0622 53.225 39.6955C53.325 39.3288 53.425 39.0455 53.525 38.8455L56.6 39.5205C56.4167 39.9372 56.2333 40.4872 56.05 41.1705C55.8833 41.8538 55.8 42.6705 55.8 43.6205C55.8 44.7705 56.025 45.6038 56.475 46.1205C56.9417 46.6372 57.4833 46.8955 58.1 46.8955Z"/>
</mask>
<path d="M58.1 46.8955C58.5833 46.8955 59.0083 46.7872 59.375 46.5705C59.7583 46.3538 60.075 45.9788 60.325 45.4455C60.575 44.9122 60.7667 44.1955 60.9 43.2955C61.0333 42.3955 61.1 41.2622 61.1 39.8955C62.65 40.0788 64.225 40.2288 65.825 40.3455C67.425 40.4622 68.925 40.5538 70.325 40.6205V49.9955H67.2V43.7455C66.6 43.7122 66.0167 43.6705 65.45 43.6205C64.9 43.5872 64.4167 43.5455 64 43.4955C63.8333 45.9288 63.2583 47.7205 62.275 48.8705C61.3083 50.0372 59.9583 50.6205 58.225 50.6205C57.425 50.6205 56.6833 50.4788 56 50.1955C55.3167 49.9122 54.725 49.4872 54.225 48.9205C53.725 48.3538 53.3333 47.6372 53.05 46.7705C52.7667 45.9205 52.625 44.9205 52.625 43.7705C52.625 43.3205 52.6583 42.8455 52.725 42.3455C52.775 41.8622 52.85 41.3872 52.95 40.9205C53.0333 40.4705 53.125 40.0622 53.225 39.6955C53.325 39.3288 53.425 39.0455 53.525 38.8455L56.6 39.5205C56.4167 39.9372 56.2333 40.4872 56.05 41.1705C55.8833 41.8538 55.8 42.6705 55.8 43.6205C55.8 44.7705 56.025 45.6038 56.475 46.1205C56.9417 46.6372 57.4833 46.8955 58.1 46.8955Z" fill="white"/>
<path d="M59.375 46.5705L58.6369 45.2647L58.6243 45.2718L58.6119 45.2791L59.375 46.5705ZM60.325 45.4455L58.9668 44.8089V44.8089L60.325 45.4455ZM60.9 43.2955L62.3838 43.5153L60.9 43.2955ZM61.1 39.8955L61.2762 38.4059L59.6 38.2076V39.8955H61.1ZM65.825 40.3455L65.7159 41.8415L65.825 40.3455ZM70.325 40.6205H71.825V39.1902L70.3963 39.1222L70.325 40.6205ZM70.325 49.9955V51.4955H71.825V49.9955H70.325ZM67.2 49.9955H65.7V51.4955H67.2V49.9955ZM67.2 43.7455H68.7V42.3265L67.2832 42.2478L67.2 43.7455ZM65.45 43.6205L65.5818 42.1263L65.5613 42.1245L65.5407 42.1233L65.45 43.6205ZM64 43.4955L64.1787 42.0062L62.6114 41.8181L62.5035 43.393L64 43.4955ZM62.275 48.8705L61.1349 47.8957L61.1274 47.9045L61.12 47.9135L62.275 48.8705ZM56 50.1955L55.4255 51.5811L56 50.1955ZM53.05 46.7705L54.4758 46.3044L54.473 46.2962L53.05 46.7705ZM52.725 42.3455L54.2118 42.5438L54.2148 42.5218L54.217 42.4999L52.725 42.3455ZM52.95 40.9205L54.4167 41.2348L54.4211 41.2143L54.4249 41.1936L52.95 40.9205ZM53.225 39.6955L54.6721 40.0902L53.225 39.6955ZM53.525 38.8455L53.8466 37.3804L52.7057 37.13L52.1834 38.1747L53.525 38.8455ZM56.6 39.5205L57.973 40.1246L58.7106 38.4481L56.9216 38.0554L56.6 39.5205ZM56.05 41.1705L54.6012 40.7818L54.5968 40.7984L54.5927 40.8151L56.05 41.1705ZM56.475 46.1205L55.3439 47.1057L55.3528 47.1159L55.3618 47.1259L56.475 46.1205ZM58.1 48.3955C58.8149 48.3955 59.5105 48.2328 60.1381 47.8619L58.6119 45.2791C58.5062 45.3416 58.3518 45.3955 58.1 45.3955V48.3955ZM60.1131 47.8764C60.8457 47.4623 61.345 46.8036 61.6832 46.0822L58.9668 44.8089C58.805 45.154 58.671 45.2454 58.6369 45.2647L60.1131 47.8764ZM61.6832 46.0822C62.0191 45.3654 62.2394 44.4902 62.3838 43.5153L59.4162 43.0757C59.294 43.9008 59.1309 44.4589 58.9668 44.8089L61.6832 46.0822ZM62.3838 43.5153C62.5318 42.5162 62.6 41.3031 62.6 39.8955H59.6C59.6 41.2212 59.5348 42.2748 59.4162 43.0757L62.3838 43.5153ZM60.9238 41.3851C62.4967 41.5712 64.0941 41.7233 65.7159 41.8415L65.9341 38.8495C64.3559 38.7344 62.8033 38.5865 61.2762 38.4059L60.9238 41.3851ZM65.7159 41.8415C67.3267 41.959 68.8394 42.0515 70.2537 42.1188L70.3963 39.1222C69.0106 39.0562 67.5233 38.9654 65.9341 38.8495L65.7159 41.8415ZM68.825 40.6205V49.9955H71.825V40.6205H68.825ZM70.325 48.4955H67.2V51.4955H70.325V48.4955ZM68.7 49.9955V43.7455H65.7V49.9955H68.7ZM67.2832 42.2478C66.6985 42.2153 66.1314 42.1748 65.5818 42.1263L65.3182 45.1147C65.9019 45.1662 66.5015 45.209 67.1168 45.2432L67.2832 42.2478ZM65.5407 42.1233C65.0116 42.0912 64.5588 42.0518 64.1787 42.0062L63.8213 44.9848C64.2746 45.0392 64.7884 45.0832 65.3593 45.1178L65.5407 42.1233ZM62.5035 43.393C62.3464 45.6863 61.8154 47.0999 61.1349 47.8957L63.4151 49.8453C64.7013 48.3411 65.3202 46.1714 65.4965 43.598L62.5035 43.393ZM61.12 47.9135C60.4813 48.6843 59.5838 49.1205 58.225 49.1205V52.1205C60.3329 52.1205 62.1354 51.39 63.43 49.8275L61.12 47.9135ZM58.225 49.1205C57.606 49.1205 57.0613 49.0117 56.5745 48.8099L55.4255 51.5811C56.3053 51.9459 57.244 52.1205 58.225 52.1205V49.1205ZM56.5745 48.8099C56.1068 48.616 55.702 48.3273 55.3498 47.9281L53.1002 49.9129C53.748 50.647 54.5265 51.2084 55.4255 51.5811L56.5745 48.8099ZM55.3498 47.9281C55.0097 47.5427 54.7084 47.0162 54.4757 46.3044L51.6243 47.2366C51.9582 48.2581 52.4403 49.165 53.1002 49.9129L55.3498 47.9281ZM54.473 46.2962C54.2528 45.6354 54.125 44.8026 54.125 43.7705H51.125C51.125 45.0384 51.2806 46.2056 51.627 47.2449L54.473 46.2962ZM54.125 43.7705C54.125 43.3942 54.1529 42.9858 54.2118 42.5438L51.2382 42.1473C51.1638 42.7052 51.125 43.2468 51.125 43.7705H54.125ZM54.217 42.4999C54.2616 42.0693 54.3282 41.6477 54.4167 41.2348L51.4833 40.6062C51.3718 41.1266 51.2884 41.6551 51.233 42.1912L54.217 42.4999ZM54.4249 41.1936C54.5022 40.7766 54.585 40.4096 54.6721 40.0902L51.7779 39.3008C51.665 39.7147 51.5645 40.1644 51.4751 40.6474L54.4249 41.1936ZM54.6721 40.0902C54.7615 39.7626 54.8309 39.5878 54.8666 39.5163L52.1834 38.1747C52.0191 38.5032 51.8885 38.8951 51.7779 39.3008L54.6721 40.0902ZM53.2034 40.3106L56.2784 40.9856L56.9216 38.0554L53.8466 37.3804L53.2034 40.3106ZM55.227 38.9164C55.0011 39.4299 54.7948 40.0604 54.6012 40.7818L57.4988 41.5592C57.6719 40.9139 57.8323 40.4444 57.973 40.1246L55.227 38.9164ZM54.5927 40.8151C54.3898 41.6472 54.3 42.5896 54.3 43.6205H57.3C57.3 42.7515 57.3769 42.0605 57.5073 41.5259L54.5927 40.8151ZM54.3 43.6205C54.3 44.9055 54.5403 46.1831 55.3439 47.1057L57.6061 45.1353C57.5097 45.0246 57.3 44.6355 57.3 43.6205H54.3ZM55.3618 47.1259C56.0722 47.9124 57.0019 48.3955 58.1 48.3955V45.3955C57.9647 45.3955 57.8111 45.3619 57.5882 45.1151L55.3618 47.1259Z" fill="black" mask="url(#path-3-outside-1_44_552)"/>
</g>
</svg>
