<svg width="90" height="90" viewBox="0 0 90 90" fill="none" xmlns="http://www.w3.org/2000/svg">
<mask id="mask0_45_589" style="mask-type:alpha" maskUnits="userSpaceOnUse" x="0" y="0" width="90" height="90">
<rect width="90" height="90" fill="#D9D9D9"/>
</mask>
<g mask="url(#mask0_45_589)">
<path fill-rule="evenodd" clip-rule="evenodd" d="M76 67C78.7614 67 81 64.7614 81 62V28C81 25.2386 78.7614 23 76 23H19C16.2386 23 14 25.2386 14 28V45V62C14 64.7614 16.2386 67 19 67H76ZM32.6 52.8C31.9408 53.2944 31 52.824 31 52V38C31 37.176 31.9408 36.7056 32.6 37.2L41.9333 44.2C42.4667 44.6 42.4667 45.4 41.9333 45.8L32.6 52.8Z" fill="#D6592C"/>
<path d="M32.6 37.2C31.9408 36.7056 31 37.176 31 38V52C31 52.824 31.9408 53.2944 32.6 52.8L41.9333 45.8C42.4667 45.4 42.4667 44.6 41.9333 44.2L32.6 37.2Z" fill="white"/>
<path fill-rule="evenodd" clip-rule="evenodd" d="M76 67C78.7614 67 81 64.7614 81 62V28C81 25.2386 78.7614 23 76 23H19C16.2386 23 14 25.2386 14 28V45V62C14 64.7614 16.2386 67 19 67H76ZM32.6 52.8C31.9408 53.2944 31 52.824 31 52V38C31 37.176 31.9408 36.7056 32.6 37.2L41.9333 44.2C42.4667 44.6 42.4667 45.4 41.9333 45.8L32.6 52.8Z" stroke="black" stroke-width="1.5"/>
<path d="M32.6 37.2C31.9408 36.7056 31 37.176 31 38V52C31 52.824 31.9408 53.2944 32.6 52.8L41.9333 45.8C42.4667 45.4 42.4667 44.6 41.9333 44.2L32.6 37.2Z" stroke="black" stroke-width="1.5"/>
<mask id="path-3-outside-1_45_589" maskUnits="userSpaceOnUse" x="51" y="32" width="21" height="28" fill="black">
<rect fill="white" x="51" y="32" width="21" height="28"/>
<path d="M70.325 34.0239V37.9239H53V34.0239H70.325ZM53 47.0841C54.45 46.4007 55.9583 45.7257 57.525 45.0591C59.0917 44.3924 60.6417 43.7591 62.175 43.1591C63.7083 42.5591 65.175 42.0007 66.575 41.4841C67.975 40.9841 69.225 40.5507 70.325 40.1841V44.4841C69.325 44.8174 68.2417 45.1757 67.075 45.5591C65.925 45.9591 64.775 46.3591 63.625 46.7591C62.475 47.1757 61.375 47.5757 60.325 47.9591C59.275 48.3424 58.3667 48.7007 57.6 49.0341C58.3667 49.3507 59.275 49.7007 60.325 50.0841C61.375 50.4841 62.475 50.8841 63.625 51.2841C64.775 51.7007 65.925 52.1007 67.075 52.4841C68.2417 52.8841 69.325 53.2507 70.325 53.5841V57.7341C69.225 57.3507 67.975 56.9091 66.575 56.4091C65.175 55.9091 63.7083 55.3591 62.175 54.7591C60.6417 54.1591 59.0917 53.5257 57.525 52.8591C55.9583 52.1924 54.45 51.5174 53 50.8341V47.0841Z"/>
</mask>
<path d="M70.325 34.0239V37.9239H53V34.0239H70.325ZM53 47.0841C54.45 46.4007 55.9583 45.7257 57.525 45.0591C59.0917 44.3924 60.6417 43.7591 62.175 43.1591C63.7083 42.5591 65.175 42.0007 66.575 41.4841C67.975 40.9841 69.225 40.5507 70.325 40.1841V44.4841C69.325 44.8174 68.2417 45.1757 67.075 45.5591C65.925 45.9591 64.775 46.3591 63.625 46.7591C62.475 47.1757 61.375 47.5757 60.325 47.9591C59.275 48.3424 58.3667 48.7007 57.6 49.0341C58.3667 49.3507 59.275 49.7007 60.325 50.0841C61.375 50.4841 62.475 50.8841 63.625 51.2841C64.775 51.7007 65.925 52.1007 67.075 52.4841C68.2417 52.8841 69.325 53.2507 70.325 53.5841V57.7341C69.225 57.3507 67.975 56.9091 66.575 56.4091C65.175 55.9091 63.7083 55.3591 62.175 54.7591C60.6417 54.1591 59.0917 53.5257 57.525 52.8591C55.9583 52.1924 54.45 51.5174 53 50.8341V47.0841Z" fill="white"/>
<path d="M70.325 34.0239H71.825V32.5239H70.325V34.0239ZM70.325 37.9239V39.4239H71.825V37.9239H70.325ZM53 37.9239H51.5V39.4239H53V37.9239ZM53 34.0239V32.5239H51.5V34.0239H53ZM68.825 34.0239V37.9239H71.825V34.0239H68.825ZM70.325 36.4239H53V39.4239H70.325V36.4239ZM54.5 37.9239V34.0239H51.5V37.9239H54.5ZM53 35.5239H70.325V32.5239H53V35.5239ZM53 47.0841L52.3606 45.7272L51.5 46.1328V47.0841H53ZM57.525 45.0591L58.1123 46.4393L57.525 45.0591ZM62.175 43.1591L62.7216 44.5559L62.175 43.1591ZM66.575 41.4841L66.0705 40.0715L66.0631 40.0741L66.0557 40.0769L66.575 41.4841ZM70.325 40.1841H71.825V38.1029L69.8507 38.7611L70.325 40.1841ZM70.325 44.4841L70.7993 45.9071L71.825 45.5652V44.4841H70.325ZM67.075 45.5591L66.6068 44.134L66.5945 44.1381L66.5822 44.1423L67.075 45.5591ZM63.625 46.7591L63.1322 45.3423L63.1231 45.3455L63.114 45.3488L63.625 46.7591ZM60.325 47.9591L60.8394 49.3681L60.325 47.9591ZM57.6 49.0341L57.0019 47.6585L53.7566 49.0695L57.0274 50.4205L57.6 49.0341ZM60.325 50.0841L60.859 48.6824L60.8492 48.6786L60.8394 48.675L60.325 50.0841ZM63.625 51.2841L64.136 49.8738L64.1269 49.8705L64.1178 49.8673L63.625 51.2841ZM67.075 52.4841L67.5615 51.0651L67.5493 51.0611L67.075 52.4841ZM70.325 53.5841H71.825V52.5029L70.7993 52.1611L70.325 53.5841ZM70.325 57.7341L69.8314 59.1505L71.825 59.8453V57.7341H70.325ZM66.575 56.4091L66.0705 57.8217L66.575 56.4091ZM62.175 54.7591L61.6284 56.1559L61.6284 56.1559L62.175 54.7591ZM57.525 52.8591L58.1123 51.4789L57.525 52.8591ZM53 50.8341H51.5V51.7854L52.3606 52.191L53 50.8341ZM53.6394 48.441C55.0712 47.7662 56.5621 47.099 58.1123 46.4393L56.9377 43.6789C55.3546 44.3525 53.8288 45.0353 52.3606 45.7272L53.6394 48.441ZM58.1123 46.4393C59.666 45.7782 61.2024 45.1504 62.7216 44.5559L61.6284 41.7622C60.081 42.3677 58.5174 43.0066 56.9377 43.6789L58.1123 46.4393ZM62.7216 44.5559C64.2468 43.9591 65.7043 43.4043 67.0943 42.8913L66.0557 40.0769C64.6457 40.5972 63.1699 41.159 61.6284 41.7622L62.7216 44.5559ZM67.0795 42.8967C68.4721 42.3993 69.7118 41.9696 70.7993 41.6071L69.8507 38.7611C68.7382 39.1319 67.4779 39.5688 66.0705 40.0715L67.0795 42.8967ZM68.825 40.1841V44.4841H71.825V40.1841H68.825ZM69.8507 43.0611C68.853 43.3936 67.7717 43.7513 66.6068 44.134L67.5432 46.9841C68.7116 46.6002 69.797 46.2412 70.7993 45.9071L69.8507 43.0611ZM66.5822 44.1423C65.4322 44.5423 64.2822 44.9423 63.1322 45.3423L64.1178 48.1758C65.2678 47.7758 66.4178 47.3758 67.5678 46.9758L66.5822 44.1423ZM63.114 45.3488C61.963 45.7658 60.8618 46.1663 59.8106 46.55L60.8394 49.3681C61.8882 48.9852 62.987 48.5857 64.136 48.1694L63.114 45.3488ZM59.8106 46.55C58.7411 46.9405 57.8035 47.31 57.0019 47.6585L58.1981 50.4097C58.9298 50.0915 59.8089 49.7443 60.8394 49.3681L59.8106 46.55ZM57.0274 50.4205C57.8186 50.7473 58.7472 51.1049 59.8106 51.4931L60.8394 48.675C59.8028 48.2966 58.9148 47.9542 58.1726 47.6477L57.0274 50.4205ZM59.791 51.4858C60.8557 51.8914 61.9695 52.2964 63.1322 52.7008L64.1178 49.8673C62.9805 49.4717 61.8943 49.0767 60.859 48.6824L59.791 51.4858ZM63.114 52.6944C64.2761 53.1154 65.4383 53.5196 66.6007 53.9071L67.5493 51.0611C66.4117 50.6819 65.2739 50.2861 64.136 49.8738L63.114 52.6944ZM66.5885 53.903C67.7586 54.3042 68.846 54.6722 69.8507 55.0071L70.7993 52.1611C69.804 51.8293 68.7248 51.464 67.5615 51.0652L66.5885 53.903ZM68.825 53.5841V57.7341H71.825V53.5841H68.825ZM70.8186 56.3176C69.7231 55.9359 68.4768 55.4955 67.0795 54.9965L66.0705 57.8217C67.4732 58.3227 68.7269 58.7656 69.8314 59.1505L70.8186 56.3176ZM67.0795 54.9965C65.695 54.502 64.2424 53.9573 62.7216 53.3622L61.6284 56.1559C63.1742 56.7608 64.655 57.3162 66.0705 57.8217L67.0795 54.9965ZM62.7216 53.3622C61.2024 52.7677 59.666 52.14 58.1123 51.4789L56.9377 54.2393C58.5174 54.9115 60.081 55.5504 61.6284 56.1559L62.7216 53.3622ZM58.1123 51.4789C56.5621 50.8192 55.0712 50.1519 53.6394 49.4772L52.3606 52.191C53.8288 52.8829 55.3546 53.5656 56.9377 54.2393L58.1123 51.4789ZM54.5 50.8341V47.0841H51.5V50.8341H54.5Z" fill="black" mask="url(#path-3-outside-1_45_589)"/>
</g>
</svg>
