<svg width="90" height="90" viewBox="0 0 90 90" fill="none" xmlns="http://www.w3.org/2000/svg">
<mask id="mask0_44_556" style="mask-type:alpha" maskUnits="userSpaceOnUse" x="0" y="0" width="90" height="90">
<rect width="90" height="90" fill="#D9D9D9"/>
</mask>
<g mask="url(#mask0_44_556)">
<path fill-rule="evenodd" clip-rule="evenodd" d="M76 67C78.7614 67 81 64.7614 81 62V28C81 25.2386 78.7614 23 76 23H19C16.2386 23 14 25.2386 14 28V45V62C14 64.7614 16.2386 67 19 67H76ZM32.6 52.8C31.9408 53.2944 31 52.824 31 52V38C31 37.176 31.9408 36.7056 32.6 37.2L41.9333 44.2C42.4667 44.6 42.4667 45.4 41.9333 45.8L32.6 52.8Z" fill="#D6592C"/>
<path d="M32.6 37.2C31.9408 36.7056 31 37.176 31 38V52C31 52.824 31.9408 53.2944 32.6 52.8L41.9333 45.8C42.4667 45.4 42.4667 44.6 41.9333 44.2L32.6 37.2Z" fill="white"/>
<path fill-rule="evenodd" clip-rule="evenodd" d="M76 67C78.7614 67 81 64.7614 81 62V28C81 25.2386 78.7614 23 76 23H19C16.2386 23 14 25.2386 14 28V45V62C14 64.7614 16.2386 67 19 67H76ZM32.6 52.8C31.9408 53.2944 31 52.824 31 52V38C31 37.176 31.9408 36.7056 32.6 37.2L41.9333 44.2C42.4667 44.6 42.4667 45.4 41.9333 45.8L32.6 52.8Z" stroke="black" stroke-width="1.5"/>
<path d="M32.6 37.2C31.9408 36.7056 31 37.176 31 38V52C31 52.824 31.9408 53.2944 32.6 52.8L41.9333 45.8C42.4667 45.4 42.4667 44.6 41.9333 44.2L32.6 37.2Z" stroke="black" stroke-width="1.5"/>
<mask id="path-3-outside-1_44_556" maskUnits="userSpaceOnUse" x="51" y="37" width="21" height="16" fill="black">
<rect fill="white" x="51" y="37" width="21" height="16"/>
<path d="M61.15 44.7455C61.15 44.3788 61.1167 43.9872 61.05 43.5705C60.9833 43.1538 60.8917 42.8288 60.775 42.5955C60.7083 42.5955 60.6083 42.5872 60.475 42.5705C60.3417 42.5705 60.225 42.5705 60.125 42.5705C59.525 42.5705 58.9583 42.6122 58.425 42.6955C57.8917 42.7788 57.425 42.9205 57.025 43.1205C56.625 43.3205 56.3083 43.5872 56.075 43.9205C55.8583 44.2538 55.75 44.6705 55.75 45.1705C55.75 45.5872 55.8333 45.9372 56 46.2205C56.1833 46.5205 56.4083 46.7622 56.675 46.9455C56.9417 47.1455 57.2333 47.2872 57.55 47.3705C57.8833 47.4705 58.2 47.5205 58.5 47.5205C59.35 47.5205 60 47.3038 60.45 46.8705C60.9167 46.4538 61.15 45.7455 61.15 44.7455ZM64.05 45.2205C64.05 46.3038 63.9 47.2205 63.6 47.9705C63.3167 48.7372 62.925 49.3622 62.425 49.8455C61.925 50.3288 61.3417 50.6788 60.675 50.8955C60.0083 51.1122 59.3 51.2205 58.55 51.2205C57.8833 51.2205 57.2 51.0955 56.5 50.8455C55.8 50.6122 55.1667 50.2455 54.6 49.7455C54.0333 49.2622 53.5667 48.6372 53.2 47.8705C52.8333 47.1205 52.65 46.2288 52.65 45.1955C52.65 43.1122 53.3083 41.5288 54.625 40.4455C55.9417 39.3622 57.7583 38.8205 60.075 38.8205C61.7417 38.8205 63.2167 39.0788 64.5 39.5955C65.7833 40.1122 66.8583 40.8455 67.725 41.7955C68.6083 42.7622 69.275 43.9205 69.725 45.2705C70.1917 46.6372 70.4333 48.1705 70.45 49.8705C69.9333 49.9038 69.425 49.9372 68.925 49.9705C68.4417 50.0038 67.9333 50.0372 67.4 50.0705C67.3833 49.2205 67.3 48.4205 67.15 47.6705C67.0167 46.9372 66.8 46.2622 66.5 45.6455C66.2 45.0455 65.8083 44.5205 65.325 44.0705C64.8583 43.6205 64.2833 43.2705 63.6 43.0205C63.7667 43.3872 63.8833 43.7622 63.95 44.1455C64.0167 44.5288 64.05 44.8872 64.05 45.2205Z"/>
</mask>
<path d="M61.15 44.7455C61.15 44.3788 61.1167 43.9872 61.05 43.5705C60.9833 43.1538 60.8917 42.8288 60.775 42.5955C60.7083 42.5955 60.6083 42.5872 60.475 42.5705C60.3417 42.5705 60.225 42.5705 60.125 42.5705C59.525 42.5705 58.9583 42.6122 58.425 42.6955C57.8917 42.7788 57.425 42.9205 57.025 43.1205C56.625 43.3205 56.3083 43.5872 56.075 43.9205C55.8583 44.2538 55.75 44.6705 55.75 45.1705C55.75 45.5872 55.8333 45.9372 56 46.2205C56.1833 46.5205 56.4083 46.7622 56.675 46.9455C56.9417 47.1455 57.2333 47.2872 57.55 47.3705C57.8833 47.4705 58.2 47.5205 58.5 47.5205C59.35 47.5205 60 47.3038 60.45 46.8705C60.9167 46.4538 61.15 45.7455 61.15 44.7455ZM64.05 45.2205C64.05 46.3038 63.9 47.2205 63.6 47.9705C63.3167 48.7372 62.925 49.3622 62.425 49.8455C61.925 50.3288 61.3417 50.6788 60.675 50.8955C60.0083 51.1122 59.3 51.2205 58.55 51.2205C57.8833 51.2205 57.2 51.0955 56.5 50.8455C55.8 50.6122 55.1667 50.2455 54.6 49.7455C54.0333 49.2622 53.5667 48.6372 53.2 47.8705C52.8333 47.1205 52.65 46.2288 52.65 45.1955C52.65 43.1122 53.3083 41.5288 54.625 40.4455C55.9417 39.3622 57.7583 38.8205 60.075 38.8205C61.7417 38.8205 63.2167 39.0788 64.5 39.5955C65.7833 40.1122 66.8583 40.8455 67.725 41.7955C68.6083 42.7622 69.275 43.9205 69.725 45.2705C70.1917 46.6372 70.4333 48.1705 70.45 49.8705C69.9333 49.9038 69.425 49.9372 68.925 49.9705C68.4417 50.0038 67.9333 50.0372 67.4 50.0705C67.3833 49.2205 67.3 48.4205 67.15 47.6705C67.0167 46.9372 66.8 46.2622 66.5 45.6455C66.2 45.0455 65.8083 44.5205 65.325 44.0705C64.8583 43.6205 64.2833 43.2705 63.6 43.0205C63.7667 43.3872 63.8833 43.7622 63.95 44.1455C64.0167 44.5288 64.05 44.8872 64.05 45.2205Z" fill="white"/>
<path d="M61.05 43.5705L62.5312 43.3335L62.5312 43.3335L61.05 43.5705ZM60.775 42.5955L62.1166 41.9247L61.7021 41.0955H60.775V42.5955ZM60.475 42.5705L60.6611 41.0821L60.5684 41.0705H60.475V42.5705ZM58.425 42.6955L58.1934 41.2135H58.1934L58.425 42.6955ZM57.025 43.1205L56.3542 41.7789V41.7789L57.025 43.1205ZM56.075 43.9205L54.8462 43.0603L54.8314 43.0814L54.8173 43.103L56.075 43.9205ZM56 46.2205L54.7071 46.981L54.7135 46.9919L54.7201 47.0027L56 46.2205ZM56.675 46.9455L57.575 45.7455L57.5503 45.727L57.5248 45.7094L56.675 46.9455ZM57.55 47.3705L57.981 45.9338L57.9565 45.9264L57.9317 45.9199L57.55 47.3705ZM60.45 46.8705L59.451 45.7516L59.4299 45.7704L59.4095 45.79L60.45 46.8705ZM63.6 47.9705L62.2073 47.4134L62.1999 47.4319L62.193 47.4505L63.6 47.9705ZM62.425 49.8455L61.3825 48.767H61.3825L62.425 49.8455ZM56.5 50.8455L57.0045 49.4329L56.9895 49.4275L56.9743 49.4225L56.5 50.8455ZM54.6 49.7455L55.5924 48.6208L55.583 48.6124L55.5734 48.6043L54.6 49.7455ZM53.2 47.8705L54.5533 47.2233L54.5476 47.2117L53.2 47.8705ZM54.625 40.4455L55.578 41.6038L54.625 40.4455ZM67.725 41.7955L66.6169 42.8065L66.6177 42.8074L67.725 41.7955ZM69.725 45.2705L68.3019 45.7449L68.3055 45.7552L69.725 45.2705ZM70.45 49.8705L70.5466 51.3674L71.9639 51.276L71.9499 49.8558L70.45 49.8705ZM68.925 49.9705L68.8252 48.4738L68.8218 48.4741L68.925 49.9705ZM67.4 50.0705L65.9003 50.0999L65.931 51.6652L67.4936 51.5676L67.4 50.0705ZM67.15 47.6705L65.6742 47.9388L65.6765 47.9518L65.6791 47.9647L67.15 47.6705ZM66.5 45.6455L67.8489 44.9893L67.8453 44.982L67.8416 44.9747L66.5 45.6455ZM65.325 44.0705L64.2838 45.1503L64.2933 45.1594L64.3029 45.1683L65.325 44.0705ZM63.6 43.0205L64.1154 41.6118L60.7528 40.3816L62.2345 43.6412L63.6 43.0205ZM63.95 44.1455L65.4278 43.8885L63.95 44.1455ZM62.65 44.7455C62.65 44.2887 62.6085 43.8171 62.5312 43.3335L59.5688 43.8075C59.6248 44.1572 59.65 44.469 59.65 44.7455H62.65ZM62.5312 43.3335C62.4533 42.8469 62.3306 42.3525 62.1166 41.9247L59.4334 43.2663C59.4528 43.3052 59.5134 43.4608 59.5688 43.8075L62.5312 43.3335ZM60.775 41.0955C60.7886 41.0955 60.7954 41.0959 60.7937 41.0958C60.7923 41.0957 60.7862 41.0954 60.7746 41.0944C60.7506 41.0924 60.7136 41.0887 60.6611 41.0821L60.2889 44.0589C60.4353 44.0772 60.6112 44.0955 60.775 44.0955V41.0955ZM60.475 41.0705C60.4747 41.0705 60.4745 41.0705 60.4742 41.0705C60.474 41.0705 60.4737 41.0705 60.4734 41.0705C60.4732 41.0705 60.4729 41.0705 60.4727 41.0705C60.4724 41.0705 60.4721 41.0705 60.4719 41.0705C60.4716 41.0705 60.4714 41.0705 60.4711 41.0705C60.4708 41.0705 60.4706 41.0705 60.4703 41.0705C60.4701 41.0705 60.4698 41.0705 60.4695 41.0705C60.4693 41.0705 60.469 41.0705 60.4688 41.0705C60.4685 41.0705 60.4682 41.0705 60.468 41.0705C60.4677 41.0705 60.4675 41.0705 60.4672 41.0705C60.4669 41.0705 60.4667 41.0705 60.4664 41.0705C60.4662 41.0705 60.4659 41.0705 60.4657 41.0705C60.4654 41.0705 60.4651 41.0705 60.4649 41.0705C60.4646 41.0705 60.4644 41.0705 60.4641 41.0705C60.4638 41.0705 60.4636 41.0705 60.4633 41.0705C60.4631 41.0705 60.4628 41.0705 60.4625 41.0705C60.4623 41.0705 60.462 41.0705 60.4618 41.0705C60.4615 41.0705 60.4613 41.0705 60.461 41.0705C60.4607 41.0705 60.4605 41.0705 60.4602 41.0705C60.46 41.0705 60.4597 41.0705 60.4595 41.0705C60.4592 41.0705 60.4589 41.0705 60.4587 41.0705C60.4584 41.0705 60.4582 41.0705 60.4579 41.0705C60.4576 41.0705 60.4574 41.0705 60.4571 41.0705C60.4569 41.0705 60.4566 41.0705 60.4564 41.0705C60.4561 41.0705 60.4558 41.0705 60.4556 41.0705C60.4553 41.0705 60.4551 41.0705 60.4548 41.0705C60.4546 41.0705 60.4543 41.0705 60.454 41.0705C60.4538 41.0705 60.4535 41.0705 60.4533 41.0705C60.453 41.0705 60.4528 41.0705 60.4525 41.0705C60.4522 41.0705 60.452 41.0705 60.4517 41.0705C60.4515 41.0705 60.4512 41.0705 60.451 41.0705C60.4507 41.0705 60.4505 41.0705 60.4502 41.0705C60.4499 41.0705 60.4497 41.0705 60.4494 41.0705C60.4492 41.0705 60.4489 41.0705 60.4487 41.0705C60.4484 41.0705 60.4481 41.0705 60.4479 41.0705C60.4476 41.0705 60.4474 41.0705 60.4471 41.0705C60.4469 41.0705 60.4466 41.0705 60.4464 41.0705C60.4461 41.0705 60.4458 41.0705 60.4456 41.0705C60.4453 41.0705 60.4451 41.0705 60.4448 41.0705C60.4446 41.0705 60.4443 41.0705 60.4441 41.0705C60.4438 41.0705 60.4435 41.0705 60.4433 41.0705C60.443 41.0705 60.4428 41.0705 60.4425 41.0705C60.4423 41.0705 60.442 41.0705 60.4418 41.0705C60.4415 41.0705 60.4412 41.0705 60.441 41.0705C60.4407 41.0705 60.4405 41.0705 60.4402 41.0705C60.44 41.0705 60.4397 41.0705 60.4395 41.0705C60.4392 41.0705 60.439 41.0705 60.4387 41.0705C60.4384 41.0705 60.4382 41.0705 60.4379 41.0705C60.4377 41.0705 60.4374 41.0705 60.4372 41.0705C60.4369 41.0705 60.4367 41.0705 60.4364 41.0705C60.4362 41.0705 60.4359 41.0705 60.4357 41.0705C60.4354 41.0705 60.4351 41.0705 60.4349 41.0705C60.4346 41.0705 60.4344 41.0705 60.4341 41.0705C60.4339 41.0705 60.4336 41.0705 60.4334 41.0705C60.4331 41.0705 60.4329 41.0705 60.4326 41.0705C60.4324 41.0705 60.4321 41.0705 60.4318 41.0705C60.4316 41.0705 60.4313 41.0705 60.4311 41.0705C60.4308 41.0705 60.4306 41.0705 60.4303 41.0705C60.4301 41.0705 60.4298 41.0705 60.4296 41.0705C60.4293 41.0705 60.4291 41.0705 60.4288 41.0705C60.4286 41.0705 60.4283 41.0705 60.4281 41.0705C60.4278 41.0705 60.4275 41.0705 60.4273 41.0705C60.427 41.0705 60.4268 41.0705 60.4265 41.0705C60.4263 41.0705 60.426 41.0705 60.4258 41.0705C60.4255 41.0705 60.4253 41.0705 60.425 41.0705C60.4248 41.0705 60.4245 41.0705 60.4243 41.0705C60.424 41.0705 60.4238 41.0705 60.4235 41.0705C60.4233 41.0705 60.423 41.0705 60.4228 41.0705C60.4225 41.0705 60.4223 41.0705 60.422 41.0705C60.4218 41.0705 60.4215 41.0705 60.4212 41.0705C60.421 41.0705 60.4207 41.0705 60.4205 41.0705C60.4202 41.0705 60.42 41.0705 60.4197 41.0705C60.4195 41.0705 60.4192 41.0705 60.419 41.0705C60.4187 41.0705 60.4185 41.0705 60.4182 41.0705C60.418 41.0705 60.4177 41.0705 60.4175 41.0705C60.4172 41.0705 60.417 41.0705 60.4167 41.0705C60.4165 41.0705 60.4162 41.0705 60.416 41.0705C60.4157 41.0705 60.4155 41.0705 60.4152 41.0705C60.415 41.0705 60.4147 41.0705 60.4145 41.0705C60.4142 41.0705 60.414 41.0705 60.4137 41.0705C60.4135 41.0705 60.4132 41.0705 60.413 41.0705C60.4127 41.0705 60.4125 41.0705 60.4122 41.0705C60.412 41.0705 60.4117 41.0705 60.4115 41.0705C60.4112 41.0705 60.411 41.0705 60.4107 41.0705C60.4105 41.0705 60.4102 41.0705 60.41 41.0705C60.4097 41.0705 60.4095 41.0705 60.4092 41.0705C60.409 41.0705 60.4087 41.0705 60.4085 41.0705C60.4082 41.0705 60.408 41.0705 60.4077 41.0705C60.4075 41.0705 60.4072 41.0705 60.407 41.0705C60.4067 41.0705 60.4065 41.0705 60.4062 41.0705C60.406 41.0705 60.4057 41.0705 60.4055 41.0705C60.4052 41.0705 60.405 41.0705 60.4047 41.0705C60.4045 41.0705 60.4042 41.0705 60.404 41.0705C60.4037 41.0705 60.4035 41.0705 60.4032 41.0705C60.403 41.0705 60.4028 41.0705 60.4025 41.0705C60.4023 41.0705 60.402 41.0705 60.4018 41.0705C60.4015 41.0705 60.4013 41.0705 60.401 41.0705C60.4008 41.0705 60.4005 41.0705 60.4003 41.0705C60.4 41.0705 60.3998 41.0705 60.3995 41.0705C60.3993 41.0705 60.399 41.0705 60.3988 41.0705C60.3985 41.0705 60.3983 41.0705 60.398 41.0705C60.3978 41.0705 60.3975 41.0705 60.3973 41.0705C60.3971 41.0705 60.3968 41.0705 60.3966 41.0705C60.3963 41.0705 60.3961 41.0705 60.3958 41.0705C60.3956 41.0705 60.3953 41.0705 60.3951 41.0705C60.3948 41.0705 60.3946 41.0705 60.3943 41.0705C60.3941 41.0705 60.3938 41.0705 60.3936 41.0705C60.3933 41.0705 60.3931 41.0705 60.3929 41.0705C60.3926 41.0705 60.3924 41.0705 60.3921 41.0705C60.3919 41.0705 60.3916 41.0705 60.3914 41.0705C60.3911 41.0705 60.3909 41.0705 60.3906 41.0705C60.3904 41.0705 60.3901 41.0705 60.3899 41.0705C60.3896 41.0705 60.3894 41.0705 60.3892 41.0705C60.3889 41.0705 60.3887 41.0705 60.3884 41.0705C60.3882 41.0705 60.3879 41.0705 60.3877 41.0705C60.3874 41.0705 60.3872 41.0705 60.3869 41.0705C60.3867 41.0705 60.3864 41.0705 60.3862 41.0705C60.386 41.0705 60.3857 41.0705 60.3855 41.0705C60.3852 41.0705 60.385 41.0705 60.3847 41.0705C60.3845 41.0705 60.3842 41.0705 60.384 41.0705C60.3838 41.0705 60.3835 41.0705 60.3833 41.0705C60.383 41.0705 60.3828 41.0705 60.3825 41.0705C60.3823 41.0705 60.382 41.0705 60.3818 41.0705C60.3815 41.0705 60.3813 41.0705 60.3811 41.0705C60.3808 41.0705 60.3806 41.0705 60.3803 41.0705C60.3801 41.0705 60.3798 41.0705 60.3796 41.0705C60.3793 41.0705 60.3791 41.0705 60.3789 41.0705C60.3786 41.0705 60.3784 41.0705 60.3781 41.0705C60.3779 41.0705 60.3776 41.0705 60.3774 41.0705C60.3771 41.0705 60.3769 41.0705 60.3767 41.0705C60.3764 41.0705 60.3762 41.0705 60.3759 41.0705C60.3757 41.0705 60.3754 41.0705 60.3752 41.0705C60.375 41.0705 60.3747 41.0705 60.3745 41.0705C60.3742 41.0705 60.374 41.0705 60.3737 41.0705C60.3735 41.0705 60.3733 41.0705 60.373 41.0705C60.3728 41.0705 60.3725 41.0705 60.3723 41.0705C60.372 41.0705 60.3718 41.0705 60.3715 41.0705C60.3713 41.0705 60.3711 41.0705 60.3708 41.0705C60.3706 41.0705 60.3703 41.0705 60.3701 41.0705C60.3698 41.0705 60.3696 41.0705 60.3694 41.0705C60.3691 41.0705 60.3689 41.0705 60.3686 41.0705C60.3684 41.0705 60.3682 41.0705 60.3679 41.0705C60.3677 41.0705 60.3674 41.0705 60.3672 41.0705C60.3669 41.0705 60.3667 41.0705 60.3665 41.0705C60.3662 41.0705 60.366 41.0705 60.3657 41.0705C60.3655 41.0705 60.3652 41.0705 60.365 41.0705C60.3648 41.0705 60.3645 41.0705 60.3643 41.0705C60.364 41.0705 60.3638 41.0705 60.3636 41.0705C60.3633 41.0705 60.3631 41.0705 60.3628 41.0705C60.3626 41.0705 60.3623 41.0705 60.3621 41.0705C60.3619 41.0705 60.3616 41.0705 60.3614 41.0705C60.3611 41.0705 60.3609 41.0705 60.3607 41.0705C60.3604 41.0705 60.3602 41.0705 60.3599 41.0705C60.3597 41.0705 60.3595 41.0705 60.3592 41.0705C60.359 41.0705 60.3587 41.0705 60.3585 41.0705C60.3582 41.0705 60.358 41.0705 60.3578 41.0705C60.3575 41.0705 60.3573 41.0705 60.357 41.0705C60.3568 41.0705 60.3566 41.0705 60.3563 41.0705C60.3561 41.0705 60.3558 41.0705 60.3556 41.0705C60.3554 41.0705 60.3551 41.0705 60.3549 41.0705C60.3546 41.0705 60.3544 41.0705 60.3542 41.0705C60.3539 41.0705 60.3537 41.0705 60.3534 41.0705C60.3532 41.0705 60.353 41.0705 60.3527 41.0705C60.3525 41.0705 60.3522 41.0705 60.352 41.0705C60.3518 41.0705 60.3515 41.0705 60.3513 41.0705C60.351 41.0705 60.3508 41.0705 60.3506 41.0705C60.3503 41.0705 60.3501 41.0705 60.3499 41.0705C60.3496 41.0705 60.3494 41.0705 60.3491 41.0705C60.3489 41.0705 60.3487 41.0705 60.3484 41.0705C60.3482 41.0705 60.3479 41.0705 60.3477 41.0705C60.3475 41.0705 60.3472 41.0705 60.347 41.0705C60.3467 41.0705 60.3465 41.0705 60.3463 41.0705C60.346 41.0705 60.3458 41.0705 60.3456 41.0705C60.3453 41.0705 60.3451 41.0705 60.3448 41.0705C60.3446 41.0705 60.3444 41.0705 60.3441 41.0705C60.3439 41.0705 60.3436 41.0705 60.3434 41.0705C60.3432 41.0705 60.3429 41.0705 60.3427 41.0705C60.3425 41.0705 60.3422 41.0705 60.342 41.0705C60.3417 41.0705 60.3415 41.0705 60.3413 41.0705C60.341 41.0705 60.3408 41.0705 60.3406 41.0705C60.3403 41.0705 60.3401 41.0705 60.3398 41.0705C60.3396 41.0705 60.3394 41.0705 60.3391 41.0705C60.3389 41.0705 60.3387 41.0705 60.3384 41.0705C60.3382 41.0705 60.3379 41.0705 60.3377 41.0705C60.3375 41.0705 60.3372 41.0705 60.337 41.0705C60.3368 41.0705 60.3365 41.0705 60.3363 41.0705C60.3361 41.0705 60.3358 41.0705 60.3356 41.0705C60.3353 41.0705 60.3351 41.0705 60.3349 41.0705C60.3346 41.0705 60.3344 41.0705 60.3342 41.0705C60.3339 41.0705 60.3337 41.0705 60.3334 41.0705C60.3332 41.0705 60.333 41.0705 60.3327 41.0705C60.3325 41.0705 60.3323 41.0705 60.332 41.0705C60.3318 41.0705 60.3316 41.0705 60.3313 41.0705C60.3311 41.0705 60.3309 41.0705 60.3306 41.0705C60.3304 41.0705 60.3301 41.0705 60.3299 41.0705C60.3297 41.0705 60.3294 41.0705 60.3292 41.0705C60.329 41.0705 60.3287 41.0705 60.3285 41.0705C60.3283 41.0705 60.328 41.0705 60.3278 41.0705C60.3276 41.0705 60.3273 41.0705 60.3271 41.0705C60.3268 41.0705 60.3266 41.0705 60.3264 41.0705C60.3261 41.0705 60.3259 41.0705 60.3257 41.0705C60.3254 41.0705 60.3252 41.0705 60.325 41.0705C60.3247 41.0705 60.3245 41.0705 60.3243 41.0705C60.324 41.0705 60.3238 41.0705 60.3236 41.0705C60.3233 41.0705 60.3231 41.0705 60.3229 41.0705C60.3226 41.0705 60.3224 41.0705 60.3222 41.0705C60.3219 41.0705 60.3217 41.0705 60.3215 41.0705C60.3212 41.0705 60.321 41.0705 60.3208 41.0705C60.3205 41.0705 60.3203 41.0705 60.3201 41.0705C60.3198 41.0705 60.3196 41.0705 60.3193 41.0705C60.3191 41.0705 60.3189 41.0705 60.3186 41.0705C60.3184 41.0705 60.3182 41.0705 60.3179 41.0705C60.3177 41.0705 60.3175 41.0705 60.3172 41.0705C60.317 41.0705 60.3168 41.0705 60.3165 41.0705C60.3163 41.0705 60.3161 41.0705 60.3158 41.0705C60.3156 41.0705 60.3154 41.0705 60.3151 41.0705C60.3149 41.0705 60.3147 41.0705 60.3145 41.0705C60.3142 41.0705 60.314 41.0705 60.3138 41.0705C60.3135 41.0705 60.3133 41.0705 60.3131 41.0705C60.3128 41.0705 60.3126 41.0705 60.3124 41.0705C60.3121 41.0705 60.3119 41.0705 60.3117 41.0705C60.3114 41.0705 60.3112 41.0705 60.311 41.0705C60.3107 41.0705 60.3105 41.0705 60.3103 41.0705C60.31 41.0705 60.3098 41.0705 60.3096 41.0705C60.3093 41.0705 60.3091 41.0705 60.3089 41.0705C60.3086 41.0705 60.3084 41.0705 60.3082 41.0705C60.3079 41.0705 60.3077 41.0705 60.3075 41.0705C60.3073 41.0705 60.307 41.0705 60.3068 41.0705C60.3066 41.0705 60.3063 41.0705 60.3061 41.0705C60.3059 41.0705 60.3056 41.0705 60.3054 41.0705C60.3052 41.0705 60.3049 41.0705 60.3047 41.0705C60.3045 41.0705 60.3042 41.0705 60.304 41.0705C60.3038 41.0705 60.3036 41.0705 60.3033 41.0705C60.3031 41.0705 60.3029 41.0705 60.3026 41.0705C60.3024 41.0705 60.3022 41.0705 60.3019 41.0705C60.3017 41.0705 60.3015 41.0705 60.3012 41.0705C60.301 41.0705 60.3008 41.0705 60.3006 41.0705C60.3003 41.0705 60.3001 41.0705 60.2999 41.0705C60.2996 41.0705 60.2994 41.0705 60.2992 41.0705C60.2989 41.0705 60.2987 41.0705 60.2985 41.0705C60.2983 41.0705 60.298 41.0705 60.2978 41.0705C60.2976 41.0705 60.2973 41.0705 60.2971 41.0705C60.2969 41.0705 60.2966 41.0705 60.2964 41.0705C60.2962 41.0705 60.296 41.0705 60.2957 41.0705C60.2955 41.0705 60.2953 41.0705 60.295 41.0705C60.2948 41.0705 60.2946 41.0705 60.2944 41.0705C60.2941 41.0705 60.2939 41.0705 60.2937 41.0705C60.2934 41.0705 60.2932 41.0705 60.293 41.0705C60.2928 41.0705 60.2925 41.0705 60.2923 41.0705C60.2921 41.0705 60.2918 41.0705 60.2916 41.0705C60.2914 41.0705 60.2912 41.0705 60.2909 41.0705C60.2907 41.0705 60.2905 41.0705 60.2902 41.0705C60.29 41.0705 60.2898 41.0705 60.2896 41.0705C60.2893 41.0705 60.2891 41.0705 60.2889 41.0705C60.2886 41.0705 60.2884 41.0705 60.2882 41.0705C60.288 41.0705 60.2877 41.0705 60.2875 41.0705C60.2873 41.0705 60.287 41.0705 60.2868 41.0705C60.2866 41.0705 60.2864 41.0705 60.2861 41.0705C60.2859 41.0705 60.2857 41.0705 60.2855 41.0705C60.2852 41.0705 60.285 41.0705 60.2848 41.0705C60.2845 41.0705 60.2843 41.0705 60.2841 41.0705C60.2839 41.0705 60.2836 41.0705 60.2834 41.0705C60.2832 41.0705 60.283 41.0705 60.2827 41.0705C60.2825 41.0705 60.2823 41.0705 60.282 41.0705C60.2818 41.0705 60.2816 41.0705 60.2814 41.0705C60.2811 41.0705 60.2809 41.0705 60.2807 41.0705C60.2805 41.0705 60.2802 41.0705 60.28 41.0705C60.2798 41.0705 60.2796 41.0705 60.2793 41.0705C60.2791 41.0705 60.2789 41.0705 60.2786 41.0705C60.2784 41.0705 60.2782 41.0705 60.278 41.0705C60.2777 41.0705 60.2775 41.0705 60.2773 41.0705C60.2771 41.0705 60.2768 41.0705 60.2766 41.0705C60.2764 41.0705 60.2762 41.0705 60.2759 41.0705C60.2757 41.0705 60.2755 41.0705 60.2753 41.0705C60.275 41.0705 60.2748 41.0705 60.2746 41.0705C60.2744 41.0705 60.2741 41.0705 60.2739 41.0705C60.2737 41.0705 60.2735 41.0705 60.2732 41.0705C60.273 41.0705 60.2728 41.0705 60.2726 41.0705C60.2723 41.0705 60.2721 41.0705 60.2719 41.0705C60.2717 41.0705 60.2714 41.0705 60.2712 41.0705C60.271 41.0705 60.2708 41.0705 60.2705 41.0705C60.2703 41.0705 60.2701 41.0705 60.2699 41.0705C60.2696 41.0705 60.2694 41.0705 60.2692 41.0705C60.269 41.0705 60.2687 41.0705 60.2685 41.0705C60.2683 41.0705 60.2681 41.0705 60.2678 41.0705C60.2676 41.0705 60.2674 41.0705 60.2672 41.0705C60.2669 41.0705 60.2667 41.0705 60.2665 41.0705C60.2663 41.0705 60.266 41.0705 60.2658 41.0705C60.2656 41.0705 60.2654 41.0705 60.2652 41.0705C60.2649 41.0705 60.2647 41.0705 60.2645 41.0705C60.2643 41.0705 60.264 41.0705 60.2638 41.0705C60.2636 41.0705 60.2634 41.0705 60.2631 41.0705C60.2629 41.0705 60.2627 41.0705 60.2625 41.0705C60.2622 41.0705 60.262 41.0705 60.2618 41.0705C60.2616 41.0705 60.2614 41.0705 60.2611 41.0705C60.2609 41.0705 60.2607 41.0705 60.2605 41.0705C60.2602 41.0705 60.26 41.0705 60.2598 41.0705C60.2596 41.0705 60.2593 41.0705 60.2591 41.0705C60.2589 41.0705 60.2587 41.0705 60.2585 41.0705C60.2582 41.0705 60.258 41.0705 60.2578 41.0705C60.2576 41.0705 60.2573 41.0705 60.2571 41.0705C60.2569 41.0705 60.2567 41.0705 60.2565 41.0705C60.2562 41.0705 60.256 41.0705 60.2558 41.0705C60.2556 41.0705 60.2553 41.0705 60.2551 41.0705C60.2549 41.0705 60.2547 41.0705 60.2545 41.0705C60.2542 41.0705 60.254 41.0705 60.2538 41.0705C60.2536 41.0705 60.2534 41.0705 60.2531 41.0705C60.2529 41.0705 60.2527 41.0705 60.2525 41.0705C60.2522 41.0705 60.252 41.0705 60.2518 41.0705C60.2516 41.0705 60.2514 41.0705 60.2511 41.0705C60.2509 41.0705 60.2507 41.0705 60.2505 41.0705C60.2503 41.0705 60.25 41.0705 60.2498 41.0705C60.2496 41.0705 60.2494 41.0705 60.2492 41.0705C60.2489 41.0705 60.2487 41.0705 60.2485 41.0705C60.2483 41.0705 60.2481 41.0705 60.2478 41.0705C60.2476 41.0705 60.2474 41.0705 60.2472 41.0705C60.247 41.0705 60.2467 41.0705 60.2465 41.0705C60.2463 41.0705 60.2461 41.0705 60.2459 41.0705C60.2456 41.0705 60.2454 41.0705 60.2452 41.0705C60.245 41.0705 60.2448 41.0705 60.2445 41.0705C60.2443 41.0705 60.2441 41.0705 60.2439 41.0705C60.2437 41.0705 60.2434 41.0705 60.2432 41.0705C60.243 41.0705 60.2428 41.0705 60.2426 41.0705C60.2423 41.0705 60.2421 41.0705 60.2419 41.0705C60.2417 41.0705 60.2415 41.0705 60.2412 41.0705C60.241 41.0705 60.2408 41.0705 60.2406 41.0705C60.2404 41.0705 60.2401 41.0705 60.2399 41.0705C60.2397 41.0705 60.2395 41.0705 60.2393 41.0705C60.2391 41.0705 60.2388 41.0705 60.2386 41.0705C60.2384 41.0705 60.2382 41.0705 60.238 41.0705C60.2377 41.0705 60.2375 41.0705 60.2373 41.0705C60.2371 41.0705 60.2369 41.0705 60.2366 41.0705C60.2364 41.0705 60.2362 41.0705 60.236 41.0705C60.2358 41.0705 60.2356 41.0705 60.2353 41.0705C60.2351 41.0705 60.2349 41.0705 60.2347 41.0705C60.2345 41.0705 60.2343 41.0705 60.234 41.0705C60.2338 41.0705 60.2336 41.0705 60.2334 41.0705C60.2332 41.0705 60.2329 41.0705 60.2327 41.0705C60.2325 41.0705 60.2323 41.0705 60.2321 41.0705C60.2319 41.0705 60.2316 41.0705 60.2314 41.0705C60.2312 41.0705 60.231 41.0705 60.2308 41.0705C60.2306 41.0705 60.2303 41.0705 60.2301 41.0705C60.2299 41.0705 60.2297 41.0705 60.2295 41.0705C60.2293 41.0705 60.229 41.0705 60.2288 41.0705C60.2286 41.0705 60.2284 41.0705 60.2282 41.0705C60.228 41.0705 60.2277 41.0705 60.2275 41.0705C60.2273 41.0705 60.2271 41.0705 60.2269 41.0705C60.2267 41.0705 60.2264 41.0705 60.2262 41.0705C60.226 41.0705 60.2258 41.0705 60.2256 41.0705C60.2254 41.0705 60.2251 41.0705 60.2249 41.0705C60.2247 41.0705 60.2245 41.0705 60.2243 41.0705C60.2241 41.0705 60.2238 41.0705 60.2236 41.0705C60.2234 41.0705 60.2232 41.0705 60.223 41.0705C60.2228 41.0705 60.2226 41.0705 60.2223 41.0705C60.2221 41.0705 60.2219 41.0705 60.2217 41.0705C60.2215 41.0705 60.2213 41.0705 60.221 41.0705C60.2208 41.0705 60.2206 41.0705 60.2204 41.0705C60.2202 41.0705 60.22 41.0705 60.2198 41.0705C60.2195 41.0705 60.2193 41.0705 60.2191 41.0705C60.2189 41.0705 60.2187 41.0705 60.2185 41.0705C60.2183 41.0705 60.218 41.0705 60.2178 41.0705C60.2176 41.0705 60.2174 41.0705 60.2172 41.0705C60.217 41.0705 60.2168 41.0705 60.2165 41.0705C60.2163 41.0705 60.2161 41.0705 60.2159 41.0705C60.2157 41.0705 60.2155 41.0705 60.2153 41.0705C60.215 41.0705 60.2148 41.0705 60.2146 41.0705C60.2144 41.0705 60.2142 41.0705 60.214 41.0705C60.2138 41.0705 60.2135 41.0705 60.2133 41.0705C60.2131 41.0705 60.2129 41.0705 60.2127 41.0705C60.2125 41.0705 60.2123 41.0705 60.212 41.0705C60.2118 41.0705 60.2116 41.0705 60.2114 41.0705C60.2112 41.0705 60.211 41.0705 60.2108 41.0705C60.2106 41.0705 60.2103 41.0705 60.2101 41.0705C60.2099 41.0705 60.2097 41.0705 60.2095 41.0705C60.2093 41.0705 60.2091 41.0705 60.2089 41.0705C60.2086 41.0705 60.2084 41.0705 60.2082 41.0705C60.208 41.0705 60.2078 41.0705 60.2076 41.0705C60.2074 41.0705 60.2072 41.0705 60.2069 41.0705C60.2067 41.0705 60.2065 41.0705 60.2063 41.0705C60.2061 41.0705 60.2059 41.0705 60.2057 41.0705C60.2055 41.0705 60.2052 41.0705 60.205 41.0705C60.2048 41.0705 60.2046 41.0705 60.2044 41.0705C60.2042 41.0705 60.204 41.0705 60.2038 41.0705C60.2035 41.0705 60.2033 41.0705 60.2031 41.0705C60.2029 41.0705 60.2027 41.0705 60.2025 41.0705C60.2023 41.0705 60.2021 41.0705 60.2019 41.0705C60.2016 41.0705 60.2014 41.0705 60.2012 41.0705C60.201 41.0705 60.2008 41.0705 60.2006 41.0705C60.2004 41.0705 60.2002 41.0705 60.2 41.0705C60.1997 41.0705 60.1995 41.0705 60.1993 41.0705C60.1991 41.0705 60.1989 41.0705 60.1987 41.0705C60.1985 41.0705 60.1983 41.0705 60.1981 41.0705C60.1978 41.0705 60.1976 41.0705 60.1974 41.0705C60.1972 41.0705 60.197 41.0705 60.1968 41.0705C60.1966 41.0705 60.1964 41.0705 60.1962 41.0705C60.196 41.0705 60.1957 41.0705 60.1955 41.0705C60.1953 41.0705 60.1951 41.0705 60.1949 41.0705C60.1947 41.0705 60.1945 41.0705 60.1943 41.0705C60.1941 41.0705 60.1939 41.0705 60.1936 41.0705C60.1934 41.0705 60.1932 41.0705 60.193 41.0705C60.1928 41.0705 60.1926 41.0705 60.1924 41.0705C60.1922 41.0705 60.192 41.0705 60.1918 41.0705C60.1916 41.0705 60.1913 41.0705 60.1911 41.0705C60.1909 41.0705 60.1907 41.0705 60.1905 41.0705C60.1903 41.0705 60.1901 41.0705 60.1899 41.0705C60.1897 41.0705 60.1895 41.0705 60.1893 41.0705C60.189 41.0705 60.1888 41.0705 60.1886 41.0705C60.1884 41.0705 60.1882 41.0705 60.188 41.0705C60.1878 41.0705 60.1876 41.0705 60.1874 41.0705C60.1872 41.0705 60.187 41.0705 60.1868 41.0705C60.1865 41.0705 60.1863 41.0705 60.1861 41.0705C60.1859 41.0705 60.1857 41.0705 60.1855 41.0705C60.1853 41.0705 60.1851 41.0705 60.1849 41.0705C60.1847 41.0705 60.1845 41.0705 60.1843 41.0705C60.184 41.0705 60.1838 41.0705 60.1836 41.0705C60.1834 41.0705 60.1832 41.0705 60.183 41.0705C60.1828 41.0705 60.1826 41.0705 60.1824 41.0705C60.1822 41.0705 60.182 41.0705 60.1818 41.0705C60.1816 41.0705 60.1813 41.0705 60.1811 41.0705C60.1809 41.0705 60.1807 41.0705 60.1805 41.0705C60.1803 41.0705 60.1801 41.0705 60.1799 41.0705C60.1797 41.0705 60.1795 41.0705 60.1793 41.0705C60.1791 41.0705 60.1789 41.0705 60.1787 41.0705C60.1785 41.0705 60.1782 41.0705 60.178 41.0705C60.1778 41.0705 60.1776 41.0705 60.1774 41.0705C60.1772 41.0705 60.177 41.0705 60.1768 41.0705C60.1766 41.0705 60.1764 41.0705 60.1762 41.0705C60.176 41.0705 60.1758 41.0705 60.1756 41.0705C60.1754 41.0705 60.1752 41.0705 60.1749 41.0705C60.1747 41.0705 60.1745 41.0705 60.1743 41.0705C60.1741 41.0705 60.1739 41.0705 60.1737 41.0705C60.1735 41.0705 60.1733 41.0705 60.1731 41.0705C60.1729 41.0705 60.1727 41.0705 60.1725 41.0705C60.1723 41.0705 60.1721 41.0705 60.1719 41.0705C60.1717 41.0705 60.1715 41.0705 60.1712 41.0705C60.171 41.0705 60.1708 41.0705 60.1706 41.0705C60.1704 41.0705 60.1702 41.0705 60.17 41.0705C60.1698 41.0705 60.1696 41.0705 60.1694 41.0705C60.1692 41.0705 60.169 41.0705 60.1688 41.0705C60.1686 41.0705 60.1684 41.0705 60.1682 41.0705C60.168 41.0705 60.1678 41.0705 60.1676 41.0705C60.1674 41.0705 60.1672 41.0705 60.167 41.0705C60.1667 41.0705 60.1665 41.0705 60.1663 41.0705C60.1661 41.0705 60.1659 41.0705 60.1657 41.0705C60.1655 41.0705 60.1653 41.0705 60.1651 41.0705C60.1649 41.0705 60.1647 41.0705 60.1645 41.0705C60.1643 41.0705 60.1641 41.0705 60.1639 41.0705C60.1637 41.0705 60.1635 41.0705 60.1633 41.0705C60.1631 41.0705 60.1629 41.0705 60.1627 41.0705C60.1625 41.0705 60.1623 41.0705 60.1621 41.0705C60.1619 41.0705 60.1617 41.0705 60.1615 41.0705C60.1612 41.0705 60.161 41.0705 60.1608 41.0705C60.1606 41.0705 60.1604 41.0705 60.1602 41.0705C60.16 41.0705 60.1598 41.0705 60.1596 41.0705C60.1594 41.0705 60.1592 41.0705 60.159 41.0705C60.1588 41.0705 60.1586 41.0705 60.1584 41.0705C60.1582 41.0705 60.158 41.0705 60.1578 41.0705C60.1576 41.0705 60.1574 41.0705 60.1572 41.0705C60.157 41.0705 60.1568 41.0705 60.1566 41.0705C60.1564 41.0705 60.1562 41.0705 60.156 41.0705C60.1558 41.0705 60.1556 41.0705 60.1554 41.0705C60.1552 41.0705 60.155 41.0705 60.1548 41.0705C60.1546 41.0705 60.1544 41.0705 60.1542 41.0705C60.154 41.0705 60.1538 41.0705 60.1536 41.0705C60.1534 41.0705 60.1532 41.0705 60.153 41.0705C60.1528 41.0705 60.1526 41.0705 60.1524 41.0705C60.1522 41.0705 60.152 41.0705 60.1518 41.0705C60.1516 41.0705 60.1514 41.0705 60.1512 41.0705C60.1509 41.0705 60.1507 41.0705 60.1505 41.0705C60.1503 41.0705 60.1501 41.0705 60.1499 41.0705C60.1497 41.0705 60.1495 41.0705 60.1493 41.0705C60.1491 41.0705 60.1489 41.0705 60.1487 41.0705C60.1485 41.0705 60.1483 41.0705 60.1481 41.0705C60.1479 41.0705 60.1477 41.0705 60.1475 41.0705C60.1473 41.0705 60.1471 41.0705 60.1469 41.0705C60.1467 41.0705 60.1465 41.0705 60.1463 41.0705C60.1461 41.0705 60.1459 41.0705 60.1457 41.0705C60.1455 41.0705 60.1453 41.0705 60.1451 41.0705C60.1449 41.0705 60.1447 41.0705 60.1445 41.0705C60.1443 41.0705 60.1441 41.0705 60.1439 41.0705C60.1437 41.0705 60.1435 41.0705 60.1433 41.0705C60.1431 41.0705 60.143 41.0705 60.1427 41.0705C60.1426 41.0705 60.1424 41.0705 60.1422 41.0705C60.142 41.0705 60.1418 41.0705 60.1416 41.0705C60.1414 41.0705 60.1412 41.0705 60.141 41.0705C60.1408 41.0705 60.1406 41.0705 60.1404 41.0705C60.1402 41.0705 60.14 41.0705 60.1398 41.0705C60.1396 41.0705 60.1394 41.0705 60.1392 41.0705C60.139 41.0705 60.1388 41.0705 60.1386 41.0705C60.1384 41.0705 60.1382 41.0705 60.138 41.0705C60.1378 41.0705 60.1376 41.0705 60.1374 41.0705C60.1372 41.0705 60.137 41.0705 60.1368 41.0705C60.1366 41.0705 60.1364 41.0705 60.1362 41.0705C60.136 41.0705 60.1358 41.0705 60.1356 41.0705C60.1354 41.0705 60.1352 41.0705 60.135 41.0705C60.1348 41.0705 60.1346 41.0705 60.1344 41.0705C60.1342 41.0705 60.134 41.0705 60.1338 41.0705C60.1336 41.0705 60.1334 41.0705 60.1332 41.0705C60.133 41.0705 60.1328 41.0705 60.1327 41.0705C60.1325 41.0705 60.1323 41.0705 60.1321 41.0705C60.1319 41.0705 60.1317 41.0705 60.1315 41.0705C60.1313 41.0705 60.1311 41.0705 60.1309 41.0705C60.1307 41.0705 60.1305 41.0705 60.1303 41.0705C60.1301 41.0705 60.1299 41.0705 60.1297 41.0705C60.1295 41.0705 60.1293 41.0705 60.1291 41.0705C60.1289 41.0705 60.1287 41.0705 60.1285 41.0705C60.1283 41.0705 60.1281 41.0705 60.1279 41.0705C60.1277 41.0705 60.1275 41.0705 60.1273 41.0705C60.1272 41.0705 60.127 41.0705 60.1268 41.0705C60.1266 41.0705 60.1264 41.0705 60.1262 41.0705C60.126 41.0705 60.1258 41.0705 60.1256 41.0705C60.1254 41.0705 60.1252 41.0705 60.125 41.0705V44.0705C60.1252 44.0705 60.1254 44.0705 60.1256 44.0705C60.1258 44.0705 60.126 44.0705 60.1262 44.0705C60.1264 44.0705 60.1266 44.0705 60.1268 44.0705C60.127 44.0705 60.1272 44.0705 60.1273 44.0705C60.1275 44.0705 60.1277 44.0705 60.1279 44.0705C60.1281 44.0705 60.1283 44.0705 60.1285 44.0705C60.1287 44.0705 60.1289 44.0705 60.1291 44.0705C60.1293 44.0705 60.1295 44.0705 60.1297 44.0705C60.1299 44.0705 60.1301 44.0705 60.1303 44.0705C60.1305 44.0705 60.1307 44.0705 60.1309 44.0705C60.1311 44.0705 60.1313 44.0705 60.1315 44.0705C60.1317 44.0705 60.1319 44.0705 60.1321 44.0705C60.1323 44.0705 60.1325 44.0705 60.1327 44.0705C60.1328 44.0705 60.133 44.0705 60.1332 44.0705C60.1334 44.0705 60.1336 44.0705 60.1338 44.0705C60.134 44.0705 60.1342 44.0705 60.1344 44.0705C60.1346 44.0705 60.1348 44.0705 60.135 44.0705C60.1352 44.0705 60.1354 44.0705 60.1356 44.0705C60.1358 44.0705 60.136 44.0705 60.1362 44.0705C60.1364 44.0705 60.1366 44.0705 60.1368 44.0705C60.137 44.0705 60.1372 44.0705 60.1374 44.0705C60.1376 44.0705 60.1378 44.0705 60.138 44.0705C60.1382 44.0705 60.1384 44.0705 60.1386 44.0705C60.1388 44.0705 60.139 44.0705 60.1392 44.0705C60.1394 44.0705 60.1396 44.0705 60.1398 44.0705C60.14 44.0705 60.1402 44.0705 60.1404 44.0705C60.1406 44.0705 60.1408 44.0705 60.141 44.0705C60.1412 44.0705 60.1414 44.0705 60.1416 44.0705C60.1418 44.0705 60.142 44.0705 60.1422 44.0705C60.1424 44.0705 60.1426 44.0705 60.1427 44.0705C60.143 44.0705 60.1431 44.0705 60.1433 44.0705C60.1435 44.0705 60.1437 44.0705 60.1439 44.0705C60.1441 44.0705 60.1443 44.0705 60.1445 44.0705C60.1447 44.0705 60.1449 44.0705 60.1451 44.0705C60.1453 44.0705 60.1455 44.0705 60.1457 44.0705C60.1459 44.0705 60.1461 44.0705 60.1463 44.0705C60.1465 44.0705 60.1467 44.0705 60.1469 44.0705C60.1471 44.0705 60.1473 44.0705 60.1475 44.0705C60.1477 44.0705 60.1479 44.0705 60.1481 44.0705C60.1483 44.0705 60.1485 44.0705 60.1487 44.0705C60.1489 44.0705 60.1491 44.0705 60.1493 44.0705C60.1495 44.0705 60.1497 44.0705 60.1499 44.0705C60.1501 44.0705 60.1503 44.0705 60.1505 44.0705C60.1507 44.0705 60.1509 44.0705 60.1512 44.0705C60.1514 44.0705 60.1516 44.0705 60.1518 44.0705C60.152 44.0705 60.1522 44.0705 60.1524 44.0705C60.1526 44.0705 60.1528 44.0705 60.153 44.0705C60.1532 44.0705 60.1534 44.0705 60.1536 44.0705C60.1538 44.0705 60.154 44.0705 60.1542 44.0705C60.1544 44.0705 60.1546 44.0705 60.1548 44.0705C60.155 44.0705 60.1552 44.0705 60.1554 44.0705C60.1556 44.0705 60.1558 44.0705 60.156 44.0705C60.1562 44.0705 60.1564 44.0705 60.1566 44.0705C60.1568 44.0705 60.157 44.0705 60.1572 44.0705C60.1574 44.0705 60.1576 44.0705 60.1578 44.0705C60.158 44.0705 60.1582 44.0705 60.1584 44.0705C60.1586 44.0705 60.1588 44.0705 60.159 44.0705C60.1592 44.0705 60.1594 44.0705 60.1596 44.0705C60.1598 44.0705 60.16 44.0705 60.1602 44.0705C60.1604 44.0705 60.1606 44.0705 60.1608 44.0705C60.161 44.0705 60.1612 44.0705 60.1615 44.0705C60.1617 44.0705 60.1619 44.0705 60.1621 44.0705C60.1623 44.0705 60.1625 44.0705 60.1627 44.0705C60.1629 44.0705 60.1631 44.0705 60.1633 44.0705C60.1635 44.0705 60.1637 44.0705 60.1639 44.0705C60.1641 44.0705 60.1643 44.0705 60.1645 44.0705C60.1647 44.0705 60.1649 44.0705 60.1651 44.0705C60.1653 44.0705 60.1655 44.0705 60.1657 44.0705C60.1659 44.0705 60.1661 44.0705 60.1663 44.0705C60.1665 44.0705 60.1667 44.0705 60.167 44.0705C60.1672 44.0705 60.1674 44.0705 60.1676 44.0705C60.1678 44.0705 60.168 44.0705 60.1682 44.0705C60.1684 44.0705 60.1686 44.0705 60.1688 44.0705C60.169 44.0705 60.1692 44.0705 60.1694 44.0705C60.1696 44.0705 60.1698 44.0705 60.17 44.0705C60.1702 44.0705 60.1704 44.0705 60.1706 44.0705C60.1708 44.0705 60.171 44.0705 60.1712 44.0705C60.1715 44.0705 60.1717 44.0705 60.1719 44.0705C60.1721 44.0705 60.1723 44.0705 60.1725 44.0705C60.1727 44.0705 60.1729 44.0705 60.1731 44.0705C60.1733 44.0705 60.1735 44.0705 60.1737 44.0705C60.1739 44.0705 60.1741 44.0705 60.1743 44.0705C60.1745 44.0705 60.1747 44.0705 60.1749 44.0705C60.1752 44.0705 60.1754 44.0705 60.1756 44.0705C60.1758 44.0705 60.176 44.0705 60.1762 44.0705C60.1764 44.0705 60.1766 44.0705 60.1768 44.0705C60.177 44.0705 60.1772 44.0705 60.1774 44.0705C60.1776 44.0705 60.1778 44.0705 60.178 44.0705C60.1782 44.0705 60.1785 44.0705 60.1787 44.0705C60.1789 44.0705 60.1791 44.0705 60.1793 44.0705C60.1795 44.0705 60.1797 44.0705 60.1799 44.0705C60.1801 44.0705 60.1803 44.0705 60.1805 44.0705C60.1807 44.0705 60.1809 44.0705 60.1811 44.0705C60.1813 44.0705 60.1816 44.0705 60.1818 44.0705C60.182 44.0705 60.1822 44.0705 60.1824 44.0705C60.1826 44.0705 60.1828 44.0705 60.183 44.0705C60.1832 44.0705 60.1834 44.0705 60.1836 44.0705C60.1838 44.0705 60.184 44.0705 60.1843 44.0705C60.1845 44.0705 60.1847 44.0705 60.1849 44.0705C60.1851 44.0705 60.1853 44.0705 60.1855 44.0705C60.1857 44.0705 60.1859 44.0705 60.1861 44.0705C60.1863 44.0705 60.1865 44.0705 60.1868 44.0705C60.187 44.0705 60.1872 44.0705 60.1874 44.0705C60.1876 44.0705 60.1878 44.0705 60.188 44.0705C60.1882 44.0705 60.1884 44.0705 60.1886 44.0705C60.1888 44.0705 60.189 44.0705 60.1893 44.0705C60.1895 44.0705 60.1897 44.0705 60.1899 44.0705C60.1901 44.0705 60.1903 44.0705 60.1905 44.0705C60.1907 44.0705 60.1909 44.0705 60.1911 44.0705C60.1913 44.0705 60.1916 44.0705 60.1918 44.0705C60.192 44.0705 60.1922 44.0705 60.1924 44.0705C60.1926 44.0705 60.1928 44.0705 60.193 44.0705C60.1932 44.0705 60.1934 44.0705 60.1936 44.0705C60.1939 44.0705 60.1941 44.0705 60.1943 44.0705C60.1945 44.0705 60.1947 44.0705 60.1949 44.0705C60.1951 44.0705 60.1953 44.0705 60.1955 44.0705C60.1957 44.0705 60.196 44.0705 60.1962 44.0705C60.1964 44.0705 60.1966 44.0705 60.1968 44.0705C60.197 44.0705 60.1972 44.0705 60.1974 44.0705C60.1976 44.0705 60.1978 44.0705 60.1981 44.0705C60.1983 44.0705 60.1985 44.0705 60.1987 44.0705C60.1989 44.0705 60.1991 44.0705 60.1993 44.0705C60.1995 44.0705 60.1997 44.0705 60.2 44.0705C60.2002 44.0705 60.2004 44.0705 60.2006 44.0705C60.2008 44.0705 60.201 44.0705 60.2012 44.0705C60.2014 44.0705 60.2016 44.0705 60.2019 44.0705C60.2021 44.0705 60.2023 44.0705 60.2025 44.0705C60.2027 44.0705 60.2029 44.0705 60.2031 44.0705C60.2033 44.0705 60.2035 44.0705 60.2038 44.0705C60.204 44.0705 60.2042 44.0705 60.2044 44.0705C60.2046 44.0705 60.2048 44.0705 60.205 44.0705C60.2052 44.0705 60.2055 44.0705 60.2057 44.0705C60.2059 44.0705 60.2061 44.0705 60.2063 44.0705C60.2065 44.0705 60.2067 44.0705 60.2069 44.0705C60.2072 44.0705 60.2074 44.0705 60.2076 44.0705C60.2078 44.0705 60.208 44.0705 60.2082 44.0705C60.2084 44.0705 60.2086 44.0705 60.2089 44.0705C60.2091 44.0705 60.2093 44.0705 60.2095 44.0705C60.2097 44.0705 60.2099 44.0705 60.2101 44.0705C60.2103 44.0705 60.2106 44.0705 60.2108 44.0705C60.211 44.0705 60.2112 44.0705 60.2114 44.0705C60.2116 44.0705 60.2118 44.0705 60.212 44.0705C60.2123 44.0705 60.2125 44.0705 60.2127 44.0705C60.2129 44.0705 60.2131 44.0705 60.2133 44.0705C60.2135 44.0705 60.2138 44.0705 60.214 44.0705C60.2142 44.0705 60.2144 44.0705 60.2146 44.0705C60.2148 44.0705 60.215 44.0705 60.2153 44.0705C60.2155 44.0705 60.2157 44.0705 60.2159 44.0705C60.2161 44.0705 60.2163 44.0705 60.2165 44.0705C60.2168 44.0705 60.217 44.0705 60.2172 44.0705C60.2174 44.0705 60.2176 44.0705 60.2178 44.0705C60.218 44.0705 60.2183 44.0705 60.2185 44.0705C60.2187 44.0705 60.2189 44.0705 60.2191 44.0705C60.2193 44.0705 60.2195 44.0705 60.2198 44.0705C60.22 44.0705 60.2202 44.0705 60.2204 44.0705C60.2206 44.0705 60.2208 44.0705 60.221 44.0705C60.2213 44.0705 60.2215 44.0705 60.2217 44.0705C60.2219 44.0705 60.2221 44.0705 60.2223 44.0705C60.2226 44.0705 60.2228 44.0705 60.223 44.0705C60.2232 44.0705 60.2234 44.0705 60.2236 44.0705C60.2238 44.0705 60.2241 44.0705 60.2243 44.0705C60.2245 44.0705 60.2247 44.0705 60.2249 44.0705C60.2251 44.0705 60.2254 44.0705 60.2256 44.0705C60.2258 44.0705 60.226 44.0705 60.2262 44.0705C60.2264 44.0705 60.2267 44.0705 60.2269 44.0705C60.2271 44.0705 60.2273 44.0705 60.2275 44.0705C60.2277 44.0705 60.228 44.0705 60.2282 44.0705C60.2284 44.0705 60.2286 44.0705 60.2288 44.0705C60.229 44.0705 60.2293 44.0705 60.2295 44.0705C60.2297 44.0705 60.2299 44.0705 60.2301 44.0705C60.2303 44.0705 60.2306 44.0705 60.2308 44.0705C60.231 44.0705 60.2312 44.0705 60.2314 44.0705C60.2316 44.0705 60.2319 44.0705 60.2321 44.0705C60.2323 44.0705 60.2325 44.0705 60.2327 44.0705C60.2329 44.0705 60.2332 44.0705 60.2334 44.0705C60.2336 44.0705 60.2338 44.0705 60.234 44.0705C60.2343 44.0705 60.2345 44.0705 60.2347 44.0705C60.2349 44.0705 60.2351 44.0705 60.2353 44.0705C60.2356 44.0705 60.2358 44.0705 60.236 44.0705C60.2362 44.0705 60.2364 44.0705 60.2366 44.0705C60.2369 44.0705 60.2371 44.0705 60.2373 44.0705C60.2375 44.0705 60.2377 44.0705 60.238 44.0705C60.2382 44.0705 60.2384 44.0705 60.2386 44.0705C60.2388 44.0705 60.2391 44.0705 60.2393 44.0705C60.2395 44.0705 60.2397 44.0705 60.2399 44.0705C60.2401 44.0705 60.2404 44.0705 60.2406 44.0705C60.2408 44.0705 60.241 44.0705 60.2412 44.0705C60.2415 44.0705 60.2417 44.0705 60.2419 44.0705C60.2421 44.0705 60.2423 44.0705 60.2426 44.0705C60.2428 44.0705 60.243 44.0705 60.2432 44.0705C60.2434 44.0705 60.2437 44.0705 60.2439 44.0705C60.2441 44.0705 60.2443 44.0705 60.2445 44.0705C60.2448 44.0705 60.245 44.0705 60.2452 44.0705C60.2454 44.0705 60.2456 44.0705 60.2459 44.0705C60.2461 44.0705 60.2463 44.0705 60.2465 44.0705C60.2467 44.0705 60.247 44.0705 60.2472 44.0705C60.2474 44.0705 60.2476 44.0705 60.2478 44.0705C60.2481 44.0705 60.2483 44.0705 60.2485 44.0705C60.2487 44.0705 60.2489 44.0705 60.2492 44.0705C60.2494 44.0705 60.2496 44.0705 60.2498 44.0705C60.25 44.0705 60.2503 44.0705 60.2505 44.0705C60.2507 44.0705 60.2509 44.0705 60.2511 44.0705C60.2514 44.0705 60.2516 44.0705 60.2518 44.0705C60.252 44.0705 60.2522 44.0705 60.2525 44.0705C60.2527 44.0705 60.2529 44.0705 60.2531 44.0705C60.2534 44.0705 60.2536 44.0705 60.2538 44.0705C60.254 44.0705 60.2542 44.0705 60.2545 44.0705C60.2547 44.0705 60.2549 44.0705 60.2551 44.0705C60.2553 44.0705 60.2556 44.0705 60.2558 44.0705C60.256 44.0705 60.2562 44.0705 60.2565 44.0705C60.2567 44.0705 60.2569 44.0705 60.2571 44.0705C60.2573 44.0705 60.2576 44.0705 60.2578 44.0705C60.258 44.0705 60.2582 44.0705 60.2585 44.0705C60.2587 44.0705 60.2589 44.0705 60.2591 44.0705C60.2593 44.0705 60.2596 44.0705 60.2598 44.0705C60.26 44.0705 60.2602 44.0705 60.2605 44.0705C60.2607 44.0705 60.2609 44.0705 60.2611 44.0705C60.2614 44.0705 60.2616 44.0705 60.2618 44.0705C60.262 44.0705 60.2622 44.0705 60.2625 44.0705C60.2627 44.0705 60.2629 44.0705 60.2631 44.0705C60.2634 44.0705 60.2636 44.0705 60.2638 44.0705C60.264 44.0705 60.2643 44.0705 60.2645 44.0705C60.2647 44.0705 60.2649 44.0705 60.2652 44.0705C60.2654 44.0705 60.2656 44.0705 60.2658 44.0705C60.266 44.0705 60.2663 44.0705 60.2665 44.0705C60.2667 44.0705 60.2669 44.0705 60.2672 44.0705C60.2674 44.0705 60.2676 44.0705 60.2678 44.0705C60.2681 44.0705 60.2683 44.0705 60.2685 44.0705C60.2687 44.0705 60.269 44.0705 60.2692 44.0705C60.2694 44.0705 60.2696 44.0705 60.2699 44.0705C60.2701 44.0705 60.2703 44.0705 60.2705 44.0705C60.2708 44.0705 60.271 44.0705 60.2712 44.0705C60.2714 44.0705 60.2717 44.0705 60.2719 44.0705C60.2721 44.0705 60.2723 44.0705 60.2726 44.0705C60.2728 44.0705 60.273 44.0705 60.2732 44.0705C60.2735 44.0705 60.2737 44.0705 60.2739 44.0705C60.2741 44.0705 60.2744 44.0705 60.2746 44.0705C60.2748 44.0705 60.275 44.0705 60.2753 44.0705C60.2755 44.0705 60.2757 44.0705 60.2759 44.0705C60.2762 44.0705 60.2764 44.0705 60.2766 44.0705C60.2768 44.0705 60.2771 44.0705 60.2773 44.0705C60.2775 44.0705 60.2777 44.0705 60.278 44.0705C60.2782 44.0705 60.2784 44.0705 60.2786 44.0705C60.2789 44.0705 60.2791 44.0705 60.2793 44.0705C60.2796 44.0705 60.2798 44.0705 60.28 44.0705C60.2802 44.0705 60.2805 44.0705 60.2807 44.0705C60.2809 44.0705 60.2811 44.0705 60.2814 44.0705C60.2816 44.0705 60.2818 44.0705 60.282 44.0705C60.2823 44.0705 60.2825 44.0705 60.2827 44.0705C60.283 44.0705 60.2832 44.0705 60.2834 44.0705C60.2836 44.0705 60.2839 44.0705 60.2841 44.0705C60.2843 44.0705 60.2845 44.0705 60.2848 44.0705C60.285 44.0705 60.2852 44.0705 60.2855 44.0705C60.2857 44.0705 60.2859 44.0705 60.2861 44.0705C60.2864 44.0705 60.2866 44.0705 60.2868 44.0705C60.287 44.0705 60.2873 44.0705 60.2875 44.0705C60.2877 44.0705 60.288 44.0705 60.2882 44.0705C60.2884 44.0705 60.2886 44.0705 60.2889 44.0705C60.2891 44.0705 60.2893 44.0705 60.2896 44.0705C60.2898 44.0705 60.29 44.0705 60.2902 44.0705C60.2905 44.0705 60.2907 44.0705 60.2909 44.0705C60.2912 44.0705 60.2914 44.0705 60.2916 44.0705C60.2918 44.0705 60.2921 44.0705 60.2923 44.0705C60.2925 44.0705 60.2928 44.0705 60.293 44.0705C60.2932 44.0705 60.2934 44.0705 60.2937 44.0705C60.2939 44.0705 60.2941 44.0705 60.2944 44.0705C60.2946 44.0705 60.2948 44.0705 60.295 44.0705C60.2953 44.0705 60.2955 44.0705 60.2957 44.0705C60.296 44.0705 60.2962 44.0705 60.2964 44.0705C60.2966 44.0705 60.2969 44.0705 60.2971 44.0705C60.2973 44.0705 60.2976 44.0705 60.2978 44.0705C60.298 44.0705 60.2983 44.0705 60.2985 44.0705C60.2987 44.0705 60.2989 44.0705 60.2992 44.0705C60.2994 44.0705 60.2996 44.0705 60.2999 44.0705C60.3001 44.0705 60.3003 44.0705 60.3006 44.0705C60.3008 44.0705 60.301 44.0705 60.3012 44.0705C60.3015 44.0705 60.3017 44.0705 60.3019 44.0705C60.3022 44.0705 60.3024 44.0705 60.3026 44.0705C60.3029 44.0705 60.3031 44.0705 60.3033 44.0705C60.3036 44.0705 60.3038 44.0705 60.304 44.0705C60.3042 44.0705 60.3045 44.0705 60.3047 44.0705C60.3049 44.0705 60.3052 44.0705 60.3054 44.0705C60.3056 44.0705 60.3059 44.0705 60.3061 44.0705C60.3063 44.0705 60.3066 44.0705 60.3068 44.0705C60.307 44.0705 60.3073 44.0705 60.3075 44.0705C60.3077 44.0705 60.3079 44.0705 60.3082 44.0705C60.3084 44.0705 60.3086 44.0705 60.3089 44.0705C60.3091 44.0705 60.3093 44.0705 60.3096 44.0705C60.3098 44.0705 60.31 44.0705 60.3103 44.0705C60.3105 44.0705 60.3107 44.0705 60.311 44.0705C60.3112 44.0705 60.3114 44.0705 60.3117 44.0705C60.3119 44.0705 60.3121 44.0705 60.3124 44.0705C60.3126 44.0705 60.3128 44.0705 60.3131 44.0705C60.3133 44.0705 60.3135 44.0705 60.3138 44.0705C60.314 44.0705 60.3142 44.0705 60.3145 44.0705C60.3147 44.0705 60.3149 44.0705 60.3151 44.0705C60.3154 44.0705 60.3156 44.0705 60.3158 44.0705C60.3161 44.0705 60.3163 44.0705 60.3165 44.0705C60.3168 44.0705 60.317 44.0705 60.3172 44.0705C60.3175 44.0705 60.3177 44.0705 60.3179 44.0705C60.3182 44.0705 60.3184 44.0705 60.3186 44.0705C60.3189 44.0705 60.3191 44.0705 60.3193 44.0705C60.3196 44.0705 60.3198 44.0705 60.3201 44.0705C60.3203 44.0705 60.3205 44.0705 60.3208 44.0705C60.321 44.0705 60.3212 44.0705 60.3215 44.0705C60.3217 44.0705 60.3219 44.0705 60.3222 44.0705C60.3224 44.0705 60.3226 44.0705 60.3229 44.0705C60.3231 44.0705 60.3233 44.0705 60.3236 44.0705C60.3238 44.0705 60.324 44.0705 60.3243 44.0705C60.3245 44.0705 60.3247 44.0705 60.325 44.0705C60.3252 44.0705 60.3254 44.0705 60.3257 44.0705C60.3259 44.0705 60.3261 44.0705 60.3264 44.0705C60.3266 44.0705 60.3268 44.0705 60.3271 44.0705C60.3273 44.0705 60.3276 44.0705 60.3278 44.0705C60.328 44.0705 60.3283 44.0705 60.3285 44.0705C60.3287 44.0705 60.329 44.0705 60.3292 44.0705C60.3294 44.0705 60.3297 44.0705 60.3299 44.0705C60.3301 44.0705 60.3304 44.0705 60.3306 44.0705C60.3309 44.0705 60.3311 44.0705 60.3313 44.0705C60.3316 44.0705 60.3318 44.0705 60.332 44.0705C60.3323 44.0705 60.3325 44.0705 60.3327 44.0705C60.333 44.0705 60.3332 44.0705 60.3334 44.0705C60.3337 44.0705 60.3339 44.0705 60.3342 44.0705C60.3344 44.0705 60.3346 44.0705 60.3349 44.0705C60.3351 44.0705 60.3353 44.0705 60.3356 44.0705C60.3358 44.0705 60.3361 44.0705 60.3363 44.0705C60.3365 44.0705 60.3368 44.0705 60.337 44.0705C60.3372 44.0705 60.3375 44.0705 60.3377 44.0705C60.3379 44.0705 60.3382 44.0705 60.3384 44.0705C60.3387 44.0705 60.3389 44.0705 60.3391 44.0705C60.3394 44.0705 60.3396 44.0705 60.3398 44.0705C60.3401 44.0705 60.3403 44.0705 60.3406 44.0705C60.3408 44.0705 60.341 44.0705 60.3413 44.0705C60.3415 44.0705 60.3417 44.0705 60.342 44.0705C60.3422 44.0705 60.3425 44.0705 60.3427 44.0705C60.3429 44.0705 60.3432 44.0705 60.3434 44.0705C60.3436 44.0705 60.3439 44.0705 60.3441 44.0705C60.3444 44.0705 60.3446 44.0705 60.3448 44.0705C60.3451 44.0705 60.3453 44.0705 60.3456 44.0705C60.3458 44.0705 60.346 44.0705 60.3463 44.0705C60.3465 44.0705 60.3467 44.0705 60.347 44.0705C60.3472 44.0705 60.3475 44.0705 60.3477 44.0705C60.3479 44.0705 60.3482 44.0705 60.3484 44.0705C60.3487 44.0705 60.3489 44.0705 60.3491 44.0705C60.3494 44.0705 60.3496 44.0705 60.3499 44.0705C60.3501 44.0705 60.3503 44.0705 60.3506 44.0705C60.3508 44.0705 60.351 44.0705 60.3513 44.0705C60.3515 44.0705 60.3518 44.0705 60.352 44.0705C60.3522 44.0705 60.3525 44.0705 60.3527 44.0705C60.353 44.0705 60.3532 44.0705 60.3534 44.0705C60.3537 44.0705 60.3539 44.0705 60.3542 44.0705C60.3544 44.0705 60.3546 44.0705 60.3549 44.0705C60.3551 44.0705 60.3554 44.0705 60.3556 44.0705C60.3558 44.0705 60.3561 44.0705 60.3563 44.0705C60.3566 44.0705 60.3568 44.0705 60.357 44.0705C60.3573 44.0705 60.3575 44.0705 60.3578 44.0705C60.358 44.0705 60.3582 44.0705 60.3585 44.0705C60.3587 44.0705 60.359 44.0705 60.3592 44.0705C60.3595 44.0705 60.3597 44.0705 60.3599 44.0705C60.3602 44.0705 60.3604 44.0705 60.3607 44.0705C60.3609 44.0705 60.3611 44.0705 60.3614 44.0705C60.3616 44.0705 60.3619 44.0705 60.3621 44.0705C60.3623 44.0705 60.3626 44.0705 60.3628 44.0705C60.3631 44.0705 60.3633 44.0705 60.3636 44.0705C60.3638 44.0705 60.364 44.0705 60.3643 44.0705C60.3645 44.0705 60.3648 44.0705 60.365 44.0705C60.3652 44.0705 60.3655 44.0705 60.3657 44.0705C60.366 44.0705 60.3662 44.0705 60.3665 44.0705C60.3667 44.0705 60.3669 44.0705 60.3672 44.0705C60.3674 44.0705 60.3677 44.0705 60.3679 44.0705C60.3682 44.0705 60.3684 44.0705 60.3686 44.0705C60.3689 44.0705 60.3691 44.0705 60.3694 44.0705C60.3696 44.0705 60.3698 44.0705 60.3701 44.0705C60.3703 44.0705 60.3706 44.0705 60.3708 44.0705C60.3711 44.0705 60.3713 44.0705 60.3715 44.0705C60.3718 44.0705 60.372 44.0705 60.3723 44.0705C60.3725 44.0705 60.3728 44.0705 60.373 44.0705C60.3733 44.0705 60.3735 44.0705 60.3737 44.0705C60.374 44.0705 60.3742 44.0705 60.3745 44.0705C60.3747 44.0705 60.375 44.0705 60.3752 44.0705C60.3754 44.0705 60.3757 44.0705 60.3759 44.0705C60.3762 44.0705 60.3764 44.0705 60.3767 44.0705C60.3769 44.0705 60.3771 44.0705 60.3774 44.0705C60.3776 44.0705 60.3779 44.0705 60.3781 44.0705C60.3784 44.0705 60.3786 44.0705 60.3789 44.0705C60.3791 44.0705 60.3793 44.0705 60.3796 44.0705C60.3798 44.0705 60.3801 44.0705 60.3803 44.0705C60.3806 44.0705 60.3808 44.0705 60.3811 44.0705C60.3813 44.0705 60.3815 44.0705 60.3818 44.0705C60.382 44.0705 60.3823 44.0705 60.3825 44.0705C60.3828 44.0705 60.383 44.0705 60.3833 44.0705C60.3835 44.0705 60.3838 44.0705 60.384 44.0705C60.3842 44.0705 60.3845 44.0705 60.3847 44.0705C60.385 44.0705 60.3852 44.0705 60.3855 44.0705C60.3857 44.0705 60.386 44.0705 60.3862 44.0705C60.3864 44.0705 60.3867 44.0705 60.3869 44.0705C60.3872 44.0705 60.3874 44.0705 60.3877 44.0705C60.3879 44.0705 60.3882 44.0705 60.3884 44.0705C60.3887 44.0705 60.3889 44.0705 60.3892 44.0705C60.3894 44.0705 60.3896 44.0705 60.3899 44.0705C60.3901 44.0705 60.3904 44.0705 60.3906 44.0705C60.3909 44.0705 60.3911 44.0705 60.3914 44.0705C60.3916 44.0705 60.3919 44.0705 60.3921 44.0705C60.3924 44.0705 60.3926 44.0705 60.3929 44.0705C60.3931 44.0705 60.3933 44.0705 60.3936 44.0705C60.3938 44.0705 60.3941 44.0705 60.3943 44.0705C60.3946 44.0705 60.3948 44.0705 60.3951 44.0705C60.3953 44.0705 60.3956 44.0705 60.3958 44.0705C60.3961 44.0705 60.3963 44.0705 60.3966 44.0705C60.3968 44.0705 60.3971 44.0705 60.3973 44.0705C60.3975 44.0705 60.3978 44.0705 60.398 44.0705C60.3983 44.0705 60.3985 44.0705 60.3988 44.0705C60.399 44.0705 60.3993 44.0705 60.3995 44.0705C60.3998 44.0705 60.4 44.0705 60.4003 44.0705C60.4005 44.0705 60.4008 44.0705 60.401 44.0705C60.4013 44.0705 60.4015 44.0705 60.4018 44.0705C60.402 44.0705 60.4023 44.0705 60.4025 44.0705C60.4028 44.0705 60.403 44.0705 60.4032 44.0705C60.4035 44.0705 60.4037 44.0705 60.404 44.0705C60.4042 44.0705 60.4045 44.0705 60.4047 44.0705C60.405 44.0705 60.4052 44.0705 60.4055 44.0705C60.4057 44.0705 60.406 44.0705 60.4062 44.0705C60.4065 44.0705 60.4067 44.0705 60.407 44.0705C60.4072 44.0705 60.4075 44.0705 60.4077 44.0705C60.408 44.0705 60.4082 44.0705 60.4085 44.0705C60.4087 44.0705 60.409 44.0705 60.4092 44.0705C60.4095 44.0705 60.4097 44.0705 60.41 44.0705C60.4102 44.0705 60.4105 44.0705 60.4107 44.0705C60.411 44.0705 60.4112 44.0705 60.4115 44.0705C60.4117 44.0705 60.412 44.0705 60.4122 44.0705C60.4125 44.0705 60.4127 44.0705 60.413 44.0705C60.4132 44.0705 60.4135 44.0705 60.4137 44.0705C60.414 44.0705 60.4142 44.0705 60.4145 44.0705C60.4147 44.0705 60.415 44.0705 60.4152 44.0705C60.4155 44.0705 60.4157 44.0705 60.416 44.0705C60.4162 44.0705 60.4165 44.0705 60.4167 44.0705C60.417 44.0705 60.4172 44.0705 60.4175 44.0705C60.4177 44.0705 60.418 44.0705 60.4182 44.0705C60.4185 44.0705 60.4187 44.0705 60.419 44.0705C60.4192 44.0705 60.4195 44.0705 60.4197 44.0705C60.42 44.0705 60.4202 44.0705 60.4205 44.0705C60.4207 44.0705 60.421 44.0705 60.4212 44.0705C60.4215 44.0705 60.4218 44.0705 60.422 44.0705C60.4223 44.0705 60.4225 44.0705 60.4228 44.0705C60.423 44.0705 60.4233 44.0705 60.4235 44.0705C60.4238 44.0705 60.424 44.0705 60.4243 44.0705C60.4245 44.0705 60.4248 44.0705 60.425 44.0705C60.4253 44.0705 60.4255 44.0705 60.4258 44.0705C60.426 44.0705 60.4263 44.0705 60.4265 44.0705C60.4268 44.0705 60.427 44.0705 60.4273 44.0705C60.4275 44.0705 60.4278 44.0705 60.4281 44.0705C60.4283 44.0705 60.4286 44.0705 60.4288 44.0705C60.4291 44.0705 60.4293 44.0705 60.4296 44.0705C60.4298 44.0705 60.4301 44.0705 60.4303 44.0705C60.4306 44.0705 60.4308 44.0705 60.4311 44.0705C60.4313 44.0705 60.4316 44.0705 60.4318 44.0705C60.4321 44.0705 60.4324 44.0705 60.4326 44.0705C60.4329 44.0705 60.4331 44.0705 60.4334 44.0705C60.4336 44.0705 60.4339 44.0705 60.4341 44.0705C60.4344 44.0705 60.4346 44.0705 60.4349 44.0705C60.4351 44.0705 60.4354 44.0705 60.4357 44.0705C60.4359 44.0705 60.4362 44.0705 60.4364 44.0705C60.4367 44.0705 60.4369 44.0705 60.4372 44.0705C60.4374 44.0705 60.4377 44.0705 60.4379 44.0705C60.4382 44.0705 60.4384 44.0705 60.4387 44.0705C60.439 44.0705 60.4392 44.0705 60.4395 44.0705C60.4397 44.0705 60.44 44.0705 60.4402 44.0705C60.4405 44.0705 60.4407 44.0705 60.441 44.0705C60.4412 44.0705 60.4415 44.0705 60.4418 44.0705C60.442 44.0705 60.4423 44.0705 60.4425 44.0705C60.4428 44.0705 60.443 44.0705 60.4433 44.0705C60.4435 44.0705 60.4438 44.0705 60.4441 44.0705C60.4443 44.0705 60.4446 44.0705 60.4448 44.0705C60.4451 44.0705 60.4453 44.0705 60.4456 44.0705C60.4458 44.0705 60.4461 44.0705 60.4464 44.0705C60.4466 44.0705 60.4469 44.0705 60.4471 44.0705C60.4474 44.0705 60.4476 44.0705 60.4479 44.0705C60.4481 44.0705 60.4484 44.0705 60.4487 44.0705C60.4489 44.0705 60.4492 44.0705 60.4494 44.0705C60.4497 44.0705 60.4499 44.0705 60.4502 44.0705C60.4505 44.0705 60.4507 44.0705 60.451 44.0705C60.4512 44.0705 60.4515 44.0705 60.4517 44.0705C60.452 44.0705 60.4522 44.0705 60.4525 44.0705C60.4528 44.0705 60.453 44.0705 60.4533 44.0705C60.4535 44.0705 60.4538 44.0705 60.454 44.0705C60.4543 44.0705 60.4546 44.0705 60.4548 44.0705C60.4551 44.0705 60.4553 44.0705 60.4556 44.0705C60.4558 44.0705 60.4561 44.0705 60.4564 44.0705C60.4566 44.0705 60.4569 44.0705 60.4571 44.0705C60.4574 44.0705 60.4576 44.0705 60.4579 44.0705C60.4582 44.0705 60.4584 44.0705 60.4587 44.0705C60.4589 44.0705 60.4592 44.0705 60.4595 44.0705C60.4597 44.0705 60.46 44.0705 60.4602 44.0705C60.4605 44.0705 60.4607 44.0705 60.461 44.0705C60.4613 44.0705 60.4615 44.0705 60.4618 44.0705C60.462 44.0705 60.4623 44.0705 60.4625 44.0705C60.4628 44.0705 60.4631 44.0705 60.4633 44.0705C60.4636 44.0705 60.4638 44.0705 60.4641 44.0705C60.4644 44.0705 60.4646 44.0705 60.4649 44.0705C60.4651 44.0705 60.4654 44.0705 60.4657 44.0705C60.4659 44.0705 60.4662 44.0705 60.4664 44.0705C60.4667 44.0705 60.4669 44.0705 60.4672 44.0705C60.4675 44.0705 60.4677 44.0705 60.468 44.0705C60.4682 44.0705 60.4685 44.0705 60.4688 44.0705C60.469 44.0705 60.4693 44.0705 60.4695 44.0705C60.4698 44.0705 60.4701 44.0705 60.4703 44.0705C60.4706 44.0705 60.4708 44.0705 60.4711 44.0705C60.4714 44.0705 60.4716 44.0705 60.4719 44.0705C60.4721 44.0705 60.4724 44.0705 60.4727 44.0705C60.4729 44.0705 60.4732 44.0705 60.4734 44.0705C60.4737 44.0705 60.474 44.0705 60.4742 44.0705C60.4745 44.0705 60.4747 44.0705 60.475 44.0705V41.0705ZM60.125 41.0705C59.4559 41.0705 58.8113 41.117 58.1934 41.2135L58.6566 44.1775C59.1054 44.1074 59.5941 44.0705 60.125 44.0705V41.0705ZM58.1934 41.2135C57.5379 41.3159 56.9177 41.4971 56.3542 41.7789L57.6958 44.4621C57.9323 44.3439 58.2455 44.2418 58.6566 44.1775L58.1934 41.2135ZM56.3542 41.7789C55.7536 42.0791 55.2364 42.5028 54.8462 43.0603L57.3038 44.7807C57.3803 44.6715 57.4964 44.5619 57.6958 44.4621L56.3542 41.7789ZM54.8173 43.103C54.4063 43.7354 54.25 44.4549 54.25 45.1705H57.25C57.25 44.8861 57.3104 44.7722 57.3327 44.738L54.8173 43.103ZM54.25 45.1705C54.25 45.7841 54.3731 46.4132 54.7071 46.981L57.2929 45.46C57.292 45.4585 57.282 45.4415 57.2717 45.3981C57.261 45.3531 57.25 45.2798 57.25 45.1705H54.25ZM54.7201 47.0027C55.0037 47.4668 55.3703 47.8688 55.8252 48.1816L57.5248 45.7094C57.4464 45.6555 57.363 45.5742 57.2799 45.4383L54.7201 47.0027ZM55.775 48.1455C56.1938 48.4596 56.6609 48.6876 57.1683 48.8211L57.9317 45.9199C57.8058 45.8868 57.6896 45.8314 57.575 45.7455L55.775 48.1455ZM57.119 48.8072C57.5703 48.9426 58.0328 49.0205 58.5 49.0205V46.0205C58.3672 46.0205 58.1964 45.9984 57.981 45.9338L57.119 48.8072ZM58.5 49.0205C59.5953 49.0205 60.6728 48.7384 61.4905 47.951L59.4095 45.79C59.3272 45.8693 59.1047 46.0205 58.5 46.0205V49.0205ZM61.449 47.9894C62.3828 47.1557 62.65 45.9222 62.65 44.7455H59.65C59.65 45.1368 59.6034 45.3964 59.5503 45.5574C59.5002 45.7097 59.4532 45.7496 59.451 45.7516L61.449 47.9894ZM62.55 45.2205C62.55 46.1743 62.4167 46.8898 62.2073 47.4134L64.9927 48.5276C65.3833 47.5512 65.55 46.4334 65.55 45.2205H62.55ZM62.193 47.4505C61.9741 48.0428 61.6946 48.4653 61.3825 48.767L63.4675 50.924C64.1554 50.2591 64.6592 49.4315 65.007 48.4905L62.193 47.4505ZM61.3825 48.767C61.0478 49.0905 60.6629 49.3222 60.2114 49.469L61.1386 52.3221C62.0204 52.0355 62.8022 51.5672 63.4675 50.924L61.3825 48.767ZM60.2114 49.469C59.7046 49.6337 59.1536 49.7205 58.55 49.7205V52.7205C59.4464 52.7205 60.3121 52.5907 61.1386 52.3221L60.2114 49.469ZM58.55 49.7205C58.0739 49.7205 57.5611 49.6317 57.0045 49.4329L55.9955 52.2581C56.8389 52.5593 57.6928 52.7205 58.55 52.7205V49.7205ZM56.9743 49.4225C56.47 49.2544 56.0119 48.9909 55.5924 48.6208L53.6076 50.8703C54.3214 51.5001 55.13 51.97 56.0257 52.2685L56.9743 49.4225ZM55.5734 48.6043C55.1876 48.2752 54.842 47.8272 54.5532 47.2233L51.8468 48.5177C52.2913 49.4472 52.8791 50.2492 53.6266 50.8868L55.5734 48.6043ZM54.5476 47.2117C54.3022 46.7097 54.15 46.0536 54.15 45.1955H51.15C51.15 46.4041 51.3645 47.5313 51.8524 48.5293L54.5476 47.2117ZM54.15 45.1955C54.15 43.4513 54.6841 42.3393 55.578 41.6038L53.672 39.2872C51.9326 40.7183 51.15 42.7731 51.15 45.1955H54.15ZM55.578 41.6038C56.5437 40.8093 57.9816 40.3205 60.075 40.3205V37.3205C57.5351 37.3205 55.3396 37.915 53.672 39.2872L55.578 41.6038ZM60.075 40.3205C61.5881 40.3205 62.867 40.555 63.9398 40.987L65.0602 38.204C63.5664 37.6026 61.8953 37.3205 60.075 37.3205V40.3205ZM63.9398 40.987C65.0304 41.426 65.9133 42.0352 66.6169 42.8065L68.8331 40.7846C67.8034 39.6558 66.5363 38.7983 65.0602 38.204L63.9398 40.987ZM66.6177 42.8074C67.3474 43.6059 67.9126 44.5767 68.302 45.7449L71.148 44.7962C70.6374 43.2643 69.8693 41.9185 68.8323 40.7837L66.6177 42.8074ZM68.3055 45.7552C68.7122 46.9464 68.9347 48.3175 68.9501 49.8852L71.9499 49.8558C71.932 48.0235 71.6711 46.3279 71.1445 44.7858L68.3055 45.7552ZM70.3534 48.3736C69.8357 48.407 69.3263 48.4404 68.8252 48.4738L69.0248 51.4672C69.5237 51.4339 70.0309 51.4007 70.5466 51.3674L70.3534 48.3736ZM68.8218 48.4741C68.342 48.5072 67.8369 48.5403 67.3064 48.5734L67.4936 51.5676C68.0298 51.5341 68.5414 51.5005 69.0282 51.467L68.8218 48.4741ZM68.8997 50.0411C68.8815 49.1119 68.7901 48.2226 68.6209 47.3763L65.6791 47.9647C65.8099 48.6184 65.8852 49.3291 65.9003 50.0999L68.8997 50.0411ZM68.6258 47.4022C68.4701 46.546 68.2136 45.739 67.8489 44.9893L65.1511 46.3017C65.3864 46.7853 65.5632 47.3284 65.6742 47.9388L68.6258 47.4022ZM67.8416 44.9747C67.4628 44.217 66.9637 43.5467 66.3471 42.9727L64.3029 45.1683C64.653 45.4943 64.9372 45.874 65.1584 46.3163L67.8416 44.9747ZM66.3662 42.9907C65.7317 42.3789 64.9709 41.9248 64.1154 41.6118L63.0846 44.4292C63.5957 44.6162 63.985 44.8621 64.2838 45.1503L66.3662 42.9907ZM62.2345 43.6412C62.3503 43.896 62.4281 44.149 62.4722 44.4025L65.4278 43.8885C65.3386 43.3753 65.1831 42.8784 64.9656 42.3998L62.2345 43.6412ZM62.4722 44.4025C62.5265 44.7147 62.55 44.9862 62.55 45.2205H65.55C65.55 44.7882 65.5069 44.343 65.4278 43.8885L62.4722 44.4025Z" fill="black" mask="url(#path-3-outside-1_44_556)"/>
</g>
</svg>
