<svg width="90" height="90" viewBox="0 0 90 90" fill="none" xmlns="http://www.w3.org/2000/svg">
<mask id="mask0_44_540" style="mask-type:alpha" maskUnits="userSpaceOnUse" x="0" y="0" width="90" height="90">
<rect width="90" height="90" fill="#D9D9D9"/>
</mask>
<g mask="url(#mask0_44_540)">
<path fill-rule="evenodd" clip-rule="evenodd" d="M76 67C78.7614 67 81 64.7614 81 62V28C81 25.2386 78.7614 23 76 23H19C16.2386 23 14 25.2386 14 28V45V62C14 64.7614 16.2386 67 19 67H76ZM32.6 52.8C31.9408 53.2944 31 52.824 31 52V38C31 37.176 31.9408 36.7056 32.6 37.2L41.9333 44.2C42.4667 44.6 42.4667 45.4 41.9333 45.8L32.6 52.8Z" fill="#D6592C"/>
<path d="M32.6 37.2C31.9408 36.7056 31 37.176 31 38V52C31 52.824 31.9408 53.2944 32.6 52.8L41.9333 45.8C42.4667 45.4 42.4667 44.6 41.9333 44.2L32.6 37.2Z" fill="white"/>
<path fill-rule="evenodd" clip-rule="evenodd" d="M76 67C78.7614 67 81 64.7614 81 62V28C81 25.2386 78.7614 23 76 23H19C16.2386 23 14 25.2386 14 28V45V62C14 64.7614 16.2386 67 19 67H76ZM32.6 52.8C31.9408 53.2944 31 52.824 31 52V38C31 37.176 31.9408 36.7056 32.6 37.2L41.9333 44.2C42.4667 44.6 42.4667 45.4 41.9333 45.8L32.6 52.8Z" stroke="black" stroke-width="1.5"/>
<path d="M32.6 37.2C31.9408 36.7056 31 37.176 31 38V52C31 52.824 31.9408 53.2944 32.6 52.8L41.9333 45.8C42.4667 45.4 42.4667 44.6 41.9333 44.2L32.6 37.2Z" stroke="black" stroke-width="1.5"/>
<mask id="path-3-outside-1_44_540" maskUnits="userSpaceOnUse" x="51" y="36" width="22" height="17" fill="black">
<rect fill="white" x="51" y="36" width="22" height="17"/>
<path d="M65.775 50.2955C65.1417 50.2955 64.5333 50.1705 63.95 49.9205C63.3667 49.6705 62.8 49.3455 62.25 48.9455C61.7167 48.5455 61.2 48.0955 60.7 47.5955C60.2 47.0955 59.725 46.6038 59.275 46.1205C59.0417 45.8705 58.775 45.5955 58.475 45.2955C58.1917 45.0122 57.9 44.7372 57.6 44.4705C57.3 44.2038 57.0167 43.9622 56.75 43.7455C56.5 43.5455 56.2917 43.4205 56.125 43.3705V50.8205H53V39.2705C53.1833 39.2372 53.4167 39.2205 53.7 39.2205C53.9833 39.2205 54.1833 39.2205 54.3 39.2205C55.1 39.2205 55.8333 39.3455 56.5 39.5955C57.1667 39.8622 57.7833 40.2038 58.35 40.6205C58.9333 41.0372 59.475 41.5038 59.975 42.0205C60.475 42.5538 60.975 43.0788 61.475 43.5955C61.8583 43.9955 62.2167 44.3705 62.55 44.7205C62.9 45.0705 63.2333 45.3788 63.55 45.6455C63.8833 45.9122 64.2083 46.1205 64.525 46.2705C64.8583 46.4205 65.1917 46.4955 65.525 46.4955C66.2583 46.4955 66.775 46.2872 67.075 45.8705C67.375 45.4538 67.525 44.9372 67.525 44.3205C67.525 43.8705 67.45 43.4455 67.3 43.0455C67.1667 42.6622 67 42.3038 66.8 41.9705C66.6167 41.6538 66.425 41.3788 66.225 41.1455C66.0417 40.9122 65.8917 40.7372 65.775 40.6205L68.375 38.7705C69.0583 39.5038 69.6167 40.3538 70.05 41.3205C70.5 42.3038 70.725 43.3538 70.725 44.4705C70.725 45.4872 70.6083 46.3622 70.375 47.0955C70.1417 47.8288 69.8083 48.4288 69.375 48.8955C68.9583 49.3788 68.4417 49.7288 67.825 49.9455C67.225 50.1788 66.5417 50.2955 65.775 50.2955Z"/>
</mask>
<path d="M65.775 50.2955C65.1417 50.2955 64.5333 50.1705 63.95 49.9205C63.3667 49.6705 62.8 49.3455 62.25 48.9455C61.7167 48.5455 61.2 48.0955 60.7 47.5955C60.2 47.0955 59.725 46.6038 59.275 46.1205C59.0417 45.8705 58.775 45.5955 58.475 45.2955C58.1917 45.0122 57.9 44.7372 57.6 44.4705C57.3 44.2038 57.0167 43.9622 56.75 43.7455C56.5 43.5455 56.2917 43.4205 56.125 43.3705V50.8205H53V39.2705C53.1833 39.2372 53.4167 39.2205 53.7 39.2205C53.9833 39.2205 54.1833 39.2205 54.3 39.2205C55.1 39.2205 55.8333 39.3455 56.5 39.5955C57.1667 39.8622 57.7833 40.2038 58.35 40.6205C58.9333 41.0372 59.475 41.5038 59.975 42.0205C60.475 42.5538 60.975 43.0788 61.475 43.5955C61.8583 43.9955 62.2167 44.3705 62.55 44.7205C62.9 45.0705 63.2333 45.3788 63.55 45.6455C63.8833 45.9122 64.2083 46.1205 64.525 46.2705C64.8583 46.4205 65.1917 46.4955 65.525 46.4955C66.2583 46.4955 66.775 46.2872 67.075 45.8705C67.375 45.4538 67.525 44.9372 67.525 44.3205C67.525 43.8705 67.45 43.4455 67.3 43.0455C67.1667 42.6622 67 42.3038 66.8 41.9705C66.6167 41.6538 66.425 41.3788 66.225 41.1455C66.0417 40.9122 65.8917 40.7372 65.775 40.6205L68.375 38.7705C69.0583 39.5038 69.6167 40.3538 70.05 41.3205C70.5 42.3038 70.725 43.3538 70.725 44.4705C70.725 45.4872 70.6083 46.3622 70.375 47.0955C70.1417 47.8288 69.8083 48.4288 69.375 48.8955C68.9583 49.3788 68.4417 49.7288 67.825 49.9455C67.225 50.1788 66.5417 50.2955 65.775 50.2955Z" fill="white"/>
<path d="M63.95 49.9205L63.3591 51.2992H63.3591L63.95 49.9205ZM62.25 48.9455L61.35 50.1455L61.3588 50.1521L61.3677 50.1586L62.25 48.9455ZM60.7 47.5955L61.7607 46.5348L60.7 47.5955ZM59.275 46.1205L60.3728 45.0984L60.3716 45.097L59.275 46.1205ZM58.475 45.2955L59.5357 44.2348V44.2348L58.475 45.2955ZM57.6 44.4705L58.5965 43.3494V43.3494L57.6 44.4705ZM56.75 43.7455L57.6959 42.5813L57.687 42.5742L56.75 43.7455ZM56.125 43.3705L56.556 41.9338L54.625 41.3545V43.3705H56.125ZM56.125 50.8205V52.3205H57.625V50.8205H56.125ZM53 50.8205H51.5V52.3205H53V50.8205ZM53 39.2705L52.7317 37.7947L51.5 38.0186V39.2705H53ZM56.5 39.5955L57.0571 38.2028L57.042 38.1967L57.0267 38.191L56.5 39.5955ZM58.35 40.6205L57.4614 41.829L57.4697 41.8351L57.4781 41.8411L58.35 40.6205ZM59.975 42.0205L61.0693 40.9946L61.0612 40.9859L61.0529 40.9774L59.975 42.0205ZM61.475 43.5955L62.558 42.5576L62.5529 42.5524L61.475 43.5955ZM62.55 44.7205L61.4638 45.755L61.4764 45.7682L61.4893 45.7812L62.55 44.7205ZM63.55 45.6455L62.5838 46.7929L62.5982 46.805L62.613 46.8168L63.55 45.6455ZM64.525 46.2705L63.8829 47.6261L63.8961 47.6324L63.9095 47.6384L64.525 46.2705ZM67.075 45.8705L68.2923 46.747L67.075 45.8705ZM67.3 43.0455L65.8833 43.5383L65.8892 43.5553L65.8955 43.5722L67.3 43.0455ZM66.8 41.9705L65.5019 42.7221L65.5077 42.7322L65.5138 42.7422L66.8 41.9705ZM66.225 41.1455L65.0455 42.0722L65.0653 42.0974L65.0861 42.1217L66.225 41.1455ZM65.775 40.6205L64.9054 39.3983L63.46 40.4268L64.7143 41.6812L65.775 40.6205ZM68.375 38.7705L69.4724 37.7479L68.5763 36.7863L67.5054 37.5483L68.375 38.7705ZM70.05 41.3205L68.6812 41.9341L68.686 41.9447L70.05 41.3205ZM70.375 47.0955L71.8044 47.5503L70.375 47.0955ZM69.375 48.8955L68.2758 47.8748L68.257 47.8951L68.2389 47.9161L69.375 48.8955ZM67.825 49.9455L67.3278 48.5303L67.3044 48.5385L67.2813 48.5475L67.825 49.9455ZM65.775 48.7955C65.3452 48.7955 64.9379 48.7119 64.5409 48.5418L63.3591 51.2992C64.1288 51.6291 64.9381 51.7955 65.775 51.7955V48.7955ZM64.5409 48.5418C64.0676 48.339 63.5981 48.0712 63.1323 47.7324L61.3677 50.1586C62.0019 50.6199 62.6657 51.0021 63.3591 51.2992L64.5409 48.5418ZM63.15 47.7455C62.6768 47.3906 62.2135 46.9877 61.7607 46.5348L59.6393 48.6562C60.1865 49.2033 60.7566 49.7004 61.35 50.1455L63.15 47.7455ZM61.7607 46.5348C61.2724 46.0466 60.8099 45.5678 60.3728 45.0984L58.1772 47.1426C58.6401 47.6399 59.1276 48.1444 59.6393 48.6562L61.7607 46.5348ZM60.3716 45.097C60.1241 44.8319 59.8451 44.5443 59.5357 44.2348L57.4143 46.3562C57.7049 46.6467 57.9592 46.9091 58.1784 47.144L60.3716 45.097ZM59.5357 44.2348C59.2315 43.9307 58.9185 43.6355 58.5965 43.3494L56.6035 45.5916C56.8815 45.8388 57.1518 46.0936 57.4143 46.3562L59.5357 44.2348ZM58.5965 43.3494C58.2827 43.0704 57.9823 42.8141 57.6959 42.5813L55.8041 44.9097C56.051 45.1103 56.3173 45.3373 56.6035 45.5916L58.5965 43.3494ZM57.687 42.5742C57.3915 42.3378 57.0021 42.0676 56.556 41.9338L55.694 44.8072C55.6545 44.7954 55.6305 44.7846 55.6235 44.7813C55.6161 44.7779 55.6195 44.779 55.6345 44.788C55.6663 44.8071 55.725 44.8464 55.813 44.9168L57.687 42.5742ZM54.625 43.3705V50.8205H57.625V43.3705H54.625ZM56.125 49.3205H53V52.3205H56.125V49.3205ZM54.5 50.8205V39.2705H51.5V50.8205H54.5ZM53.2683 40.7463C53.3301 40.7351 53.4654 40.7205 53.7 40.7205V37.7205C53.3679 37.7205 53.0365 37.7393 52.7317 37.7947L53.2683 40.7463ZM53.7 40.7205C53.7006 40.7205 53.7011 40.7205 53.7017 40.7205C53.7022 40.7205 53.7028 40.7205 53.7033 40.7205C53.7039 40.7205 53.7044 40.7205 53.705 40.7205C53.7055 40.7205 53.7061 40.7205 53.7066 40.7205C53.7072 40.7205 53.7077 40.7205 53.7083 40.7205C53.7088 40.7205 53.7094 40.7205 53.7099 40.7205C53.7105 40.7205 53.711 40.7205 53.7116 40.7205C53.7121 40.7205 53.7127 40.7205 53.7132 40.7205C53.7138 40.7205 53.7143 40.7205 53.7149 40.7205C53.7154 40.7205 53.716 40.7205 53.7165 40.7205C53.7171 40.7205 53.7176 40.7205 53.7181 40.7205C53.7187 40.7205 53.7192 40.7205 53.7198 40.7205C53.7203 40.7205 53.7209 40.7205 53.7214 40.7205C53.722 40.7205 53.7225 40.7205 53.7231 40.7205C53.7236 40.7205 53.7241 40.7205 53.7247 40.7205C53.7252 40.7205 53.7258 40.7205 53.7263 40.7205C53.7269 40.7205 53.7274 40.7205 53.7279 40.7205C53.7285 40.7205 53.729 40.7205 53.7296 40.7205C53.7301 40.7205 53.7307 40.7205 53.7312 40.7205C53.7317 40.7205 53.7323 40.7205 53.7328 40.7205C53.7334 40.7205 53.7339 40.7205 53.7344 40.7205C53.735 40.7205 53.7355 40.7205 53.7361 40.7205C53.7366 40.7205 53.7371 40.7205 53.7377 40.7205C53.7382 40.7205 53.7388 40.7205 53.7393 40.7205C53.7398 40.7205 53.7404 40.7205 53.7409 40.7205C53.7414 40.7205 53.742 40.7205 53.7425 40.7205C53.7431 40.7205 53.7436 40.7205 53.7441 40.7205C53.7447 40.7205 53.7452 40.7205 53.7457 40.7205C53.7463 40.7205 53.7468 40.7205 53.7473 40.7205C53.7479 40.7205 53.7484 40.7205 53.7489 40.7205C53.7495 40.7205 53.75 40.7205 53.7505 40.7205C53.7511 40.7205 53.7516 40.7205 53.7521 40.7205C53.7527 40.7205 53.7532 40.7205 53.7537 40.7205C53.7543 40.7205 53.7548 40.7205 53.7553 40.7205C53.7559 40.7205 53.7564 40.7205 53.7569 40.7205C53.7575 40.7205 53.758 40.7205 53.7585 40.7205C53.7591 40.7205 53.7596 40.7205 53.7601 40.7205C53.7607 40.7205 53.7612 40.7205 53.7617 40.7205C53.7622 40.7205 53.7628 40.7205 53.7633 40.7205C53.7638 40.7205 53.7644 40.7205 53.7649 40.7205C53.7654 40.7205 53.7659 40.7205 53.7665 40.7205C53.767 40.7205 53.7675 40.7205 53.768 40.7205C53.7686 40.7205 53.7691 40.7205 53.7696 40.7205C53.7701 40.7205 53.7707 40.7205 53.7712 40.7205C53.7717 40.7205 53.7723 40.7205 53.7728 40.7205C53.7733 40.7205 53.7738 40.7205 53.7743 40.7205C53.7749 40.7205 53.7754 40.7205 53.7759 40.7205C53.7764 40.7205 53.777 40.7205 53.7775 40.7205C53.778 40.7205 53.7785 40.7205 53.7791 40.7205C53.7796 40.7205 53.7801 40.7205 53.7806 40.7205C53.7811 40.7205 53.7817 40.7205 53.7822 40.7205C53.7827 40.7205 53.7832 40.7205 53.7837 40.7205C53.7843 40.7205 53.7848 40.7205 53.7853 40.7205C53.7858 40.7205 53.7863 40.7205 53.7869 40.7205C53.7874 40.7205 53.7879 40.7205 53.7884 40.7205C53.7889 40.7205 53.7895 40.7205 53.79 40.7205C53.7905 40.7205 53.791 40.7205 53.7915 40.7205C53.792 40.7205 53.7926 40.7205 53.7931 40.7205C53.7936 40.7205 53.7941 40.7205 53.7946 40.7205C53.7951 40.7205 53.7957 40.7205 53.7962 40.7205C53.7967 40.7205 53.7972 40.7205 53.7977 40.7205C53.7982 40.7205 53.7987 40.7205 53.7993 40.7205C53.7998 40.7205 53.8003 40.7205 53.8008 40.7205C53.8013 40.7205 53.8018 40.7205 53.8023 40.7205C53.8029 40.7205 53.8034 40.7205 53.8039 40.7205C53.8044 40.7205 53.8049 40.7205 53.8054 40.7205C53.8059 40.7205 53.8064 40.7205 53.8069 40.7205C53.8075 40.7205 53.808 40.7205 53.8085 40.7205C53.809 40.7205 53.8095 40.7205 53.81 40.7205C53.8105 40.7205 53.811 40.7205 53.8115 40.7205C53.812 40.7205 53.8126 40.7205 53.8131 40.7205C53.8136 40.7205 53.8141 40.7205 53.8146 40.7205C53.8151 40.7205 53.8156 40.7205 53.8161 40.7205C53.8166 40.7205 53.8171 40.7205 53.8176 40.7205C53.8181 40.7205 53.8186 40.7205 53.8191 40.7205C53.8197 40.7205 53.8202 40.7205 53.8207 40.7205C53.8212 40.7205 53.8217 40.7205 53.8222 40.7205C53.8227 40.7205 53.8232 40.7205 53.8237 40.7205C53.8242 40.7205 53.8247 40.7205 53.8252 40.7205C53.8257 40.7205 53.8262 40.7205 53.8267 40.7205C53.8272 40.7205 53.8277 40.7205 53.8282 40.7205C53.8287 40.7205 53.8292 40.7205 53.8297 40.7205C53.8302 40.7205 53.8307 40.7205 53.8312 40.7205C53.8317 40.7205 53.8322 40.7205 53.8327 40.7205C53.8332 40.7205 53.8337 40.7205 53.8342 40.7205C53.8347 40.7205 53.8352 40.7205 53.8357 40.7205C53.8362 40.7205 53.8367 40.7205 53.8372 40.7205C53.8377 40.7205 53.8382 40.7205 53.8387 40.7205C53.8392 40.7205 53.8397 40.7205 53.8402 40.7205C53.8407 40.7205 53.8412 40.7205 53.8417 40.7205C53.8422 40.7205 53.8427 40.7205 53.8432 40.7205C53.8437 40.7205 53.8442 40.7205 53.8447 40.7205C53.8452 40.7205 53.8457 40.7205 53.8461 40.7205C53.8466 40.7205 53.8471 40.7205 53.8476 40.7205C53.8481 40.7205 53.8486 40.7205 53.8491 40.7205C53.8496 40.7205 53.8501 40.7205 53.8506 40.7205C53.8511 40.7205 53.8516 40.7205 53.8521 40.7205C53.8526 40.7205 53.853 40.7205 53.8535 40.7205C53.854 40.7205 53.8545 40.7205 53.855 40.7205C53.8555 40.7205 53.856 40.7205 53.8565 40.7205C53.857 40.7205 53.8575 40.7205 53.8579 40.7205C53.8584 40.7205 53.8589 40.7205 53.8594 40.7205C53.8599 40.7205 53.8604 40.7205 53.8609 40.7205C53.8614 40.7205 53.8619 40.7205 53.8623 40.7205C53.8628 40.7205 53.8633 40.7205 53.8638 40.7205C53.8643 40.7205 53.8648 40.7205 53.8653 40.7205C53.8657 40.7205 53.8662 40.7205 53.8667 40.7205C53.8672 40.7205 53.8677 40.7205 53.8682 40.7205C53.8687 40.7205 53.8691 40.7205 53.8696 40.7205C53.8701 40.7205 53.8706 40.7205 53.8711 40.7205C53.8716 40.7205 53.872 40.7205 53.8725 40.7205C53.873 40.7205 53.8735 40.7205 53.874 40.7205C53.8745 40.7205 53.8749 40.7205 53.8754 40.7205C53.8759 40.7205 53.8764 40.7205 53.8769 40.7205C53.8773 40.7205 53.8778 40.7205 53.8783 40.7205C53.8788 40.7205 53.8793 40.7205 53.8797 40.7205C53.8802 40.7205 53.8807 40.7205 53.8812 40.7205C53.8817 40.7205 53.8821 40.7205 53.8826 40.7205C53.8831 40.7205 53.8836 40.7205 53.8841 40.7205C53.8845 40.7205 53.885 40.7205 53.8855 40.7205C53.886 40.7205 53.8864 40.7205 53.8869 40.7205C53.8874 40.7205 53.8879 40.7205 53.8883 40.7205C53.8888 40.7205 53.8893 40.7205 53.8898 40.7205C53.8902 40.7205 53.8907 40.7205 53.8912 40.7205C53.8917 40.7205 53.8921 40.7205 53.8926 40.7205C53.8931 40.7205 53.8936 40.7205 53.894 40.7205C53.8945 40.7205 53.895 40.7205 53.8955 40.7205C53.8959 40.7205 53.8964 40.7205 53.8969 40.7205C53.8973 40.7205 53.8978 40.7205 53.8983 40.7205C53.8988 40.7205 53.8992 40.7205 53.8997 40.7205C53.9002 40.7205 53.9006 40.7205 53.9011 40.7205C53.9016 40.7205 53.9021 40.7205 53.9025 40.7205C53.903 40.7205 53.9035 40.7205 53.9039 40.7205C53.9044 40.7205 53.9049 40.7205 53.9053 40.7205C53.9058 40.7205 53.9063 40.7205 53.9067 40.7205C53.9072 40.7205 53.9077 40.7205 53.9081 40.7205C53.9086 40.7205 53.9091 40.7205 53.9095 40.7205C53.91 40.7205 53.9105 40.7205 53.9109 40.7205C53.9114 40.7205 53.9119 40.7205 53.9123 40.7205C53.9128 40.7205 53.9133 40.7205 53.9137 40.7205C53.9142 40.7205 53.9147 40.7205 53.9151 40.7205C53.9156 40.7205 53.916 40.7205 53.9165 40.7205C53.917 40.7205 53.9174 40.7205 53.9179 40.7205C53.9184 40.7205 53.9188 40.7205 53.9193 40.7205C53.9197 40.7205 53.9202 40.7205 53.9207 40.7205C53.9211 40.7205 53.9216 40.7205 53.9221 40.7205C53.9225 40.7205 53.923 40.7205 53.9234 40.7205C53.9239 40.7205 53.9244 40.7205 53.9248 40.7205C53.9253 40.7205 53.9257 40.7205 53.9262 40.7205C53.9266 40.7205 53.9271 40.7205 53.9276 40.7205C53.928 40.7205 53.9285 40.7205 53.9289 40.7205C53.9294 40.7205 53.9299 40.7205 53.9303 40.7205C53.9308 40.7205 53.9312 40.7205 53.9317 40.7205C53.9321 40.7205 53.9326 40.7205 53.933 40.7205C53.9335 40.7205 53.934 40.7205 53.9344 40.7205C53.9349 40.7205 53.9353 40.7205 53.9358 40.7205C53.9362 40.7205 53.9367 40.7205 53.9371 40.7205C53.9376 40.7205 53.938 40.7205 53.9385 40.7205C53.9389 40.7205 53.9394 40.7205 53.9399 40.7205C53.9403 40.7205 53.9408 40.7205 53.9412 40.7205C53.9417 40.7205 53.9421 40.7205 53.9426 40.7205C53.943 40.7205 53.9435 40.7205 53.9439 40.7205C53.9444 40.7205 53.9448 40.7205 53.9453 40.7205C53.9457 40.7205 53.9462 40.7205 53.9466 40.7205C53.9471 40.7205 53.9475 40.7205 53.948 40.7205C53.9484 40.7205 53.9489 40.7205 53.9493 40.7205C53.9498 40.7205 53.9502 40.7205 53.9506 40.7205C53.9511 40.7205 53.9515 40.7205 53.952 40.7205C53.9524 40.7205 53.9529 40.7205 53.9533 40.7205C53.9538 40.7205 53.9542 40.7205 53.9547 40.7205C53.9551 40.7205 53.9556 40.7205 53.956 40.7205C53.9564 40.7205 53.9569 40.7205 53.9573 40.7205C53.9578 40.7205 53.9582 40.7205 53.9587 40.7205C53.9591 40.7205 53.9596 40.7205 53.96 40.7205C53.9604 40.7205 53.9609 40.7205 53.9613 40.7205C53.9618 40.7205 53.9622 40.7205 53.9626 40.7205C53.9631 40.7205 53.9635 40.7205 53.964 40.7205C53.9644 40.7205 53.9649 40.7205 53.9653 40.7205C53.9657 40.7205 53.9662 40.7205 53.9666 40.7205C53.9671 40.7205 53.9675 40.7205 53.9679 40.7205C53.9684 40.7205 53.9688 40.7205 53.9692 40.7205C53.9697 40.7205 53.9701 40.7205 53.9706 40.7205C53.971 40.7205 53.9714 40.7205 53.9719 40.7205C53.9723 40.7205 53.9727 40.7205 53.9732 40.7205C53.9736 40.7205 53.9741 40.7205 53.9745 40.7205C53.9749 40.7205 53.9754 40.7205 53.9758 40.7205C53.9762 40.7205 53.9767 40.7205 53.9771 40.7205C53.9775 40.7205 53.978 40.7205 53.9784 40.7205C53.9788 40.7205 53.9793 40.7205 53.9797 40.7205C53.9801 40.7205 53.9806 40.7205 53.981 40.7205C53.9814 40.7205 53.9819 40.7205 53.9823 40.7205C53.9827 40.7205 53.9832 40.7205 53.9836 40.7205C53.984 40.7205 53.9845 40.7205 53.9849 40.7205C53.9853 40.7205 53.9857 40.7205 53.9862 40.7205C53.9866 40.7205 53.987 40.7205 53.9875 40.7205C53.9879 40.7205 53.9883 40.7205 53.9888 40.7205C53.9892 40.7205 53.9896 40.7205 53.99 40.7205C53.9905 40.7205 53.9909 40.7205 53.9913 40.7205C53.9918 40.7205 53.9922 40.7205 53.9926 40.7205C53.993 40.7205 53.9935 40.7205 53.9939 40.7205C53.9943 40.7205 53.9947 40.7205 53.9952 40.7205C53.9956 40.7205 53.996 40.7205 53.9964 40.7205C53.9969 40.7205 53.9973 40.7205 53.9977 40.7205C53.9981 40.7205 53.9986 40.7205 53.999 40.7205C53.9994 40.7205 53.9998 40.7205 54.0003 40.7205C54.0007 40.7205 54.0011 40.7205 54.0015 40.7205C54.0019 40.7205 54.0024 40.7205 54.0028 40.7205C54.0032 40.7205 54.0036 40.7205 54.0041 40.7205C54.0045 40.7205 54.0049 40.7205 54.0053 40.7205C54.0057 40.7205 54.0062 40.7205 54.0066 40.7205C54.007 40.7205 54.0074 40.7205 54.0078 40.7205C54.0083 40.7205 54.0087 40.7205 54.0091 40.7205C54.0095 40.7205 54.0099 40.7205 54.0103 40.7205C54.0108 40.7205 54.0112 40.7205 54.0116 40.7205C54.012 40.7205 54.0124 40.7205 54.0128 40.7205C54.0133 40.7205 54.0137 40.7205 54.0141 40.7205C54.0145 40.7205 54.0149 40.7205 54.0153 40.7205C54.0158 40.7205 54.0162 40.7205 54.0166 40.7205C54.017 40.7205 54.0174 40.7205 54.0178 40.7205C54.0182 40.7205 54.0187 40.7205 54.0191 40.7205C54.0195 40.7205 54.0199 40.7205 54.0203 40.7205C54.0207 40.7205 54.0211 40.7205 54.0216 40.7205C54.022 40.7205 54.0224 40.7205 54.0228 40.7205C54.0232 40.7205 54.0236 40.7205 54.024 40.7205C54.0244 40.7205 54.0248 40.7205 54.0253 40.7205C54.0257 40.7205 54.0261 40.7205 54.0265 40.7205C54.0269 40.7205 54.0273 40.7205 54.0277 40.7205C54.0281 40.7205 54.0285 40.7205 54.0289 40.7205C54.0293 40.7205 54.0298 40.7205 54.0302 40.7205C54.0306 40.7205 54.031 40.7205 54.0314 40.7205C54.0318 40.7205 54.0322 40.7205 54.0326 40.7205C54.033 40.7205 54.0334 40.7205 54.0338 40.7205C54.0342 40.7205 54.0346 40.7205 54.035 40.7205C54.0354 40.7205 54.0359 40.7205 54.0363 40.7205C54.0367 40.7205 54.0371 40.7205 54.0375 40.7205C54.0379 40.7205 54.0383 40.7205 54.0387 40.7205C54.0391 40.7205 54.0395 40.7205 54.0399 40.7205C54.0403 40.7205 54.0407 40.7205 54.0411 40.7205C54.0415 40.7205 54.0419 40.7205 54.0423 40.7205C54.0427 40.7205 54.0431 40.7205 54.0435 40.7205C54.0439 40.7205 54.0443 40.7205 54.0447 40.7205C54.0451 40.7205 54.0455 40.7205 54.0459 40.7205C54.0463 40.7205 54.0467 40.7205 54.0471 40.7205C54.0475 40.7205 54.0479 40.7205 54.0483 40.7205C54.0487 40.7205 54.0491 40.7205 54.0495 40.7205C54.0499 40.7205 54.0503 40.7205 54.0507 40.7205C54.0511 40.7205 54.0515 40.7205 54.0519 40.7205C54.0523 40.7205 54.0527 40.7205 54.0531 40.7205C54.0535 40.7205 54.0539 40.7205 54.0543 40.7205C54.0546 40.7205 54.055 40.7205 54.0554 40.7205C54.0558 40.7205 54.0562 40.7205 54.0566 40.7205C54.057 40.7205 54.0574 40.7205 54.0578 40.7205C54.0582 40.7205 54.0586 40.7205 54.059 40.7205C54.0594 40.7205 54.0598 40.7205 54.0602 40.7205C54.0605 40.7205 54.0609 40.7205 54.0613 40.7205C54.0617 40.7205 54.0621 40.7205 54.0625 40.7205C54.0629 40.7205 54.0633 40.7205 54.0637 40.7205C54.0641 40.7205 54.0645 40.7205 54.0648 40.7205C54.0652 40.7205 54.0656 40.7205 54.066 40.7205C54.0664 40.7205 54.0668 40.7205 54.0672 40.7205C54.0676 40.7205 54.0679 40.7205 54.0683 40.7205C54.0687 40.7205 54.0691 40.7205 54.0695 40.7205C54.0699 40.7205 54.0703 40.7205 54.0707 40.7205C54.071 40.7205 54.0714 40.7205 54.0718 40.7205C54.0722 40.7205 54.0726 40.7205 54.073 40.7205C54.0734 40.7205 54.0737 40.7205 54.0741 40.7205C54.0745 40.7205 54.0749 40.7205 54.0753 40.7205C54.0757 40.7205 54.076 40.7205 54.0764 40.7205C54.0768 40.7205 54.0772 40.7205 54.0776 40.7205C54.078 40.7205 54.0783 40.7205 54.0787 40.7205C54.0791 40.7205 54.0795 40.7205 54.0799 40.7205C54.0802 40.7205 54.0806 40.7205 54.081 40.7205C54.0814 40.7205 54.0818 40.7205 54.0821 40.7205C54.0825 40.7205 54.0829 40.7205 54.0833 40.7205C54.0837 40.7205 54.084 40.7205 54.0844 40.7205C54.0848 40.7205 54.0852 40.7205 54.0856 40.7205C54.0859 40.7205 54.0863 40.7205 54.0867 40.7205C54.0871 40.7205 54.0874 40.7205 54.0878 40.7205C54.0882 40.7205 54.0886 40.7205 54.0889 40.7205C54.0893 40.7205 54.0897 40.7205 54.0901 40.7205C54.0905 40.7205 54.0908 40.7205 54.0912 40.7205C54.0916 40.7205 54.0919 40.7205 54.0923 40.7205C54.0927 40.7205 54.0931 40.7205 54.0934 40.7205C54.0938 40.7205 54.0942 40.7205 54.0946 40.7205C54.0949 40.7205 54.0953 40.7205 54.0957 40.7205C54.0961 40.7205 54.0964 40.7205 54.0968 40.7205C54.0972 40.7205 54.0975 40.7205 54.0979 40.7205C54.0983 40.7205 54.0987 40.7205 54.099 40.7205C54.0994 40.7205 54.0998 40.7205 54.1001 40.7205C54.1005 40.7205 54.1009 40.7205 54.1012 40.7205C54.1016 40.7205 54.102 40.7205 54.1023 40.7205C54.1027 40.7205 54.1031 40.7205 54.1035 40.7205C54.1038 40.7205 54.1042 40.7205 54.1046 40.7205C54.1049 40.7205 54.1053 40.7205 54.1057 40.7205C54.106 40.7205 54.1064 40.7205 54.1068 40.7205C54.1071 40.7205 54.1075 40.7205 54.1078 40.7205C54.1082 40.7205 54.1086 40.7205 54.1089 40.7205C54.1093 40.7205 54.1097 40.7205 54.11 40.7205C54.1104 40.7205 54.1108 40.7205 54.1111 40.7205C54.1115 40.7205 54.1119 40.7205 54.1122 40.7205C54.1126 40.7205 54.1129 40.7205 54.1133 40.7205C54.1137 40.7205 54.114 40.7205 54.1144 40.7205C54.1147 40.7205 54.1151 40.7205 54.1155 40.7205C54.1158 40.7205 54.1162 40.7205 54.1166 40.7205C54.1169 40.7205 54.1173 40.7205 54.1176 40.7205C54.118 40.7205 54.1184 40.7205 54.1187 40.7205C54.1191 40.7205 54.1194 40.7205 54.1198 40.7205C54.1201 40.7205 54.1205 40.7205 54.1209 40.7205C54.1212 40.7205 54.1216 40.7205 54.1219 40.7205C54.1223 40.7205 54.1226 40.7205 54.123 40.7205C54.1234 40.7205 54.1237 40.7205 54.1241 40.7205C54.1244 40.7205 54.1248 40.7205 54.1251 40.7205C54.1255 40.7205 54.1258 40.7205 54.1262 40.7205C54.1266 40.7205 54.1269 40.7205 54.1273 40.7205C54.1276 40.7205 54.128 40.7205 54.1283 40.7205C54.1287 40.7205 54.129 40.7205 54.1294 40.7205C54.1297 40.7205 54.1301 40.7205 54.1304 40.7205C54.1308 40.7205 54.1311 40.7205 54.1315 40.7205C54.1318 40.7205 54.1322 40.7205 54.1325 40.7205C54.1329 40.7205 54.1332 40.7205 54.1336 40.7205C54.1339 40.7205 54.1343 40.7205 54.1346 40.7205C54.135 40.7205 54.1353 40.7205 54.1357 40.7205C54.136 40.7205 54.1364 40.7205 54.1367 40.7205C54.1371 40.7205 54.1374 40.7205 54.1378 40.7205C54.1381 40.7205 54.1385 40.7205 54.1388 40.7205C54.1392 40.7205 54.1395 40.7205 54.1399 40.7205C54.1402 40.7205 54.1406 40.7205 54.1409 40.7205C54.1412 40.7205 54.1416 40.7205 54.1419 40.7205C54.1423 40.7205 54.1426 40.7205 54.143 40.7205C54.1433 40.7205 54.1437 40.7205 54.144 40.7205C54.1443 40.7205 54.1447 40.7205 54.145 40.7205C54.1454 40.7205 54.1457 40.7205 54.1461 40.7205C54.1464 40.7205 54.1467 40.7205 54.1471 40.7205C54.1474 40.7205 54.1478 40.7205 54.1481 40.7205C54.1484 40.7205 54.1488 40.7205 54.1491 40.7205C54.1495 40.7205 54.1498 40.7205 54.1501 40.7205C54.1505 40.7205 54.1508 40.7205 54.1512 40.7205C54.1515 40.7205 54.1518 40.7205 54.1522 40.7205C54.1525 40.7205 54.1529 40.7205 54.1532 40.7205C54.1535 40.7205 54.1539 40.7205 54.1542 40.7205C54.1545 40.7205 54.1549 40.7205 54.1552 40.7205C54.1556 40.7205 54.1559 40.7205 54.1562 40.7205C54.1566 40.7205 54.1569 40.7205 54.1572 40.7205C54.1576 40.7205 54.1579 40.7205 54.1582 40.7205C54.1586 40.7205 54.1589 40.7205 54.1592 40.7205C54.1596 40.7205 54.1599 40.7205 54.1602 40.7205C54.1606 40.7205 54.1609 40.7205 54.1612 40.7205C54.1616 40.7205 54.1619 40.7205 54.1622 40.7205C54.1626 40.7205 54.1629 40.7205 54.1632 40.7205C54.1636 40.7205 54.1639 40.7205 54.1642 40.7205C54.1646 40.7205 54.1649 40.7205 54.1652 40.7205C54.1656 40.7205 54.1659 40.7205 54.1662 40.7205C54.1665 40.7205 54.1669 40.7205 54.1672 40.7205C54.1675 40.7205 54.1679 40.7205 54.1682 40.7205C54.1685 40.7205 54.1688 40.7205 54.1692 40.7205C54.1695 40.7205 54.1698 40.7205 54.1702 40.7205C54.1705 40.7205 54.1708 40.7205 54.1711 40.7205C54.1715 40.7205 54.1718 40.7205 54.1721 40.7205C54.1724 40.7205 54.1728 40.7205 54.1731 40.7205C54.1734 40.7205 54.1737 40.7205 54.1741 40.7205C54.1744 40.7205 54.1747 40.7205 54.175 40.7205C54.1754 40.7205 54.1757 40.7205 54.176 40.7205C54.1763 40.7205 54.1766 40.7205 54.177 40.7205C54.1773 40.7205 54.1776 40.7205 54.1779 40.7205C54.1783 40.7205 54.1786 40.7205 54.1789 40.7205C54.1792 40.7205 54.1795 40.7205 54.1799 40.7205C54.1802 40.7205 54.1805 40.7205 54.1808 40.7205C54.1811 40.7205 54.1815 40.7205 54.1818 40.7205C54.1821 40.7205 54.1824 40.7205 54.1827 40.7205C54.1831 40.7205 54.1834 40.7205 54.1837 40.7205C54.184 40.7205 54.1843 40.7205 54.1847 40.7205C54.185 40.7205 54.1853 40.7205 54.1856 40.7205C54.1859 40.7205 54.1862 40.7205 54.1866 40.7205C54.1869 40.7205 54.1872 40.7205 54.1875 40.7205C54.1878 40.7205 54.1881 40.7205 54.1884 40.7205C54.1888 40.7205 54.1891 40.7205 54.1894 40.7205C54.1897 40.7205 54.19 40.7205 54.1903 40.7205C54.1906 40.7205 54.191 40.7205 54.1913 40.7205C54.1916 40.7205 54.1919 40.7205 54.1922 40.7205C54.1925 40.7205 54.1928 40.7205 54.1931 40.7205C54.1935 40.7205 54.1938 40.7205 54.1941 40.7205C54.1944 40.7205 54.1947 40.7205 54.195 40.7205C54.1953 40.7205 54.1956 40.7205 54.1959 40.7205C54.1963 40.7205 54.1966 40.7205 54.1969 40.7205C54.1972 40.7205 54.1975 40.7205 54.1978 40.7205C54.1981 40.7205 54.1984 40.7205 54.1987 40.7205C54.199 40.7205 54.1993 40.7205 54.1996 40.7205C54.2 40.7205 54.2003 40.7205 54.2006 40.7205C54.2009 40.7205 54.2012 40.7205 54.2015 40.7205C54.2018 40.7205 54.2021 40.7205 54.2024 40.7205C54.2027 40.7205 54.203 40.7205 54.2033 40.7205C54.2036 40.7205 54.2039 40.7205 54.2042 40.7205C54.2045 40.7205 54.2048 40.7205 54.2051 40.7205C54.2055 40.7205 54.2058 40.7205 54.2061 40.7205C54.2064 40.7205 54.2067 40.7205 54.207 40.7205C54.2073 40.7205 54.2076 40.7205 54.2079 40.7205C54.2082 40.7205 54.2085 40.7205 54.2088 40.7205C54.2091 40.7205 54.2094 40.7205 54.2097 40.7205C54.21 40.7205 54.2103 40.7205 54.2106 40.7205C54.2109 40.7205 54.2112 40.7205 54.2115 40.7205C54.2118 40.7205 54.2121 40.7205 54.2124 40.7205C54.2127 40.7205 54.213 40.7205 54.2133 40.7205C54.2136 40.7205 54.2139 40.7205 54.2142 40.7205C54.2145 40.7205 54.2148 40.7205 54.215 40.7205C54.2153 40.7205 54.2156 40.7205 54.2159 40.7205C54.2162 40.7205 54.2165 40.7205 54.2168 40.7205C54.2171 40.7205 54.2174 40.7205 54.2177 40.7205C54.218 40.7205 54.2183 40.7205 54.2186 40.7205C54.2189 40.7205 54.2192 40.7205 54.2195 40.7205C54.2198 40.7205 54.2201 40.7205 54.2204 40.7205C54.2206 40.7205 54.2209 40.7205 54.2212 40.7205C54.2215 40.7205 54.2218 40.7205 54.2221 40.7205C54.2224 40.7205 54.2227 40.7205 54.223 40.7205C54.2233 40.7205 54.2236 40.7205 54.2238 40.7205C54.2241 40.7205 54.2244 40.7205 54.2247 40.7205C54.225 40.7205 54.2253 40.7205 54.2256 40.7205C54.2259 40.7205 54.2262 40.7205 54.2265 40.7205C54.2267 40.7205 54.227 40.7205 54.2273 40.7205C54.2276 40.7205 54.2279 40.7205 54.2282 40.7205C54.2285 40.7205 54.2288 40.7205 54.229 40.7205C54.2293 40.7205 54.2296 40.7205 54.2299 40.7205C54.2302 40.7205 54.2305 40.7205 54.2308 40.7205C54.231 40.7205 54.2313 40.7205 54.2316 40.7205C54.2319 40.7205 54.2322 40.7205 54.2325 40.7205C54.2327 40.7205 54.233 40.7205 54.2333 40.7205C54.2336 40.7205 54.2339 40.7205 54.2342 40.7205C54.2344 40.7205 54.2347 40.7205 54.235 40.7205C54.2353 40.7205 54.2356 40.7205 54.2358 40.7205C54.2361 40.7205 54.2364 40.7205 54.2367 40.7205C54.237 40.7205 54.2373 40.7205 54.2375 40.7205C54.2378 40.7205 54.2381 40.7205 54.2384 40.7205C54.2387 40.7205 54.2389 40.7205 54.2392 40.7205C54.2395 40.7205 54.2398 40.7205 54.24 40.7205C54.2403 40.7205 54.2406 40.7205 54.2409 40.7205C54.2412 40.7205 54.2414 40.7205 54.2417 40.7205C54.242 40.7205 54.2423 40.7205 54.2425 40.7205C54.2428 40.7205 54.2431 40.7205 54.2434 40.7205C54.2436 40.7205 54.2439 40.7205 54.2442 40.7205C54.2445 40.7205 54.2447 40.7205 54.245 40.7205C54.2453 40.7205 54.2456 40.7205 54.2458 40.7205C54.2461 40.7205 54.2464 40.7205 54.2467 40.7205C54.2469 40.7205 54.2472 40.7205 54.2475 40.7205C54.2477 40.7205 54.248 40.7205 54.2483 40.7205C54.2486 40.7205 54.2488 40.7205 54.2491 40.7205C54.2494 40.7205 54.2496 40.7205 54.2499 40.7205C54.2502 40.7205 54.2505 40.7205 54.2507 40.7205C54.251 40.7205 54.2513 40.7205 54.2515 40.7205C54.2518 40.7205 54.2521 40.7205 54.2523 40.7205C54.2526 40.7205 54.2529 40.7205 54.2531 40.7205C54.2534 40.7205 54.2537 40.7205 54.254 40.7205C54.2542 40.7205 54.2545 40.7205 54.2548 40.7205C54.255 40.7205 54.2553 40.7205 54.2556 40.7205C54.2558 40.7205 54.2561 40.7205 54.2563 40.7205C54.2566 40.7205 54.2569 40.7205 54.2571 40.7205C54.2574 40.7205 54.2577 40.7205 54.2579 40.7205C54.2582 40.7205 54.2585 40.7205 54.2587 40.7205C54.259 40.7205 54.2593 40.7205 54.2595 40.7205C54.2598 40.7205 54.26 40.7205 54.2603 40.7205C54.2606 40.7205 54.2608 40.7205 54.2611 40.7205C54.2614 40.7205 54.2616 40.7205 54.2619 40.7205C54.2621 40.7205 54.2624 40.7205 54.2627 40.7205C54.2629 40.7205 54.2632 40.7205 54.2634 40.7205C54.2637 40.7205 54.264 40.7205 54.2642 40.7205C54.2645 40.7205 54.2647 40.7205 54.265 40.7205C54.2652 40.7205 54.2655 40.7205 54.2658 40.7205C54.266 40.7205 54.2663 40.7205 54.2665 40.7205C54.2668 40.7205 54.267 40.7205 54.2673 40.7205C54.2676 40.7205 54.2678 40.7205 54.2681 40.7205C54.2683 40.7205 54.2686 40.7205 54.2688 40.7205C54.2691 40.7205 54.2694 40.7205 54.2696 40.7205C54.2699 40.7205 54.2701 40.7205 54.2704 40.7205C54.2706 40.7205 54.2709 40.7205 54.2711 40.7205C54.2714 40.7205 54.2716 40.7205 54.2719 40.7205C54.2721 40.7205 54.2724 40.7205 54.2726 40.7205C54.2729 40.7205 54.2731 40.7205 54.2734 40.7205C54.2737 40.7205 54.2739 40.7205 54.2742 40.7205C54.2744 40.7205 54.2747 40.7205 54.2749 40.7205C54.2752 40.7205 54.2754 40.7205 54.2757 40.7205C54.2759 40.7205 54.2762 40.7205 54.2764 40.7205C54.2767 40.7205 54.2769 40.7205 54.2771 40.7205C54.2774 40.7205 54.2776 40.7205 54.2779 40.7205C54.2781 40.7205 54.2784 40.7205 54.2786 40.7205C54.2789 40.7205 54.2791 40.7205 54.2794 40.7205C54.2796 40.7205 54.2799 40.7205 54.2801 40.7205C54.2804 40.7205 54.2806 40.7205 54.2808 40.7205C54.2811 40.7205 54.2813 40.7205 54.2816 40.7205C54.2818 40.7205 54.2821 40.7205 54.2823 40.7205C54.2826 40.7205 54.2828 40.7205 54.283 40.7205C54.2833 40.7205 54.2835 40.7205 54.2838 40.7205C54.284 40.7205 54.2843 40.7205 54.2845 40.7205C54.2847 40.7205 54.285 40.7205 54.2852 40.7205C54.2855 40.7205 54.2857 40.7205 54.2859 40.7205C54.2862 40.7205 54.2864 40.7205 54.2867 40.7205C54.2869 40.7205 54.2871 40.7205 54.2874 40.7205C54.2876 40.7205 54.2879 40.7205 54.2881 40.7205C54.2883 40.7205 54.2886 40.7205 54.2888 40.7205C54.2891 40.7205 54.2893 40.7205 54.2895 40.7205C54.2898 40.7205 54.29 40.7205 54.2902 40.7205C54.2905 40.7205 54.2907 40.7205 54.291 40.7205C54.2912 40.7205 54.2914 40.7205 54.2917 40.7205C54.2919 40.7205 54.2921 40.7205 54.2924 40.7205C54.2926 40.7205 54.2928 40.7205 54.2931 40.7205C54.2933 40.7205 54.2935 40.7205 54.2938 40.7205C54.294 40.7205 54.2942 40.7205 54.2945 40.7205C54.2947 40.7205 54.2949 40.7205 54.2952 40.7205C54.2954 40.7205 54.2956 40.7205 54.2959 40.7205C54.2961 40.7205 54.2963 40.7205 54.2966 40.7205C54.2968 40.7205 54.297 40.7205 54.2973 40.7205C54.2975 40.7205 54.2977 40.7205 54.2979 40.7205C54.2982 40.7205 54.2984 40.7205 54.2986 40.7205C54.2989 40.7205 54.2991 40.7205 54.2993 40.7205C54.2995 40.7205 54.2998 40.7205 54.3 40.7205V37.7205C54.2998 37.7205 54.2995 37.7205 54.2993 37.7205C54.2991 37.7205 54.2989 37.7205 54.2986 37.7205C54.2984 37.7205 54.2982 37.7205 54.2979 37.7205C54.2977 37.7205 54.2975 37.7205 54.2973 37.7205C54.297 37.7205 54.2968 37.7205 54.2966 37.7205C54.2963 37.7205 54.2961 37.7205 54.2959 37.7205C54.2956 37.7205 54.2954 37.7205 54.2952 37.7205C54.2949 37.7205 54.2947 37.7205 54.2945 37.7205C54.2942 37.7205 54.294 37.7205 54.2938 37.7205C54.2935 37.7205 54.2933 37.7205 54.2931 37.7205C54.2928 37.7205 54.2926 37.7205 54.2924 37.7205C54.2921 37.7205 54.2919 37.7205 54.2917 37.7205C54.2914 37.7205 54.2912 37.7205 54.291 37.7205C54.2907 37.7205 54.2905 37.7205 54.2902 37.7205C54.29 37.7205 54.2898 37.7205 54.2895 37.7205C54.2893 37.7205 54.2891 37.7205 54.2888 37.7205C54.2886 37.7205 54.2883 37.7205 54.2881 37.7205C54.2879 37.7205 54.2876 37.7205 54.2874 37.7205C54.2871 37.7205 54.2869 37.7205 54.2867 37.7205C54.2864 37.7205 54.2862 37.7205 54.2859 37.7205C54.2857 37.7205 54.2855 37.7205 54.2852 37.7205C54.285 37.7205 54.2847 37.7205 54.2845 37.7205C54.2843 37.7205 54.284 37.7205 54.2838 37.7205C54.2835 37.7205 54.2833 37.7205 54.283 37.7205C54.2828 37.7205 54.2826 37.7205 54.2823 37.7205C54.2821 37.7205 54.2818 37.7205 54.2816 37.7205C54.2813 37.7205 54.2811 37.7205 54.2808 37.7205C54.2806 37.7205 54.2804 37.7205 54.2801 37.7205C54.2799 37.7205 54.2796 37.7205 54.2794 37.7205C54.2791 37.7205 54.2789 37.7205 54.2786 37.7205C54.2784 37.7205 54.2781 37.7205 54.2779 37.7205C54.2776 37.7205 54.2774 37.7205 54.2771 37.7205C54.2769 37.7205 54.2767 37.7205 54.2764 37.7205C54.2762 37.7205 54.2759 37.7205 54.2757 37.7205C54.2754 37.7205 54.2752 37.7205 54.2749 37.7205C54.2747 37.7205 54.2744 37.7205 54.2742 37.7205C54.2739 37.7205 54.2737 37.7205 54.2734 37.7205C54.2731 37.7205 54.2729 37.7205 54.2726 37.7205C54.2724 37.7205 54.2721 37.7205 54.2719 37.7205C54.2716 37.7205 54.2714 37.7205 54.2711 37.7205C54.2709 37.7205 54.2706 37.7205 54.2704 37.7205C54.2701 37.7205 54.2699 37.7205 54.2696 37.7205C54.2694 37.7205 54.2691 37.7205 54.2688 37.7205C54.2686 37.7205 54.2683 37.7205 54.2681 37.7205C54.2678 37.7205 54.2676 37.7205 54.2673 37.7205C54.267 37.7205 54.2668 37.7205 54.2665 37.7205C54.2663 37.7205 54.266 37.7205 54.2658 37.7205C54.2655 37.7205 54.2652 37.7205 54.265 37.7205C54.2647 37.7205 54.2645 37.7205 54.2642 37.7205C54.264 37.7205 54.2637 37.7205 54.2634 37.7205C54.2632 37.7205 54.2629 37.7205 54.2627 37.7205C54.2624 37.7205 54.2621 37.7205 54.2619 37.7205C54.2616 37.7205 54.2614 37.7205 54.2611 37.7205C54.2608 37.7205 54.2606 37.7205 54.2603 37.7205C54.26 37.7205 54.2598 37.7205 54.2595 37.7205C54.2593 37.7205 54.259 37.7205 54.2587 37.7205C54.2585 37.7205 54.2582 37.7205 54.2579 37.7205C54.2577 37.7205 54.2574 37.7205 54.2571 37.7205C54.2569 37.7205 54.2566 37.7205 54.2563 37.7205C54.2561 37.7205 54.2558 37.7205 54.2556 37.7205C54.2553 37.7205 54.255 37.7205 54.2548 37.7205C54.2545 37.7205 54.2542 37.7205 54.254 37.7205C54.2537 37.7205 54.2534 37.7205 54.2531 37.7205C54.2529 37.7205 54.2526 37.7205 54.2523 37.7205C54.2521 37.7205 54.2518 37.7205 54.2515 37.7205C54.2513 37.7205 54.251 37.7205 54.2507 37.7205C54.2505 37.7205 54.2502 37.7205 54.2499 37.7205C54.2496 37.7205 54.2494 37.7205 54.2491 37.7205C54.2488 37.7205 54.2486 37.7205 54.2483 37.7205C54.248 37.7205 54.2477 37.7205 54.2475 37.7205C54.2472 37.7205 54.2469 37.7205 54.2467 37.7205C54.2464 37.7205 54.2461 37.7205 54.2458 37.7205C54.2456 37.7205 54.2453 37.7205 54.245 37.7205C54.2447 37.7205 54.2445 37.7205 54.2442 37.7205C54.2439 37.7205 54.2436 37.7205 54.2434 37.7205C54.2431 37.7205 54.2428 37.7205 54.2425 37.7205C54.2423 37.7205 54.242 37.7205 54.2417 37.7205C54.2414 37.7205 54.2412 37.7205 54.2409 37.7205C54.2406 37.7205 54.2403 37.7205 54.24 37.7205C54.2398 37.7205 54.2395 37.7205 54.2392 37.7205C54.2389 37.7205 54.2387 37.7205 54.2384 37.7205C54.2381 37.7205 54.2378 37.7205 54.2375 37.7205C54.2373 37.7205 54.237 37.7205 54.2367 37.7205C54.2364 37.7205 54.2361 37.7205 54.2358 37.7205C54.2356 37.7205 54.2353 37.7205 54.235 37.7205C54.2347 37.7205 54.2344 37.7205 54.2342 37.7205C54.2339 37.7205 54.2336 37.7205 54.2333 37.7205C54.233 37.7205 54.2327 37.7205 54.2325 37.7205C54.2322 37.7205 54.2319 37.7205 54.2316 37.7205C54.2313 37.7205 54.231 37.7205 54.2308 37.7205C54.2305 37.7205 54.2302 37.7205 54.2299 37.7205C54.2296 37.7205 54.2293 37.7205 54.229 37.7205C54.2288 37.7205 54.2285 37.7205 54.2282 37.7205C54.2279 37.7205 54.2276 37.7205 54.2273 37.7205C54.227 37.7205 54.2267 37.7205 54.2265 37.7205C54.2262 37.7205 54.2259 37.7205 54.2256 37.7205C54.2253 37.7205 54.225 37.7205 54.2247 37.7205C54.2244 37.7205 54.2241 37.7205 54.2238 37.7205C54.2236 37.7205 54.2233 37.7205 54.223 37.7205C54.2227 37.7205 54.2224 37.7205 54.2221 37.7205C54.2218 37.7205 54.2215 37.7205 54.2212 37.7205C54.2209 37.7205 54.2206 37.7205 54.2204 37.7205C54.2201 37.7205 54.2198 37.7205 54.2195 37.7205C54.2192 37.7205 54.2189 37.7205 54.2186 37.7205C54.2183 37.7205 54.218 37.7205 54.2177 37.7205C54.2174 37.7205 54.2171 37.7205 54.2168 37.7205C54.2165 37.7205 54.2162 37.7205 54.2159 37.7205C54.2156 37.7205 54.2153 37.7205 54.215 37.7205C54.2148 37.7205 54.2145 37.7205 54.2142 37.7205C54.2139 37.7205 54.2136 37.7205 54.2133 37.7205C54.213 37.7205 54.2127 37.7205 54.2124 37.7205C54.2121 37.7205 54.2118 37.7205 54.2115 37.7205C54.2112 37.7205 54.2109 37.7205 54.2106 37.7205C54.2103 37.7205 54.21 37.7205 54.2097 37.7205C54.2094 37.7205 54.2091 37.7205 54.2088 37.7205C54.2085 37.7205 54.2082 37.7205 54.2079 37.7205C54.2076 37.7205 54.2073 37.7205 54.207 37.7205C54.2067 37.7205 54.2064 37.7205 54.2061 37.7205C54.2058 37.7205 54.2055 37.7205 54.2051 37.7205C54.2048 37.7205 54.2045 37.7205 54.2042 37.7205C54.2039 37.7205 54.2036 37.7205 54.2033 37.7205C54.203 37.7205 54.2027 37.7205 54.2024 37.7205C54.2021 37.7205 54.2018 37.7205 54.2015 37.7205C54.2012 37.7205 54.2009 37.7205 54.2006 37.7205C54.2003 37.7205 54.2 37.7205 54.1996 37.7205C54.1993 37.7205 54.199 37.7205 54.1987 37.7205C54.1984 37.7205 54.1981 37.7205 54.1978 37.7205C54.1975 37.7205 54.1972 37.7205 54.1969 37.7205C54.1966 37.7205 54.1963 37.7205 54.1959 37.7205C54.1956 37.7205 54.1953 37.7205 54.195 37.7205C54.1947 37.7205 54.1944 37.7205 54.1941 37.7205C54.1938 37.7205 54.1935 37.7205 54.1931 37.7205C54.1928 37.7205 54.1925 37.7205 54.1922 37.7205C54.1919 37.7205 54.1916 37.7205 54.1913 37.7205C54.191 37.7205 54.1906 37.7205 54.1903 37.7205C54.19 37.7205 54.1897 37.7205 54.1894 37.7205C54.1891 37.7205 54.1888 37.7205 54.1884 37.7205C54.1881 37.7205 54.1878 37.7205 54.1875 37.7205C54.1872 37.7205 54.1869 37.7205 54.1866 37.7205C54.1862 37.7205 54.1859 37.7205 54.1856 37.7205C54.1853 37.7205 54.185 37.7205 54.1847 37.7205C54.1843 37.7205 54.184 37.7205 54.1837 37.7205C54.1834 37.7205 54.1831 37.7205 54.1827 37.7205C54.1824 37.7205 54.1821 37.7205 54.1818 37.7205C54.1815 37.7205 54.1811 37.7205 54.1808 37.7205C54.1805 37.7205 54.1802 37.7205 54.1799 37.7205C54.1795 37.7205 54.1792 37.7205 54.1789 37.7205C54.1786 37.7205 54.1783 37.7205 54.1779 37.7205C54.1776 37.7205 54.1773 37.7205 54.177 37.7205C54.1766 37.7205 54.1763 37.7205 54.176 37.7205C54.1757 37.7205 54.1754 37.7205 54.175 37.7205C54.1747 37.7205 54.1744 37.7205 54.1741 37.7205C54.1737 37.7205 54.1734 37.7205 54.1731 37.7205C54.1728 37.7205 54.1724 37.7205 54.1721 37.7205C54.1718 37.7205 54.1715 37.7205 54.1711 37.7205C54.1708 37.7205 54.1705 37.7205 54.1702 37.7205C54.1698 37.7205 54.1695 37.7205 54.1692 37.7205C54.1688 37.7205 54.1685 37.7205 54.1682 37.7205C54.1679 37.7205 54.1675 37.7205 54.1672 37.7205C54.1669 37.7205 54.1665 37.7205 54.1662 37.7205C54.1659 37.7205 54.1656 37.7205 54.1652 37.7205C54.1649 37.7205 54.1646 37.7205 54.1642 37.7205C54.1639 37.7205 54.1636 37.7205 54.1632 37.7205C54.1629 37.7205 54.1626 37.7205 54.1622 37.7205C54.1619 37.7205 54.1616 37.7205 54.1612 37.7205C54.1609 37.7205 54.1606 37.7205 54.1602 37.7205C54.1599 37.7205 54.1596 37.7205 54.1592 37.7205C54.1589 37.7205 54.1586 37.7205 54.1582 37.7205C54.1579 37.7205 54.1576 37.7205 54.1572 37.7205C54.1569 37.7205 54.1566 37.7205 54.1562 37.7205C54.1559 37.7205 54.1556 37.7205 54.1552 37.7205C54.1549 37.7205 54.1545 37.7205 54.1542 37.7205C54.1539 37.7205 54.1535 37.7205 54.1532 37.7205C54.1529 37.7205 54.1525 37.7205 54.1522 37.7205C54.1518 37.7205 54.1515 37.7205 54.1512 37.7205C54.1508 37.7205 54.1505 37.7205 54.1501 37.7205C54.1498 37.7205 54.1495 37.7205 54.1491 37.7205C54.1488 37.7205 54.1484 37.7205 54.1481 37.7205C54.1478 37.7205 54.1474 37.7205 54.1471 37.7205C54.1467 37.7205 54.1464 37.7205 54.1461 37.7205C54.1457 37.7205 54.1454 37.7205 54.145 37.7205C54.1447 37.7205 54.1443 37.7205 54.144 37.7205C54.1437 37.7205 54.1433 37.7205 54.143 37.7205C54.1426 37.7205 54.1423 37.7205 54.1419 37.7205C54.1416 37.7205 54.1412 37.7205 54.1409 37.7205C54.1406 37.7205 54.1402 37.7205 54.1399 37.7205C54.1395 37.7205 54.1392 37.7205 54.1388 37.7205C54.1385 37.7205 54.1381 37.7205 54.1378 37.7205C54.1374 37.7205 54.1371 37.7205 54.1367 37.7205C54.1364 37.7205 54.136 37.7205 54.1357 37.7205C54.1353 37.7205 54.135 37.7205 54.1346 37.7205C54.1343 37.7205 54.1339 37.7205 54.1336 37.7205C54.1332 37.7205 54.1329 37.7205 54.1325 37.7205C54.1322 37.7205 54.1318 37.7205 54.1315 37.7205C54.1311 37.7205 54.1308 37.7205 54.1304 37.7205C54.1301 37.7205 54.1297 37.7205 54.1294 37.7205C54.129 37.7205 54.1287 37.7205 54.1283 37.7205C54.128 37.7205 54.1276 37.7205 54.1273 37.7205C54.1269 37.7205 54.1266 37.7205 54.1262 37.7205C54.1258 37.7205 54.1255 37.7205 54.1251 37.7205C54.1248 37.7205 54.1244 37.7205 54.1241 37.7205C54.1237 37.7205 54.1234 37.7205 54.123 37.7205C54.1226 37.7205 54.1223 37.7205 54.1219 37.7205C54.1216 37.7205 54.1212 37.7205 54.1209 37.7205C54.1205 37.7205 54.1201 37.7205 54.1198 37.7205C54.1194 37.7205 54.1191 37.7205 54.1187 37.7205C54.1184 37.7205 54.118 37.7205 54.1176 37.7205C54.1173 37.7205 54.1169 37.7205 54.1166 37.7205C54.1162 37.7205 54.1158 37.7205 54.1155 37.7205C54.1151 37.7205 54.1147 37.7205 54.1144 37.7205C54.114 37.7205 54.1137 37.7205 54.1133 37.7205C54.1129 37.7205 54.1126 37.7205 54.1122 37.7205C54.1119 37.7205 54.1115 37.7205 54.1111 37.7205C54.1108 37.7205 54.1104 37.7205 54.11 37.7205C54.1097 37.7205 54.1093 37.7205 54.1089 37.7205C54.1086 37.7205 54.1082 37.7205 54.1078 37.7205C54.1075 37.7205 54.1071 37.7205 54.1068 37.7205C54.1064 37.7205 54.106 37.7205 54.1057 37.7205C54.1053 37.7205 54.1049 37.7205 54.1046 37.7205C54.1042 37.7205 54.1038 37.7205 54.1035 37.7205C54.1031 37.7205 54.1027 37.7205 54.1023 37.7205C54.102 37.7205 54.1016 37.7205 54.1012 37.7205C54.1009 37.7205 54.1005 37.7205 54.1001 37.7205C54.0998 37.7205 54.0994 37.7205 54.099 37.7205C54.0987 37.7205 54.0983 37.7205 54.0979 37.7205C54.0975 37.7205 54.0972 37.7205 54.0968 37.7205C54.0964 37.7205 54.0961 37.7205 54.0957 37.7205C54.0953 37.7205 54.0949 37.7205 54.0946 37.7205C54.0942 37.7205 54.0938 37.7205 54.0934 37.7205C54.0931 37.7205 54.0927 37.7205 54.0923 37.7205C54.0919 37.7205 54.0916 37.7205 54.0912 37.7205C54.0908 37.7205 54.0905 37.7205 54.0901 37.7205C54.0897 37.7205 54.0893 37.7205 54.0889 37.7205C54.0886 37.7205 54.0882 37.7205 54.0878 37.7205C54.0874 37.7205 54.0871 37.7205 54.0867 37.7205C54.0863 37.7205 54.0859 37.7205 54.0856 37.7205C54.0852 37.7205 54.0848 37.7205 54.0844 37.7205C54.084 37.7205 54.0837 37.7205 54.0833 37.7205C54.0829 37.7205 54.0825 37.7205 54.0821 37.7205C54.0818 37.7205 54.0814 37.7205 54.081 37.7205C54.0806 37.7205 54.0802 37.7205 54.0799 37.7205C54.0795 37.7205 54.0791 37.7205 54.0787 37.7205C54.0783 37.7205 54.078 37.7205 54.0776 37.7205C54.0772 37.7205 54.0768 37.7205 54.0764 37.7205C54.076 37.7205 54.0757 37.7205 54.0753 37.7205C54.0749 37.7205 54.0745 37.7205 54.0741 37.7205C54.0737 37.7205 54.0734 37.7205 54.073 37.7205C54.0726 37.7205 54.0722 37.7205 54.0718 37.7205C54.0714 37.7205 54.071 37.7205 54.0707 37.7205C54.0703 37.7205 54.0699 37.7205 54.0695 37.7205C54.0691 37.7205 54.0687 37.7205 54.0683 37.7205C54.0679 37.7205 54.0676 37.7205 54.0672 37.7205C54.0668 37.7205 54.0664 37.7205 54.066 37.7205C54.0656 37.7205 54.0652 37.7205 54.0648 37.7205C54.0645 37.7205 54.0641 37.7205 54.0637 37.7205C54.0633 37.7205 54.0629 37.7205 54.0625 37.7205C54.0621 37.7205 54.0617 37.7205 54.0613 37.7205C54.0609 37.7205 54.0605 37.7205 54.0602 37.7205C54.0598 37.7205 54.0594 37.7205 54.059 37.7205C54.0586 37.7205 54.0582 37.7205 54.0578 37.7205C54.0574 37.7205 54.057 37.7205 54.0566 37.7205C54.0562 37.7205 54.0558 37.7205 54.0554 37.7205C54.055 37.7205 54.0546 37.7205 54.0543 37.7205C54.0539 37.7205 54.0535 37.7205 54.0531 37.7205C54.0527 37.7205 54.0523 37.7205 54.0519 37.7205C54.0515 37.7205 54.0511 37.7205 54.0507 37.7205C54.0503 37.7205 54.0499 37.7205 54.0495 37.7205C54.0491 37.7205 54.0487 37.7205 54.0483 37.7205C54.0479 37.7205 54.0475 37.7205 54.0471 37.7205C54.0467 37.7205 54.0463 37.7205 54.0459 37.7205C54.0455 37.7205 54.0451 37.7205 54.0447 37.7205C54.0443 37.7205 54.0439 37.7205 54.0435 37.7205C54.0431 37.7205 54.0427 37.7205 54.0423 37.7205C54.0419 37.7205 54.0415 37.7205 54.0411 37.7205C54.0407 37.7205 54.0403 37.7205 54.0399 37.7205C54.0395 37.7205 54.0391 37.7205 54.0387 37.7205C54.0383 37.7205 54.0379 37.7205 54.0375 37.7205C54.0371 37.7205 54.0367 37.7205 54.0363 37.7205C54.0359 37.7205 54.0354 37.7205 54.035 37.7205C54.0346 37.7205 54.0342 37.7205 54.0338 37.7205C54.0334 37.7205 54.033 37.7205 54.0326 37.7205C54.0322 37.7205 54.0318 37.7205 54.0314 37.7205C54.031 37.7205 54.0306 37.7205 54.0302 37.7205C54.0298 37.7205 54.0293 37.7205 54.0289 37.7205C54.0285 37.7205 54.0281 37.7205 54.0277 37.7205C54.0273 37.7205 54.0269 37.7205 54.0265 37.7205C54.0261 37.7205 54.0257 37.7205 54.0253 37.7205C54.0248 37.7205 54.0244 37.7205 54.024 37.7205C54.0236 37.7205 54.0232 37.7205 54.0228 37.7205C54.0224 37.7205 54.022 37.7205 54.0216 37.7205C54.0211 37.7205 54.0207 37.7205 54.0203 37.7205C54.0199 37.7205 54.0195 37.7205 54.0191 37.7205C54.0187 37.7205 54.0182 37.7205 54.0178 37.7205C54.0174 37.7205 54.017 37.7205 54.0166 37.7205C54.0162 37.7205 54.0158 37.7205 54.0153 37.7205C54.0149 37.7205 54.0145 37.7205 54.0141 37.7205C54.0137 37.7205 54.0133 37.7205 54.0128 37.7205C54.0124 37.7205 54.012 37.7205 54.0116 37.7205C54.0112 37.7205 54.0108 37.7205 54.0103 37.7205C54.0099 37.7205 54.0095 37.7205 54.0091 37.7205C54.0087 37.7205 54.0083 37.7205 54.0078 37.7205C54.0074 37.7205 54.007 37.7205 54.0066 37.7205C54.0062 37.7205 54.0057 37.7205 54.0053 37.7205C54.0049 37.7205 54.0045 37.7205 54.0041 37.7205C54.0036 37.7205 54.0032 37.7205 54.0028 37.7205C54.0024 37.7205 54.0019 37.7205 54.0015 37.7205C54.0011 37.7205 54.0007 37.7205 54.0003 37.7205C53.9998 37.7205 53.9994 37.7205 53.999 37.7205C53.9986 37.7205 53.9981 37.7205 53.9977 37.7205C53.9973 37.7205 53.9969 37.7205 53.9964 37.7205C53.996 37.7205 53.9956 37.7205 53.9952 37.7205C53.9947 37.7205 53.9943 37.7205 53.9939 37.7205C53.9935 37.7205 53.993 37.7205 53.9926 37.7205C53.9922 37.7205 53.9918 37.7205 53.9913 37.7205C53.9909 37.7205 53.9905 37.7205 53.99 37.7205C53.9896 37.7205 53.9892 37.7205 53.9888 37.7205C53.9883 37.7205 53.9879 37.7205 53.9875 37.7205C53.987 37.7205 53.9866 37.7205 53.9862 37.7205C53.9857 37.7205 53.9853 37.7205 53.9849 37.7205C53.9845 37.7205 53.984 37.7205 53.9836 37.7205C53.9832 37.7205 53.9827 37.7205 53.9823 37.7205C53.9819 37.7205 53.9814 37.7205 53.981 37.7205C53.9806 37.7205 53.9801 37.7205 53.9797 37.7205C53.9793 37.7205 53.9788 37.7205 53.9784 37.7205C53.978 37.7205 53.9775 37.7205 53.9771 37.7205C53.9767 37.7205 53.9762 37.7205 53.9758 37.7205C53.9754 37.7205 53.9749 37.7205 53.9745 37.7205C53.9741 37.7205 53.9736 37.7205 53.9732 37.7205C53.9727 37.7205 53.9723 37.7205 53.9719 37.7205C53.9714 37.7205 53.971 37.7205 53.9706 37.7205C53.9701 37.7205 53.9697 37.7205 53.9692 37.7205C53.9688 37.7205 53.9684 37.7205 53.9679 37.7205C53.9675 37.7205 53.9671 37.7205 53.9666 37.7205C53.9662 37.7205 53.9657 37.7205 53.9653 37.7205C53.9649 37.7205 53.9644 37.7205 53.964 37.7205C53.9635 37.7205 53.9631 37.7205 53.9626 37.7205C53.9622 37.7205 53.9618 37.7205 53.9613 37.7205C53.9609 37.7205 53.9604 37.7205 53.96 37.7205C53.9596 37.7205 53.9591 37.7205 53.9587 37.7205C53.9582 37.7205 53.9578 37.7205 53.9573 37.7205C53.9569 37.7205 53.9564 37.7205 53.956 37.7205C53.9556 37.7205 53.9551 37.7205 53.9547 37.7205C53.9542 37.7205 53.9538 37.7205 53.9533 37.7205C53.9529 37.7205 53.9524 37.7205 53.952 37.7205C53.9515 37.7205 53.9511 37.7205 53.9506 37.7205C53.9502 37.7205 53.9498 37.7205 53.9493 37.7205C53.9489 37.7205 53.9484 37.7205 53.948 37.7205C53.9475 37.7205 53.9471 37.7205 53.9466 37.7205C53.9462 37.7205 53.9457 37.7205 53.9453 37.7205C53.9448 37.7205 53.9444 37.7205 53.9439 37.7205C53.9435 37.7205 53.943 37.7205 53.9426 37.7205C53.9421 37.7205 53.9417 37.7205 53.9412 37.7205C53.9408 37.7205 53.9403 37.7205 53.9399 37.7205C53.9394 37.7205 53.9389 37.7205 53.9385 37.7205C53.938 37.7205 53.9376 37.7205 53.9371 37.7205C53.9367 37.7205 53.9362 37.7205 53.9358 37.7205C53.9353 37.7205 53.9349 37.7205 53.9344 37.7205C53.934 37.7205 53.9335 37.7205 53.933 37.7205C53.9326 37.7205 53.9321 37.7205 53.9317 37.7205C53.9312 37.7205 53.9308 37.7205 53.9303 37.7205C53.9299 37.7205 53.9294 37.7205 53.9289 37.7205C53.9285 37.7205 53.928 37.7205 53.9276 37.7205C53.9271 37.7205 53.9266 37.7205 53.9262 37.7205C53.9257 37.7205 53.9253 37.7205 53.9248 37.7205C53.9244 37.7205 53.9239 37.7205 53.9234 37.7205C53.923 37.7205 53.9225 37.7205 53.9221 37.7205C53.9216 37.7205 53.9211 37.7205 53.9207 37.7205C53.9202 37.7205 53.9197 37.7205 53.9193 37.7205C53.9188 37.7205 53.9184 37.7205 53.9179 37.7205C53.9174 37.7205 53.917 37.7205 53.9165 37.7205C53.916 37.7205 53.9156 37.7205 53.9151 37.7205C53.9147 37.7205 53.9142 37.7205 53.9137 37.7205C53.9133 37.7205 53.9128 37.7205 53.9123 37.7205C53.9119 37.7205 53.9114 37.7205 53.9109 37.7205C53.9105 37.7205 53.91 37.7205 53.9095 37.7205C53.9091 37.7205 53.9086 37.7205 53.9081 37.7205C53.9077 37.7205 53.9072 37.7205 53.9067 37.7205C53.9063 37.7205 53.9058 37.7205 53.9053 37.7205C53.9049 37.7205 53.9044 37.7205 53.9039 37.7205C53.9035 37.7205 53.903 37.7205 53.9025 37.7205C53.9021 37.7205 53.9016 37.7205 53.9011 37.7205C53.9006 37.7205 53.9002 37.7205 53.8997 37.7205C53.8992 37.7205 53.8988 37.7205 53.8983 37.7205C53.8978 37.7205 53.8973 37.7205 53.8969 37.7205C53.8964 37.7205 53.8959 37.7205 53.8955 37.7205C53.895 37.7205 53.8945 37.7205 53.894 37.7205C53.8936 37.7205 53.8931 37.7205 53.8926 37.7205C53.8921 37.7205 53.8917 37.7205 53.8912 37.7205C53.8907 37.7205 53.8902 37.7205 53.8898 37.7205C53.8893 37.7205 53.8888 37.7205 53.8883 37.7205C53.8879 37.7205 53.8874 37.7205 53.8869 37.7205C53.8864 37.7205 53.886 37.7205 53.8855 37.7205C53.885 37.7205 53.8845 37.7205 53.8841 37.7205C53.8836 37.7205 53.8831 37.7205 53.8826 37.7205C53.8821 37.7205 53.8817 37.7205 53.8812 37.7205C53.8807 37.7205 53.8802 37.7205 53.8797 37.7205C53.8793 37.7205 53.8788 37.7205 53.8783 37.7205C53.8778 37.7205 53.8773 37.7205 53.8769 37.7205C53.8764 37.7205 53.8759 37.7205 53.8754 37.7205C53.8749 37.7205 53.8745 37.7205 53.874 37.7205C53.8735 37.7205 53.873 37.7205 53.8725 37.7205C53.872 37.7205 53.8716 37.7205 53.8711 37.7205C53.8706 37.7205 53.8701 37.7205 53.8696 37.7205C53.8691 37.7205 53.8687 37.7205 53.8682 37.7205C53.8677 37.7205 53.8672 37.7205 53.8667 37.7205C53.8662 37.7205 53.8657 37.7205 53.8653 37.7205C53.8648 37.7205 53.8643 37.7205 53.8638 37.7205C53.8633 37.7205 53.8628 37.7205 53.8623 37.7205C53.8619 37.7205 53.8614 37.7205 53.8609 37.7205C53.8604 37.7205 53.8599 37.7205 53.8594 37.7205C53.8589 37.7205 53.8584 37.7205 53.8579 37.7205C53.8575 37.7205 53.857 37.7205 53.8565 37.7205C53.856 37.7205 53.8555 37.7205 53.855 37.7205C53.8545 37.7205 53.854 37.7205 53.8535 37.7205C53.853 37.7205 53.8526 37.7205 53.8521 37.7205C53.8516 37.7205 53.8511 37.7205 53.8506 37.7205C53.8501 37.7205 53.8496 37.7205 53.8491 37.7205C53.8486 37.7205 53.8481 37.7205 53.8476 37.7205C53.8471 37.7205 53.8466 37.7205 53.8461 37.7205C53.8457 37.7205 53.8452 37.7205 53.8447 37.7205C53.8442 37.7205 53.8437 37.7205 53.8432 37.7205C53.8427 37.7205 53.8422 37.7205 53.8417 37.7205C53.8412 37.7205 53.8407 37.7205 53.8402 37.7205C53.8397 37.7205 53.8392 37.7205 53.8387 37.7205C53.8382 37.7205 53.8377 37.7205 53.8372 37.7205C53.8367 37.7205 53.8362 37.7205 53.8357 37.7205C53.8352 37.7205 53.8347 37.7205 53.8342 37.7205C53.8337 37.7205 53.8332 37.7205 53.8327 37.7205C53.8322 37.7205 53.8317 37.7205 53.8312 37.7205C53.8307 37.7205 53.8302 37.7205 53.8297 37.7205C53.8292 37.7205 53.8287 37.7205 53.8282 37.7205C53.8277 37.7205 53.8272 37.7205 53.8267 37.7205C53.8262 37.7205 53.8257 37.7205 53.8252 37.7205C53.8247 37.7205 53.8242 37.7205 53.8237 37.7205C53.8232 37.7205 53.8227 37.7205 53.8222 37.7205C53.8217 37.7205 53.8212 37.7205 53.8207 37.7205C53.8202 37.7205 53.8197 37.7205 53.8191 37.7205C53.8186 37.7205 53.8181 37.7205 53.8176 37.7205C53.8171 37.7205 53.8166 37.7205 53.8161 37.7205C53.8156 37.7205 53.8151 37.7205 53.8146 37.7205C53.8141 37.7205 53.8136 37.7205 53.8131 37.7205C53.8126 37.7205 53.812 37.7205 53.8115 37.7205C53.811 37.7205 53.8105 37.7205 53.81 37.7205C53.8095 37.7205 53.809 37.7205 53.8085 37.7205C53.808 37.7205 53.8075 37.7205 53.8069 37.7205C53.8064 37.7205 53.8059 37.7205 53.8054 37.7205C53.8049 37.7205 53.8044 37.7205 53.8039 37.7205C53.8034 37.7205 53.8029 37.7205 53.8023 37.7205C53.8018 37.7205 53.8013 37.7205 53.8008 37.7205C53.8003 37.7205 53.7998 37.7205 53.7993 37.7205C53.7987 37.7205 53.7982 37.7205 53.7977 37.7205C53.7972 37.7205 53.7967 37.7205 53.7962 37.7205C53.7957 37.7205 53.7951 37.7205 53.7946 37.7205C53.7941 37.7205 53.7936 37.7205 53.7931 37.7205C53.7926 37.7205 53.792 37.7205 53.7915 37.7205C53.791 37.7205 53.7905 37.7205 53.79 37.7205C53.7895 37.7205 53.7889 37.7205 53.7884 37.7205C53.7879 37.7205 53.7874 37.7205 53.7869 37.7205C53.7863 37.7205 53.7858 37.7205 53.7853 37.7205C53.7848 37.7205 53.7843 37.7205 53.7837 37.7205C53.7832 37.7205 53.7827 37.7205 53.7822 37.7205C53.7817 37.7205 53.7811 37.7205 53.7806 37.7205C53.7801 37.7205 53.7796 37.7205 53.7791 37.7205C53.7785 37.7205 53.778 37.7205 53.7775 37.7205C53.777 37.7205 53.7764 37.7205 53.7759 37.7205C53.7754 37.7205 53.7749 37.7205 53.7743 37.7205C53.7738 37.7205 53.7733 37.7205 53.7728 37.7205C53.7723 37.7205 53.7717 37.7205 53.7712 37.7205C53.7707 37.7205 53.7701 37.7205 53.7696 37.7205C53.7691 37.7205 53.7686 37.7205 53.768 37.7205C53.7675 37.7205 53.767 37.7205 53.7665 37.7205C53.7659 37.7205 53.7654 37.7205 53.7649 37.7205C53.7644 37.7205 53.7638 37.7205 53.7633 37.7205C53.7628 37.7205 53.7622 37.7205 53.7617 37.7205C53.7612 37.7205 53.7607 37.7205 53.7601 37.7205C53.7596 37.7205 53.7591 37.7205 53.7585 37.7205C53.758 37.7205 53.7575 37.7205 53.7569 37.7205C53.7564 37.7205 53.7559 37.7205 53.7553 37.7205C53.7548 37.7205 53.7543 37.7205 53.7537 37.7205C53.7532 37.7205 53.7527 37.7205 53.7521 37.7205C53.7516 37.7205 53.7511 37.7205 53.7505 37.7205C53.75 37.7205 53.7495 37.7205 53.7489 37.7205C53.7484 37.7205 53.7479 37.7205 53.7473 37.7205C53.7468 37.7205 53.7463 37.7205 53.7457 37.7205C53.7452 37.7205 53.7447 37.7205 53.7441 37.7205C53.7436 37.7205 53.7431 37.7205 53.7425 37.7205C53.742 37.7205 53.7414 37.7205 53.7409 37.7205C53.7404 37.7205 53.7398 37.7205 53.7393 37.7205C53.7388 37.7205 53.7382 37.7205 53.7377 37.7205C53.7371 37.7205 53.7366 37.7205 53.7361 37.7205C53.7355 37.7205 53.735 37.7205 53.7344 37.7205C53.7339 37.7205 53.7334 37.7205 53.7328 37.7205C53.7323 37.7205 53.7317 37.7205 53.7312 37.7205C53.7307 37.7205 53.7301 37.7205 53.7296 37.7205C53.729 37.7205 53.7285 37.7205 53.7279 37.7205C53.7274 37.7205 53.7269 37.7205 53.7263 37.7205C53.7258 37.7205 53.7252 37.7205 53.7247 37.7205C53.7241 37.7205 53.7236 37.7205 53.7231 37.7205C53.7225 37.7205 53.722 37.7205 53.7214 37.7205C53.7209 37.7205 53.7203 37.7205 53.7198 37.7205C53.7192 37.7205 53.7187 37.7205 53.7181 37.7205C53.7176 37.7205 53.7171 37.7205 53.7165 37.7205C53.716 37.7205 53.7154 37.7205 53.7149 37.7205C53.7143 37.7205 53.7138 37.7205 53.7132 37.7205C53.7127 37.7205 53.7121 37.7205 53.7116 37.7205C53.711 37.7205 53.7105 37.7205 53.7099 37.7205C53.7094 37.7205 53.7088 37.7205 53.7083 37.7205C53.7077 37.7205 53.7072 37.7205 53.7066 37.7205C53.7061 37.7205 53.7055 37.7205 53.705 37.7205C53.7044 37.7205 53.7039 37.7205 53.7033 37.7205C53.7028 37.7205 53.7022 37.7205 53.7017 37.7205C53.7011 37.7205 53.7006 37.7205 53.7 37.7205V40.7205ZM54.3 40.7205C54.9422 40.7205 55.4946 40.8205 55.9733 41L57.0267 38.191C56.1721 37.8705 55.2578 37.7205 54.3 37.7205V40.7205ZM55.9429 40.9882C56.4942 41.2087 56.9991 41.4891 57.4614 41.829L59.2386 39.412C58.5675 38.9186 57.8391 38.5156 57.0571 38.2028L55.9429 40.9882ZM57.4781 41.8411C57.9873 42.2048 58.4601 42.6121 58.8971 43.0636L61.0529 40.9774C60.4899 40.3956 59.8793 39.8695 59.2219 39.3999L57.4781 41.8411ZM58.8807 43.0464C59.386 43.5854 59.8915 44.1162 60.3971 44.6386L62.5529 42.5524C62.0585 42.0415 61.564 41.5222 61.0693 40.9946L58.8807 43.0464ZM60.392 44.6334C60.7744 45.0324 61.1317 45.4063 61.4638 45.755L63.6362 43.686C63.3017 43.3348 62.9422 42.9586 62.558 42.5576L60.392 44.6334ZM61.4893 45.7812C61.8639 46.1558 62.2288 46.494 62.5838 46.7929L64.5162 44.4981C64.2378 44.2637 63.9361 43.9852 63.6107 43.6598L61.4893 45.7812ZM62.613 46.8168C63.0182 47.141 63.4412 47.4169 63.8829 47.6261L65.1671 44.9149C64.9754 44.8241 64.7485 44.6834 64.487 44.4742L62.613 46.8168ZM63.9095 47.6384C64.4174 47.867 64.9597 47.9955 65.525 47.9955V44.9955C65.4236 44.9955 65.2992 44.974 65.1405 44.9026L63.9095 47.6384ZM65.525 47.9955C66.5208 47.9955 67.6027 47.7048 68.2923 46.747L65.8577 44.9941C65.8687 44.9787 65.8832 44.9639 65.8977 44.9528C65.9116 44.9422 65.9157 44.9424 65.9015 44.9481C65.8681 44.9616 65.7571 44.9955 65.525 44.9955V47.9955ZM68.2923 46.747C68.8106 46.0271 69.025 45.187 69.025 44.3205H66.025C66.025 44.6873 65.9394 44.8806 65.8577 44.9941L68.2923 46.747ZM69.025 44.3205C69.025 43.7003 68.921 43.0961 68.7045 42.5188L65.8955 43.5722C65.979 43.7949 66.025 44.0407 66.025 44.3205H69.025ZM68.7167 42.5527C68.5511 42.0764 68.3415 41.6242 68.0862 41.1988L65.5138 42.7422C65.6585 42.9835 65.7823 43.2479 65.8833 43.5383L68.7167 42.5527ZM68.0981 41.219C67.8771 40.8372 67.6338 40.4842 67.3639 40.1693L65.0861 42.1217C65.2162 42.2735 65.3562 42.4704 65.5019 42.7221L68.0981 41.219ZM67.4045 40.2188C67.2084 39.9692 67.0153 39.7395 66.8357 39.5598L64.7143 41.6812C64.7681 41.7349 64.875 41.8552 65.0455 42.0722L67.4045 40.2188ZM66.6446 41.8427L69.2446 39.9927L67.5054 37.5483L64.9054 39.3983L66.6446 41.8427ZM67.2776 39.7931C67.8424 40.3992 68.3114 41.1091 68.6812 41.9341L71.4188 40.7069C70.9219 39.5985 70.2743 38.6085 69.4724 37.7479L67.2776 39.7931ZM68.686 41.9447C69.0434 42.7257 69.225 43.562 69.225 44.4705H72.225C72.225 43.1456 71.9566 41.882 71.414 40.6963L68.686 41.9447ZM69.225 44.4705C69.225 45.3793 69.1199 46.093 68.9456 46.6407L71.8044 47.5503C72.0968 46.6314 72.225 45.595 72.225 44.4705H69.225ZM68.9456 46.6407C68.7656 47.2066 68.5307 47.6004 68.2758 47.8748L70.4742 49.9162C71.086 49.2573 71.5178 48.4511 71.8044 47.5503L68.9456 46.6407ZM68.2389 47.9161C67.9977 48.1958 67.7033 48.3984 67.3278 48.5303L68.3222 51.3607C69.18 51.0593 69.9189 50.5618 70.5111 49.8749L68.2389 47.9161ZM67.2813 48.5475C66.8843 48.7019 66.3904 48.7955 65.775 48.7955V51.7955C66.6929 51.7955 67.5657 51.6558 68.3687 51.3435L67.2813 48.5475Z" fill="black" mask="url(#path-3-outside-1_44_540)"/>
</g>
</svg>
