<svg width="90" height="90" viewBox="0 0 90 90" fill="none" xmlns="http://www.w3.org/2000/svg">
<mask id="mask0_44_564" style="mask-type:alpha" maskUnits="userSpaceOnUse" x="0" y="0" width="90" height="90">
<rect width="90" height="90" fill="#D9D9D9"/>
</mask>
<g mask="url(#mask0_44_564)">
<path fill-rule="evenodd" clip-rule="evenodd" d="M76 67C78.7614 67 81 64.7614 81 62V28C81 25.2386 78.7614 23 76 23H19C16.2386 23 14 25.2386 14 28V45V62C14 64.7614 16.2386 67 19 67H76ZM32.6 52.8C31.9408 53.2944 31 52.824 31 52V38C31 37.176 31.9408 36.7056 32.6 37.2L41.9333 44.2C42.4667 44.6 42.4667 45.4 41.9333 45.8L32.6 52.8Z" fill="#D6592C"/>
<path d="M32.6 37.2C31.9408 36.7056 31 37.176 31 38V52C31 52.824 31.9408 53.2944 32.6 52.8L41.9333 45.8C42.4667 45.4 42.4667 44.6 41.9333 44.2L32.6 37.2Z" fill="white"/>
<path fill-rule="evenodd" clip-rule="evenodd" d="M76 67C78.7614 67 81 64.7614 81 62V28C81 25.2386 78.7614 23 76 23H19C16.2386 23 14 25.2386 14 28V45V62C14 64.7614 16.2386 67 19 67H76ZM32.6 52.8C31.9408 53.2944 31 52.824 31 52V38C31 37.176 31.9408 36.7056 32.6 37.2L41.9333 44.2C42.4667 44.6 42.4667 45.4 41.9333 45.8L32.6 52.8Z" stroke="black" stroke-width="1.5"/>
<path d="M32.6 37.2C31.9408 36.7056 31 37.176 31 38V52C31 52.824 31.9408 53.2944 32.6 52.8L41.9333 45.8C42.4667 45.4 42.4667 44.6 41.9333 44.2L32.6 37.2Z" stroke="black" stroke-width="1.5"/>
<mask id="path-3-outside-1_44_564" maskUnits="userSpaceOnUse" x="51" y="37" width="22" height="16" fill="black">
<rect fill="white" x="51" y="37" width="22" height="16"/>
<path d="M57.825 51.1455C57.075 51.1455 56.3833 51.0122 55.75 50.7455C55.1333 50.4955 54.5917 50.1122 54.125 49.5955C53.6583 49.0788 53.2917 48.4288 53.025 47.6455C52.775 46.8788 52.65 45.9872 52.65 44.9705C52.65 43.8038 52.8083 42.8288 53.125 42.0455C53.4583 41.2788 53.8667 40.6538 54.35 40.1705C54.8333 39.7038 55.3583 39.3705 55.925 39.1705C56.5083 38.9705 57.0417 38.8705 57.525 38.8705C58.025 38.8705 58.4833 38.9372 58.9 39.0705C59.3167 39.2038 59.6917 39.3872 60.025 39.6205C60.375 39.8538 60.6917 40.1122 60.975 40.3955C61.2583 40.6955 61.525 41.0122 61.775 41.3455C62.3583 40.6288 62.9333 40.0955 63.5 39.7455C64.0667 39.4122 64.7917 39.2455 65.675 39.2455C66.3417 39.2455 66.9833 39.3788 67.6 39.6455C68.2167 39.9288 68.75 40.3205 69.2 40.8205C69.6667 41.3205 70.0333 41.9205 70.3 42.6205C70.5833 43.3372 70.725 44.1288 70.725 44.9955C70.725 46.0122 70.575 46.8788 70.275 47.5955C69.9917 48.3288 69.625 48.9288 69.175 49.3955C68.725 49.8622 68.2167 50.1955 67.65 50.3955C67.1 50.6122 66.55 50.7205 66 50.7205C65.2 50.7205 64.45 50.5038 63.75 50.0705C63.0667 49.6538 62.525 49.1288 62.125 48.4955C61.5083 49.4455 60.8583 50.1205 60.175 50.5205C59.5083 50.9372 58.725 51.1455 57.825 51.1455ZM57.675 42.4955C57.475 42.4955 57.25 42.5372 57 42.6205C56.7667 42.7205 56.55 42.8705 56.35 43.0705C56.15 43.2705 55.9833 43.5288 55.85 43.8455C55.7167 44.1622 55.65 44.5455 55.65 44.9955C55.65 45.8622 55.8583 46.4955 56.275 46.8955C56.6917 47.2955 57.1583 47.4955 57.675 47.4955C58.0583 47.4955 58.4 47.4038 58.7 47.2205C59 47.0538 59.2583 46.8205 59.475 46.5205C59.7083 46.2205 59.9083 45.8622 60.075 45.4455C60.2583 45.0455 60.425 44.6122 60.575 44.1455C60.225 43.6788 59.8167 43.2872 59.35 42.9705C58.8833 42.6538 58.325 42.4955 57.675 42.4955ZM65.9 47.1205C66.0833 47.1205 66.275 47.0788 66.475 46.9955C66.6917 46.9288 66.8917 46.8038 67.075 46.6205C67.2583 46.4538 67.4083 46.2372 67.525 45.9705C67.6583 45.7038 67.725 45.3788 67.725 44.9955C67.725 44.6288 67.6667 44.3122 67.55 44.0455C67.4333 43.7788 67.275 43.5538 67.075 43.3705C66.8917 43.2038 66.6917 43.0788 66.475 42.9955C66.2583 42.9122 66.05 42.8705 65.85 42.8705C65.3167 42.8705 64.8167 43.0622 64.35 43.4455C63.8833 43.8455 63.4833 44.5205 63.15 45.4705C63.4833 46.0038 63.8667 46.4122 64.3 46.6955C64.7333 46.9788 65.2667 47.1205 65.9 47.1205Z"/>
</mask>
<path d="M57.825 51.1455C57.075 51.1455 56.3833 51.0122 55.75 50.7455C55.1333 50.4955 54.5917 50.1122 54.125 49.5955C53.6583 49.0788 53.2917 48.4288 53.025 47.6455C52.775 46.8788 52.65 45.9872 52.65 44.9705C52.65 43.8038 52.8083 42.8288 53.125 42.0455C53.4583 41.2788 53.8667 40.6538 54.35 40.1705C54.8333 39.7038 55.3583 39.3705 55.925 39.1705C56.5083 38.9705 57.0417 38.8705 57.525 38.8705C58.025 38.8705 58.4833 38.9372 58.9 39.0705C59.3167 39.2038 59.6917 39.3872 60.025 39.6205C60.375 39.8538 60.6917 40.1122 60.975 40.3955C61.2583 40.6955 61.525 41.0122 61.775 41.3455C62.3583 40.6288 62.9333 40.0955 63.5 39.7455C64.0667 39.4122 64.7917 39.2455 65.675 39.2455C66.3417 39.2455 66.9833 39.3788 67.6 39.6455C68.2167 39.9288 68.75 40.3205 69.2 40.8205C69.6667 41.3205 70.0333 41.9205 70.3 42.6205C70.5833 43.3372 70.725 44.1288 70.725 44.9955C70.725 46.0122 70.575 46.8788 70.275 47.5955C69.9917 48.3288 69.625 48.9288 69.175 49.3955C68.725 49.8622 68.2167 50.1955 67.65 50.3955C67.1 50.6122 66.55 50.7205 66 50.7205C65.2 50.7205 64.45 50.5038 63.75 50.0705C63.0667 49.6538 62.525 49.1288 62.125 48.4955C61.5083 49.4455 60.8583 50.1205 60.175 50.5205C59.5083 50.9372 58.725 51.1455 57.825 51.1455ZM57.675 42.4955C57.475 42.4955 57.25 42.5372 57 42.6205C56.7667 42.7205 56.55 42.8705 56.35 43.0705C56.15 43.2705 55.9833 43.5288 55.85 43.8455C55.7167 44.1622 55.65 44.5455 55.65 44.9955C55.65 45.8622 55.8583 46.4955 56.275 46.8955C56.6917 47.2955 57.1583 47.4955 57.675 47.4955C58.0583 47.4955 58.4 47.4038 58.7 47.2205C59 47.0538 59.2583 46.8205 59.475 46.5205C59.7083 46.2205 59.9083 45.8622 60.075 45.4455C60.2583 45.0455 60.425 44.6122 60.575 44.1455C60.225 43.6788 59.8167 43.2872 59.35 42.9705C58.8833 42.6538 58.325 42.4955 57.675 42.4955ZM65.9 47.1205C66.0833 47.1205 66.275 47.0788 66.475 46.9955C66.6917 46.9288 66.8917 46.8038 67.075 46.6205C67.2583 46.4538 67.4083 46.2372 67.525 45.9705C67.6583 45.7038 67.725 45.3788 67.725 44.9955C67.725 44.6288 67.6667 44.3122 67.55 44.0455C67.4333 43.7788 67.275 43.5538 67.075 43.3705C66.8917 43.2038 66.6917 43.0788 66.475 42.9955C66.2583 42.9122 66.05 42.8705 65.85 42.8705C65.3167 42.8705 64.8167 43.0622 64.35 43.4455C63.8833 43.8455 63.4833 44.5205 63.15 45.4705C63.4833 46.0038 63.8667 46.4122 64.3 46.6955C64.7333 46.9788 65.2667 47.1205 65.9 47.1205Z" fill="white"/>
<path d="M55.75 50.7455L56.3321 49.3631L56.3228 49.3592L56.3136 49.3554L55.75 50.7455ZM54.125 49.5955L53.0118 50.6009V50.6009L54.125 49.5955ZM53.025 47.6455L51.5989 48.1105L51.6019 48.1197L51.605 48.1289L53.025 47.6455ZM53.125 42.0455L51.7494 41.4474L51.7416 41.4653L51.7343 41.4833L53.125 42.0455ZM54.35 40.1705L53.3081 39.0914L53.2986 39.1005L53.2893 39.1098L54.35 40.1705ZM55.925 39.1705L55.4385 37.7515L55.4258 37.756L55.925 39.1705ZM58.9 39.0705L59.3572 37.6419V37.6419L58.9 39.0705ZM60.025 39.6205L59.1648 40.8494L59.1788 40.8591L59.1929 40.8686L60.025 39.6205ZM60.975 40.3955L62.0655 39.3656L62.0508 39.35L62.0357 39.3348L60.975 40.3955ZM61.775 41.3455L60.575 42.2455L61.7267 43.7811L62.9383 42.2924L61.775 41.3455ZM63.5 39.7455L62.7395 38.4526L62.7255 38.4608L62.7118 38.4693L63.5 39.7455ZM67.6 39.6455L68.2263 38.2825L68.2109 38.2754L68.1954 38.2687L67.6 39.6455ZM69.2 40.8205L68.0851 41.824L68.0941 41.8341L68.1034 41.844L69.2 40.8205ZM70.3 42.6205L68.8983 43.1545L68.9016 43.1633L68.9051 43.172L70.3 42.6205ZM70.275 47.5955L68.8913 47.0163L68.8833 47.0355L68.8758 47.0549L70.275 47.5955ZM69.175 49.3955L68.0952 48.3543L69.175 49.3955ZM67.65 50.3955L67.1508 48.981L67.1253 48.99L67.1002 48.9999L67.65 50.3955ZM63.75 50.0705L64.5395 48.7951L64.5309 48.7898L63.75 50.0705ZM62.125 48.4955L63.3932 47.6945L62.1423 45.7139L60.8668 47.6788L62.125 48.4955ZM60.175 50.5205L59.4172 49.226L59.3985 49.237L59.38 49.2485L60.175 50.5205ZM57 42.6205L56.5257 41.1975L56.4665 41.2172L56.4091 41.2418L57 42.6205ZM56.35 43.0705L57.4107 44.1312L56.35 43.0705ZM55.85 43.8455L57.2325 44.4276L55.85 43.8455ZM56.275 46.8955L57.3138 45.8134H57.3138L56.275 46.8955ZM58.7 47.2205L57.9715 45.9093L57.9444 45.9244L57.9178 45.9406L58.7 47.2205ZM59.475 46.5205L58.291 45.5996L58.2746 45.6207L58.259 45.6423L59.475 46.5205ZM60.075 45.4455L58.7114 44.8205L58.696 44.8541L58.6823 44.8884L60.075 45.4455ZM60.575 44.1455L62.003 44.6045L62.2404 43.8661L61.775 43.2455L60.575 44.1455ZM59.35 42.9705L60.1923 41.7293V41.7293L59.35 42.9705ZM66.475 46.9955L66.0339 45.5618L65.9648 45.5831L65.8981 45.6109L66.475 46.9955ZM67.075 46.6205L66.066 45.5106L66.0396 45.5346L66.0143 45.5598L67.075 46.6205ZM67.525 45.9705L66.1834 45.2997L66.1662 45.3341L66.1508 45.3693L67.525 45.9705ZM67.55 44.0455L66.1758 44.6467L66.1758 44.6467L67.55 44.0455ZM67.075 43.3705L68.0886 42.2648L68.084 42.2606L67.075 43.3705ZM64.35 43.4455L63.3979 42.2864L63.3857 42.2964L63.3738 42.3066L64.35 43.4455ZM63.15 45.4705L61.7346 44.9739L61.4959 45.6542L61.878 46.2655L63.15 45.4705ZM64.3 46.6955L63.4791 47.951L63.4791 47.951L64.3 46.6955ZM57.825 49.6455C57.2565 49.6455 56.7649 49.5453 56.3321 49.3631L55.1679 52.128C56.0017 52.479 56.8935 52.6455 57.825 52.6455V49.6455ZM56.3136 49.3554C55.9165 49.1944 55.5602 48.9467 55.2382 48.5901L53.0118 50.6009C53.6231 51.2777 54.3501 51.7966 55.1864 52.1356L56.3136 49.3554ZM55.2382 48.5901C54.9314 48.2505 54.6581 47.7882 54.445 47.1621L51.605 48.1289C51.9252 49.0695 52.3852 49.9072 53.0118 50.6009L55.2382 48.5901ZM54.4511 47.1805C54.2609 46.5972 54.15 45.8685 54.15 44.9705H51.15C51.15 46.1059 51.2891 47.1605 51.5989 48.1105L54.4511 47.1805ZM54.15 44.9705C54.15 43.9281 54.2931 43.1584 54.5157 42.6077L51.7343 41.4833C51.3236 42.4993 51.15 43.6796 51.15 44.9705H54.15ZM54.5006 42.6436C54.7751 42.0122 55.0864 41.5554 55.4107 41.2312L53.2893 39.1098C52.6469 39.7523 52.1415 40.5455 51.7494 41.4474L54.5006 42.6436ZM55.3919 41.2496C55.7388 40.9146 56.0832 40.7054 56.4242 40.585L55.4258 37.756C54.6335 38.0356 53.9278 38.493 53.3081 39.0914L55.3919 41.2496ZM56.4115 40.5894C56.8793 40.429 57.2457 40.3705 57.525 40.3705V37.3705C56.8377 37.3705 56.1373 37.512 55.4385 37.7516L56.4115 40.5894ZM57.525 40.3705C57.8916 40.3705 58.1933 40.4193 58.4428 40.4991L59.3572 37.6419C58.7733 37.455 58.1584 37.3705 57.525 37.3705V40.3705ZM58.4428 40.4991C58.7267 40.59 58.964 40.7088 59.1648 40.8494L60.8852 38.3917C60.4194 38.0656 59.9067 37.8177 59.3572 37.6419L58.4428 40.4991ZM59.1929 40.8686C59.4648 41.0498 59.7042 41.2461 59.9143 41.4562L62.0357 39.3348C61.6791 38.9783 61.2852 38.6578 60.857 38.3724L59.1929 40.8686ZM59.8845 41.4254C60.1285 41.6838 60.3587 41.9571 60.575 42.2455L62.975 40.4455C62.6913 40.0673 62.3882 39.7072 62.0655 39.3656L59.8845 41.4254ZM62.9383 42.2924C63.4538 41.6591 63.9075 41.2569 64.2882 41.0217L62.7118 38.4693C61.9591 38.9342 61.2629 39.5985 60.6117 40.3986L62.9383 42.2924ZM64.2605 41.0384C64.5306 40.8795 64.9704 40.7455 65.675 40.7455V37.7455C64.613 37.7455 63.6027 37.9448 62.7395 38.4526L64.2605 41.0384ZM65.675 40.7455C66.1352 40.7455 66.5744 40.8363 67.0046 41.0223L68.1954 38.2687C67.3922 37.9214 66.5481 37.7455 65.675 37.7455V40.7455ZM66.9738 41.0085C67.4064 41.2073 67.773 41.4772 68.0851 41.824L70.3149 39.8171C69.727 39.1638 69.0269 38.6504 68.2263 38.2825L66.9738 41.0085ZM68.1034 41.844C68.4256 42.1891 68.6941 42.6185 68.8983 43.1545L71.7017 42.0865C71.3726 41.2225 70.9078 40.4519 70.2966 39.797L68.1034 41.844ZM68.9051 43.172C69.1109 43.6926 69.225 44.2942 69.225 44.9955H72.225C72.225 43.9635 72.0558 42.9818 71.6949 42.069L68.9051 43.172ZM69.225 44.9955C69.225 45.8717 69.0948 46.5302 68.8913 47.0163L71.6587 48.1747C72.0552 47.2275 72.225 46.1526 72.225 44.9955H69.225ZM68.8758 47.0549C68.6496 47.6405 68.3803 48.0587 68.0952 48.3543L70.2548 50.4367C70.8697 49.799 71.3338 49.0172 71.6742 48.1361L68.8758 47.0549ZM68.0952 48.3543C67.7941 48.6666 67.4805 48.8646 67.1508 48.981L68.1492 51.81C68.9528 51.5264 69.6559 51.0577 70.2548 50.4367L68.0952 48.3543ZM67.1002 48.9999C66.7121 49.1528 66.3481 49.2205 66 49.2205V52.2205C66.7519 52.2205 67.4879 52.0716 68.1998 51.7911L67.1002 48.9999ZM66 49.2205C65.4874 49.2205 65.0096 49.0861 64.5395 48.7951L62.9605 51.3459C63.8904 51.9216 64.9126 52.2205 66 52.2205V49.2205ZM64.5309 48.7898C64.031 48.485 63.6615 48.1193 63.3932 47.6945L60.8568 49.2965C61.3885 50.1384 62.1024 50.8227 62.9691 51.3512L64.5309 48.7898ZM60.8668 47.6788C60.3264 48.5114 59.831 48.9838 59.4172 49.226L60.9328 51.815C61.8857 51.2572 62.6903 50.3796 63.3832 49.3122L60.8668 47.6788ZM59.38 49.2485C58.9847 49.4956 58.4855 49.6455 57.825 49.6455V52.6455C58.9645 52.6455 60.0319 52.3788 60.97 51.7925L59.38 49.2485ZM57.675 40.9955C57.2718 40.9955 56.8829 41.0784 56.5257 41.1975L57.4743 44.0435C57.6171 43.996 57.6782 43.9955 57.675 43.9955V40.9955ZM56.4091 41.2418C55.9814 41.4251 55.6089 41.6903 55.2893 42.0098L57.4107 44.1312C57.4911 44.0507 57.5519 44.0159 57.5909 43.9992L56.4091 41.2418ZM55.2893 42.0098C54.9261 42.3731 54.6604 42.8053 54.4675 43.2634L57.2325 44.4276C57.3062 44.2524 57.3739 44.1679 57.4107 44.1312L55.2893 42.0098ZM54.4675 43.2634C54.2366 43.8118 54.15 44.4045 54.15 44.9955H57.15C57.15 44.6865 57.1967 44.5125 57.2325 44.4276L54.4675 43.2634ZM54.15 44.9955C54.15 46.0674 54.4049 47.1795 55.2362 47.9776L57.3138 45.8134C57.3118 45.8115 57.15 45.657 57.15 44.9955H54.15ZM55.2362 47.9776C55.8964 48.6114 56.7242 48.9955 57.675 48.9955V45.9955C57.5925 45.9955 57.4869 45.9796 57.3138 45.8134L55.2362 47.9776ZM57.675 48.9955C58.3085 48.9955 58.9256 48.8406 59.4822 48.5004L57.9178 45.9406C57.8744 45.9671 57.8081 45.9955 57.675 45.9955V48.9955ZM59.4285 48.5317C59.9355 48.2501 60.3558 47.8629 60.691 47.3987L58.259 45.6423C58.1609 45.7781 58.0645 45.8576 57.9715 45.9093L59.4285 48.5317ZM60.659 47.4414C60.9925 47.0126 61.258 46.5269 61.4677 46.0026L58.6823 44.8884C58.5587 45.1975 58.4241 45.4284 58.291 45.5996L60.659 47.4414ZM61.4386 46.0705C61.6493 45.6108 61.8369 45.1215 62.003 44.6045L59.147 43.6865C59.0131 44.1029 58.8674 44.4802 58.7114 44.8205L61.4386 46.0705ZM61.775 43.2455C61.3289 42.6507 60.8009 42.1423 60.1923 41.7293L58.5077 44.2117C58.8324 44.432 59.1211 44.707 59.375 45.0455L61.775 43.2455ZM60.1923 41.7293C59.4407 41.2193 58.5782 40.9955 57.675 40.9955V43.9955C58.0718 43.9955 58.326 44.0884 58.5077 44.2117L60.1923 41.7293ZM65.9 48.6205C66.3139 48.6205 66.7018 48.526 67.0519 48.3801L65.8981 45.6109C65.873 45.6213 65.8615 45.6237 65.8626 45.6235C65.8642 45.6231 65.8774 45.6205 65.9 45.6205V48.6205ZM66.9161 48.4292C67.3983 48.2808 67.8044 48.0124 68.1357 47.6812L66.0143 45.5598C65.9951 45.5791 65.9873 45.583 65.9925 45.5798C65.995 45.5782 66.0001 45.5753 66.0075 45.5718C66.015 45.5684 66.0239 45.5649 66.0339 45.5618L66.9161 48.4292ZM68.084 47.7304C68.4484 47.3991 68.7126 46.9983 68.8992 46.5717L66.1508 45.3693C66.1041 45.476 66.0682 45.5086 66.066 45.5106L68.084 47.7304ZM68.8666 46.6413C69.1295 46.1155 69.225 45.5473 69.225 44.9955H66.225C66.225 45.2104 66.1871 45.2921 66.1834 45.2997L68.8666 46.6413ZM69.225 44.9955C69.225 44.4738 69.1424 43.9429 68.9242 43.4443L66.1758 44.6467C66.1909 44.6814 66.225 44.7839 66.225 44.9955H69.225ZM68.9242 43.4443C68.73 43.0003 68.4536 42.5994 68.0886 42.2648L66.0614 44.4762C66.0964 44.5083 66.1367 44.5574 66.1758 44.6467L68.9242 43.4443ZM68.084 42.2606C67.7725 41.9774 67.415 41.7499 67.0135 41.5955L65.9365 44.3955C65.9683 44.4078 66.0108 44.4303 66.066 44.4804L68.084 42.2606ZM67.0135 41.5955C66.6522 41.4565 66.2611 41.3705 65.85 41.3705V44.3705C65.8389 44.3705 65.8645 44.3678 65.9365 44.3955L67.0135 41.5955ZM65.85 41.3705C64.9237 41.3705 64.0953 41.7136 63.3979 42.2864L65.3021 44.6046C65.538 44.4108 65.7097 44.3705 65.85 44.3705V41.3705ZM63.3738 42.3066C62.6172 42.9551 62.1055 43.9168 61.7346 44.9739L64.5654 45.9671C64.8612 45.1242 65.1495 44.7359 65.3262 44.5844L63.3738 42.3066ZM61.878 46.2655C62.3023 46.9444 62.829 47.5259 63.4791 47.951L65.1209 45.4401C64.9043 45.2984 64.6644 45.0633 64.422 44.6755L61.878 46.2655ZM63.4791 47.951C64.2061 48.4263 65.0406 48.6205 65.9 48.6205V45.6205C65.4927 45.6205 65.2606 45.5314 65.1209 45.4401L63.4791 47.951Z" fill="black" mask="url(#path-3-outside-1_44_564)"/>
</g>
</svg>
