<svg width="90" height="90" viewBox="0 0 90 90" fill="none" xmlns="http://www.w3.org/2000/svg">
<mask id="mask0_44_568" style="mask-type:alpha" maskUnits="userSpaceOnUse" x="0" y="0" width="90" height="90">
<rect width="90" height="90" fill="#D9D9D9"/>
</mask>
<g mask="url(#mask0_44_568)">
<path fill-rule="evenodd" clip-rule="evenodd" d="M76 67C78.7614 67 81 64.7614 81 62V28C81 25.2386 78.7614 23 76 23H19C16.2386 23 14 25.2386 14 28V45V62C14 64.7614 16.2386 67 19 67H76ZM32.6 52.8C31.9408 53.2944 31 52.824 31 52V38C31 37.176 31.9408 36.7056 32.6 37.2L41.9333 44.2C42.4667 44.6 42.4667 45.4 41.9333 45.8L32.6 52.8Z" fill="#D6592C"/>
<path d="M32.6 37.2C31.9408 36.7056 31 37.176 31 38V52C31 52.824 31.9408 53.2944 32.6 52.8L41.9333 45.8C42.4667 45.4 42.4667 44.6 41.9333 44.2L32.6 37.2Z" fill="white"/>
<path fill-rule="evenodd" clip-rule="evenodd" d="M76 67C78.7614 67 81 64.7614 81 62V28C81 25.2386 78.7614 23 76 23H19C16.2386 23 14 25.2386 14 28V45V62C14 64.7614 16.2386 67 19 67H76ZM32.6 52.8C31.9408 53.2944 31 52.824 31 52V38C31 37.176 31.9408 36.7056 32.6 37.2L41.9333 44.2C42.4667 44.6 42.4667 45.4 41.9333 45.8L32.6 52.8Z" stroke="black" stroke-width="1.5"/>
<path d="M32.6 37.2C31.9408 36.7056 31 37.176 31 38V52C31 52.824 31.9408 53.2944 32.6 52.8L41.9333 45.8C42.4667 45.4 42.4667 44.6 41.9333 44.2L32.6 37.2Z" stroke="black" stroke-width="1.5"/>
<mask id="path-3-outside-1_44_568" maskUnits="userSpaceOnUse" x="51" y="37" width="22" height="16" fill="black">
<rect fill="white" x="51" y="37" width="22" height="16"/>
<path d="M62.3 45.1205C62.3 45.5038 62.3333 45.9038 62.4 46.3205C62.4833 46.7372 62.5917 47.0455 62.725 47.2455H62.95C63.0167 47.2455 63.0833 47.2455 63.15 47.2455C63.2167 47.2622 63.275 47.2705 63.325 47.2705C63.925 47.2538 64.4833 47.2038 65 47.1205C65.5333 47.0372 65.9917 46.8955 66.375 46.6955C66.775 46.4955 67.0833 46.2205 67.3 45.8705C67.5333 45.5372 67.65 45.1205 67.65 44.6205C67.65 44.2205 67.5667 43.8705 67.4 43.5705C67.2333 43.2705 67.0167 43.0288 66.75 42.8455C66.4833 42.6622 66.1917 42.5205 65.875 42.4205C65.5583 42.3372 65.25 42.2955 64.95 42.2955C64.05 42.2955 63.3833 42.5122 62.95 42.9455C62.5167 43.3955 62.3 44.1205 62.3 45.1205ZM59.875 46.9455C59.7083 46.5955 59.5833 46.2038 59.5 45.7705C59.4333 45.3538 59.4 44.9955 59.4 44.6955C59.4 43.6122 59.525 42.6872 59.775 41.9205C60.0417 41.1538 60.4083 40.5205 60.875 40.0205C61.3583 39.5372 61.9333 39.1788 62.6 38.9455C63.2667 38.7122 64 38.5955 64.8 38.5955C65.4667 38.5955 66.15 38.7038 66.85 38.9205C67.55 39.1538 68.1833 39.5122 68.75 39.9955C69.3333 40.4788 69.8083 41.0872 70.175 41.8205C70.5583 42.5705 70.75 43.4705 70.75 44.5205C70.75 46.6705 70.0833 48.2872 68.75 49.3705C67.4333 50.4705 65.5333 51.0205 63.05 51.0205C61.4167 51.0205 59.975 50.8038 58.725 50.3705C57.475 49.9538 56.425 49.2955 55.575 48.3955C54.725 47.5122 54.075 46.3788 53.625 44.9955C53.1917 43.6122 52.9667 41.9705 52.95 40.0705C53.4833 40.0538 54 40.0288 54.5 39.9955C55 39.9622 55.5167 39.9288 56.05 39.8955C56.0667 40.8455 56.1333 41.7038 56.25 42.4705C56.3833 43.2372 56.5917 43.9122 56.875 44.4955C57.175 45.0788 57.5667 45.5705 58.05 45.9705C58.5333 46.3872 59.1417 46.7122 59.875 46.9455Z"/>
</mask>
<path d="M62.3 45.1205C62.3 45.5038 62.3333 45.9038 62.4 46.3205C62.4833 46.7372 62.5917 47.0455 62.725 47.2455H62.95C63.0167 47.2455 63.0833 47.2455 63.15 47.2455C63.2167 47.2622 63.275 47.2705 63.325 47.2705C63.925 47.2538 64.4833 47.2038 65 47.1205C65.5333 47.0372 65.9917 46.8955 66.375 46.6955C66.775 46.4955 67.0833 46.2205 67.3 45.8705C67.5333 45.5372 67.65 45.1205 67.65 44.6205C67.65 44.2205 67.5667 43.8705 67.4 43.5705C67.2333 43.2705 67.0167 43.0288 66.75 42.8455C66.4833 42.6622 66.1917 42.5205 65.875 42.4205C65.5583 42.3372 65.25 42.2955 64.95 42.2955C64.05 42.2955 63.3833 42.5122 62.95 42.9455C62.5167 43.3955 62.3 44.1205 62.3 45.1205ZM59.875 46.9455C59.7083 46.5955 59.5833 46.2038 59.5 45.7705C59.4333 45.3538 59.4 44.9955 59.4 44.6955C59.4 43.6122 59.525 42.6872 59.775 41.9205C60.0417 41.1538 60.4083 40.5205 60.875 40.0205C61.3583 39.5372 61.9333 39.1788 62.6 38.9455C63.2667 38.7122 64 38.5955 64.8 38.5955C65.4667 38.5955 66.15 38.7038 66.85 38.9205C67.55 39.1538 68.1833 39.5122 68.75 39.9955C69.3333 40.4788 69.8083 41.0872 70.175 41.8205C70.5583 42.5705 70.75 43.4705 70.75 44.5205C70.75 46.6705 70.0833 48.2872 68.75 49.3705C67.4333 50.4705 65.5333 51.0205 63.05 51.0205C61.4167 51.0205 59.975 50.8038 58.725 50.3705C57.475 49.9538 56.425 49.2955 55.575 48.3955C54.725 47.5122 54.075 46.3788 53.625 44.9955C53.1917 43.6122 52.9667 41.9705 52.95 40.0705C53.4833 40.0538 54 40.0288 54.5 39.9955C55 39.9622 55.5167 39.9288 56.05 39.8955C56.0667 40.8455 56.1333 41.7038 56.25 42.4705C56.3833 43.2372 56.5917 43.9122 56.875 44.4955C57.175 45.0788 57.5667 45.5705 58.05 45.9705C58.5333 46.3872 59.1417 46.7122 59.875 46.9455Z" fill="white"/>
<path d="M62.4 46.3205L60.9188 46.5575L60.9234 46.5862L60.9291 46.6147L62.4 46.3205ZM62.725 47.2455L61.4769 48.0776L61.9222 48.7455H62.725V47.2455ZM63.15 47.2455L63.5138 45.7903L63.3347 45.7455H63.15V47.2455ZM63.325 47.2705V48.7705H63.3458L63.3667 48.7699L63.325 47.2705ZM65 47.1205L64.7684 45.6385L64.7612 45.6396L65 47.1205ZM66.375 46.6955L65.7042 45.3539L65.6926 45.3597L65.6812 45.3656L66.375 46.6955ZM67.3 45.8705L66.0712 45.0103L66.0469 45.045L66.0246 45.081L67.3 45.8705ZM67.4 43.5705L66.0888 44.299H66.0888L67.4 43.5705ZM66.75 42.8455L65.9002 44.0816L65.9002 44.0816L66.75 42.8455ZM65.875 42.4205L66.3267 40.9901L66.292 40.9792L66.2567 40.9699L65.875 42.4205ZM62.95 42.9455L61.8893 41.8848L61.8793 41.8949L61.8695 41.905L62.95 42.9455ZM59.875 46.9455L59.4202 48.3749L62.7165 49.4237L61.2293 46.3006L59.875 46.9455ZM59.5 45.7705L58.0188 46.0075L58.0226 46.0307L58.027 46.0538L59.5 45.7705ZM59.775 41.9205L58.3583 41.4277L58.3534 41.4416L58.3489 41.4555L59.775 41.9205ZM60.875 40.0205L59.8143 38.9598L59.7961 38.9781L59.7784 38.997L60.875 40.0205ZM62.6 38.9455L62.1045 37.5297H62.1045L62.6 38.9455ZM66.85 38.9205L67.3243 37.4975L67.309 37.4924L67.2935 37.4876L66.85 38.9205ZM68.75 39.9955L67.7766 41.1368L67.7847 41.1437L67.793 41.1505L68.75 39.9955ZM70.175 41.8205L68.8333 42.4914L68.8393 42.5032L70.175 41.8205ZM68.75 49.3705L67.8041 48.2063L67.7962 48.2128L67.7883 48.2194L68.75 49.3705ZM58.725 50.3705L59.2163 48.9533L59.2078 48.9503L59.1993 48.9475L58.725 50.3705ZM55.575 48.3955L56.6656 47.3655L56.6559 47.3554L55.575 48.3955ZM53.625 44.9955L52.1936 45.4439L52.196 45.4517L52.1986 45.4595L53.625 44.9955ZM52.95 40.0705L52.9031 38.5712L51.4372 38.6171L51.4501 40.0837L52.95 40.0705ZM54.5 39.9955L54.5998 41.4922L54.5 39.9955ZM56.05 39.8955L57.5498 39.8692L57.5222 38.3006L55.9564 38.3984L56.05 39.8955ZM56.25 42.4705L54.7671 42.6962L54.7695 42.7119L54.7722 42.7275L56.25 42.4705ZM56.875 44.4955L55.5257 45.1509L55.5332 45.1663L55.5411 45.1815L56.875 44.4955ZM58.05 45.9705L59.0294 44.8344L59.018 44.8245L59.0064 44.8149L58.05 45.9705ZM60.8 45.1205C60.8 45.5907 60.8409 46.0702 60.9188 46.5575L63.8812 46.0835C63.8258 45.7375 63.8 45.417 63.8 45.1205H60.8ZM60.9291 46.6147C61.0259 47.0987 61.1815 47.6345 61.4769 48.0776L63.9731 46.4135C63.9957 46.4473 63.9854 46.4423 63.9589 46.367C63.9338 46.2954 63.9026 46.185 63.8709 46.0263L60.9291 46.6147ZM62.725 48.7455H62.95V45.7455H62.725V48.7455ZM62.95 48.7455C62.9501 48.7455 62.9503 48.7455 62.9504 48.7455C62.9505 48.7455 62.9507 48.7455 62.9508 48.7455C62.9509 48.7455 62.951 48.7455 62.9512 48.7455C62.9513 48.7455 62.9514 48.7455 62.9516 48.7455C62.9517 48.7455 62.9518 48.7455 62.952 48.7455C62.9521 48.7455 62.9522 48.7455 62.9523 48.7455C62.9525 48.7455 62.9526 48.7455 62.9527 48.7455C62.9529 48.7455 62.953 48.7455 62.9531 48.7455C62.9533 48.7455 62.9534 48.7455 62.9535 48.7455C62.9536 48.7455 62.9538 48.7455 62.9539 48.7455C62.954 48.7455 62.9542 48.7455 62.9543 48.7455C62.9544 48.7455 62.9546 48.7455 62.9547 48.7455C62.9548 48.7455 62.9549 48.7455 62.9551 48.7455C62.9552 48.7455 62.9553 48.7455 62.9555 48.7455C62.9556 48.7455 62.9557 48.7455 62.9559 48.7455C62.956 48.7455 62.9561 48.7455 62.9563 48.7455C62.9564 48.7455 62.9565 48.7455 62.9566 48.7455C62.9568 48.7455 62.9569 48.7455 62.957 48.7455C62.9572 48.7455 62.9573 48.7455 62.9574 48.7455C62.9576 48.7455 62.9577 48.7455 62.9578 48.7455C62.9579 48.7455 62.9581 48.7455 62.9582 48.7455C62.9583 48.7455 62.9585 48.7455 62.9586 48.7455C62.9587 48.7455 62.9589 48.7455 62.959 48.7455C62.9591 48.7455 62.9592 48.7455 62.9594 48.7455C62.9595 48.7455 62.9596 48.7455 62.9598 48.7455C62.9599 48.7455 62.96 48.7455 62.9602 48.7455C62.9603 48.7455 62.9604 48.7455 62.9605 48.7455C62.9607 48.7455 62.9608 48.7455 62.9609 48.7455C62.9611 48.7455 62.9612 48.7455 62.9613 48.7455C62.9615 48.7455 62.9616 48.7455 62.9617 48.7455C62.9618 48.7455 62.962 48.7455 62.9621 48.7455C62.9622 48.7455 62.9624 48.7455 62.9625 48.7455C62.9626 48.7455 62.9628 48.7455 62.9629 48.7455C62.963 48.7455 62.9632 48.7455 62.9633 48.7455C62.9634 48.7455 62.9635 48.7455 62.9637 48.7455C62.9638 48.7455 62.9639 48.7455 62.9641 48.7455C62.9642 48.7455 62.9643 48.7455 62.9645 48.7455C62.9646 48.7455 62.9647 48.7455 62.9648 48.7455C62.965 48.7455 62.9651 48.7455 62.9652 48.7455C62.9654 48.7455 62.9655 48.7455 62.9656 48.7455C62.9658 48.7455 62.9659 48.7455 62.966 48.7455C62.9661 48.7455 62.9663 48.7455 62.9664 48.7455C62.9665 48.7455 62.9667 48.7455 62.9668 48.7455C62.9669 48.7455 62.9671 48.7455 62.9672 48.7455C62.9673 48.7455 62.9674 48.7455 62.9676 48.7455C62.9677 48.7455 62.9678 48.7455 62.968 48.7455C62.9681 48.7455 62.9682 48.7455 62.9684 48.7455C62.9685 48.7455 62.9686 48.7455 62.9688 48.7455C62.9689 48.7455 62.969 48.7455 62.9691 48.7455C62.9693 48.7455 62.9694 48.7455 62.9695 48.7455C62.9697 48.7455 62.9698 48.7455 62.9699 48.7455C62.9701 48.7455 62.9702 48.7455 62.9703 48.7455C62.9704 48.7455 62.9706 48.7455 62.9707 48.7455C62.9708 48.7455 62.971 48.7455 62.9711 48.7455C62.9712 48.7455 62.9714 48.7455 62.9715 48.7455C62.9716 48.7455 62.9717 48.7455 62.9719 48.7455C62.972 48.7455 62.9721 48.7455 62.9723 48.7455C62.9724 48.7455 62.9725 48.7455 62.9727 48.7455C62.9728 48.7455 62.9729 48.7455 62.973 48.7455C62.9732 48.7455 62.9733 48.7455 62.9734 48.7455C62.9736 48.7455 62.9737 48.7455 62.9738 48.7455C62.974 48.7455 62.9741 48.7455 62.9742 48.7455C62.9743 48.7455 62.9745 48.7455 62.9746 48.7455C62.9747 48.7455 62.9749 48.7455 62.975 48.7455C62.9751 48.7455 62.9753 48.7455 62.9754 48.7455C62.9755 48.7455 62.9757 48.7455 62.9758 48.7455C62.9759 48.7455 62.976 48.7455 62.9762 48.7455C62.9763 48.7455 62.9764 48.7455 62.9766 48.7455C62.9767 48.7455 62.9768 48.7455 62.977 48.7455C62.9771 48.7455 62.9772 48.7455 62.9773 48.7455C62.9775 48.7455 62.9776 48.7455 62.9777 48.7455C62.9779 48.7455 62.978 48.7455 62.9781 48.7455C62.9783 48.7455 62.9784 48.7455 62.9785 48.7455C62.9786 48.7455 62.9788 48.7455 62.9789 48.7455C62.979 48.7455 62.9792 48.7455 62.9793 48.7455C62.9794 48.7455 62.9796 48.7455 62.9797 48.7455C62.9798 48.7455 62.9799 48.7455 62.9801 48.7455C62.9802 48.7455 62.9803 48.7455 62.9805 48.7455C62.9806 48.7455 62.9807 48.7455 62.9809 48.7455C62.981 48.7455 62.9811 48.7455 62.9813 48.7455C62.9814 48.7455 62.9815 48.7455 62.9816 48.7455C62.9818 48.7455 62.9819 48.7455 62.982 48.7455C62.9822 48.7455 62.9823 48.7455 62.9824 48.7455C62.9826 48.7455 62.9827 48.7455 62.9828 48.7455C62.9829 48.7455 62.9831 48.7455 62.9832 48.7455C62.9833 48.7455 62.9835 48.7455 62.9836 48.7455C62.9837 48.7455 62.9839 48.7455 62.984 48.7455C62.9841 48.7455 62.9842 48.7455 62.9844 48.7455C62.9845 48.7455 62.9846 48.7455 62.9848 48.7455C62.9849 48.7455 62.985 48.7455 62.9852 48.7455C62.9853 48.7455 62.9854 48.7455 62.9855 48.7455C62.9857 48.7455 62.9858 48.7455 62.9859 48.7455C62.9861 48.7455 62.9862 48.7455 62.9863 48.7455C62.9865 48.7455 62.9866 48.7455 62.9867 48.7455C62.9868 48.7455 62.987 48.7455 62.9871 48.7455C62.9872 48.7455 62.9874 48.7455 62.9875 48.7455C62.9876 48.7455 62.9878 48.7455 62.9879 48.7455C62.988 48.7455 62.9882 48.7455 62.9883 48.7455C62.9884 48.7455 62.9885 48.7455 62.9887 48.7455C62.9888 48.7455 62.9889 48.7455 62.9891 48.7455C62.9892 48.7455 62.9893 48.7455 62.9895 48.7455C62.9896 48.7455 62.9897 48.7455 62.9898 48.7455C62.99 48.7455 62.9901 48.7455 62.9902 48.7455C62.9904 48.7455 62.9905 48.7455 62.9906 48.7455C62.9908 48.7455 62.9909 48.7455 62.991 48.7455C62.9911 48.7455 62.9913 48.7455 62.9914 48.7455C62.9915 48.7455 62.9917 48.7455 62.9918 48.7455C62.9919 48.7455 62.9921 48.7455 62.9922 48.7455C62.9923 48.7455 62.9924 48.7455 62.9926 48.7455C62.9927 48.7455 62.9928 48.7455 62.993 48.7455C62.9931 48.7455 62.9932 48.7455 62.9934 48.7455C62.9935 48.7455 62.9936 48.7455 62.9938 48.7455C62.9939 48.7455 62.994 48.7455 62.9941 48.7455C62.9943 48.7455 62.9944 48.7455 62.9945 48.7455C62.9947 48.7455 62.9948 48.7455 62.9949 48.7455C62.9951 48.7455 62.9952 48.7455 62.9953 48.7455C62.9954 48.7455 62.9956 48.7455 62.9957 48.7455C62.9958 48.7455 62.996 48.7455 62.9961 48.7455C62.9962 48.7455 62.9964 48.7455 62.9965 48.7455C62.9966 48.7455 62.9967 48.7455 62.9969 48.7455C62.997 48.7455 62.9971 48.7455 62.9973 48.7455C62.9974 48.7455 62.9975 48.7455 62.9977 48.7455C62.9978 48.7455 62.9979 48.7455 62.998 48.7455C62.9982 48.7455 62.9983 48.7455 62.9984 48.7455C62.9986 48.7455 62.9987 48.7455 62.9988 48.7455C62.999 48.7455 62.9991 48.7455 62.9992 48.7455C62.9993 48.7455 62.9995 48.7455 62.9996 48.7455C62.9997 48.7455 62.9999 48.7455 63 48.7455C63.0001 48.7455 63.0003 48.7455 63.0004 48.7455C63.0005 48.7455 63.0007 48.7455 63.0008 48.7455C63.0009 48.7455 63.001 48.7455 63.0012 48.7455C63.0013 48.7455 63.0014 48.7455 63.0016 48.7455C63.0017 48.7455 63.0018 48.7455 63.002 48.7455C63.0021 48.7455 63.0022 48.7455 63.0023 48.7455C63.0025 48.7455 63.0026 48.7455 63.0027 48.7455C63.0029 48.7455 63.003 48.7455 63.0031 48.7455C63.0033 48.7455 63.0034 48.7455 63.0035 48.7455C63.0036 48.7455 63.0038 48.7455 63.0039 48.7455C63.004 48.7455 63.0042 48.7455 63.0043 48.7455C63.0044 48.7455 63.0046 48.7455 63.0047 48.7455C63.0048 48.7455 63.0049 48.7455 63.0051 48.7455C63.0052 48.7455 63.0053 48.7455 63.0055 48.7455C63.0056 48.7455 63.0057 48.7455 63.0059 48.7455C63.006 48.7455 63.0061 48.7455 63.0063 48.7455C63.0064 48.7455 63.0065 48.7455 63.0066 48.7455C63.0068 48.7455 63.0069 48.7455 63.007 48.7455C63.0072 48.7455 63.0073 48.7455 63.0074 48.7455C63.0076 48.7455 63.0077 48.7455 63.0078 48.7455C63.0079 48.7455 63.0081 48.7455 63.0082 48.7455C63.0083 48.7455 63.0085 48.7455 63.0086 48.7455C63.0087 48.7455 63.0089 48.7455 63.009 48.7455C63.0091 48.7455 63.0092 48.7455 63.0094 48.7455C63.0095 48.7455 63.0096 48.7455 63.0098 48.7455C63.0099 48.7455 63.01 48.7455 63.0102 48.7455C63.0103 48.7455 63.0104 48.7455 63.0105 48.7455C63.0107 48.7455 63.0108 48.7455 63.0109 48.7455C63.0111 48.7455 63.0112 48.7455 63.0113 48.7455C63.0115 48.7455 63.0116 48.7455 63.0117 48.7455C63.0118 48.7455 63.012 48.7455 63.0121 48.7455C63.0122 48.7455 63.0124 48.7455 63.0125 48.7455C63.0126 48.7455 63.0128 48.7455 63.0129 48.7455C63.013 48.7455 63.0132 48.7455 63.0133 48.7455C63.0134 48.7455 63.0135 48.7455 63.0137 48.7455C63.0138 48.7455 63.0139 48.7455 63.0141 48.7455C63.0142 48.7455 63.0143 48.7455 63.0145 48.7455C63.0146 48.7455 63.0147 48.7455 63.0148 48.7455C63.015 48.7455 63.0151 48.7455 63.0152 48.7455C63.0154 48.7455 63.0155 48.7455 63.0156 48.7455C63.0158 48.7455 63.0159 48.7455 63.016 48.7455C63.0161 48.7455 63.0163 48.7455 63.0164 48.7455C63.0165 48.7455 63.0167 48.7455 63.0168 48.7455C63.0169 48.7455 63.0171 48.7455 63.0172 48.7455C63.0173 48.7455 63.0174 48.7455 63.0176 48.7455C63.0177 48.7455 63.0178 48.7455 63.018 48.7455C63.0181 48.7455 63.0182 48.7455 63.0184 48.7455C63.0185 48.7455 63.0186 48.7455 63.0188 48.7455C63.0189 48.7455 63.019 48.7455 63.0191 48.7455C63.0193 48.7455 63.0194 48.7455 63.0195 48.7455C63.0197 48.7455 63.0198 48.7455 63.0199 48.7455C63.0201 48.7455 63.0202 48.7455 63.0203 48.7455C63.0204 48.7455 63.0206 48.7455 63.0207 48.7455C63.0208 48.7455 63.021 48.7455 63.0211 48.7455C63.0212 48.7455 63.0214 48.7455 63.0215 48.7455C63.0216 48.7455 63.0217 48.7455 63.0219 48.7455C63.022 48.7455 63.0221 48.7455 63.0223 48.7455C63.0224 48.7455 63.0225 48.7455 63.0227 48.7455C63.0228 48.7455 63.0229 48.7455 63.023 48.7455C63.0232 48.7455 63.0233 48.7455 63.0234 48.7455C63.0236 48.7455 63.0237 48.7455 63.0238 48.7455C63.024 48.7455 63.0241 48.7455 63.0242 48.7455C63.0243 48.7455 63.0245 48.7455 63.0246 48.7455C63.0247 48.7455 63.0249 48.7455 63.025 48.7455C63.0251 48.7455 63.0253 48.7455 63.0254 48.7455C63.0255 48.7455 63.0257 48.7455 63.0258 48.7455C63.0259 48.7455 63.026 48.7455 63.0262 48.7455C63.0263 48.7455 63.0264 48.7455 63.0266 48.7455C63.0267 48.7455 63.0268 48.7455 63.027 48.7455C63.0271 48.7455 63.0272 48.7455 63.0273 48.7455C63.0275 48.7455 63.0276 48.7455 63.0277 48.7455C63.0279 48.7455 63.028 48.7455 63.0281 48.7455C63.0283 48.7455 63.0284 48.7455 63.0285 48.7455C63.0286 48.7455 63.0288 48.7455 63.0289 48.7455C63.029 48.7455 63.0292 48.7455 63.0293 48.7455C63.0294 48.7455 63.0296 48.7455 63.0297 48.7455C63.0298 48.7455 63.0299 48.7455 63.0301 48.7455C63.0302 48.7455 63.0303 48.7455 63.0305 48.7455C63.0306 48.7455 63.0307 48.7455 63.0309 48.7455C63.031 48.7455 63.0311 48.7455 63.0312 48.7455C63.0314 48.7455 63.0315 48.7455 63.0316 48.7455C63.0318 48.7455 63.0319 48.7455 63.032 48.7455C63.0322 48.7455 63.0323 48.7455 63.0324 48.7455C63.0326 48.7455 63.0327 48.7455 63.0328 48.7455C63.0329 48.7455 63.0331 48.7455 63.0332 48.7455C63.0333 48.7455 63.0335 48.7455 63.0336 48.7455C63.0337 48.7455 63.0339 48.7455 63.034 48.7455C63.0341 48.7455 63.0342 48.7455 63.0344 48.7455C63.0345 48.7455 63.0346 48.7455 63.0348 48.7455C63.0349 48.7455 63.035 48.7455 63.0352 48.7455C63.0353 48.7455 63.0354 48.7455 63.0355 48.7455C63.0357 48.7455 63.0358 48.7455 63.0359 48.7455C63.0361 48.7455 63.0362 48.7455 63.0363 48.7455C63.0365 48.7455 63.0366 48.7455 63.0367 48.7455C63.0368 48.7455 63.037 48.7455 63.0371 48.7455C63.0372 48.7455 63.0374 48.7455 63.0375 48.7455C63.0376 48.7455 63.0378 48.7455 63.0379 48.7455C63.038 48.7455 63.0382 48.7455 63.0383 48.7455C63.0384 48.7455 63.0385 48.7455 63.0387 48.7455C63.0388 48.7455 63.0389 48.7455 63.0391 48.7455C63.0392 48.7455 63.0393 48.7455 63.0395 48.7455C63.0396 48.7455 63.0397 48.7455 63.0398 48.7455C63.04 48.7455 63.0401 48.7455 63.0402 48.7455C63.0404 48.7455 63.0405 48.7455 63.0406 48.7455C63.0408 48.7455 63.0409 48.7455 63.041 48.7455C63.0411 48.7455 63.0413 48.7455 63.0414 48.7455C63.0415 48.7455 63.0417 48.7455 63.0418 48.7455C63.0419 48.7455 63.0421 48.7455 63.0422 48.7455C63.0423 48.7455 63.0424 48.7455 63.0426 48.7455C63.0427 48.7455 63.0428 48.7455 63.043 48.7455C63.0431 48.7455 63.0432 48.7455 63.0434 48.7455C63.0435 48.7455 63.0436 48.7455 63.0438 48.7455C63.0439 48.7455 63.044 48.7455 63.0441 48.7455C63.0443 48.7455 63.0444 48.7455 63.0445 48.7455C63.0447 48.7455 63.0448 48.7455 63.0449 48.7455C63.0451 48.7455 63.0452 48.7455 63.0453 48.7455C63.0454 48.7455 63.0456 48.7455 63.0457 48.7455C63.0458 48.7455 63.046 48.7455 63.0461 48.7455C63.0462 48.7455 63.0464 48.7455 63.0465 48.7455C63.0466 48.7455 63.0467 48.7455 63.0469 48.7455C63.047 48.7455 63.0471 48.7455 63.0473 48.7455C63.0474 48.7455 63.0475 48.7455 63.0477 48.7455C63.0478 48.7455 63.0479 48.7455 63.048 48.7455C63.0482 48.7455 63.0483 48.7455 63.0484 48.7455C63.0486 48.7455 63.0487 48.7455 63.0488 48.7455C63.049 48.7455 63.0491 48.7455 63.0492 48.7455C63.0493 48.7455 63.0495 48.7455 63.0496 48.7455C63.0497 48.7455 63.0499 48.7455 63.05 48.7455C63.0501 48.7455 63.0503 48.7455 63.0504 48.7455C63.0505 48.7455 63.0507 48.7455 63.0508 48.7455C63.0509 48.7455 63.051 48.7455 63.0512 48.7455C63.0513 48.7455 63.0514 48.7455 63.0516 48.7455C63.0517 48.7455 63.0518 48.7455 63.052 48.7455C63.0521 48.7455 63.0522 48.7455 63.0523 48.7455C63.0525 48.7455 63.0526 48.7455 63.0527 48.7455C63.0529 48.7455 63.053 48.7455 63.0531 48.7455C63.0533 48.7455 63.0534 48.7455 63.0535 48.7455C63.0536 48.7455 63.0538 48.7455 63.0539 48.7455C63.054 48.7455 63.0542 48.7455 63.0543 48.7455C63.0544 48.7455 63.0546 48.7455 63.0547 48.7455C63.0548 48.7455 63.0549 48.7455 63.0551 48.7455C63.0552 48.7455 63.0553 48.7455 63.0555 48.7455C63.0556 48.7455 63.0557 48.7455 63.0559 48.7455C63.056 48.7455 63.0561 48.7455 63.0563 48.7455C63.0564 48.7455 63.0565 48.7455 63.0566 48.7455C63.0568 48.7455 63.0569 48.7455 63.057 48.7455C63.0572 48.7455 63.0573 48.7455 63.0574 48.7455C63.0576 48.7455 63.0577 48.7455 63.0578 48.7455C63.0579 48.7455 63.0581 48.7455 63.0582 48.7455C63.0583 48.7455 63.0585 48.7455 63.0586 48.7455C63.0587 48.7455 63.0589 48.7455 63.059 48.7455C63.0591 48.7455 63.0592 48.7455 63.0594 48.7455C63.0595 48.7455 63.0596 48.7455 63.0598 48.7455C63.0599 48.7455 63.06 48.7455 63.0602 48.7455C63.0603 48.7455 63.0604 48.7455 63.0605 48.7455C63.0607 48.7455 63.0608 48.7455 63.0609 48.7455C63.0611 48.7455 63.0612 48.7455 63.0613 48.7455C63.0615 48.7455 63.0616 48.7455 63.0617 48.7455C63.0618 48.7455 63.062 48.7455 63.0621 48.7455C63.0622 48.7455 63.0624 48.7455 63.0625 48.7455C63.0626 48.7455 63.0628 48.7455 63.0629 48.7455C63.063 48.7455 63.0632 48.7455 63.0633 48.7455C63.0634 48.7455 63.0635 48.7455 63.0637 48.7455C63.0638 48.7455 63.0639 48.7455 63.0641 48.7455C63.0642 48.7455 63.0643 48.7455 63.0645 48.7455C63.0646 48.7455 63.0647 48.7455 63.0648 48.7455C63.065 48.7455 63.0651 48.7455 63.0652 48.7455C63.0654 48.7455 63.0655 48.7455 63.0656 48.7455C63.0658 48.7455 63.0659 48.7455 63.066 48.7455C63.0661 48.7455 63.0663 48.7455 63.0664 48.7455C63.0665 48.7455 63.0667 48.7455 63.0668 48.7455C63.0669 48.7455 63.0671 48.7455 63.0672 48.7455C63.0673 48.7455 63.0674 48.7455 63.0676 48.7455C63.0677 48.7455 63.0678 48.7455 63.068 48.7455C63.0681 48.7455 63.0682 48.7455 63.0684 48.7455C63.0685 48.7455 63.0686 48.7455 63.0688 48.7455C63.0689 48.7455 63.069 48.7455 63.0691 48.7455C63.0693 48.7455 63.0694 48.7455 63.0695 48.7455C63.0697 48.7455 63.0698 48.7455 63.0699 48.7455C63.0701 48.7455 63.0702 48.7455 63.0703 48.7455C63.0704 48.7455 63.0706 48.7455 63.0707 48.7455C63.0708 48.7455 63.071 48.7455 63.0711 48.7455C63.0712 48.7455 63.0714 48.7455 63.0715 48.7455C63.0716 48.7455 63.0717 48.7455 63.0719 48.7455C63.072 48.7455 63.0721 48.7455 63.0723 48.7455C63.0724 48.7455 63.0725 48.7455 63.0727 48.7455C63.0728 48.7455 63.0729 48.7455 63.073 48.7455C63.0732 48.7455 63.0733 48.7455 63.0734 48.7455C63.0736 48.7455 63.0737 48.7455 63.0738 48.7455C63.074 48.7455 63.0741 48.7455 63.0742 48.7455C63.0743 48.7455 63.0745 48.7455 63.0746 48.7455C63.0747 48.7455 63.0749 48.7455 63.075 48.7455C63.0751 48.7455 63.0753 48.7455 63.0754 48.7455C63.0755 48.7455 63.0757 48.7455 63.0758 48.7455C63.0759 48.7455 63.076 48.7455 63.0762 48.7455C63.0763 48.7455 63.0764 48.7455 63.0766 48.7455C63.0767 48.7455 63.0768 48.7455 63.077 48.7455C63.0771 48.7455 63.0772 48.7455 63.0773 48.7455C63.0775 48.7455 63.0776 48.7455 63.0777 48.7455C63.0779 48.7455 63.078 48.7455 63.0781 48.7455C63.0783 48.7455 63.0784 48.7455 63.0785 48.7455C63.0786 48.7455 63.0788 48.7455 63.0789 48.7455C63.079 48.7455 63.0792 48.7455 63.0793 48.7455C63.0794 48.7455 63.0796 48.7455 63.0797 48.7455C63.0798 48.7455 63.0799 48.7455 63.0801 48.7455C63.0802 48.7455 63.0803 48.7455 63.0805 48.7455C63.0806 48.7455 63.0807 48.7455 63.0809 48.7455C63.081 48.7455 63.0811 48.7455 63.0813 48.7455C63.0814 48.7455 63.0815 48.7455 63.0816 48.7455C63.0818 48.7455 63.0819 48.7455 63.082 48.7455C63.0822 48.7455 63.0823 48.7455 63.0824 48.7455C63.0826 48.7455 63.0827 48.7455 63.0828 48.7455C63.0829 48.7455 63.0831 48.7455 63.0832 48.7455C63.0833 48.7455 63.0835 48.7455 63.0836 48.7455C63.0837 48.7455 63.0839 48.7455 63.084 48.7455C63.0841 48.7455 63.0842 48.7455 63.0844 48.7455C63.0845 48.7455 63.0846 48.7455 63.0848 48.7455C63.0849 48.7455 63.085 48.7455 63.0852 48.7455C63.0853 48.7455 63.0854 48.7455 63.0855 48.7455C63.0857 48.7455 63.0858 48.7455 63.0859 48.7455C63.0861 48.7455 63.0862 48.7455 63.0863 48.7455C63.0865 48.7455 63.0866 48.7455 63.0867 48.7455C63.0868 48.7455 63.087 48.7455 63.0871 48.7455C63.0872 48.7455 63.0874 48.7455 63.0875 48.7455C63.0876 48.7455 63.0878 48.7455 63.0879 48.7455C63.088 48.7455 63.0882 48.7455 63.0883 48.7455C63.0884 48.7455 63.0885 48.7455 63.0887 48.7455C63.0888 48.7455 63.0889 48.7455 63.0891 48.7455C63.0892 48.7455 63.0893 48.7455 63.0895 48.7455C63.0896 48.7455 63.0897 48.7455 63.0898 48.7455C63.09 48.7455 63.0901 48.7455 63.0902 48.7455C63.0904 48.7455 63.0905 48.7455 63.0906 48.7455C63.0908 48.7455 63.0909 48.7455 63.091 48.7455C63.0911 48.7455 63.0913 48.7455 63.0914 48.7455C63.0915 48.7455 63.0917 48.7455 63.0918 48.7455C63.0919 48.7455 63.0921 48.7455 63.0922 48.7455C63.0923 48.7455 63.0924 48.7455 63.0926 48.7455C63.0927 48.7455 63.0928 48.7455 63.093 48.7455C63.0931 48.7455 63.0932 48.7455 63.0934 48.7455C63.0935 48.7455 63.0936 48.7455 63.0938 48.7455C63.0939 48.7455 63.094 48.7455 63.0941 48.7455C63.0943 48.7455 63.0944 48.7455 63.0945 48.7455C63.0947 48.7455 63.0948 48.7455 63.0949 48.7455C63.0951 48.7455 63.0952 48.7455 63.0953 48.7455C63.0954 48.7455 63.0956 48.7455 63.0957 48.7455C63.0958 48.7455 63.096 48.7455 63.0961 48.7455C63.0962 48.7455 63.0964 48.7455 63.0965 48.7455C63.0966 48.7455 63.0967 48.7455 63.0969 48.7455C63.097 48.7455 63.0971 48.7455 63.0973 48.7455C63.0974 48.7455 63.0975 48.7455 63.0977 48.7455C63.0978 48.7455 63.0979 48.7455 63.098 48.7455C63.0982 48.7455 63.0983 48.7455 63.0984 48.7455C63.0986 48.7455 63.0987 48.7455 63.0988 48.7455C63.099 48.7455 63.0991 48.7455 63.0992 48.7455C63.0993 48.7455 63.0995 48.7455 63.0996 48.7455C63.0997 48.7455 63.0999 48.7455 63.1 48.7455C63.1001 48.7455 63.1003 48.7455 63.1004 48.7455C63.1005 48.7455 63.1007 48.7455 63.1008 48.7455C63.1009 48.7455 63.101 48.7455 63.1012 48.7455C63.1013 48.7455 63.1014 48.7455 63.1016 48.7455C63.1017 48.7455 63.1018 48.7455 63.102 48.7455C63.1021 48.7455 63.1022 48.7455 63.1023 48.7455C63.1025 48.7455 63.1026 48.7455 63.1027 48.7455C63.1029 48.7455 63.103 48.7455 63.1031 48.7455C63.1033 48.7455 63.1034 48.7455 63.1035 48.7455C63.1036 48.7455 63.1038 48.7455 63.1039 48.7455C63.104 48.7455 63.1042 48.7455 63.1043 48.7455C63.1044 48.7455 63.1046 48.7455 63.1047 48.7455C63.1048 48.7455 63.1049 48.7455 63.1051 48.7455C63.1052 48.7455 63.1053 48.7455 63.1055 48.7455C63.1056 48.7455 63.1057 48.7455 63.1059 48.7455C63.106 48.7455 63.1061 48.7455 63.1063 48.7455C63.1064 48.7455 63.1065 48.7455 63.1066 48.7455C63.1068 48.7455 63.1069 48.7455 63.107 48.7455C63.1072 48.7455 63.1073 48.7455 63.1074 48.7455C63.1076 48.7455 63.1077 48.7455 63.1078 48.7455C63.1079 48.7455 63.1081 48.7455 63.1082 48.7455C63.1083 48.7455 63.1085 48.7455 63.1086 48.7455C63.1087 48.7455 63.1089 48.7455 63.109 48.7455C63.1091 48.7455 63.1092 48.7455 63.1094 48.7455C63.1095 48.7455 63.1096 48.7455 63.1098 48.7455C63.1099 48.7455 63.11 48.7455 63.1102 48.7455C63.1103 48.7455 63.1104 48.7455 63.1105 48.7455C63.1107 48.7455 63.1108 48.7455 63.1109 48.7455C63.1111 48.7455 63.1112 48.7455 63.1113 48.7455C63.1115 48.7455 63.1116 48.7455 63.1117 48.7455C63.1118 48.7455 63.112 48.7455 63.1121 48.7455C63.1122 48.7455 63.1124 48.7455 63.1125 48.7455C63.1126 48.7455 63.1128 48.7455 63.1129 48.7455C63.113 48.7455 63.1132 48.7455 63.1133 48.7455C63.1134 48.7455 63.1135 48.7455 63.1137 48.7455C63.1138 48.7455 63.1139 48.7455 63.1141 48.7455C63.1142 48.7455 63.1143 48.7455 63.1145 48.7455C63.1146 48.7455 63.1147 48.7455 63.1148 48.7455C63.115 48.7455 63.1151 48.7455 63.1152 48.7455C63.1154 48.7455 63.1155 48.7455 63.1156 48.7455C63.1158 48.7455 63.1159 48.7455 63.116 48.7455C63.1161 48.7455 63.1163 48.7455 63.1164 48.7455C63.1165 48.7455 63.1167 48.7455 63.1168 48.7455C63.1169 48.7455 63.1171 48.7455 63.1172 48.7455C63.1173 48.7455 63.1174 48.7455 63.1176 48.7455C63.1177 48.7455 63.1178 48.7455 63.118 48.7455C63.1181 48.7455 63.1182 48.7455 63.1184 48.7455C63.1185 48.7455 63.1186 48.7455 63.1188 48.7455C63.1189 48.7455 63.119 48.7455 63.1191 48.7455C63.1193 48.7455 63.1194 48.7455 63.1195 48.7455C63.1197 48.7455 63.1198 48.7455 63.1199 48.7455C63.1201 48.7455 63.1202 48.7455 63.1203 48.7455C63.1204 48.7455 63.1206 48.7455 63.1207 48.7455C63.1208 48.7455 63.121 48.7455 63.1211 48.7455C63.1212 48.7455 63.1214 48.7455 63.1215 48.7455C63.1216 48.7455 63.1217 48.7455 63.1219 48.7455C63.122 48.7455 63.1221 48.7455 63.1223 48.7455C63.1224 48.7455 63.1225 48.7455 63.1227 48.7455C63.1228 48.7455 63.1229 48.7455 63.123 48.7455C63.1232 48.7455 63.1233 48.7455 63.1234 48.7455C63.1236 48.7455 63.1237 48.7455 63.1238 48.7455C63.124 48.7455 63.1241 48.7455 63.1242 48.7455C63.1243 48.7455 63.1245 48.7455 63.1246 48.7455C63.1247 48.7455 63.1249 48.7455 63.125 48.7455C63.1251 48.7455 63.1253 48.7455 63.1254 48.7455C63.1255 48.7455 63.1257 48.7455 63.1258 48.7455C63.1259 48.7455 63.126 48.7455 63.1262 48.7455C63.1263 48.7455 63.1264 48.7455 63.1266 48.7455C63.1267 48.7455 63.1268 48.7455 63.127 48.7455C63.1271 48.7455 63.1272 48.7455 63.1273 48.7455C63.1275 48.7455 63.1276 48.7455 63.1277 48.7455C63.1279 48.7455 63.128 48.7455 63.1281 48.7455C63.1283 48.7455 63.1284 48.7455 63.1285 48.7455C63.1286 48.7455 63.1288 48.7455 63.1289 48.7455C63.129 48.7455 63.1292 48.7455 63.1293 48.7455C63.1294 48.7455 63.1296 48.7455 63.1297 48.7455C63.1298 48.7455 63.1299 48.7455 63.1301 48.7455C63.1302 48.7455 63.1303 48.7455 63.1305 48.7455C63.1306 48.7455 63.1307 48.7455 63.1309 48.7455C63.131 48.7455 63.1311 48.7455 63.1313 48.7455C63.1314 48.7455 63.1315 48.7455 63.1316 48.7455C63.1318 48.7455 63.1319 48.7455 63.132 48.7455C63.1322 48.7455 63.1323 48.7455 63.1324 48.7455C63.1326 48.7455 63.1327 48.7455 63.1328 48.7455C63.1329 48.7455 63.1331 48.7455 63.1332 48.7455C63.1333 48.7455 63.1335 48.7455 63.1336 48.7455C63.1337 48.7455 63.1339 48.7455 63.134 48.7455C63.1341 48.7455 63.1342 48.7455 63.1344 48.7455C63.1345 48.7455 63.1346 48.7455 63.1348 48.7455C63.1349 48.7455 63.135 48.7455 63.1352 48.7455C63.1353 48.7455 63.1354 48.7455 63.1355 48.7455C63.1357 48.7455 63.1358 48.7455 63.1359 48.7455C63.1361 48.7455 63.1362 48.7455 63.1363 48.7455C63.1365 48.7455 63.1366 48.7455 63.1367 48.7455C63.1368 48.7455 63.137 48.7455 63.1371 48.7455C63.1372 48.7455 63.1374 48.7455 63.1375 48.7455C63.1376 48.7455 63.1378 48.7455 63.1379 48.7455C63.138 48.7455 63.1382 48.7455 63.1383 48.7455C63.1384 48.7455 63.1385 48.7455 63.1387 48.7455C63.1388 48.7455 63.1389 48.7455 63.1391 48.7455C63.1392 48.7455 63.1393 48.7455 63.1395 48.7455C63.1396 48.7455 63.1397 48.7455 63.1398 48.7455C63.14 48.7455 63.1401 48.7455 63.1402 48.7455C63.1404 48.7455 63.1405 48.7455 63.1406 48.7455C63.1408 48.7455 63.1409 48.7455 63.141 48.7455C63.1411 48.7455 63.1413 48.7455 63.1414 48.7455C63.1415 48.7455 63.1417 48.7455 63.1418 48.7455C63.1419 48.7455 63.1421 48.7455 63.1422 48.7455C63.1423 48.7455 63.1424 48.7455 63.1426 48.7455C63.1427 48.7455 63.1428 48.7455 63.143 48.7455C63.1431 48.7455 63.1432 48.7455 63.1434 48.7455C63.1435 48.7455 63.1436 48.7455 63.1438 48.7455C63.1439 48.7455 63.144 48.7455 63.1441 48.7455C63.1443 48.7455 63.1444 48.7455 63.1445 48.7455C63.1447 48.7455 63.1448 48.7455 63.1449 48.7455C63.1451 48.7455 63.1452 48.7455 63.1453 48.7455C63.1454 48.7455 63.1456 48.7455 63.1457 48.7455C63.1458 48.7455 63.146 48.7455 63.1461 48.7455C63.1462 48.7455 63.1464 48.7455 63.1465 48.7455C63.1466 48.7455 63.1467 48.7455 63.1469 48.7455C63.147 48.7455 63.1471 48.7455 63.1473 48.7455C63.1474 48.7455 63.1475 48.7455 63.1477 48.7455C63.1478 48.7455 63.1479 48.7455 63.148 48.7455C63.1482 48.7455 63.1483 48.7455 63.1484 48.7455C63.1486 48.7455 63.1487 48.7455 63.1488 48.7455C63.149 48.7455 63.1491 48.7455 63.1492 48.7455C63.1493 48.7455 63.1495 48.7455 63.1496 48.7455C63.1497 48.7455 63.1499 48.7455 63.15 48.7455V45.7455C63.1499 45.7455 63.1497 45.7455 63.1496 45.7455C63.1495 45.7455 63.1493 45.7455 63.1492 45.7455C63.1491 45.7455 63.149 45.7455 63.1488 45.7455C63.1487 45.7455 63.1486 45.7455 63.1484 45.7455C63.1483 45.7455 63.1482 45.7455 63.148 45.7455C63.1479 45.7455 63.1478 45.7455 63.1477 45.7455C63.1475 45.7455 63.1474 45.7455 63.1473 45.7455C63.1471 45.7455 63.147 45.7455 63.1469 45.7455C63.1467 45.7455 63.1466 45.7455 63.1465 45.7455C63.1464 45.7455 63.1462 45.7455 63.1461 45.7455C63.146 45.7455 63.1458 45.7455 63.1457 45.7455C63.1456 45.7455 63.1454 45.7455 63.1453 45.7455C63.1452 45.7455 63.1451 45.7455 63.1449 45.7455C63.1448 45.7455 63.1447 45.7455 63.1445 45.7455C63.1444 45.7455 63.1443 45.7455 63.1441 45.7455C63.144 45.7455 63.1439 45.7455 63.1438 45.7455C63.1436 45.7455 63.1435 45.7455 63.1434 45.7455C63.1432 45.7455 63.1431 45.7455 63.143 45.7455C63.1428 45.7455 63.1427 45.7455 63.1426 45.7455C63.1424 45.7455 63.1423 45.7455 63.1422 45.7455C63.1421 45.7455 63.1419 45.7455 63.1418 45.7455C63.1417 45.7455 63.1415 45.7455 63.1414 45.7455C63.1413 45.7455 63.1411 45.7455 63.141 45.7455C63.1409 45.7455 63.1408 45.7455 63.1406 45.7455C63.1405 45.7455 63.1404 45.7455 63.1402 45.7455C63.1401 45.7455 63.14 45.7455 63.1398 45.7455C63.1397 45.7455 63.1396 45.7455 63.1395 45.7455C63.1393 45.7455 63.1392 45.7455 63.1391 45.7455C63.1389 45.7455 63.1388 45.7455 63.1387 45.7455C63.1385 45.7455 63.1384 45.7455 63.1383 45.7455C63.1382 45.7455 63.138 45.7455 63.1379 45.7455C63.1378 45.7455 63.1376 45.7455 63.1375 45.7455C63.1374 45.7455 63.1372 45.7455 63.1371 45.7455C63.137 45.7455 63.1368 45.7455 63.1367 45.7455C63.1366 45.7455 63.1365 45.7455 63.1363 45.7455C63.1362 45.7455 63.1361 45.7455 63.1359 45.7455C63.1358 45.7455 63.1357 45.7455 63.1355 45.7455C63.1354 45.7455 63.1353 45.7455 63.1352 45.7455C63.135 45.7455 63.1349 45.7455 63.1348 45.7455C63.1346 45.7455 63.1345 45.7455 63.1344 45.7455C63.1342 45.7455 63.1341 45.7455 63.134 45.7455C63.1339 45.7455 63.1337 45.7455 63.1336 45.7455C63.1335 45.7455 63.1333 45.7455 63.1332 45.7455C63.1331 45.7455 63.1329 45.7455 63.1328 45.7455C63.1327 45.7455 63.1326 45.7455 63.1324 45.7455C63.1323 45.7455 63.1322 45.7455 63.132 45.7455C63.1319 45.7455 63.1318 45.7455 63.1316 45.7455C63.1315 45.7455 63.1314 45.7455 63.1313 45.7455C63.1311 45.7455 63.131 45.7455 63.1309 45.7455C63.1307 45.7455 63.1306 45.7455 63.1305 45.7455C63.1303 45.7455 63.1302 45.7455 63.1301 45.7455C63.1299 45.7455 63.1298 45.7455 63.1297 45.7455C63.1296 45.7455 63.1294 45.7455 63.1293 45.7455C63.1292 45.7455 63.129 45.7455 63.1289 45.7455C63.1288 45.7455 63.1286 45.7455 63.1285 45.7455C63.1284 45.7455 63.1283 45.7455 63.1281 45.7455C63.128 45.7455 63.1279 45.7455 63.1277 45.7455C63.1276 45.7455 63.1275 45.7455 63.1273 45.7455C63.1272 45.7455 63.1271 45.7455 63.127 45.7455C63.1268 45.7455 63.1267 45.7455 63.1266 45.7455C63.1264 45.7455 63.1263 45.7455 63.1262 45.7455C63.126 45.7455 63.1259 45.7455 63.1258 45.7455C63.1257 45.7455 63.1255 45.7455 63.1254 45.7455C63.1253 45.7455 63.1251 45.7455 63.125 45.7455C63.1249 45.7455 63.1247 45.7455 63.1246 45.7455C63.1245 45.7455 63.1243 45.7455 63.1242 45.7455C63.1241 45.7455 63.124 45.7455 63.1238 45.7455C63.1237 45.7455 63.1236 45.7455 63.1234 45.7455C63.1233 45.7455 63.1232 45.7455 63.123 45.7455C63.1229 45.7455 63.1228 45.7455 63.1227 45.7455C63.1225 45.7455 63.1224 45.7455 63.1223 45.7455C63.1221 45.7455 63.122 45.7455 63.1219 45.7455C63.1217 45.7455 63.1216 45.7455 63.1215 45.7455C63.1214 45.7455 63.1212 45.7455 63.1211 45.7455C63.121 45.7455 63.1208 45.7455 63.1207 45.7455C63.1206 45.7455 63.1204 45.7455 63.1203 45.7455C63.1202 45.7455 63.1201 45.7455 63.1199 45.7455C63.1198 45.7455 63.1197 45.7455 63.1195 45.7455C63.1194 45.7455 63.1193 45.7455 63.1191 45.7455C63.119 45.7455 63.1189 45.7455 63.1188 45.7455C63.1186 45.7455 63.1185 45.7455 63.1184 45.7455C63.1182 45.7455 63.1181 45.7455 63.118 45.7455C63.1178 45.7455 63.1177 45.7455 63.1176 45.7455C63.1174 45.7455 63.1173 45.7455 63.1172 45.7455C63.1171 45.7455 63.1169 45.7455 63.1168 45.7455C63.1167 45.7455 63.1165 45.7455 63.1164 45.7455C63.1163 45.7455 63.1161 45.7455 63.116 45.7455C63.1159 45.7455 63.1158 45.7455 63.1156 45.7455C63.1155 45.7455 63.1154 45.7455 63.1152 45.7455C63.1151 45.7455 63.115 45.7455 63.1148 45.7455C63.1147 45.7455 63.1146 45.7455 63.1145 45.7455C63.1143 45.7455 63.1142 45.7455 63.1141 45.7455C63.1139 45.7455 63.1138 45.7455 63.1137 45.7455C63.1135 45.7455 63.1134 45.7455 63.1133 45.7455C63.1132 45.7455 63.113 45.7455 63.1129 45.7455C63.1128 45.7455 63.1126 45.7455 63.1125 45.7455C63.1124 45.7455 63.1122 45.7455 63.1121 45.7455C63.112 45.7455 63.1118 45.7455 63.1117 45.7455C63.1116 45.7455 63.1115 45.7455 63.1113 45.7455C63.1112 45.7455 63.1111 45.7455 63.1109 45.7455C63.1108 45.7455 63.1107 45.7455 63.1105 45.7455C63.1104 45.7455 63.1103 45.7455 63.1102 45.7455C63.11 45.7455 63.1099 45.7455 63.1098 45.7455C63.1096 45.7455 63.1095 45.7455 63.1094 45.7455C63.1092 45.7455 63.1091 45.7455 63.109 45.7455C63.1089 45.7455 63.1087 45.7455 63.1086 45.7455C63.1085 45.7455 63.1083 45.7455 63.1082 45.7455C63.1081 45.7455 63.1079 45.7455 63.1078 45.7455C63.1077 45.7455 63.1076 45.7455 63.1074 45.7455C63.1073 45.7455 63.1072 45.7455 63.107 45.7455C63.1069 45.7455 63.1068 45.7455 63.1066 45.7455C63.1065 45.7455 63.1064 45.7455 63.1063 45.7455C63.1061 45.7455 63.106 45.7455 63.1059 45.7455C63.1057 45.7455 63.1056 45.7455 63.1055 45.7455C63.1053 45.7455 63.1052 45.7455 63.1051 45.7455C63.1049 45.7455 63.1048 45.7455 63.1047 45.7455C63.1046 45.7455 63.1044 45.7455 63.1043 45.7455C63.1042 45.7455 63.104 45.7455 63.1039 45.7455C63.1038 45.7455 63.1036 45.7455 63.1035 45.7455C63.1034 45.7455 63.1033 45.7455 63.1031 45.7455C63.103 45.7455 63.1029 45.7455 63.1027 45.7455C63.1026 45.7455 63.1025 45.7455 63.1023 45.7455C63.1022 45.7455 63.1021 45.7455 63.102 45.7455C63.1018 45.7455 63.1017 45.7455 63.1016 45.7455C63.1014 45.7455 63.1013 45.7455 63.1012 45.7455C63.101 45.7455 63.1009 45.7455 63.1008 45.7455C63.1007 45.7455 63.1005 45.7455 63.1004 45.7455C63.1003 45.7455 63.1001 45.7455 63.1 45.7455C63.0999 45.7455 63.0997 45.7455 63.0996 45.7455C63.0995 45.7455 63.0993 45.7455 63.0992 45.7455C63.0991 45.7455 63.099 45.7455 63.0988 45.7455C63.0987 45.7455 63.0986 45.7455 63.0984 45.7455C63.0983 45.7455 63.0982 45.7455 63.098 45.7455C63.0979 45.7455 63.0978 45.7455 63.0977 45.7455C63.0975 45.7455 63.0974 45.7455 63.0973 45.7455C63.0971 45.7455 63.097 45.7455 63.0969 45.7455C63.0967 45.7455 63.0966 45.7455 63.0965 45.7455C63.0964 45.7455 63.0962 45.7455 63.0961 45.7455C63.096 45.7455 63.0958 45.7455 63.0957 45.7455C63.0956 45.7455 63.0954 45.7455 63.0953 45.7455C63.0952 45.7455 63.0951 45.7455 63.0949 45.7455C63.0948 45.7455 63.0947 45.7455 63.0945 45.7455C63.0944 45.7455 63.0943 45.7455 63.0941 45.7455C63.094 45.7455 63.0939 45.7455 63.0938 45.7455C63.0936 45.7455 63.0935 45.7455 63.0934 45.7455C63.0932 45.7455 63.0931 45.7455 63.093 45.7455C63.0928 45.7455 63.0927 45.7455 63.0926 45.7455C63.0924 45.7455 63.0923 45.7455 63.0922 45.7455C63.0921 45.7455 63.0919 45.7455 63.0918 45.7455C63.0917 45.7455 63.0915 45.7455 63.0914 45.7455C63.0913 45.7455 63.0911 45.7455 63.091 45.7455C63.0909 45.7455 63.0908 45.7455 63.0906 45.7455C63.0905 45.7455 63.0904 45.7455 63.0902 45.7455C63.0901 45.7455 63.09 45.7455 63.0898 45.7455C63.0897 45.7455 63.0896 45.7455 63.0895 45.7455C63.0893 45.7455 63.0892 45.7455 63.0891 45.7455C63.0889 45.7455 63.0888 45.7455 63.0887 45.7455C63.0885 45.7455 63.0884 45.7455 63.0883 45.7455C63.0882 45.7455 63.088 45.7455 63.0879 45.7455C63.0878 45.7455 63.0876 45.7455 63.0875 45.7455C63.0874 45.7455 63.0872 45.7455 63.0871 45.7455C63.087 45.7455 63.0868 45.7455 63.0867 45.7455C63.0866 45.7455 63.0865 45.7455 63.0863 45.7455C63.0862 45.7455 63.0861 45.7455 63.0859 45.7455C63.0858 45.7455 63.0857 45.7455 63.0855 45.7455C63.0854 45.7455 63.0853 45.7455 63.0852 45.7455C63.085 45.7455 63.0849 45.7455 63.0848 45.7455C63.0846 45.7455 63.0845 45.7455 63.0844 45.7455C63.0842 45.7455 63.0841 45.7455 63.084 45.7455C63.0839 45.7455 63.0837 45.7455 63.0836 45.7455C63.0835 45.7455 63.0833 45.7455 63.0832 45.7455C63.0831 45.7455 63.0829 45.7455 63.0828 45.7455C63.0827 45.7455 63.0826 45.7455 63.0824 45.7455C63.0823 45.7455 63.0822 45.7455 63.082 45.7455C63.0819 45.7455 63.0818 45.7455 63.0816 45.7455C63.0815 45.7455 63.0814 45.7455 63.0813 45.7455C63.0811 45.7455 63.081 45.7455 63.0809 45.7455C63.0807 45.7455 63.0806 45.7455 63.0805 45.7455C63.0803 45.7455 63.0802 45.7455 63.0801 45.7455C63.0799 45.7455 63.0798 45.7455 63.0797 45.7455C63.0796 45.7455 63.0794 45.7455 63.0793 45.7455C63.0792 45.7455 63.079 45.7455 63.0789 45.7455C63.0788 45.7455 63.0786 45.7455 63.0785 45.7455C63.0784 45.7455 63.0783 45.7455 63.0781 45.7455C63.078 45.7455 63.0779 45.7455 63.0777 45.7455C63.0776 45.7455 63.0775 45.7455 63.0773 45.7455C63.0772 45.7455 63.0771 45.7455 63.077 45.7455C63.0768 45.7455 63.0767 45.7455 63.0766 45.7455C63.0764 45.7455 63.0763 45.7455 63.0762 45.7455C63.076 45.7455 63.0759 45.7455 63.0758 45.7455C63.0757 45.7455 63.0755 45.7455 63.0754 45.7455C63.0753 45.7455 63.0751 45.7455 63.075 45.7455C63.0749 45.7455 63.0747 45.7455 63.0746 45.7455C63.0745 45.7455 63.0743 45.7455 63.0742 45.7455C63.0741 45.7455 63.074 45.7455 63.0738 45.7455C63.0737 45.7455 63.0736 45.7455 63.0734 45.7455C63.0733 45.7455 63.0732 45.7455 63.073 45.7455C63.0729 45.7455 63.0728 45.7455 63.0727 45.7455C63.0725 45.7455 63.0724 45.7455 63.0723 45.7455C63.0721 45.7455 63.072 45.7455 63.0719 45.7455C63.0717 45.7455 63.0716 45.7455 63.0715 45.7455C63.0714 45.7455 63.0712 45.7455 63.0711 45.7455C63.071 45.7455 63.0708 45.7455 63.0707 45.7455C63.0706 45.7455 63.0704 45.7455 63.0703 45.7455C63.0702 45.7455 63.0701 45.7455 63.0699 45.7455C63.0698 45.7455 63.0697 45.7455 63.0695 45.7455C63.0694 45.7455 63.0693 45.7455 63.0691 45.7455C63.069 45.7455 63.0689 45.7455 63.0688 45.7455C63.0686 45.7455 63.0685 45.7455 63.0684 45.7455C63.0682 45.7455 63.0681 45.7455 63.068 45.7455C63.0678 45.7455 63.0677 45.7455 63.0676 45.7455C63.0674 45.7455 63.0673 45.7455 63.0672 45.7455C63.0671 45.7455 63.0669 45.7455 63.0668 45.7455C63.0667 45.7455 63.0665 45.7455 63.0664 45.7455C63.0663 45.7455 63.0661 45.7455 63.066 45.7455C63.0659 45.7455 63.0658 45.7455 63.0656 45.7455C63.0655 45.7455 63.0654 45.7455 63.0652 45.7455C63.0651 45.7455 63.065 45.7455 63.0648 45.7455C63.0647 45.7455 63.0646 45.7455 63.0645 45.7455C63.0643 45.7455 63.0642 45.7455 63.0641 45.7455C63.0639 45.7455 63.0638 45.7455 63.0637 45.7455C63.0635 45.7455 63.0634 45.7455 63.0633 45.7455C63.0632 45.7455 63.063 45.7455 63.0629 45.7455C63.0628 45.7455 63.0626 45.7455 63.0625 45.7455C63.0624 45.7455 63.0622 45.7455 63.0621 45.7455C63.062 45.7455 63.0618 45.7455 63.0617 45.7455C63.0616 45.7455 63.0615 45.7455 63.0613 45.7455C63.0612 45.7455 63.0611 45.7455 63.0609 45.7455C63.0608 45.7455 63.0607 45.7455 63.0605 45.7455C63.0604 45.7455 63.0603 45.7455 63.0602 45.7455C63.06 45.7455 63.0599 45.7455 63.0598 45.7455C63.0596 45.7455 63.0595 45.7455 63.0594 45.7455C63.0592 45.7455 63.0591 45.7455 63.059 45.7455C63.0589 45.7455 63.0587 45.7455 63.0586 45.7455C63.0585 45.7455 63.0583 45.7455 63.0582 45.7455C63.0581 45.7455 63.0579 45.7455 63.0578 45.7455C63.0577 45.7455 63.0576 45.7455 63.0574 45.7455C63.0573 45.7455 63.0572 45.7455 63.057 45.7455C63.0569 45.7455 63.0568 45.7455 63.0566 45.7455C63.0565 45.7455 63.0564 45.7455 63.0563 45.7455C63.0561 45.7455 63.056 45.7455 63.0559 45.7455C63.0557 45.7455 63.0556 45.7455 63.0555 45.7455C63.0553 45.7455 63.0552 45.7455 63.0551 45.7455C63.0549 45.7455 63.0548 45.7455 63.0547 45.7455C63.0546 45.7455 63.0544 45.7455 63.0543 45.7455C63.0542 45.7455 63.054 45.7455 63.0539 45.7455C63.0538 45.7455 63.0536 45.7455 63.0535 45.7455C63.0534 45.7455 63.0533 45.7455 63.0531 45.7455C63.053 45.7455 63.0529 45.7455 63.0527 45.7455C63.0526 45.7455 63.0525 45.7455 63.0523 45.7455C63.0522 45.7455 63.0521 45.7455 63.052 45.7455C63.0518 45.7455 63.0517 45.7455 63.0516 45.7455C63.0514 45.7455 63.0513 45.7455 63.0512 45.7455C63.051 45.7455 63.0509 45.7455 63.0508 45.7455C63.0507 45.7455 63.0505 45.7455 63.0504 45.7455C63.0503 45.7455 63.0501 45.7455 63.05 45.7455C63.0499 45.7455 63.0497 45.7455 63.0496 45.7455C63.0495 45.7455 63.0493 45.7455 63.0492 45.7455C63.0491 45.7455 63.049 45.7455 63.0488 45.7455C63.0487 45.7455 63.0486 45.7455 63.0484 45.7455C63.0483 45.7455 63.0482 45.7455 63.048 45.7455C63.0479 45.7455 63.0478 45.7455 63.0477 45.7455C63.0475 45.7455 63.0474 45.7455 63.0473 45.7455C63.0471 45.7455 63.047 45.7455 63.0469 45.7455C63.0467 45.7455 63.0466 45.7455 63.0465 45.7455C63.0464 45.7455 63.0462 45.7455 63.0461 45.7455C63.046 45.7455 63.0458 45.7455 63.0457 45.7455C63.0456 45.7455 63.0454 45.7455 63.0453 45.7455C63.0452 45.7455 63.0451 45.7455 63.0449 45.7455C63.0448 45.7455 63.0447 45.7455 63.0445 45.7455C63.0444 45.7455 63.0443 45.7455 63.0441 45.7455C63.044 45.7455 63.0439 45.7455 63.0438 45.7455C63.0436 45.7455 63.0435 45.7455 63.0434 45.7455C63.0432 45.7455 63.0431 45.7455 63.043 45.7455C63.0428 45.7455 63.0427 45.7455 63.0426 45.7455C63.0424 45.7455 63.0423 45.7455 63.0422 45.7455C63.0421 45.7455 63.0419 45.7455 63.0418 45.7455C63.0417 45.7455 63.0415 45.7455 63.0414 45.7455C63.0413 45.7455 63.0411 45.7455 63.041 45.7455C63.0409 45.7455 63.0408 45.7455 63.0406 45.7455C63.0405 45.7455 63.0404 45.7455 63.0402 45.7455C63.0401 45.7455 63.04 45.7455 63.0398 45.7455C63.0397 45.7455 63.0396 45.7455 63.0395 45.7455C63.0393 45.7455 63.0392 45.7455 63.0391 45.7455C63.0389 45.7455 63.0388 45.7455 63.0387 45.7455C63.0385 45.7455 63.0384 45.7455 63.0383 45.7455C63.0382 45.7455 63.038 45.7455 63.0379 45.7455C63.0378 45.7455 63.0376 45.7455 63.0375 45.7455C63.0374 45.7455 63.0372 45.7455 63.0371 45.7455C63.037 45.7455 63.0368 45.7455 63.0367 45.7455C63.0366 45.7455 63.0365 45.7455 63.0363 45.7455C63.0362 45.7455 63.0361 45.7455 63.0359 45.7455C63.0358 45.7455 63.0357 45.7455 63.0355 45.7455C63.0354 45.7455 63.0353 45.7455 63.0352 45.7455C63.035 45.7455 63.0349 45.7455 63.0348 45.7455C63.0346 45.7455 63.0345 45.7455 63.0344 45.7455C63.0342 45.7455 63.0341 45.7455 63.034 45.7455C63.0339 45.7455 63.0337 45.7455 63.0336 45.7455C63.0335 45.7455 63.0333 45.7455 63.0332 45.7455C63.0331 45.7455 63.0329 45.7455 63.0328 45.7455C63.0327 45.7455 63.0326 45.7455 63.0324 45.7455C63.0323 45.7455 63.0322 45.7455 63.032 45.7455C63.0319 45.7455 63.0318 45.7455 63.0316 45.7455C63.0315 45.7455 63.0314 45.7455 63.0312 45.7455C63.0311 45.7455 63.031 45.7455 63.0309 45.7455C63.0307 45.7455 63.0306 45.7455 63.0305 45.7455C63.0303 45.7455 63.0302 45.7455 63.0301 45.7455C63.0299 45.7455 63.0298 45.7455 63.0297 45.7455C63.0296 45.7455 63.0294 45.7455 63.0293 45.7455C63.0292 45.7455 63.029 45.7455 63.0289 45.7455C63.0288 45.7455 63.0286 45.7455 63.0285 45.7455C63.0284 45.7455 63.0283 45.7455 63.0281 45.7455C63.028 45.7455 63.0279 45.7455 63.0277 45.7455C63.0276 45.7455 63.0275 45.7455 63.0273 45.7455C63.0272 45.7455 63.0271 45.7455 63.027 45.7455C63.0268 45.7455 63.0267 45.7455 63.0266 45.7455C63.0264 45.7455 63.0263 45.7455 63.0262 45.7455C63.026 45.7455 63.0259 45.7455 63.0258 45.7455C63.0257 45.7455 63.0255 45.7455 63.0254 45.7455C63.0253 45.7455 63.0251 45.7455 63.025 45.7455C63.0249 45.7455 63.0247 45.7455 63.0246 45.7455C63.0245 45.7455 63.0243 45.7455 63.0242 45.7455C63.0241 45.7455 63.024 45.7455 63.0238 45.7455C63.0237 45.7455 63.0236 45.7455 63.0234 45.7455C63.0233 45.7455 63.0232 45.7455 63.023 45.7455C63.0229 45.7455 63.0228 45.7455 63.0227 45.7455C63.0225 45.7455 63.0224 45.7455 63.0223 45.7455C63.0221 45.7455 63.022 45.7455 63.0219 45.7455C63.0217 45.7455 63.0216 45.7455 63.0215 45.7455C63.0214 45.7455 63.0212 45.7455 63.0211 45.7455C63.021 45.7455 63.0208 45.7455 63.0207 45.7455C63.0206 45.7455 63.0204 45.7455 63.0203 45.7455C63.0202 45.7455 63.0201 45.7455 63.0199 45.7455C63.0198 45.7455 63.0197 45.7455 63.0195 45.7455C63.0194 45.7455 63.0193 45.7455 63.0191 45.7455C63.019 45.7455 63.0189 45.7455 63.0188 45.7455C63.0186 45.7455 63.0185 45.7455 63.0184 45.7455C63.0182 45.7455 63.0181 45.7455 63.018 45.7455C63.0178 45.7455 63.0177 45.7455 63.0176 45.7455C63.0174 45.7455 63.0173 45.7455 63.0172 45.7455C63.0171 45.7455 63.0169 45.7455 63.0168 45.7455C63.0167 45.7455 63.0165 45.7455 63.0164 45.7455C63.0163 45.7455 63.0161 45.7455 63.016 45.7455C63.0159 45.7455 63.0158 45.7455 63.0156 45.7455C63.0155 45.7455 63.0154 45.7455 63.0152 45.7455C63.0151 45.7455 63.015 45.7455 63.0148 45.7455C63.0147 45.7455 63.0146 45.7455 63.0145 45.7455C63.0143 45.7455 63.0142 45.7455 63.0141 45.7455C63.0139 45.7455 63.0138 45.7455 63.0137 45.7455C63.0135 45.7455 63.0134 45.7455 63.0133 45.7455C63.0132 45.7455 63.013 45.7455 63.0129 45.7455C63.0128 45.7455 63.0126 45.7455 63.0125 45.7455C63.0124 45.7455 63.0122 45.7455 63.0121 45.7455C63.012 45.7455 63.0118 45.7455 63.0117 45.7455C63.0116 45.7455 63.0115 45.7455 63.0113 45.7455C63.0112 45.7455 63.0111 45.7455 63.0109 45.7455C63.0108 45.7455 63.0107 45.7455 63.0105 45.7455C63.0104 45.7455 63.0103 45.7455 63.0102 45.7455C63.01 45.7455 63.0099 45.7455 63.0098 45.7455C63.0096 45.7455 63.0095 45.7455 63.0094 45.7455C63.0092 45.7455 63.0091 45.7455 63.009 45.7455C63.0089 45.7455 63.0087 45.7455 63.0086 45.7455C63.0085 45.7455 63.0083 45.7455 63.0082 45.7455C63.0081 45.7455 63.0079 45.7455 63.0078 45.7455C63.0077 45.7455 63.0076 45.7455 63.0074 45.7455C63.0073 45.7455 63.0072 45.7455 63.007 45.7455C63.0069 45.7455 63.0068 45.7455 63.0066 45.7455C63.0065 45.7455 63.0064 45.7455 63.0063 45.7455C63.0061 45.7455 63.006 45.7455 63.0059 45.7455C63.0057 45.7455 63.0056 45.7455 63.0055 45.7455C63.0053 45.7455 63.0052 45.7455 63.0051 45.7455C63.0049 45.7455 63.0048 45.7455 63.0047 45.7455C63.0046 45.7455 63.0044 45.7455 63.0043 45.7455C63.0042 45.7455 63.004 45.7455 63.0039 45.7455C63.0038 45.7455 63.0036 45.7455 63.0035 45.7455C63.0034 45.7455 63.0033 45.7455 63.0031 45.7455C63.003 45.7455 63.0029 45.7455 63.0027 45.7455C63.0026 45.7455 63.0025 45.7455 63.0023 45.7455C63.0022 45.7455 63.0021 45.7455 63.002 45.7455C63.0018 45.7455 63.0017 45.7455 63.0016 45.7455C63.0014 45.7455 63.0013 45.7455 63.0012 45.7455C63.001 45.7455 63.0009 45.7455 63.0008 45.7455C63.0007 45.7455 63.0005 45.7455 63.0004 45.7455C63.0003 45.7455 63.0001 45.7455 63 45.7455C62.9999 45.7455 62.9997 45.7455 62.9996 45.7455C62.9995 45.7455 62.9993 45.7455 62.9992 45.7455C62.9991 45.7455 62.999 45.7455 62.9988 45.7455C62.9987 45.7455 62.9986 45.7455 62.9984 45.7455C62.9983 45.7455 62.9982 45.7455 62.998 45.7455C62.9979 45.7455 62.9978 45.7455 62.9977 45.7455C62.9975 45.7455 62.9974 45.7455 62.9973 45.7455C62.9971 45.7455 62.997 45.7455 62.9969 45.7455C62.9967 45.7455 62.9966 45.7455 62.9965 45.7455C62.9964 45.7455 62.9962 45.7455 62.9961 45.7455C62.996 45.7455 62.9958 45.7455 62.9957 45.7455C62.9956 45.7455 62.9954 45.7455 62.9953 45.7455C62.9952 45.7455 62.9951 45.7455 62.9949 45.7455C62.9948 45.7455 62.9947 45.7455 62.9945 45.7455C62.9944 45.7455 62.9943 45.7455 62.9941 45.7455C62.994 45.7455 62.9939 45.7455 62.9938 45.7455C62.9936 45.7455 62.9935 45.7455 62.9934 45.7455C62.9932 45.7455 62.9931 45.7455 62.993 45.7455C62.9928 45.7455 62.9927 45.7455 62.9926 45.7455C62.9924 45.7455 62.9923 45.7455 62.9922 45.7455C62.9921 45.7455 62.9919 45.7455 62.9918 45.7455C62.9917 45.7455 62.9915 45.7455 62.9914 45.7455C62.9913 45.7455 62.9911 45.7455 62.991 45.7455C62.9909 45.7455 62.9908 45.7455 62.9906 45.7455C62.9905 45.7455 62.9904 45.7455 62.9902 45.7455C62.9901 45.7455 62.99 45.7455 62.9898 45.7455C62.9897 45.7455 62.9896 45.7455 62.9895 45.7455C62.9893 45.7455 62.9892 45.7455 62.9891 45.7455C62.9889 45.7455 62.9888 45.7455 62.9887 45.7455C62.9885 45.7455 62.9884 45.7455 62.9883 45.7455C62.9882 45.7455 62.988 45.7455 62.9879 45.7455C62.9878 45.7455 62.9876 45.7455 62.9875 45.7455C62.9874 45.7455 62.9872 45.7455 62.9871 45.7455C62.987 45.7455 62.9868 45.7455 62.9867 45.7455C62.9866 45.7455 62.9865 45.7455 62.9863 45.7455C62.9862 45.7455 62.9861 45.7455 62.9859 45.7455C62.9858 45.7455 62.9857 45.7455 62.9855 45.7455C62.9854 45.7455 62.9853 45.7455 62.9852 45.7455C62.985 45.7455 62.9849 45.7455 62.9848 45.7455C62.9846 45.7455 62.9845 45.7455 62.9844 45.7455C62.9842 45.7455 62.9841 45.7455 62.984 45.7455C62.9839 45.7455 62.9837 45.7455 62.9836 45.7455C62.9835 45.7455 62.9833 45.7455 62.9832 45.7455C62.9831 45.7455 62.9829 45.7455 62.9828 45.7455C62.9827 45.7455 62.9826 45.7455 62.9824 45.7455C62.9823 45.7455 62.9822 45.7455 62.982 45.7455C62.9819 45.7455 62.9818 45.7455 62.9816 45.7455C62.9815 45.7455 62.9814 45.7455 62.9813 45.7455C62.9811 45.7455 62.981 45.7455 62.9809 45.7455C62.9807 45.7455 62.9806 45.7455 62.9805 45.7455C62.9803 45.7455 62.9802 45.7455 62.9801 45.7455C62.9799 45.7455 62.9798 45.7455 62.9797 45.7455C62.9796 45.7455 62.9794 45.7455 62.9793 45.7455C62.9792 45.7455 62.979 45.7455 62.9789 45.7455C62.9788 45.7455 62.9786 45.7455 62.9785 45.7455C62.9784 45.7455 62.9783 45.7455 62.9781 45.7455C62.978 45.7455 62.9779 45.7455 62.9777 45.7455C62.9776 45.7455 62.9775 45.7455 62.9773 45.7455C62.9772 45.7455 62.9771 45.7455 62.977 45.7455C62.9768 45.7455 62.9767 45.7455 62.9766 45.7455C62.9764 45.7455 62.9763 45.7455 62.9762 45.7455C62.976 45.7455 62.9759 45.7455 62.9758 45.7455C62.9757 45.7455 62.9755 45.7455 62.9754 45.7455C62.9753 45.7455 62.9751 45.7455 62.975 45.7455C62.9749 45.7455 62.9747 45.7455 62.9746 45.7455C62.9745 45.7455 62.9743 45.7455 62.9742 45.7455C62.9741 45.7455 62.974 45.7455 62.9738 45.7455C62.9737 45.7455 62.9736 45.7455 62.9734 45.7455C62.9733 45.7455 62.9732 45.7455 62.973 45.7455C62.9729 45.7455 62.9728 45.7455 62.9727 45.7455C62.9725 45.7455 62.9724 45.7455 62.9723 45.7455C62.9721 45.7455 62.972 45.7455 62.9719 45.7455C62.9717 45.7455 62.9716 45.7455 62.9715 45.7455C62.9714 45.7455 62.9712 45.7455 62.9711 45.7455C62.971 45.7455 62.9708 45.7455 62.9707 45.7455C62.9706 45.7455 62.9704 45.7455 62.9703 45.7455C62.9702 45.7455 62.9701 45.7455 62.9699 45.7455C62.9698 45.7455 62.9697 45.7455 62.9695 45.7455C62.9694 45.7455 62.9693 45.7455 62.9691 45.7455C62.969 45.7455 62.9689 45.7455 62.9688 45.7455C62.9686 45.7455 62.9685 45.7455 62.9684 45.7455C62.9682 45.7455 62.9681 45.7455 62.968 45.7455C62.9678 45.7455 62.9677 45.7455 62.9676 45.7455C62.9674 45.7455 62.9673 45.7455 62.9672 45.7455C62.9671 45.7455 62.9669 45.7455 62.9668 45.7455C62.9667 45.7455 62.9665 45.7455 62.9664 45.7455C62.9663 45.7455 62.9661 45.7455 62.966 45.7455C62.9659 45.7455 62.9658 45.7455 62.9656 45.7455C62.9655 45.7455 62.9654 45.7455 62.9652 45.7455C62.9651 45.7455 62.965 45.7455 62.9648 45.7455C62.9647 45.7455 62.9646 45.7455 62.9645 45.7455C62.9643 45.7455 62.9642 45.7455 62.9641 45.7455C62.9639 45.7455 62.9638 45.7455 62.9637 45.7455C62.9635 45.7455 62.9634 45.7455 62.9633 45.7455C62.9632 45.7455 62.963 45.7455 62.9629 45.7455C62.9628 45.7455 62.9626 45.7455 62.9625 45.7455C62.9624 45.7455 62.9622 45.7455 62.9621 45.7455C62.962 45.7455 62.9618 45.7455 62.9617 45.7455C62.9616 45.7455 62.9615 45.7455 62.9613 45.7455C62.9612 45.7455 62.9611 45.7455 62.9609 45.7455C62.9608 45.7455 62.9607 45.7455 62.9605 45.7455C62.9604 45.7455 62.9603 45.7455 62.9602 45.7455C62.96 45.7455 62.9599 45.7455 62.9598 45.7455C62.9596 45.7455 62.9595 45.7455 62.9594 45.7455C62.9592 45.7455 62.9591 45.7455 62.959 45.7455C62.9589 45.7455 62.9587 45.7455 62.9586 45.7455C62.9585 45.7455 62.9583 45.7455 62.9582 45.7455C62.9581 45.7455 62.9579 45.7455 62.9578 45.7455C62.9577 45.7455 62.9576 45.7455 62.9574 45.7455C62.9573 45.7455 62.9572 45.7455 62.957 45.7455C62.9569 45.7455 62.9568 45.7455 62.9566 45.7455C62.9565 45.7455 62.9564 45.7455 62.9563 45.7455C62.9561 45.7455 62.956 45.7455 62.9559 45.7455C62.9557 45.7455 62.9556 45.7455 62.9555 45.7455C62.9553 45.7455 62.9552 45.7455 62.9551 45.7455C62.9549 45.7455 62.9548 45.7455 62.9547 45.7455C62.9546 45.7455 62.9544 45.7455 62.9543 45.7455C62.9542 45.7455 62.954 45.7455 62.9539 45.7455C62.9538 45.7455 62.9536 45.7455 62.9535 45.7455C62.9534 45.7455 62.9533 45.7455 62.9531 45.7455C62.953 45.7455 62.9529 45.7455 62.9527 45.7455C62.9526 45.7455 62.9525 45.7455 62.9523 45.7455C62.9522 45.7455 62.9521 45.7455 62.952 45.7455C62.9518 45.7455 62.9517 45.7455 62.9516 45.7455C62.9514 45.7455 62.9513 45.7455 62.9512 45.7455C62.951 45.7455 62.9509 45.7455 62.9508 45.7455C62.9507 45.7455 62.9505 45.7455 62.9504 45.7455C62.9503 45.7455 62.9501 45.7455 62.95 45.7455V48.7455ZM62.7862 48.7007C62.9309 48.7369 63.1163 48.7705 63.325 48.7705V45.7705C63.3822 45.7705 63.4268 45.7752 63.4559 45.7793C63.4853 45.7835 63.5051 45.7881 63.5138 45.7903L62.7862 48.7007ZM63.3667 48.7699C64.0233 48.7517 64.6483 48.6966 65.2388 48.6014L64.7612 45.6396C64.3184 45.7111 63.8267 45.756 63.2833 45.7711L63.3667 48.7699ZM65.2316 48.6025C65.8879 48.5 66.5099 48.317 67.0688 48.0254L65.6812 45.3656C65.4734 45.474 65.1788 45.5744 64.7684 45.6385L65.2316 48.6025ZM67.0458 48.0371C67.6723 47.7239 68.1997 47.2669 68.5754 46.66L66.0246 45.081C65.967 45.1741 65.8777 45.2671 65.7042 45.3539L67.0458 48.0371ZM68.5288 46.7307C68.9756 46.0925 69.15 45.3569 69.15 44.6205H66.15C66.15 44.8841 66.0911 44.9818 66.0712 45.0103L68.5288 46.7307ZM69.15 44.6205C69.15 44.0081 69.0208 43.3993 68.7112 42.842L66.0888 44.299C66.1125 44.3417 66.15 44.4329 66.15 44.6205H69.15ZM68.7112 42.842C68.439 42.352 68.0689 41.932 67.5998 41.6094L65.9002 44.0816C65.9644 44.1257 66.0277 44.189 66.0888 44.299L68.7112 42.842ZM67.5998 41.6094C67.2076 41.3398 66.7812 41.1337 66.3267 40.9901L65.4233 43.8509C65.6021 43.9074 65.7591 43.9845 65.9002 44.0816L67.5998 41.6094ZM66.2567 40.9699C65.8268 40.8567 65.39 40.7955 64.95 40.7955V43.7955C65.11 43.7955 65.2899 43.8176 65.4933 43.8711L66.2567 40.9699ZM64.95 40.7955C63.8379 40.7955 62.7126 41.0616 61.8893 41.8848L64.0107 44.0062C64.0541 43.9628 64.2621 43.7955 64.95 43.7955V40.7955ZM61.8695 41.905C61.0443 42.762 60.8 43.9555 60.8 45.1205H63.8C63.8 44.2855 63.989 44.029 64.0305 43.986L61.8695 41.905ZM61.2293 46.3006C61.1243 46.0802 61.0355 45.8124 60.973 45.4872L58.027 46.0538C58.1311 46.5953 58.2923 47.1108 58.5207 47.5904L61.2293 46.3006ZM60.9812 45.5335C60.9224 45.1664 60.9 44.8915 60.9 44.6955H57.9C57.9 45.0995 57.9443 45.5413 58.0188 46.0075L60.9812 45.5335ZM60.9 44.6955C60.9 43.7195 61.0136 42.9605 61.2011 42.3855L58.3489 41.4555C58.0364 42.4138 57.9 43.5048 57.9 44.6955H60.9ZM61.1917 42.4133C61.4024 41.8076 61.6715 41.3655 61.9716 41.044L59.7784 38.997C59.1452 39.6755 58.6809 40.5001 58.3583 41.4277L61.1917 42.4133ZM61.9357 41.0812C62.2543 40.7625 62.6342 40.5228 63.0955 40.3613L62.1045 37.5297C61.2325 37.8349 60.4624 38.3118 59.8143 38.9598L61.9357 41.0812ZM63.0955 40.3613C63.5833 40.1906 64.1466 40.0955 64.8 40.0955V37.0955C63.8534 37.0955 62.95 37.2338 62.1045 37.5297L63.0955 40.3613ZM64.8 40.0955C65.3022 40.0955 65.836 40.1769 66.4065 40.3534L67.2935 37.4876C66.464 37.2308 65.6311 37.0955 64.8 37.0955V40.0955ZM66.3757 40.3435C66.891 40.5153 67.3552 40.7773 67.7766 41.1368L69.7234 38.8543C69.0115 38.247 68.209 37.7924 67.3243 37.4975L66.3757 40.3435ZM67.793 41.1505C68.203 41.4903 68.5521 41.9288 68.8334 42.4913L71.5166 41.1497C71.0646 40.2455 70.4636 39.4674 69.707 38.8405L67.793 41.1505ZM68.8393 42.5032C69.0913 42.9961 69.25 43.6505 69.25 44.5205H72.25C72.25 43.2905 72.0254 42.1449 71.5107 41.1378L68.8393 42.5032ZM69.25 44.5205C69.25 46.343 68.7007 47.4779 67.8041 48.2063L69.6959 50.5347C71.466 49.0965 72.25 46.998 72.25 44.5205H69.25ZM67.7883 48.2194C66.8396 49.012 65.3354 49.5205 63.05 49.5205V52.5205C65.7312 52.5205 68.0271 51.9291 69.7117 50.5216L67.7883 48.2194ZM63.05 49.5205C61.5462 49.5205 60.2762 49.3207 59.2163 48.9533L58.2337 51.7878C59.6738 52.287 61.2872 52.5205 63.05 52.5205V49.5205ZM59.1993 48.9475C58.1684 48.6039 57.3348 48.0742 56.6655 47.3656L54.4845 49.4254C55.5152 50.5168 56.7816 51.3038 58.2507 51.7935L59.1993 48.9475ZM56.6559 47.3554C55.9898 46.6633 55.4442 45.739 55.0514 44.5315L52.1986 45.4595C52.7058 47.0186 53.4602 48.3611 54.4941 49.4356L56.6559 47.3554ZM55.0564 44.5471C54.6785 43.3406 54.4657 41.8528 54.4499 40.0574L51.4501 40.0837C51.4676 42.0883 51.7049 43.8837 52.1936 45.4439L55.0564 44.5471ZM52.9969 41.5698C53.5467 41.5526 54.0811 41.5268 54.5998 41.4922L54.4002 38.4988C53.9189 38.5309 53.42 38.5551 52.9031 38.5712L52.9969 41.5698ZM54.5998 41.4922C55.0976 41.459 55.6122 41.4258 56.1436 41.3926L55.9564 38.3984C55.4212 38.4319 54.9024 38.4654 54.4002 38.4988L54.5998 41.4922ZM54.5502 39.9218C54.5678 40.9243 54.6384 41.8508 54.7671 42.6962L57.7329 42.2448C57.6282 41.5569 57.5655 40.7667 57.5498 39.8692L54.5502 39.9218ZM54.7722 42.7275C54.9249 43.6057 55.1704 44.4192 55.5257 45.1509L58.2243 43.8402C58.013 43.4051 57.8418 42.8687 57.7278 42.2135L54.7722 42.7275ZM55.5411 45.1815C55.9296 45.9369 56.4469 46.5909 57.0936 47.1261L59.0064 44.8149C58.6864 44.5502 58.4204 44.2207 58.2089 43.8095L55.5411 45.1815ZM57.0706 47.1066C57.7353 47.6797 58.5329 48.0926 59.4202 48.3749L60.3298 45.5161C59.7505 45.3318 59.3313 45.0947 59.0294 44.8344L57.0706 47.1066Z" fill="black" mask="url(#path-3-outside-1_44_568)"/>
</g>
</svg>
