<svg width="90" height="90" viewBox="0 0 90 90" fill="none" xmlns="http://www.w3.org/2000/svg">
<mask id="mask0_45_597" style="mask-type:alpha" maskUnits="userSpaceOnUse" x="0" y="0" width="90" height="90">
<rect width="90" height="90" fill="#D9D9D9"/>
</mask>
<g mask="url(#mask0_45_597)">
<path fill-rule="evenodd" clip-rule="evenodd" d="M76 67C78.7614 67 81 64.7614 81 62V28C81 25.2386 78.7614 23 76 23H19C16.2386 23 14 25.2386 14 28V45V62C14 64.7614 16.2386 67 19 67H76ZM32.6 52.8C31.9408 53.2944 31 52.824 31 52V38C31 37.176 31.9408 36.7056 32.6 37.2L41.9333 44.2C42.4667 44.6 42.4667 45.4 41.9333 45.8L32.6 52.8Z" fill="#D6592C"/>
<path d="M32.6 37.2C31.9408 36.7056 31 37.176 31 38V52C31 52.824 31.9408 53.2944 32.6 52.8L41.9333 45.8C42.4667 45.4 42.4667 44.6 41.9333 44.2L32.6 37.2Z" fill="white"/>
<path fill-rule="evenodd" clip-rule="evenodd" d="M76 67C78.7614 67 81 64.7614 81 62V28C81 25.2386 78.7614 23 76 23H19C16.2386 23 14 25.2386 14 28V45V62C14 64.7614 16.2386 67 19 67H76ZM32.6 52.8C31.9408 53.2944 31 52.824 31 52V38C31 37.176 31.9408 36.7056 32.6 37.2L41.9333 44.2C42.4667 44.6 42.4667 45.4 41.9333 45.8L32.6 52.8Z" stroke="black" stroke-width="1.5"/>
<path d="M32.6 37.2C31.9408 36.7056 31 37.176 31 38V52C31 52.824 31.9408 53.2944 32.6 52.8L41.9333 45.8C42.4667 45.4 42.4667 44.6 41.9333 44.2L32.6 37.2Z" stroke="black" stroke-width="1.5"/>
<mask id="path-3-outside-1_45_597" maskUnits="userSpaceOnUse" x="51" y="30" width="21" height="28" fill="black">
<rect fill="white" x="51" y="30" width="21" height="28"/>
<path d="M53 39.1739C54.45 38.4906 55.9583 37.8156 57.525 37.1489C59.0917 36.4823 60.6417 35.8489 62.175 35.2489C63.7083 34.6489 65.175 34.0906 66.575 33.5739C67.975 33.0739 69.225 32.6406 70.325 32.2739V36.5739C69.325 36.9073 68.2417 37.2656 67.075 37.6489C65.925 38.0489 64.775 38.4489 63.625 38.8489C62.475 39.2656 61.375 39.6656 60.325 40.0489C59.275 40.4323 58.3667 40.7906 57.6 41.1239C58.3667 41.4406 59.275 41.7906 60.325 42.1739C61.375 42.5739 62.475 42.9739 63.625 43.3739C64.775 43.7906 65.925 44.1906 67.075 44.5739C68.2417 44.9739 69.325 45.3406 70.325 45.6739V49.8239C69.225 49.4406 67.975 48.9989 66.575 48.4989C65.175 47.9989 63.7083 47.4489 62.175 46.8489C60.6417 46.2489 59.0917 45.6156 57.525 44.9489C55.9583 44.2823 54.45 43.6073 53 42.9239V39.1739ZM70.325 52.0659V55.9659H53V52.0659H70.325Z"/>
</mask>
<path d="M53 39.1739C54.45 38.4906 55.9583 37.8156 57.525 37.1489C59.0917 36.4823 60.6417 35.8489 62.175 35.2489C63.7083 34.6489 65.175 34.0906 66.575 33.5739C67.975 33.0739 69.225 32.6406 70.325 32.2739V36.5739C69.325 36.9073 68.2417 37.2656 67.075 37.6489C65.925 38.0489 64.775 38.4489 63.625 38.8489C62.475 39.2656 61.375 39.6656 60.325 40.0489C59.275 40.4323 58.3667 40.7906 57.6 41.1239C58.3667 41.4406 59.275 41.7906 60.325 42.1739C61.375 42.5739 62.475 42.9739 63.625 43.3739C64.775 43.7906 65.925 44.1906 67.075 44.5739C68.2417 44.9739 69.325 45.3406 70.325 45.6739V49.8239C69.225 49.4406 67.975 48.9989 66.575 48.4989C65.175 47.9989 63.7083 47.4489 62.175 46.8489C60.6417 46.2489 59.0917 45.6156 57.525 44.9489C55.9583 44.2823 54.45 43.6073 53 42.9239V39.1739ZM70.325 52.0659V55.9659H53V52.0659H70.325Z" fill="white"/>
<path d="M53 39.1739L52.3606 37.8171L51.5 38.2226V39.1739H53ZM57.525 37.1489L58.1123 38.5292V38.5292L57.525 37.1489ZM62.175 35.2489L62.7216 36.6458L62.175 35.2489ZM66.575 33.5739L66.0705 32.1613L66.0631 32.164L66.0557 32.1667L66.575 33.5739ZM70.325 32.2739H71.825V30.1928L69.8507 30.8509L70.325 32.2739ZM70.325 36.5739L70.7993 37.997L71.825 37.6551V36.5739H70.325ZM67.075 37.6489L66.6068 36.2239L66.5945 36.2279L66.5822 36.2322L67.075 37.6489ZM63.625 38.8489L63.1322 37.4322L63.1231 37.4354L63.114 37.4386L63.625 38.8489ZM60.325 40.0489L60.8394 41.458L60.325 40.0489ZM57.6 41.1239L57.0019 39.7483L53.7566 41.1593L57.0274 42.5103L57.6 41.1239ZM60.325 42.1739L60.859 40.7722L60.8492 40.7685L60.8394 40.7649L60.325 42.1739ZM63.625 43.3739L64.136 41.9636L64.1269 41.9604L64.1178 41.9572L63.625 43.3739ZM67.075 44.5739L67.5615 43.155L67.5493 43.1509L67.075 44.5739ZM70.325 45.6739H71.825V44.5928L70.7993 44.2509L70.325 45.6739ZM70.325 49.8239L69.8314 51.2404L71.825 51.9351V49.8239H70.325ZM66.575 48.4989L66.0705 49.9115L66.575 48.4989ZM62.175 46.8489L61.6284 48.2458L61.6284 48.2458L62.175 46.8489ZM57.525 44.9489L58.1123 43.5687L57.525 44.9489ZM53 42.9239H51.5V43.8753L52.3606 44.2808L53 42.9239ZM53.6394 40.5308C55.0712 39.8561 56.5621 39.1888 58.1123 38.5292L56.9377 35.7687C55.3546 36.4424 53.8288 37.1251 52.3606 37.8171L53.6394 40.5308ZM58.1123 38.5292C59.666 37.868 61.2024 37.2403 62.7216 36.6458L61.6284 33.8521C60.081 34.4576 58.5174 35.0965 56.9377 35.7687L58.1123 38.5292ZM62.7216 36.6458C64.2468 36.049 65.7043 35.4941 67.0943 34.9812L66.0557 32.1667C64.6457 32.6871 63.1699 33.2489 61.6284 33.8521L62.7216 36.6458ZM67.0795 34.9865C68.4721 34.4892 69.7118 34.0595 70.7993 33.697L69.8507 30.8509C68.7382 31.2217 67.4779 31.6587 66.0705 32.1613L67.0795 34.9865ZM68.825 32.2739V36.5739H71.825V32.2739H68.825ZM69.8507 35.1509C68.853 35.4835 67.7717 35.8411 66.6068 36.2239L67.5432 39.074C68.7116 38.6901 69.797 38.3311 70.7993 37.997L69.8507 35.1509ZM66.5822 36.2322C65.4322 36.6322 64.2822 37.0322 63.1322 37.4322L64.1178 40.2657C65.2678 39.8657 66.4178 39.4657 67.5678 39.0657L66.5822 36.2322ZM63.114 37.4386C61.963 37.8557 60.8618 38.2561 59.8106 38.6399L60.8394 41.458C61.8882 41.0751 62.987 40.6755 64.136 40.2592L63.114 37.4386ZM59.8106 38.6399C58.7411 39.0303 57.8035 39.3998 57.0019 39.7483L58.1981 42.4995C58.9298 42.1814 59.8089 41.8342 60.8394 41.458L59.8106 38.6399ZM57.0274 42.5103C57.8186 42.8371 58.7472 43.1948 59.8106 43.583L60.8394 40.7649C59.8028 40.3864 58.9148 40.0441 58.1726 39.7375L57.0274 42.5103ZM59.791 43.5757C60.8557 43.9813 61.9695 44.3863 63.1322 44.7907L64.1178 41.9572C62.9805 41.5616 61.8943 41.1666 60.859 40.7722L59.791 43.5757ZM63.114 44.7842C64.2761 45.2052 65.4383 45.6095 66.6007 45.997L67.5493 43.1509C66.4117 42.7717 65.2739 42.3759 64.136 41.9636L63.114 44.7842ZM66.5885 45.9928C67.7586 46.394 68.846 46.7621 69.8507 47.097L70.7993 44.2509C69.804 43.9191 68.7248 43.5538 67.5615 43.155L66.5885 45.9928ZM68.825 45.6739V49.8239H71.825V45.6739H68.825ZM70.8186 48.4075C69.7231 48.0257 68.4768 47.5854 67.0795 47.0863L66.0705 49.9115C67.4732 50.4125 68.7269 50.8555 69.8314 51.2404L70.8186 48.4075ZM67.0795 47.0863C65.695 46.5919 64.2424 46.0472 62.7216 45.4521L61.6284 48.2458C63.1742 48.8507 64.655 49.406 66.0705 49.9115L67.0795 47.0863ZM62.7216 45.4521C61.2024 44.8576 59.666 44.2298 58.1123 43.5687L56.9377 46.3292C58.5174 47.0014 60.081 47.6403 61.6284 48.2458L62.7216 45.4521ZM58.1123 43.5687C56.5621 42.909 55.0712 42.2418 53.6394 41.5671L52.3606 44.2808C53.8288 44.9727 55.3546 45.6555 56.9377 46.3292L58.1123 43.5687ZM54.5 42.9239V39.1739H51.5V42.9239H54.5ZM70.325 52.0659H71.825V50.5659H70.325V52.0659ZM70.325 55.9659V57.4659H71.825V55.9659H70.325ZM53 55.9659H51.5V57.4659H53V55.9659ZM53 52.0659V50.5659H51.5V52.0659H53ZM68.825 52.0659V55.9659H71.825V52.0659H68.825ZM70.325 54.4659H53V57.4659H70.325V54.4659ZM54.5 55.9659V52.0659H51.5V55.9659H54.5ZM53 53.5659H70.325V50.5659H53V53.5659Z" fill="black" mask="url(#path-3-outside-1_45_597)"/>
</g>
</svg>
