<svg width="90" height="90" viewBox="0 0 90 90" fill="none" xmlns="http://www.w3.org/2000/svg">
<mask id="mask0_45_593" style="mask-type:alpha" maskUnits="userSpaceOnUse" x="0" y="0" width="90" height="90">
<rect width="90" height="90" fill="#D9D9D9"/>
</mask>
<g mask="url(#mask0_45_593)">
<path fill-rule="evenodd" clip-rule="evenodd" d="M76 67C78.7614 67 81 64.7614 81 62V28C81 25.2386 78.7614 23 76 23H19C16.2386 23 14 25.2386 14 28V45V62C14 64.7614 16.2386 67 19 67H76ZM32.6 52.8C31.9408 53.2944 31 52.824 31 52V38C31 37.176 31.9408 36.7056 32.6 37.2L41.9333 44.2C42.4667 44.6 42.4667 45.4 41.9333 45.8L32.6 52.8Z" fill="#D6592C"/>
<path d="M32.6 37.2C31.9408 36.7056 31 37.176 31 38V52C31 52.824 31.9408 53.2944 32.6 52.8L41.9333 45.8C42.4667 45.4 42.4667 44.6 41.9333 44.2L32.6 37.2Z" fill="white"/>
<path fill-rule="evenodd" clip-rule="evenodd" d="M76 67C78.7614 67 81 64.7614 81 62V28C81 25.2386 78.7614 23 76 23H19C16.2386 23 14 25.2386 14 28V45V62C14 64.7614 16.2386 67 19 67H76ZM32.6 52.8C31.9408 53.2944 31 52.824 31 52V38C31 37.176 31.9408 36.7056 32.6 37.2L41.9333 44.2C42.4667 44.6 42.4667 45.4 41.9333 45.8L32.6 52.8Z" stroke="black" stroke-width="1.5"/>
<path d="M32.6 37.2C31.9408 36.7056 31 37.176 31 38V52C31 52.824 31.9408 53.2944 32.6 52.8L41.9333 45.8C42.4667 45.4 42.4667 44.6 41.9333 44.2L32.6 37.2Z" stroke="black" stroke-width="1.5"/>
<mask id="path-3-outside-1_45_593" maskUnits="userSpaceOnUse" x="51" y="34" width="21" height="22" fill="black">
<rect fill="white" x="51" y="34" width="21" height="22"/>
<path d="M53 43.129C54.45 42.4457 55.9583 41.7707 57.525 41.104C59.0917 40.4373 60.6417 39.804 62.175 39.204C63.7083 38.604 65.175 38.0457 66.575 37.529C67.975 37.029 69.225 36.5957 70.325 36.229V40.529C69.325 40.8623 68.2417 41.2207 67.075 41.604C65.925 42.004 64.775 42.404 63.625 42.804C62.475 43.2207 61.375 43.6207 60.325 44.004C59.275 44.3873 58.3667 44.7457 57.6 45.079C58.3667 45.3957 59.275 45.7457 60.325 46.129C61.375 46.529 62.475 46.929 63.625 47.329C64.775 47.7457 65.925 48.1457 67.075 48.529C68.2417 48.929 69.325 49.2957 70.325 49.629V53.779C69.225 53.3957 67.975 52.954 66.575 52.454C65.175 51.954 63.7083 51.404 62.175 50.804C60.6417 50.204 59.0917 49.5707 57.525 48.904C55.9583 48.2373 54.45 47.5623 53 46.879V43.129Z"/>
</mask>
<path d="M53 43.129C54.45 42.4457 55.9583 41.7707 57.525 41.104C59.0917 40.4373 60.6417 39.804 62.175 39.204C63.7083 38.604 65.175 38.0457 66.575 37.529C67.975 37.029 69.225 36.5957 70.325 36.229V40.529C69.325 40.8623 68.2417 41.2207 67.075 41.604C65.925 42.004 64.775 42.404 63.625 42.804C62.475 43.2207 61.375 43.6207 60.325 44.004C59.275 44.3873 58.3667 44.7457 57.6 45.079C58.3667 45.3957 59.275 45.7457 60.325 46.129C61.375 46.529 62.475 46.929 63.625 47.329C64.775 47.7457 65.925 48.1457 67.075 48.529C68.2417 48.929 69.325 49.2957 70.325 49.629V53.779C69.225 53.3957 67.975 52.954 66.575 52.454C65.175 51.954 63.7083 51.404 62.175 50.804C60.6417 50.204 59.0917 49.5707 57.525 48.904C55.9583 48.2373 54.45 47.5623 53 46.879V43.129Z" fill="white"/>
<path d="M53 43.129L52.3606 41.7721L51.5 42.1777V43.129H53ZM57.525 41.104L58.1123 42.4842V42.4842L57.525 41.104ZM62.175 39.204L62.7216 40.6009L62.175 39.204ZM66.575 37.529L66.0705 36.1164L66.0631 36.119L66.0557 36.1218L66.575 37.529ZM70.325 36.229H71.825V34.1479L69.8507 34.806L70.325 36.229ZM70.325 40.529L70.7993 41.952L71.825 41.6101V40.529H70.325ZM67.075 41.604L66.6068 40.179L66.5945 40.183L66.5822 40.1873L67.075 41.604ZM63.625 42.804L63.1322 41.3873L63.1231 41.3904L63.114 41.3937L63.625 42.804ZM60.325 44.004L60.8394 45.413L60.325 44.004ZM57.6 45.079L57.0019 43.7034L53.7566 45.1144L57.0274 46.4654L57.6 45.079ZM60.325 46.129L60.859 44.7273L60.8492 44.7236L60.8394 44.72L60.325 46.129ZM63.625 47.329L64.136 45.9187L64.1269 45.9154L64.1178 45.9123L63.625 47.329ZM67.075 48.529L67.5615 47.11L67.5493 47.106L67.075 48.529ZM70.325 49.629H71.825V48.5479L70.7993 48.206L70.325 49.629ZM70.325 53.779L69.8314 55.1955L71.825 55.8902V53.779H70.325ZM66.575 52.454L66.0705 53.8666L66.575 52.454ZM62.175 50.804L61.6284 52.2009L61.6284 52.2009L62.175 50.804ZM57.525 48.904L58.1123 47.5238L57.525 48.904ZM53 46.879H51.5V47.8303L52.3606 48.2359L53 46.879ZM53.6394 44.4859C55.0712 43.8111 56.5621 43.1439 58.1123 42.4842L56.9377 39.7238C55.3546 40.3974 53.8288 41.0802 52.3606 41.7721L53.6394 44.4859ZM58.1123 42.4842C59.666 41.8231 61.2024 41.1953 62.7216 40.6009L61.6284 37.8071C60.081 38.4127 58.5174 39.0516 56.9377 39.7238L58.1123 42.4842ZM62.7216 40.6009C64.2468 40.0041 65.7043 39.4492 67.0943 38.9362L66.0557 36.1218C64.6457 36.6421 63.1699 37.204 61.6284 37.8071L62.7216 40.6009ZM67.0795 38.9416C68.4721 38.4443 69.7118 38.0146 70.7993 37.652L69.8507 34.806C68.7382 35.1768 67.4779 35.6138 66.0705 36.1164L67.0795 38.9416ZM68.825 36.229V40.529H71.825V36.229H68.825ZM69.8507 39.106C68.853 39.4385 67.7717 39.7962 66.6068 40.179L67.5432 43.0291C68.7116 42.6452 69.797 42.2861 70.7993 41.952L69.8507 39.106ZM66.5822 40.1873C65.4322 40.5873 64.2822 40.9873 63.1322 41.3873L64.1178 44.2207C65.2678 43.8207 66.4178 43.4207 67.5678 43.0207L66.5822 40.1873ZM63.114 41.3937C61.963 41.8108 60.8618 42.2112 59.8106 42.595L60.8394 45.413C61.8882 45.0302 62.987 44.6306 64.136 44.2143L63.114 41.3937ZM59.8106 42.595C58.7411 42.9854 57.8035 43.3549 57.0019 43.7034L58.1981 46.4546C58.9298 46.1365 59.8089 45.7893 60.8394 45.413L59.8106 42.595ZM57.0274 46.4654C57.8186 46.7922 58.7472 47.1498 59.8106 47.538L60.8394 44.72C59.8028 44.3415 58.9148 43.9991 58.1726 43.6926L57.0274 46.4654ZM59.791 47.5307C60.8557 47.9363 61.9695 48.3413 63.1322 48.7458L64.1178 45.9123C62.9805 45.5167 61.8943 45.1217 60.859 44.7273L59.791 47.5307ZM63.114 48.7393C64.2761 49.1603 65.4383 49.5646 66.6007 49.952L67.5493 47.106C66.4117 46.7268 65.2739 46.331 64.136 45.9187L63.114 48.7393ZM66.5885 49.9479C67.7586 50.3491 68.846 50.7171 69.8507 51.052L70.7993 48.206C69.804 47.8742 68.7248 47.5089 67.5615 47.1101L66.5885 49.9479ZM68.825 49.629V53.779H71.825V49.629H68.825ZM70.8186 52.3625C69.7231 51.9808 68.4768 51.5404 67.0795 51.0414L66.0705 53.8666C67.4732 54.3676 68.7269 54.8106 69.8314 55.1955L70.8186 52.3625ZM67.0795 51.0414C65.695 50.5469 64.2424 50.0023 62.7216 49.4071L61.6284 52.2009C63.1742 52.8058 64.655 53.3611 66.0705 53.8666L67.0795 51.0414ZM62.7216 49.4071C61.2024 48.8127 59.666 48.1849 58.1123 47.5238L56.9377 50.2842C58.5174 50.9565 60.081 51.5953 61.6284 52.2009L62.7216 49.4071ZM58.1123 47.5238C56.5621 46.8641 55.0712 46.1969 53.6394 45.5221L52.3606 48.2359C53.8288 48.9278 55.3546 49.6106 56.9377 50.2842L58.1123 47.5238ZM54.5 46.879V43.129H51.5V46.879H54.5Z" fill="black" mask="url(#path-3-outside-1_45_593)"/>
</g>
</svg>
