<svg width="90" height="90" viewBox="0 0 90 90" fill="none" xmlns="http://www.w3.org/2000/svg">
<mask id="mask0_45_605" style="mask-type:alpha" maskUnits="userSpaceOnUse" x="0" y="0" width="90" height="90">
<rect width="90" height="90" fill="#D9D9D9"/>
</mask>
<g mask="url(#mask0_45_605)">
<path fill-rule="evenodd" clip-rule="evenodd" d="M76 67C78.7614 67 81 64.7614 81 62V28C81 25.2386 78.7614 23 76 23H19C16.2386 23 14 25.2386 14 28V45V62C14 64.7614 16.2386 67 19 67H76ZM32.6 52.8C31.9408 53.2944 31 52.824 31 52V38C31 37.176 31.9408 36.7056 32.6 37.2L41.9333 44.2C42.4667 44.6 42.4667 45.4 41.9333 45.8L32.6 52.8Z" fill="#D6592C"/>
<path d="M32.6 37.2C31.9408 36.7056 31 37.176 31 38V52C31 52.824 31.9408 53.2944 32.6 52.8L41.9333 45.8C42.4667 45.4 42.4667 44.6 41.9333 44.2L32.6 37.2Z" fill="white"/>
<path fill-rule="evenodd" clip-rule="evenodd" d="M76 67C78.7614 67 81 64.7614 81 62V28C81 25.2386 78.7614 23 76 23H19C16.2386 23 14 25.2386 14 28V45V62C14 64.7614 16.2386 67 19 67H76ZM32.6 52.8C31.9408 53.2944 31 52.824 31 52V38C31 37.176 31.9408 36.7056 32.6 37.2L41.9333 44.2C42.4667 44.6 42.4667 45.4 41.9333 45.8L32.6 52.8Z" stroke="black" stroke-width="1.5"/>
<path d="M32.6 37.2C31.9408 36.7056 31 37.176 31 38V52C31 52.824 31.9408 53.2944 32.6 52.8L41.9333 45.8C42.4667 45.4 42.4667 44.6 41.9333 44.2L32.6 37.2Z" stroke="black" stroke-width="1.5"/>
<mask id="path-3-outside-1_45_605" maskUnits="userSpaceOnUse" x="51" y="22" width="21" height="44" fill="black">
<rect fill="white" x="51" y="22" width="21" height="44"/>
<path d="M53 31.2638C54.45 30.5804 55.9583 29.9054 57.525 29.2388C59.0917 28.5721 60.6417 27.9388 62.175 27.3388C63.7083 26.7388 65.175 26.1804 66.575 25.6638C67.975 25.1638 69.225 24.7304 70.325 24.3638V28.6638C69.325 28.9971 68.2417 29.3554 67.075 29.7388C65.925 30.1388 64.775 30.5388 63.625 30.9388C62.475 31.3554 61.375 31.7554 60.325 32.1388C59.275 32.5221 58.3667 32.8804 57.6 33.2138C58.3667 33.5304 59.275 33.8804 60.325 34.2638C61.375 34.6638 62.475 35.0638 63.625 35.4638C64.775 35.8804 65.925 36.2804 67.075 36.6638C68.2417 37.0638 69.325 37.4304 70.325 37.7638V41.9138C69.225 41.5304 67.975 41.0888 66.575 40.5888C65.175 40.0888 63.7083 39.5388 62.175 38.9388C60.6417 38.3388 59.0917 37.7054 57.525 37.0388C55.9583 36.3721 54.45 35.6971 53 35.0138V31.2638ZM70.325 44.1558V48.0558H53V44.1558H70.325ZM70.325 52.0659V55.9659H53V52.0659H70.325ZM70.325 59.9761V63.8761H53V59.9761H70.325Z"/>
</mask>
<path d="M53 31.2638C54.45 30.5804 55.9583 29.9054 57.525 29.2388C59.0917 28.5721 60.6417 27.9388 62.175 27.3388C63.7083 26.7388 65.175 26.1804 66.575 25.6638C67.975 25.1638 69.225 24.7304 70.325 24.3638V28.6638C69.325 28.9971 68.2417 29.3554 67.075 29.7388C65.925 30.1388 64.775 30.5388 63.625 30.9388C62.475 31.3554 61.375 31.7554 60.325 32.1388C59.275 32.5221 58.3667 32.8804 57.6 33.2138C58.3667 33.5304 59.275 33.8804 60.325 34.2638C61.375 34.6638 62.475 35.0638 63.625 35.4638C64.775 35.8804 65.925 36.2804 67.075 36.6638C68.2417 37.0638 69.325 37.4304 70.325 37.7638V41.9138C69.225 41.5304 67.975 41.0888 66.575 40.5888C65.175 40.0888 63.7083 39.5388 62.175 38.9388C60.6417 38.3388 59.0917 37.7054 57.525 37.0388C55.9583 36.3721 54.45 35.6971 53 35.0138V31.2638ZM70.325 44.1558V48.0558H53V44.1558H70.325ZM70.325 52.0659V55.9659H53V52.0659H70.325ZM70.325 59.9761V63.8761H53V59.9761H70.325Z" fill="white"/>
<path d="M53 31.2638L52.3606 29.9069L51.5 30.3124V31.2638H53ZM57.525 29.2388L58.1123 30.619L57.525 29.2388ZM62.175 27.3388L62.7216 28.7356L62.175 27.3388ZM66.575 25.6638L66.0705 24.2512L66.0631 24.2538L66.0557 24.2565L66.575 25.6638ZM70.325 24.3638H71.825V22.2826L69.8507 22.9407L70.325 24.3638ZM70.325 28.6638L70.7993 30.0868L71.825 29.7449V28.6638H70.325ZM67.075 29.7388L66.6068 28.3137L66.5945 28.3178L66.5822 28.322L67.075 29.7388ZM63.625 30.9388L63.1322 29.522L63.1231 29.5252L63.114 29.5285L63.625 30.9388ZM60.325 32.1388L60.8394 33.5478L60.325 32.1388ZM57.6 33.2138L57.0019 31.8382L53.7566 33.2492L57.0274 34.6002L57.6 33.2138ZM60.325 34.2638L60.859 32.862L60.8492 32.8583L60.8394 32.8547L60.325 34.2638ZM63.625 35.4638L64.136 34.0535L64.1269 34.0502L64.1178 34.047L63.625 35.4638ZM67.075 36.6638L67.5615 35.2448L67.5493 35.2407L67.075 36.6638ZM70.325 37.7638H71.825V36.6826L70.7993 36.3407L70.325 37.7638ZM70.325 41.9138L69.8314 43.3302L71.825 44.025V41.9138H70.325ZM66.575 40.5888L66.0705 42.0014L66.575 40.5888ZM62.175 38.9388L61.6284 40.3356L61.6284 40.3356L62.175 38.9388ZM57.525 37.0388L58.1123 35.6585L57.525 37.0388ZM53 35.0138H51.5V35.9651L52.3606 36.3706L53 35.0138ZM53.6394 32.6206C55.0712 31.9459 56.5621 31.2787 58.1123 30.619L56.9377 27.8585C55.3546 28.5322 53.8288 29.215 52.3606 29.9069L53.6394 32.6206ZM58.1123 30.619C59.666 29.9579 61.2024 29.3301 62.7216 28.7356L61.6284 25.9419C60.081 26.5474 58.5174 27.1863 56.9377 27.8585L58.1123 30.619ZM62.7216 28.7356C64.2468 28.1388 65.7043 27.584 67.0943 27.071L66.0557 24.2565C64.6457 24.7769 63.1699 25.3387 61.6284 25.9419L62.7216 28.7356ZM67.0795 27.0764C68.4721 26.579 69.7118 26.1493 70.7993 25.7868L69.8507 22.9407C68.7382 23.3116 67.4779 23.7485 66.0705 24.2512L67.0795 27.0764ZM68.825 24.3638V28.6638H71.825V24.3638H68.825ZM69.8507 27.2407C68.853 27.5733 67.7717 27.931 66.6068 28.3137L67.5432 31.1638C68.7116 30.7799 69.797 30.4209 70.7993 30.0868L69.8507 27.2407ZM66.5822 28.322C65.4322 28.722 64.2822 29.122 63.1322 29.522L64.1178 32.3555C65.2678 31.9555 66.4178 31.5555 67.5678 31.1555L66.5822 28.322ZM63.114 29.5285C61.963 29.9455 60.8618 30.3459 59.8106 30.7297L60.8394 33.5478C61.8882 33.1649 62.987 32.7653 64.136 32.3491L63.114 29.5285ZM59.8106 30.7297C58.7411 31.1202 57.8035 31.4896 57.0019 31.8382L58.1981 34.5894C58.9298 34.2712 59.8089 33.924 60.8394 33.5478L59.8106 30.7297ZM57.0274 34.6002C57.8186 34.927 58.7472 35.2846 59.8106 35.6728L60.8394 32.8547C59.8028 32.4763 58.9148 32.1339 58.1726 31.8274L57.0274 34.6002ZM59.791 35.6655C60.8557 36.0711 61.9695 36.4761 63.1322 36.8805L64.1178 34.047C62.9805 33.6514 61.8943 33.2564 60.859 32.862L59.791 35.6655ZM63.114 36.8741C64.2761 37.2951 65.4383 37.6993 66.6007 38.0868L67.5493 35.2407C66.4117 34.8615 65.2739 34.4658 64.136 34.0535L63.114 36.8741ZM66.5885 38.0827C67.7586 38.4838 68.846 38.8519 69.8507 39.1868L70.7993 36.3407C69.804 36.009 68.7248 35.6437 67.5615 35.2449L66.5885 38.0827ZM68.825 37.7638V41.9138H71.825V37.7638H68.825ZM70.8186 40.4973C69.7231 40.1155 68.4768 39.6752 67.0795 39.1762L66.0705 42.0014C67.4732 42.5023 68.7269 42.9453 69.8314 43.3302L70.8186 40.4973ZM67.0795 39.1762C65.695 38.6817 64.2424 38.137 62.7216 37.5419L61.6284 40.3356C63.1742 40.9405 64.655 41.4958 66.0705 42.0014L67.0795 39.1762ZM62.7216 37.5419C61.2024 36.9474 59.666 36.3197 58.1123 35.6585L56.9377 38.419C58.5174 39.0912 60.081 39.7301 61.6284 40.3356L62.7216 37.5419ZM58.1123 35.6585C56.5621 34.9989 55.0712 34.3316 53.6394 33.6569L52.3606 36.3706C53.8288 37.0626 55.3546 37.7453 56.9377 38.419L58.1123 35.6585ZM54.5 35.0138V31.2638H51.5V35.0138H54.5ZM70.325 44.1558H71.825V42.6558H70.325V44.1558ZM70.325 48.0558V49.5558H71.825V48.0558H70.325ZM53 48.0558H51.5V49.5558H53V48.0558ZM53 44.1558V42.6558H51.5V44.1558H53ZM68.825 44.1558V48.0558H71.825V44.1558H68.825ZM70.325 46.5558H53V49.5558H70.325V46.5558ZM54.5 48.0558V44.1558H51.5V48.0558H54.5ZM53 45.6558H70.325V42.6558H53V45.6558ZM70.325 52.0659H71.825V50.5659H70.325V52.0659ZM70.325 55.9659V57.4659H71.825V55.9659H70.325ZM53 55.9659H51.5V57.4659H53V55.9659ZM53 52.0659V50.5659H51.5V52.0659H53ZM68.825 52.0659V55.9659H71.825V52.0659H68.825ZM70.325 54.4659H53V57.4659H70.325V54.4659ZM54.5 55.9659V52.0659H51.5V55.9659H54.5ZM53 53.5659H70.325V50.5659H53V53.5659ZM70.325 59.9761H71.825V58.4761H70.325V59.9761ZM70.325 63.8761V65.3761H71.825V63.8761H70.325ZM53 63.8761H51.5V65.3761H53V63.8761ZM53 59.9761V58.4761H51.5V59.9761H53ZM68.825 59.9761V63.8761H71.825V59.9761H68.825ZM70.325 62.3761H53V65.3761H70.325V62.3761ZM54.5 63.8761V59.9761H51.5V63.8761H54.5ZM53 61.4761H70.325V58.4761H53V61.4761Z" fill="black" mask="url(#path-3-outside-1_45_605)"/>
</g>
</svg>
