<svg width="90" height="90" viewBox="0 0 90 90" fill="none" xmlns="http://www.w3.org/2000/svg">
<mask id="mask0_45_585" style="mask-type:alpha" maskUnits="userSpaceOnUse" x="0" y="0" width="90" height="90">
<rect width="90" height="90" fill="#D9D9D9"/>
</mask>
<g mask="url(#mask0_45_585)">
<path fill-rule="evenodd" clip-rule="evenodd" d="M76 67C78.7614 67 81 64.7614 81 62V28C81 25.2386 78.7614 23 76 23H19C16.2386 23 14 25.2386 14 28V45V62C14 64.7614 16.2386 67 19 67H76ZM32.6 52.8C31.9408 53.2944 31 52.824 31 52V38C31 37.176 31.9408 36.7056 32.6 37.2L41.9333 44.2C42.4667 44.6 42.4667 45.4 41.9333 45.8L32.6 52.8Z" fill="#D6592C"/>
<path d="M32.6 37.2C31.9408 36.7056 31 37.176 31 38V52C31 52.824 31.9408 53.2944 32.6 52.8L41.9333 45.8C42.4667 45.4 42.4667 44.6 41.9333 44.2L32.6 37.2Z" fill="white"/>
<path fill-rule="evenodd" clip-rule="evenodd" d="M76 67C78.7614 67 81 64.7614 81 62V28C81 25.2386 78.7614 23 76 23H19C16.2386 23 14 25.2386 14 28V45V62C14 64.7614 16.2386 67 19 67H76ZM32.6 52.8C31.9408 53.2944 31 52.824 31 52V38C31 37.176 31.9408 36.7056 32.6 37.2L41.9333 44.2C42.4667 44.6 42.4667 45.4 41.9333 45.8L32.6 52.8Z" stroke="black" stroke-width="1.5"/>
<path d="M32.6 37.2C31.9408 36.7056 31 37.176 31 38V52C31 52.824 31.9408 53.2944 32.6 52.8L41.9333 45.8C42.4667 45.4 42.4667 44.6 41.9333 44.2L32.6 37.2Z" stroke="black" stroke-width="1.5"/>
<mask id="path-3-outside-1_45_585" maskUnits="userSpaceOnUse" x="51" y="33" width="21" height="24" fill="black">
<rect fill="white" x="51" y="33" width="21" height="24"/>
<path d="M70.325 35.1348V39.0348H53V35.1348H70.325ZM70.325 43.0449V46.9449H53V43.0449H70.325ZM70.325 50.9551V54.8551H53V50.9551H70.325Z"/>
</mask>
<path d="M70.325 35.1348V39.0348H53V35.1348H70.325ZM70.325 43.0449V46.9449H53V43.0449H70.325ZM70.325 50.9551V54.8551H53V50.9551H70.325Z" fill="white"/>
<path d="M70.325 35.1348H71.825V33.6348H70.325V35.1348ZM70.325 39.0348V40.5348H71.825V39.0348H70.325ZM53 39.0348H51.5V40.5348H53V39.0348ZM53 35.1348V33.6348H51.5V35.1348H53ZM68.825 35.1348V39.0348H71.825V35.1348H68.825ZM70.325 37.5348H53V40.5348H70.325V37.5348ZM54.5 39.0348V35.1348H51.5V39.0348H54.5ZM53 36.6348H70.325V33.6348H53V36.6348ZM70.325 43.0449H71.825V41.5449H70.325V43.0449ZM70.325 46.9449V48.4449H71.825V46.9449H70.325ZM53 46.9449H51.5V48.4449H53V46.9449ZM53 43.0449V41.5449H51.5V43.0449H53ZM68.825 43.0449V46.9449H71.825V43.0449H68.825ZM70.325 45.4449H53V48.4449H70.325V45.4449ZM54.5 46.9449V43.0449H51.5V46.9449H54.5ZM53 44.5449H70.325V41.5449H53V44.5449ZM70.325 50.9551H71.825V49.4551H70.325V50.9551ZM70.325 54.8551V56.3551H71.825V54.8551H70.325ZM53 54.8551H51.5V56.3551H53V54.8551ZM53 50.9551V49.4551H51.5V50.9551H53ZM68.825 50.9551V54.8551H71.825V50.9551H68.825ZM70.325 53.3551H53V56.3551H70.325V53.3551ZM54.5 54.8551V50.9551H51.5V54.8551H54.5ZM53 52.4551H70.325V49.4551H53V52.4551Z" fill="black" mask="url(#path-3-outside-1_45_585)"/>
</g>
</svg>
