<svg width="90" height="90" viewBox="0 0 90 90" fill="none" xmlns="http://www.w3.org/2000/svg">
<mask id="mask0_45_601" style="mask-type:alpha" maskUnits="userSpaceOnUse" x="0" y="0" width="90" height="90">
<rect width="90" height="90" fill="#D9D9D9"/>
</mask>
<g mask="url(#mask0_45_601)">
<path fill-rule="evenodd" clip-rule="evenodd" d="M76 67C78.7614 67 81 64.7614 81 62V28C81 25.2386 78.7614 23 76 23H19C16.2386 23 14 25.2386 14 28V45V62C14 64.7614 16.2386 67 19 67H76ZM32.6 52.8C31.9408 53.2944 31 52.824 31 52V38C31 37.176 31.9408 36.7056 32.6 37.2L41.9333 44.2C42.4667 44.6 42.4667 45.4 41.9333 45.8L32.6 52.8Z" fill="#D6592C"/>
<path d="M32.6 37.2C31.9408 36.7056 31 37.176 31 38V52C31 52.824 31.9408 53.2944 32.6 52.8L41.9333 45.8C42.4667 45.4 42.4667 44.6 41.9333 44.2L32.6 37.2Z" fill="white"/>
<path fill-rule="evenodd" clip-rule="evenodd" d="M76 67C78.7614 67 81 64.7614 81 62V28C81 25.2386 78.7614 23 76 23H19C16.2386 23 14 25.2386 14 28V45V62C14 64.7614 16.2386 67 19 67H76ZM32.6 52.8C31.9408 53.2944 31 52.824 31 52V38C31 37.176 31.9408 36.7056 32.6 37.2L41.9333 44.2C42.4667 44.6 42.4667 45.4 41.9333 45.8L32.6 52.8Z" stroke="black" stroke-width="1.5"/>
<path d="M32.6 37.2C31.9408 36.7056 31 37.176 31 38V52C31 52.824 31.9408 53.2944 32.6 52.8L41.9333 45.8C42.4667 45.4 42.4667 44.6 41.9333 44.2L32.6 37.2Z" stroke="black" stroke-width="1.5"/>
<mask id="path-3-outside-1_45_601" maskUnits="userSpaceOnUse" x="51" y="26" width="21" height="36" fill="black">
<rect fill="white" x="51" y="26" width="21" height="36"/>
<path d="M53 35.2188C54.45 34.5355 55.9583 33.8605 57.525 33.1938C59.0917 32.5272 60.6417 31.8938 62.175 31.2938C63.7083 30.6938 65.175 30.1355 66.575 29.6188C67.975 29.1188 69.225 28.6855 70.325 28.3188V32.6188C69.325 32.9522 68.2417 33.3105 67.075 33.6938C65.925 34.0938 64.775 34.4938 63.625 34.8938C62.475 35.3105 61.375 35.7105 60.325 36.0938C59.275 36.4772 58.3667 36.8355 57.6 37.1688C58.3667 37.4855 59.275 37.8355 60.325 38.2188C61.375 38.6188 62.475 39.0188 63.625 39.4188C64.775 39.8355 65.925 40.2355 67.075 40.6188C68.2417 41.0188 69.325 41.3855 70.325 41.7188V45.8688C69.225 45.4855 67.975 45.0438 66.575 44.5438C65.175 44.0438 63.7083 43.4938 62.175 42.8938C60.6417 42.2938 59.0917 41.6605 57.525 40.9938C55.9583 40.3272 54.45 39.6522 53 38.9688V35.2188ZM70.325 48.1108V52.0108H53V48.1108H70.325ZM70.325 56.021V59.921H53V56.021H70.325Z"/>
</mask>
<path d="M53 35.2188C54.45 34.5355 55.9583 33.8605 57.525 33.1938C59.0917 32.5272 60.6417 31.8938 62.175 31.2938C63.7083 30.6938 65.175 30.1355 66.575 29.6188C67.975 29.1188 69.225 28.6855 70.325 28.3188V32.6188C69.325 32.9522 68.2417 33.3105 67.075 33.6938C65.925 34.0938 64.775 34.4938 63.625 34.8938C62.475 35.3105 61.375 35.7105 60.325 36.0938C59.275 36.4772 58.3667 36.8355 57.6 37.1688C58.3667 37.4855 59.275 37.8355 60.325 38.2188C61.375 38.6188 62.475 39.0188 63.625 39.4188C64.775 39.8355 65.925 40.2355 67.075 40.6188C68.2417 41.0188 69.325 41.3855 70.325 41.7188V45.8688C69.225 45.4855 67.975 45.0438 66.575 44.5438C65.175 44.0438 63.7083 43.4938 62.175 42.8938C60.6417 42.2938 59.0917 41.6605 57.525 40.9938C55.9583 40.3272 54.45 39.6522 53 38.9688V35.2188ZM70.325 48.1108V52.0108H53V48.1108H70.325ZM70.325 56.021V59.921H53V56.021H70.325Z" fill="white"/>
<path d="M53 35.2188L52.3606 33.862L51.5 34.2675V35.2188H53ZM57.525 33.1938L58.1123 34.5741V34.5741L57.525 33.1938ZM62.175 31.2938L62.7216 32.6907L62.175 31.2938ZM66.575 29.6188L66.0705 28.2062L66.0631 28.2089L66.0557 28.2116L66.575 29.6188ZM70.325 28.3188H71.825V26.2377L69.8507 26.8958L70.325 28.3188ZM70.325 32.6188L70.7993 34.0419L71.825 33.7V32.6188H70.325ZM67.075 33.6938L66.6068 32.2688L66.5945 32.2728L66.5822 32.2771L67.075 33.6938ZM63.625 34.8938L63.1322 33.4771L63.1231 33.4803L63.114 33.4836L63.625 34.8938ZM60.325 36.0938L60.8394 37.5029L60.325 36.0938ZM57.6 37.1688L57.0019 35.7932L53.7566 37.2043L57.0274 38.5552L57.6 37.1688ZM60.325 38.2188L60.859 36.8171L60.8492 36.8134L60.8394 36.8098L60.325 38.2188ZM63.625 39.4188L64.136 38.0086L64.1269 38.0053L64.1178 38.0021L63.625 39.4188ZM67.075 40.6188L67.5615 39.1999L67.5493 39.1958L67.075 40.6188ZM70.325 41.7188H71.825V40.6377L70.7993 40.2958L70.325 41.7188ZM70.325 45.8688L69.8314 47.2853L71.825 47.98V45.8688H70.325ZM66.575 44.5438L66.0705 45.9565L66.575 44.5438ZM62.175 42.8938L61.6284 44.2907L61.6284 44.2907L62.175 42.8938ZM57.525 40.9938L58.1123 39.6136L57.525 40.9938ZM53 38.9688H51.5V39.9202L52.3606 40.3257L53 38.9688ZM53.6394 36.5757C55.0712 35.901 56.5621 35.2337 58.1123 34.5741L56.9377 31.8136C55.3546 32.4873 53.8288 33.17 52.3606 33.862L53.6394 36.5757ZM58.1123 34.5741C59.666 33.913 61.2024 33.2852 62.7216 32.6907L61.6284 29.897C60.081 30.5025 58.5174 31.1414 56.9377 31.8136L58.1123 34.5741ZM62.7216 32.6907C64.2468 32.0939 65.7043 31.5391 67.0943 31.0261L66.0557 28.2116C64.6457 28.732 63.1699 29.2938 61.6284 29.897L62.7216 32.6907ZM67.0795 31.0315C68.4721 30.5341 69.7118 30.1044 70.7993 29.7419L69.8507 26.8958C68.7382 27.2666 67.4779 27.7036 66.0705 28.2062L67.0795 31.0315ZM68.825 28.3188V32.6188H71.825V28.3188H68.825ZM69.8507 31.1958C68.853 31.5284 67.7717 31.886 66.6068 32.2688L67.5432 35.1189C68.7116 34.735 69.797 34.376 70.7993 34.0419L69.8507 31.1958ZM66.5822 32.2771C65.4322 32.6771 64.2822 33.0771 63.1322 33.4771L64.1178 36.3106C65.2678 35.9106 66.4178 35.5106 67.5678 35.1106L66.5822 32.2771ZM63.114 33.4836C61.963 33.9006 60.8618 34.301 59.8106 34.6848L60.8394 37.5029C61.8882 37.12 62.987 36.7204 64.136 36.3041L63.114 33.4836ZM59.8106 34.6848C58.7411 35.0753 57.8035 35.4447 57.0019 35.7932L58.1981 38.5445C58.9298 38.2263 59.8089 37.8791 60.8394 37.5029L59.8106 34.6848ZM57.0274 38.5552C57.8186 38.882 58.7472 39.2397 59.8106 39.6279L60.8394 36.8098C59.8028 36.4313 58.9148 36.089 58.1726 35.7825L57.0274 38.5552ZM59.791 39.6206C60.8557 40.0262 61.9695 40.4312 63.1322 40.8356L64.1178 38.0021C62.9805 37.6065 61.8943 37.2115 60.859 36.8171L59.791 39.6206ZM63.114 40.8291C64.2761 41.2502 65.4383 41.6544 66.6007 42.0419L67.5493 39.1958C66.4117 38.8166 65.2739 38.4209 64.136 38.0086L63.114 40.8291ZM66.5885 42.0378C67.7586 42.4389 68.846 42.807 69.8507 43.1419L70.7993 40.2958C69.804 39.964 68.7248 39.5988 67.5615 39.1999L66.5885 42.0378ZM68.825 41.7188V45.8688H71.825V41.7188H68.825ZM70.8186 44.4524C69.7231 44.0706 68.4768 43.6303 67.0795 43.1312L66.0705 45.9565C67.4732 46.4574 68.7269 46.9004 69.8314 47.2853L70.8186 44.4524ZM67.0795 43.1312C65.695 42.6368 64.2424 42.0921 62.7216 41.497L61.6284 44.2907C63.1742 44.8956 64.655 45.4509 66.0705 45.9565L67.0795 43.1312ZM62.7216 41.497C61.2024 40.9025 59.666 40.2747 58.1123 39.6136L56.9377 42.3741C58.5174 43.0463 60.081 43.6852 61.6284 44.2907L62.7216 41.497ZM58.1123 39.6136C56.5621 38.9539 55.0712 38.2867 53.6394 37.612L52.3606 40.3257C53.8288 41.0177 55.3546 41.7004 56.9377 42.3741L58.1123 39.6136ZM54.5 38.9688V35.2188H51.5V38.9688H54.5ZM70.325 48.1108H71.825V46.6108H70.325V48.1108ZM70.325 52.0108V53.5108H71.825V52.0108H70.325ZM53 52.0108H51.5V53.5108H53V52.0108ZM53 48.1108V46.6108H51.5V48.1108H53ZM68.825 48.1108V52.0108H71.825V48.1108H68.825ZM70.325 50.5108H53V53.5108H70.325V50.5108ZM54.5 52.0108V48.1108H51.5V52.0108H54.5ZM53 49.6108H70.325V46.6108H53V49.6108ZM70.325 56.021H71.825V54.521H70.325V56.021ZM70.325 59.921V61.421H71.825V59.921H70.325ZM53 59.921H51.5V61.421H53V59.921ZM53 56.021V54.521H51.5V56.021H53ZM68.825 56.021V59.921H71.825V56.021H68.825ZM70.325 58.421H53V61.421H70.325V58.421ZM54.5 59.921V56.021H51.5V59.921H54.5ZM53 57.521H70.325V54.521H53V57.521Z" fill="black" mask="url(#path-3-outside-1_45_601)"/>
</g>
</svg>
