<svg width="90" height="90" viewBox="0 0 90 90" fill="none" xmlns="http://www.w3.org/2000/svg">
<mask id="mask0_8_116" style="mask-type:alpha" maskUnits="userSpaceOnUse" x="0" y="0" width="90" height="90">
<rect width="90" height="90" fill="#D9D9D9"/>
</mask>
<g mask="url(#mask0_8_116)">
<path fill-rule="evenodd" clip-rule="evenodd" d="M76 67C78.7614 67 81 64.7614 81 62V28C81 25.2386 78.7614 23 76 23H19C16.2386 23 14 25.2386 14 28V45V62C14 64.7614 16.2386 67 19 67H76ZM32.6 52.8C31.9408 53.2944 31 52.824 31 52V38C31 37.176 31.9408 36.7056 32.6 37.2L41.9333 44.2C42.4667 44.6 42.4667 45.4 41.9333 45.8L32.6 52.8Z" fill="#D6592C"/>
<path d="M32.6 37.2C31.9408 36.7056 31 37.176 31 38V52C31 52.824 31.9408 53.2944 32.6 52.8L41.9333 45.8C42.4667 45.4 42.4667 44.6 41.9333 44.2L32.6 37.2Z" fill="white"/>
<path fill-rule="evenodd" clip-rule="evenodd" d="M76 67C78.7614 67 81 64.7614 81 62V28C81 25.2386 78.7614 23 76 23H19C16.2386 23 14 25.2386 14 28V45V62C14 64.7614 16.2386 67 19 67H76ZM32.6 52.8C31.9408 53.2944 31 52.824 31 52V38C31 37.176 31.9408 36.7056 32.6 37.2L41.9333 44.2C42.4667 44.6 42.4667 45.4 41.9333 45.8L32.6 52.8Z" stroke="black" stroke-width="1.5"/>
<path d="M32.6 37.2C31.9408 36.7056 31 37.176 31 38V52C31 52.824 31.9408 53.2944 32.6 52.8L41.9333 45.8C42.4667 45.4 42.4667 44.6 41.9333 44.2L32.6 37.2Z" stroke="black" stroke-width="1.5"/>
<mask id="path-3-outside-1_8_116" maskUnits="userSpaceOnUse" x="51" y="37" width="21" height="13" fill="black">
<rect fill="white" x="51" y="37" width="21" height="13"/>
<path d="M66.725 39.6455C66.925 40.1288 67.15 40.6288 67.4 41.1455C67.6667 41.6788 67.95 42.1955 68.25 42.6955C68.5667 43.1955 68.8917 43.6705 69.225 44.1205C69.575 44.5872 69.9417 45.0038 70.325 45.3705V47.9705H53V44.2455H65.475C65.1417 43.7455 64.8333 43.1872 64.55 42.5705C64.2833 41.9538 64.05 41.3538 63.85 40.7705L66.725 39.6455Z"/>
</mask>
<path d="M66.725 39.6455C66.925 40.1288 67.15 40.6288 67.4 41.1455C67.6667 41.6788 67.95 42.1955 68.25 42.6955C68.5667 43.1955 68.8917 43.6705 69.225 44.1205C69.575 44.5872 69.9417 45.0038 70.325 45.3705V47.9705H53V44.2455H65.475C65.1417 43.7455 64.8333 43.1872 64.55 42.5705C64.2833 41.9538 64.05 41.3538 63.85 40.7705L66.725 39.6455Z" fill="white"/>
<path d="M66.725 39.6455L68.111 39.072L67.5485 37.7125L66.1784 38.2486L66.725 39.6455ZM67.4 41.1455L66.0498 41.7988L66.054 41.8076L66.0584 41.8163L67.4 41.1455ZM68.25 42.6955L66.9638 43.4673L66.9731 43.4828L66.9828 43.4981L68.25 42.6955ZM69.225 44.1205L68.0196 45.0134L68.025 45.0205L69.225 44.1205ZM70.325 45.3705H71.825V44.7296L71.3618 44.2865L70.325 45.3705ZM70.325 47.9705V49.4705H71.825V47.9705H70.325ZM53 47.9705H51.5V49.4705H53V47.9705ZM53 44.2455V42.7455H51.5V44.2455H53ZM65.475 44.2455V45.7455H68.2778L66.7231 43.4135L65.475 44.2455ZM64.55 42.5705L63.1732 43.1659L63.1799 43.1814L63.187 43.1968L64.55 42.5705ZM63.85 40.7705L63.3034 39.3736L61.9649 39.8974L62.4311 41.257L63.85 40.7705ZM65.339 40.219C65.5511 40.7318 65.7883 41.2584 66.0498 41.7988L68.7502 40.4922C68.5117 39.9993 68.2989 39.5259 68.111 39.072L65.339 40.219ZM66.0584 41.8163C66.3418 42.3832 66.6436 42.9336 66.9638 43.4673L69.5362 41.9238C69.2564 41.4574 68.9915 40.9745 68.7416 40.4747L66.0584 41.8163ZM66.9828 43.4981C67.3179 44.0272 67.6634 44.5324 68.0197 45.0134L70.4303 43.2277C70.1199 42.8086 69.8155 42.3638 69.5172 41.8929L66.9828 43.4981ZM68.025 45.0205C68.4194 45.5464 68.84 46.0258 69.2882 46.4545L71.3618 44.2865C71.0434 43.9819 70.7306 43.6279 70.425 43.2205L68.025 45.0205ZM68.825 45.3705V47.9705H71.825V45.3705H68.825ZM70.325 46.4705H53V49.4705H70.325V46.4705ZM54.5 47.9705V44.2455H51.5V47.9705H54.5ZM53 45.7455H65.475V42.7455H53V45.7455ZM66.7231 43.4135C66.4386 42.9867 66.1676 42.4984 65.913 41.9443L63.187 43.1968C63.499 43.8759 63.8448 44.5043 64.2269 45.0776L66.7231 43.4135ZM65.9268 41.9751C65.6742 41.3911 65.4552 40.8274 65.2689 40.284L62.4311 41.257C62.6448 41.8802 62.8924 42.5166 63.1732 43.1659L65.9268 41.9751ZM64.3966 42.1674L67.2716 41.0424L66.1784 38.2486L63.3034 39.3736L64.3966 42.1674Z" fill="black" mask="url(#path-3-outside-1_8_116)"/>
</g>
</svg>
