<svg width="90" height="90" viewBox="0 0 90 90" fill="none" xmlns="http://www.w3.org/2000/svg">
<mask id="mask0_44_560" style="mask-type:alpha" maskUnits="userSpaceOnUse" x="0" y="0" width="90" height="90">
<rect width="90" height="90" fill="#D9D9D9"/>
</mask>
<g mask="url(#mask0_44_560)">
<path fill-rule="evenodd" clip-rule="evenodd" d="M76 67C78.7614 67 81 64.7614 81 62V28C81 25.2386 78.7614 23 76 23H19C16.2386 23 14 25.2386 14 28V45V62C14 64.7614 16.2386 67 19 67H76ZM32.6 52.8C31.9408 53.2944 31 52.824 31 52V38C31 37.176 31.9408 36.7056 32.6 37.2L41.9333 44.2C42.4667 44.6 42.4667 45.4 41.9333 45.8L32.6 52.8Z" fill="#D6592C"/>
<path d="M32.6 37.2C31.9408 36.7056 31 37.176 31 38V52C31 52.824 31.9408 53.2944 32.6 52.8L41.9333 45.8C42.4667 45.4 42.4667 44.6 41.9333 44.2L32.6 37.2Z" fill="white"/>
<path fill-rule="evenodd" clip-rule="evenodd" d="M76 67C78.7614 67 81 64.7614 81 62V28C81 25.2386 78.7614 23 76 23H19C16.2386 23 14 25.2386 14 28V45V62C14 64.7614 16.2386 67 19 67H76ZM32.6 52.8C31.9408 53.2944 31 52.824 31 52V38C31 37.176 31.9408 36.7056 32.6 37.2L41.9333 44.2C42.4667 44.6 42.4667 45.4 41.9333 45.8L32.6 52.8Z" stroke="black" stroke-width="1.5"/>
<path d="M32.6 37.2C31.9408 36.7056 31 37.176 31 38V52C31 52.824 31.9408 53.2944 32.6 52.8L41.9333 45.8C42.4667 45.4 42.4667 44.6 41.9333 44.2L32.6 37.2Z" stroke="black" stroke-width="1.5"/>
<mask id="path-3-outside-1_44_560" maskUnits="userSpaceOnUse" x="51" y="37" width="21" height="16" fill="black">
<rect fill="white" x="51" y="37" width="21" height="16"/>
<path d="M53 41.4455C54.2167 41.5455 55.4833 41.7538 56.8 42.0705C58.1167 42.3872 59.4083 42.7705 60.675 43.2205C61.9417 43.6872 63.1333 44.2038 64.25 44.7705C65.3833 45.3372 66.3583 45.9122 67.175 46.4955V38.9705H70.35V51.0955H67.65C67.0667 50.5622 66.2583 49.9705 65.225 49.3205C64.1917 48.6872 63.0167 48.0788 61.7 47.4955C60.4 46.9288 59 46.4288 57.5 45.9955C56 45.5788 54.5 45.3205 53 45.2205V41.4455Z"/>
</mask>
<path d="M53 41.4455C54.2167 41.5455 55.4833 41.7538 56.8 42.0705C58.1167 42.3872 59.4083 42.7705 60.675 43.2205C61.9417 43.6872 63.1333 44.2038 64.25 44.7705C65.3833 45.3372 66.3583 45.9122 67.175 46.4955V38.9705H70.35V51.0955H67.65C67.0667 50.5622 66.2583 49.9705 65.225 49.3205C64.1917 48.6872 63.0167 48.0788 61.7 47.4955C60.4 46.9288 59 46.4288 57.5 45.9955C56 45.5788 54.5 45.3205 53 45.2205V41.4455Z" fill="white"/>
<path d="M53 41.4455L53.1229 39.9505L51.5 39.8172V41.4455H53ZM56.8 42.0705L56.4492 43.5289H56.4492L56.8 42.0705ZM60.675 43.2205L61.1936 41.813L61.1854 41.81L61.1771 41.8071L60.675 43.2205ZM64.25 44.7705L63.5712 46.1082L63.5792 46.1121L64.25 44.7705ZM67.175 46.4955L66.3031 47.7161L68.675 49.4103V46.4955H67.175ZM67.175 38.9705V37.4705H65.675V38.9705H67.175ZM70.35 38.9705H71.85V37.4705H70.35V38.9705ZM70.35 51.0955V52.5955H71.85V51.0955H70.35ZM67.65 51.0955L66.6378 52.2026L67.0676 52.5955H67.65V51.0955ZM65.225 49.3205L66.0237 48.0508L66.0163 48.0462L66.0088 48.0416L65.225 49.3205ZM61.7 47.4955L62.3076 46.1241L62.2994 46.1205L61.7 47.4955ZM57.5 45.9955L57.9163 44.5544L57.9089 44.5523L57.9015 44.5502L57.5 45.9955ZM53 45.2205H51.5V46.6238L52.9002 46.7172L53 45.2205ZM52.8771 42.9405C54.0092 43.0335 55.1995 43.2283 56.4492 43.5289L57.1508 40.6121C55.7672 40.2793 54.4241 40.0575 53.1229 39.9505L52.8771 42.9405ZM56.4492 43.5289C57.7151 43.8334 58.9562 44.2017 60.1729 44.634L61.1771 41.8071C59.8605 41.3393 58.5183 40.941 57.1508 40.6121L56.4492 43.5289ZM60.1564 44.628C61.3726 45.0761 62.5104 45.5698 63.5712 46.1081L64.9288 43.4329C63.7563 42.8379 62.5108 42.2983 61.1936 41.813L60.1564 44.628ZM63.5792 46.1121C64.6597 46.6524 65.5642 47.1883 66.3031 47.7161L68.0469 45.2749C67.1524 44.636 66.1069 44.0219 64.9208 43.4289L63.5792 46.1121ZM68.675 46.4955V38.9705H65.675V46.4955H68.675ZM67.175 40.4705H70.35V37.4705H67.175V40.4705ZM68.85 38.9705V51.0955H71.85V38.9705H68.85ZM70.35 49.5955H67.65V52.5955H70.35V49.5955ZM68.6622 49.9885C67.9872 49.3714 67.0967 48.7258 66.0237 48.0508L64.4263 50.5902C65.4199 51.2152 66.1461 51.753 66.6378 52.2026L68.6622 49.9885ZM66.0088 48.0416C64.9095 47.3678 63.6741 46.7295 62.3076 46.1241L61.0924 48.8669C62.3593 49.4282 63.4738 50.0065 64.4412 50.5994L66.0088 48.0416ZM62.2994 46.1205C60.9342 45.5254 59.4725 45.004 57.9163 44.5544L57.0837 47.4366C58.5275 47.8537 59.8658 48.3323 61.1006 48.8706L62.2994 46.1205ZM57.9015 44.5502C56.3064 44.1072 54.7054 43.8309 53.0998 43.7238L52.9002 46.7172C54.2946 46.8101 55.6936 47.0505 57.0985 47.4408L57.9015 44.5502ZM54.5 45.2205V41.4455H51.5V45.2205H54.5Z" fill="black" mask="url(#path-3-outside-1_44_560)"/>
</g>
</svg>
