<svg width="90" height="90" viewBox="0 0 90 90" fill="none" xmlns="http://www.w3.org/2000/svg">
<mask id="mask0_45_609" style="mask-type:alpha" maskUnits="userSpaceOnUse" x="0" y="0" width="90" height="90">
<rect width="90" height="90" fill="#D9D9D9"/>
</mask>
<g mask="url(#mask0_45_609)">
<path fill-rule="evenodd" clip-rule="evenodd" d="M76 67C78.7614 67 81 64.7614 81 62V28C81 25.2386 78.7614 23 76 23H19C16.2386 23 14 25.2386 14 28V45V62C14 64.7614 16.2386 67 19 67H76ZM32.6 52.8C31.9408 53.2944 31 52.824 31 52V38C31 37.176 31.9408 36.7056 32.6 37.2L41.9333 44.2C42.4667 44.6 42.4667 45.4 41.9333 45.8L32.6 52.8Z" fill="#D6592C"/>
<path d="M32.6 37.2C31.9408 36.7056 31 37.176 31 38V52C31 52.824 31.9408 53.2944 32.6 52.8L41.9333 45.8C42.4667 45.4 42.4667 44.6 41.9333 44.2L32.6 37.2Z" fill="white"/>
<path fill-rule="evenodd" clip-rule="evenodd" d="M76 67C78.7614 67 81 64.7614 81 62V28C81 25.2386 78.7614 23 76 23H19C16.2386 23 14 25.2386 14 28V45V62C14 64.7614 16.2386 67 19 67H76ZM32.6 52.8C31.9408 53.2944 31 52.824 31 52V38C31 37.176 31.9408 36.7056 32.6 37.2L41.9333 44.2C42.4667 44.6 42.4667 45.4 41.9333 45.8L32.6 52.8Z" stroke="black" stroke-width="1.5"/>
<path d="M32.6 37.2C31.9408 36.7056 31 37.176 31 38V52C31 52.824 31.9408 53.2944 32.6 52.8L41.9333 45.8C42.4667 45.4 42.4667 44.6 41.9333 44.2L32.6 37.2Z" stroke="black" stroke-width="1.5"/>
<mask id="path-3-outside-1_45_609" maskUnits="userSpaceOnUse" x="51" y="33" width="21" height="27" fill="black">
<rect fill="white" x="51" y="33" width="21" height="27"/>
<path d="M70.325 34.6099V38.5099H53V34.6099H70.325ZM53 52.47C53.9667 51.9867 54.9417 51.4534 55.925 50.87C56.925 50.3034 57.9417 49.645 58.975 48.895C58.675 48.6617 58.2583 48.3617 57.725 47.995C57.1917 47.645 56.625 47.2867 56.025 46.92C55.425 46.57 54.85 46.2367 54.3 45.92C53.75 45.6034 53.3167 45.37 53 45.22V40.77C54.35 41.5034 55.7667 42.3534 57.25 43.32C58.7333 44.3034 60.3083 45.395 61.975 46.595L70.325 41.02V45.745L64.925 49.12L70.325 52.42V56.87L61.925 51.37C60.1083 52.77 58.425 53.945 56.875 54.895C55.3417 55.845 54.05 56.595 53 57.145V52.47Z"/>
</mask>
<path d="M70.325 34.6099V38.5099H53V34.6099H70.325ZM53 52.47C53.9667 51.9867 54.9417 51.4534 55.925 50.87C56.925 50.3034 57.9417 49.645 58.975 48.895C58.675 48.6617 58.2583 48.3617 57.725 47.995C57.1917 47.645 56.625 47.2867 56.025 46.92C55.425 46.57 54.85 46.2367 54.3 45.92C53.75 45.6034 53.3167 45.37 53 45.22V40.77C54.35 41.5034 55.7667 42.3534 57.25 43.32C58.7333 44.3034 60.3083 45.395 61.975 46.595L70.325 41.02V45.745L64.925 49.12L70.325 52.42V56.87L61.925 51.37C60.1083 52.77 58.425 53.945 56.875 54.895C55.3417 55.845 54.05 56.595 53 57.145V52.47Z" fill="white"/>
<path d="M70.325 34.6099H71.825V33.1099H70.325V34.6099ZM70.325 38.5099V40.0099H71.825V38.5099H70.325ZM53 38.5099H51.5V40.0099H53V38.5099ZM53 34.6099V33.1099H51.5V34.6099H53ZM68.825 34.6099V38.5099H71.825V34.6099H68.825ZM70.325 37.0099H53V40.0099H70.325V37.0099ZM54.5 38.5099V34.6099H51.5V38.5099H54.5ZM53 36.1099H70.325V33.1099H53V36.1099ZM53 52.47L52.3292 51.1284L51.5 51.543V52.47H53ZM55.925 50.87L55.1855 49.565L55.1725 49.5723L55.1597 49.5799L55.925 50.87ZM58.975 48.895L59.8561 50.109L61.4715 48.9365L59.8959 47.711L58.975 48.895ZM57.725 47.995L58.5748 46.759L58.5615 46.7498L58.548 46.7409L57.725 47.995ZM56.025 46.92L56.8072 45.6401L56.7941 45.6321L56.7808 45.6244L56.025 46.92ZM54.3 45.92L55.0484 44.6201L54.3 45.92ZM53 45.22H51.5V46.1693L52.3579 46.5756L53 45.22ZM53 40.77L53.716 39.4519L51.5 38.2482V40.77H53ZM57.25 43.32L58.0788 42.0697L58.069 42.0633L57.25 43.32ZM61.975 46.595L61.0985 47.8123L61.9428 48.4202L62.8079 47.8425L61.975 46.595ZM70.325 41.02H71.825V38.2149L69.4921 39.7725L70.325 41.02ZM70.325 45.745L71.12 47.017L71.825 46.5764V45.745H70.325ZM64.925 49.12L64.13 47.848L62.0719 49.1344L64.1428 50.3999L64.925 49.12ZM70.325 52.42H71.825V51.5788L71.1072 51.1401L70.325 52.42ZM70.325 56.87L69.5033 58.1249L71.825 59.6451V56.87H70.325ZM61.925 51.37L62.7467 50.1151L61.8543 49.5308L61.0094 50.1819L61.925 51.37ZM56.875 54.895L56.0911 53.6161L56.085 53.6199L56.875 54.895ZM53 57.145H51.5V59.6241L53.696 58.4738L53 57.145ZM53.6708 53.8117C54.6714 53.3114 55.6779 52.7607 56.6903 52.1601L55.1597 49.5799C54.2055 50.146 53.262 50.662 52.3292 51.1284L53.6708 53.8117ZM56.6645 52.1751C57.7184 51.5779 58.7822 50.8884 59.8561 50.109L58.0939 47.6811C57.1011 48.4016 56.1316 49.0288 55.1855 49.565L56.6645 52.1751ZM59.8959 47.711C59.5622 47.4515 59.1181 47.1325 58.5748 46.759L56.8752 49.2311C57.3986 49.5909 57.7878 49.8719 58.0541 50.079L59.8959 47.711ZM58.548 46.7409C57.9999 46.3813 57.4195 46.0143 56.8072 45.6401L55.2428 48.1999C55.8305 48.559 56.3834 48.9088 56.902 49.2491L58.548 46.7409ZM56.7808 45.6244C56.1786 45.2731 55.6011 44.9383 55.0484 44.6201L53.5516 47.22C54.0989 47.5351 54.6714 47.867 55.2692 48.2157L56.7808 45.6244ZM55.0484 44.6201C54.4867 44.2967 54.0128 44.04 53.6421 43.8644L52.3579 46.5756C52.6205 46.7 53.0133 46.9101 53.5516 47.22L55.0484 44.6201ZM54.5 45.22V40.77H51.5V45.22H54.5ZM52.284 42.0881C53.5941 42.7997 54.9763 43.6287 56.431 44.5767L58.069 42.0633C56.5571 41.078 55.1059 40.207 53.716 39.4519L52.284 42.0881ZM56.4212 44.5703C57.8862 45.5414 59.4452 46.6219 61.0985 47.8123L62.8515 45.3777C61.1714 44.1681 59.5805 43.0653 58.0788 42.0698L56.4212 44.5703ZM62.8079 47.8425L71.1579 42.2675L69.4921 39.7725L61.1421 45.3475L62.8079 47.8425ZM68.825 41.02V45.745H71.825V41.02H68.825ZM69.53 44.473L64.13 47.848L65.72 50.392L71.12 47.017L69.53 44.473ZM64.1428 50.3999L69.5428 53.6999L71.1072 51.1401L65.7072 47.8401L64.1428 50.3999ZM68.825 52.42V56.87H71.825V52.42H68.825ZM71.1467 55.6151L62.7467 50.1151L61.1033 52.6249L69.5033 58.1249L71.1467 55.6151ZM61.0094 50.1819C59.2246 51.5573 57.5857 52.7001 56.0912 53.6161L57.6588 56.1739C59.2643 55.1899 60.992 53.9827 62.8406 52.5581L61.0094 50.1819ZM56.085 53.6199C54.5683 54.5596 53.3102 55.2892 52.304 55.8163L53.696 58.4738C54.7899 57.9008 56.115 57.1304 57.665 56.1701L56.085 53.6199ZM54.5 57.145V52.47H51.5V57.145H54.5Z" fill="black" mask="url(#path-3-outside-1_45_609)"/>
</g>
</svg>
