<svg width="90" height="90" viewBox="0 0 90 90" fill="none" xmlns="http://www.w3.org/2000/svg">
<mask id="mask0_43_418" style="mask-type:alpha" maskUnits="userSpaceOnUse" x="0" y="0" width="90" height="90">
<rect width="90" height="90" fill="#D9D9D9"/>
</mask>
<g mask="url(#mask0_43_418)">
<rect x="3.18889" y="22.9609" width="17.5" height="53.5" transform="rotate(2 3.18889 22.9609)" fill="#8F8555" stroke="black" stroke-width="1.5"/>
<rect x="24.7321" y="23.4072" width="17.5" height="59.5" transform="rotate(-1 24.7321 23.4072)" fill="#8F8555" stroke="black" stroke-width="1.5"/>
<rect x="48.1889" y="22.9609" width="17.5" height="53.5" transform="rotate(2 48.1889 22.9609)" fill="#8F8555" stroke="black" stroke-width="1.5"/>
<rect x="68.7321" y="23.4072" width="17.5" height="59.5" transform="rotate(-1 68.7321 23.4072)" fill="#8F8555" stroke="black" stroke-width="1.5"/>
<rect x="8.9664" y="5.50299" width="71.5" height="17.5" transform="rotate(-2 8.9664 5.50299)" fill="#8F8555" stroke="black" stroke-width="1.5"/>
<mask id="path-7-outside-1_43_418" maskUnits="userSpaceOnUse" x="-2" y="-67" width="159" height="134" fill="black">
<rect fill="white" x="-2" y="-67" width="159" height="134"/>
<path fill-rule="evenodd" clip-rule="evenodd" d="M155 0C155 35.8985 125.899 65 90 65H0V55H55.3431C47.2562 49.8935 40.3737 43.0527 35.2182 35H0V25H29.9816C26.7723 17.3041 25 8.85901 25 0C25 -35.8985 54.1015 -65 90 -65C125.899 -65 155 -35.8985 155 0ZM40.9971 25C37.1628 17.4993 35 9.00224 35 0C35 -30.3757 59.6243 -55 90 -55C120.376 -55 145 -30.3757 145 0C145 30.3757 120.376 55 90 55C72.9206 55 57.6595 47.215 47.5716 35H90C109.33 35 125 19.33 125 0C125 -19.33 109.33 -35 90 -35C70.67 -35 55 -19.33 55 0C55 9.79344 59.0223 18.6474 65.5051 25H40.9971ZM115 0C115 13.8071 103.807 25 90 25C76.1929 25 65 13.8071 65 0C65 -13.8071 76.1929 -25 90 -25C103.807 -25 115 -13.8071 115 0Z"/>
</mask>
<path fill-rule="evenodd" clip-rule="evenodd" d="M155 0C155 35.8985 125.899 65 90 65H0V55H55.3431C47.2562 49.8935 40.3737 43.0527 35.2182 35H0V25H29.9816C26.7723 17.3041 25 8.85901 25 0C25 -35.8985 54.1015 -65 90 -65C125.899 -65 155 -35.8985 155 0ZM40.9971 25C37.1628 17.4993 35 9.00224 35 0C35 -30.3757 59.6243 -55 90 -55C120.376 -55 145 -30.3757 145 0C145 30.3757 120.376 55 90 55C72.9206 55 57.6595 47.215 47.5716 35H90C109.33 35 125 19.33 125 0C125 -19.33 109.33 -35 90 -35C70.67 -35 55 -19.33 55 0C55 9.79344 59.0223 18.6474 65.5051 25H40.9971ZM115 0C115 13.8071 103.807 25 90 25C76.1929 25 65 13.8071 65 0C65 -13.8071 76.1929 -25 90 -25C103.807 -25 115 -13.8071 115 0Z" fill="#E2F5FF"/>
<path d="M0 65H-1.5V66.5H0V65ZM0 55V53.5H-1.5V55H0ZM55.3431 55V56.5H60.5281L56.144 53.7317L55.3431 55ZM35.2182 35L36.4815 34.1912L36.0389 33.5H35.2182V35ZM0 35H-1.5V36.5H0V35ZM0 25V23.5H-1.5V25H0ZM29.9816 25V26.5H32.2324L31.3661 24.4227L29.9816 25ZM40.9971 25L39.6615 25.6828L40.0793 26.5H40.9971V25ZM47.5716 35V33.5H44.3874L46.4151 35.9552L47.5716 35ZM65.5051 25V26.5H69.179L66.5549 23.9286L65.5051 25ZM90 66.5C126.727 66.5 156.5 36.7269 156.5 0H153.5C153.5 35.0701 125.07 63.5 90 63.5V66.5ZM90 63.5H0V66.5H90V63.5ZM1.5 65V55H-1.5V65H1.5ZM0 56.5H55.3431V53.5H0V56.5ZM33.9549 35.8088C39.229 44.0466 46.2693 51.0444 54.5423 56.2683L56.144 53.7317C48.2431 48.7427 41.5185 42.0587 36.4815 34.1912L33.9549 35.8088ZM35.2182 33.5H0V36.5H35.2182V33.5ZM1.5 35V25H-1.5V35H1.5ZM0 26.5H29.9816V23.5H0V26.5ZM23.5 0C23.5 9.06068 25.3129 17.7017 28.5972 25.5773L31.3661 24.4227C28.2317 16.9064 26.5 8.65733 26.5 0H23.5ZM90 -66.5C53.2731 -66.5 23.5 -36.7269 23.5 0H26.5C26.5 -35.0701 54.9299 -63.5 90 -63.5V-66.5ZM156.5 0C156.5 -36.7269 126.727 -66.5 90 -66.5V-63.5C125.07 -63.5 153.5 -35.0701 153.5 0H156.5ZM33.5 0C33.5 9.24507 35.7216 17.9756 39.6615 25.6828L42.3327 24.3172C38.6039 17.023 36.5 8.7594 36.5 0H33.5ZM90 -56.5C58.7959 -56.5 33.5 -31.2041 33.5 0H36.5C36.5 -29.5472 60.4528 -53.5 90 -53.5V-56.5ZM146.5 0C146.5 -31.2041 121.204 -56.5 90 -56.5V-53.5C119.547 -53.5 143.5 -29.5472 143.5 0H146.5ZM90 56.5C121.204 56.5 146.5 31.2041 146.5 0H143.5C143.5 29.5472 119.547 53.5 90 53.5V56.5ZM46.4151 35.9552C56.7757 48.5004 72.4543 56.5 90 56.5V53.5C73.387 53.5 58.5434 45.9296 48.7282 34.0448L46.4151 35.9552ZM90 33.5H47.5716V36.5H90V33.5ZM123.5 0C123.5 18.5015 108.502 33.5 90 33.5V36.5C110.158 36.5 126.5 20.1584 126.5 0H123.5ZM90 -33.5C108.502 -33.5 123.5 -18.5015 123.5 0H126.5C126.5 -20.1584 110.158 -36.5 90 -36.5V-33.5ZM56.5 0C56.5 -18.5015 71.4985 -33.5 90 -33.5V-36.5C69.8416 -36.5 53.5 -20.1584 53.5 0H56.5ZM66.5549 23.9286C60.3482 17.8466 56.5 9.37404 56.5 0H53.5C53.5 10.2128 57.6964 19.4483 64.4552 26.0714L66.5549 23.9286ZM40.9971 26.5H65.5051V23.5H40.9971V26.5ZM90 26.5C104.636 26.5 116.5 14.6355 116.5 0H113.5C113.5 12.9787 102.979 23.5 90 23.5V26.5ZM63.5 0C63.5 14.6355 75.3644 26.5 90 26.5V23.5C77.0213 23.5 66.5 12.9787 66.5 0H63.5ZM90 -26.5C75.3644 -26.5 63.5 -14.6355 63.5 0H66.5C66.5 -12.9787 77.0213 -23.5 90 -23.5V-26.5ZM116.5 0C116.5 -14.6355 104.636 -26.5 90 -26.5V-23.5C102.979 -23.5 113.5 -12.9787 113.5 0H116.5Z" fill="black" mask="url(#path-7-outside-1_43_418)"/>
</g>
</svg>
