<svg width="90" height="90" viewBox="0 0 90 90" fill="none" xmlns="http://www.w3.org/2000/svg">
<mask id="mask0_44_519" style="mask-type:alpha" maskUnits="userSpaceOnUse" x="0" y="0" width="90" height="90">
<rect width="90" height="90" fill="#D9D9D9"/>
</mask>
<g mask="url(#mask0_44_519)">
<rect x="23.1014" y="69.7182" width="53.5" height="17.5" transform="rotate(-1 23.1014 69.7182)" fill="#8F8555" stroke="black" stroke-width="1.5"/>
<rect x="23.5735" y="46.2171" width="59.5" height="17.5" transform="rotate(2 23.5735 46.2171)" fill="#8F8555" stroke="black" stroke-width="1.5"/>
<rect x="23.1014" y="25.7182" width="53.5" height="17.5" transform="rotate(-1 23.1014 25.7182)" fill="#8F8555" stroke="black" stroke-width="1.5"/>
<rect x="23.5735" y="1.21707" width="59.5" height="17.5" transform="rotate(2 23.5735 1.21707)" fill="#8F8555" stroke="black" stroke-width="1.5"/>
<rect x="3.00767" y="9.57715" width="17.5" height="71.5" transform="rotate(-2 3.00767 9.57715)" fill="#8F8555" stroke="black" stroke-width="1.5"/>
<mask id="path-7-outside-1_44_519" maskUnits="userSpaceOnUse" x="-67" y="-67" width="134" height="159" fill="black">
<rect fill="white" x="-67" y="-67" width="134" height="159"/>
<path fill-rule="evenodd" clip-rule="evenodd" d="M25 60.0184C17.3041 63.2277 8.85901 65 0 65C-35.8985 65 -65 35.8985 -65 0C-65 -35.8985 -35.8985 -65 0 -65C35.8985 -65 65 -35.8985 65 0V90H55V34.6569C49.8935 42.7438 43.0527 49.6263 35 54.7818V90H25V60.0184ZM25 49.0029C17.4993 52.8372 9.00224 55 0 55C-30.3757 55 -55 30.3757 -55 0C-55 -30.3757 -30.3757 -55 0 -55C30.3757 -55 55 -30.3757 55 0C55 17.0794 47.215 32.3405 35 42.4284V0C35 -19.33 19.33 -35 0 -35C-19.33 -35 -35 -19.33 -35 0C-35 19.33 -19.33 35 0 35C9.79344 35 18.6474 30.9777 25 24.4949V49.0029ZM0 25C13.8071 25 25 13.8071 25 0C25 -13.8071 13.8071 -25 0 -25C-13.8071 -25 -25 -13.8071 -25 0C-25 13.8071 -13.8071 25 0 25Z"/>
</mask>
<path fill-rule="evenodd" clip-rule="evenodd" d="M25 60.0184C17.3041 63.2277 8.85901 65 0 65C-35.8985 65 -65 35.8985 -65 0C-65 -35.8985 -35.8985 -65 0 -65C35.8985 -65 65 -35.8985 65 0V90H55V34.6569C49.8935 42.7438 43.0527 49.6263 35 54.7818V90H25V60.0184ZM25 49.0029C17.4993 52.8372 9.00224 55 0 55C-30.3757 55 -55 30.3757 -55 0C-55 -30.3757 -30.3757 -55 0 -55C30.3757 -55 55 -30.3757 55 0C55 17.0794 47.215 32.3405 35 42.4284V0C35 -19.33 19.33 -35 0 -35C-19.33 -35 -35 -19.33 -35 0C-35 19.33 -19.33 35 0 35C9.79344 35 18.6474 30.9777 25 24.4949V49.0029ZM0 25C13.8071 25 25 13.8071 25 0C25 -13.8071 13.8071 -25 0 -25C-13.8071 -25 -25 -13.8071 -25 0C-25 13.8071 -13.8071 25 0 25Z" fill="#E2F5FF"/>
<path d="M25 60.0184H26.5V57.7676L24.4227 58.6339L25 60.0184ZM65 90V91.5H66.5V90H65ZM55 90H53.5V91.5H55V90ZM55 34.6569H56.5V29.4719L53.7317 33.856L55 34.6569ZM35 54.7818L34.1912 53.5185L33.5 53.9611V54.7818H35ZM35 90V91.5H36.5V90H35ZM25 90H23.5V91.5H25V90ZM25 49.0029L25.6828 50.3385L26.5 49.9207V49.0029H25ZM35 42.4284H33.5V45.6126L35.9552 43.585L35 42.4284ZM25 24.4949H26.5V20.821L23.9286 23.4451L25 24.4949ZM0 66.5C9.06068 66.5 17.7017 64.6871 25.5773 61.4028L24.4227 58.6339C16.9064 61.7683 8.65733 63.5 0 63.5V66.5ZM-66.5 0C-66.5 36.7269 -36.7269 66.5 0 66.5V63.5C-35.0701 63.5 -63.5 35.0701 -63.5 0H-66.5ZM0 -66.5C-36.7269 -66.5 -66.5 -36.7269 -66.5 0H-63.5C-63.5 -35.0701 -35.0701 -63.5 0 -63.5V-66.5ZM66.5 0C66.5 -36.7269 36.7269 -66.5 0 -66.5V-63.5C35.0701 -63.5 63.5 -35.0701 63.5 0H66.5ZM63.5 0V90H66.5V0H63.5ZM65 88.5H55V91.5H65V88.5ZM56.5 90V34.6569H53.5V90H56.5ZM35.8088 56.0451C44.0466 50.771 51.0444 43.7307 56.2683 35.4577L53.7317 33.856C48.7427 41.7569 42.0587 48.4815 34.1912 53.5185L35.8088 56.0451ZM33.5 54.7818V90H36.5V54.7818H33.5ZM35 88.5H25V91.5H35V88.5ZM26.5 90V60.0184H23.5V90H26.5ZM0 56.5C9.24507 56.5 17.9756 54.2784 25.6828 50.3385L24.3172 47.6673C17.023 51.3961 8.7594 53.5 0 53.5V56.5ZM-56.5 0C-56.5 31.2041 -31.2041 56.5 0 56.5V53.5C-29.5472 53.5 -53.5 29.5472 -53.5 0H-56.5ZM0 -56.5C-31.2041 -56.5 -56.5 -31.2041 -56.5 0H-53.5C-53.5 -29.5472 -29.5472 -53.5 0 -53.5V-56.5ZM56.5 0C56.5 -31.2041 31.2041 -56.5 0 -56.5V-53.5C29.5472 -53.5 53.5 -29.5472 53.5 0H56.5ZM35.9552 43.585C48.5004 33.2243 56.5 17.5457 56.5 0H53.5C53.5 16.613 45.9296 31.4566 34.0448 41.2718L35.9552 43.585ZM33.5 0V42.4284H36.5V0H33.5ZM0 -33.5C18.5015 -33.5 33.5 -18.5015 33.5 0H36.5C36.5 -20.1584 20.1584 -36.5 0 -36.5V-33.5ZM-33.5 0C-33.5 -18.5015 -18.5015 -33.5 0 -33.5V-36.5C-20.1584 -36.5 -36.5 -20.1584 -36.5 0H-33.5ZM0 33.5C-18.5015 33.5 -33.5 18.5015 -33.5 0H-36.5C-36.5 20.1584 -20.1584 36.5 0 36.5V33.5ZM23.9286 23.4451C17.8466 29.6518 9.37404 33.5 0 33.5V36.5C10.2128 36.5 19.4483 32.3036 26.0714 25.5448L23.9286 23.4451ZM26.5 49.0029V24.4949H23.5V49.0029H26.5ZM23.5 0C23.5 12.9787 12.9787 23.5 0 23.5V26.5C14.6355 26.5 26.5 14.6355 26.5 0H23.5ZM0 -23.5C12.9787 -23.5 23.5 -12.9787 23.5 0H26.5C26.5 -14.6355 14.6355 -26.5 0 -26.5V-23.5ZM-23.5 0C-23.5 -12.9787 -12.9787 -23.5 0 -23.5V-26.5C-14.6355 -26.5 -26.5 -14.6355 -26.5 0H-23.5ZM0 23.5C-12.9787 23.5 -23.5 12.9787 -23.5 0H-26.5C-26.5 14.6355 -14.6355 26.5 0 26.5V23.5Z" fill="black" mask="url(#path-7-outside-1_44_519)"/>
</g>
</svg>
